solid OpenSCAD_Model
  facet normal -1 0 0
    outer loop
      vertex -10 5 -3
      vertex -10 3.5 -1
      vertex -10 5 3
    endloop
  endfacet
  facet normal -1 0 0
    outer loop
      vertex -10 5 -3
      vertex -10 -3.5 -1
      vertex -10 3.5 -1
    endloop
  endfacet
  facet normal -1 -0 0
    outer loop
      vertex -10 -3.5 -1
      vertex -10 -5 -3
      vertex -10 -3.5 1
    endloop
  endfacet
  facet normal -1 0 0
    outer loop
      vertex -10 -5 -3
      vertex -10 -3.5 -1
      vertex -10 5 -3
    endloop
  endfacet
  facet normal -1 0 0
    outer loop
      vertex -10 3.5 1
      vertex -10 5 3
      vertex -10 3.5 -1
    endloop
  endfacet
  facet normal -1 0 0
    outer loop
      vertex -10 -3.5 1
      vertex -10 5 3
      vertex -10 3.5 1
    endloop
  endfacet
  facet normal -1 0 0
    outer loop
      vertex -10 -3.5 1
      vertex -10 -5 3
      vertex -10 5 3
    endloop
  endfacet
  facet normal -1 0 0
    outer loop
      vertex -10 -5 3
      vertex -10 -3.5 1
      vertex -10 -5 -3
    endloop
  endfacet
  facet normal -0 0 1
    outer loop
      vertex -10 5 3
      vertex 10 -5 3
      vertex 10 5 3
    endloop
  endfacet
  facet normal 0 0 1
    outer loop
      vertex 10 -5 3
      vertex -10 5 3
      vertex -10 -5 3
    endloop
  endfacet
  facet normal 1 0 0
    outer loop
      vertex 10 5 3
      vertex 10 1 0
      vertex 10 5 -3
    endloop
  endfacet
  facet normal 1 0 0
    outer loop
      vertex 10 5 3
      vertex 10 0.998026 0.0627899
      vertex 10 1 0
    endloop
  endfacet
  facet normal 1 0 0
    outer loop
      vertex 10 5 3
      vertex 10 0.992114 0.125333
      vertex 10 0.998026 0.0627899
    endloop
  endfacet
  facet normal 1 0 0
    outer loop
      vertex 10 5 3
      vertex 10 0.982286 0.187381
      vertex 10 0.992114 0.125333
    endloop
  endfacet
  facet normal 1 0 0
    outer loop
      vertex 10 5 3
      vertex 10 0.968583 0.24869
      vertex 10 0.982286 0.187381
    endloop
  endfacet
  facet normal 1 0 0
    outer loop
      vertex 10 5 3
      vertex 10 0.951056 0.309016
      vertex 10 0.968583 0.24869
    endloop
  endfacet
  facet normal 1 0 0
    outer loop
      vertex 10 5 3
      vertex 10 0.929776 0.368124
      vertex 10 0.951056 0.309016
    endloop
  endfacet
  facet normal 1 0 0
    outer loop
      vertex 10 5 3
      vertex 10 0.904826 0.425778
      vertex 10 0.929776 0.368124
    endloop
  endfacet
  facet normal 1 0 0
    outer loop
      vertex 10 5 3
      vertex 10 0.876307 0.481753
      vertex 10 0.904826 0.425778
    endloop
  endfacet
  facet normal 1 0 0
    outer loop
      vertex 10 5 3
      vertex 10 0.844327 0.535827
      vertex 10 0.876307 0.481753
    endloop
  endfacet
  facet normal 1 0 0
    outer loop
      vertex 10 5 3
      vertex 10 0.809016 0.587785
      vertex 10 0.844327 0.535827
    endloop
  endfacet
  facet normal 1 0 0
    outer loop
      vertex 10 5 3
      vertex 10 0.770513 0.637424
      vertex 10 0.809016 0.587785
    endloop
  endfacet
  facet normal 1 0 0
    outer loop
      vertex 10 5 3
      vertex 10 0.728969 0.684546
      vertex 10 0.770513 0.637424
    endloop
  endfacet
  facet normal 1 0 0
    outer loop
      vertex 10 5 3
      vertex 10 0.684546 0.728969
      vertex 10 0.728969 0.684546
    endloop
  endfacet
  facet normal 1 0 0
    outer loop
      vertex 10 5 3
      vertex 10 0.637424 0.770513
      vertex 10 0.684546 0.728969
    endloop
  endfacet
  facet normal 1 0 0
    outer loop
      vertex 10 5 3
      vertex 10 0.587785 0.809016
      vertex 10 0.637424 0.770513
    endloop
  endfacet
  facet normal 1 0 0
    outer loop
      vertex 10 5 3
      vertex 10 0.535827 0.844327
      vertex 10 0.587785 0.809016
    endloop
  endfacet
  facet normal 1 0 0
    outer loop
      vertex 10 5 3
      vertex 10 0.481753 0.876307
      vertex 10 0.535827 0.844327
    endloop
  endfacet
  facet normal 1 0 0
    outer loop
      vertex 10 5 3
      vertex 10 0.425778 0.904826
      vertex 10 0.481753 0.876307
    endloop
  endfacet
  facet normal 1 0 0
    outer loop
      vertex 10 5 3
      vertex 10 0.368124 0.929776
      vertex 10 0.425778 0.904826
    endloop
  endfacet
  facet normal 1 0 0
    outer loop
      vertex 10 5 3
      vertex 10 0.309016 0.951056
      vertex 10 0.368124 0.929776
    endloop
  endfacet
  facet normal 1 0 0
    outer loop
      vertex 10 5 3
      vertex 10 0.24869 0.968583
      vertex 10 0.309016 0.951056
    endloop
  endfacet
  facet normal 1 0 0
    outer loop
      vertex 10 5 3
      vertex 10 0.187381 0.982286
      vertex 10 0.24869 0.968583
    endloop
  endfacet
  facet normal 1 0 0
    outer loop
      vertex 10 5 3
      vertex 10 0.125333 0.992114
      vertex 10 0.187381 0.982286
    endloop
  endfacet
  facet normal 1 0 0
    outer loop
      vertex 10 5 3
      vertex 10 0.0627899 0.998026
      vertex 10 0.125333 0.992114
    endloop
  endfacet
  facet normal 1 0 0
    outer loop
      vertex 10 5 3
      vertex 10 0 1
      vertex 10 0.0627899 0.998026
    endloop
  endfacet
  facet normal 1 -0 0
    outer loop
      vertex 10 -5 3
      vertex 10 0 1
      vertex 10 5 3
    endloop
  endfacet
  facet normal 1 0 0
    outer loop
      vertex 10 0 1
      vertex 10 -5 3
      vertex 10 -0.0627899 0.998026
    endloop
  endfacet
  facet normal 1 0 0
    outer loop
      vertex 10 -0.0627899 0.998026
      vertex 10 -5 3
      vertex 10 -0.125333 0.992114
    endloop
  endfacet
  facet normal 1 0 0
    outer loop
      vertex 10 -0.125333 0.992114
      vertex 10 -5 3
      vertex 10 -0.187381 0.982286
    endloop
  endfacet
  facet normal 1 0 0
    outer loop
      vertex 10 -0.187381 0.982286
      vertex 10 -5 3
      vertex 10 -0.24869 0.968583
    endloop
  endfacet
  facet normal 1 0 0
    outer loop
      vertex 10 -0.24869 0.968583
      vertex 10 -5 3
      vertex 10 -0.309016 0.951056
    endloop
  endfacet
  facet normal 1 0 0
    outer loop
      vertex 10 -0.998026 0.0627899
      vertex 10 -5 3
      vertex 10 -1 0
    endloop
  endfacet
  facet normal 1 0 0
    outer loop
      vertex 10 -0.992114 0.125333
      vertex 10 -5 3
      vertex 10 -0.998026 0.0627899
    endloop
  endfacet
  facet normal 1 0 0
    outer loop
      vertex 10 -0.982286 0.187381
      vertex 10 -5 3
      vertex 10 -0.992114 0.125333
    endloop
  endfacet
  facet normal 1 0 0
    outer loop
      vertex 10 -0.968583 0.24869
      vertex 10 -5 3
      vertex 10 -0.982286 0.187381
    endloop
  endfacet
  facet normal 1 0 0
    outer loop
      vertex 10 -0.951056 0.309016
      vertex 10 -5 3
      vertex 10 -0.968583 0.24869
    endloop
  endfacet
  facet normal 1 0 0
    outer loop
      vertex 10 -0.929776 0.368124
      vertex 10 -5 3
      vertex 10 -0.951056 0.309016
    endloop
  endfacet
  facet normal 1 0 0
    outer loop
      vertex 10 -0.904826 0.425778
      vertex 10 -5 3
      vertex 10 -0.929776 0.368124
    endloop
  endfacet
  facet normal 1 0 0
    outer loop
      vertex 10 -0.876307 0.481753
      vertex 10 -5 3
      vertex 10 -0.904826 0.425778
    endloop
  endfacet
  facet normal 1 0 0
    outer loop
      vertex 10 -0.844327 0.535827
      vertex 10 -5 3
      vertex 10 -0.876307 0.481753
    endloop
  endfacet
  facet normal 1 0 0
    outer loop
      vertex 10 -0.809016 0.587785
      vertex 10 -5 3
      vertex 10 -0.844327 0.535827
    endloop
  endfacet
  facet normal 1 0 0
    outer loop
      vertex 10 -0.770513 0.637424
      vertex 10 -5 3
      vertex 10 -0.809016 0.587785
    endloop
  endfacet
  facet normal 1 0 0
    outer loop
      vertex 10 -0.728969 0.684546
      vertex 10 -5 3
      vertex 10 -0.770513 0.637424
    endloop
  endfacet
  facet normal 1 0 0
    outer loop
      vertex 10 -0.684546 0.728969
      vertex 10 -5 3
      vertex 10 -0.728969 0.684546
    endloop
  endfacet
  facet normal 1 0 0
    outer loop
      vertex 10 -0.637424 0.770513
      vertex 10 -5 3
      vertex 10 -0.684546 0.728969
    endloop
  endfacet
  facet normal 1 0 0
    outer loop
      vertex 10 -0.587785 0.809016
      vertex 10 -5 3
      vertex 10 -0.637424 0.770513
    endloop
  endfacet
  facet normal 1 0 0
    outer loop
      vertex 10 -0.535827 0.844327
      vertex 10 -5 3
      vertex 10 -0.587785 0.809016
    endloop
  endfacet
  facet normal 1 0 0
    outer loop
      vertex 10 -0.481753 0.876307
      vertex 10 -5 3
      vertex 10 -0.535827 0.844327
    endloop
  endfacet
  facet normal 1 0 0
    outer loop
      vertex 10 -0.425778 0.904826
      vertex 10 -5 3
      vertex 10 -0.481753 0.876307
    endloop
  endfacet
  facet normal 1 0 0
    outer loop
      vertex 10 -0.368124 0.929776
      vertex 10 -5 3
      vertex 10 -0.425778 0.904826
    endloop
  endfacet
  facet normal 1 0 0
    outer loop
      vertex 10 -0.309016 0.951056
      vertex 10 -5 3
      vertex 10 -0.368124 0.929776
    endloop
  endfacet
  facet normal 1 -0 0
    outer loop
      vertex 10 0.998026 -0.0627899
      vertex 10 5 -3
      vertex 10 1 0
    endloop
  endfacet
  facet normal 1 -0 0
    outer loop
      vertex 10 0.992114 -0.125333
      vertex 10 5 -3
      vertex 10 0.998026 -0.0627899
    endloop
  endfacet
  facet normal 1 -0 0
    outer loop
      vertex 10 0.982286 -0.187381
      vertex 10 5 -3
      vertex 10 0.992114 -0.125333
    endloop
  endfacet
  facet normal 1 -0 0
    outer loop
      vertex 10 0.968583 -0.24869
      vertex 10 5 -3
      vertex 10 0.982286 -0.187381
    endloop
  endfacet
  facet normal 1 -0 0
    outer loop
      vertex 10 0.951056 -0.309016
      vertex 10 5 -3
      vertex 10 0.968583 -0.24869
    endloop
  endfacet
  facet normal 1 -0 0
    outer loop
      vertex 10 0.929776 -0.368124
      vertex 10 5 -3
      vertex 10 0.951056 -0.309016
    endloop
  endfacet
  facet normal 1 -0 0
    outer loop
      vertex 10 0.904826 -0.425778
      vertex 10 5 -3
      vertex 10 0.929776 -0.368124
    endloop
  endfacet
  facet normal 1 -0 0
    outer loop
      vertex 10 0.876307 -0.481753
      vertex 10 5 -3
      vertex 10 0.904826 -0.425778
    endloop
  endfacet
  facet normal 1 -0 0
    outer loop
      vertex 10 0.844327 -0.535827
      vertex 10 5 -3
      vertex 10 0.876307 -0.481753
    endloop
  endfacet
  facet normal 1 -0 0
    outer loop
      vertex 10 0.809016 -0.587785
      vertex 10 5 -3
      vertex 10 0.844327 -0.535827
    endloop
  endfacet
  facet normal 1 -0 0
    outer loop
      vertex 10 0.770513 -0.637424
      vertex 10 5 -3
      vertex 10 0.809016 -0.587785
    endloop
  endfacet
  facet normal 1 -0 0
    outer loop
      vertex 10 0.728969 -0.684546
      vertex 10 5 -3
      vertex 10 0.770513 -0.637424
    endloop
  endfacet
  facet normal 1 -0 0
    outer loop
      vertex 10 0.684546 -0.728969
      vertex 10 5 -3
      vertex 10 0.728969 -0.684546
    endloop
  endfacet
  facet normal 1 -0 0
    outer loop
      vertex 10 0.637424 -0.770513
      vertex 10 5 -3
      vertex 10 0.684546 -0.728969
    endloop
  endfacet
  facet normal 1 -0 0
    outer loop
      vertex 10 0.587785 -0.809016
      vertex 10 5 -3
      vertex 10 0.637424 -0.770513
    endloop
  endfacet
  facet normal 1 -0 0
    outer loop
      vertex 10 0.535827 -0.844327
      vertex 10 5 -3
      vertex 10 0.587785 -0.809016
    endloop
  endfacet
  facet normal 1 -0 0
    outer loop
      vertex 10 0.481753 -0.876307
      vertex 10 5 -3
      vertex 10 0.535827 -0.844327
    endloop
  endfacet
  facet normal 1 -0 0
    outer loop
      vertex 10 0.425778 -0.904826
      vertex 10 5 -3
      vertex 10 0.481753 -0.876307
    endloop
  endfacet
  facet normal 1 -0 0
    outer loop
      vertex 10 0.368124 -0.929776
      vertex 10 5 -3
      vertex 10 0.425778 -0.904826
    endloop
  endfacet
  facet normal 1 -0 0
    outer loop
      vertex 10 0.309016 -0.951056
      vertex 10 5 -3
      vertex 10 0.368124 -0.929776
    endloop
  endfacet
  facet normal 1 -0 0
    outer loop
      vertex 10 0.24869 -0.968583
      vertex 10 5 -3
      vertex 10 0.309016 -0.951056
    endloop
  endfacet
  facet normal 1 -0 0
    outer loop
      vertex 10 0.187381 -0.982286
      vertex 10 5 -3
      vertex 10 0.24869 -0.968583
    endloop
  endfacet
  facet normal 1 -0 0
    outer loop
      vertex 10 0.125333 -0.992114
      vertex 10 5 -3
      vertex 10 0.187381 -0.982286
    endloop
  endfacet
  facet normal 1 -0 0
    outer loop
      vertex 10 0.0627899 -0.998026
      vertex 10 5 -3
      vertex 10 0.125333 -0.992114
    endloop
  endfacet
  facet normal 1 -0 0
    outer loop
      vertex 10 0 -1
      vertex 10 5 -3
      vertex 10 0.0627899 -0.998026
    endloop
  endfacet
  facet normal 1 0 0
    outer loop
      vertex 10 -5 -3
      vertex 10 0 -1
      vertex 10 -0.0627899 -0.998026
    endloop
  endfacet
  facet normal 1 0 0
    outer loop
      vertex 10 -5 -3
      vertex 10 -0.0627899 -0.998026
      vertex 10 -0.125333 -0.992114
    endloop
  endfacet
  facet normal 1 0 0
    outer loop
      vertex 10 -5 -3
      vertex 10 -0.125333 -0.992114
      vertex 10 -0.187381 -0.982286
    endloop
  endfacet
  facet normal 1 0 0
    outer loop
      vertex 10 -5 -3
      vertex 10 -0.187381 -0.982286
      vertex 10 -0.24869 -0.968583
    endloop
  endfacet
  facet normal 1 0 0
    outer loop
      vertex 10 -5 -3
      vertex 10 -0.24869 -0.968583
      vertex 10 -0.309016 -0.951056
    endloop
  endfacet
  facet normal 1 0 0
    outer loop
      vertex 10 -5 -3
      vertex 10 -0.309016 -0.951056
      vertex 10 -0.368124 -0.929776
    endloop
  endfacet
  facet normal 1 0 0
    outer loop
      vertex 10 -5 -3
      vertex 10 -1 0
      vertex 10 -5 3
    endloop
  endfacet
  facet normal 1 0 0
    outer loop
      vertex 10 -1 0
      vertex 10 -5 -3
      vertex 10 -0.998026 -0.0627899
    endloop
  endfacet
  facet normal 1 0 0
    outer loop
      vertex 10 -0.998026 -0.0627899
      vertex 10 -5 -3
      vertex 10 -0.992114 -0.125333
    endloop
  endfacet
  facet normal 1 0 0
    outer loop
      vertex 10 -0.992114 -0.125333
      vertex 10 -5 -3
      vertex 10 -0.982286 -0.187381
    endloop
  endfacet
  facet normal 1 0 0
    outer loop
      vertex 10 -0.982286 -0.187381
      vertex 10 -5 -3
      vertex 10 -0.968583 -0.24869
    endloop
  endfacet
  facet normal 1 0 0
    outer loop
      vertex 10 -0.968583 -0.24869
      vertex 10 -5 -3
      vertex 10 -0.951056 -0.309016
    endloop
  endfacet
  facet normal 1 0 0
    outer loop
      vertex 10 -0.951056 -0.309016
      vertex 10 -5 -3
      vertex 10 -0.929776 -0.368124
    endloop
  endfacet
  facet normal 1 0 0
    outer loop
      vertex 10 -0.929776 -0.368124
      vertex 10 -5 -3
      vertex 10 -0.904826 -0.425778
    endloop
  endfacet
  facet normal 1 0 0
    outer loop
      vertex 10 -0.904826 -0.425778
      vertex 10 -5 -3
      vertex 10 -0.876307 -0.481753
    endloop
  endfacet
  facet normal 1 0 0
    outer loop
      vertex 10 -0.876307 -0.481753
      vertex 10 -5 -3
      vertex 10 -0.844327 -0.535827
    endloop
  endfacet
  facet normal 1 0 0
    outer loop
      vertex 10 -0.844327 -0.535827
      vertex 10 -5 -3
      vertex 10 -0.809016 -0.587785
    endloop
  endfacet
  facet normal 1 0 0
    outer loop
      vertex 10 -0.809016 -0.587785
      vertex 10 -5 -3
      vertex 10 -0.770513 -0.637424
    endloop
  endfacet
  facet normal 1 0 0
    outer loop
      vertex 10 -0.770513 -0.637424
      vertex 10 -5 -3
      vertex 10 -0.728969 -0.684546
    endloop
  endfacet
  facet normal 1 0 0
    outer loop
      vertex 10 -0.728969 -0.684546
      vertex 10 -5 -3
      vertex 10 -0.684546 -0.728969
    endloop
  endfacet
  facet normal 1 0 0
    outer loop
      vertex 10 0 -1
      vertex 10 -5 -3
      vertex 10 5 -3
    endloop
  endfacet
  facet normal 1 0 0
    outer loop
      vertex 10 -0.425778 -0.904826
      vertex 10 -5 -3
      vertex 10 -0.368124 -0.929776
    endloop
  endfacet
  facet normal 1 0 0
    outer loop
      vertex 10 -0.481753 -0.876307
      vertex 10 -5 -3
      vertex 10 -0.425778 -0.904826
    endloop
  endfacet
  facet normal 1 0 0
    outer loop
      vertex 10 -0.535827 -0.844327
      vertex 10 -5 -3
      vertex 10 -0.481753 -0.876307
    endloop
  endfacet
  facet normal 1 0 0
    outer loop
      vertex 10 -0.587785 -0.809016
      vertex 10 -5 -3
      vertex 10 -0.535827 -0.844327
    endloop
  endfacet
  facet normal 1 0 0
    outer loop
      vertex 10 -0.637424 -0.770513
      vertex 10 -5 -3
      vertex 10 -0.587785 -0.809016
    endloop
  endfacet
  facet normal 1 0 0
    outer loop
      vertex 10 -0.684546 -0.728969
      vertex 10 -5 -3
      vertex 10 -0.637424 -0.770513
    endloop
  endfacet
  facet normal 0 1 -0
    outer loop
      vertex 10 5 -3
      vertex -10 5 3
      vertex 10 5 3
    endloop
  endfacet
  facet normal 0 1 0
    outer loop
      vertex -10 5 3
      vertex 10 5 -3
      vertex -10 5 -3
    endloop
  endfacet
  facet normal 0 0 -1
    outer loop
      vertex -10 -5 -3
      vertex 10 5 -3
      vertex 10 -5 -3
    endloop
  endfacet
  facet normal -0 0 -1
    outer loop
      vertex 10 5 -3
      vertex -10 -5 -3
      vertex -10 5 -3
    endloop
  endfacet
  facet normal 0 -1 0
    outer loop
      vertex -10 -5 -3
      vertex 10 -5 3
      vertex -10 -5 3
    endloop
  endfacet
  facet normal 0 -1 -0
    outer loop
      vertex 10 -5 3
      vertex -10 -5 -3
      vertex 10 -5 -3
    endloop
  endfacet
  facet normal -1 0 0
    outer loop
      vertex -17 -3.5 -1
      vertex -17 3.5 1
      vertex -17 3.5 -1
    endloop
  endfacet
  facet normal -1 -0 0
    outer loop
      vertex -17 3.5 1
      vertex -17 -3.5 -1
      vertex -17 -3.5 1
    endloop
  endfacet
  facet normal -0 0 1
    outer loop
      vertex -17 3.5 1
      vertex -10 -3.5 1
      vertex -10 3.5 1
    endloop
  endfacet
  facet normal 0 0 1
    outer loop
      vertex -10 -3.5 1
      vertex -17 3.5 1
      vertex -17 -3.5 1
    endloop
  endfacet
  facet normal 0 0 -1
    outer loop
      vertex -17 -3.5 -1
      vertex -10 3.5 -1
      vertex -10 -3.5 -1
    endloop
  endfacet
  facet normal -0 0 -1
    outer loop
      vertex -10 3.5 -1
      vertex -17 -3.5 -1
      vertex -17 3.5 -1
    endloop
  endfacet
  facet normal 0 -1 0
    outer loop
      vertex -17 -3.5 -1
      vertex -10 -3.5 1
      vertex -17 -3.5 1
    endloop
  endfacet
  facet normal 0 -1 -0
    outer loop
      vertex -10 -3.5 1
      vertex -17 -3.5 -1
      vertex -10 -3.5 -1
    endloop
  endfacet
  facet normal 0 1 -0
    outer loop
      vertex -10 3.5 -1
      vertex -17 3.5 1
      vertex -10 3.5 1
    endloop
  endfacet
  facet normal 0 1 0
    outer loop
      vertex -17 3.5 1
      vertex -10 3.5 -1
      vertex -17 3.5 -1
    endloop
  endfacet
  facet normal 0 0.0314227 -0.999506
    outer loop
      vertex 10 0 -1
      vertex 38.5 0.0627899 -0.998026
      vertex 38.5 0 -1
    endloop
  endfacet
  facet normal 0 0.0314227 -0.999506
    outer loop
      vertex 38.5 0.0627899 -0.998026
      vertex 10 0 -1
      vertex 10 0.0627899 -0.998026
    endloop
  endfacet
  facet normal -0 0.0314227 0.999506
    outer loop
      vertex 10 0.0627899 0.998026
      vertex 38.5 0 1
      vertex 38.5 0.0627899 0.998026
    endloop
  endfacet
  facet normal 0 0.0314227 0.999506
    outer loop
      vertex 38.5 0 1
      vertex 10 0.0627899 0.998026
      vertex 10 0 1
    endloop
  endfacet
  facet normal 0 -0.999506 0.0314227
    outer loop
      vertex 10 -1 0
      vertex 38.5 -0.998026 0.0627899
      vertex 10 -0.998026 0.0627899
    endloop
  endfacet
  facet normal 0 -0.999506 0.0314227
    outer loop
      vertex 38.5 -0.998026 0.0627899
      vertex 10 -1 0
      vertex 38.5 -1 0
    endloop
  endfacet
  facet normal 0 -0.661315 0.750108
    outer loop
      vertex 10 -0.637424 0.770513
      vertex 38.5 -0.684546 0.728969
      vertex 38.5 -0.637424 0.770513
    endloop
  endfacet
  facet normal 0 -0.661315 0.750108
    outer loop
      vertex 38.5 -0.684546 0.728969
      vertex 10 -0.637424 0.770513
      vertex 10 -0.684546 0.728969
    endloop
  endfacet
  facet normal 0 0.750108 0.661315
    outer loop
      vertex 38.5 0.770513 0.637424
      vertex 10 0.728969 0.684546
      vertex 38.5 0.728969 0.684546
    endloop
  endfacet
  facet normal 0 0.750108 0.661315
    outer loop
      vertex 10 0.728969 0.684546
      vertex 38.5 0.770513 0.637424
      vertex 10 0.770513 0.637424
    endloop
  endfacet
  facet normal 0 0.940882 0.338735
    outer loop
      vertex 38.5 0.951056 0.309016
      vertex 10 0.929776 0.368124
      vertex 38.5 0.929776 0.368124
    endloop
  endfacet
  facet normal 0 0.940882 0.338735
    outer loop
      vertex 10 0.929776 0.368124
      vertex 38.5 0.951056 0.309016
      vertex 10 0.951056 0.309016
    endloop
  endfacet
  facet normal -0 0.39716 0.917749
    outer loop
      vertex 10 0.425778 0.904826
      vertex 38.5 0.368124 0.929776
      vertex 38.5 0.425778 0.904826
    endloop
  endfacet
  facet normal 0 0.39716 0.917749
    outer loop
      vertex 38.5 0.368124 0.929776
      vertex 10 0.425778 0.904826
      vertex 10 0.368124 0.929776
    endloop
  endfacet
  facet normal -0 0.661315 0.750108
    outer loop
      vertex 10 0.684546 0.728969
      vertex 38.5 0.637424 0.770513
      vertex 38.5 0.684546 0.728969
    endloop
  endfacet
  facet normal 0 0.661315 0.750108
    outer loop
      vertex 38.5 0.637424 0.770513
      vertex 10 0.684546 0.728969
      vertex 10 0.637424 0.770513
    endloop
  endfacet
  facet normal 0 0.987687 0.156443
    outer loop
      vertex 38.5 0.992114 0.125333
      vertex 10 0.982286 0.187381
      vertex 38.5 0.982286 0.187381
    endloop
  endfacet
  facet normal 0 0.987687 0.156443
    outer loop
      vertex 10 0.982286 0.187381
      vertex 38.5 0.992114 0.125333
      vertex 10 0.992114 0.125333
    endloop
  endfacet
  facet normal 0 -0.338735 -0.940882
    outer loop
      vertex 10 -0.368124 -0.929776
      vertex 38.5 -0.309016 -0.951056
      vertex 38.5 -0.368124 -0.929776
    endloop
  endfacet
  facet normal -0 -0.338735 -0.940882
    outer loop
      vertex 38.5 -0.309016 -0.951056
      vertex 10 -0.368124 -0.929776
      vertex 10 -0.309016 -0.951056
    endloop
  endfacet
  facet normal 0 -0.917749 0.39716
    outer loop
      vertex 10 -0.929776 0.368124
      vertex 38.5 -0.904826 0.425778
      vertex 10 -0.904826 0.425778
    endloop
  endfacet
  facet normal 0 -0.917749 0.39716
    outer loop
      vertex 38.5 -0.904826 0.425778
      vertex 10 -0.929776 0.368124
      vertex 38.5 -0.929776 0.368124
    endloop
  endfacet
  facet normal 0 -0.750108 0.661315
    outer loop
      vertex 10 -0.770513 0.637424
      vertex 38.5 -0.728969 0.684546
      vertex 10 -0.728969 0.684546
    endloop
  endfacet
  facet normal 0 -0.750108 0.661315
    outer loop
      vertex 38.5 -0.728969 0.684546
      vertex 10 -0.770513 0.637424
      vertex 38.5 -0.770513 0.637424
    endloop
  endfacet
  facet normal 0 -0.612898 0.790162
    outer loop
      vertex 10 -0.587785 0.809016
      vertex 38.5 -0.637424 0.770513
      vertex 38.5 -0.587785 0.809016
    endloop
  endfacet
  facet normal 0 -0.612898 0.790162
    outer loop
      vertex 38.5 -0.637424 0.770513
      vertex 10 -0.587785 0.809016
      vertex 10 -0.637424 0.770513
    endloop
  endfacet
  facet normal 0 -0.156443 0.987687
    outer loop
      vertex 10 -0.125333 0.992114
      vertex 38.5 -0.187381 0.982286
      vertex 38.5 -0.125333 0.992114
    endloop
  endfacet
  facet normal 0 -0.156443 0.987687
    outer loop
      vertex 38.5 -0.187381 0.982286
      vertex 10 -0.125333 0.992114
      vertex 10 -0.187381 0.982286
    endloop
  endfacet
  facet normal 0 0.156443 -0.987687
    outer loop
      vertex 10 0.125333 -0.992114
      vertex 38.5 0.187381 -0.982286
      vertex 38.5 0.125333 -0.992114
    endloop
  endfacet
  facet normal 0 0.156443 -0.987687
    outer loop
      vertex 38.5 0.187381 -0.982286
      vertex 10 0.125333 -0.992114
      vertex 10 0.187381 -0.982286
    endloop
  endfacet
  facet normal 0 0.0941073 -0.995562
    outer loop
      vertex 10 0.0627899 -0.998026
      vertex 38.5 0.125333 -0.992114
      vertex 38.5 0.0627899 -0.998026
    endloop
  endfacet
  facet normal 0 0.0941073 -0.995562
    outer loop
      vertex 38.5 0.125333 -0.992114
      vertex 10 0.0627899 -0.998026
      vertex 10 0.125333 -0.992114
    endloop
  endfacet
  facet normal 0 0.562088 -0.827078
    outer loop
      vertex 10 0.535827 -0.844327
      vertex 38.5 0.587785 -0.809016
      vertex 38.5 0.535827 -0.844327
    endloop
  endfacet
  facet normal 0 0.562088 -0.827078
    outer loop
      vertex 38.5 0.587785 -0.809016
      vertex 10 0.535827 -0.844327
      vertex 10 0.587785 -0.809016
    endloop
  endfacet
  facet normal 0 0.453969 -0.891017
    outer loop
      vertex 10 0.425778 -0.904826
      vertex 38.5 0.481753 -0.876307
      vertex 38.5 0.425778 -0.904826
    endloop
  endfacet
  facet normal 0 0.453969 -0.891017
    outer loop
      vertex 38.5 0.481753 -0.876307
      vertex 10 0.425778 -0.904826
      vertex 10 0.481753 -0.876307
    endloop
  endfacet
  facet normal 0 0.987687 -0.156443
    outer loop
      vertex 38.5 0.982286 -0.187381
      vertex 10 0.992114 -0.125333
      vertex 38.5 0.992114 -0.125333
    endloop
  endfacet
  facet normal 0 0.987687 -0.156443
    outer loop
      vertex 10 0.992114 -0.125333
      vertex 38.5 0.982286 -0.187381
      vertex 10 0.982286 -0.187381
    endloop
  endfacet
  facet normal 0 0.860737 -0.50905
    outer loop
      vertex 38.5 0.844327 -0.535827
      vertex 10 0.876307 -0.481753
      vertex 38.5 0.876307 -0.481753
    endloop
  endfacet
  facet normal 0 0.860737 -0.50905
    outer loop
      vertex 10 0.876307 -0.481753
      vertex 38.5 0.844327 -0.535827
      vertex 10 0.844327 -0.535827
    endloop
  endfacet
  facet normal 0 0.917749 -0.39716
    outer loop
      vertex 38.5 0.904826 -0.425778
      vertex 10 0.929776 -0.368124
      vertex 38.5 0.929776 -0.368124
    endloop
  endfacet
  facet normal 0 0.917749 -0.39716
    outer loop
      vertex 10 0.929776 -0.368124
      vertex 38.5 0.904826 -0.425778
      vertex 10 0.904826 -0.425778
    endloop
  endfacet
  facet normal -0 0.218125 0.975921
    outer loop
      vertex 10 0.24869 0.968583
      vertex 38.5 0.187381 0.982286
      vertex 38.5 0.24869 0.968583
    endloop
  endfacet
  facet normal 0 0.218125 0.975921
    outer loop
      vertex 38.5 0.187381 0.982286
      vertex 10 0.24869 0.968583
      vertex 10 0.187381 0.982286
    endloop
  endfacet
  facet normal -0 0.612898 0.790162
    outer loop
      vertex 10 0.637424 0.770513
      vertex 38.5 0.587785 0.809016
      vertex 38.5 0.637424 0.770513
    endloop
  endfacet
  facet normal 0 0.612898 0.790162
    outer loop
      vertex 38.5 0.587785 0.809016
      vertex 10 0.637424 0.770513
      vertex 10 0.587785 0.809016
    endloop
  endfacet
  facet normal -0 0.50905 0.860737
    outer loop
      vertex 10 0.535827 0.844327
      vertex 38.5 0.481753 0.876307
      vertex 38.5 0.535827 0.844327
    endloop
  endfacet
  facet normal 0 0.50905 0.860737
    outer loop
      vertex 38.5 0.481753 0.876307
      vertex 10 0.535827 0.844327
      vertex 10 0.481753 0.876307
    endloop
  endfacet
  facet normal -0 0.279001 0.960291
    outer loop
      vertex 10 0.309016 0.951056
      vertex 38.5 0.24869 0.968583
      vertex 38.5 0.309016 0.951056
    endloop
  endfacet
  facet normal 0 0.279001 0.960291
    outer loop
      vertex 38.5 0.24869 0.968583
      vertex 10 0.309016 0.951056
      vertex 10 0.24869 0.968583
    endloop
  endfacet
  facet normal -0 0.156443 0.987687
    outer loop
      vertex 10 0.187381 0.982286
      vertex 38.5 0.125333 0.992114
      vertex 38.5 0.187381 0.982286
    endloop
  endfacet
  facet normal 0 0.156443 0.987687
    outer loop
      vertex 38.5 0.125333 0.992114
      vertex 10 0.187381 0.982286
      vertex 10 0.125333 0.992114
    endloop
  endfacet
  facet normal 0 0.860737 0.50905
    outer loop
      vertex 38.5 0.876307 0.481753
      vertex 10 0.844327 0.535827
      vertex 38.5 0.844327 0.535827
    endloop
  endfacet
  facet normal 0 0.860737 0.50905
    outer loop
      vertex 10 0.844327 0.535827
      vertex 38.5 0.876307 0.481753
      vertex 10 0.876307 0.481753
    endloop
  endfacet
  facet normal 0 0.891017 0.453969
    outer loop
      vertex 38.5 0.904826 0.425778
      vertex 10 0.876307 0.481753
      vertex 38.5 0.876307 0.481753
    endloop
  endfacet
  facet normal 0 0.891017 0.453969
    outer loop
      vertex 10 0.876307 0.481753
      vertex 38.5 0.904826 0.425778
      vertex 10 0.904826 0.425778
    endloop
  endfacet
  facet normal 0 0.827078 0.562088
    outer loop
      vertex 38.5 0.844327 0.535827
      vertex 10 0.809016 0.587785
      vertex 38.5 0.809016 0.587785
    endloop
  endfacet
  facet normal 0 0.827078 0.562088
    outer loop
      vertex 10 0.809016 0.587785
      vertex 38.5 0.844327 0.535827
      vertex 10 0.844327 0.535827
    endloop
  endfacet
  facet normal 0 0.975921 0.218125
    outer loop
      vertex 38.5 0.982286 0.187381
      vertex 10 0.968583 0.24869
      vertex 38.5 0.968583 0.24869
    endloop
  endfacet
  facet normal 0 0.975921 0.218125
    outer loop
      vertex 10 0.968583 0.24869
      vertex 38.5 0.982286 0.187381
      vertex 10 0.982286 0.187381
    endloop
  endfacet
  facet normal 0 0.995562 0.0941073
    outer loop
      vertex 38.5 0.998026 0.0627899
      vertex 10 0.992114 0.125333
      vertex 38.5 0.992114 0.125333
    endloop
  endfacet
  facet normal 0 0.995562 0.0941073
    outer loop
      vertex 10 0.992114 0.125333
      vertex 38.5 0.998026 0.0627899
      vertex 10 0.998026 0.0627899
    endloop
  endfacet
  facet normal 0 -0.940882 -0.338735
    outer loop
      vertex 10 -0.929776 -0.368124
      vertex 38.5 -0.951056 -0.309016
      vertex 10 -0.951056 -0.309016
    endloop
  endfacet
  facet normal 0 -0.940882 -0.338735
    outer loop
      vertex 38.5 -0.951056 -0.309016
      vertex 10 -0.929776 -0.368124
      vertex 38.5 -0.929776 -0.368124
    endloop
  endfacet
  facet normal 0 -0.975921 -0.218125
    outer loop
      vertex 10 -0.968583 -0.24869
      vertex 38.5 -0.982286 -0.187381
      vertex 10 -0.982286 -0.187381
    endloop
  endfacet
  facet normal 0 -0.975921 -0.218125
    outer loop
      vertex 38.5 -0.982286 -0.187381
      vertex 10 -0.968583 -0.24869
      vertex 38.5 -0.968583 -0.24869
    endloop
  endfacet
  facet normal 0 -0.707107 -0.707107
    outer loop
      vertex 10 -0.684546 -0.728969
      vertex 38.5 -0.728969 -0.684546
      vertex 10 -0.728969 -0.684546
    endloop
  endfacet
  facet normal 0 -0.707107 -0.707107
    outer loop
      vertex 38.5 -0.728969 -0.684546
      vertex 10 -0.684546 -0.728969
      vertex 38.5 -0.684546 -0.728969
    endloop
  endfacet
  facet normal 0 -0.917749 -0.39716
    outer loop
      vertex 10 -0.904826 -0.425778
      vertex 38.5 -0.929776 -0.368124
      vertex 10 -0.929776 -0.368124
    endloop
  endfacet
  facet normal 0 -0.917749 -0.39716
    outer loop
      vertex 38.5 -0.929776 -0.368124
      vertex 10 -0.904826 -0.425778
      vertex 38.5 -0.904826 -0.425778
    endloop
  endfacet
  facet normal 0 -0.562088 -0.827078
    outer loop
      vertex 10 -0.587785 -0.809016
      vertex 38.5 -0.535827 -0.844327
      vertex 38.5 -0.587785 -0.809016
    endloop
  endfacet
  facet normal -0 -0.562088 -0.827078
    outer loop
      vertex 38.5 -0.535827 -0.844327
      vertex 10 -0.587785 -0.809016
      vertex 10 -0.535827 -0.844327
    endloop
  endfacet
  facet normal 0 -0.975921 0.218125
    outer loop
      vertex 10 -0.982286 0.187381
      vertex 38.5 -0.968583 0.24869
      vertex 10 -0.968583 0.24869
    endloop
  endfacet
  facet normal 0 -0.975921 0.218125
    outer loop
      vertex 38.5 -0.968583 0.24869
      vertex 10 -0.982286 0.187381
      vertex 38.5 -0.982286 0.187381
    endloop
  endfacet
  facet normal 0 -0.790162 0.612898
    outer loop
      vertex 10 -0.809016 0.587785
      vertex 38.5 -0.770513 0.637424
      vertex 10 -0.770513 0.637424
    endloop
  endfacet
  facet normal 0 -0.790162 0.612898
    outer loop
      vertex 38.5 -0.770513 0.637424
      vertex 10 -0.809016 0.587785
      vertex 38.5 -0.809016 0.587785
    endloop
  endfacet
  facet normal 0 -0.860737 0.50905
    outer loop
      vertex 10 -0.876307 0.481753
      vertex 38.5 -0.844327 0.535827
      vertex 10 -0.844327 0.535827
    endloop
  endfacet
  facet normal 0 -0.860737 0.50905
    outer loop
      vertex 38.5 -0.844327 0.535827
      vertex 10 -0.876307 0.481753
      vertex 38.5 -0.876307 0.481753
    endloop
  endfacet
  facet normal 0 -0.987687 0.156443
    outer loop
      vertex 10 -0.992114 0.125333
      vertex 38.5 -0.982286 0.187381
      vertex 10 -0.982286 0.187381
    endloop
  endfacet
  facet normal 0 -0.987687 0.156443
    outer loop
      vertex 38.5 -0.982286 0.187381
      vertex 10 -0.992114 0.125333
      vertex 38.5 -0.992114 0.125333
    endloop
  endfacet
  facet normal 0 -0.50905 0.860737
    outer loop
      vertex 10 -0.481753 0.876307
      vertex 38.5 -0.535827 0.844327
      vertex 38.5 -0.481753 0.876307
    endloop
  endfacet
  facet normal 0 -0.50905 0.860737
    outer loop
      vertex 38.5 -0.535827 0.844327
      vertex 10 -0.481753 0.876307
      vertex 10 -0.535827 0.844327
    endloop
  endfacet
  facet normal 0 -0.562088 0.827078
    outer loop
      vertex 10 -0.535827 0.844327
      vertex 38.5 -0.587785 0.809016
      vertex 38.5 -0.535827 0.844327
    endloop
  endfacet
  facet normal 0 -0.562088 0.827078
    outer loop
      vertex 38.5 -0.587785 0.809016
      vertex 10 -0.535827 0.844327
      vertex 10 -0.587785 0.809016
    endloop
  endfacet
  facet normal 0 -0.279001 0.960291
    outer loop
      vertex 10 -0.24869 0.968583
      vertex 38.5 -0.309016 0.951056
      vertex 38.5 -0.24869 0.968583
    endloop
  endfacet
  facet normal 0 -0.279001 0.960291
    outer loop
      vertex 38.5 -0.309016 0.951056
      vertex 10 -0.24869 0.968583
      vertex 10 -0.309016 0.951056
    endloop
  endfacet
  facet normal 0 -0.0941073 0.995562
    outer loop
      vertex 10 -0.0627899 0.998026
      vertex 38.5 -0.125333 0.992114
      vertex 38.5 -0.0627899 0.998026
    endloop
  endfacet
  facet normal 0 -0.0941073 0.995562
    outer loop
      vertex 38.5 -0.125333 0.992114
      vertex 10 -0.0627899 0.998026
      vertex 10 -0.125333 0.992114
    endloop
  endfacet
  facet normal 0 0.279001 -0.960291
    outer loop
      vertex 10 0.24869 -0.968583
      vertex 38.5 0.309016 -0.951056
      vertex 38.5 0.24869 -0.968583
    endloop
  endfacet
  facet normal 0 0.279001 -0.960291
    outer loop
      vertex 38.5 0.309016 -0.951056
      vertex 10 0.24869 -0.968583
      vertex 10 0.309016 -0.951056
    endloop
  endfacet
  facet normal 0 0.39716 -0.917749
    outer loop
      vertex 10 0.368124 -0.929776
      vertex 38.5 0.425778 -0.904826
      vertex 38.5 0.368124 -0.929776
    endloop
  endfacet
  facet normal 0 0.39716 -0.917749
    outer loop
      vertex 38.5 0.425778 -0.904826
      vertex 10 0.368124 -0.929776
      vertex 10 0.425778 -0.904826
    endloop
  endfacet
  facet normal 0 0.338735 -0.940882
    outer loop
      vertex 10 0.309016 -0.951056
      vertex 38.5 0.368124 -0.929776
      vertex 38.5 0.309016 -0.951056
    endloop
  endfacet
  facet normal 0 0.338735 -0.940882
    outer loop
      vertex 38.5 0.368124 -0.929776
      vertex 10 0.309016 -0.951056
      vertex 10 0.368124 -0.929776
    endloop
  endfacet
  facet normal 0 0.707107 -0.707107
    outer loop
      vertex 38.5 0.684546 -0.728969
      vertex 10 0.728969 -0.684546
      vertex 38.5 0.728969 -0.684546
    endloop
  endfacet
  facet normal 0 0.707107 -0.707107
    outer loop
      vertex 10 0.728969 -0.684546
      vertex 38.5 0.684546 -0.728969
      vertex 10 0.684546 -0.728969
    endloop
  endfacet
  facet normal 0 0.612898 -0.790162
    outer loop
      vertex 10 0.587785 -0.809016
      vertex 38.5 0.637424 -0.770513
      vertex 38.5 0.587785 -0.809016
    endloop
  endfacet
  facet normal 0 0.612898 -0.790162
    outer loop
      vertex 38.5 0.637424 -0.770513
      vertex 10 0.587785 -0.809016
      vertex 10 0.637424 -0.770513
    endloop
  endfacet
  facet normal 0 0.661315 -0.750108
    outer loop
      vertex 10 0.637424 -0.770513
      vertex 38.5 0.684546 -0.728969
      vertex 38.5 0.637424 -0.770513
    endloop
  endfacet
  facet normal 0 0.661315 -0.750108
    outer loop
      vertex 38.5 0.684546 -0.728969
      vertex 10 0.637424 -0.770513
      vertex 10 0.684546 -0.728969
    endloop
  endfacet
  facet normal 0 0.50905 -0.860737
    outer loop
      vertex 10 0.481753 -0.876307
      vertex 38.5 0.535827 -0.844327
      vertex 38.5 0.481753 -0.876307
    endloop
  endfacet
  facet normal 0 0.50905 -0.860737
    outer loop
      vertex 38.5 0.535827 -0.844327
      vertex 10 0.481753 -0.876307
      vertex 10 0.535827 -0.844327
    endloop
  endfacet
  facet normal 0 0.975921 -0.218125
    outer loop
      vertex 38.5 0.968583 -0.24869
      vertex 10 0.982286 -0.187381
      vertex 38.5 0.982286 -0.187381
    endloop
  endfacet
  facet normal 0 0.975921 -0.218125
    outer loop
      vertex 10 0.982286 -0.187381
      vertex 38.5 0.968583 -0.24869
      vertex 10 0.968583 -0.24869
    endloop
  endfacet
  facet normal 0 0.940882 -0.338735
    outer loop
      vertex 38.5 0.929776 -0.368124
      vertex 10 0.951056 -0.309016
      vertex 38.5 0.951056 -0.309016
    endloop
  endfacet
  facet normal 0 0.940882 -0.338735
    outer loop
      vertex 10 0.951056 -0.309016
      vertex 38.5 0.929776 -0.368124
      vertex 10 0.929776 -0.368124
    endloop
  endfacet
  facet normal 0 0.960291 -0.279001
    outer loop
      vertex 38.5 0.951056 -0.309016
      vertex 10 0.968583 -0.24869
      vertex 38.5 0.968583 -0.24869
    endloop
  endfacet
  facet normal 0 0.960291 -0.279001
    outer loop
      vertex 10 0.968583 -0.24869
      vertex 38.5 0.951056 -0.309016
      vertex 10 0.951056 -0.309016
    endloop
  endfacet
  facet normal 0 0.995562 -0.0941073
    outer loop
      vertex 38.5 0.992114 -0.125333
      vertex 10 0.998026 -0.0627899
      vertex 38.5 0.998026 -0.0627899
    endloop
  endfacet
  facet normal 0 0.995562 -0.0941073
    outer loop
      vertex 10 0.998026 -0.0627899
      vertex 38.5 0.992114 -0.125333
      vertex 10 0.992114 -0.125333
    endloop
  endfacet
  facet normal 0 0.891017 -0.453969
    outer loop
      vertex 38.5 0.876307 -0.481753
      vertex 10 0.904826 -0.425778
      vertex 38.5 0.904826 -0.425778
    endloop
  endfacet
  facet normal 0 0.891017 -0.453969
    outer loop
      vertex 10 0.904826 -0.425778
      vertex 38.5 0.876307 -0.481753
      vertex 10 0.876307 -0.481753
    endloop
  endfacet
  facet normal 0 0.827078 -0.562088
    outer loop
      vertex 38.5 0.809016 -0.587785
      vertex 10 0.844327 -0.535827
      vertex 38.5 0.844327 -0.535827
    endloop
  endfacet
  facet normal 0 0.827078 -0.562088
    outer loop
      vertex 10 0.844327 -0.535827
      vertex 38.5 0.809016 -0.587785
      vertex 10 0.809016 -0.587785
    endloop
  endfacet
  facet normal 0 0.750108 -0.661315
    outer loop
      vertex 38.5 0.728969 -0.684546
      vertex 10 0.770513 -0.637424
      vertex 38.5 0.770513 -0.637424
    endloop
  endfacet
  facet normal 0 0.750108 -0.661315
    outer loop
      vertex 10 0.770513 -0.637424
      vertex 38.5 0.728969 -0.684546
      vertex 10 0.728969 -0.684546
    endloop
  endfacet
  facet normal -0 0.562088 0.827078
    outer loop
      vertex 10 0.587785 0.809016
      vertex 38.5 0.535827 0.844327
      vertex 38.5 0.587785 0.809016
    endloop
  endfacet
  facet normal 0 0.562088 0.827078
    outer loop
      vertex 38.5 0.535827 0.844327
      vertex 10 0.587785 0.809016
      vertex 10 0.535827 0.844327
    endloop
  endfacet
  facet normal -0 0.0941073 0.995562
    outer loop
      vertex 10 0.125333 0.992114
      vertex 38.5 0.0627899 0.998026
      vertex 38.5 0.125333 0.992114
    endloop
  endfacet
  facet normal 0 0.0941073 0.995562
    outer loop
      vertex 38.5 0.0627899 0.998026
      vertex 10 0.125333 0.992114
      vertex 10 0.0627899 0.998026
    endloop
  endfacet
  facet normal 0 0.999506 0.0314227
    outer loop
      vertex 38.5 1 0
      vertex 10 0.998026 0.0627899
      vertex 38.5 0.998026 0.0627899
    endloop
  endfacet
  facet normal 0 0.999506 0.0314227
    outer loop
      vertex 10 0.998026 0.0627899
      vertex 38.5 1 0
      vertex 10 1 0
    endloop
  endfacet
  facet normal 0 -0.0314227 -0.999506
    outer loop
      vertex 10 -0.0627899 -0.998026
      vertex 38.5 0 -1
      vertex 38.5 -0.0627899 -0.998026
    endloop
  endfacet
  facet normal -0 -0.0314227 -0.999506
    outer loop
      vertex 38.5 0 -1
      vertex 10 -0.0627899 -0.998026
      vertex 10 0 -1
    endloop
  endfacet
  facet normal 0 -0.999506 -0.0314227
    outer loop
      vertex 10 -0.998026 -0.0627899
      vertex 38.5 -1 0
      vertex 10 -1 0
    endloop
  endfacet
  facet normal 0 -0.999506 -0.0314227
    outer loop
      vertex 38.5 -1 0
      vertex 10 -0.998026 -0.0627899
      vertex 38.5 -0.998026 -0.0627899
    endloop
  endfacet
  facet normal 0 -0.987687 -0.156443
    outer loop
      vertex 10 -0.982286 -0.187381
      vertex 38.5 -0.992114 -0.125333
      vertex 10 -0.992114 -0.125333
    endloop
  endfacet
  facet normal 0 -0.987687 -0.156443
    outer loop
      vertex 38.5 -0.992114 -0.125333
      vertex 10 -0.982286 -0.187381
      vertex 38.5 -0.982286 -0.187381
    endloop
  endfacet
  facet normal 0 -0.960291 -0.279001
    outer loop
      vertex 10 -0.951056 -0.309016
      vertex 38.5 -0.968583 -0.24869
      vertex 10 -0.968583 -0.24869
    endloop
  endfacet
  facet normal 0 -0.960291 -0.279001
    outer loop
      vertex 38.5 -0.968583 -0.24869
      vertex 10 -0.951056 -0.309016
      vertex 38.5 -0.951056 -0.309016
    endloop
  endfacet
  facet normal 0 -0.790162 -0.612898
    outer loop
      vertex 10 -0.770513 -0.637424
      vertex 38.5 -0.809016 -0.587785
      vertex 10 -0.809016 -0.587785
    endloop
  endfacet
  facet normal 0 -0.790162 -0.612898
    outer loop
      vertex 38.5 -0.809016 -0.587785
      vertex 10 -0.770513 -0.637424
      vertex 38.5 -0.770513 -0.637424
    endloop
  endfacet
  facet normal 0 -0.827078 -0.562088
    outer loop
      vertex 10 -0.809016 -0.587785
      vertex 38.5 -0.844327 -0.535827
      vertex 10 -0.844327 -0.535827
    endloop
  endfacet
  facet normal 0 -0.827078 -0.562088
    outer loop
      vertex 38.5 -0.844327 -0.535827
      vertex 10 -0.809016 -0.587785
      vertex 38.5 -0.809016 -0.587785
    endloop
  endfacet
  facet normal 0 -0.750108 -0.661315
    outer loop
      vertex 10 -0.728969 -0.684546
      vertex 38.5 -0.770513 -0.637424
      vertex 10 -0.770513 -0.637424
    endloop
  endfacet
  facet normal 0 -0.750108 -0.661315
    outer loop
      vertex 38.5 -0.770513 -0.637424
      vertex 10 -0.728969 -0.684546
      vertex 38.5 -0.728969 -0.684546
    endloop
  endfacet
  facet normal 0 -0.860737 -0.50905
    outer loop
      vertex 10 -0.844327 -0.535827
      vertex 38.5 -0.876307 -0.481753
      vertex 10 -0.876307 -0.481753
    endloop
  endfacet
  facet normal 0 -0.860737 -0.50905
    outer loop
      vertex 38.5 -0.876307 -0.481753
      vertex 10 -0.844327 -0.535827
      vertex 38.5 -0.844327 -0.535827
    endloop
  endfacet
  facet normal 0 -0.891017 -0.453969
    outer loop
      vertex 10 -0.876307 -0.481753
      vertex 38.5 -0.904826 -0.425778
      vertex 10 -0.904826 -0.425778
    endloop
  endfacet
  facet normal 0 -0.891017 -0.453969
    outer loop
      vertex 38.5 -0.904826 -0.425778
      vertex 10 -0.876307 -0.481753
      vertex 38.5 -0.876307 -0.481753
    endloop
  endfacet
  facet normal 0 -0.661315 -0.750108
    outer loop
      vertex 10 -0.684546 -0.728969
      vertex 38.5 -0.637424 -0.770513
      vertex 38.5 -0.684546 -0.728969
    endloop
  endfacet
  facet normal -0 -0.661315 -0.750108
    outer loop
      vertex 38.5 -0.637424 -0.770513
      vertex 10 -0.684546 -0.728969
      vertex 10 -0.637424 -0.770513
    endloop
  endfacet
  facet normal 0 -0.612898 -0.790162
    outer loop
      vertex 10 -0.637424 -0.770513
      vertex 38.5 -0.587785 -0.809016
      vertex 38.5 -0.637424 -0.770513
    endloop
  endfacet
  facet normal -0 -0.612898 -0.790162
    outer loop
      vertex 38.5 -0.587785 -0.809016
      vertex 10 -0.637424 -0.770513
      vertex 10 -0.587785 -0.809016
    endloop
  endfacet
  facet normal 0 -0.453969 -0.891017
    outer loop
      vertex 10 -0.481753 -0.876307
      vertex 38.5 -0.425778 -0.904826
      vertex 38.5 -0.481753 -0.876307
    endloop
  endfacet
  facet normal -0 -0.453969 -0.891017
    outer loop
      vertex 38.5 -0.425778 -0.904826
      vertex 10 -0.481753 -0.876307
      vertex 10 -0.425778 -0.904826
    endloop
  endfacet
  facet normal 0 -0.39716 -0.917749
    outer loop
      vertex 10 -0.425778 -0.904826
      vertex 38.5 -0.368124 -0.929776
      vertex 38.5 -0.425778 -0.904826
    endloop
  endfacet
  facet normal -0 -0.39716 -0.917749
    outer loop
      vertex 38.5 -0.368124 -0.929776
      vertex 10 -0.425778 -0.904826
      vertex 10 -0.368124 -0.929776
    endloop
  endfacet
  facet normal 0 -0.279001 -0.960291
    outer loop
      vertex 10 -0.309016 -0.951056
      vertex 38.5 -0.24869 -0.968583
      vertex 38.5 -0.309016 -0.951056
    endloop
  endfacet
  facet normal -0 -0.279001 -0.960291
    outer loop
      vertex 38.5 -0.24869 -0.968583
      vertex 10 -0.309016 -0.951056
      vertex 10 -0.24869 -0.968583
    endloop
  endfacet
  facet normal 0 -0.0941073 -0.995562
    outer loop
      vertex 10 -0.125333 -0.992114
      vertex 38.5 -0.0627899 -0.998026
      vertex 38.5 -0.125333 -0.992114
    endloop
  endfacet
  facet normal -0 -0.0941073 -0.995562
    outer loop
      vertex 38.5 -0.0627899 -0.998026
      vertex 10 -0.125333 -0.992114
      vertex 10 -0.0627899 -0.998026
    endloop
  endfacet
  facet normal 0 -0.827078 0.562088
    outer loop
      vertex 10 -0.844327 0.535827
      vertex 38.5 -0.809016 0.587785
      vertex 10 -0.809016 0.587785
    endloop
  endfacet
  facet normal 0 -0.827078 0.562088
    outer loop
      vertex 38.5 -0.809016 0.587785
      vertex 10 -0.844327 0.535827
      vertex 38.5 -0.844327 0.535827
    endloop
  endfacet
  facet normal 0 -0.960291 0.279001
    outer loop
      vertex 10 -0.968583 0.24869
      vertex 38.5 -0.951056 0.309016
      vertex 10 -0.951056 0.309016
    endloop
  endfacet
  facet normal 0 -0.960291 0.279001
    outer loop
      vertex 38.5 -0.951056 0.309016
      vertex 10 -0.968583 0.24869
      vertex 38.5 -0.968583 0.24869
    endloop
  endfacet
  facet normal 0 -0.940882 0.338735
    outer loop
      vertex 10 -0.951056 0.309016
      vertex 38.5 -0.929776 0.368124
      vertex 10 -0.929776 0.368124
    endloop
  endfacet
  facet normal 0 -0.940882 0.338735
    outer loop
      vertex 38.5 -0.929776 0.368124
      vertex 10 -0.951056 0.309016
      vertex 38.5 -0.951056 0.309016
    endloop
  endfacet
  facet normal 0 -0.995562 0.0941073
    outer loop
      vertex 10 -0.998026 0.0627899
      vertex 38.5 -0.992114 0.125333
      vertex 10 -0.992114 0.125333
    endloop
  endfacet
  facet normal 0 -0.995562 0.0941073
    outer loop
      vertex 38.5 -0.992114 0.125333
      vertex 10 -0.998026 0.0627899
      vertex 38.5 -0.998026 0.0627899
    endloop
  endfacet
  facet normal 1 0 0
    outer loop
      vertex 38.5 0.998026 0.0627899
      vertex 38.5 0.998026 -0.0627899
      vertex 38.5 1 0
    endloop
  endfacet
  facet normal 1 0 0
    outer loop
      vertex 38.5 0.992114 0.125333
      vertex 38.5 0.998026 -0.0627899
      vertex 38.5 0.998026 0.0627899
    endloop
  endfacet
  facet normal 1 0 0
    outer loop
      vertex 38.5 0.992114 0.125333
      vertex 38.5 0.992114 -0.125333
      vertex 38.5 0.998026 -0.0627899
    endloop
  endfacet
  facet normal 1 0 0
    outer loop
      vertex 38.5 0.982286 0.187381
      vertex 38.5 0.992114 -0.125333
      vertex 38.5 0.992114 0.125333
    endloop
  endfacet
  facet normal 1 0 0
    outer loop
      vertex 38.5 0.982286 0.187381
      vertex 38.5 0.982286 -0.187381
      vertex 38.5 0.992114 -0.125333
    endloop
  endfacet
  facet normal 1 0 0
    outer loop
      vertex 38.5 0.968583 0.24869
      vertex 38.5 0.982286 -0.187381
      vertex 38.5 0.982286 0.187381
    endloop
  endfacet
  facet normal 1 0 0
    outer loop
      vertex 38.5 0.968583 0.24869
      vertex 38.5 0.968583 -0.24869
      vertex 38.5 0.982286 -0.187381
    endloop
  endfacet
  facet normal 1 0 0
    outer loop
      vertex 38.5 0.951056 0.309016
      vertex 38.5 0.968583 -0.24869
      vertex 38.5 0.968583 0.24869
    endloop
  endfacet
  facet normal 1 0 0
    outer loop
      vertex 38.5 0.951056 0.309016
      vertex 38.5 0.951056 -0.309016
      vertex 38.5 0.968583 -0.24869
    endloop
  endfacet
  facet normal 1 0 0
    outer loop
      vertex 38.5 0.929776 0.368124
      vertex 38.5 0.951056 -0.309016
      vertex 38.5 0.951056 0.309016
    endloop
  endfacet
  facet normal 1 0 0
    outer loop
      vertex 38.5 0.929776 0.368124
      vertex 38.5 0.929776 -0.368124
      vertex 38.5 0.951056 -0.309016
    endloop
  endfacet
  facet normal 1 0 0
    outer loop
      vertex 38.5 0.904826 0.425778
      vertex 38.5 0.929776 -0.368124
      vertex 38.5 0.929776 0.368124
    endloop
  endfacet
  facet normal 1 0 0
    outer loop
      vertex 38.5 0.904826 0.425778
      vertex 38.5 0.904826 -0.425778
      vertex 38.5 0.929776 -0.368124
    endloop
  endfacet
  facet normal 1 0 0
    outer loop
      vertex 38.5 0.876307 0.481753
      vertex 38.5 0.904826 -0.425778
      vertex 38.5 0.904826 0.425778
    endloop
  endfacet
  facet normal 1 0 0
    outer loop
      vertex 38.5 0.876307 0.481753
      vertex 38.5 0.876307 -0.481753
      vertex 38.5 0.904826 -0.425778
    endloop
  endfacet
  facet normal 1 0 0
    outer loop
      vertex 38.5 0.844327 0.535827
      vertex 38.5 0.876307 -0.481753
      vertex 38.5 0.876307 0.481753
    endloop
  endfacet
  facet normal 1 0 0
    outer loop
      vertex 38.5 0.844327 0.535827
      vertex 38.5 0.844327 -0.535827
      vertex 38.5 0.876307 -0.481753
    endloop
  endfacet
  facet normal 1 0 0
    outer loop
      vertex 38.5 0.809016 0.587785
      vertex 38.5 0.844327 -0.535827
      vertex 38.5 0.844327 0.535827
    endloop
  endfacet
  facet normal 1 0 0
    outer loop
      vertex 38.5 0.809016 0.587785
      vertex 38.5 0.809016 -0.587785
      vertex 38.5 0.844327 -0.535827
    endloop
  endfacet
  facet normal 1 0 0
    outer loop
      vertex 38.5 0.770513 0.637424
      vertex 38.5 0.809016 -0.587785
      vertex 38.5 0.809016 0.587785
    endloop
  endfacet
  facet normal 1 0 0
    outer loop
      vertex 38.5 0.770513 0.637424
      vertex 38.5 0.770513 -0.637424
      vertex 38.5 0.809016 -0.587785
    endloop
  endfacet
  facet normal 1 0 0
    outer loop
      vertex 38.5 0.728969 0.684546
      vertex 38.5 0.770513 -0.637424
      vertex 38.5 0.770513 0.637424
    endloop
  endfacet
  facet normal 1 0 0
    outer loop
      vertex 38.5 0.728969 0.684546
      vertex 38.5 0.728969 -0.684546
      vertex 38.5 0.770513 -0.637424
    endloop
  endfacet
  facet normal 1 0 0
    outer loop
      vertex 38.5 0.684546 0.728969
      vertex 38.5 0.728969 -0.684546
      vertex 38.5 0.728969 0.684546
    endloop
  endfacet
  facet normal 1 0 0
    outer loop
      vertex 38.5 0.684546 0.728969
      vertex 38.5 0.684546 -0.728969
      vertex 38.5 0.728969 -0.684546
    endloop
  endfacet
  facet normal 1 0 0
    outer loop
      vertex 38.5 0.637424 0.770513
      vertex 38.5 0.684546 -0.728969
      vertex 38.5 0.684546 0.728969
    endloop
  endfacet
  facet normal 1 0 0
    outer loop
      vertex 38.5 0.637424 0.770513
      vertex 38.5 0.637424 -0.770513
      vertex 38.5 0.684546 -0.728969
    endloop
  endfacet
  facet normal 1 0 0
    outer loop
      vertex 38.5 0.587785 0.809016
      vertex 38.5 0.637424 -0.770513
      vertex 38.5 0.637424 0.770513
    endloop
  endfacet
  facet normal 1 0 0
    outer loop
      vertex 38.5 0.587785 0.809016
      vertex 38.5 0.587785 -0.809016
      vertex 38.5 0.637424 -0.770513
    endloop
  endfacet
  facet normal 1 0 0
    outer loop
      vertex 38.5 0.535827 0.844327
      vertex 38.5 0.587785 -0.809016
      vertex 38.5 0.587785 0.809016
    endloop
  endfacet
  facet normal 1 0 0
    outer loop
      vertex 38.5 0.535827 0.844327
      vertex 38.5 0.535827 -0.844327
      vertex 38.5 0.587785 -0.809016
    endloop
  endfacet
  facet normal 1 0 0
    outer loop
      vertex 38.5 0.481753 0.876307
      vertex 38.5 0.535827 -0.844327
      vertex 38.5 0.535827 0.844327
    endloop
  endfacet
  facet normal 1 0 0
    outer loop
      vertex 38.5 0.481753 0.876307
      vertex 38.5 0.481753 -0.876307
      vertex 38.5 0.535827 -0.844327
    endloop
  endfacet
  facet normal 1 0 0
    outer loop
      vertex 38.5 0.425778 0.904826
      vertex 38.5 0.481753 -0.876307
      vertex 38.5 0.481753 0.876307
    endloop
  endfacet
  facet normal 1 0 0
    outer loop
      vertex 38.5 0.425778 0.904826
      vertex 38.5 0.425778 -0.904826
      vertex 38.5 0.481753 -0.876307
    endloop
  endfacet
  facet normal 1 0 0
    outer loop
      vertex 38.5 0.368124 0.929776
      vertex 38.5 0.425778 -0.904826
      vertex 38.5 0.425778 0.904826
    endloop
  endfacet
  facet normal 1 0 0
    outer loop
      vertex 38.5 0.368124 0.929776
      vertex 38.5 0.368124 -0.929776
      vertex 38.5 0.425778 -0.904826
    endloop
  endfacet
  facet normal 1 0 0
    outer loop
      vertex 38.5 0.309016 0.951056
      vertex 38.5 0.368124 -0.929776
      vertex 38.5 0.368124 0.929776
    endloop
  endfacet
  facet normal 1 0 0
    outer loop
      vertex 38.5 0.309016 0.951056
      vertex 38.5 0.309016 -0.951056
      vertex 38.5 0.368124 -0.929776
    endloop
  endfacet
  facet normal 1 0 0
    outer loop
      vertex 38.5 0.24869 0.968583
      vertex 38.5 0.309016 -0.951056
      vertex 38.5 0.309016 0.951056
    endloop
  endfacet
  facet normal 1 0 0
    outer loop
      vertex 38.5 0.24869 0.968583
      vertex 38.5 0.24869 -0.968583
      vertex 38.5 0.309016 -0.951056
    endloop
  endfacet
  facet normal 1 0 0
    outer loop
      vertex 38.5 0.187381 0.982286
      vertex 38.5 0.24869 -0.968583
      vertex 38.5 0.24869 0.968583
    endloop
  endfacet
  facet normal 1 0 0
    outer loop
      vertex 38.5 0.187381 0.982286
      vertex 38.5 0.187381 -0.982286
      vertex 38.5 0.24869 -0.968583
    endloop
  endfacet
  facet normal 1 0 0
    outer loop
      vertex 38.5 0.125333 0.992114
      vertex 38.5 0.187381 -0.982286
      vertex 38.5 0.187381 0.982286
    endloop
  endfacet
  facet normal 1 0 0
    outer loop
      vertex 38.5 0.125333 0.992114
      vertex 38.5 0.125333 -0.992114
      vertex 38.5 0.187381 -0.982286
    endloop
  endfacet
  facet normal 1 0 0
    outer loop
      vertex 38.5 0.0627899 0.998026
      vertex 38.5 0.125333 -0.992114
      vertex 38.5 0.125333 0.992114
    endloop
  endfacet
  facet normal 1 0 0
    outer loop
      vertex 38.5 0.0627899 0.998026
      vertex 38.5 0.0627899 -0.998026
      vertex 38.5 0.125333 -0.992114
    endloop
  endfacet
  facet normal 1 0 0
    outer loop
      vertex 38.5 0 1
      vertex 38.5 0.0627899 -0.998026
      vertex 38.5 0.0627899 0.998026
    endloop
  endfacet
  facet normal 1 0 0
    outer loop
      vertex 38.5 0 1
      vertex 38.5 0 -1
      vertex 38.5 0.0627899 -0.998026
    endloop
  endfacet
  facet normal 1 -0 0
    outer loop
      vertex 38.5 -0.0627899 0.998026
      vertex 38.5 0 -1
      vertex 38.5 0 1
    endloop
  endfacet
  facet normal 1 0 0
    outer loop
      vertex 38.5 -0.0627899 0.998026
      vertex 38.5 -0.0627899 -0.998026
      vertex 38.5 0 -1
    endloop
  endfacet
  facet normal 1 -0 0
    outer loop
      vertex 38.5 -0.125333 0.992114
      vertex 38.5 -0.0627899 -0.998026
      vertex 38.5 -0.0627899 0.998026
    endloop
  endfacet
  facet normal 1 0 0
    outer loop
      vertex 38.5 -0.125333 0.992114
      vertex 38.5 -0.125333 -0.992114
      vertex 38.5 -0.0627899 -0.998026
    endloop
  endfacet
  facet normal 1 -0 0
    outer loop
      vertex 38.5 -0.187381 0.982286
      vertex 38.5 -0.125333 -0.992114
      vertex 38.5 -0.125333 0.992114
    endloop
  endfacet
  facet normal 1 0 0
    outer loop
      vertex 38.5 -0.187381 0.982286
      vertex 38.5 -0.187381 -0.982286
      vertex 38.5 -0.125333 -0.992114
    endloop
  endfacet
  facet normal 1 -0 0
    outer loop
      vertex 38.5 -0.24869 0.968583
      vertex 38.5 -0.187381 -0.982286
      vertex 38.5 -0.187381 0.982286
    endloop
  endfacet
  facet normal 1 0 0
    outer loop
      vertex 38.5 -0.24869 0.968583
      vertex 38.5 -0.24869 -0.968583
      vertex 38.5 -0.187381 -0.982286
    endloop
  endfacet
  facet normal 1 -0 0
    outer loop
      vertex 38.5 -0.309016 0.951056
      vertex 38.5 -0.24869 -0.968583
      vertex 38.5 -0.24869 0.968583
    endloop
  endfacet
  facet normal 1 0 0
    outer loop
      vertex 38.5 -0.309016 0.951056
      vertex 38.5 -0.309016 -0.951056
      vertex 38.5 -0.24869 -0.968583
    endloop
  endfacet
  facet normal 1 -0 0
    outer loop
      vertex 38.5 -0.368124 0.929776
      vertex 38.5 -0.309016 -0.951056
      vertex 38.5 -0.309016 0.951056
    endloop
  endfacet
  facet normal 1 0 0
    outer loop
      vertex 38.5 -0.368124 0.929776
      vertex 38.5 -0.368124 -0.929776
      vertex 38.5 -0.309016 -0.951056
    endloop
  endfacet
  facet normal 1 -0 0
    outer loop
      vertex 38.5 -0.425778 0.904826
      vertex 38.5 -0.368124 -0.929776
      vertex 38.5 -0.368124 0.929776
    endloop
  endfacet
  facet normal 1 0 0
    outer loop
      vertex 38.5 -0.425778 0.904826
      vertex 38.5 -0.425778 -0.904826
      vertex 38.5 -0.368124 -0.929776
    endloop
  endfacet
  facet normal 1 -0 0
    outer loop
      vertex 38.5 -0.481753 0.876307
      vertex 38.5 -0.425778 -0.904826
      vertex 38.5 -0.425778 0.904826
    endloop
  endfacet
  facet normal 1 0 0
    outer loop
      vertex 38.5 -0.481753 0.876307
      vertex 38.5 -0.481753 -0.876307
      vertex 38.5 -0.425778 -0.904826
    endloop
  endfacet
  facet normal 1 -0 0
    outer loop
      vertex 38.5 -0.535827 0.844327
      vertex 38.5 -0.481753 -0.876307
      vertex 38.5 -0.481753 0.876307
    endloop
  endfacet
  facet normal 1 0 0
    outer loop
      vertex 38.5 -0.535827 0.844327
      vertex 38.5 -0.535827 -0.844327
      vertex 38.5 -0.481753 -0.876307
    endloop
  endfacet
  facet normal 1 -0 0
    outer loop
      vertex 38.5 -0.587785 0.809016
      vertex 38.5 -0.535827 -0.844327
      vertex 38.5 -0.535827 0.844327
    endloop
  endfacet
  facet normal 1 0 0
    outer loop
      vertex 38.5 -0.587785 0.809016
      vertex 38.5 -0.587785 -0.809016
      vertex 38.5 -0.535827 -0.844327
    endloop
  endfacet
  facet normal 1 -0 0
    outer loop
      vertex 38.5 -0.637424 0.770513
      vertex 38.5 -0.587785 -0.809016
      vertex 38.5 -0.587785 0.809016
    endloop
  endfacet
  facet normal 1 0 0
    outer loop
      vertex 38.5 -0.637424 0.770513
      vertex 38.5 -0.637424 -0.770513
      vertex 38.5 -0.587785 -0.809016
    endloop
  endfacet
  facet normal 1 -0 0
    outer loop
      vertex 38.5 -0.684546 0.728969
      vertex 38.5 -0.637424 -0.770513
      vertex 38.5 -0.637424 0.770513
    endloop
  endfacet
  facet normal 1 0 0
    outer loop
      vertex 38.5 -0.684546 0.728969
      vertex 38.5 -0.684546 -0.728969
      vertex 38.5 -0.637424 -0.770513
    endloop
  endfacet
  facet normal 1 -0 0
    outer loop
      vertex 38.5 -0.728969 0.684546
      vertex 38.5 -0.684546 -0.728969
      vertex 38.5 -0.684546 0.728969
    endloop
  endfacet
  facet normal 1 0 0
    outer loop
      vertex 38.5 -0.728969 0.684546
      vertex 38.5 -0.728969 -0.684546
      vertex 38.5 -0.684546 -0.728969
    endloop
  endfacet
  facet normal 1 -0 0
    outer loop
      vertex 38.5 -0.770513 0.637424
      vertex 38.5 -0.728969 -0.684546
      vertex 38.5 -0.728969 0.684546
    endloop
  endfacet
  facet normal 1 0 0
    outer loop
      vertex 38.5 -0.770513 0.637424
      vertex 38.5 -0.770513 -0.637424
      vertex 38.5 -0.728969 -0.684546
    endloop
  endfacet
  facet normal 1 -0 0
    outer loop
      vertex 38.5 -0.809016 0.587785
      vertex 38.5 -0.770513 -0.637424
      vertex 38.5 -0.770513 0.637424
    endloop
  endfacet
  facet normal 1 0 0
    outer loop
      vertex 38.5 -0.809016 0.587785
      vertex 38.5 -0.809016 -0.587785
      vertex 38.5 -0.770513 -0.637424
    endloop
  endfacet
  facet normal 1 -0 0
    outer loop
      vertex 38.5 -0.844327 0.535827
      vertex 38.5 -0.809016 -0.587785
      vertex 38.5 -0.809016 0.587785
    endloop
  endfacet
  facet normal 1 0 0
    outer loop
      vertex 38.5 -0.844327 0.535827
      vertex 38.5 -0.844327 -0.535827
      vertex 38.5 -0.809016 -0.587785
    endloop
  endfacet
  facet normal 1 -0 0
    outer loop
      vertex 38.5 -0.876307 0.481753
      vertex 38.5 -0.844327 -0.535827
      vertex 38.5 -0.844327 0.535827
    endloop
  endfacet
  facet normal 1 0 0
    outer loop
      vertex 38.5 -0.876307 0.481753
      vertex 38.5 -0.876307 -0.481753
      vertex 38.5 -0.844327 -0.535827
    endloop
  endfacet
  facet normal 1 -0 0
    outer loop
      vertex 38.5 -0.904826 0.425778
      vertex 38.5 -0.876307 -0.481753
      vertex 38.5 -0.876307 0.481753
    endloop
  endfacet
  facet normal 1 0 0
    outer loop
      vertex 38.5 -0.904826 0.425778
      vertex 38.5 -0.904826 -0.425778
      vertex 38.5 -0.876307 -0.481753
    endloop
  endfacet
  facet normal 1 -0 0
    outer loop
      vertex 38.5 -0.929776 0.368124
      vertex 38.5 -0.904826 -0.425778
      vertex 38.5 -0.904826 0.425778
    endloop
  endfacet
  facet normal 1 0 0
    outer loop
      vertex 38.5 -0.929776 0.368124
      vertex 38.5 -0.929776 -0.368124
      vertex 38.5 -0.904826 -0.425778
    endloop
  endfacet
  facet normal 1 -0 0
    outer loop
      vertex 38.5 -0.951056 0.309016
      vertex 38.5 -0.929776 -0.368124
      vertex 38.5 -0.929776 0.368124
    endloop
  endfacet
  facet normal 1 0 0
    outer loop
      vertex 38.5 -0.951056 0.309016
      vertex 38.5 -0.951056 -0.309016
      vertex 38.5 -0.929776 -0.368124
    endloop
  endfacet
  facet normal 1 -0 0
    outer loop
      vertex 38.5 -0.968583 0.24869
      vertex 38.5 -0.951056 -0.309016
      vertex 38.5 -0.951056 0.309016
    endloop
  endfacet
  facet normal 1 0 0
    outer loop
      vertex 38.5 -0.968583 0.24869
      vertex 38.5 -0.968583 -0.24869
      vertex 38.5 -0.951056 -0.309016
    endloop
  endfacet
  facet normal 1 -0 0
    outer loop
      vertex 38.5 -0.982286 0.187381
      vertex 38.5 -0.968583 -0.24869
      vertex 38.5 -0.968583 0.24869
    endloop
  endfacet
  facet normal 1 0 0
    outer loop
      vertex 38.5 -0.982286 0.187381
      vertex 38.5 -0.982286 -0.187381
      vertex 38.5 -0.968583 -0.24869
    endloop
  endfacet
  facet normal 1 -0 0
    outer loop
      vertex 38.5 -0.992114 0.125333
      vertex 38.5 -0.982286 -0.187381
      vertex 38.5 -0.982286 0.187381
    endloop
  endfacet
  facet normal 1 0 0
    outer loop
      vertex 38.5 -0.992114 0.125333
      vertex 38.5 -0.992114 -0.125333
      vertex 38.5 -0.982286 -0.187381
    endloop
  endfacet
  facet normal 1 -0 0
    outer loop
      vertex 38.5 -0.998026 0.0627899
      vertex 38.5 -0.992114 -0.125333
      vertex 38.5 -0.992114 0.125333
    endloop
  endfacet
  facet normal 1 0 0
    outer loop
      vertex 38.5 -0.998026 0.0627899
      vertex 38.5 -0.998026 -0.0627899
      vertex 38.5 -0.992114 -0.125333
    endloop
  endfacet
  facet normal 1 0 -0
    outer loop
      vertex 38.5 -0.998026 -0.0627899
      vertex 38.5 -0.998026 0.0627899
      vertex 38.5 -1 0
    endloop
  endfacet
  facet normal 0 -0.39716 0.917749
    outer loop
      vertex 10 -0.368124 0.929776
      vertex 38.5 -0.425778 0.904826
      vertex 38.5 -0.368124 0.929776
    endloop
  endfacet
  facet normal 0 -0.39716 0.917749
    outer loop
      vertex 38.5 -0.425778 0.904826
      vertex 10 -0.368124 0.929776
      vertex 10 -0.425778 0.904826
    endloop
  endfacet
  facet normal 0 -0.453969 0.891017
    outer loop
      vertex 10 -0.425778 0.904826
      vertex 38.5 -0.481753 0.876307
      vertex 38.5 -0.425778 0.904826
    endloop
  endfacet
  facet normal 0 -0.453969 0.891017
    outer loop
      vertex 38.5 -0.481753 0.876307
      vertex 10 -0.425778 0.904826
      vertex 10 -0.481753 0.876307
    endloop
  endfacet
  facet normal 0 -0.338735 0.940882
    outer loop
      vertex 10 -0.309016 0.951056
      vertex 38.5 -0.368124 0.929776
      vertex 38.5 -0.309016 0.951056
    endloop
  endfacet
  facet normal 0 -0.338735 0.940882
    outer loop
      vertex 38.5 -0.368124 0.929776
      vertex 10 -0.309016 0.951056
      vertex 10 -0.368124 0.929776
    endloop
  endfacet
  facet normal 0 -0.218125 0.975921
    outer loop
      vertex 10 -0.187381 0.982286
      vertex 38.5 -0.24869 0.968583
      vertex 38.5 -0.187381 0.982286
    endloop
  endfacet
  facet normal 0 -0.218125 0.975921
    outer loop
      vertex 38.5 -0.24869 0.968583
      vertex 10 -0.187381 0.982286
      vertex 10 -0.24869 0.968583
    endloop
  endfacet
  facet normal 0 -0.0314227 0.999506
    outer loop
      vertex 10 0 1
      vertex 38.5 -0.0627899 0.998026
      vertex 38.5 0 1
    endloop
  endfacet
  facet normal 0 -0.0314227 0.999506
    outer loop
      vertex 38.5 -0.0627899 0.998026
      vertex 10 0 1
      vertex 10 -0.0627899 0.998026
    endloop
  endfacet
  facet normal 0 0.218125 -0.975921
    outer loop
      vertex 10 0.187381 -0.982286
      vertex 38.5 0.24869 -0.968583
      vertex 38.5 0.187381 -0.982286
    endloop
  endfacet
  facet normal 0 0.218125 -0.975921
    outer loop
      vertex 38.5 0.24869 -0.968583
      vertex 10 0.187381 -0.982286
      vertex 10 0.24869 -0.968583
    endloop
  endfacet
  facet normal 0 0.999506 -0.0314227
    outer loop
      vertex 38.5 0.998026 -0.0627899
      vertex 10 1 0
      vertex 38.5 1 0
    endloop
  endfacet
  facet normal 0 0.999506 -0.0314227
    outer loop
      vertex 10 1 0
      vertex 38.5 0.998026 -0.0627899
      vertex 10 0.998026 -0.0627899
    endloop
  endfacet
  facet normal 0 0.790162 -0.612898
    outer loop
      vertex 38.5 0.770513 -0.637424
      vertex 10 0.809016 -0.587785
      vertex 38.5 0.809016 -0.587785
    endloop
  endfacet
  facet normal 0 0.790162 -0.612898
    outer loop
      vertex 10 0.809016 -0.587785
      vertex 38.5 0.770513 -0.637424
      vertex 10 0.770513 -0.637424
    endloop
  endfacet
  facet normal 0 0.707107 0.707107
    outer loop
      vertex 38.5 0.728969 0.684546
      vertex 10 0.684546 0.728969
      vertex 38.5 0.684546 0.728969
    endloop
  endfacet
  facet normal 0 0.707107 0.707107
    outer loop
      vertex 10 0.684546 0.728969
      vertex 38.5 0.728969 0.684546
      vertex 10 0.728969 0.684546
    endloop
  endfacet
  facet normal -0 0.453969 0.891017
    outer loop
      vertex 10 0.481753 0.876307
      vertex 38.5 0.425778 0.904826
      vertex 38.5 0.481753 0.876307
    endloop
  endfacet
  facet normal 0 0.453969 0.891017
    outer loop
      vertex 38.5 0.425778 0.904826
      vertex 10 0.481753 0.876307
      vertex 10 0.425778 0.904826
    endloop
  endfacet
  facet normal -0 0.338735 0.940882
    outer loop
      vertex 10 0.368124 0.929776
      vertex 38.5 0.309016 0.951056
      vertex 38.5 0.368124 0.929776
    endloop
  endfacet
  facet normal 0 0.338735 0.940882
    outer loop
      vertex 38.5 0.309016 0.951056
      vertex 10 0.368124 0.929776
      vertex 10 0.309016 0.951056
    endloop
  endfacet
  facet normal 0 0.917749 0.39716
    outer loop
      vertex 38.5 0.929776 0.368124
      vertex 10 0.904826 0.425778
      vertex 38.5 0.904826 0.425778
    endloop
  endfacet
  facet normal 0 0.917749 0.39716
    outer loop
      vertex 10 0.904826 0.425778
      vertex 38.5 0.929776 0.368124
      vertex 10 0.929776 0.368124
    endloop
  endfacet
  facet normal 0 0.790162 0.612898
    outer loop
      vertex 38.5 0.809016 0.587785
      vertex 10 0.770513 0.637424
      vertex 38.5 0.770513 0.637424
    endloop
  endfacet
  facet normal 0 0.790162 0.612898
    outer loop
      vertex 10 0.770513 0.637424
      vertex 38.5 0.809016 0.587785
      vertex 10 0.809016 0.587785
    endloop
  endfacet
  facet normal 0 0.960291 0.279001
    outer loop
      vertex 38.5 0.968583 0.24869
      vertex 10 0.951056 0.309016
      vertex 38.5 0.951056 0.309016
    endloop
  endfacet
  facet normal 0 0.960291 0.279001
    outer loop
      vertex 10 0.951056 0.309016
      vertex 38.5 0.968583 0.24869
      vertex 10 0.968583 0.24869
    endloop
  endfacet
  facet normal 0 -0.995562 -0.0941073
    outer loop
      vertex 10 -0.992114 -0.125333
      vertex 38.5 -0.998026 -0.0627899
      vertex 10 -0.998026 -0.0627899
    endloop
  endfacet
  facet normal 0 -0.995562 -0.0941073
    outer loop
      vertex 38.5 -0.998026 -0.0627899
      vertex 10 -0.992114 -0.125333
      vertex 38.5 -0.992114 -0.125333
    endloop
  endfacet
  facet normal 0 -0.50905 -0.860737
    outer loop
      vertex 10 -0.535827 -0.844327
      vertex 38.5 -0.481753 -0.876307
      vertex 38.5 -0.535827 -0.844327
    endloop
  endfacet
  facet normal -0 -0.50905 -0.860737
    outer loop
      vertex 38.5 -0.481753 -0.876307
      vertex 10 -0.535827 -0.844327
      vertex 10 -0.481753 -0.876307
    endloop
  endfacet
  facet normal 0 -0.218125 -0.975921
    outer loop
      vertex 10 -0.24869 -0.968583
      vertex 38.5 -0.187381 -0.982286
      vertex 38.5 -0.24869 -0.968583
    endloop
  endfacet
  facet normal -0 -0.218125 -0.975921
    outer loop
      vertex 38.5 -0.187381 -0.982286
      vertex 10 -0.24869 -0.968583
      vertex 10 -0.187381 -0.982286
    endloop
  endfacet
  facet normal 0 -0.707107 0.707107
    outer loop
      vertex 10 -0.728969 0.684546
      vertex 38.5 -0.684546 0.728969
      vertex 10 -0.684546 0.728969
    endloop
  endfacet
  facet normal 0 -0.707107 0.707107
    outer loop
      vertex 38.5 -0.684546 0.728969
      vertex 10 -0.728969 0.684546
      vertex 38.5 -0.728969 0.684546
    endloop
  endfacet
  facet normal 0 -0.891017 0.453969
    outer loop
      vertex 10 -0.904826 0.425778
      vertex 38.5 -0.876307 0.481753
      vertex 10 -0.876307 0.481753
    endloop
  endfacet
  facet normal 0 -0.891017 0.453969
    outer loop
      vertex 38.5 -0.876307 0.481753
      vertex 10 -0.904826 0.425778
      vertex 38.5 -0.904826 0.425778
    endloop
  endfacet
  facet normal 0 -0.156443 -0.987687
    outer loop
      vertex 10 -0.187381 -0.982286
      vertex 38.5 -0.125333 -0.992114
      vertex 38.5 -0.187381 -0.982286
    endloop
  endfacet
  facet normal -0 -0.156443 -0.987687
    outer loop
      vertex 38.5 -0.125333 -0.992114
      vertex 10 -0.187381 -0.982286
      vertex 10 -0.125333 -0.992114
    endloop
  endfacet
endsolid OpenSCAD_Model
