DBRep_DrawableShape

CASCADE Topology V1, (c) Matra-Datavision
Locations 10
1
              1               0               0              -0 
              0               1               0               0 
              0               0               1               5 
1
              1               0               0               0 
              0               1               0               0 
              0               0               1               0 
2  1 1 2 -1 0
2  2 1 1 -1 0
2  1 -1 0
1
              1               0               0              -0 
              0               1               0              -0 
              0               0               1              -3 
2  1 1 2 -1 6 1 0
2  6 -1 2 1 1 -1 0
2  2 -1 0
2  2 -1 6 1 0
Curve2ds 192
1 0 0 0 -1 
1 30 0 0 -1 
1 60 0 0 -1 
1 0 0 0 -1 
1 0 0 1 0 
1 0 0 1 0 
1 0 -3 1 0 
1 0 0 1 0 
1 30 0 0 -1 
1 0 0 0 -1 
1 0 0 1 0 
1 60 0 0 -1 
1 0 -3 1 0 
1 60 0 0 -1 
1 60 0 0 -1 
1 0 0 0 -1 
1 0 0 1 0 
1 60 -30 -1 0 
1 0 -3 1 0 
1 60 -30 -1 0 
1 0 0 1 0 
1 0 -30 0 1 
1 0 -3 1 0 
1 0 -30 0 1 
1 0 0 0 -1 
1 65 0 0 -1 
1 15.000000000000002 0 0 -1 
1 0 0 0 -1 
1 0 0 1 0 
1 0 0 1 0 
1 0 -3 1 0 
1 0 0 1 0 
1 65 0 0 -1 
1 0 0 0 -1 
1 0 0 1 0 
1 15.000000000000002 0 0 -1 
1 0 -3 1 0 
1 15.000000000000002 0 0 -1 
1 15.000000000000002 0 0 -1 
1 0 0 0 -1 
1 0 0 1 0 
1 15.000000000000002 -65 -1 0 
1 0 -3 1 0 
1 15.000000000000002 -65 -1 0 
1 0 0 1 0 
1 0 -65 0 1 
1 0 -3 1 0 
1 0 -65 0 1 
1 0 0 0 -1 
1 65 0 0 -1 
1 15.000000000000002 0 0 -1 
1 0 0 0 -1 
1 0 0 1 0 
1 0 0 1 0 
1 0 -3 1 0 
1 0 0 1 0 
1 65 0 0 -1 
1 0 0 0 -1 
1 0 0 1 0 
1 15.000000000000002 0 0 -1 
1 0 -3 1 0 
1 15.000000000000002 0 0 -1 
1 15.000000000000002 0 0 -1 
1 0 0 0 -1 
1 0 0 1 0 
1 15.000000000000002 -65 -1 0 
1 0 -3 1 0 
1 15.000000000000002 -65 -1 0 
1 0 0 1 0 
1 0 -65 0 1 
1 0 -3 1 0 
1 0 -65 0 1 
1 0 0 0 -1 
1 29.097617999999997 0 0 -1 
1 50 0 0 -1 
1 0 0 0 -1 
1 0 0 1 0 
1 0 0 1 0 
1 0 -3 1 0 
1 0 0 1 0 
1 29.097617999999997 0 0 -1 
1 0 0 0 -1 
1 0 0 1 0 
1 50 0 0 -1 
1 0 -3 1 0 
1 50 0 0 -1 
1 50 0 0 -1 
1 0 0 0 -1 
1 0 0 1 0 
1 50 -29.097617999999997 -1 0 
1 0 -3 1 0 
1 50 -29.097617999999997 -1 0 
1 0 0 1 0 
1 0 -29.097617999999997 0 1 
1 0 -3 1 0 
1 0 -29.097617999999997 0 1 
1 0 0 0 -1 
1 50.000000000000007 0 0 -1 
1 6 0 0 -1 
1 0 0 0 -1 
1 0 0 1 0 
1 0 0 1 0 
1 0 -3 1 0 
1 0 0 1 0 
1 50.000000000000007 0 0 -1 
1 0 0 0 -1 
1 0 0 1 0 
1 6 0 0 -1 
1 0 -3 1 0 
1 6 0 0 -1 
1 6 0 0 -1 
1 0 0 0 -1 
1 0 0 1 0 
1 6 -50.000000000000007 -1 0 
1 0 -3 1 0 
1 6 -50.000000000000007 -1 0 
1 0 0 1 0 
1 0 -50.000000000000007 0 1 
1 0 -3 1 0 
1 0 -50.000000000000007 0 1 
1 0 0 0 -1 
1 50.000000000000007 0 0 -1 
1 6 0 0 -1 
1 0 0 0 -1 
1 0 0 1 0 
1 0 0 1 0 
1 0 -3 1 0 
1 0 0 1 0 
1 50.000000000000007 0 0 -1 
1 0 0 0 -1 
1 0 0 1 0 
1 6 0 0 -1 
1 0 -3 1 0 
1 6 0 0 -1 
1 6 0 0 -1 
1 0 0 0 -1 
1 0 0 1 0 
1 6 -50.000000000000007 -1 0 
1 0 -3 1 0 
1 6 -50.000000000000007 -1 0 
1 0 0 1 0 
1 0 -50.000000000000007 0 1 
1 0 -3 1 0 
1 0 -50.000000000000007 0 1 
1 0 0 0 -1 
1 4.0999999999999996 0 0 -1 
1 21.595832999999999 0 0 -1 
1 0 0 0 -1 
1 0 0 1 0 
1 0 0 1 0 
1 0 -3 1 0 
1 0 0 1 0 
1 4.0999999999999996 0 0 -1 
1 0 0 0 -1 
1 0 0 1 0 
1 21.595832999999999 0 0 -1 
1 0 -3 1 0 
1 21.595832999999999 0 0 -1 
1 21.595832999999999 0 0 -1 
1 0 0 0 -1 
1 0 0 1 0 
1 21.595832999999999 -4.0999999999999996 -1 0 
1 0 -3 1 0 
1 21.595832999999999 -4.0999999999999996 -1 0 
1 0 0 1 0 
1 0 -4.0999999999999996 0 1 
1 0 -3 1 0 
1 0 -4.0999999999999996 0 1 
1 0 0 0 -1 
1 4.0999999999999996 0 0 -1 
1 20.110661 0 0 -1 
1 0 0 0 -1 
1 0 0 1 0 
1 0 0 1 0 
1 0 -3 1 0 
1 0 0 1 0 
1 4.0999999999999996 0 0 -1 
1 0 0 0 -1 
1 0 0 1 0 
1 20.110661 0 0 -1 
1 0 -3 1 0 
1 20.110661 0 0 -1 
1 20.110661 0 0 -1 
1 0 0 0 -1 
1 0 0 1 0 
1 20.110661 -4.0999999999999996 -1 0 
1 0 -3 1 0 
1 20.110661 -4.0999999999999996 -1 0 
1 0 0 1 0 
1 0 -4.0999999999999996 0 1 
1 0 -3 1 0 
1 0 -4.0999999999999996 0 1 
Curves 96
1 -30 -60 5 -0 -0 -1 
1 30 -60 5 -0 -0 -1 
1 -30 -60 0 1 0 0 
1 -30 -60 0 1 0 0 
1 30 -90 5 -0 -0 -1 
1 30 -60 0 0 -1 0 
1 30 -60 0 0 -1 0 
1 -30 -90 5 -0 -0 -1 
1 30 -90 0 -1 0 0 
1 30 -90 0 -1 0 0 
1 -30 -90 0 0 1 0 
1 -30 -90 0 0 1 0 
1 15.610924674975999 12 5 -0 -0 -1 
1 30.610924674976001 12 5 -0 -0 -1 
1 15.610924674975999 12 0 1 0 0 
1 15.610924674975999 12 0 1 0 0 
1 30.610924674976001 -53 5 -0 -0 -1 
1 30.610924674976001 12 0 0 -1 0 
1 30.610924674976001 12 0 0 -1 0 
1 15.610924674975999 -53 5 -0 -0 -1 
1 30.610924674976001 -53 0 -1 0 0 
1 30.610924674976001 -53 0 -1 0 0 
1 15.610924674975999 -53 0 0 1 0 
1 15.610924674975999 -53 0 0 1 0 
1 -30.610924674976001 12 5 -0 -0 -1 
1 -15.610924674975999 12 5 -0 -0 -1 
1 -30.610924674976001 12 0 1 0 0 
1 -30.610924674976001 12 0 1 0 0 
1 -15.610924674975999 -53 5 -0 -0 -1 
1 -15.610924674975999 12 0 0 -1 0 
1 -15.610924674975999 12 0 0 -1 0 
1 -30.610924674976001 -53 5 -0 -0 -1 
1 -15.610924674975999 -53 0 -1 0 0 
1 -15.610924674975999 -53 0 -1 0 0 
1 -30.610924674976001 -53 0 0 1 0 
1 -30.610924674976001 -53 0 0 1 0 
1 -25 99.097617999999997 5 -0 -0 -1 
1 25 99.097617999999997 5 -0 -0 -1 
1 -25 99.097617999999997 0 1 0 0 
1 -25 99.097617999999997 0 1 0 0 
1 25 70 5 -0 -0 -1 
1 25 99.097617999999997 0 0 -1 0 
1 25 99.097617999999997 0 0 -1 0 
1 -25 70 5 -0 -0 -1 
1 25 70 0 -1 0 0 
1 25 70 0 -1 0 0 
1 -25 70 0 0 1 0 
1 -25 70 0 0 1 0 
1 25.241234803657999 65.479179542199006 5 -0 -0 -1 
1 31.241234803657999 65.479179542199006 5 -0 -0 -1 
1 25.241234803657999 65.479179542199006 0 1 0 0 
1 25.241234803657999 65.479179542199006 0 1 0 0 
1 31.241234803657999 15.479179542198999 5 -0 -0 -1 
1 31.241234803657999 65.479179542199006 0 0 -1 0 
1 31.241234803657999 65.479179542199006 0 0 -1 0 
1 25.241234803657999 15.479179542198999 5 -0 -0 -1 
1 31.241234803657999 15.479179542198999 0 -1 0 0 
1 31.241234803657999 15.479179542198999 0 -1 0 0 
1 25.241234803657999 15.479179542198999 0 0 1 0 
1 25.241234803657999 15.479179542198999 0 0 1 0 
1 -31.241234803657999 65.479179542199006 5 -0 -0 -1 
1 -25.241234803657999 65.479179542199006 5 -0 -0 -1 
1 -31.241234803657999 65.479179542199006 0 1 0 0 
1 -31.241234803657999 65.479179542199006 0 1 0 0 
1 -25.241234803657999 15.479179542198999 5 -0 -0 -1 
1 -25.241234803657999 65.479179542199006 0 0 -1 0 
1 -25.241234803657999 65.479179542199006 0 0 -1 0 
1 -31.241234803657999 15.479179542198999 5 -0 -0 -1 
1 -25.241234803657999 15.479179542198999 0 -1 0 0 
1 -25.241234803657999 15.479179542198999 0 -1 0 0 
1 -31.241234803657999 15.479179542198999 0 0 1 0 
1 -31.241234803657999 15.479179542198999 0 0 1 0 
1 -58.595832999999999 2.0499999999999998 5 -0 -0 -1 
1 -37 2.0499999999999998 5 -0 -0 -1 
1 -58.595832999999999 2.0499999999999998 0 1 0 0 
1 -58.595832999999999 2.0499999999999998 0 1 0 0 
1 -37 -2.0499999999999998 5 -0 -0 -1 
1 -37 2.0499999999999998 0 0 -1 0 
1 -37 2.0499999999999998 0 0 -1 0 
1 -58.595832999999999 -2.0499999999999998 5 -0 -0 -1 
1 -37 -2.0499999999999998 0 -1 0 0 
1 -37 -2.0499999999999998 0 -1 0 0 
1 -58.595832999999999 -2.0499999999999998 0 0 1 0 
1 -58.595832999999999 -2.0499999999999998 0 0 1 0 
1 37 2.0499999999999998 5 -0 -0 -1 
1 57.110661 2.0499999999999998 5 -0 -0 -1 
1 37 2.0499999999999998 0 1 0 0 
1 37 2.0499999999999998 0 1 0 0 
1 57.110661 -2.0499999999999998 5 -0 -0 -1 
1 57.110661 2.0499999999999998 0 0 -1 0 
1 57.110661 2.0499999999999998 0 0 -1 0 
1 37 -2.0499999999999998 5 -0 -0 -1 
1 57.110661 -2.0499999999999998 0 -1 0 0 
1 57.110661 -2.0499999999999998 0 -1 0 0 
1 37 -2.0499999999999998 0 0 1 0 
1 37 -2.0499999999999998 0 0 1 0 
Polygon3D 0
PolygonOnTriangulations 0
Surfaces 48
1 -30 -60 5 0 -1 0 1 0 0 -0 0 1 
1 -30 -90 5 1 0 0 -0 1 0 0 -0 1 
1 30 -60 5 -1 0 0 0 -1 0 0 0 1 
1 -30 -60 5 -0 0 1 1 0 0 0 1 -0 
1 -30 -60 5 -0 0 1 1 0 0 0 1 -0 
1 30 -90 5 0 1 -0 -1 0 0 0 0 1 
1 15.610924674975999 12 5 0 -1 0 1 0 0 -0 0 1 
1 15.610924674975999 -53 5 1 0 0 -0 1 0 0 -0 1 
1 30.610924674976001 12 5 -1 0 0 0 -1 0 0 0 1 
1 15.610924674975999 12 5 -0 0 1 1 0 0 0 1 -0 
1 15.610924674975999 12 5 -0 0 1 1 0 0 0 1 -0 
1 30.610924674976001 -53 5 0 1 -0 -1 0 0 0 0 1 
1 -30.610924674976001 12 5 0 -1 0 1 0 0 -0 0 1 
1 -30.610924674976001 -53 5 1 0 0 -0 1 0 0 -0 1 
1 -15.610924674975999 12 5 -1 0 0 0 -1 0 0 0 1 
1 -30.610924674976001 12 5 -0 0 1 1 0 0 0 1 -0 
1 -30.610924674976001 12 5 -0 0 1 1 0 0 0 1 -0 
1 -15.610924674975999 -53 5 0 1 -0 -1 0 0 0 0 1 
1 -25 99.097617999999997 5 0 -1 0 1 0 0 -0 0 1 
1 -25 70 5 1 0 0 -0 1 0 0 -0 1 
1 25 99.097617999999997 5 -1 0 0 0 -1 0 0 0 1 
1 -25 99.097617999999997 5 -0 0 1 1 0 0 0 1 -0 
1 -25 99.097617999999997 5 -0 0 1 1 0 0 0 1 -0 
1 25 70 5 0 1 -0 -1 0 0 0 0 1 
1 25.241234803657999 65.479179542199006 5 0 -1 0 1 0 0 -0 0 1 
1 25.241234803657999 15.479179542198999 5 1 0 0 -0 1 0 0 -0 1 
1 31.241234803657999 65.479179542199006 5 -1 0 0 0 -1 0 0 0 1 
1 25.241234803657999 65.479179542199006 5 -0 0 1 1 0 0 0 1 -0 
1 25.241234803657999 65.479179542199006 5 -0 0 1 1 0 0 0 1 -0 
1 31.241234803657999 15.479179542198999 5 0 1 -0 -1 0 0 0 0 1 
1 -31.241234803657999 65.479179542199006 5 0 -1 0 1 0 0 -0 0 1 
1 -31.241234803657999 15.479179542198999 5 1 0 0 -0 1 0 0 -0 1 
1 -25.241234803657999 65.479179542199006 5 -1 0 0 0 -1 0 0 0 1 
1 -31.241234803657999 65.479179542199006 5 -0 0 1 1 0 0 0 1 -0 
1 -31.241234803657999 65.479179542199006 5 -0 0 1 1 0 0 0 1 -0 
1 -25.241234803657999 15.479179542198999 5 0 1 -0 -1 0 0 0 0 1 
1 -58.595832999999999 2.0499999999999998 5 0 -1 0 1 0 0 -0 0 1 
1 -58.595832999999999 -2.0499999999999998 5 1 0 0 -0 1 0 0 -0 1 
1 -37 2.0499999999999998 5 -1 0 0 0 -1 0 0 0 1 
1 -58.595832999999999 2.0499999999999998 5 -0 0 1 1 0 0 0 1 -0 
1 -58.595832999999999 2.0499999999999998 5 -0 0 1 1 0 0 0 1 -0 
1 -37 -2.0499999999999998 5 0 1 -0 -1 0 0 0 0 1 
1 37 2.0499999999999998 5 0 -1 0 1 0 0 -0 0 1 
1 37 -2.0499999999999998 5 1 0 0 -0 1 0 0 -0 1 
1 57.110661 2.0499999999999998 5 -1 0 0 0 -1 0 0 0 1 
1 37 2.0499999999999998 5 -0 0 1 1 0 0 0 1 -0 
1 37 2.0499999999999998 5 -0 0 1 1 0 0 0 1 -0 
1 57.110661 -2.0499999999999998 5 0 1 -0 -1 0 0 0 0 1 
Triangulations 0

TShapes 273
Ve
1e-007
-30 -60 5
0 0

0101101
*
Ve
1e-007
-30 -60 2
0 0

0101101
*
Ed
 1e-007 1 1 0
1  1 0 0 3
2  1 1 0 0 3
2  2 2 0 0 3
0

0101000
+273 0 -272 0 *
Ve
1e-007
30 -60 5
0 0

0101101
*
Ve
1e-007
30 -60 2
0 0

0101101
*
Ed
 1e-007 1 1 0
1  2 0 0 3
2  3 1 0 0 3
2  4 3 0 0 3
0

0101000
+270 0 -269 0 *
Ed
 1e-007 1 1 0
1  3 0 0 60
2  5 1 4 0 60
2  6 4 5 0 60
0

0101000
+273 4 -270 4 *
Ed
 1e-007 1 1 0
1  4 0 0 60
2  7 1 8 0 60
2  8 5 5 0 60
0

0101000
+272 8 -269 8 *
Wi

0101000
+271 0 -268 0 -267 3 +266 7 *
Fa
0  1e-007 1 0

0101000
+265 0 *
Ve
1e-007
30 -90 5
0 0

0101101
*
Ve
1e-007
30 -90 2
0 0

0101101
*
Ed
 1e-007 1 1 0
1  5 0 0 3
2  9 3 0 0 3
2  10 6 0 0 3
0

0101000
+263 0 -262 0 *
Ed
 1e-007 1 1 0
1  6 0 0 30
2  11 3 4 0 30
2  12 4 5 0 30
0

0101000
+270 4 -263 4 *
Ed
 1e-007 1 1 0
1  7 0 0 30
2  13 3 8 0 30
2  14 5 5 0 30
0

0101000
+269 8 -262 8 *
Wi

0101000
+268 0 -261 0 -260 3 +259 7 *
Fa
0  1e-007 3 0

0101000
+258 0 *
Ve
1e-007
-30 -90 5
0 0

0101101
*
Ve
1e-007
-30 -90 2
0 0

0101101
*
Ed
 1e-007 1 1 0
1  8 0 0 3
2  15 6 0 0 3
2  16 2 0 0 3
0

0101000
+256 0 -255 0 *
Ed
 1e-007 1 1 0
1  9 0 0 60
2  17 6 4 0 60
2  18 4 5 0 60
0

0101000
+263 4 -256 4 *
Ed
 1e-007 1 1 0
1  10 0 0 60
2  19 6 8 0 60
2  20 5 5 0 60
0

0101000
+262 8 -255 8 *
Wi

0101000
+261 0 -254 0 -253 3 +252 7 *
Fa
0  1e-007 6 0

0101000
+251 0 *
Ed
 1e-007 1 1 0
1  11 0 0 30
2  21 2 4 0 30
2  22 4 5 0 30
0

0101000
+256 4 -273 4 *
Ed
 1e-007 1 1 0
1  12 0 0 30
2  23 2 8 0 30
2  24 5 5 0 30
0

0101000
+255 8 -272 8 *
Wi

0101000
+254 0 -271 0 -249 3 +248 7 *
Fa
0  1e-007 2 0

0101000
+247 0 *
Wi

0101100
+267 0 +260 0 +253 0 +249 0 *
Fa
0  1e-007 4 0

0101000
-245 1 *
Wi

0101100
+266 0 +259 0 +252 0 +248 0 *
Fa
0  1e-007 5 0

0101000
-243 1 *
Sh

0101000
-264 0 -257 0 -250 0 -246 0 +244 9 -242 10 *
So

0100000
+241 0 *
Ve
1e-007
15.610924674976 12 5
0 0

0101101
*
Ve
1e-007
15.610924674976 12 2
0 0

0101101
*
Ed
 1e-007 1 1 0
1  13 0 0 3
2  25 7 0 0 3
2  26 8 0 0 3
0

0101000
+239 0 -238 0 *
Ve
1e-007
30.610924674976 12 5
0 0

0101101
*
Ve
1e-007
30.610924674976 12 2
0 0

0101101
*
Ed
 1e-007 1 1 0
1  14 0 0 3
2  27 7 0 0 3
2  28 9 0 0 3
0

0101000
+236 0 -235 0 *
Ed
 1e-007 1 1 0
1  15 0 0 15
2  29 7 4 0 15
2  30 10 5 0 15
0

0101000
+239 4 -236 4 *
Ed
 1e-007 1 1 0
1  16 0 0 15
2  31 7 8 0 15
2  32 11 5 0 15
0

0101000
+238 8 -235 8 *
Wi

0101000
+237 0 -234 0 -233 3 +232 7 *
Fa
0  1e-007 7 0

0101000
+231 0 *
Ve
1e-007
30.610924674976 -53 5
0 0

0101101
*
Ve
1e-007
30.610924674976 -53 2
0 0

0101101
*
Ed
 1e-007 1 1 0
1  17 0 0 3
2  33 9 0 0 3
2  34 12 0 0 3
0

0101000
+229 0 -228 0 *
Ed
 1e-007 1 1 0
1  18 0 0 65
2  35 9 4 0 65
2  36 10 5 0 65
0

0101000
+236 4 -229 4 *
Ed
 1e-007 1 1 0
1  19 0 0 65
2  37 9 8 0 65
2  38 11 5 0 65
0

0101000
+235 8 -228 8 *
Wi

0101000
+234 0 -227 0 -226 3 +225 7 *
Fa
0  1e-007 9 0

0101000
+224 0 *
Ve
1e-007
15.610924674976 -53 5
0 0

0101101
*
Ve
1e-007
15.610924674976 -53 2
0 0

0101101
*
Ed
 1e-007 1 1 0
1  20 0 0 3
2  39 12 0 0 3
2  40 8 0 0 3
0

0101000
+222 0 -221 0 *
Ed
 1e-007 1 1 0
1  21 0 0 15
2  41 12 4 0 15
2  42 10 5 0 15
0

0101000
+229 4 -222 4 *
Ed
 1e-007 1 1 0
1  22 0 0 15
2  43 12 8 0 15
2  44 11 5 0 15
0

0101000
+228 8 -221 8 *
Wi

0101000
+227 0 -220 0 -219 3 +218 7 *
Fa
0  1e-007 12 0

0101000
+217 0 *
Ed
 1e-007 1 1 0
1  23 0 0 65
2  45 8 4 0 65
2  46 10 5 0 65
0

0101000
+222 4 -239 4 *
Ed
 1e-007 1 1 0
1  24 0 0 65
2  47 8 8 0 65
2  48 11 5 0 65
0

0101000
+221 8 -238 8 *
Wi

0101000
+220 0 -237 0 -215 3 +214 7 *
Fa
0  1e-007 8 0

0101000
+213 0 *
Wi

0101100
+233 0 +226 0 +219 0 +215 0 *
Fa
0  1e-007 10 0

0101000
-211 1 *
Wi

0101100
+232 0 +225 0 +218 0 +214 0 *
Fa
0  1e-007 11 0

0101000
-209 1 *
Sh

0101000
-230 0 -223 0 -216 0 -212 0 +210 9 -208 10 *
So

0100000
+207 0 *
Ve
1e-007
-30.610924674976 12 5
0 0

0101101
*
Ve
1e-007
-30.610924674976 12 2
0 0

0101101
*
Ed
 1e-007 1 1 0
1  25 0 0 3
2  49 13 0 0 3
2  50 14 0 0 3
0

0101000
+205 0 -204 0 *
Ve
1e-007
-15.610924674976 12 5
0 0

0101101
*
Ve
1e-007
-15.610924674976 12 2
0 0

0101101
*
Ed
 1e-007 1 1 0
1  26 0 0 3
2  51 13 0 0 3
2  52 15 0 0 3
0

0101000
+202 0 -201 0 *
Ed
 1e-007 1 1 0
1  27 0 0 15
2  53 13 4 0 15
2  54 16 5 0 15
0

0101000
+205 4 -202 4 *
Ed
 1e-007 1 1 0
1  28 0 0 15
2  55 13 8 0 15
2  56 17 5 0 15
0

0101000
+204 8 -201 8 *
Wi

0101000
+203 0 -200 0 -199 3 +198 7 *
Fa
0  1e-007 13 0

0101000
+197 0 *
Ve
1e-007
-15.610924674976 -53 5
0 0

0101101
*
Ve
1e-007
-15.610924674976 -53 2
0 0

0101101
*
Ed
 1e-007 1 1 0
1  29 0 0 3
2  57 15 0 0 3
2  58 18 0 0 3
0

0101000
+195 0 -194 0 *
Ed
 1e-007 1 1 0
1  30 0 0 65
2  59 15 4 0 65
2  60 16 5 0 65
0

0101000
+202 4 -195 4 *
Ed
 1e-007 1 1 0
1  31 0 0 65
2  61 15 8 0 65
2  62 17 5 0 65
0

0101000
+201 8 -194 8 *
Wi

0101000
+200 0 -193 0 -192 3 +191 7 *
Fa
0  1e-007 15 0

0101000
+190 0 *
Ve
1e-007
-30.610924674976 -53 5
0 0

0101101
*
Ve
1e-007
-30.610924674976 -53 2
0 0

0101101
*
Ed
 1e-007 1 1 0
1  32 0 0 3
2  63 18 0 0 3
2  64 14 0 0 3
0

0101000
+188 0 -187 0 *
Ed
 1e-007 1 1 0
1  33 0 0 15
2  65 18 4 0 15
2  66 16 5 0 15
0

0101000
+195 4 -188 4 *
Ed
 1e-007 1 1 0
1  34 0 0 15
2  67 18 8 0 15
2  68 17 5 0 15
0

0101000
+194 8 -187 8 *
Wi

0101000
+193 0 -186 0 -185 3 +184 7 *
Fa
0  1e-007 18 0

0101000
+183 0 *
Ed
 1e-007 1 1 0
1  35 0 0 65
2  69 14 4 0 65
2  70 16 5 0 65
0

0101000
+188 4 -205 4 *
Ed
 1e-007 1 1 0
1  36 0 0 65
2  71 14 8 0 65
2  72 17 5 0 65
0

0101000
+187 8 -204 8 *
Wi

0101000
+186 0 -203 0 -181 3 +180 7 *
Fa
0  1e-007 14 0

0101000
+179 0 *
Wi

0101100
+199 0 +192 0 +185 0 +181 0 *
Fa
0  1e-007 16 0

0101000
-177 1 *
Wi

0101100
+198 0 +191 0 +184 0 +180 0 *
Fa
0  1e-007 17 0

0101000
-175 1 *
Sh

0101000
-196 0 -189 0 -182 0 -178 0 +176 9 -174 10 *
So

0100000
+173 0 *
Ve
1e-007
-25 99.097618 5
0 0

0101101
*
Ve
1e-007
-25 99.097618 2
0 0

0101101
*
Ed
 1e-007 1 1 0
1  37 0 0 3
2  73 19 0 0 3
2  74 20 0 0 3
0

0101000
+171 0 -170 0 *
Ve
1e-007
25 99.097618 5
0 0

0101101
*
Ve
1e-007
25 99.097618 2
0 0

0101101
*
Ed
 1e-007 1 1 0
1  38 0 0 3
2  75 19 0 0 3
2  76 21 0 0 3
0

0101000
+168 0 -167 0 *
Ed
 1e-007 1 1 0
1  39 0 0 50
2  77 19 4 0 50
2  78 22 5 0 50
0

0101000
+171 4 -168 4 *
Ed
 1e-007 1 1 0
1  40 0 0 50
2  79 19 8 0 50
2  80 23 5 0 50
0

0101000
+170 8 -167 8 *
Wi

0101000
+169 0 -166 0 -165 3 +164 7 *
Fa
0  1e-007 19 0

0101000
+163 0 *
Ve
1e-007
25 70 5
0 0

0101101
*
Ve
1e-007
25 70 2
0 0

0101101
*
Ed
 1e-007 1 1 0
1  41 0 0 3
2  81 21 0 0 3
2  82 24 0 0 3
0

0101000
+161 0 -160 0 *
Ed
 1e-007 1 1 0
1  42 0 0 29.097618
2  83 21 4 0 29.097618
2  84 22 5 0 29.097618
0

0101000
+168 4 -161 4 *
Ed
 1e-007 1 1 0
1  43 0 0 29.097618
2  85 21 8 0 29.097618
2  86 23 5 0 29.097618
0

0101000
+167 8 -160 8 *
Wi

0101000
+166 0 -159 0 -158 3 +157 7 *
Fa
0  1e-007 21 0

0101000
+156 0 *
Ve
1e-007
-25 70 5
0 0

0101101
*
Ve
1e-007
-25 70 2
0 0

0101101
*
Ed
 1e-007 1 1 0
1  44 0 0 3
2  87 24 0 0 3
2  88 20 0 0 3
0

0101000
+154 0 -153 0 *
Ed
 1e-007 1 1 0
1  45 0 0 50
2  89 24 4 0 50
2  90 22 5 0 50
0

0101000
+161 4 -154 4 *
Ed
 1e-007 1 1 0
1  46 0 0 50
2  91 24 8 0 50
2  92 23 5 0 50
0

0101000
+160 8 -153 8 *
Wi

0101000
+159 0 -152 0 -151 3 +150 7 *
Fa
0  1e-007 24 0

0101000
+149 0 *
Ed
 1e-007 1 1 0
1  47 0 0 29.097618
2  93 20 4 0 29.097618
2  94 22 5 0 29.097618
0

0101000
+154 4 -171 4 *
Ed
 1e-007 1 1 0
1  48 0 0 29.097618
2  95 20 8 0 29.097618
2  96 23 5 0 29.097618
0

0101000
+153 8 -170 8 *
Wi

0101000
+152 0 -169 0 -147 3 +146 7 *
Fa
0  1e-007 20 0

0101000
+145 0 *
Wi

0101100
+165 0 +158 0 +151 0 +147 0 *
Fa
0  1e-007 22 0

0101000
-143 1 *
Wi

0101100
+164 0 +157 0 +150 0 +146 0 *
Fa
0  1e-007 23 0

0101000
-141 1 *
Sh

0101000
-162 0 -155 0 -148 0 -144 0 +142 9 -140 10 *
So

0100000
+139 0 *
Ve
1e-007
25.241234803658 65.479179542199 5
0 0

0101101
*
Ve
1e-007
25.241234803658 65.479179542199 2
0 0

0101101
*
Ed
 1e-007 1 1 0
1  49 0 0 3
2  97 25 0 0 3
2  98 26 0 0 3
0

0101000
+137 0 -136 0 *
Ve
1e-007
31.241234803658 65.479179542199 5
0 0

0101101
*
Ve
1e-007
31.241234803658 65.479179542199 2
0 0

0101101
*
Ed
 1e-007 1 1 0
1  50 0 0 3
2  99 25 0 0 3
2  100 27 0 0 3
0

0101000
+134 0 -133 0 *
Ed
 1e-007 1 1 0
1  51 0 0 6
2  101 25 4 0 6
2  102 28 5 0 6
0

0101000
+137 4 -134 4 *
Ed
 1e-007 1 1 0
1  52 0 0 6
2  103 25 8 0 6
2  104 29 5 0 6
0

0101000
+136 8 -133 8 *
Wi

0101000
+135 0 -132 0 -131 3 +130 7 *
Fa
0  1e-007 25 0

0101000
+129 0 *
Ve
1e-007
31.241234803658 15.479179542199 5
0 0

0101101
*
Ve
1e-007
31.241234803658 15.479179542199 2
0 0

0101101
*
Ed
 1e-007 1 1 0
1  53 0 0 3
2  105 27 0 0 3
2  106 30 0 0 3
0

0101000
+127 0 -126 0 *
Ed
 1e-007 1 1 0
1  54 0 0 50
2  107 27 4 0 50
2  108 28 5 0 50
0

0101000
+134 4 -127 4 *
Ed
 1e-007 1 1 0
1  55 0 0 50
2  109 27 8 0 50
2  110 29 5 0 50
0

0101000
+133 8 -126 8 *
Wi

0101000
+132 0 -125 0 -124 3 +123 7 *
Fa
0  1e-007 27 0

0101000
+122 0 *
Ve
1e-007
25.241234803658 15.479179542199 5
0 0

0101101
*
Ve
1e-007
25.241234803658 15.479179542199 2
0 0

0101101
*
Ed
 1e-007 1 1 0
1  56 0 0 3
2  111 30 0 0 3
2  112 26 0 0 3
0

0101000
+120 0 -119 0 *
Ed
 1e-007 1 1 0
1  57 0 0 6
2  113 30 4 0 6
2  114 28 5 0 6
0

0101000
+127 4 -120 4 *
Ed
 1e-007 1 1 0
1  58 0 0 6
2  115 30 8 0 6
2  116 29 5 0 6
0

0101000
+126 8 -119 8 *
Wi

0101000
+125 0 -118 0 -117 3 +116 7 *
Fa
0  1e-007 30 0

0101000
+115 0 *
Ed
 1e-007 1 1 0
1  59 0 0 50
2  117 26 4 0 50
2  118 28 5 0 50
0

0101000
+120 4 -137 4 *
Ed
 1e-007 1 1 0
1  60 0 0 50
2  119 26 8 0 50
2  120 29 5 0 50
0

0101000
+119 8 -136 8 *
Wi

0101000
+118 0 -135 0 -113 3 +112 7 *
Fa
0  1e-007 26 0

0101000
+111 0 *
Wi

0101100
+131 0 +124 0 +117 0 +113 0 *
Fa
0  1e-007 28 0

0101000
-109 1 *
Wi

0101100
+130 0 +123 0 +116 0 +112 0 *
Fa
0  1e-007 29 0

0101000
-107 1 *
Sh

0101000
-128 0 -121 0 -114 0 -110 0 +108 9 -106 10 *
So

0100000
+105 0 *
Ve
1e-007
-31.241234803658 65.479179542199 5
0 0

0101101
*
Ve
1e-007
-31.241234803658 65.479179542199 2
0 0

0101101
*
Ed
 1e-007 1 1 0
1  61 0 0 3
2  121 31 0 0 3
2  122 32 0 0 3
0

0101000
+103 0 -102 0 *
Ve
1e-007
-25.241234803658 65.479179542199 5
0 0

0101101
*
Ve
1e-007
-25.241234803658 65.479179542199 2
0 0

0101101
*
Ed
 1e-007 1 1 0
1  62 0 0 3
2  123 31 0 0 3
2  124 33 0 0 3
0

0101000
+100 0 -99 0 *
Ed
 1e-007 1 1 0
1  63 0 0 6
2  125 31 4 0 6
2  126 34 5 0 6
0

0101000
+103 4 -100 4 *
Ed
 1e-007 1 1 0
1  64 0 0 6
2  127 31 8 0 6
2  128 35 5 0 6
0

0101000
+102 8 -99 8 *
Wi

0101000
+101 0 -98 0 -97 3 +96 7 *
Fa
0  1e-007 31 0

0101000
+95 0 *
Ve
1e-007
-25.241234803658 15.479179542199 5
0 0

0101101
*
Ve
1e-007
-25.241234803658 15.479179542199 2
0 0

0101101
*
Ed
 1e-007 1 1 0
1  65 0 0 3
2  129 33 0 0 3
2  130 36 0 0 3
0

0101000
+93 0 -92 0 *
Ed
 1e-007 1 1 0
1  66 0 0 50
2  131 33 4 0 50
2  132 34 5 0 50
0

0101000
+100 4 -93 4 *
Ed
 1e-007 1 1 0
1  67 0 0 50
2  133 33 8 0 50
2  134 35 5 0 50
0

0101000
+99 8 -92 8 *
Wi

0101000
+98 0 -91 0 -90 3 +89 7 *
Fa
0  1e-007 33 0

0101000
+88 0 *
Ve
1e-007
-31.241234803658 15.479179542199 5
0 0

0101101
*
Ve
1e-007
-31.241234803658 15.479179542199 2
0 0

0101101
*
Ed
 1e-007 1 1 0
1  68 0 0 3
2  135 36 0 0 3
2  136 32 0 0 3
0

0101000
+86 0 -85 0 *
Ed
 1e-007 1 1 0
1  69 0 0 6
2  137 36 4 0 6
2  138 34 5 0 6
0

0101000
+93 4 -86 4 *
Ed
 1e-007 1 1 0
1  70 0 0 6
2  139 36 8 0 6
2  140 35 5 0 6
0

0101000
+92 8 -85 8 *
Wi

0101000
+91 0 -84 0 -83 3 +82 7 *
Fa
0  1e-007 36 0

0101000
+81 0 *
Ed
 1e-007 1 1 0
1  71 0 0 50
2  141 32 4 0 50
2  142 34 5 0 50
0

0101000
+86 4 -103 4 *
Ed
 1e-007 1 1 0
1  72 0 0 50
2  143 32 8 0 50
2  144 35 5 0 50
0

0101000
+85 8 -102 8 *
Wi

0101000
+84 0 -101 0 -79 3 +78 7 *
Fa
0  1e-007 32 0

0101000
+77 0 *
Wi

0101100
+97 0 +90 0 +83 0 +79 0 *
Fa
0  1e-007 34 0

0101000
-75 1 *
Wi

0101100
+96 0 +89 0 +82 0 +78 0 *
Fa
0  1e-007 35 0

0101000
-73 1 *
Sh

0101000
-94 0 -87 0 -80 0 -76 0 +74 9 -72 10 *
So

0100000
+71 0 *
Ve
1e-007
-58.595833 2.05 5
0 0

0101101
*
Ve
1e-007
-58.595833 2.05 2
0 0

0101101
*
Ed
 1e-007 1 1 0
1  73 0 0 3
2  145 37 0 0 3
2  146 38 0 0 3
0

0101000
+69 0 -68 0 *
Ve
1e-007
-37 2.05 5
0 0

0101101
*
Ve
1e-007
-37 2.05 2
0 0

0101101
*
Ed
 1e-007 1 1 0
1  74 0 0 3
2  147 37 0 0 3
2  148 39 0 0 3
0

0101000
+66 0 -65 0 *
Ed
 1e-007 1 1 0
1  75 0 0 21.595833
2  149 37 4 0 21.595833
2  150 40 5 0 21.595833
0

0101000
+69 4 -66 4 *
Ed
 1e-007 1 1 0
1  76 0 0 21.595833
2  151 37 8 0 21.595833
2  152 41 5 0 21.595833
0

0101000
+68 8 -65 8 *
Wi

0101000
+67 0 -64 0 -63 3 +62 7 *
Fa
0  1e-007 37 0

0101000
+61 0 *
Ve
1e-007
-37 -2.05 5
0 0

0101101
*
Ve
1e-007
-37 -2.05 2
0 0

0101101
*
Ed
 1e-007 1 1 0
1  77 0 0 3
2  153 39 0 0 3
2  154 42 0 0 3
0

0101000
+59 0 -58 0 *
Ed
 1e-007 1 1 0
1  78 0 0 4.1
2  155 39 4 0 4.1
2  156 40 5 0 4.1
0

0101000
+66 4 -59 4 *
Ed
 1e-007 1 1 0
1  79 0 0 4.1
2  157 39 8 0 4.1
2  158 41 5 0 4.1
0

0101000
+65 8 -58 8 *
Wi

0101000
+64 0 -57 0 -56 3 +55 7 *
Fa
0  1e-007 39 0

0101000
+54 0 *
Ve
1e-007
-58.595833 -2.05 5
0 0

0101101
*
Ve
1e-007
-58.595833 -2.05 2
0 0

0101101
*
Ed
 1e-007 1 1 0
1  80 0 0 3
2  159 42 0 0 3
2  160 38 0 0 3
0

0101000
+52 0 -51 0 *
Ed
 1e-007 1 1 0
1  81 0 0 21.595833
2  161 42 4 0 21.595833
2  162 40 5 0 21.595833
0

0101000
+59 4 -52 4 *
Ed
 1e-007 1 1 0
1  82 0 0 21.595833
2  163 42 8 0 21.595833
2  164 41 5 0 21.595833
0

0101000
+58 8 -51 8 *
Wi

0101000
+57 0 -50 0 -49 3 +48 7 *
Fa
0  1e-007 42 0

0101000
+47 0 *
Ed
 1e-007 1 1 0
1  83 0 0 4.1
2  165 38 4 0 4.1
2  166 40 5 0 4.1
0

0101000
+52 4 -69 4 *
Ed
 1e-007 1 1 0
1  84 0 0 4.1
2  167 38 8 0 4.1
2  168 41 5 0 4.1
0

0101000
+51 8 -68 8 *
Wi

0101000
+50 0 -67 0 -45 3 +44 7 *
Fa
0  1e-007 38 0

0101000
+43 0 *
Wi

0101100
+63 0 +56 0 +49 0 +45 0 *
Fa
0  1e-007 40 0

0101000
-41 1 *
Wi

0101100
+62 0 +55 0 +48 0 +44 0 *
Fa
0  1e-007 41 0

0101000
-39 1 *
Sh

0101000
-60 0 -53 0 -46 0 -42 0 +40 9 -38 10 *
So

0100000
+37 0 *
Ve
1e-007
37 2.05 5
0 0

0101101
*
Ve
1e-007
37 2.05 2
0 0

0101101
*
Ed
 1e-007 1 1 0
1  85 0 0 3
2  169 43 0 0 3
2  170 44 0 0 3
0

0101000
+35 0 -34 0 *
Ve
1e-007
57.110661 2.05 5
0 0

0101101
*
Ve
1e-007
57.110661 2.05 2
0 0

0101101
*
Ed
 1e-007 1 1 0
1  86 0 0 3
2  171 43 0 0 3
2  172 45 0 0 3
0

0101000
+32 0 -31 0 *
Ed
 1e-007 1 1 0
1  87 0 0 20.110661
2  173 43 4 0 20.110661
2  174 46 5 0 20.110661
0

0101000
+35 4 -32 4 *
Ed
 1e-007 1 1 0
1  88 0 0 20.110661
2  175 43 8 0 20.110661
2  176 47 5 0 20.110661
0

0101000
+34 8 -31 8 *
Wi

0101000
+33 0 -30 0 -29 3 +28 7 *
Fa
0  1e-007 43 0

0101000
+27 0 *
Ve
1e-007
57.110661 -2.05 5
0 0

0101101
*
Ve
1e-007
57.110661 -2.05 2
0 0

0101101
*
Ed
 1e-007 1 1 0
1  89 0 0 3
2  177 45 0 0 3
2  178 48 0 0 3
0

0101000
+25 0 -24 0 *
Ed
 1e-007 1 1 0
1  90 0 0 4.1
2  179 45 4 0 4.1
2  180 46 5 0 4.1
0

0101000
+32 4 -25 4 *
Ed
 1e-007 1 1 0
1  91 0 0 4.1
2  181 45 8 0 4.1
2  182 47 5 0 4.1
0

0101000
+31 8 -24 8 *
Wi

0101000
+30 0 -23 0 -22 3 +21 7 *
Fa
0  1e-007 45 0

0101000
+20 0 *
Ve
1e-007
37 -2.05 5
0 0

0101101
*
Ve
1e-007
37 -2.05 2
0 0

0101101
*
Ed
 1e-007 1 1 0
1  92 0 0 3
2  183 48 0 0 3
2  184 44 0 0 3
0

0101000
+18 0 -17 0 *
Ed
 1e-007 1 1 0
1  93 0 0 20.110661
2  185 48 4 0 20.110661
2  186 46 5 0 20.110661
0

0101000
+25 4 -18 4 *
Ed
 1e-007 1 1 0
1  94 0 0 20.110661
2  187 48 8 0 20.110661
2  188 47 5 0 20.110661
0

0101000
+24 8 -17 8 *
Wi

0101000
+23 0 -16 0 -15 3 +14 7 *
Fa
0  1e-007 48 0

0101000
+13 0 *
Ed
 1e-007 1 1 0
1  95 0 0 4.1
2  189 44 4 0 4.1
2  190 46 5 0 4.1
0

0101000
+18 4 -35 4 *
Ed
 1e-007 1 1 0
1  96 0 0 4.1
2  191 44 8 0 4.1
2  192 47 5 0 4.1
0

0101000
+17 8 -34 8 *
Wi

0101000
+16 0 -33 0 -11 3 +10 7 *
Fa
0  1e-007 44 0

0101000
+9 0 *
Wi

0101100
+29 0 +22 0 +15 0 +11 0 *
Fa
0  1e-007 46 0

0101000
-7 1 *
Wi

0101100
+28 0 +21 0 +14 0 +10 0 *
Fa
0  1e-007 47 0

0101000
-5 1 *
Sh

0101000
-26 0 -19 0 -12 0 -8 0 +6 9 -4 10 *
So

0100000
+3 0 *
Co

1100000
+240 0 +206 0 +172 0 +138 0 +104 0 +70 0 +36 0 +2 0 *

+1 0 