DBRep_DrawableShape

CASCADE Topology V1, (c) Matra-Datavision
Locations 10
1
              1               0               0              -0 
              0               1               0               0 
              0               0               1              23 
1
              1               0               0               0 
              0               1               0               0 
              0               0               1               0 
2  1 1 2 -1 0
2  2 1 1 -1 0
2  1 -1 0
1
              1               0               0               0 
              0               1               0               0 
              0               0               1               4 
2  1 1 2 -1 6 1 0
2  6 -1 2 1 1 -1 0
2  2 -1 0
2  2 -1 6 1 0
Curve2ds 60
1 0 0 0 -1 
1 26 0 0 -1 
1 8 0 0 -1 
1 0 0 0 -1 
1 0 0 1 0 
1 0 0 1 0 
1 0 -4 1 0 
1 0 0 1 0 
1 26 0 0 -1 
1 0 -0 0 -1 
1 0 0 1 0 
1 8 0 0 -1 
1 0 -4 1 0 
1 8 0 0 -1 
1 8 0 0 -1 
1 0 0 0 -1 
1 0 -0 1 0 
1 8 -26 -1 0 
1 0 -4 1 0 
1 8 -26 -1 0 
1 0 0 1 0 
1 0 -26 0 1 
1 0 -4 1 0 
1 0 -26 0 1 
1 0 0 0 -1 
1 6.2831853071795862 0 0 -1 
1 0 0 1 0 
2 4 -13 1 0 -0 1 1
1 0 -4 1 0 
2 4 -13 1 0 -0 1 1
1 0 0 0 -1 
1 26 0 0 -1 
1 8 0 0 -1 
1 0 0 0 -1 
1 0 0 1 0 
1 0 0 1 0 
1 0 -4 1 0 
1 0 0 1 0 
1 26 0 0 -1 
1 0 -0 0 -1 
1 0 0 1 0 
1 8 0 0 -1 
1 0 -4 1 0 
1 8 0 0 -1 
1 8 0 0 -1 
1 0 0 0 -1 
1 0 -0 1 0 
1 8 -26 -1 0 
1 0 -4 1 0 
1 8 -26 -1 0 
1 0 0 1 0 
1 0 -26 0 1 
1 0 -4 1 0 
1 0 -26 0 1 
1 0 0 0 -1 
1 6.2831853071795862 0 0 -1 
1 0 0 1 0 
2 4 -13 1 0 -0 1 1
1 0 -4 1 0 
2 4 -13 1 0 -0 1 1
Curves 30
1 39 -70 23 0 0 1 
1 47 -70 23 0 0 1 
1 39 -70 0 1 0 0 
1 39 -70 0 1 0 0 
1 47 -96 23 0 0 1 
1 47 -70 0 0 -1 0 
1 47 -70 0 0 -1 0 
1 39 -96 23 0 0 1 
1 47 -96 0 -1 0 0 
1 47 -96 0 -1 0 0 
1 39 -96 0 0 1 0 
1 39 -96 0 0 1 0 
1 44 -83 23 0 0 1 
2 43 -83 0 0 0 1 1 0 -0 -0 1 0 1
2 43 -83 0 0 0 1 1 0 -0 -0 1 0 1
1 39 96 23 0 0 1 
1 47 96 23 0 0 1 
1 39 96 0 1 0 0 
1 39 96 0 1 0 0 
1 47 70 23 0 0 1 
1 47 96 0 0 -1 0 
1 47 96 0 0 -1 0 
1 39 70 23 0 0 1 
1 47 70 0 -1 0 0 
1 47 70 0 -1 0 0 
1 39 70 0 0 1 0 
1 39 70 0 0 1 0 
1 44 83 23 0 0 1 
2 43 83 0 0 0 1 1 0 -0 -0 1 0 1
2 43 83 0 0 0 1 1 0 -0 -0 1 0 1
Polygon3D 0
PolygonOnTriangulations 0
Surfaces 14
1 39 -70 23 0 1 0 1 0 0 0 0 -1 
1 39 -96 23 -1 0 0 0 1 0 0 0 -1 
1 47 -70 23 1 0 -0 0 -1 0 0 -0 -1 
1 39 -70 23 -0 0 1 1 0 0 0 1 -0 
1 39 -70 23 -0 0 1 1 0 0 0 1 -0 
1 47 -96 23 0 -1 0 -1 0 0 -0 -0 -1 
2 43 -83 23 -0 -0 -1 1 0 0 -0 1 -0 1
1 39 96 23 0 1 0 1 0 0 0 0 -1 
1 39 70 23 -1 0 0 0 1 0 0 0 -1 
1 47 96 23 1 0 -0 0 -1 0 0 -0 -1 
1 39 96 23 -0 0 1 1 0 0 0 1 -0 
1 39 96 23 -0 0 1 1 0 0 0 1 -0 
1 47 70 23 0 -1 0 -1 0 0 -0 -0 -1 
2 43 83 23 -0 -0 -1 1 0 0 -0 1 -0 1
Triangulations 0

TShapes 87
Ve
1e-007
39 -70 23
0 0

0101101
*
Ve
1e-007
39 -70 27
0 0

0101101
*
Ed
 1e-007 1 1 0
1  1 0 0 4
2  1 1 0 0 4
2  2 2 0 0 4
0

0101000
+87 0 -86 0 *
Ve
1e-007
47 -70 23
0 0

0101101
*
Ve
1e-007
47 -70 27
0 0

0101101
*
Ed
 1e-007 1 1 0
1  2 0 0 4
2  3 1 0 0 4
2  4 3 0 0 4
0

0101000
+84 0 -83 0 *
Ed
 1e-007 1 1 0
1  3 0 0 8
2  5 1 4 0 8
2  6 4 5 0 8
0

0101000
+87 4 -84 4 *
Ed
 1e-007 1 1 0
1  4 0 0 8
2  7 1 8 0 8
2  8 5 5 0 8
0

0101000
+86 8 -83 8 *
Wi

0101000
+85 0 -82 0 -81 3 +80 7 *
Fa
0  1e-007 1 0

0101000
+79 0 *
Ve
1e-007
47 -96 23
0 0

0101101
*
Ve
1e-007
47 -96 27
0 0

0101101
*
Ed
 1e-007 1 1 0
1  5 0 0 4
2  9 3 0 0 4
2  10 6 0 0 4
0

0101000
+77 0 -76 0 *
Ed
 1e-007 1 1 0
1  6 0 0 26
2  11 3 4 0 26
2  12 4 5 0 26
0

0101000
+84 4 -77 4 *
Ed
 1e-007 1 1 0
1  7 0 0 26
2  13 3 8 0 26
2  14 5 5 0 26
0

0101000
+83 8 -76 8 *
Wi

0101000
+82 0 -75 0 -74 3 +73 7 *
Fa
0  1e-007 3 0

0101000
+72 0 *
Ve
1e-007
39 -96 23
0 0

0101101
*
Ve
1e-007
39 -96 27
0 0

0101101
*
Ed
 1e-007 1 1 0
1  8 0 0 4
2  15 6 0 0 4
2  16 2 0 0 4
0

0101000
+70 0 -69 0 *
Ed
 1e-007 1 1 0
1  9 0 0 8
2  17 6 4 0 8
2  18 4 5 0 8
0

0101000
+77 4 -70 4 *
Ed
 1e-007 1 1 0
1  10 0 0 8
2  19 6 8 0 8
2  20 5 5 0 8
0

0101000
+76 8 -69 8 *
Wi

0101000
+75 0 -68 0 -67 3 +66 7 *
Fa
0  1e-007 6 0

0101000
+65 0 *
Ed
 1e-007 1 1 0
1  11 0 0 26
2  21 2 4 0 26
2  22 4 5 0 26
0

0101000
+70 4 -87 4 *
Ed
 1e-007 1 1 0
1  12 0 0 26
2  23 2 8 0 26
2  24 5 5 0 26
0

0101000
+69 8 -86 8 *
Wi

0101000
+68 0 -85 0 -63 3 +62 7 *
Fa
0  1e-007 2 0

0101000
+61 0 *
Ve
1e-007
44 -83 23
0 0

0101101
*
Ve
1e-007
44 -83 27
0 0

0101101
*
Ed
 1e-007 1 1 0
1  13 0 0 4
3  25 26CN 7 0 0 4
0

0101000
+59 0 -58 0 *
Ed
 1e-007 1 1 0
1  14 0 0 6.28318530717959
2  27 7 4 0 6.28318530717959
2  28 4 5 0 6.28318530717959
0

0101100
+59 4 -59 4 *
Ed
 1e-007 1 1 0
1  15 0 0 6.28318530717959
2  29 7 8 0 6.28318530717959
2  30 5 5 0 6.28318530717959
0

0101100
+58 8 -58 8 *
Wi

0101000
+57 0 -57 0 -56 3 +55 7 *
Fa
0  1e-007 7 0

0101000
+54 0 *
Wi

0101100
+81 0 +74 0 +67 0 +63 0 *
Wi

0101100
+56 0 *
Fa
0  1e-007 4 0

0101000
-52 1 -51 1 *
Wi

0101100
+80 0 +73 0 +66 0 +62 0 *
Wi

0101100
+55 0 *
Fa
0  1e-007 5 0

0101000
-49 1 -48 1 *
Sh

0101000
-78 0 -71 0 -64 0 -60 0 -53 0 +50 9 -47 10 *
So

0100000
-46 0 *
Ve
1e-007
39 96 23
0 0

0101101
*
Ve
1e-007
39 96 27
0 0

0101101
*
Ed
 1e-007 1 1 0
1  16 0 0 4
2  31 8 0 0 4
2  32 9 0 0 4
0

0101000
+44 0 -43 0 *
Ve
1e-007
47 96 23
0 0

0101101
*
Ve
1e-007
47 96 27
0 0

0101101
*
Ed
 1e-007 1 1 0
1  17 0 0 4
2  33 8 0 0 4
2  34 10 0 0 4
0

0101000
+41 0 -40 0 *
Ed
 1e-007 1 1 0
1  18 0 0 8
2  35 8 4 0 8
2  36 11 5 0 8
0

0101000
+44 4 -41 4 *
Ed
 1e-007 1 1 0
1  19 0 0 8
2  37 8 8 0 8
2  38 12 5 0 8
0

0101000
+43 8 -40 8 *
Wi

0101000
+42 0 -39 0 -38 3 +37 7 *
Fa
0  1e-007 8 0

0101000
+36 0 *
Ve
1e-007
47 70 23
0 0

0101101
*
Ve
1e-007
47 70 27
0 0

0101101
*
Ed
 1e-007 1 1 0
1  20 0 0 4
2  39 10 0 0 4
2  40 13 0 0 4
0

0101000
+34 0 -33 0 *
Ed
 1e-007 1 1 0
1  21 0 0 26
2  41 10 4 0 26
2  42 11 5 0 26
0

0101000
+41 4 -34 4 *
Ed
 1e-007 1 1 0
1  22 0 0 26
2  43 10 8 0 26
2  44 12 5 0 26
0

0101000
+40 8 -33 8 *
Wi

0101000
+39 0 -32 0 -31 3 +30 7 *
Fa
0  1e-007 10 0

0101000
+29 0 *
Ve
1e-007
39 70 23
0 0

0101101
*
Ve
1e-007
39 70 27
0 0

0101101
*
Ed
 1e-007 1 1 0
1  23 0 0 4
2  45 13 0 0 4
2  46 9 0 0 4
0

0101000
+27 0 -26 0 *
Ed
 1e-007 1 1 0
1  24 0 0 8
2  47 13 4 0 8
2  48 11 5 0 8
0

0101000
+34 4 -27 4 *
Ed
 1e-007 1 1 0
1  25 0 0 8
2  49 13 8 0 8
2  50 12 5 0 8
0

0101000
+33 8 -26 8 *
Wi

0101000
+32 0 -25 0 -24 3 +23 7 *
Fa
0  1e-007 13 0

0101000
+22 0 *
Ed
 1e-007 1 1 0
1  26 0 0 26
2  51 9 4 0 26
2  52 11 5 0 26
0

0101000
+27 4 -44 4 *
Ed
 1e-007 1 1 0
1  27 0 0 26
2  53 9 8 0 26
2  54 12 5 0 26
0

0101000
+26 8 -43 8 *
Wi

0101000
+25 0 -42 0 -20 3 +19 7 *
Fa
0  1e-007 9 0

0101000
+18 0 *
Ve
1e-007
44 83 23
0 0

0101101
*
Ve
1e-007
44 83 27
0 0

0101101
*
Ed
 1e-007 1 1 0
1  28 0 0 4
3  55 56CN 14 0 0 4
0

0101000
+16 0 -15 0 *
Ed
 1e-007 1 1 0
1  29 0 0 6.28318530717959
2  57 14 4 0 6.28318530717959
2  58 11 5 0 6.28318530717959
0

0101100
+16 4 -16 4 *
Ed
 1e-007 1 1 0
1  30 0 0 6.28318530717959
2  59 14 8 0 6.28318530717959
2  60 12 5 0 6.28318530717959
0

0101100
+15 8 -15 8 *
Wi

0101000
+14 0 -14 0 -13 3 +12 7 *
Fa
0  1e-007 14 0

0101000
+11 0 *
Wi

0101100
+38 0 +31 0 +24 0 +20 0 *
Wi

0101100
+13 0 *
Fa
0  1e-007 11 0

0101000
-9 1 -8 1 *
Wi

0101100
+37 0 +30 0 +23 0 +19 0 *
Wi

0101100
+12 0 *
Fa
0  1e-007 12 0

0101000
-6 1 -5 1 *
Sh

0101000
-35 0 -28 0 -21 0 -17 0 -10 0 +7 9 -4 10 *
So

0100000
-3 0 *
Co

1100000
+45 0 +2 0 *

+1 0 