DBRep_DrawableShape

CASCADE Topology V1, (c) Matra-Datavision
Locations 10
1
              1               0               0              -0 
              0               1               0               0 
              0               0               1               5 
1
              1               0               0               0 
              0               1               0               0 
              0               0               1               0 
2  1 1 2 -1 0
2  2 1 1 -1 0
2  1 -1 0
1
              1               0               0               0 
              0               1               0               0 
              0               0               1              18 
2  1 1 2 -1 6 1 0
2  6 -1 2 1 1 -1 0
2  2 -1 0
2  2 -1 6 1 0
Curve2ds 96
1 0 0 0 -1 
1 3.0860549999999998e-006 0 0 -1 
1 4.0000246884399928 0 0 -1 
1 0 -0 0 -1 
1 0 0 1 0 
1 0 0 0 -1 
1 0 -18 1 0 
1 0 0 0 -1 
1 7.9999999999619504 0 0 -1 
1 0 0 0 -1 
1 0 -0 1 0 
1 0 -4.0000246884399928 -1 0 
1 0 -18 1 0 
1 0 -4.0000246884399928 -1 0 
1 3.9999999999991758 0 0 -1 
1 3.1415957396450001 0 0 -1 
1 0 0 1 0 
1 -7.9999999999619504 -4.0000246884399928 0 1 
1 0 -18 1 0 
1 -7.9999999999619504 -4.0000246884399928 0 1 
1 0 0 1 0 
2 -3.9999999999810001 -1.2344219996407446e-005 1 0 -0 1 4
1 0 -18 1 0 
2 -3.9999999999810001 -1.2344219996407446e-005 1 0 -0 1 4
1 0 0 0 -1 
1 0 0 0 -1 
1 4 0 0 -1 
1 0 -0 0 -1 
1 0 0 1 0 
1 0 0 0 -1 
1 0 -18 1 0 
1 0 0 0 -1 
1 8 0 0 -1 
1 0 0 0 -1 
1 0 -0 1 0 
1 0 -4 -1 0 
1 0 -18 1 0 
1 0 -4 -1 0 
1 3.9999999999991758 0 0 -1 
1 3.1415926535900001 0 0 -1 
1 0 0 1 0 
1 -8 -4 0 1 
1 0 -18 1 0 
1 -8 -4 0 1 
1 0 0 1 0 
2 -4 0 1 0 -0 1 4
1 0 -18 1 0 
2 -4 0 1 0 -0 1 4
1 0 0 0 -1 
1 4.0000000000008242 0 0 -1 
1 8 0 0 -1 
1 0 0 0 -1 
1 0 0 1 0 
1 0 0 1 0 
1 0 -18 1 0 
1 0 0 1 0 
1 3.9999999999983515 0 0 -1 
1 6.2831853071800001 0 0 -1 
1 0 0 1 0 
1 8 0 0 -1 
1 0 -18 1 0 
1 8 0 0 -1 
1 3.1415926535900001 0 0 -1 
1 0 0 0 -1 
1 0 0 1 0 
2 4 -4 1 0 -0 1 4
1 0 -18 1 0 
2 4 -4 1 0 -0 1 4
1 0 0 1 0 
1 0 -4.0000000000008242 0 1 
1 0 -18 1 0 
1 0 -4.0000000000008242 0 1 
1 0 0 0 -1 
1 4.0000000000008242 0 0 -1 
1 8 0 0 -1 
1 0 0 0 -1 
1 0 0 1 0 
1 0 0 1 0 
1 0 -18 1 0 
1 0 0 1 0 
1 3.9999999999991758 0 0 -1 
1 6.2831853071800001 0 0 -1 
1 0 0 1 0 
1 8 0 0 -1 
1 0 -18 1 0 
1 8 0 0 -1 
1 3.1415926535900001 0 0 -1 
1 0 0 0 -1 
1 0 0 1 0 
2 4 -4 1 0 -0 1 4
1 0 -18 1 0 
2 4 -4 1 0 -0 1 4
1 0 0 1 0 
1 0 -4.0000000000008242 0 1 
1 0 -18 1 0 
1 0 -4.0000000000008242 0 1 
Curves 48
1 46.999999999980972 74.000024688439993 5 0 0 1 
1 46.999999999981 70 5 0 0 1 
1 46.999999999981 74.000024688439993 0 0 -1 0 
1 46.999999999981 74.000024688439993 0 0 -1 0 
1 39.00000000001905 70 5 0 0 1 
1 46.999999999981 70 0 -1 0 0 
1 46.999999999981 70 0 -1 0 0 
1 39.00000000001905 73.999999999999176 5 0 0 1 
1 39.00000000001905 70 0 0 1 0 
1 39.00000000001905 70 0 0 1 0 
2 43 74.000012344219996 0 0 0 1 1 0 -0 -0 1 0 4
2 43 74.000012344219996 0 0 0 1 1 0 -0 -0 1 0 4
1 47 -92 5 0 0 1 
1 47 -96 5 0 0 1 
1 47 -92 0 0 -1 0 
1 47 -92 0 0 -1 0 
1 39 -96 5 0 0 1 
1 47 -96 0 -1 0 0 
1 47 -96 0 -1 0 0 
1 39 -92.000000000000824 5 0 0 1 
1 39 -96 0 0 1 0 
1 39 -96 0 0 1 0 
2 43 -92 0 0 0 1 1 0 -0 -0 1 0 4
2 43 -92 0 0 0 1 1 0 -0 -0 1 0 4
1 39 -70 5 0 0 1 
1 47 -70 5 0 0 1 
1 39 -70 0 1 0 0 
1 39 -70 0 1 0 0 
1 47 -73.999999999998352 5 0 0 1 
1 47 -70 0 0 -1 0 
1 47 -70 0 0 -1 0 
1 39 -74.000000000000824 5 0 0 1 
2 43 -74 0 0 0 1 1 0 -0 -0 1 0 4
2 43 -74 0 0 0 1 1 0 -0 -0 1 0 4
1 39 -74.000000000000824 0 0 1 0 
1 39 -74.000000000000824 0 0 1 0 
1 39 96 5 0 0 1 
1 47 96 5 0 0 1 
1 39 96 0 1 0 0 
1 39 96 0 1 0 0 
1 47 92.000000000000824 5 0 0 1 
1 47 96 0 0 -1 0 
1 47 96 0 0 -1 0 
1 39 91.999999999999176 5 0 0 1 
2 43 92 0 0 0 1 1 0 -0 -0 1 0 4
2 43 92 0 0 0 1 1 0 -0 -0 1 0 4
1 39 91.999999999999176 0 0 1 0 
1 39 91.999999999999176 0 0 1 0 
Polygon3D 0
PolygonOnTriangulations 0
Surfaces 24
1 46.999999999981 74.000024688439993 5 1 0 -0 0 -1 0 0 -0 -1 
2 43 74.000012344219996 5 -0 -0 -1 1 0 0 -0 1 -0 4
1 46.999999999981 70 5 0 -1 0 -1 0 0 -0 -0 -1 
1 46.999999999981 74.000024688439993 5 0 0 1 1 0 -0 -0 1 0 
1 46.999999999981 74.000024688439993 5 0 0 1 1 0 -0 -0 1 0 
1 39.00000000001905 70 5 -1 0 0 0 1 0 0 0 -1 
1 47 -92 5 1 0 -0 0 -1 0 0 -0 -1 
2 43 -92 5 -0 -0 -1 1 0 0 -0 1 -0 4
1 47 -96 5 0 -1 0 -1 0 0 -0 -0 -1 
1 47 -92 5 0 0 1 1 0 -0 -0 1 0 
1 47 -92 5 0 0 1 1 0 -0 -0 1 0 
1 39 -96 5 -1 0 0 0 1 0 0 0 -1 
1 39 -70 5 0 1 0 1 0 0 0 0 -1 
1 39 -74.000000000000824 5 -1 0 0 0 1 0 0 0 -1 
1 47 -70 5 1 0 -0 0 -1 0 0 -0 -1 
1 39 -70 5 -0 0 1 1 0 0 0 1 -0 
1 39 -70 5 -0 0 1 1 0 0 0 1 -0 
2 43 -74 5 -0 -0 -1 1 0 0 -0 1 -0 4
1 39 96 5 0 1 0 1 0 0 0 0 -1 
1 39 91.999999999999176 5 -1 0 0 0 1 0 0 0 -1 
1 47 96 5 1 0 -0 0 -1 0 0 -0 -1 
1 39 96 5 -0 0 1 1 0 0 0 1 -0 
1 39 96 5 -0 0 1 1 0 0 0 1 -0 
2 43 92 5 -0 -0 -1 1 0 0 -0 1 -0 4
Triangulations 0

TShapes 137
Ve
6.10001544559442e-006
46.999999999981 74.00002468844 5
0 0

0101101
*
Ve
6.10001544559442e-006
46.999999999981 74.00002468844 23
0 0

0101101
*
Ed
 1.00000024868996e-007 1 1 0
1  1 0 0 18
2  1 1 0 0 18
2  2 2 0 0 18
4 G1 1 0 2 0
0

0101000
+137 0 -136 0 *
Ve
1e-007
46.999999999981 70 5
0 0

0101101
*
Ve
1e-007
46.999999999981 70 23
0 0

0101101
*
Ed
 1e-007 1 1 0
1  2 0 0 18
2  3 1 0 0 18
2  4 3 0 0 18
0

0101000
+134 0 -133 0 *
Ed
 1e-007 1 1 0
1  3 0 0 4.00002468843999
2  5 1 4 0 4.00002468843999
2  6 4 5 0 4.00002468843999
0

0101000
+137 4 -134 4 *
Ed
 1e-007 1 1 0
1  4 0 0 4.00002468843999
2  7 1 8 0 4.00002468843999
2  8 5 5 0 4.00002468843999
0

0101000
+136 8 -133 8 *
Wi

0101000
+135 0 -132 0 -131 3 +130 7 *
Fa
0  1e-007 1 0

0101000
+129 0 *
Ve
1e-007
39.0000000000191 70 5
0 0

0101101
*
Ve
1e-007
39.0000000000191 70 23
0 0

0101101
*
Ed
 1e-007 1 1 0
1  5 0 0 18
2  9 3 0 0 18
2  10 6 0 0 18
0

0101000
+127 0 -126 0 *
Ed
 1e-007 1 1 0
1  6 0 0 7.99999999996195
2  11 3 4 0 7.99999999996195
2  12 4 5 0 7.99999999996195
0

0101000
+134 4 -127 4 *
Ed
 1e-007 1 1 0
1  7 0 0 7.99999999996195
2  13 3 8 0 7.99999999996195
2  14 5 5 0 7.99999999996195
0

0101000
+133 8 -126 8 *
Wi

0101000
+132 0 -125 0 -124 3 +123 7 *
Fa
0  1e-007 3 0

0101000
+122 0 *
Ve
5.02768902829444e-005
39.0000000000191 73.9999999999992 5
0 0

0101101
*
Ve
5.02768902829444e-005
39.0000000000191 73.9999999999992 23
0 0

0101101
*
Ed
 1e-007 1 1 0
1  8 0 0 18
2  15 6 0 0 18
2  16 2 0 0 18
4 G1 6 0 2 0
0

0101000
+120 0 -119 0 *
Ed
 1e-007 1 1 0
1  9 0 0 3.99999999999918
2  17 6 4 0 3.99999999999918
2  18 4 5 0 3.99999999999918
0

0101000
+127 4 -120 4 *
Ed
 1e-007 1 1 0
1  10 0 0 3.99999999999918
2  19 6 8 0 3.99999999999918
2  20 5 5 0 3.99999999999918
0

0101000
+126 8 -119 8 *
Wi

0101000
+125 0 -118 0 -117 3 +116 7 *
Fa
0  1e-007 6 0

0101000
+115 0 *
Ed
 1e-007 1 1 0
1  11 0 3.086055e-006 3.141595739645
2  21 2 4 3.086055e-006 3.141595739645
2  22 4 5 3.086055e-006 3.141595739645
0

0101000
+137 4 -120 4 *
Ed
 1e-007 1 1 0
1  12 0 3.086055e-006 3.141595739645
2  23 2 8 3.086055e-006 3.141595739645
2  24 5 5 3.086055e-006 3.141595739645
0

0101000
+136 8 -119 8 *
Wi

0101000
+135 0 -118 0 -113 3 +112 7 *
Fa
0  1e-007 2 0

0101000
+111 0 *
Wi

0101100
+131 0 +124 0 +117 0 -113 0 *
Fa
0  1e-007 4 0

0101000
-109 1 *
Wi

0101100
+130 0 +123 0 +116 0 -112 0 *
Fa
0  1e-007 5 0

0101000
-107 1 *
Sh

0101000
-128 0 -121 0 -114 0 +110 0 +108 9 -106 10 *
So

0100000
-105 0 *
Ve
6.10001499081739e-006
47 -92 5
0 0

0101101
*
Ve
6.10001499081739e-006
47 -92 23
0 0

0101101
*
Ed
 1e-007 1 1 0
1  13 0 0 18
2  25 7 0 0 18
2  26 8 0 0 18
4 G1 7 0 8 0
0

0101000
+103 0 -102 0 *
Ve
1e-007
47 -96 5
0 0

0101101
*
Ve
1e-007
47 -96 23
0 0

0101101
*
Ed
 1e-007 1 1 0
1  14 0 0 18
2  27 7 0 0 18
2  28 9 0 0 18
0

0101000
+100 0 -99 0 *
Ed
 1e-007 1 1 0
1  15 0 0 4
2  29 7 4 0 4
2  30 10 5 0 4
0

0101000
+103 4 -100 4 *
Ed
 1e-007 1 1 0
1  16 0 0 4
2  31 7 8 0 4
2  32 11 5 0 4
0

0101000
+102 8 -99 8 *
Wi

0101000
+101 0 -98 0 -97 3 +96 7 *
Fa
0  1e-007 7 0

0101000
+95 0 *
Ve
1e-007
39 -96 5
0 0

0101101
*
Ve
1e-007
39 -96 23
0 0

0101101
*
Ed
 1e-007 1 1 0
1  17 0 0 18
2  33 9 0 0 18
2  34 12 0 0 18
0

0101000
+93 0 -92 0 *
Ed
 1e-007 1 1 0
1  18 0 0 8
2  35 9 4 0 8
2  36 10 5 0 8
0

0101000
+100 4 -93 4 *
Ed
 1e-007 1 1 0
1  19 0 0 8
2  37 9 8 0 8
2  38 11 5 0 8
0

0101000
+99 8 -92 8 *
Wi

0101000
+98 0 -91 0 -90 3 +89 7 *
Fa
0  1e-007 9 0

0101000
+88 0 *
Ve
2.90000699534324e-006
39 -92.0000000000008 5
0 0

0101101
*
Ve
2.90000699534324e-006
39 -92.0000000000008 23
0 0

0101101
*
Ed
 1e-007 1 1 0
1  20 0 0 18
2  39 12 0 0 18
2  40 8 0 0 18
4 G1 12 0 8 0
0

0101000
+86 0 -85 0 *
Ed
 1e-007 1 1 0
1  21 0 0 3.99999999999918
2  41 12 4 0 3.99999999999918
2  42 10 5 0 3.99999999999918
0

0101000
+93 4 -86 4 *
Ed
 1e-007 1 1 0
1  22 0 0 3.99999999999918
2  43 12 8 0 3.99999999999918
2  44 11 5 0 3.99999999999918
0

0101000
+92 8 -85 8 *
Wi

0101000
+91 0 -84 0 -83 3 +82 7 *
Fa
0  1e-007 12 0

0101000
+81 0 *
Ed
 1e-007 1 1 0
1  23 0 0 3.14159265359
2  45 8 4 0 3.14159265359
2  46 10 5 0 3.14159265359
0

0101000
+103 4 -86 4 *
Ed
 1e-007 1 1 0
1  24 0 0 3.14159265359
2  47 8 8 0 3.14159265359
2  48 11 5 0 3.14159265359
0

0101000
+102 8 -85 8 *
Wi

0101000
+101 0 -84 0 -79 3 +78 7 *
Fa
0  1e-007 8 0

0101000
+77 0 *
Wi

0101100
+97 0 +90 0 +83 0 -79 0 *
Fa
0  1e-007 10 0

0101000
-75 1 *
Wi

0101100
+96 0 +89 0 +82 0 -78 0 *
Fa
0  1e-007 11 0

0101000
-73 1 *
Sh

0101000
-94 0 -87 0 -80 0 +76 0 +74 9 -72 10 *
So

0100000
-71 0 *
Ve
1e-007
39 -70 5
0 0

0101101
*
Ve
1e-007
39 -70 23
0 0

0101101
*
Ed
 1e-007 1 1 0
1  25 0 0 18
2  49 13 0 0 18
2  50 14 0 0 18
0

0101000
+69 0 -68 0 *
Ve
1e-007
47 -70 5
0 0

0101101
*
Ve
1e-007
47 -70 23
0 0

0101101
*
Ed
 1e-007 1 1 0
1  26 0 0 18
2  51 13 0 0 18
2  52 15 0 0 18
0

0101000
+66 0 -65 0 *
Ed
 1e-007 1 1 0
1  27 0 0 8
2  53 13 4 0 8
2  54 16 5 0 8
0

0101000
+69 4 -66 4 *
Ed
 1e-007 1 1 0
1  28 0 0 8
2  55 13 8 0 8
2  56 17 5 0 8
0

0101000
+68 8 -65 8 *
Wi

0101000
+67 0 -64 0 -63 3 +62 7 *
Fa
0  1e-007 13 0

0101000
+61 0 *
Ve
6.10001499081739e-006
47 -73.9999999999984 5
0 0

0101101
*
Ve
6.10001499081739e-006
47 -73.9999999999984 23
0 0

0101101
*
Ed
 1e-007 1 1 0
1  29 0 0 18
2  57 15 0 0 18
2  58 18 0 0 18
4 G1 15 0 18 0
0

0101000
+59 0 -58 0 *
Ed
 1e-007 1 1 0
1  30 0 0 3.99999999999835
2  59 15 4 0 3.99999999999835
2  60 16 5 0 3.99999999999835
0

0101000
+66 4 -59 4 *
Ed
 1e-007 1 1 0
1  31 0 0 3.99999999999835
2  61 15 8 0 3.99999999999835
2  62 17 5 0 3.99999999999835
0

0101000
+65 8 -58 8 *
Wi

0101000
+64 0 -57 0 -56 3 +55 7 *
Fa
0  1e-007 15 0

0101000
+54 0 *
Ve
2.90000699534324e-006
39 -74.0000000000008 5
0 0

0101101
*
Ve
2.90000699534324e-006
39 -74.0000000000008 23
0 0

0101101
*
Ed
 1e-007 1 1 0
1  32 0 0 18
2  63 18 0 0 18
2  64 14 0 0 18
4 G1 18 0 14 0
0

0101000
+52 0 -51 0 *
Ed
 1e-007 1 1 0
1  33 0 3.14159265359 6.28318530718
2  65 18 4 3.14159265359 6.28318530718
2  66 16 5 3.14159265359 6.28318530718
0

0101000
+52 4 -59 4 *
Ed
 1e-007 1 1 0
1  34 0 3.14159265359 6.28318530718
2  67 18 8 3.14159265359 6.28318530718
2  68 17 5 3.14159265359 6.28318530718
0

0101000
+51 8 -58 8 *
Wi

0101000
+50 0 -57 0 -49 3 +48 7 *
Fa
0  1e-007 18 0

0101000
+47 0 *
Ed
 1e-007 1 1 0
1  35 0 0 4.00000000000082
2  69 14 4 0 4.00000000000082
2  70 16 5 0 4.00000000000082
0

0101000
+52 4 -69 4 *
Ed
 1e-007 1 1 0
1  36 0 0 4.00000000000082
2  71 14 8 0 4.00000000000082
2  72 17 5 0 4.00000000000082
0

0101000
+51 8 -68 8 *
Wi

0101000
+50 0 -67 0 -45 3 +44 7 *
Fa
0  1e-007 14 0

0101000
+43 0 *
Wi

0101100
+63 0 +56 0 -49 0 +45 0 *
Fa
0  1e-007 16 0

0101000
-41 1 *
Wi

0101100
+62 0 +55 0 -48 0 +44 0 *
Fa
0  1e-007 17 0

0101000
-39 1 *
Sh

0101000
-60 0 -53 0 +46 0 -42 0 +40 9 -38 10 *
So

0100000
-37 0 *
Ve
1e-007
39 96 5
0 0

0101101
*
Ve
1e-007
39 96 23
0 0

0101101
*
Ed
 1e-007 1 1 0
1  37 0 0 18
2  73 19 0 0 18
2  74 20 0 0 18
0

0101000
+35 0 -34 0 *
Ve
1e-007
47 96 5
0 0

0101101
*
Ve
1e-007
47 96 23
0 0

0101101
*
Ed
 1e-007 1 1 0
1  38 0 0 18
2  75 19 0 0 18
2  76 21 0 0 18
0

0101000
+32 0 -31 0 *
Ed
 1e-007 1 1 0
1  39 0 0 8
2  77 19 4 0 8
2  78 22 5 0 8
0

0101000
+35 4 -32 4 *
Ed
 1e-007 1 1 0
1  40 0 0 8
2  79 19 8 0 8
2  80 23 5 0 8
0

0101000
+34 8 -31 8 *
Wi

0101000
+33 0 -30 0 -29 3 +28 7 *
Fa
0  1e-007 19 0

0101000
+27 0 *
Ve
6.10001581504874e-006
47 92.0000000000008 5
0 0

0101101
*
Ve
6.10001581504874e-006
47 92.0000000000008 23
0 0

0101101
*
Ed
 1.00000824229573e-007 1 1 0
1  41 0 0 18
2  81 21 0 0 18
2  82 24 0 0 18
4 G1 21 0 24 0
0

0101000
+25 0 -24 0 *
Ed
 1e-007 1 1 0
1  42 0 0 4
2  83 21 4 0 4
2  84 22 5 0 4
0

0101000
+32 4 -25 4 *
Ed
 1e-007 1 1 0
1  43 0 0 4
2  85 21 8 0 4
2  86 23 5 0 4
0

0101000
+31 8 -24 8 *
Wi

0101000
+30 0 -23 0 -22 3 +21 7 *
Fa
0  1e-007 21 0

0101000
+20 0 *
Ve
2.90000699534343e-006
39 91.9999999999992 5
0 0

0101101
*
Ve
2.90000699534343e-006
39 91.9999999999992 23
0 0

0101101
*
Ed
 1e-007 1 1 0
1  44 0 0 18
2  87 24 0 0 18
2  88 20 0 0 18
4 G1 24 0 20 0
0

0101000
+18 0 -17 0 *
Ed
 1e-007 1 1 0
1  45 0 3.14159265359 6.28318530718
2  89 24 4 3.14159265359 6.28318530718
2  90 22 5 3.14159265359 6.28318530718
0

0101000
+18 4 -25 4 *
Ed
 1e-007 1 1 0
1  46 0 3.14159265359 6.28318530718
2  91 24 8 3.14159265359 6.28318530718
2  92 23 5 3.14159265359 6.28318530718
0

0101000
+17 8 -24 8 *
Wi

0101000
+16 0 -23 0 -15 3 +14 7 *
Fa
0  1e-007 24 0

0101000
+13 0 *
Ed
 1e-007 1 1 0
1  47 0 0 4.00000000000082
2  93 20 4 0 4.00000000000082
2  94 22 5 0 4.00000000000082
0

0101000
+18 4 -35 4 *
Ed
 1e-007 1 1 0
1  48 0 0 4.00000000000082
2  95 20 8 0 4.00000000000082
2  96 23 5 0 4.00000000000082
0

0101000
+17 8 -34 8 *
Wi

0101000
+16 0 -33 0 -11 3 +10 7 *
Fa
0  1e-007 20 0

0101000
+9 0 *
Wi

0101100
+29 0 +22 0 -15 0 +11 0 *
Fa
0  1e-007 22 0

0101000
-7 1 *
Wi

0101100
+28 0 +21 0 -14 0 +10 0 *
Fa
0  1e-007 23 0

0101000
-5 1 *
Sh

0101000
-26 0 -19 0 +12 0 -8 0 +6 9 -4 10 *
So

0100000
-3 0 *
Co

1100000
+104 0 +70 0 +36 0 +2 0 *

+1 0 