DBRep_DrawableShape

CASCADE Topology V1, (c) Matra-Datavision
Locations 14
1
              1               0               0               0 
              0               1               0               0 
              0               0               1               0 
2  1 -1 0
1
              1               0               0               0 
              0               1               0               0 
              0               0               1               0 
1
              1               0               0               0 
              0               1               0               0 
              0               0               1               0 
2  3 1 4 -1 0
2  4 1 3 -1 0
2  3 -1 0
2  1 -1 4 1 3 -1 0
1
              1               0               0               0 
              0               1               0               0 
              0               0               1               5 
2  3 1 4 -1 9 1 0
2  9 -1 4 1 3 -1 0
2  1 -1 9 -1 4 1 3 -1 0
2  4 -1 0
2  4 -1 9 1 0
Curve2ds 264
1 0 0 0 -1 
1 26 0 0 -1 
1 94 0 0 -1 
1 0 0 0 -1 
1 0 0 1 0 
1 0 0 1 0 
1 0 -5 1 0 
1 0 0 1 0 
1 26 0 0 -1 
1 0 -0 0 -1 
1 0 0 1 0 
1 94 0 0 -1 
1 0 -5 1 0 
1 94 0 0 -1 
1 10 0 0 -1 
1 0 0 0 -1 
1 0 -0 1 0 
1 94 -26 -1 0 
1 0 -5 1 0 
1 94 -26 -1 0 
1 60 0 0 -1 
1 0 0 0 -1 
1 0 0 1 0 
1 84 -26 0 -1 
1 0 -5 1 0 
1 84 -26 0 -1 
1 10 0 0 -1 
1 0 0 0 -1 
1 0 0 1 0 
1 84 -86 1 0 
1 0 -5 1 0 
1 84 -86 1 0 
1 20 0 0 -1 
1 0 -0 0 -1 
1 0 0 1 0 
1 94 -86 0 -1 
1 0 -5 1 0 
1 94 -86 0 -1 
1 10 0 0 -1 
1 0 0 0 -1 
1 0 -0 1 0 
1 94 -106 -1 0 
1 0 -5 1 0 
1 94 -106 -1 0 
1 60 0 0 -1 
1 0 0 0 -1 
1 0 0 1 0 
1 84 -106 0 -1 
1 0 -5 1 0 
1 84 -106 0 -1 
1 10 0 0 -1 
1 0 0 0 -1 
1 0 0 1 0 
1 84 -166 1 0 
1 0 -5 1 0 
1 84 -166 1 0 
1 26 0 0 -1 
1 0 -0 0 -1 
1 0 0 1 0 
1 94 -166 0 -1 
1 0 -5 1 0 
1 94 -166 0 -1 
1 94 0 0 -1 
1 0 0 0 -1 
1 0 -0 1 0 
1 94 -192 -1 0 
1 0 -5 1 0 
1 94 -192 -1 0 
1 26 0 0 -1 
1 0 0 0 -1 
1 0 0 1 0 
1 0 -192 0 1 
1 0 -5 1 0 
1 0 -192 0 1 
1 10 0 0 -1 
1 0 0 0 -1 
1 0 0 1 0 
1 0 -166 1 0 
1 0 -5 1 0 
1 0 -166 1 0 
1 60 0 0 -1 
1 0 -0 0 -1 
1 0 0 1 0 
1 10 -166 0 1 
1 0 -5 1 0 
1 10 -166 0 1 
1 10 0 0 -1 
1 0 0 0 -1 
1 0 -0 1 0 
1 10 -106 -1 0 
1 0 -5 1 0 
1 10 -106 -1 0 
1 20 0 0 -1 
1 0 0 0 -1 
1 0 0 1 0 
1 0 -106 0 1 
1 0 -5 1 0 
1 0 -106 0 1 
1 10 0 0 -1 
1 0 0 0 -1 
1 0 0 1 0 
1 0 -86 1 0 
1 0 -5 1 0 
1 0 -86 1 0 
1 60 0 0 -1 
1 0 -0 0 -1 
1 0 0 1 0 
1 10 -86 0 1 
1 0 -5 1 0 
1 10 -86 0 1 
1 10 0 0 -1 
1 0 0 0 -1 
1 0 -0 1 0 
1 10 -26 -1 0 
1 0 -5 1 0 
1 10 -26 -1 0 
1 0 0 1 0 
1 0 -26 0 1 
1 0 -5 1 0 
1 0 -26 0 1 
1 0 0 0 -1 
1 40.5 0 0 -1 
1 40.5 0 0 -1 
1 0 0 0 -1 
1 0 0 1 0 
1 26.75 -35.5 1 0 
1 0 -5 1 0 
1 26.75 -35.5 1 0 
1 40.5 0 0 -1 
1 0 -0 0 -1 
1 0 0 1 0 
1 67.25 -35.5 0 -1 
1 0 -5 1 0 
1 67.25 -35.5 0 -1 
1 40.5 0 0 -1 
1 0 0 0 -1 
1 0 -0 1 0 
1 67.25 -76 -1 0 
1 0 -5 1 0 
1 67.25 -76 -1 0 
1 0 0 1 0 
1 26.75 -76 0 1 
1 0 -5 1 0 
1 26.75 -76 0 1 
1 0 0 0 -1 
1 3.1415926535900001 0 0 -1 
1 7.25 0 0 -1 
1 0 0 0 -1 
1 0 0 1 0 
1 44 -141.50000000000063 -1 8.5265128291212022e-014 
1 0 -5 1 0 
1 44 -141.50000000000063 -1 8.5265128291212022e-014 
1 40.499999999999382 0 0 -1 
1 0 0 0 -1 
1 0 0 1 0 
1 36.75 -141.5 0 1 
1 0 -5 1 0 
1 36.75 -141.5 0 1 
1 7.25 0 0 -1 
1 3.1415926535900001 0 0 -1 
1 0 0 1 0 
1 36.75 -101.00000000000063 1 0 
1 0 -5 1 0 
1 36.75 -101.00000000000063 1 0 
1 0 0 0 -1 
1 0 0 0 -1 
1 0 0 1 0 
2 47 -101 1 0 -0 1 3
1 0 -5 1 0 
2 47 -101 1 0 -0 1 3
1 7.25 0 0 -1 
1 0 0 0 -1 
1 0 0 1 0 
1 50 -101 1 0 
1 0 -5 1 0 
1 50 -101 1 0 
1 40.499999999998757 0 0 -1 
1 0 -0 0 -1 
1 0 0 1 0 
1 57.25 -101 0 -1 
1 0 -5 1 0 
1 57.25 -101 0 -1 
1 7.25 0 0 -1 
1 6.2831853071800001 0 0 -1 
1 0 -0 1 0 
1 57.25 -141.49999999999875 -1 0 
1 0 -5 1 0 
1 57.25 -141.49999999999875 -1 0 
1 0 0 1 0 
2 47 -141.5 1 0 -0 1 3
1 0 -5 1 0 
2 47 -141.5 1 0 -0 1 3
1 0 0 0 -1 
1 6.2831853071795862 0 0 -1 
1 0 0 1 0 
2 52.100000000000001 -79.75 1 0 -0 1 0.5
1 0 -5 1 0 
2 52.100000000000001 -79.75 1 0 -0 1 0.5
1 0 0 0 -1 
1 6.2831853071795862 0 0 -1 
1 0 0 1 0 
2 41.899999999999999 -79.75 1 0 -0 1 0.5
1 0 -5 1 0 
2 41.899999999999999 -79.75 1 0 -0 1 0.5
1 0 0 0 -1 
1 6.2831853071795862 0 0 -1 
1 0 0 1 0 
2 62.100000000000001 -80 1 0 -0 1 0.5
1 0 -5 1 0 
2 62.100000000000001 -80 1 0 -0 1 0.5
1 0 0 0 -1 
1 6.2831853071795862 0 0 -1 
1 0 0 1 0 
2 31.899999999999999 -79.75 1 0 -0 1 0.5
1 0 -5 1 0 
2 31.899999999999999 -79.75 1 0 -0 1 0.5
1 0 0 0 -1 
1 6.2831853071795862 0 0 -1 
1 0 0 1 0 
2 52.100000000000001 -31.75 1 0 -0 1 0.5
1 0 -5 1 0 
2 52.100000000000001 -31.75 1 0 -0 1 0.5
1 0 0 0 -1 
1 6.2831853071795862 0 0 -1 
1 0 0 1 0 
2 41.899999999999999 -31.75 1 0 -0 1 0.5
1 0 -5 1 0 
2 41.899999999999999 -31.75 1 0 -0 1 0.5
1 0 0 0 -1 
1 6.2831853071795862 0 0 -1 
1 0 0 1 0 
2 62.100000000000001 -31.75 1 0 -0 1 0.5
1 0 -5 1 0 
2 62.100000000000001 -31.75 1 0 -0 1 0.5
1 0 0 0 -1 
1 6.2831853071795862 0 0 -1 
1 0 0 1 0 
2 31.899999999999999 -31.75 1 0 -0 1 0.5
1 0 -5 1 0 
2 31.899999999999999 -31.75 1 0 -0 1 0.5
1 0 0 0 -1 
1 6.2831853071795862 0 0 -1 
1 0 0 1 0 
2 4 -179 1 0 -0 1 0.5
1 0 -5 1 0 
2 4 -179 1 0 -0 1 0.5
1 0 0 0 -1 
1 6.2831853071795862 0 0 -1 
1 0 0 1 0 
2 90 -179 1 0 -0 1 0.5
1 0 -5 1 0 
2 90 -179 1 0 -0 1 0.5
1 0 0 0 -1 
1 6.2831853071795862 0 0 -1 
1 0 0 1 0 
2 90 -13 1 0 -0 1 0.5
1 0 -5 1 0 
2 90 -13 1 0 -0 1 0.5
1 0 0 0 -1 
1 6.2831853071795862 0 0 -1 
1 0 0 1 0 
2 4 -13 1 0 -0 1 0.5
1 0 -5 1 0 
2 4 -13 1 0 -0 1 0.5
Curves 132
1 -47 96 0 0 0 1 
1 47 96 0 0 0 1 
1 -47 96 0 1 0 0 
1 -47 96 0 1 0 0 
1 47 70 0 0 0 1 
1 47 96 0 0 -1 0 
1 47 96 0 0 -1 0 
1 37 70 0 0 0 1 
1 47 70 0 -1 0 0 
1 47 70 0 -1 0 0 
1 37 10 0 0 0 1 
1 37 70 0 0 -1 0 
1 37 70 0 0 -1 0 
1 47 10 0 0 0 1 
1 37 10 0 1 0 0 
1 37 10 0 1 0 0 
1 47 -10 0 0 0 1 
1 47 10 0 0 -1 0 
1 47 10 0 0 -1 0 
1 37 -10 0 0 0 1 
1 47 -10 0 -1 0 0 
1 47 -10 0 -1 0 0 
1 37 -70 0 0 0 1 
1 37 -10 0 0 -1 0 
1 37 -10 0 0 -1 0 
1 47 -70 0 0 0 1 
1 37 -70 0 1 0 0 
1 37 -70 0 1 0 0 
1 47 -96 0 0 0 1 
1 47 -70 0 0 -1 0 
1 47 -70 0 0 -1 0 
1 -47 -96 0 0 0 1 
1 47 -96 0 -1 0 0 
1 47 -96 0 -1 0 0 
1 -47 -70 0 0 0 1 
1 -47 -96 0 0 1 0 
1 -47 -96 0 0 1 0 
1 -37 -70 0 0 0 1 
1 -47 -70 0 1 0 0 
1 -47 -70 0 1 0 0 
1 -37 -10 0 0 0 1 
1 -37 -70 0 0 1 0 
1 -37 -70 0 0 1 0 
1 -47 -10 0 0 0 1 
1 -37 -10 0 -1 0 0 
1 -37 -10 0 -1 0 0 
1 -47 10 0 0 0 1 
1 -47 -10 0 0 1 0 
1 -47 -10 0 0 1 0 
1 -37 10 0 0 0 1 
1 -47 10 0 1 0 0 
1 -47 10 0 1 0 0 
1 -37 70 0 0 0 1 
1 -37 10 0 0 1 0 
1 -37 10 0 0 1 0 
1 -47 70 0 0 0 1 
1 -37 70 0 -1 0 0 
1 -37 70 0 -1 0 0 
1 -47 70 0 0 1 0 
1 -47 70 0 0 1 0 
1 -20.25 60.5 0 0 0 1 
1 20.25 60.5 0 0 0 1 
1 -20.25 60.5 0 1 0 0 
1 -20.25 60.5 0 1 0 0 
1 20.25 20 0 0 0 1 
1 20.25 60.5 0 0 -1 0 
1 20.25 60.5 0 0 -1 0 
1 -20.25 20 0 0 0 1 
1 20.25 20 0 -1 0 0 
1 20.25 20 0 -1 0 0 
1 -20.25 20 0 0 1 0 
1 -20.25 20 0 0 1 0 
1 -3 -45.500000000000618 0 0 0 1 
1 -10.25 -45.5 0 0 0 1 
1 -3 -45.500000000000618 0 -1 8.5265128291212022e-014 0 
1 -3 -45.500000000000618 0 -1 8.5265128291212022e-014 0 
1 -10.25 -5.0000000000006199 0 0 0 1 
1 -10.25 -45.5 0 0 1 0 
1 -10.25 -45.5 0 0 1 0 
1 -3 -5.0000000000006208 0 0 0 1 
1 -10.25 -5.0000000000006208 0 1 0 0 
1 -10.25 -5.0000000000006208 0 1 0 0 
1 3 -5 0 0 0 1 
2 0 -5 0 0 0 1 1 0 -0 -0 1 0 3
2 0 -5 0 0 0 1 1 0 -0 -0 1 0 3
1 10.25 -5 0 0 0 1 
1 3 -5 0 1 0 0 
1 3 -5 0 1 0 0 
1 10.25 -45.499999999998757 0 0 0 1 
1 10.25 -5 0 0 -1 0 
1 10.25 -5 0 0 -1 0 
1 3 -45.499999999998757 0 0 0 1 
1 10.25 -45.499999999998757 0 -1 0 0 
1 10.25 -45.499999999998757 0 -1 0 0 
2 0 -45.5 0 0 0 1 1 0 -0 -0 1 0 3
2 0 -45.5 0 0 0 1 1 0 -0 -0 1 0 3
1 5.5999999999999996 16.25 0 0 0 1 
2 5.0999999999999996 16.25 0 0 0 1 1 0 -0 -0 1 0 0.5
2 5.0999999999999996 16.25 0 0 0 1 1 0 -0 -0 1 0 0.5
1 -4.5999999999999996 16.25 0 0 0 1 
2 -5.0999999999999996 16.25 0 0 0 1 1 0 -0 -0 1 0 0.5
2 -5.0999999999999996 16.25 0 0 0 1 1 0 -0 -0 1 0 0.5
1 15.6 16 0 0 0 1 
2 15.1 16 0 0 0 1 1 0 -0 -0 1 0 0.5
2 15.1 16 0 0 0 1 1 0 -0 -0 1 0 0.5
1 -14.6 16.25 0 0 0 1 
2 -15.1 16.25 0 0 0 1 1 0 -0 -0 1 0 0.5
2 -15.1 16.25 0 0 0 1 1 0 -0 -0 1 0 0.5
1 5.5999999999999996 64.25 0 0 0 1 
2 5.0999999999999996 64.25 0 0 0 1 1 0 -0 -0 1 0 0.5
2 5.0999999999999996 64.25 0 0 0 1 1 0 -0 -0 1 0 0.5
1 -4.5999999999999996 64.25 0 0 0 1 
2 -5.0999999999999996 64.25 0 0 0 1 1 0 -0 -0 1 0 0.5
2 -5.0999999999999996 64.25 0 0 0 1 1 0 -0 -0 1 0 0.5
1 15.6 64.25 0 0 0 1 
2 15.1 64.25 0 0 0 1 1 0 -0 -0 1 0 0.5
2 15.1 64.25 0 0 0 1 1 0 -0 -0 1 0 0.5
1 -14.6 64.25 0 0 0 1 
2 -15.1 64.25 0 0 0 1 1 0 -0 -0 1 0 0.5
2 -15.1 64.25 0 0 0 1 1 0 -0 -0 1 0 0.5
1 -42.5 -83 0 0 0 1 
2 -43 -83 0 0 0 1 1 0 -0 -0 1 0 0.5
2 -43 -83 0 0 0 1 1 0 -0 -0 1 0 0.5
1 43.5 -83 0 0 0 1 
2 43 -83 0 0 0 1 1 0 -0 -0 1 0 0.5
2 43 -83 0 0 0 1 1 0 -0 -0 1 0 0.5
1 43.5 83 0 0 0 1 
2 43 83 0 0 0 1 1 0 -0 -0 1 0 0.5
2 43 83 0 0 0 1 1 0 -0 -0 1 0 0.5
1 -42.5 83 0 0 0 1 
2 -43 83 0 0 0 1 1 0 -0 -0 1 0 0.5
2 -43 83 0 0 0 1 1 0 -0 -0 1 0 0.5
Polygon3D 0
PolygonOnTriangulations 0
Surfaces 46
1 -47 96 0 0 1 0 1 0 0 0 0 -1 
1 -47 70 0 -1 0 0 0 1 0 0 0 -1 
1 47 96 0 1 0 -0 0 -1 0 0 -0 -1 
1 -47 96 0 -0 0 1 1 0 0 0 1 -0 
1 -47 96 0 -0 0 1 1 0 0 0 1 -0 
1 47 70 0 0 -1 0 -1 0 0 -0 -0 -1 
1 37 70 0 1 0 -0 0 -1 0 0 -0 -1 
1 37 10 0 0 1 0 1 0 0 0 0 -1 
1 47 10 0 1 0 -0 0 -1 0 0 -0 -1 
1 47 -10 0 0 -1 0 -1 0 0 -0 -0 -1 
1 37 -10 0 1 0 -0 0 -1 0 0 -0 -1 
1 37 -70 0 0 1 0 1 0 0 0 0 -1 
1 47 -70 0 1 0 -0 0 -1 0 0 -0 -1 
1 47 -96 0 0 -1 0 -1 0 0 -0 -0 -1 
1 -47 -96 0 -1 0 0 0 1 0 0 0 -1 
1 -47 -70 0 0 1 0 1 0 0 0 0 -1 
1 -37 -70 0 -1 0 0 0 1 0 0 0 -1 
1 -37 -10 0 0 -1 0 -1 0 0 -0 -0 -1 
1 -47 -10 0 -1 0 0 0 1 0 0 0 -1 
1 -47 10 0 0 1 0 1 0 0 0 0 -1 
1 -37 10 0 -1 0 0 0 1 0 0 0 -1 
1 -37 70 0 0 -1 0 -1 0 0 -0 -0 -1 
1 -20.25 60.5 0 0 1 0 1 0 0 0 0 -1 
1 -20.25 20 0 -1 0 0 0 1 0 0 0 -1 
1 20.25 60.5 0 1 0 -0 0 -1 0 0 -0 -1 
1 20.25 20 0 0 -1 0 -1 0 0 -0 -0 -1 
1 -3 -45.500000000000618 0 -8.5265128291212022e-014 -1 0 -1 8.5265128291212022e-014 0 -0 0 -1 
2 0 -45.5 0 -0 -0 -1 1 0 0 -0 1 -0 3
1 -10.25 -45.5 0 -1 0 0 0 1 0 0 0 -1 
1 -10.25 -5.0000000000006208 0 0 1 0 1 0 0 0 0 -1 
2 0 -5 0 -0 -0 -1 1 0 0 -0 1 -0 3
1 3 -5 0 0 1 0 1 0 0 0 0 -1 
1 10.25 -5 0 1 0 -0 0 -1 0 0 -0 -1 
1 10.25 -45.499999999998757 0 0 -1 0 -1 0 0 -0 -0 -1 
2 5.0999999999999996 16.25 0 -0 -0 -1 1 0 0 -0 1 -0 0.5
2 -5.0999999999999996 16.25 0 -0 -0 -1 1 0 0 -0 1 -0 0.5
2 15.1 16 0 -0 -0 -1 1 0 0 -0 1 -0 0.5
2 -15.1 16.25 0 -0 -0 -1 1 0 0 -0 1 -0 0.5
2 5.0999999999999996 64.25 0 -0 -0 -1 1 0 0 -0 1 -0 0.5
2 -5.0999999999999996 64.25 0 -0 -0 -1 1 0 0 -0 1 -0 0.5
2 15.1 64.25 0 -0 -0 -1 1 0 0 -0 1 -0 0.5
2 -15.1 64.25 0 -0 -0 -1 1 0 0 -0 1 -0 0.5
2 -43 -83 0 -0 -0 -1 1 0 0 -0 1 -0 0.5
2 43 -83 0 -0 -0 -1 1 0 0 -0 1 -0 0.5
2 43 83 0 -0 -0 -1 1 0 0 -0 1 -0 0.5
2 -43 83 0 -0 -0 -1 1 0 0 -0 1 -0 0.5
Triangulations 0

TShapes 342
Ve
1e-007
-47 96 0
0 0

0101101
*
Ve
1e-007
-47 96 5
0 0

0101101
*
Ed
 1e-007 1 1 0
1  1 0 0 5
2  1 1 0 0 5
2  2 2 0 0 5
0

0101000
+342 2 -341 2 *
Ve
1e-007
47 96 0
0 0

0101101
*
Ve
1e-007
47 96 5
0 0

0101101
*
Ed
 1e-007 1 1 0
1  2 0 0 5
2  3 1 0 0 5
2  4 3 0 0 5
0

0101000
+339 2 -338 2 *
Ed
 1e-007 1 1 0
1  3 0 0 94
2  5 1 6 0 94
2  6 4 7 0 94
0

0101000
+342 8 -339 8 *
Ed
 1e-007 1 1 0
1  4 0 0 94
2  7 1 11 0 94
2  8 5 7 0 94
0

0101000
+341 12 -338 12 *
Wi

0101000
+340 0 -337 0 -336 5 +335 10 *
Fa
0  1e-007 1 0

0101000
+334 0 *
Ve
1e-007
47 70 0
0 0

0101101
*
Ve
1e-007
47 70 5
0 0

0101101
*
Ed
 1e-007 1 1 0
1  5 0 0 5
2  9 3 0 0 5
2  10 6 0 0 5
0

0101000
+332 2 -331 2 *
Ed
 1e-007 1 1 0
1  6 0 0 26
2  11 3 6 0 26
2  12 4 7 0 26
0

0101000
+339 8 -332 8 *
Ed
 1e-007 1 1 0
1  7 0 0 26
2  13 3 11 0 26
2  14 5 7 0 26
0

0101000
+338 12 -331 12 *
Wi

0101000
+337 0 -330 0 -329 5 +328 10 *
Fa
0  1e-007 3 0

0101000
+327 0 *
Ve
1e-007
37 70 0
0 0

0101101
*
Ve
1e-007
37 70 5
0 0

0101101
*
Ed
 1e-007 1 1 0
1  8 0 0 5
2  15 6 0 0 5
2  16 7 0 0 5
0

0101000
+325 2 -324 2 *
Ed
 1e-007 1 1 0
1  9 0 0 10
2  17 6 6 0 10
2  18 4 7 0 10
0

0101000
+332 8 -325 8 *
Ed
 1e-007 1 1 0
1  10 0 0 10
2  19 6 11 0 10
2  20 5 7 0 10
0

0101000
+331 12 -324 12 *
Wi

0101000
+330 0 -323 0 -322 5 +321 10 *
Fa
0  1e-007 6 0

0101000
+320 0 *
Ve
1e-007
37 10 0
0 0

0101101
*
Ve
1e-007
37 10 5
0 0

0101101
*
Ed
 1e-007 1 1 0
1  11 0 0 5
2  21 7 0 0 5
2  22 8 0 0 5
0

0101000
+318 2 -317 2 *
Ed
 1e-007 1 1 0
1  12 0 0 60
2  23 7 6 0 60
2  24 4 7 0 60
0

0101000
+325 8 -318 8 *
Ed
 1e-007 1 1 0
1  13 0 0 60
2  25 7 11 0 60
2  26 5 7 0 60
0

0101000
+324 12 -317 12 *
Wi

0101000
+323 0 -316 0 -315 5 +314 10 *
Fa
0  1e-007 7 0

0101000
+313 0 *
Ve
1e-007
47 10 0
0 0

0101101
*
Ve
1e-007
47 10 5
0 0

0101101
*
Ed
 1e-007 1 1 0
1  14 0 0 5
2  27 8 0 0 5
2  28 9 0 0 5
0

0101000
+311 2 -310 2 *
Ed
 1e-007 1 1 0
1  15 0 0 10
2  29 8 6 0 10
2  30 4 7 0 10
0

0101000
+318 8 -311 8 *
Ed
 1e-007 1 1 0
1  16 0 0 10
2  31 8 11 0 10
2  32 5 7 0 10
0

0101000
+317 12 -310 12 *
Wi

0101000
+316 0 -309 0 -308 5 +307 10 *
Fa
0  1e-007 8 0

0101000
+306 0 *
Ve
1e-007
47 -10 0
0 0

0101101
*
Ve
1e-007
47 -10 5
0 0

0101101
*
Ed
 1e-007 1 1 0
1  17 0 0 5
2  33 9 0 0 5
2  34 10 0 0 5
0

0101000
+304 2 -303 2 *
Ed
 1e-007 1 1 0
1  18 0 0 20
2  35 9 6 0 20
2  36 4 7 0 20
0

0101000
+311 8 -304 8 *
Ed
 1e-007 1 1 0
1  19 0 0 20
2  37 9 11 0 20
2  38 5 7 0 20
0

0101000
+310 12 -303 12 *
Wi

0101000
+309 0 -302 0 -301 5 +300 10 *
Fa
0  1e-007 9 0

0101000
+299 0 *
Ve
1e-007
37 -10 0
0 0

0101101
*
Ve
1e-007
37 -10 5
0 0

0101101
*
Ed
 1e-007 1 1 0
1  20 0 0 5
2  39 10 0 0 5
2  40 11 0 0 5
0

0101000
+297 2 -296 2 *
Ed
 1e-007 1 1 0
1  21 0 0 10
2  41 10 6 0 10
2  42 4 7 0 10
0

0101000
+304 8 -297 8 *
Ed
 1e-007 1 1 0
1  22 0 0 10
2  43 10 11 0 10
2  44 5 7 0 10
0

0101000
+303 12 -296 12 *
Wi

0101000
+302 0 -295 0 -294 5 +293 10 *
Fa
0  1e-007 10 0

0101000
+292 0 *
Ve
1e-007
37 -70 0
0 0

0101101
*
Ve
1e-007
37 -70 5
0 0

0101101
*
Ed
 1e-007 1 1 0
1  23 0 0 5
2  45 11 0 0 5
2  46 12 0 0 5
0

0101000
+290 2 -289 2 *
Ed
 1e-007 1 1 0
1  24 0 0 60
2  47 11 6 0 60
2  48 4 7 0 60
0

0101000
+297 8 -290 8 *
Ed
 1e-007 1 1 0
1  25 0 0 60
2  49 11 11 0 60
2  50 5 7 0 60
0

0101000
+296 12 -289 12 *
Wi

0101000
+295 0 -288 0 -287 5 +286 10 *
Fa
0  1e-007 11 0

0101000
+285 0 *
Ve
1e-007
47 -70 0
0 0

0101101
*
Ve
1e-007
47 -70 5
0 0

0101101
*
Ed
 1e-007 1 1 0
1  26 0 0 5
2  51 12 0 0 5
2  52 13 0 0 5
0

0101000
+283 2 -282 2 *
Ed
 1e-007 1 1 0
1  27 0 0 10
2  53 12 6 0 10
2  54 4 7 0 10
0

0101000
+290 8 -283 8 *
Ed
 1e-007 1 1 0
1  28 0 0 10
2  55 12 11 0 10
2  56 5 7 0 10
0

0101000
+289 12 -282 12 *
Wi

0101000
+288 0 -281 0 -280 5 +279 10 *
Fa
0  1e-007 12 0

0101000
+278 0 *
Ve
1e-007
47 -96 0
0 0

0101101
*
Ve
1e-007
47 -96 5
0 0

0101101
*
Ed
 1e-007 1 1 0
1  29 0 0 5
2  57 13 0 0 5
2  58 14 0 0 5
0

0101000
+276 2 -275 2 *
Ed
 1e-007 1 1 0
1  30 0 0 26
2  59 13 6 0 26
2  60 4 7 0 26
0

0101000
+283 8 -276 8 *
Ed
 1e-007 1 1 0
1  31 0 0 26
2  61 13 11 0 26
2  62 5 7 0 26
0

0101000
+282 12 -275 12 *
Wi

0101000
+281 0 -274 0 -273 5 +272 10 *
Fa
0  1e-007 13 0

0101000
+271 0 *
Ve
1e-007
-47 -96 0
0 0

0101101
*
Ve
1e-007
-47 -96 5
0 0

0101101
*
Ed
 1e-007 1 1 0
1  32 0 0 5
2  63 14 0 0 5
2  64 15 0 0 5
0

0101000
+269 2 -268 2 *
Ed
 1e-007 1 1 0
1  33 0 0 94
2  65 14 6 0 94
2  66 4 7 0 94
0

0101000
+276 8 -269 8 *
Ed
 1e-007 1 1 0
1  34 0 0 94
2  67 14 11 0 94
2  68 5 7 0 94
0

0101000
+275 12 -268 12 *
Wi

0101000
+274 0 -267 0 -266 5 +265 10 *
Fa
0  1e-007 14 0

0101000
+264 0 *
Ve
1e-007
-47 -70 0
0 0

0101101
*
Ve
1e-007
-47 -70 5
0 0

0101101
*
Ed
 1e-007 1 1 0
1  35 0 0 5
2  69 15 0 0 5
2  70 16 0 0 5
0

0101000
+262 2 -261 2 *
Ed
 1e-007 1 1 0
1  36 0 0 26
2  71 15 6 0 26
2  72 4 7 0 26
0

0101000
+269 8 -262 8 *
Ed
 1e-007 1 1 0
1  37 0 0 26
2  73 15 11 0 26
2  74 5 7 0 26
0

0101000
+268 12 -261 12 *
Wi

0101000
+267 0 -260 0 -259 5 +258 10 *
Fa
0  1e-007 15 0

0101000
+257 0 *
Ve
1e-007
-37 -70 0
0 0

0101101
*
Ve
1e-007
-37 -70 5
0 0

0101101
*
Ed
 1e-007 1 1 0
1  38 0 0 5
2  75 16 0 0 5
2  76 17 0 0 5
0

0101000
+255 2 -254 2 *
Ed
 1e-007 1 1 0
1  39 0 0 10
2  77 16 6 0 10
2  78 4 7 0 10
0

0101000
+262 8 -255 8 *
Ed
 1e-007 1 1 0
1  40 0 0 10
2  79 16 11 0 10
2  80 5 7 0 10
0

0101000
+261 12 -254 12 *
Wi

0101000
+260 0 -253 0 -252 5 +251 10 *
Fa
0  1e-007 16 0

0101000
+250 0 *
Ve
1e-007
-37 -10 0
0 0

0101101
*
Ve
1e-007
-37 -10 5
0 0

0101101
*
Ed
 1e-007 1 1 0
1  41 0 0 5
2  81 17 0 0 5
2  82 18 0 0 5
0

0101000
+248 2 -247 2 *
Ed
 1e-007 1 1 0
1  42 0 0 60
2  83 17 6 0 60
2  84 4 7 0 60
0

0101000
+255 8 -248 8 *
Ed
 1e-007 1 1 0
1  43 0 0 60
2  85 17 11 0 60
2  86 5 7 0 60
0

0101000
+254 12 -247 12 *
Wi

0101000
+253 0 -246 0 -245 5 +244 10 *
Fa
0  1e-007 17 0

0101000
+243 0 *
Ve
1e-007
-47 -10 0
0 0

0101101
*
Ve
1e-007
-47 -10 5
0 0

0101101
*
Ed
 1e-007 1 1 0
1  44 0 0 5
2  87 18 0 0 5
2  88 19 0 0 5
0

0101000
+241 2 -240 2 *
Ed
 1e-007 1 1 0
1  45 0 0 10
2  89 18 6 0 10
2  90 4 7 0 10
0

0101000
+248 8 -241 8 *
Ed
 1e-007 1 1 0
1  46 0 0 10
2  91 18 11 0 10
2  92 5 7 0 10
0

0101000
+247 12 -240 12 *
Wi

0101000
+246 0 -239 0 -238 5 +237 10 *
Fa
0  1e-007 18 0

0101000
+236 0 *
Ve
1e-007
-47 10 0
0 0

0101101
*
Ve
1e-007
-47 10 5
0 0

0101101
*
Ed
 1e-007 1 1 0
1  47 0 0 5
2  93 19 0 0 5
2  94 20 0 0 5
0

0101000
+234 2 -233 2 *
Ed
 1e-007 1 1 0
1  48 0 0 20
2  95 19 6 0 20
2  96 4 7 0 20
0

0101000
+241 8 -234 8 *
Ed
 1e-007 1 1 0
1  49 0 0 20
2  97 19 11 0 20
2  98 5 7 0 20
0

0101000
+240 12 -233 12 *
Wi

0101000
+239 0 -232 0 -231 5 +230 10 *
Fa
0  1e-007 19 0

0101000
+229 0 *
Ve
1e-007
-37 10 0
0 0

0101101
*
Ve
1e-007
-37 10 5
0 0

0101101
*
Ed
 1e-007 1 1 0
1  50 0 0 5
2  99 20 0 0 5
2  100 21 0 0 5
0

0101000
+227 2 -226 2 *
Ed
 1e-007 1 1 0
1  51 0 0 10
2  101 20 6 0 10
2  102 4 7 0 10
0

0101000
+234 8 -227 8 *
Ed
 1e-007 1 1 0
1  52 0 0 10
2  103 20 11 0 10
2  104 5 7 0 10
0

0101000
+233 12 -226 12 *
Wi

0101000
+232 0 -225 0 -224 5 +223 10 *
Fa
0  1e-007 20 0

0101000
+222 0 *
Ve
1e-007
-37 70 0
0 0

0101101
*
Ve
1e-007
-37 70 5
0 0

0101101
*
Ed
 1e-007 1 1 0
1  53 0 0 5
2  105 21 0 0 5
2  106 22 0 0 5
0

0101000
+220 2 -219 2 *
Ed
 1e-007 1 1 0
1  54 0 0 60
2  107 21 6 0 60
2  108 4 7 0 60
0

0101000
+227 8 -220 8 *
Ed
 1e-007 1 1 0
1  55 0 0 60
2  109 21 11 0 60
2  110 5 7 0 60
0

0101000
+226 12 -219 12 *
Wi

0101000
+225 0 -218 0 -217 5 +216 10 *
Fa
0  1e-007 21 0

0101000
+215 0 *
Ve
1e-007
-47 70 0
0 0

0101101
*
Ve
1e-007
-47 70 5
0 0

0101101
*
Ed
 1e-007 1 1 0
1  56 0 0 5
2  111 22 0 0 5
2  112 2 0 0 5
0

0101000
+213 2 -212 2 *
Ed
 1e-007 1 1 0
1  57 0 0 10
2  113 22 6 0 10
2  114 4 7 0 10
0

0101000
+220 8 -213 8 *
Ed
 1e-007 1 1 0
1  58 0 0 10
2  115 22 11 0 10
2  116 5 7 0 10
0

0101000
+219 12 -212 12 *
Wi

0101000
+218 0 -211 0 -210 5 +209 10 *
Fa
0  1e-007 22 0

0101000
+208 0 *
Ed
 1e-007 1 1 0
1  59 0 0 26
2  117 2 6 0 26
2  118 4 7 0 26
0

0101000
+213 8 -342 8 *
Ed
 1e-007 1 1 0
1  60 0 0 26
2  119 2 11 0 26
2  120 5 7 0 26
0

0101000
+212 12 -341 12 *
Wi

0101000
+211 0 -340 0 -206 5 +205 10 *
Fa
0  1e-007 2 0

0101000
+204 0 *
Ve
1e-007
-20.25 60.5 0
0 0

0101101
*
Ve
1e-007
-20.25 60.5 5
0 0

0101101
*
Ed
 1e-007 1 1 0
1  61 0 0 5
2  121 23 0 0 5
2  122 24 0 0 5
0

0101000
+202 2 -201 2 *
Ve
1e-007
20.25 60.5 0
0 0

0101101
*
Ve
1e-007
20.25 60.5 5
0 0

0101101
*
Ed
 1e-007 1 1 0
1  62 0 0 5
2  123 23 0 0 5
2  124 25 0 0 5
0

0101000
+199 2 -198 2 *
Ed
 1e-007 1 1 0
1  63 0 0 40.5
2  125 23 6 0 40.5
2  126 4 7 0 40.5
0

0101000
+202 8 -199 8 *
Ed
 1e-007 1 1 0
1  64 0 0 40.5
2  127 23 11 0 40.5
2  128 5 7 0 40.5
0

0101000
+201 12 -198 12 *
Wi

0101000
+200 0 -197 0 -196 5 +195 10 *
Fa
0  1e-007 23 0

0101000
+194 0 *
Ve
1e-007
20.25 20 0
0 0

0101101
*
Ve
1e-007
20.25 20 5
0 0

0101101
*
Ed
 1e-007 1 1 0
1  65 0 0 5
2  129 25 0 0 5
2  130 26 0 0 5
0

0101000
+192 2 -191 2 *
Ed
 1e-007 1 1 0
1  66 0 0 40.5
2  131 25 6 0 40.5
2  132 4 7 0 40.5
0

0101000
+199 8 -192 8 *
Ed
 1e-007 1 1 0
1  67 0 0 40.5
2  133 25 11 0 40.5
2  134 5 7 0 40.5
0

0101000
+198 12 -191 12 *
Wi

0101000
+197 0 -190 0 -189 5 +188 10 *
Fa
0  1e-007 25 0

0101000
+187 0 *
Ve
1e-007
-20.25 20 0
0 0

0101101
*
Ve
1e-007
-20.25 20 5
0 0

0101101
*
Ed
 1e-007 1 1 0
1  68 0 0 5
2  135 26 0 0 5
2  136 24 0 0 5
0

0101000
+185 2 -184 2 *
Ed
 1e-007 1 1 0
1  69 0 0 40.5
2  137 26 6 0 40.5
2  138 4 7 0 40.5
0

0101000
+192 8 -185 8 *
Ed
 1e-007 1 1 0
1  70 0 0 40.5
2  139 26 11 0 40.5
2  140 5 7 0 40.5
0

0101000
+191 12 -184 12 *
Wi

0101000
+190 0 -183 0 -182 5 +181 10 *
Fa
0  1e-007 26 0

0101000
+180 0 *
Ed
 1e-007 1 1 0
1  71 0 0 40.5
2  141 24 6 0 40.5
2  142 4 7 0 40.5
0

0101000
+185 8 -202 8 *
Ed
 1e-007 1 1 0
1  72 0 0 40.5
2  143 24 11 0 40.5
2  144 5 7 0 40.5
0

0101000
+184 12 -201 12 *
Wi

0101000
+183 0 -200 0 -178 5 +177 10 *
Fa
0  1e-007 24 0

0101000
+176 0 *
Ve
1e-007
-3 -45.5000000000006 0
0 0

0101101
*
Ve
1e-007
-3 -45.5000000000006 5
0 0

0101101
*
Ed
 1e-007 1 1 0
1  73 0 0 5
2  145 27 0 0 5
2  146 28 0 0 5
0

0101000
+174 2 -173 2 *
Ve
1e-007
-10.25 -45.5 0
0 0

0101101
*
Ve
1e-007
-10.25 -45.5 5
0 0

0101101
*
Ed
 1e-007 1 1 0
1  74 0 0 5
2  147 27 0 0 5
2  148 29 0 0 5
0

0101000
+171 2 -170 2 *
Ed
 1e-007 1 1 0
1  75 0 0 7.25
2  149 27 6 0 7.25
2  150 4 7 0 7.25
0

0101000
+174 8 -171 8 *
Ed
 1e-007 1 1 0
1  76 0 0 7.25
2  151 27 11 0 7.25
2  152 5 7 0 7.25
0

0101000
+173 12 -170 12 *
Wi

0101000
+172 0 -169 0 -168 5 +167 10 *
Fa
0  1e-007 27 0

0101000
+166 0 *
Ve
1.00000001332268e-007
-10.25 -5.00000000000062 0
0 0

0101101
*
Ve
1.00000001332268e-007
-10.25 -5.00000000000062 5
0 0

0101101
*
Ed
 1.00000001332268e-007 1 1 0
1  77 0 0 5
2  153 29 0 0 5
2  154 30 0 0 5
0

0101000
+164 2 -163 2 *
Ed
 1e-007 1 1 0
1  78 0 0 40.4999999999994
2  155 29 6 0 40.4999999999994
2  156 4 7 0 40.4999999999994
0

0101000
+171 8 -164 8 *
Ed
 1e-007 1 1 0
1  79 0 0 40.4999999999994
2  157 29 11 0 40.4999999999994
2  158 5 7 0 40.4999999999994
0

0101000
+170 12 -163 12 *
Wi

0101000
+169 0 -162 0 -161 5 +160 10 *
Fa
0  1e-007 29 0

0101000
+159 0 *
Ve
1e-007
-3 -5.00000000000062 0
0 0

0101101
*
Ve
1e-007
-3 -5.00000000000062 5
0 0

0101101
*
Ed
 1e-007 1 1 0
1  80 0 0 5
2  159 30 0 0 5
2  160 31 0 0 5
0

0101000
+157 2 -156 2 *
Ed
 1e-007 1 1 0
1  81 0 0 7.25
2  161 30 6 0 7.25
2  162 4 7 0 7.25
0

0101000
+164 8 -157 8 *
Ed
 1e-007 1 1 0
1  82 0 0 7.25
2  163 30 11 0 7.25
2  164 5 7 0 7.25
0

0101000
+163 12 -156 12 *
Wi

0101000
+162 0 -155 0 -154 5 +153 10 *
Fa
0  1e-007 30 0

0101000
+152 0 *
Ve
1e-007
3 -5 0
0 0

0101101
*
Ve
1e-007
3 -5 5
0 0

0101101
*
Ed
 1e-007 1 1 0
1  83 0 0 5
2  165 31 0 0 5
2  166 32 0 0 5
0

0101000
+150 2 -149 2 *
Ed
 1e-007 1 1 0
1  84 0 0 3.14159265359
2  167 31 6 0 3.14159265359
2  168 4 7 0 3.14159265359
0

0101000
+150 8 -157 8 *
Ed
 1e-007 1 1 0
1  85 0 0 3.14159265359
2  169 31 11 0 3.14159265359
2  170 5 7 0 3.14159265359
0

0101000
+149 12 -156 12 *
Wi

0101000
+148 0 -155 0 -147 5 +146 10 *
Fa
0  1e-007 31 0

0101000
+145 0 *
Ve
1e-007
10.25 -5 0
0 0

0101101
*
Ve
1e-007
10.25 -5 5
0 0

0101101
*
Ed
 1e-007 1 1 0
1  86 0 0 5
2  171 32 0 0 5
2  172 33 0 0 5
0

0101000
+143 2 -142 2 *
Ed
 1e-007 1 1 0
1  87 0 0 7.25
2  173 32 6 0 7.25
2  174 4 7 0 7.25
0

0101000
+150 8 -143 8 *
Ed
 1e-007 1 1 0
1  88 0 0 7.25
2  175 32 11 0 7.25
2  176 5 7 0 7.25
0

0101000
+149 12 -142 12 *
Wi

0101000
+148 0 -141 0 -140 5 +139 10 *
Fa
0  1e-007 32 0

0101000
+138 0 *
Ve
1e-007
10.25 -45.4999999999988 0
0 0

0101101
*
Ve
1e-007
10.25 -45.4999999999988 5
0 0

0101101
*
Ed
 1e-007 1 1 0
1  89 0 0 5
2  177 33 0 0 5
2  178 34 0 0 5
0

0101000
+136 2 -135 2 *
Ed
 1e-007 1 1 0
1  90 0 0 40.4999999999988
2  179 33 6 0 40.4999999999988
2  180 4 7 0 40.4999999999988
0

0101000
+143 8 -136 8 *
Ed
 1e-007 1 1 0
1  91 0 0 40.4999999999988
2  181 33 11 0 40.4999999999988
2  182 5 7 0 40.4999999999988
0

0101000
+142 12 -135 12 *
Wi

0101000
+141 0 -134 0 -133 5 +132 10 *
Fa
0  1e-007 33 0

0101000
+131 0 *
Ve
1e-007
3 -45.4999999999988 0
0 0

0101101
*
Ve
1e-007
3 -45.4999999999988 5
0 0

0101101
*
Ed
 1e-007 1 1 0
1  92 0 0 5
2  183 34 0 0 5
2  184 28 0 0 5
0

0101000
+129 2 -128 2 *
Ed
 1e-007 1 1 0
1  93 0 0 7.25
2  185 34 6 0 7.25
2  186 4 7 0 7.25
0

0101000
+136 8 -129 8 *
Ed
 1e-007 1 1 0
1  94 0 0 7.25
2  187 34 11 0 7.25
2  188 5 7 0 7.25
0

0101000
+135 12 -128 12 *
Wi

0101000
+134 0 -127 0 -126 5 +125 10 *
Fa
0  1e-007 34 0

0101000
+124 0 *
Ed
 1e-007 1 1 0
1  95 0 3.14159265359 6.28318530718
2  189 28 6 3.14159265359 6.28318530718
2  190 4 7 3.14159265359 6.28318530718
0

0101000
+174 8 -129 8 *
Ed
 1e-007 1 1 0
1  96 0 3.14159265359 6.28318530718
2  191 28 11 3.14159265359 6.28318530718
2  192 5 7 3.14159265359 6.28318530718
0

0101000
+173 12 -128 12 *
Wi

0101000
+172 0 -127 0 -122 5 +121 10 *
Fa
0  1e-007 28 0

0101000
+120 0 *
Ve
1e-007
5.6 16.25 0
0 0

0101101
*
Ve
1e-007
5.6 16.25 5
0 0

0101101
*
Ed
 1e-007 1 1 0
1  97 0 0 5
3  193 194CN 35 0 0 5
0

0101000
+118 2 -117 2 *
Ed
 1e-007 1 1 0
1  98 0 0 6.28318530717959
2  195 35 6 0 6.28318530717959
2  196 4 7 0 6.28318530717959
0

0101100
+118 8 -118 8 *
Ed
 1e-007 1 1 0
1  99 0 0 6.28318530717959
2  197 35 11 0 6.28318530717959
2  198 5 7 0 6.28318530717959
0

0101100
+117 12 -117 12 *
Wi

0101000
+116 0 -116 0 -115 5 +114 10 *
Fa
0  1e-007 35 0

0101000
+113 0 *
Ve
1e-007
-4.6 16.25 0
0 0

0101101
*
Ve
1e-007
-4.6 16.25 5
0 0

0101101
*
Ed
 1e-007 1 1 0
1  100 0 0 5
3  199 200CN 36 0 0 5
0

0101000
+111 2 -110 2 *
Ed
 1e-007 1 1 0
1  101 0 0 6.28318530717959
2  201 36 6 0 6.28318530717959
2  202 4 7 0 6.28318530717959
0

0101100
+111 8 -111 8 *
Ed
 1e-007 1 1 0
1  102 0 0 6.28318530717959
2  203 36 11 0 6.28318530717959
2  204 5 7 0 6.28318530717959
0

0101100
+110 12 -110 12 *
Wi

0101000
+109 0 -109 0 -108 5 +107 10 *
Fa
0  1e-007 36 0

0101000
+106 0 *
Ve
1e-007
15.6 16 0
0 0

0101101
*
Ve
1e-007
15.6 16 5
0 0

0101101
*
Ed
 1e-007 1 1 0
1  103 0 0 5
3  205 206CN 37 0 0 5
0

0101000
+104 2 -103 2 *
Ed
 1e-007 1 1 0
1  104 0 0 6.28318530717959
2  207 37 6 0 6.28318530717959
2  208 4 7 0 6.28318530717959
0

0101100
+104 8 -104 8 *
Ed
 1e-007 1 1 0
1  105 0 0 6.28318530717959
2  209 37 11 0 6.28318530717959
2  210 5 7 0 6.28318530717959
0

0101100
+103 12 -103 12 *
Wi

0101000
+102 0 -102 0 -101 5 +100 10 *
Fa
0  1e-007 37 0

0101000
+99 0 *
Ve
1e-007
-14.6 16.25 0
0 0

0101101
*
Ve
1e-007
-14.6 16.25 5
0 0

0101101
*
Ed
 1e-007 1 1 0
1  106 0 0 5
3  211 212CN 38 0 0 5
0

0101000
+97 2 -96 2 *
Ed
 1e-007 1 1 0
1  107 0 0 6.28318530717959
2  213 38 6 0 6.28318530717959
2  214 4 7 0 6.28318530717959
0

0101100
+97 8 -97 8 *
Ed
 1e-007 1 1 0
1  108 0 0 6.28318530717959
2  215 38 11 0 6.28318530717959
2  216 5 7 0 6.28318530717959
0

0101100
+96 12 -96 12 *
Wi

0101000
+95 0 -95 0 -94 5 +93 10 *
Fa
0  1e-007 38 0

0101000
+92 0 *
Ve
1e-007
5.6 64.25 0
0 0

0101101
*
Ve
1e-007
5.6 64.25 5
0 0

0101101
*
Ed
 1e-007 1 1 0
1  109 0 0 5
3  217 218CN 39 0 0 5
0

0101000
+90 2 -89 2 *
Ed
 1e-007 1 1 0
1  110 0 0 6.28318530717959
2  219 39 6 0 6.28318530717959
2  220 4 7 0 6.28318530717959
0

0101100
+90 8 -90 8 *
Ed
 1e-007 1 1 0
1  111 0 0 6.28318530717959
2  221 39 11 0 6.28318530717959
2  222 5 7 0 6.28318530717959
0

0101100
+89 12 -89 12 *
Wi

0101000
+88 0 -88 0 -87 5 +86 10 *
Fa
0  1e-007 39 0

0101000
+85 0 *
Ve
1e-007
-4.6 64.25 0
0 0

0101101
*
Ve
1e-007
-4.6 64.25 5
0 0

0101101
*
Ed
 1e-007 1 1 0
1  112 0 0 5
3  223 224CN 40 0 0 5
0

0101000
+83 2 -82 2 *
Ed
 1e-007 1 1 0
1  113 0 0 6.28318530717959
2  225 40 6 0 6.28318530717959
2  226 4 7 0 6.28318530717959
0

0101100
+83 8 -83 8 *
Ed
 1e-007 1 1 0
1  114 0 0 6.28318530717959
2  227 40 11 0 6.28318530717959
2  228 5 7 0 6.28318530717959
0

0101100
+82 12 -82 12 *
Wi

0101000
+81 0 -81 0 -80 5 +79 10 *
Fa
0  1e-007 40 0

0101000
+78 0 *
Ve
1e-007
15.6 64.25 0
0 0

0101101
*
Ve
1e-007
15.6 64.25 5
0 0

0101101
*
Ed
 1e-007 1 1 0
1  115 0 0 5
3  229 230CN 41 0 0 5
0

0101000
+76 2 -75 2 *
Ed
 1e-007 1 1 0
1  116 0 0 6.28318530717959
2  231 41 6 0 6.28318530717959
2  232 4 7 0 6.28318530717959
0

0101100
+76 8 -76 8 *
Ed
 1e-007 1 1 0
1  117 0 0 6.28318530717959
2  233 41 11 0 6.28318530717959
2  234 5 7 0 6.28318530717959
0

0101100
+75 12 -75 12 *
Wi

0101000
+74 0 -74 0 -73 5 +72 10 *
Fa
0  1e-007 41 0

0101000
+71 0 *
Ve
1e-007
-14.6 64.25 0
0 0

0101101
*
Ve
1e-007
-14.6 64.25 5
0 0

0101101
*
Ed
 1e-007 1 1 0
1  118 0 0 5
3  235 236CN 42 0 0 5
0

0101000
+69 2 -68 2 *
Ed
 1e-007 1 1 0
1  119 0 0 6.28318530717959
2  237 42 6 0 6.28318530717959
2  238 4 7 0 6.28318530717959
0

0101100
+69 8 -69 8 *
Ed
 1e-007 1 1 0
1  120 0 0 6.28318530717959
2  239 42 11 0 6.28318530717959
2  240 5 7 0 6.28318530717959
0

0101100
+68 12 -68 12 *
Wi

0101000
+67 0 -67 0 -66 5 +65 10 *
Fa
0  1e-007 42 0

0101000
+64 0 *
Ve
1e-007
-42.5 -83 0
0 0

0101101
*
Ve
1e-007
-42.5 -83 5
0 0

0101101
*
Ed
 1e-007 1 1 0
1  121 0 0 5
3  241 242CN 43 0 0 5
0

0101000
+62 2 -61 2 *
Ed
 1e-007 1 1 0
1  122 0 0 6.28318530717959
2  243 43 6 0 6.28318530717959
2  244 4 7 0 6.28318530717959
0

0101100
+62 8 -62 8 *
Ed
 1e-007 1 1 0
1  123 0 0 6.28318530717959
2  245 43 11 0 6.28318530717959
2  246 5 7 0 6.28318530717959
0

0101100
+61 12 -61 12 *
Wi

0101000
+60 0 -60 0 -59 5 +58 10 *
Fa
0  1e-007 43 0

0101000
+57 0 *
Ve
1e-007
43.5 -83 0
0 0

0101101
*
Ve
1e-007
43.5 -83 5
0 0

0101101
*
Ed
 1e-007 1 1 0
1  124 0 0 5
3  247 248CN 44 0 0 5
0

0101000
+55 2 -54 2 *
Ed
 1e-007 1 1 0
1  125 0 0 6.28318530717959
2  249 44 6 0 6.28318530717959
2  250 4 7 0 6.28318530717959
0

0101100
+55 8 -55 8 *
Ed
 1e-007 1 1 0
1  126 0 0 6.28318530717959
2  251 44 11 0 6.28318530717959
2  252 5 7 0 6.28318530717959
0

0101100
+54 12 -54 12 *
Wi

0101000
+53 0 -53 0 -52 5 +51 10 *
Fa
0  1e-007 44 0

0101000
+50 0 *
Ve
1e-007
43.5 83 0
0 0

0101101
*
Ve
1e-007
43.5 83 5
0 0

0101101
*
Ed
 1e-007 1 1 0
1  127 0 0 5
3  253 254CN 45 0 0 5
0

0101000
+48 2 -47 2 *
Ed
 1e-007 1 1 0
1  128 0 0 6.28318530717959
2  255 45 6 0 6.28318530717959
2  256 4 7 0 6.28318530717959
0

0101100
+48 8 -48 8 *
Ed
 1e-007 1 1 0
1  129 0 0 6.28318530717959
2  257 45 11 0 6.28318530717959
2  258 5 7 0 6.28318530717959
0

0101100
+47 12 -47 12 *
Wi

0101000
+46 0 -46 0 -45 5 +44 10 *
Fa
0  1e-007 45 0

0101000
+43 0 *
Ve
1e-007
-42.5 83 0
0 0

0101101
*
Ve
1e-007
-42.5 83 5
0 0

0101101
*
Ed
 1e-007 1 1 0
1  130 0 0 5
3  259 260CN 46 0 0 5
0

0101000
+41 2 -40 2 *
Ed
 1e-007 1 1 0
1  131 0 0 6.28318530717959
2  261 46 6 0 6.28318530717959
2  262 4 7 0 6.28318530717959
0

0101100
+41 8 -41 8 *
Ed
 1e-007 1 1 0
1  132 0 0 6.28318530717959
2  263 46 11 0 6.28318530717959
2  264 5 7 0 6.28318530717959
0

0101100
+40 12 -40 12 *
Wi

0101000
+39 0 -39 0 -38 5 +37 10 *
Fa
0  1e-007 46 0

0101000
+36 0 *
Wi

0101100
+336 0 +329 0 +322 0 +315 0 +308 0 +301 0 +294 0 +287 0 +280 0 +273 0 
+266 0 +259 0 +252 0 +245 0 +238 0 +231 0 +224 0 +217 0 +210 0 +206 0 
*
Wi

0101100
+196 0 +189 0 +182 0 +178 0 *
Wi

0101100
+168 0 +161 0 +154 0 -147 0 +140 0 +133 0 +126 0 -122 0 *
Wi

0101100
+115 0 *
Wi

0101100
+108 0 *
Wi

0101100
+101 0 *
Wi

0101100
+94 0 *
Wi

0101100
+87 0 *
Wi

0101100
+80 0 *
Wi

0101100
+73 0 *
Wi

0101100
+66 0 *
Wi

0101100
+59 0 *
Wi

0101100
+52 0 *
Wi

0101100
+45 0 *
Wi

0101100
+38 0 *
Fa
0  1e-007 4 0

0101000
-34 3 +33 3 +32 3 -31 3 -30 3 -29 3 -28 3 -27 3 -26 3 -25 3 
-24 3 -23 3 -22 3 -21 3 -20 3 *
Wi

0101100
+335 0 +328 0 +321 0 +314 0 +307 0 +300 0 +293 0 +286 0 +279 0 +272 0 
+265 0 +258 0 +251 0 +244 0 +237 0 +230 0 +223 0 +216 0 +209 0 +205 0 
*
Wi

0101100
+195 0 +188 0 +181 0 +177 0 *
Wi

0101100
+167 0 +160 0 +153 0 -146 0 +139 0 +132 0 +125 0 -121 0 *
Wi

0101100
+114 0 *
Wi

0101100
+107 0 *
Wi

0101100
+100 0 *
Wi

0101100
+93 0 *
Wi

0101100
+86 0 *
Wi

0101100
+79 0 *
Wi

0101100
+72 0 *
Wi

0101100
+65 0 *
Wi

0101100
+58 0 *
Wi

0101100
+51 0 *
Wi

0101100
+44 0 *
Wi

0101100
+37 0 *
Fa
0  1e-007 5 0

0101000
-18 3 +17 3 +16 3 -15 3 -14 3 -13 3 -12 3 -11 3 -10 3 -9 3 
-8 3 -7 3 -6 3 -5 3 -4 3 *
Sh

0101000
-333 0 -326 0 -319 0 -312 0 -305 0 -298 0 -291 0 -284 0 -277 0 -270 0 
-263 0 -256 0 -249 0 -242 0 -235 0 -228 0 -221 0 -214 0 -207 0 -203 0 
+193 0 +186 0 +179 0 +175 0 +165 0 +158 0 +151 0 -144 0 +137 0 +130 0 
+123 0 -119 0 -112 0 -105 0 -98 0 -91 0 -84 0 -77 0 -70 0 -63 0 
-56 0 -49 0 -42 0 -35 0 +19 13 -3 14 *
So

1100000
-2 0 *

+1 1 