DBRep_DrawableShape

CASCADE Topology V1, (c) Matra-Datavision
Locations 10
1
              1               0               0              -0 
              0 2.22044604925031e-016              -1             -10 
              0               1 2.22044604925031e-016               0 
1
              1               0               0               0 
              0               1               0               0 
              0               0               1               0 
2  1 1 2 -1 0
2  2 1 1 -1 0
2  1 -1 0
1
              1               0               0               0 
              0               1               0              20 
              0               0               1 -4.44089209850063e-015 
2  1 1 2 -1 6 1 0
2  6 -1 2 1 1 -1 0
2  2 -1 0
2  2 -1 6 1 0
Curve2ds 12
1 0 0 0 -1 
1 6.2831853071795862 0 0 -1 
1 0 0 1 0 
2 0 -1 0 1 1 -0 1
1 0 -20 1 0 
2 0 -1 0 1 1 -0 1
1 0 0 0 -1 
1 6.2831853071795862 0 0 -1 
1 0 0 1 0 
2 0 -1 0 1 1 -0 1
1 0 -20 1 0 
2 0 -1 0 1 1 -0 1
Curves 6
1 44 -9.9999999999999982 9 0 1 -2.2204460492503131e-016 
2 43 9 0 0 0 1 1 0 -0 -0 1 0 1
2 43 9 0 0 0 1 1 0 -0 -0 1 0 1
1 44 -9.9999999999999964 19 0 1 -2.2204460492503131e-016 
2 43 19 0 0 0 1 1 0 -0 -0 1 0 1
2 43 19 0 0 0 1 1 0 -0 -0 1 0 1
Polygon3D 0
PolygonOnTriangulations 0
Surfaces 6
2 43 -9.9999999999999982 9 0 -1 2.2204460492503131e-016 1 0 0 -0 2.2204460492503131e-016 1 1
1 44 -9.9999999999999982 9 0 1 0 0 -0 1 1 0 -0 
1 44 -9.9999999999999982 9 0 1 0 0 -0 1 1 0 -0 
2 43 -9.9999999999999964 19 0 -1 2.2204460492503131e-016 1 0 0 -0 2.2204460492503131e-016 1 1
1 44 -9.9999999999999964 19 0 1 0 0 -0 1 1 0 -0 
1 44 -9.9999999999999964 19 0 1 0 0 -0 1 1 0 -0 
Triangulations 0

TShapes 27
Ve
1e-007
44 -10 9
0 0

0101101
*
Ve
1e-007
44 10 9
0 0

0101101
*
Ed
 1e-007 1 1 0
1  1 0 0 20
3  1 2CN 1 0 0 20
0

0101000
+27 0 -26 0 *
Ed
 1e-007 1 1 0
1  2 0 0 6.28318530717959
2  3 1 4 0 6.28318530717959
2  4 2 5 0 6.28318530717959
0

0101100
+27 4 -27 4 *
Ed
 1e-007 1 1 0
1  3 0 0 6.28318530717959
2  5 1 8 0 6.28318530717959
2  6 3 5 0 6.28318530717959
0

0101100
+26 8 -26 8 *
Wi

0101000
+25 0 -25 0 -24 3 +23 7 *
Fa
0  1e-007 1 0

0101000
+22 0 *
Wi

0101100
+24 0 *
Fa
0  1e-007 2 0

0101000
-20 1 *
Wi

0101100
+23 0 *
Fa
0  1e-007 3 0

0101000
-18 1 *
Sh

0101000
-21 0 +19 9 -17 10 *
So

0100000
-16 0 *
Ve
1e-007
44 -10 19
0 0

0101101
*
Ve
1e-007
44 10 19
0 0

0101101
*
Ed
 1e-007 1 1 0
1  4 0 0 20
3  7 8CN 4 0 0 20
0

0101000
+14 0 -13 0 *
Ed
 1e-007 1 1 0
1  5 0 0 6.28318530717959
2  9 4 4 0 6.28318530717959
2  10 5 5 0 6.28318530717959
0

0101100
+14 4 -14 4 *
Ed
 1e-007 1 1 0
1  6 0 0 6.28318530717959
2  11 4 8 0 6.28318530717959
2  12 6 5 0 6.28318530717959
0

0101100
+13 8 -13 8 *
Wi

0101000
+12 0 -12 0 -11 3 +10 7 *
Fa
0  1e-007 4 0

0101000
+9 0 *
Wi

0101100
+11 0 *
Fa
0  1e-007 5 0

0101000
-7 1 *
Wi

0101100
+10 0 *
Fa
0  1e-007 6 0

0101000
-5 1 *
Sh

0101000
-8 0 +6 9 -4 10 *
So

0100000
-3 0 *
Co

1100000
+15 0 +2 0 *

+1 0 