DBRep_DrawableShape

CASCADE Topology V1, (c) Matra-Datavision
Locations 10
1
              1               0               0              -0 
              0               1               0               0 
              0               0               1               5 
1
              1               0               0               0 
              0               1               0               0 
              0               0               1               0 
2  1 1 2 -1 0
2  2 1 1 -1 0
2  1 -1 0
1
              1               0               0               0 
              0               1               0               0 
              0               0               1              11 
2  1 1 2 -1 6 1 0
2  6 -1 2 1 1 -1 0
2  2 -1 0
2  2 -1 6 1 0
Curve2ds 96
1 0 0 0 -1 
1 7 0 0 -1 
1 6 0 0 -1 
1 3.1415926535900001 0 0 -1 
1 0 0 1 0 
1 0 0 1 -1.0302869668521453e-013 
1 0 -11 1 0 
1 0 0 1 -1.0302869668521453e-013 
1 6.2831853071800001 0 0 -1 
1 0 0 0 -1 
1 0 0 1 0 
2 9 0 1 0 -0 1 3
1 0 -11 1 0 
2 9 0 1 0 -0 1 3
1 6 0 0 -1 
1 0 0 0 -1 
1 0 0 1 0 
1 12 1.2434497875801753e-012 1 -2.0724163126336256e-013 
1 0 -11 1 0 
1 12 1.2434497875801753e-012 1 -2.0724163126336256e-013 
1 7 0 0 -1 
1 0 -0 0 -1 
1 0 0 1 0 
1 18 0 0 -1 
1 0 -11 1 0 
1 18 0 0 -1 
1 18 0 0 -1 
1 0 0 0 -1 
1 0 -0 1 0 
1 18 -7 -1 0 
1 0 -11 1 0 
1 18 -7 -1 0 
1 0 0 1 0 
1 0 -7 0 1 
1 0 -11 1 0 
1 0 -7 0 1 
1 0 0 0 -1 
1 6.2831853071795862 0 0 -1 
1 0 0 1 0 
2 14 -4 1 0 -0 1 0.5
1 0 -11 1 0 
2 14 -4 1 0 -0 1 0.5
1 0 0 0 -1 
1 6.2831853071795862 0 0 -1 
1 0 0 1 0 
2 4 -4 1 0 -0 1 0.5
1 0 -11 1 0 
2 4 -4 1 0 -0 1 0.5
1 0 0 0 -1 
1 7 0 0 -1 
1 18 0 0 -1 
1 0 0 0 -1 
1 0 0 1 0 
1 0 0 1 0 
1 0 -11 1 0 
1 0 0 1 0 
1 7 0 0 -1 
1 0 -0 0 -1 
1 0 0 1 0 
1 18 0 0 -1 
1 0 -11 1 0 
1 18 0 0 -1 
1 6 0 0 -1 
1 0 0 0 -1 
1 0 -0 1 0 
1 18 -7 -1 0 
1 0 -11 1 0 
1 18 -7 -1 0 
1 3.1415926535900001 0 0 -1 
1 0 0 0 -1 
1 0 0 1 0 
2 9 -7 1 0 -0 1 3
1 0 -11 1 0 
2 9 -7 1 0 -0 1 3
1 6 0 0 -1 
1 0 0 0 -1 
1 0 0 1 0 
1 6 -7.0000000000006208 -1 1.0347278589506459e-013 
1 0 -11 1 0 
1 6 -7.0000000000006208 -1 1.0347278589506459e-013 
1 0 0 1 0 
1 0 -7 0 1 
1 0 -11 1 0 
1 0 -7 0 1 
1 0 0 0 -1 
1 6.2831853071795862 0 0 -1 
1 0 0 1 0 
2 14 -3.5 1 0 -0 1 0.5
1 0 -11 1 0 
2 14 -3.5 1 0 -0 1 0.5
1 0 0 0 -1 
1 6.2831853071795862 0 0 -1 
1 0 0 1 0 
2 4 -3.5 1 0 -0 1 0.5
1 0 -11 1 0 
2 4 -3.5 1 0 -0 1 0.5
Curves 48
1 -9 -45.5 5 0 0 1 
1 -3 -45.500000000000618 5 0 0 1 
1 -9 -45.5 0 1 -1.0302869668521453e-013 0 
1 -9 -45.5 0 1 -1.0302869668521453e-013 0 
1 3 -45.499999999998757 5 0 0 1 
2 0 -45.5 0 0 0 1 1 0 -0 -0 1 0 3
2 0 -45.5 0 0 0 1 1 0 -0 -0 1 0 3
1 9 -45.5 5 0 0 1 
1 3 -45.499999999998757 0 1 -2.0724163126336256e-013 0 
1 3 -45.499999999998757 0 1 -2.0724163126336256e-013 0 
1 9 -52.5 5 0 0 1 
1 9 -45.5 0 0 -1 0 
1 9 -45.5 0 0 -1 0 
1 -9 -52.5 5 0 0 1 
1 9 -52.5 0 -1 0 0 
1 9 -52.5 0 -1 0 0 
1 -9 -52.5 0 0 1 0 
1 -9 -52.5 0 0 1 0 
1 5.5 -49.5 5 0 0 1 
2 5 -49.5 0 0 0 1 1 0 -0 -0 1 0 0.5
2 5 -49.5 0 0 0 1 1 0 -0 -0 1 0 0.5
1 -4.5 -49.5 5 0 0 1 
2 -5 -49.5 0 0 0 1 1 0 -0 -0 1 0 0.5
2 -5 -49.5 0 0 0 1 1 0 -0 -0 1 0 0.5
1 -9 2 5 0 0 1 
1 9 2 5 0 0 1 
1 -9 2 0 1 0 0 
1 -9 2 0 1 0 0 
1 9 -5 5 0 0 1 
1 9 2 0 0 -1 0 
1 9 2 0 0 -1 0 
1 3 -5 5 0 0 1 
1 9 -5 0 -1 0 0 
1 9 -5 0 -1 0 0 
1 -3 -5.0000000000006208 5 0 0 1 
2 0 -5 0 0 0 1 1 0 -0 -0 1 0 3
2 0 -5 0 0 0 1 1 0 -0 -0 1 0 3
1 -9 -5 5 0 0 1 
1 -3 -5.0000000000006208 0 -1 1.0347278589506459e-013 0 
1 -3 -5.0000000000006208 0 -1 1.0347278589506459e-013 0 
1 -9 -5 0 0 1 0 
1 -9 -5 0 0 1 0 
1 5.5 -1.5 5 0 0 1 
2 5 -1.5 0 0 0 1 1 0 -0 -0 1 0 0.5
2 5 -1.5 0 0 0 1 1 0 -0 -0 1 0 0.5
1 -4.5 -1.5 5 0 0 1 
2 -5 -1.5 0 0 0 1 1 0 -0 -0 1 0 0.5
2 -5 -1.5 0 0 0 1 1 0 -0 -0 1 0 0.5
Polygon3D 0
PolygonOnTriangulations 0
Surfaces 20
1 -9 -45.5 5 1.0302869668521453e-013 1 -0 1 -1.0302869668521453e-013 0 0 -0 -1 
1 -9 -52.5 5 -1 0 0 0 1 0 0 0 -1 
2 0 -45.5 5 -0 -0 -1 1 0 0 -0 1 -0 3
1 -9 -45.5 5 0 0 1 1 0 -0 -0 1 0 
1 -9 -45.5 5 0 0 1 1 0 -0 -0 1 0 
1 3 -45.499999999998757 5 2.0724163126336256e-013 1 -0 1 -2.0724163126336256e-013 0 0 -0 -1 
1 9 -45.5 5 1 0 -0 0 -1 0 0 -0 -1 
1 9 -52.5 5 0 -1 0 -1 0 0 -0 -0 -1 
2 5 -49.5 5 -0 -0 -1 1 0 0 -0 1 -0 0.5
2 -5 -49.5 5 -0 -0 -1 1 0 0 -0 1 -0 0.5
1 -9 2 5 0 1 0 1 0 0 0 0 -1 
1 -9 -5 5 -1 0 0 0 1 0 0 0 -1 
1 9 2 5 1 0 -0 0 -1 0 0 -0 -1 
1 -9 2 5 -0 0 1 1 0 0 0 1 -0 
1 -9 2 5 -0 0 1 1 0 0 0 1 -0 
1 9 -5 5 0 -1 0 -1 0 0 -0 -0 -1 
2 0 -5 5 -0 -0 -1 1 0 0 -0 1 -0 3
1 -3 -5.0000000000006208 5 -1.0347278589506459e-013 -1 0 -1 1.0347278589506459e-013 0 -0 0 -1 
2 5 -1.5 5 -0 -0 -1 1 0 0 -0 1 -0 0.5
2 -5 -1.5 5 -0 -0 -1 1 0 0 -0 1 -0 0.5
Triangulations 0

TShapes 133
Ve
1e-007
-9 -45.5 5
0 0

0101101
*
Ve
1e-007
-9 -45.5 16
0 0

0101101
*
Ed
 1e-007 1 1 0
1  1 0 0 11
2  1 1 0 0 11
2  2 2 0 0 11
0

0101000
+133 0 -132 0 *
Ve
1e-007
-3 -45.5000000000006 5
0 0

0101101
*
Ve
1e-007
-3 -45.5000000000006 16
0 0

0101101
*
Ed
 1e-007 1 1 0
1  2 0 0 11
2  3 1 0 0 11
2  4 3 0 0 11
0

0101000
+130 0 -129 0 *
Ed
 1e-007 1 1 0
1  3 0 0 6
2  5 1 4 0 6
2  6 4 5 0 6
0

0101000
+133 4 -130 4 *
Ed
 1e-007 1 1 0
1  4 0 0 6
2  7 1 8 0 6
2  8 5 5 0 6
0

0101000
+132 8 -129 8 *
Wi

0101000
+131 0 -128 0 -127 3 +126 7 *
Fa
0  1e-007 1 0

0101000
+125 0 *
Ve
1e-007
3 -45.4999999999988 5
0 0

0101101
*
Ve
1e-007
3 -45.4999999999988 16
0 0

0101101
*
Ed
 1e-007 1 1 0
1  5 0 0 11
2  9 3 0 0 11
2  10 6 0 0 11
0

0101000
+123 0 -122 0 *
Ed
 1e-007 1 1 0
1  6 0 3.14159265359 6.28318530718
2  11 3 4 3.14159265359 6.28318530718
2  12 4 5 3.14159265359 6.28318530718
0

0101000
+130 4 -123 4 *
Ed
 1e-007 1 1 0
1  7 0 3.14159265359 6.28318530718
2  13 3 8 3.14159265359 6.28318530718
2  14 5 5 3.14159265359 6.28318530718
0

0101000
+129 8 -122 8 *
Wi

0101000
+128 0 -121 0 -120 3 +119 7 *
Fa
0  1e-007 3 0

0101000
+118 0 *
Ve
1e-007
9 -45.5 5
0 0

0101101
*
Ve
1e-007
9 -45.5 16
0 0

0101101
*
Ed
 1e-007 1 1 0
1  8 0 0 11
2  15 6 0 0 11
2  16 7 0 0 11
0

0101000
+116 0 -115 0 *
Ed
 1e-007 1 1 0
1  9 0 0 6
2  17 6 4 0 6
2  18 4 5 0 6
0

0101000
+123 4 -116 4 *
Ed
 1e-007 1 1 0
1  10 0 0 6
2  19 6 8 0 6
2  20 5 5 0 6
0

0101000
+122 8 -115 8 *
Wi

0101000
+121 0 -114 0 -113 3 +112 7 *
Fa
0  1e-007 6 0

0101000
+111 0 *
Ve
1e-007
9 -52.5 5
0 0

0101101
*
Ve
1e-007
9 -52.5 16
0 0

0101101
*
Ed
 1e-007 1 1 0
1  11 0 0 11
2  21 7 0 0 11
2  22 8 0 0 11
0

0101000
+109 0 -108 0 *
Ed
 1e-007 1 1 0
1  12 0 0 7
2  23 7 4 0 7
2  24 4 5 0 7
0

0101000
+116 4 -109 4 *
Ed
 1e-007 1 1 0
1  13 0 0 7
2  25 7 8 0 7
2  26 5 5 0 7
0

0101000
+115 8 -108 8 *
Wi

0101000
+114 0 -107 0 -106 3 +105 7 *
Fa
0  1e-007 7 0

0101000
+104 0 *
Ve
1e-007
-9 -52.5 5
0 0

0101101
*
Ve
1e-007
-9 -52.5 16
0 0

0101101
*
Ed
 1e-007 1 1 0
1  14 0 0 11
2  27 8 0 0 11
2  28 2 0 0 11
0

0101000
+102 0 -101 0 *
Ed
 1e-007 1 1 0
1  15 0 0 18
2  29 8 4 0 18
2  30 4 5 0 18
0

0101000
+109 4 -102 4 *
Ed
 1e-007 1 1 0
1  16 0 0 18
2  31 8 8 0 18
2  32 5 5 0 18
0

0101000
+108 8 -101 8 *
Wi

0101000
+107 0 -100 0 -99 3 +98 7 *
Fa
0  1e-007 8 0

0101000
+97 0 *
Ed
 1e-007 1 1 0
1  17 0 0 7
2  33 2 4 0 7
2  34 4 5 0 7
0

0101000
+102 4 -133 4 *
Ed
 1e-007 1 1 0
1  18 0 0 7
2  35 2 8 0 7
2  36 5 5 0 7
0

0101000
+101 8 -132 8 *
Wi

0101000
+100 0 -131 0 -95 3 +94 7 *
Fa
0  1e-007 2 0

0101000
+93 0 *
Ve
1e-007
5.5 -49.5 5
0 0

0101101
*
Ve
1e-007
5.5 -49.5 16
0 0

0101101
*
Ed
 1e-007 1 1 0
1  19 0 0 11
3  37 38CN 9 0 0 11
0

0101000
+91 0 -90 0 *
Ed
 1e-007 1 1 0
1  20 0 0 6.28318530717959
2  39 9 4 0 6.28318530717959
2  40 4 5 0 6.28318530717959
0

0101100
+91 4 -91 4 *
Ed
 1e-007 1 1 0
1  21 0 0 6.28318530717959
2  41 9 8 0 6.28318530717959
2  42 5 5 0 6.28318530717959
0

0101100
+90 8 -90 8 *
Wi

0101000
+89 0 -89 0 -88 3 +87 7 *
Fa
0  1e-007 9 0

0101000
+86 0 *
Ve
1e-007
-4.5 -49.5 5
0 0

0101101
*
Ve
1e-007
-4.5 -49.5 16
0 0

0101101
*
Ed
 1e-007 1 1 0
1  22 0 0 11
3  43 44CN 10 0 0 11
0

0101000
+84 0 -83 0 *
Ed
 1e-007 1 1 0
1  23 0 0 6.28318530717959
2  45 10 4 0 6.28318530717959
2  46 4 5 0 6.28318530717959
0

0101100
+84 4 -84 4 *
Ed
 1e-007 1 1 0
1  24 0 0 6.28318530717959
2  47 10 8 0 6.28318530717959
2  48 5 5 0 6.28318530717959
0

0101100
+83 8 -83 8 *
Wi

0101000
+82 0 -82 0 -81 3 +80 7 *
Fa
0  1e-007 10 0

0101000
+79 0 *
Wi

0101100
+127 0 +120 0 +113 0 +106 0 +99 0 +95 0 *
Wi

0101100
+88 0 *
Wi

0101100
+81 0 *
Fa
0  1e-007 4 0

0101000
-77 1 -76 1 -75 1 *
Wi

0101100
+126 0 +119 0 +112 0 +105 0 +98 0 +94 0 *
Wi

0101100
+87 0 *
Wi

0101100
+80 0 *
Fa
0  1e-007 5 0

0101000
-73 1 -72 1 -71 1 *
Sh

0101000
-124 0 -117 0 -110 0 -103 0 -96 0 -92 0 -85 0 -78 0 +74 9 -70 10 
*
So

0100000
-69 0 *
Ve
1e-007
-9 2 5
0 0

0101101
*
Ve
1e-007
-9 2 16
0 0

0101101
*
Ed
 1e-007 1 1 0
1  25 0 0 11
2  49 11 0 0 11
2  50 12 0 0 11
0

0101000
+67 0 -66 0 *
Ve
1e-007
9 2 5
0 0

0101101
*
Ve
1e-007
9 2 16
0 0

0101101
*
Ed
 1e-007 1 1 0
1  26 0 0 11
2  51 11 0 0 11
2  52 13 0 0 11
0

0101000
+64 0 -63 0 *
Ed
 1e-007 1 1 0
1  27 0 0 18
2  53 11 4 0 18
2  54 14 5 0 18
0

0101000
+67 4 -64 4 *
Ed
 1e-007 1 1 0
1  28 0 0 18
2  55 11 8 0 18
2  56 15 5 0 18
0

0101000
+66 8 -63 8 *
Wi

0101000
+65 0 -62 0 -61 3 +60 7 *
Fa
0  1e-007 11 0

0101000
+59 0 *
Ve
1e-007
9 -5 5
0 0

0101101
*
Ve
1e-007
9 -5 16
0 0

0101101
*
Ed
 1e-007 1 1 0
1  29 0 0 11
2  57 13 0 0 11
2  58 16 0 0 11
0

0101000
+57 0 -56 0 *
Ed
 1e-007 1 1 0
1  30 0 0 7
2  59 13 4 0 7
2  60 14 5 0 7
0

0101000
+64 4 -57 4 *
Ed
 1e-007 1 1 0
1  31 0 0 7
2  61 13 8 0 7
2  62 15 5 0 7
0

0101000
+63 8 -56 8 *
Wi

0101000
+62 0 -55 0 -54 3 +53 7 *
Fa
0  1e-007 13 0

0101000
+52 0 *
Ve
1e-007
3 -5 5
0 0

0101101
*
Ve
1e-007
3 -5 16
0 0

0101101
*
Ed
 1e-007 1 1 0
1  32 0 0 11
2  63 16 0 0 11
2  64 17 0 0 11
0

0101000
+50 0 -49 0 *
Ed
 1e-007 1 1 0
1  33 0 0 6
2  65 16 4 0 6
2  66 14 5 0 6
0

0101000
+57 4 -50 4 *
Ed
 1e-007 1 1 0
1  34 0 0 6
2  67 16 8 0 6
2  68 15 5 0 6
0

0101000
+56 8 -49 8 *
Wi

0101000
+55 0 -48 0 -47 3 +46 7 *
Fa
0  1e-007 16 0

0101000
+45 0 *
Ve
1e-007
-3 -5.00000000000062 5
0 0

0101101
*
Ve
1e-007
-3 -5.00000000000062 16
0 0

0101101
*
Ed
 1e-007 1 1 0
1  35 0 0 11
2  69 17 0 0 11
2  70 18 0 0 11
0

0101000
+43 0 -42 0 *
Ed
 1e-007 1 1 0
1  36 0 0 3.14159265359
2  71 17 4 0 3.14159265359
2  72 14 5 0 3.14159265359
0

0101000
+50 4 -43 4 *
Ed
 1e-007 1 1 0
1  37 0 0 3.14159265359
2  73 17 8 0 3.14159265359
2  74 15 5 0 3.14159265359
0

0101000
+49 8 -42 8 *
Wi

0101000
+48 0 -41 0 -40 3 +39 7 *
Fa
0  1e-007 17 0

0101000
+38 0 *
Ve
1e-007
-9 -5 5
0 0

0101101
*
Ve
1e-007
-9 -5 16
0 0

0101101
*
Ed
 1e-007 1 1 0
1  38 0 0 11
2  75 18 0 0 11
2  76 12 0 0 11
0

0101000
+36 0 -35 0 *
Ed
 1e-007 1 1 0
1  39 0 0 6
2  77 18 4 0 6
2  78 14 5 0 6
0

0101000
+43 4 -36 4 *
Ed
 1e-007 1 1 0
1  40 0 0 6
2  79 18 8 0 6
2  80 15 5 0 6
0

0101000
+42 8 -35 8 *
Wi

0101000
+41 0 -34 0 -33 3 +32 7 *
Fa
0  1e-007 18 0

0101000
+31 0 *
Ed
 1e-007 1 1 0
1  41 0 0 7
2  81 12 4 0 7
2  82 14 5 0 7
0

0101000
+36 4 -67 4 *
Ed
 1e-007 1 1 0
1  42 0 0 7
2  83 12 8 0 7
2  84 15 5 0 7
0

0101000
+35 8 -66 8 *
Wi

0101000
+34 0 -65 0 -29 3 +28 7 *
Fa
0  1e-007 12 0

0101000
+27 0 *
Ve
1e-007
5.5 -1.5 5
0 0

0101101
*
Ve
1e-007
5.5 -1.5 16
0 0

0101101
*
Ed
 1e-007 1 1 0
1  43 0 0 11
3  85 86CN 19 0 0 11
0

0101000
+25 0 -24 0 *
Ed
 1e-007 1 1 0
1  44 0 0 6.28318530717959
2  87 19 4 0 6.28318530717959
2  88 14 5 0 6.28318530717959
0

0101100
+25 4 -25 4 *
Ed
 1e-007 1 1 0
1  45 0 0 6.28318530717959
2  89 19 8 0 6.28318530717959
2  90 15 5 0 6.28318530717959
0

0101100
+24 8 -24 8 *
Wi

0101000
+23 0 -23 0 -22 3 +21 7 *
Fa
0  1e-007 19 0

0101000
+20 0 *
Ve
1e-007
-4.5 -1.5 5
0 0

0101101
*
Ve
1e-007
-4.5 -1.5 16
0 0

0101101
*
Ed
 1e-007 1 1 0
1  46 0 0 11
3  91 92CN 20 0 0 11
0

0101000
+18 0 -17 0 *
Ed
 1e-007 1 1 0
1  47 0 0 6.28318530717959
2  93 20 4 0 6.28318530717959
2  94 14 5 0 6.28318530717959
0

0101100
+18 4 -18 4 *
Ed
 1e-007 1 1 0
1  48 0 0 6.28318530717959
2  95 20 8 0 6.28318530717959
2  96 15 5 0 6.28318530717959
0

0101100
+17 8 -17 8 *
Wi

0101000
+16 0 -16 0 -15 3 +14 7 *
Fa
0  1e-007 20 0

0101000
+13 0 *
Wi

0101100
+61 0 +54 0 +47 0 +40 0 +33 0 +29 0 *
Wi

0101100
+22 0 *
Wi

0101100
+15 0 *
Fa
0  1e-007 14 0

0101000
-11 1 -10 1 -9 1 *
Wi

0101100
+60 0 +53 0 +46 0 +39 0 +32 0 +28 0 *
Wi

0101100
+21 0 *
Wi

0101100
+14 0 *
Fa
0  1e-007 15 0

0101000
-7 1 -6 1 -5 1 *
Sh

0101000
-58 0 -51 0 -44 0 -37 0 -30 0 -26 0 -19 0 -12 0 +8 9 -4 10 
*
So

0100000
-3 0 *
Co

1100000
+68 0 +2 0 *

+1 0 