<?xml version="1.0" encoding="UTF-8" standalone="no"?>
<svg
   xmlns:dc="http://purl.org/dc/elements/1.1/"
   xmlns:cc="http://creativecommons.org/ns#"
   xmlns:rdf="http://www.w3.org/1999/02/22-rdf-syntax-ns#"
   xmlns:svg="http://www.w3.org/2000/svg"
   xmlns="http://www.w3.org/2000/svg"
   xmlns:sodipodi="http://sodipodi.sourceforge.net/DTD/sodipodi-0.dtd"
   xmlns:inkscape="http://www.inkscape.org/namespaces/inkscape"
   version="1.1"
   width="29.700220cm"
   height="21.000720cm"
   viewBox="0 0 116930 82680"
   id="svg500"
   sodipodi:docname="e-p-wifi-lf-PTH-drl_map.svg"
   inkscape:version="0.92.3 (2405546, 2018-03-11)">
  <metadata
     id="metadata506">
    <rdf:RDF>
      <cc:Work
         rdf:about="">
        <dc:format>image/svg+xml</dc:format>
        <dc:type
           rdf:resource="http://purl.org/dc/dcmitype/StillImage" />
      </cc:Work>
    </rdf:RDF>
  </metadata>
  <defs
     id="defs504" />
  <sodipodi:namedview
     pagecolor="#ffffff"
     bordercolor="#666666"
     borderopacity="1"
     objecttolerance="10"
     gridtolerance="10"
     guidetolerance="10"
     inkscape:pageopacity="0"
     inkscape:pageshadow="2"
     inkscape:window-width="1853"
     inkscape:window-height="1025"
     id="namedview502"
     showgrid="false"
     inkscape:zoom="1.0230205"
     inkscape:cx="561.264"
     inkscape:cy="396.86398"
     inkscape:window-x="67"
     inkscape:window-y="27"
     inkscape:window-maximized="1"
     inkscape:current-layer="svg500" />
  <title
     id="title2">SVG Picture created as e-p-wifi-lf-PTH-drl_map.svg date 2021/12/14 18:49:53 </title>
  <desc
     id="desc4">Picture generated by PCBNEW </desc>
  <g
     style="fill:#000000; fill-opacity:1;stroke:#000000; stroke-opacity:1; stroke-linecap:round; stroke-linejoin:round;"
     transform="translate(0 0) scale(1 1)"
     id="g6" />
  <g
     style="fill:#000000; fill-opacity:0.0;  stroke:#000000; stroke-width:-0.000393701; stroke-opacity:1;  stroke-linecap:round; stroke-linejoin:round;"
     id="g8" />
  <g
     style="fill:#000000;fill-opacity:0;stroke:#000000;stroke-width:196.85040283;stroke-linecap:round;stroke-linejoin:round;stroke-miterlimit:4;stroke-dasharray:none;stroke-opacity:1"
     id="g26"
     inkscape:export-xdpi="163"
     inkscape:export-ydpi="163">
    <path
       d="M 37500,53000 H 35000"
       id="path10"
       inkscape:connector-curvature="0"
       style="stroke-width:196.85040283;stroke-miterlimit:4;stroke-dasharray:none" />
    <path
       d="M 37500,43000 V 53000"
       id="path12"
       inkscape:connector-curvature="0"
       style="stroke-width:196.85040283;stroke-miterlimit:4;stroke-dasharray:none" />
    <path
       d="m 35000,43000 h 2500"
       id="path14"
       inkscape:connector-curvature="0"
       style="stroke-width:196.85040283;stroke-miterlimit:4;stroke-dasharray:none" />
    <path
       d="M 16000,43000 H 31000"
       id="path16"
       inkscape:connector-curvature="0"
       style="stroke-width:196.85040283;stroke-miterlimit:4;stroke-dasharray:none" />
    <path
       d="M 16000,53000 H 31000"
       id="path18"
       inkscape:connector-curvature="0"
       style="stroke-width:196.85040283;stroke-miterlimit:4;stroke-dasharray:none" />
    <path
       d="M 16000,43000 V 53000"
       id="path20"
       inkscape:connector-curvature="0"
       style="stroke-width:196.85040283;stroke-miterlimit:4;stroke-dasharray:none" />
    <path
       d="M 35000,53000 H 31000"
       id="path22"
       inkscape:connector-curvature="0"
       style="stroke-width:196.85040283;stroke-miterlimit:4;stroke-dasharray:none" />
    <path
       d="m 31000,43000 h 4000"
       id="path24"
       inkscape:connector-curvature="0"
       style="stroke-width:196.85040283;stroke-miterlimit:4;stroke-dasharray:none" />
  </g>
  <g
     style="fill:#000000;fill-opacity:0;stroke:#000000;stroke-width:78.74019623;stroke-linecap:round;stroke-linejoin:round;stroke-opacity:1"
     id="g156"
     inkscape:export-xdpi="163"
     inkscape:export-ydpi="163">
    <path
       d="m 18762,50362 275,275"
       id="path28"
       inkscape:connector-curvature="0" />
    <path
       d="m 19037,50362 -275,275"
       id="path30"
       inkscape:connector-curvature="0" />
    <path
       d="m 20762,50362 275,275"
       id="path32"
       inkscape:connector-curvature="0" />
    <path
       d="m 21037,50362 -275,275"
       id="path34"
       inkscape:connector-curvature="0" />
    <path
       d="m 24862,50262 275,275"
       id="path36"
       inkscape:connector-curvature="0" />
    <path
       d="m 25137,50262 -275,275"
       id="path38"
       inkscape:connector-curvature="0" />
    <path
       d="m 26862,50262 275,275"
       id="path40"
       inkscape:connector-curvature="0" />
    <path
       d="m 27137,50262 -275,275"
       id="path42"
       inkscape:connector-curvature="0" />
    <path
       d="m 24362,47562 275,275"
       id="path44"
       inkscape:connector-curvature="0" />
    <path
       d="m 24637,47562 -275,275"
       id="path46"
       inkscape:connector-curvature="0" />
    <path
       d="m 24862,48062 275,275"
       id="path48"
       inkscape:connector-curvature="0" />
    <path
       d="m 25137,48062 -275,275"
       id="path50"
       inkscape:connector-curvature="0" />
    <path
       d="m 25362,47562 275,275"
       id="path52"
       inkscape:connector-curvature="0" />
    <path
       d="m 25637,47562 -275,275"
       id="path54"
       inkscape:connector-curvature="0" />
    <circle
       cx="31000"
       cy="46000"
       r="157.48"
       id="circle56" />
    <circle
       cx="31000"
       cy="47000"
       r="157.48"
       id="circle58" />
    <circle
       cx="31000"
       cy="48000"
       r="157.48"
       id="circle60" />
    <circle
       cx="31000"
       cy="49000"
       r="157.48"
       id="circle62" />
    <circle
       cx="32000"
       cy="46500"
       r="157.48"
       id="circle64" />
    <circle
       cx="32000"
       cy="47500"
       r="157.48"
       id="circle66" />
    <circle
       cx="32000"
       cy="48500"
       r="157.48"
       id="circle68" />
    <circle
       cx="32000"
       cy="49500"
       r="157.48"
       id="circle70" />
    <circle
       cx="18020.5"
       cy="46900"
       r="157.48"
       id="circle72" />
    <circle
       cx="20579.5"
       cy="46900"
       r="157.48"
       id="circle74" />
    <path
       d="m 17500,50303 v 393"
       id="path76"
       inkscape:connector-curvature="0" />
    <path
       d="m 17303,50500 h 393"
       id="path78"
       inkscape:connector-curvature="0" />
    <path
       d="m 33300,44553 v 393"
       id="path80"
       inkscape:connector-curvature="0" />
    <path
       d="m 33103,44750 h 393"
       id="path82"
       inkscape:connector-curvature="0" />
    <path
       d="m 33300,50553 v 393"
       id="path84"
       inkscape:connector-curvature="0" />
    <path
       d="m 33103,50750 h 393"
       id="path86"
       inkscape:connector-curvature="0" />
    <path
       d="m 22000,43803 v 393"
       id="path88"
       inkscape:connector-curvature="0" />
    <path
       d="m 21803,44000 h 393"
       id="path90"
       inkscape:connector-curvature="0" />
    <path
       d="m 22000,51803 v 393"
       id="path92"
       inkscape:connector-curvature="0" />
    <path
       d="m 21803,52000 h 393"
       id="path94"
       inkscape:connector-curvature="0" />
    <path
       d="m 23000,43803 v 393"
       id="path96"
       inkscape:connector-curvature="0" />
    <path
       d="m 22803,44000 h 393"
       id="path98"
       inkscape:connector-curvature="0" />
    <path
       d="m 23000,51803 v 393"
       id="path100"
       inkscape:connector-curvature="0" />
    <path
       d="m 22803,52000 h 393"
       id="path102"
       inkscape:connector-curvature="0" />
    <path
       d="m 24000,43803 v 393"
       id="path104"
       inkscape:connector-curvature="0" />
    <path
       d="m 23803,44000 h 393"
       id="path106"
       inkscape:connector-curvature="0" />
    <path
       d="m 24000,51803 v 393"
       id="path108"
       inkscape:connector-curvature="0" />
    <path
       d="m 23803,52000 h 393"
       id="path110"
       inkscape:connector-curvature="0" />
    <path
       d="m 25000,43803 v 393"
       id="path112"
       inkscape:connector-curvature="0" />
    <path
       d="m 24803,44000 h 393"
       id="path114"
       inkscape:connector-curvature="0" />
    <path
       d="m 25000,51803 v 393"
       id="path116"
       inkscape:connector-curvature="0" />
    <path
       d="m 24803,52000 h 393"
       id="path118"
       inkscape:connector-curvature="0" />
    <path
       d="m 26000,43803 v 393"
       id="path120"
       inkscape:connector-curvature="0" />
    <path
       d="m 25803,44000 h 393"
       id="path122"
       inkscape:connector-curvature="0" />
    <path
       d="m 26000,51803 v 393"
       id="path124"
       inkscape:connector-curvature="0" />
    <path
       d="m 25803,52000 h 393"
       id="path126"
       inkscape:connector-curvature="0" />
    <path
       d="m 27000,43803 v 393"
       id="path128"
       inkscape:connector-curvature="0" />
    <path
       d="m 26803,44000 h 393"
       id="path130"
       inkscape:connector-curvature="0" />
    <path
       d="m 27000,51803 v 393"
       id="path132"
       inkscape:connector-curvature="0" />
    <path
       d="m 26803,52000 h 393"
       id="path134"
       inkscape:connector-curvature="0" />
    <path
       d="m 28000,43803 v 393"
       id="path136"
       inkscape:connector-curvature="0" />
    <path
       d="m 27803,44000 h 393"
       id="path138"
       inkscape:connector-curvature="0" />
    <path
       d="m 28000,51803 v 393"
       id="path140"
       inkscape:connector-curvature="0" />
    <path
       d="m 27803,52000 h 393"
       id="path142"
       inkscape:connector-curvature="0" />
    <path
       d="m 29000,43803 v 393"
       id="path144"
       inkscape:connector-curvature="0" />
    <path
       d="m 28803,44000 h 393"
       id="path146"
       inkscape:connector-curvature="0" />
    <path
       d="m 29000,51803 v 393"
       id="path148"
       inkscape:connector-curvature="0" />
    <path
       d="m 28803,52000 h 393"
       id="path150"
       inkscape:connector-curvature="0" />
    <path
       style="fill:none;fill-opacity:0;stroke:#000000;stroke-width:78.74019623;stroke-linecap:round;stroke-linejoin:round;stroke-opacity:1"
       d="m 34945.4,45945.4 v -890.8 h -890.8 v 890.8 z"
       id="path152"
       inkscape:connector-curvature="0" />
    <path
       style="fill:none;fill-opacity:0;stroke:#000000;stroke-width:78.74019623;stroke-linecap:round;stroke-linejoin:round;stroke-opacity:1"
       d="m 34500,50629.9 629.9,-629.9 -629.9,-629.9 -629.9,629.9 z"
       id="path154"
       inkscape:connector-curvature="0" />
  </g>
  <g
     style="fill:#000000;fill-opacity:0;stroke:#000000;stroke-width:118.11000061;stroke-linecap:round;stroke-linejoin:round;stroke-opacity:1"
     id="g498"
     inkscape:export-xdpi="163"
     inkscape:export-ydpi="163">
    <text
       x="16777.6"
       y="54899.602"
       textLength="8779.5303"
       font-size="1574.8"
       lengthAdjust="spacingAndGlyphs"
       id="text158"
       style="font-size:1574.80004883px;text-anchor:start;opacity:0">Drill Map:</text>
    <path
       d="m 17117,54843 v -1181 h 282 l 168,56 113,112 56,113 56,225 v 169 l -56,225 -56,112 -113,113 -168,56 h -282"
       id="path160"
       inkscape:connector-curvature="0" />
    <path
       d="m 18298,54843 v -788"
       id="path162"
       inkscape:connector-curvature="0" />
    <path
       d="m 18298,54280 57,-112 56,-56 112,-57 h 113"
       id="path164"
       inkscape:connector-curvature="0" />
    <path
       d="m 19030,54843 v -788"
       id="path166"
       inkscape:connector-curvature="0" />
    <path
       d="m 19030,53662 -57,56 57,56 56,-56 -56,-56 v 112"
       id="path168"
       inkscape:connector-curvature="0" />
    <path
       d="m 19761,54843 -113,-56 -56,-113 v -1012"
       id="path170"
       inkscape:connector-curvature="0" />
    <path
       d="m 20379,54843 -112,-56 -56,-113 v -1012"
       id="path172"
       inkscape:connector-curvature="0" />
    <path
       d="m 21729,54843 v -1181 l 394,843 394,-843 v 1181"
       id="path174"
       inkscape:connector-curvature="0" />
    <path
       d="m 23585,54843 v -619 l -56,-112 -112,-57 h -225 l -113,57"
       id="path176"
       inkscape:connector-curvature="0" />
    <path
       d="m 23585,54787 -112,56 h -281 l -113,-56 -56,-113 v -112 l 56,-113 113,-56 h 281 l 112,-56"
       id="path178"
       inkscape:connector-curvature="0" />
    <path
       d="m 24148,54055 v 1182"
       id="path180"
       inkscape:connector-curvature="0" />
    <path
       d="m 24148,54112 112,-57 h 225 l 113,57 56,56 56,112 v 338 l -56,112 -56,57 -113,56 h -225 l -112,-56"
       id="path182"
       inkscape:connector-curvature="0" />
    <path
       d="m 25216,54730 57,57 -57,56 -56,-56 56,-57 v 113"
       id="path184"
       inkscape:connector-curvature="0" />
    <path
       d="m 25216,54112 57,56 -57,56 -56,-56 56,-56 v 112"
       id="path186"
       inkscape:connector-curvature="0" />
    <path
       d="m 15714,56651 276,276"
       id="path188"
       inkscape:connector-curvature="0" />
    <path
       d="m 15990,56651 -276,276"
       id="path190"
       inkscape:connector-curvature="0" />
    <text
       x="16777.6"
       y="57379.898"
       textLength="25427.4"
       font-size="1574.8"
       lengthAdjust="spacingAndGlyphs"
       id="text192"
       style="font-size:1574.80004883px;text-anchor:start;opacity:0">0.70mm / 0.028&quot; (7 holes)</text>
    <path
       d="m 17342,56142 h 113 l 112,56 57,57 56,112 56,225 v 281 l -56,225 -56,113 -57,56 -112,56 h -113 l -112,-56 -56,-56 -57,-113 -56,-225 v -281 l 56,-225 57,-112 56,-57 112,-56"
       id="path194"
       inkscape:connector-curvature="0" />
    <path
       d="m 18242,57211 56,56 -56,56 -56,-56 56,-56 v 112"
       id="path196"
       inkscape:connector-curvature="0" />
    <path
       d="m 18692,56142 h 788 l -507,1181"
       id="path198"
       inkscape:connector-curvature="0" />
    <path
       d="m 20154,56142 h 113 l 112,56 57,57 56,112 56,225 v 281 l -56,225 -56,113 -57,56 -112,56 h -113 l -112,-56 -56,-56 -57,-113 -56,-225 v -281 l 56,-225 57,-112 56,-57 112,-56"
       id="path200"
       inkscape:connector-curvature="0" />
    <path
       d="m 21054,57323 v -787"
       id="path202"
       inkscape:connector-curvature="0" />
    <path
       d="m 21054,56648 57,-56 112,-56 h 169 l 112,56 57,113 v 618"
       id="path204"
       inkscape:connector-curvature="0" />
    <path
       d="m 21561,56705 56,-113 112,-56 h 169 l 112,56 57,113 v 618"
       id="path206"
       inkscape:connector-curvature="0" />
    <path
       d="m 22629,57323 v -787"
       id="path208"
       inkscape:connector-curvature="0" />
    <path
       d="m 22629,56648 56,-56 113,-56 h 169 l 112,56 56,113 v 618"
       id="path210"
       inkscape:connector-curvature="0" />
    <path
       d="m 23135,56705 57,-113 112,-56 h 169 l 112,56 57,113 v 618"
       id="path212"
       inkscape:connector-curvature="0" />
    <path
       d="m 25947,56086 -1012,1518"
       id="path214"
       inkscape:connector-curvature="0" />
    <path
       d="m 27466,56142 h 113 l 112,56 56,57 56,112 57,225 v 281 l -57,225 -56,113 -56,56 -112,56 h -113 l -112,-56 -57,-56 -56,-113 -56,-225 v -281 l 56,-225 56,-112 57,-57 112,-56"
       id="path216"
       inkscape:connector-curvature="0" />
    <path
       d="m 28366,57211 56,56 -56,56 -56,-56 56,-56 v 112"
       id="path218"
       inkscape:connector-curvature="0" />
    <path
       d="m 29153,56142 h 113 l 112,56 57,57 56,112 56,225 v 281 l -56,225 -56,113 -57,56 -112,56 h -113 l -112,-56 -56,-56 -57,-113 -56,-225 v -281 l 56,-225 57,-112 56,-57 112,-56"
       id="path220"
       inkscape:connector-curvature="0" />
    <path
       d="m 29997,56255 56,-57 113,-56 h 281 l 112,56 57,57 56,112 v 113 l -56,168 -675,675 h 731"
       id="path222"
       inkscape:connector-curvature="0" />
    <path
       d="m 31347,56648 -113,-56 -56,-56 -56,-113 v -56 l 56,-112 56,-57 113,-56 h 225 l 112,56 57,57 56,112 v 56 l -56,113 -57,56 -112,56 h -225 l -113,57 -56,56 -56,112 v 225 l 56,113 56,56 113,56 h 225 l 112,-56 57,-56 56,-113 v -225 l -56,-112 -57,-56 -112,-57"
       id="path224"
       inkscape:connector-curvature="0" />
    <path
       d="m 32247,56142 v 225"
       id="path226"
       inkscape:connector-curvature="0" />
    <path
       d="m 32697,56142 v 225"
       id="path228"
       inkscape:connector-curvature="0" />
    <path
       d="m 34440,57773 -56,-56 -113,-169 -56,-112 -56,-169 -56,-281 v -225 l 56,-281 56,-169 56,-113 113,-168 56,-57"
       id="path230"
       inkscape:connector-curvature="0" />
    <path
       d="m 34778,56142 h 787 l -506,1181"
       id="path232"
       inkscape:connector-curvature="0" />
    <path
       d="M 36915,57323 V 56142"
       id="path234"
       inkscape:connector-curvature="0" />
    <path
       d="m 37421,57323 v -618 l -56,-113 -113,-56 h -168 l -113,56 -56,56"
       id="path236"
       inkscape:connector-curvature="0" />
    <path
       d="m 38152,57323 -112,-56 -57,-56 -56,-113 v -337 l 56,-113 57,-56 112,-56 h 169 l 112,56 57,56 56,113 v 337 l -56,113 -57,56 -112,56 h -169"
       id="path238"
       inkscape:connector-curvature="0" />
    <path
       d="m 39221,57323 -113,-56 -56,-113 v -1012"
       id="path240"
       inkscape:connector-curvature="0" />
    <path
       d="m 40121,57267 -113,56 h -225 l -112,-56 -56,-113 v -449 l 56,-113 112,-56 h 225 l 113,56 56,113 v 112 l -562,112"
       id="path242"
       inkscape:connector-curvature="0" />
    <path
       d="m 40627,57267 112,56 h 225 l 113,-56 56,-113 v -56 l -56,-112 -113,-57 h -168 l -113,-56 -56,-112 v -56 l 56,-113 113,-56 h 168 l 113,56"
       id="path244"
       inkscape:connector-curvature="0" />
    <path
       d="m 41527,57773 56,-56 113,-169 56,-112 56,-169 56,-281 v -225 l -56,-281 -56,-169 -56,-113 -113,-168 -56,-57"
       id="path246"
       inkscape:connector-curvature="0" />
    <circle
       cx="15832.7"
       cy="58348.398"
       r="157.48"
       id="circle248" />
    <text
       x="16777.6"
       y="58939"
       textLength="26552.301"
       font-size="1574.8"
       lengthAdjust="spacingAndGlyphs"
       id="text250"
       style="font-size:1574.80004883px;text-anchor:start;opacity:0">0.80mm / 0.031&quot; (10 holes)</text>
    <path
       d="m 17342,57701 h 113 l 112,56 57,57 56,112 56,225 v 281 l -56,225 -56,113 -57,56 -112,56 h -113 l -112,-56 -56,-56 -57,-113 -56,-225 v -281 l 56,-225 57,-112 56,-57 112,-56"
       id="path252"
       inkscape:connector-curvature="0" />
    <path
       d="m 18242,58770 56,56 -56,56 -56,-56 56,-56 v 112"
       id="path254"
       inkscape:connector-curvature="0" />
    <path
       d="m 18973,58207 -112,-56 -56,-56 -57,-113 v -56 l 57,-112 56,-57 112,-56 h 225 l 113,56 56,57 56,112 v 56 l -56,113 -56,56 -113,56 h -225 l -112,57 -56,56 -57,112 v 225 l 57,113 56,56 112,56 h 225 l 113,-56 56,-56 56,-113 v -225 l -56,-112 -56,-56 -113,-57"
       id="path256"
       inkscape:connector-curvature="0" />
    <path
       d="m 20154,57701 h 113 l 112,56 57,57 56,112 56,225 v 281 l -56,225 -56,113 -57,56 -112,56 h -113 l -112,-56 -56,-56 -57,-113 -56,-225 v -281 l 56,-225 57,-112 56,-57 112,-56"
       id="path258"
       inkscape:connector-curvature="0" />
    <path
       d="m 21054,58882 v -787"
       id="path260"
       inkscape:connector-curvature="0" />
    <path
       d="m 21054,58207 57,-56 112,-56 h 169 l 112,56 57,113 v 618"
       id="path262"
       inkscape:connector-curvature="0" />
    <path
       d="m 21561,58264 56,-113 112,-56 h 169 l 112,56 57,113 v 618"
       id="path264"
       inkscape:connector-curvature="0" />
    <path
       d="m 22629,58882 v -787"
       id="path266"
       inkscape:connector-curvature="0" />
    <path
       d="m 22629,58207 56,-56 113,-56 h 169 l 112,56 56,113 v 618"
       id="path268"
       inkscape:connector-curvature="0" />
    <path
       d="m 23135,58264 57,-113 112,-56 h 169 l 112,56 57,113 v 618"
       id="path270"
       inkscape:connector-curvature="0" />
    <path
       d="m 25947,57645 -1012,1518"
       id="path272"
       inkscape:connector-curvature="0" />
    <path
       d="m 27466,57701 h 113 l 112,56 56,57 56,112 57,225 v 281 l -57,225 -56,113 -56,56 -112,56 h -113 l -112,-56 -57,-56 -56,-113 -56,-225 v -281 l 56,-225 56,-112 57,-57 112,-56"
       id="path274"
       inkscape:connector-curvature="0" />
    <path
       d="m 28366,58770 56,56 -56,56 -56,-56 56,-56 v 112"
       id="path276"
       inkscape:connector-curvature="0" />
    <path
       d="m 29153,57701 h 113 l 112,56 57,57 56,112 56,225 v 281 l -56,225 -56,113 -57,56 -112,56 h -113 l -112,-56 -56,-56 -57,-113 -56,-225 v -281 l 56,-225 57,-112 56,-57 112,-56"
       id="path278"
       inkscape:connector-curvature="0" />
    <path
       d="m 29941,57701 h 731 l -394,450 h 169 l 112,56 57,57 56,112 v 281 l -56,113 -57,56 -112,56 h -338 l -112,-56 -56,-56"
       id="path280"
       inkscape:connector-curvature="0" />
    <path
       d="m 31797,58882 h -675"
       id="path282"
       inkscape:connector-curvature="0" />
    <path
       d="m 31459,58882 v -1181 l -112,169 -113,112 -112,57"
       id="path284"
       inkscape:connector-curvature="0" />
    <path
       d="m 32247,57701 v 225"
       id="path286"
       inkscape:connector-curvature="0" />
    <path
       d="m 32697,57701 v 225"
       id="path288"
       inkscape:connector-curvature="0" />
    <path
       d="m 34440,59332 -56,-56 -113,-169 -56,-112 -56,-169 -56,-281 v -225 l 56,-281 56,-169 56,-113 113,-168 56,-57"
       id="path290"
       inkscape:connector-curvature="0" />
    <path
       d="m 35509,58882 h -675"
       id="path292"
       inkscape:connector-curvature="0" />
    <path
       d="m 35171,58882 v -1181 l -112,169 -113,112 -112,57"
       id="path294"
       inkscape:connector-curvature="0" />
    <path
       d="m 36240,57701 h 112 l 113,56 56,57 56,112 57,225 v 281 l -57,225 -56,113 -56,56 -113,56 h -112 l -113,-56 -56,-56 -56,-113 -56,-225 v -281 l 56,-225 56,-112 56,-57 113,-56"
       id="path296"
       inkscape:connector-curvature="0" />
    <path
       d="M 38040,58882 V 57701"
       id="path298"
       inkscape:connector-curvature="0" />
    <path
       d="m 38546,58882 v -618 l -56,-113 -113,-56 h -169 l -112,56 -56,56"
       id="path300"
       inkscape:connector-curvature="0" />
    <path
       d="m 39277,58882 -112,-56 -57,-56 -56,-113 v -337 l 56,-113 57,-56 112,-56 h 169 l 112,56 57,56 56,113 v 337 l -56,113 -57,56 -112,56 h -169"
       id="path302"
       inkscape:connector-curvature="0" />
    <path
       d="m 40346,58882 -113,-56 -56,-112 v -1013"
       id="path304"
       inkscape:connector-curvature="0" />
    <path
       d="m 41246,58826 -113,56 h -225 l -112,-56 -57,-112 v -450 l 57,-113 112,-56 h 225 l 113,56 56,113 v 112 l -563,113"
       id="path306"
       inkscape:connector-curvature="0" />
    <path
       d="m 41752,58826 112,56 h 225 l 113,-56 56,-112 v -57 l -56,-112 -113,-56 h -169 l -112,-57 -56,-112 v -56 l 56,-113 112,-56 h 169 l 113,56"
       id="path308"
       inkscape:connector-curvature="0" />
    <path
       d="m 42652,59332 56,-56 112,-169 57,-112 56,-169 56,-281 v -225 l -56,-281 -56,-169 -57,-113 -112,-168 -56,-57"
       id="path310"
       inkscape:connector-curvature="0" />
    <path
       d="m 15793,59710 v 394"
       id="path312"
       inkscape:connector-curvature="0" />
    <path
       d="m 15596,59907 h 394"
       id="path314"
       inkscape:connector-curvature="0" />
    <text
       x="16777.6"
       y="60498"
       textLength="26552.301"
       font-size="1574.8"
       lengthAdjust="spacingAndGlyphs"
       id="text316"
       style="font-size:1574.80004883px;text-anchor:start;opacity:0">1.00mm / 0.039&quot; (19 holes)</text>
    <path
       d="m 17736,60441 h -675"
       id="path318"
       inkscape:connector-curvature="0" />
    <path
       d="m 17399,60441 v -1181 l -113,169 -112,112 -113,57"
       id="path320"
       inkscape:connector-curvature="0" />
    <path
       d="m 18242,60329 56,56 -56,56 -56,-56 56,-56 v 112"
       id="path322"
       inkscape:connector-curvature="0" />
    <path
       d="m 19030,59260 h 112 l 113,56 56,57 56,112 56,225 v 281 l -56,225 -56,113 -56,56 -113,56 h -112 l -113,-56 -56,-56 -56,-113 -57,-225 v -281 l 57,-225 56,-112 56,-57 113,-56"
       id="path324"
       inkscape:connector-curvature="0" />
    <path
       d="m 20154,59260 h 113 l 112,56 57,57 56,112 56,225 v 281 l -56,225 -56,113 -57,56 -112,56 h -113 l -112,-56 -56,-56 -57,-113 -56,-225 v -281 l 56,-225 57,-112 56,-57 112,-56"
       id="path326"
       inkscape:connector-curvature="0" />
    <path
       d="m 21054,60441 v -787"
       id="path328"
       inkscape:connector-curvature="0" />
    <path
       d="m 21054,59766 57,-56 112,-56 h 169 l 112,56 57,113 v 618"
       id="path330"
       inkscape:connector-curvature="0" />
    <path
       d="m 21561,59823 56,-113 112,-56 h 169 l 112,56 57,113 v 618"
       id="path332"
       inkscape:connector-curvature="0" />
    <path
       d="m 22629,60441 v -787"
       id="path334"
       inkscape:connector-curvature="0" />
    <path
       d="m 22629,59766 56,-56 113,-56 h 169 l 112,56 56,113 v 618"
       id="path336"
       inkscape:connector-curvature="0" />
    <path
       d="m 23135,59823 57,-113 112,-56 h 169 l 112,56 57,113 v 618"
       id="path338"
       inkscape:connector-curvature="0" />
    <path
       d="m 25947,59204 -1012,1519"
       id="path340"
       inkscape:connector-curvature="0" />
    <path
       d="m 27466,59260 h 113 l 112,56 56,57 56,112 57,225 v 281 l -57,225 -56,113 -56,56 -112,56 h -113 l -112,-56 -57,-56 -56,-113 -56,-225 v -281 l 56,-225 56,-112 57,-57 112,-56"
       id="path342"
       inkscape:connector-curvature="0" />
    <path
       d="m 28366,60329 56,56 -56,56 -56,-56 56,-56 v 112"
       id="path344"
       inkscape:connector-curvature="0" />
    <path
       d="m 29153,59260 h 113 l 112,56 57,57 56,112 56,225 v 281 l -56,225 -56,113 -57,56 -112,56 h -113 l -112,-56 -56,-56 -57,-113 -56,-225 v -281 l 56,-225 57,-112 56,-57 112,-56"
       id="path346"
       inkscape:connector-curvature="0" />
    <path
       d="m 29941,59260 h 731 l -394,450 h 169 l 112,56 57,57 56,112 v 281 l -56,113 -57,56 -112,56 h -338 l -112,-56 -56,-56"
       id="path348"
       inkscape:connector-curvature="0" />
    <path
       d="m 31234,60441 h 225 l 113,-56 56,-56 113,-169 56,-225 v -450 l -56,-112 -57,-57 -112,-56 h -225 l -113,56 -56,57 -56,112 v 281 l 56,113 56,56 113,56 h 225 l 112,-56 57,-56 56,-113"
       id="path350"
       inkscape:connector-curvature="0" />
    <path
       d="m 32247,59260 v 225"
       id="path352"
       inkscape:connector-curvature="0" />
    <path
       d="m 32697,59260 v 225"
       id="path354"
       inkscape:connector-curvature="0" />
    <path
       d="m 34440,60891 -56,-56 -113,-169 -56,-112 -56,-169 -56,-281 v -225 l 56,-281 56,-169 56,-113 113,-168 56,-57"
       id="path356"
       inkscape:connector-curvature="0" />
    <path
       d="m 35509,60441 h -675"
       id="path358"
       inkscape:connector-curvature="0" />
    <path
       d="m 35171,60441 v -1181 l -112,169 -113,112 -112,57"
       id="path360"
       inkscape:connector-curvature="0" />
    <path
       d="m 36071,60441 h 225 l 113,-56 56,-56 112,-169 57,-225 v -450 l -57,-112 -56,-57 -112,-56 h -225 l -113,56 -56,57 -56,112 v 281 l 56,113 56,56 113,56 h 225 l 112,-56 56,-56 57,-113"
       id="path362"
       inkscape:connector-curvature="0" />
    <path
       d="M 38040,60441 V 59260"
       id="path364"
       inkscape:connector-curvature="0" />
    <path
       d="m 38546,60441 v -618 l -56,-113 -113,-56 h -169 l -112,56 -56,56"
       id="path366"
       inkscape:connector-curvature="0" />
    <path
       d="m 39277,60441 -112,-56 -57,-56 -56,-113 v -337 l 56,-113 57,-56 112,-56 h 169 l 112,56 57,56 56,113 v 337 l -56,113 -57,56 -112,56 h -169"
       id="path368"
       inkscape:connector-curvature="0" />
    <path
       d="m 40346,60441 -113,-56 -56,-112 v -1013"
       id="path370"
       inkscape:connector-curvature="0" />
    <path
       d="m 41246,60385 -113,56 h -225 l -112,-56 -57,-112 v -450 l 57,-113 112,-56 h 225 l 113,56 56,113 v 112 l -563,113"
       id="path372"
       inkscape:connector-curvature="0" />
    <path
       d="m 41752,60385 112,56 h 225 l 113,-56 56,-112 v -57 l -56,-112 -113,-56 h -169 l -112,-57 -56,-112 v -56 l 56,-113 112,-56 h 169 l 113,56"
       id="path374"
       inkscape:connector-curvature="0" />
    <path
       d="m 42652,60891 56,-56 112,-169 57,-112 56,-169 56,-281 v -225 l -56,-281 -56,-169 -57,-113 -112,-168 -56,-57"
       id="path376"
       inkscape:connector-curvature="0" />
    <path
       style="fill:none;fill-opacity:0;stroke:#000000;stroke-width:118.11000061;stroke-linecap:round;stroke-linejoin:round;stroke-opacity:1"
       d="m 15805.7,61912 v -890.9 h -890.9 v 890.9 z"
       id="path378"
       inkscape:connector-curvature="0" />
    <text
       x="16777.6"
       y="62057.102"
       textLength="24471.301"
       font-size="1574.8"
       lengthAdjust="spacingAndGlyphs"
       id="text380"
       style="font-size:1574.80004883px;text-anchor:start;opacity:0">3.20mm / 0.126&quot; (1 hole)</text>
    <path
       d="m 17005,60819 h 731 l -394,450 h 169 l 113,56 56,57 56,112 v 281 l -56,113 -56,56 -113,56 h -337 l -113,-56 -56,-56"
       id="path382"
       inkscape:connector-curvature="0" />
    <path
       d="m 18242,61888 56,56 -56,56 -56,-56 56,-56 v 112"
       id="path384"
       inkscape:connector-curvature="0" />
    <path
       d="m 18748,60932 57,-57 112,-56 h 281 l 113,56 56,57 56,112 v 113 l -56,168 -675,675 h 731"
       id="path386"
       inkscape:connector-curvature="0" />
    <path
       d="m 20154,60819 h 113 l 112,56 57,57 56,112 56,225 v 281 l -56,225 -56,113 -57,56 -112,56 h -113 l -112,-56 -56,-56 -57,-113 -56,-225 v -281 l 56,-225 57,-112 56,-57 112,-56"
       id="path388"
       inkscape:connector-curvature="0" />
    <path
       d="m 21054,62000 v -787"
       id="path390"
       inkscape:connector-curvature="0" />
    <path
       d="m 21054,61325 57,-56 112,-56 h 169 l 112,56 57,113 v 618"
       id="path392"
       inkscape:connector-curvature="0" />
    <path
       d="m 21561,61382 56,-113 112,-56 h 169 l 112,56 57,113 v 618"
       id="path394"
       inkscape:connector-curvature="0" />
    <path
       d="m 22629,62000 v -787"
       id="path396"
       inkscape:connector-curvature="0" />
    <path
       d="m 22629,61325 56,-56 113,-56 h 169 l 112,56 56,113 v 618"
       id="path398"
       inkscape:connector-curvature="0" />
    <path
       d="m 23135,61382 57,-113 112,-56 h 169 l 112,56 57,113 v 618"
       id="path400"
       inkscape:connector-curvature="0" />
    <path
       d="m 25947,60763 -1012,1519"
       id="path402"
       inkscape:connector-curvature="0" />
    <path
       d="m 27466,60819 h 113 l 112,56 56,57 56,112 57,225 v 281 l -57,225 -56,113 -56,56 -112,56 h -113 l -112,-56 -57,-56 -56,-113 -56,-225 v -281 l 56,-225 56,-112 57,-57 112,-56"
       id="path404"
       inkscape:connector-curvature="0" />
    <path
       d="m 28366,61888 56,56 -56,56 -56,-56 56,-56 v 112"
       id="path406"
       inkscape:connector-curvature="0" />
    <path
       d="m 29547,62000 h -675"
       id="path408"
       inkscape:connector-curvature="0" />
    <path
       d="m 29210,62000 v -1181 l -113,169 -112,112 -113,57"
       id="path410"
       inkscape:connector-curvature="0" />
    <path
       d="m 29997,60932 56,-57 113,-56 h 281 l 112,56 57,57 56,112 v 113 l -56,168 -675,675 h 731"
       id="path412"
       inkscape:connector-curvature="0" />
    <path
       d="m 31684,60819 h -225 l -112,56 -56,57 -113,168 -56,225 v 450 l 56,113 56,56 113,56 h 225 l 112,-56 57,-56 56,-113 v -281 l -56,-112 -57,-57 -112,-56 h -225 l -113,56 -56,57 -56,112"
       id="path414"
       inkscape:connector-curvature="0" />
    <path
       d="m 32247,60819 v 225"
       id="path416"
       inkscape:connector-curvature="0" />
    <path
       d="m 32697,60819 v 225"
       id="path418"
       inkscape:connector-curvature="0" />
    <path
       d="m 34440,62450 -56,-56 -113,-169 -56,-112 -56,-169 -56,-281 v -225 l 56,-281 56,-169 56,-113 113,-168 56,-56"
       id="path420"
       inkscape:connector-curvature="0" />
    <path
       d="m 35509,62000 h -675"
       id="path422"
       inkscape:connector-curvature="0" />
    <path
       d="m 35171,62000 v -1181 l -112,169 -113,112 -112,57"
       id="path424"
       inkscape:connector-curvature="0" />
    <path
       d="M 36915,62000 V 60819"
       id="path426"
       inkscape:connector-curvature="0" />
    <path
       d="m 37421,62000 v -618 l -56,-113 -113,-56 h -168 l -113,56 -56,56"
       id="path428"
       inkscape:connector-curvature="0" />
    <path
       d="m 38152,62000 -112,-56 -57,-56 -56,-113 v -337 l 56,-113 57,-56 112,-56 h 169 l 112,56 57,56 56,113 v 337 l -56,113 -57,56 -112,56 h -169"
       id="path430"
       inkscape:connector-curvature="0" />
    <path
       d="m 39221,62000 -113,-56 -56,-112 v -1013"
       id="path432"
       inkscape:connector-curvature="0" />
    <path
       d="m 40121,61944 -113,56 h -225 l -112,-56 -56,-112 v -450 l 56,-113 112,-56 h 225 l 113,56 56,113 v 112 l -562,113"
       id="path434"
       inkscape:connector-curvature="0" />
    <path
       d="m 40571,62450 56,-56 112,-169 57,-112 56,-169 56,-281 v -225 l -56,-281 -56,-169 -57,-113 -112,-168 -56,-56"
       id="path436"
       inkscape:connector-curvature="0" />
    <path
       style="fill:none;fill-opacity:0;stroke:#000000;stroke-width:118.11000061;stroke-linecap:round;stroke-linejoin:round;stroke-opacity:1"
       d="m 15360.2,63868.1 630,-629.9 -630,-629.9 -629.9,629.9 z"
       id="path438"
       inkscape:connector-curvature="0" />
    <text
       x="16777.6"
       y="63828.699"
       textLength="24471.301"
       font-size="1574.8"
       lengthAdjust="spacingAndGlyphs"
       id="text440"
       style="font-size:1574.80004883px;text-anchor:start;opacity:0">3.20mm / 0.126&quot; (1 hole)</text>
    <path
       d="m 17005,62591 h 731 l -394,450 h 169 l 113,56 56,56 56,113 v 281 l -56,113 -56,56 -113,56 h -337 l -113,-56 -56,-56"
       id="path442"
       inkscape:connector-curvature="0" />
    <path
       d="m 18242,63660 56,56 -56,56 -56,-56 56,-56 v 112"
       id="path444"
       inkscape:connector-curvature="0" />
    <path
       d="m 18748,62703 57,-56 112,-56 h 281 l 113,56 56,56 56,113 v 112 l -56,169 -675,675 h 731"
       id="path446"
       inkscape:connector-curvature="0" />
    <path
       d="m 20154,62591 h 113 l 112,56 57,56 56,113 56,225 v 281 l -56,225 -56,113 -57,56 -112,56 h -113 l -112,-56 -56,-56 -57,-113 -56,-225 v -281 l 56,-225 57,-113 56,-56 112,-56"
       id="path448"
       inkscape:connector-curvature="0" />
    <path
       d="m 21054,63772 v -787"
       id="path450"
       inkscape:connector-curvature="0" />
    <path
       d="m 21054,63097 57,-56 112,-56 h 169 l 112,56 57,112 v 619"
       id="path452"
       inkscape:connector-curvature="0" />
    <path
       d="m 21561,63153 56,-112 112,-56 h 169 l 112,56 57,112 v 619"
       id="path454"
       inkscape:connector-curvature="0" />
    <path
       d="m 22629,63772 v -787"
       id="path456"
       inkscape:connector-curvature="0" />
    <path
       d="m 22629,63097 56,-56 113,-56 h 169 l 112,56 56,112 v 619"
       id="path458"
       inkscape:connector-curvature="0" />
    <path
       d="m 23135,63153 57,-112 112,-56 h 169 l 112,56 57,112 v 619"
       id="path460"
       inkscape:connector-curvature="0" />
    <path
       d="m 25947,62535 -1012,1518"
       id="path462"
       inkscape:connector-curvature="0" />
    <path
       d="m 27466,62591 h 113 l 112,56 56,56 56,113 57,225 v 281 l -57,225 -56,113 -56,56 -112,56 h -113 l -112,-56 -57,-56 -56,-113 -56,-225 v -281 l 56,-225 56,-113 57,-56 112,-56"
       id="path464"
       inkscape:connector-curvature="0" />
    <path
       d="m 28366,63660 56,56 -56,56 -56,-56 56,-56 v 112"
       id="path466"
       inkscape:connector-curvature="0" />
    <path
       d="m 29547,63772 h -675"
       id="path468"
       inkscape:connector-curvature="0" />
    <path
       d="m 29210,63772 v -1181 l -113,169 -112,112 -113,56"
       id="path470"
       inkscape:connector-curvature="0" />
    <path
       d="m 29997,62703 56,-56 113,-56 h 281 l 112,56 57,56 56,113 v 112 l -56,169 -675,675 h 731"
       id="path472"
       inkscape:connector-curvature="0" />
    <path
       d="m 31684,62591 h -225 l -112,56 -56,56 -113,169 -56,225 v 450 l 56,113 56,56 113,56 h 225 l 112,-56 57,-56 56,-113 v -281 l -56,-113 -57,-56 -112,-56 h -225 l -113,56 -56,56 -56,113"
       id="path474"
       inkscape:connector-curvature="0" />
    <path
       d="m 32247,62591 v 225"
       id="path476"
       inkscape:connector-curvature="0" />
    <path
       d="m 32697,62591 v 225"
       id="path478"
       inkscape:connector-curvature="0" />
    <path
       d="m 34440,64222 -56,-56 -113,-169 -56,-113 -56,-168 -56,-281 v -225 l 56,-282 56,-168 56,-113 113,-169 56,-56"
       id="path480"
       inkscape:connector-curvature="0" />
    <path
       d="m 35509,63772 h -675"
       id="path482"
       inkscape:connector-curvature="0" />
    <path
       d="m 35171,63772 v -1181 l -112,169 -113,112 -112,56"
       id="path484"
       inkscape:connector-curvature="0" />
    <path
       d="M 36915,63772 V 62591"
       id="path486"
       inkscape:connector-curvature="0" />
    <path
       d="m 37421,63772 v -619 l -56,-112 -113,-56 h -168 l -113,56 -56,56"
       id="path488"
       inkscape:connector-curvature="0" />
    <path
       d="m 38152,63772 -112,-56 -57,-56 -56,-113 v -337 l 56,-113 57,-56 112,-56 h 169 l 112,56 57,56 56,113 v 337 l -56,113 -57,56 -112,56 h -169"
       id="path490"
       inkscape:connector-curvature="0" />
    <path
       d="m 39221,63772 -113,-56 -56,-113 v -1012"
       id="path492"
       inkscape:connector-curvature="0" />
    <path
       d="m 40121,63716 -113,56 h -225 l -112,-56 -56,-113 v -450 l 56,-112 112,-56 h 225 l 113,56 56,112 v 113 l -562,112"
       id="path494"
       inkscape:connector-curvature="0" />
    <path
       d="m 40571,64222 56,-56 112,-169 57,-113 56,-168 56,-281 v -225 l -56,-282 -56,-168 -57,-113 -112,-169 -56,-56"
       id="path496"
       inkscape:connector-curvature="0" />
  </g>
</svg>
