<?xml version="1.0" encoding="UTF-8" standalone="no"?>
<svg
   xmlns:dc="http://purl.org/dc/elements/1.1/"
   xmlns:cc="http://creativecommons.org/ns#"
   xmlns:rdf="http://www.w3.org/1999/02/22-rdf-syntax-ns#"
   xmlns:svg="http://www.w3.org/2000/svg"
   xmlns="http://www.w3.org/2000/svg"
   xmlns:sodipodi="http://sodipodi.sourceforge.net/DTD/sodipodi-0.dtd"
   xmlns:inkscape="http://www.inkscape.org/namespaces/inkscape"
   version="1.1"
   width="29.700220cm"
   height="21.000720cm"
   viewBox="0 0 116930 82680"
   id="svg62"
   sodipodi:docname="e-p-wifi-lf-NPTH-drl_map.svg"
   inkscape:version="0.92.3 (2405546, 2018-03-11)">
  <metadata
     id="metadata68">
    <rdf:RDF>
      <cc:Work
         rdf:about="">
        <dc:format>image/svg+xml</dc:format>
        <dc:type
           rdf:resource="http://purl.org/dc/dcmitype/StillImage" />
      </cc:Work>
    </rdf:RDF>
  </metadata>
  <defs
     id="defs66" />
  <sodipodi:namedview
     pagecolor="#ffffff"
     bordercolor="#666666"
     borderopacity="1"
     objecttolerance="10"
     gridtolerance="10"
     guidetolerance="10"
     inkscape:pageopacity="0"
     inkscape:pageshadow="2"
     inkscape:window-width="1853"
     inkscape:window-height="1025"
     id="namedview64"
     showgrid="false"
     inkscape:zoom="1.0230205"
     inkscape:cx="561.264"
     inkscape:cy="396.86398"
     inkscape:window-x="67"
     inkscape:window-y="27"
     inkscape:window-maximized="1"
     inkscape:current-layer="svg62" />
  <title
     id="title2">SVG Picture created as e-p-wifi-lf-NPTH-drl_map.svg date 2021/12/13 18:05:53 </title>
  <desc
     id="desc4">Picture generated by PCBNEW </desc>
  <g
     style="fill:#000000; fill-opacity:1;stroke:#000000; stroke-opacity:1; stroke-linecap:round; stroke-linejoin:round;"
     transform="translate(0 0) scale(1 1)"
     id="g6" />
  <g
     style="fill:#000000; fill-opacity:0.0;  stroke:#000000; stroke-width:-0.000393701; stroke-opacity:1;  stroke-linecap:round; stroke-linejoin:round;"
     id="g8" />
  <g
     style="fill:#000000;fill-opacity:0;stroke:#000000;stroke-width:196.85040283;stroke-linecap:round;stroke-linejoin:round;stroke-miterlimit:4;stroke-dasharray:none;stroke-opacity:1"
     id="g26"
     inkscape:export-xdpi="163"
     inkscape:export-ydpi="163">
    <path
       d="M 37500,53000 H 35000"
       id="path10"
       inkscape:connector-curvature="0"
       style="stroke-width:196.85040283;stroke-miterlimit:4;stroke-dasharray:none" />
    <path
       d="M 37500,43000 V 53000"
       id="path12"
       inkscape:connector-curvature="0"
       style="stroke-width:196.85040283;stroke-miterlimit:4;stroke-dasharray:none" />
    <path
       d="m 35000,43000 h 2500"
       id="path14"
       inkscape:connector-curvature="0"
       style="stroke-width:196.85040283;stroke-miterlimit:4;stroke-dasharray:none" />
    <path
       d="M 16000,43000 H 31000"
       id="path16"
       inkscape:connector-curvature="0"
       style="stroke-width:196.85040283;stroke-miterlimit:4;stroke-dasharray:none" />
    <path
       d="M 16000,53000 H 31000"
       id="path18"
       inkscape:connector-curvature="0"
       style="stroke-width:196.85040283;stroke-miterlimit:4;stroke-dasharray:none" />
    <path
       d="M 16000,43000 V 53000"
       id="path20"
       inkscape:connector-curvature="0"
       style="stroke-width:196.85040283;stroke-miterlimit:4;stroke-dasharray:none" />
    <path
       d="M 35000,53000 H 31000"
       id="path22"
       inkscape:connector-curvature="0"
       style="stroke-width:196.85040283;stroke-miterlimit:4;stroke-dasharray:none" />
    <path
       d="m 31000,43000 h 4000"
       id="path24"
       inkscape:connector-curvature="0"
       style="stroke-width:196.85040283;stroke-miterlimit:4;stroke-dasharray:none" />
  </g>
  <g
     style="fill:#000000; fill-opacity:0.0;  stroke:#000000; stroke-width:78.7402; stroke-opacity:1;  stroke-linecap:round; stroke-linejoin:round;"
     id="g28" />
  <g
     style="fill:#000000;fill-opacity:0;stroke:#000000;stroke-width:118.11000061;stroke-linecap:round;stroke-linejoin:round;stroke-opacity:1"
     id="g60"
     inkscape:export-xdpi="163"
     inkscape:export-ydpi="163">
    <text
       x="16777.6"
       y="54899.602"
       textLength="8779.5303"
       font-size="1574.8"
       lengthAdjust="spacingAndGlyphs"
       id="text30"
       style="font-size:1574.80004883px;text-anchor:start;opacity:0">Drill Map:</text>
    <path
       d="m 17117,54843 v -1181 h 282 l 168,56 113,112 56,113 56,225 v 169 l -56,225 -56,112 -113,113 -168,56 h -282"
       id="path32"
       inkscape:connector-curvature="0" />
    <path
       d="m 18298,54843 v -788"
       id="path34"
       inkscape:connector-curvature="0" />
    <path
       d="m 18298,54280 57,-112 56,-56 112,-57 h 113"
       id="path36"
       inkscape:connector-curvature="0" />
    <path
       d="m 19030,54843 v -788"
       id="path38"
       inkscape:connector-curvature="0" />
    <path
       d="m 19030,53662 -57,56 57,56 56,-56 -56,-56 v 112"
       id="path40"
       inkscape:connector-curvature="0" />
    <path
       d="m 19761,54843 -113,-56 -56,-113 v -1012"
       id="path42"
       inkscape:connector-curvature="0" />
    <path
       d="m 20379,54843 -112,-56 -56,-113 v -1012"
       id="path44"
       inkscape:connector-curvature="0" />
    <path
       d="m 21729,54843 v -1181 l 394,843 394,-843 v 1181"
       id="path46"
       inkscape:connector-curvature="0" />
    <path
       d="m 23585,54843 v -619 l -56,-112 -112,-57 h -225 l -113,57"
       id="path48"
       inkscape:connector-curvature="0" />
    <path
       d="m 23585,54787 -112,56 h -281 l -113,-56 -56,-113 v -112 l 56,-113 113,-56 h 281 l 112,-56"
       id="path50"
       inkscape:connector-curvature="0" />
    <path
       d="m 24148,54055 v 1182"
       id="path52"
       inkscape:connector-curvature="0" />
    <path
       d="m 24148,54112 112,-57 h 225 l 113,57 56,56 56,112 v 338 l -56,112 -56,57 -113,56 h -225 l -112,-56"
       id="path54"
       inkscape:connector-curvature="0" />
    <path
       d="m 25216,54730 57,57 -57,56 -56,-56 56,-57 v 113"
       id="path56"
       inkscape:connector-curvature="0" />
    <path
       d="m 25216,54112 57,56 -57,56 -56,-56 56,-56 v 112"
       id="path58"
       inkscape:connector-curvature="0" />
  </g>
</svg>
