  0
SECTION
  2
HEADER
  9
$ANGBASE
  50
0.0
  9
$ANGDIR
  70
1
  9
$MEASUREMENT
  70
1
  0
ENDSEC
  0
SECTION
  2
TABLES
  0
TABLE
  2
LTYPE
  70
4
  0
LTYPE
  5
40F
  2
CONTINUOUS
  70
0
  3
Solid line
  72
65
  73
0
  40
0.0
  0
LTYPE
  5
410
  2
DASHDOT
 70
0
  3
Dash Dot ____ _ ____ _
 72
65
 73
4
 40
2.0
 49
1.25
 49
-0.25
 49
0.25
 49
-0.25
  0
LTYPE
  5
411
  2
DASHED
 70
0
  3
Dashed __ __ __ __ __
 72
65
 73
2
 40
0.75
 49
0.5
 49
-0.25
  0
LTYPE
  5
43B
  2
DOTTED
 70
0
  3
Dotted .  .  .  .
 72
65
 73
2
 40
0.2
 49
0.0
 49
-0.2
  0
ENDTAB
  0
TABLE
  2
STYLE
  70
4
  0
STYLE
  2
KICAD
  70
0
  40
0
  41
1
  42
1
  50
0
  71
0
  3
isocp.shx
  0
STYLE
  2
KICADB
  70
0
  40
0
  41
1
  42
1
  50
0
  71
0
  3
isocp.shx
  0
STYLE
  2
KICADI
  70
0
  40
0
  41
1
  42
1
  50
15
  71
0
  3
isocp.shx
  0
STYLE
  2
KICADBI
  70
0
  40
0
  41
1
  42
1
  50
15
  71
0
  3
isocp.shx
  0
ENDTAB
  0
TABLE
  2
LAYER
  70
1
  0
LAYER
  2
BLACK
  70
0
  62
7
  6
CONTINUOUS
  0
ENDTAB
  0
ENDSEC
  0
SECTION
  2
ENTITIES
0
LINE
8
BLACK
6
CONTINUOUS
10
95.25
20
-134.62
11
88.9
21
-134.62
0
LINE
8
BLACK
6
CONTINUOUS
10
95.25
20
-109.22
11
95.25
21
-134.62
0
LINE
8
BLACK
6
CONTINUOUS
10
88.9
20
-109.22
11
95.25
21
-109.22
0
LINE
8
BLACK
6
CONTINUOUS
10
40.64
20
-109.22
11
78.74
21
-109.22
0
LINE
8
BLACK
6
CONTINUOUS
10
40.64
20
-134.62
11
78.74
21
-134.62
0
LINE
8
BLACK
6
CONTINUOUS
10
40.64
20
-109.22
11
40.64
21
-134.62
0
LINE
8
BLACK
6
CONTINUOUS
10
88.9
20
-134.62
11
78.74
21
-134.62
0
LINE
8
BLACK
6
CONTINUOUS
10
78.74
20
-109.22
11
88.9
21
-109.22
0
LINE
8
BLACK
6
CONTINUOUS
10
43.4793
20
-139.302
11
43.4793
21
-136.302
0
LINE
8
BLACK
6
CONTINUOUS
10
43.4793
20
-136.302
11
44.1936
21
-136.302
0
LINE
8
BLACK
6
CONTINUOUS
10
44.1936
20
-136.302
11
44.6221
21
-136.445
0
LINE
8
BLACK
6
CONTINUOUS
10
44.6221
20
-136.445
11
44.9079
21
-136.731
0
LINE
8
BLACK
6
CONTINUOUS
10
44.9079
20
-136.731
11
45.0507
21
-137.016
0
LINE
8
BLACK
6
CONTINUOUS
10
45.0507
20
-137.016
11
45.1936
21
-137.588
0
LINE
8
BLACK
6
CONTINUOUS
10
45.1936
20
-137.588
11
45.1936
21
-138.016
0
LINE
8
BLACK
6
CONTINUOUS
10
45.1936
20
-138.016
11
45.0507
21
-138.588
0
LINE
8
BLACK
6
CONTINUOUS
10
45.0507
20
-138.588
11
44.9079
21
-138.874
0
LINE
8
BLACK
6
CONTINUOUS
10
44.9079
20
-138.874
11
44.6221
21
-139.159
0
LINE
8
BLACK
6
CONTINUOUS
10
44.6221
20
-139.159
11
44.1936
21
-139.302
0
LINE
8
BLACK
6
CONTINUOUS
10
44.1936
20
-139.302
11
43.4793
21
-139.302
0
LINE
8
BLACK
6
CONTINUOUS
10
46.4793
20
-139.302
11
46.4793
21
-137.302
0
LINE
8
BLACK
6
CONTINUOUS
10
46.4793
20
-137.874
11
46.6221
21
-137.588
0
LINE
8
BLACK
6
CONTINUOUS
10
46.6221
20
-137.588
11
46.765
21
-137.445
0
LINE
8
BLACK
6
CONTINUOUS
10
46.765
20
-137.445
11
47.0507
21
-137.302
0
LINE
8
BLACK
6
CONTINUOUS
10
47.0507
20
-137.302
11
47.3364
21
-137.302
0
LINE
8
BLACK
6
CONTINUOUS
10
48.3364
20
-139.302
11
48.3364
21
-137.302
0
LINE
8
BLACK
6
CONTINUOUS
10
48.3364
20
-136.302
11
48.1936
21
-136.445
0
LINE
8
BLACK
6
CONTINUOUS
10
48.1936
20
-136.445
11
48.3364
21
-136.588
0
LINE
8
BLACK
6
CONTINUOUS
10
48.3364
20
-136.588
11
48.4793
21
-136.445
0
LINE
8
BLACK
6
CONTINUOUS
10
48.4793
20
-136.445
11
48.3364
21
-136.302
0
LINE
8
BLACK
6
CONTINUOUS
10
48.3364
20
-136.302
11
48.3364
21
-136.588
0
LINE
8
BLACK
6
CONTINUOUS
10
50.1936
20
-139.302
11
49.9079
21
-139.159
0
LINE
8
BLACK
6
CONTINUOUS
10
49.9079
20
-139.159
11
49.765
21
-138.874
0
LINE
8
BLACK
6
CONTINUOUS
10
49.765
20
-138.874
11
49.765
21
-136.302
0
LINE
8
BLACK
6
CONTINUOUS
10
51.765
20
-139.302
11
51.4793
21
-139.159
0
LINE
8
BLACK
6
CONTINUOUS
10
51.4793
20
-139.159
11
51.3364
21
-138.874
0
LINE
8
BLACK
6
CONTINUOUS
10
51.3364
20
-138.874
11
51.3364
21
-136.302
0
LINE
8
BLACK
6
CONTINUOUS
10
55.1936
20
-139.302
11
55.1936
21
-136.302
0
LINE
8
BLACK
6
CONTINUOUS
10
55.1936
20
-136.302
11
56.1936
21
-138.445
0
LINE
8
BLACK
6
CONTINUOUS
10
56.1936
20
-138.445
11
57.1936
21
-136.302
0
LINE
8
BLACK
6
CONTINUOUS
10
57.1936
20
-136.302
11
57.1936
21
-139.302
0
LINE
8
BLACK
6
CONTINUOUS
10
59.9079
20
-139.302
11
59.9079
21
-137.731
0
LINE
8
BLACK
6
CONTINUOUS
10
59.9079
20
-137.731
11
59.765
21
-137.445
0
LINE
8
BLACK
6
CONTINUOUS
10
59.765
20
-137.445
11
59.4793
21
-137.302
0
LINE
8
BLACK
6
CONTINUOUS
10
59.4793
20
-137.302
11
58.9079
21
-137.302
0
LINE
8
BLACK
6
CONTINUOUS
10
58.9079
20
-137.302
11
58.6221
21
-137.445
0
LINE
8
BLACK
6
CONTINUOUS
10
59.9079
20
-139.159
11
59.6221
21
-139.302
0
LINE
8
BLACK
6
CONTINUOUS
10
59.6221
20
-139.302
11
58.9079
21
-139.302
0
LINE
8
BLACK
6
CONTINUOUS
10
58.9079
20
-139.302
11
58.6221
21
-139.159
0
LINE
8
BLACK
6
CONTINUOUS
10
58.6221
20
-139.159
11
58.4793
21
-138.874
0
LINE
8
BLACK
6
CONTINUOUS
10
58.4793
20
-138.874
11
58.4793
21
-138.588
0
LINE
8
BLACK
6
CONTINUOUS
10
58.4793
20
-138.588
11
58.6221
21
-138.302
0
LINE
8
BLACK
6
CONTINUOUS
10
58.6221
20
-138.302
11
58.9079
21
-138.159
0
LINE
8
BLACK
6
CONTINUOUS
10
58.9079
20
-138.159
11
59.6221
21
-138.159
0
LINE
8
BLACK
6
CONTINUOUS
10
59.6221
20
-138.159
11
59.9079
21
-138.016
0
LINE
8
BLACK
6
CONTINUOUS
10
61.3364
20
-137.302
11
61.3364
21
-140.302
0
LINE
8
BLACK
6
CONTINUOUS
10
61.3364
20
-137.445
11
61.6221
21
-137.302
0
LINE
8
BLACK
6
CONTINUOUS
10
61.6221
20
-137.302
11
62.1936
21
-137.302
0
LINE
8
BLACK
6
CONTINUOUS
10
62.1936
20
-137.302
11
62.4793
21
-137.445
0
LINE
8
BLACK
6
CONTINUOUS
10
62.4793
20
-137.445
11
62.6221
21
-137.588
0
LINE
8
BLACK
6
CONTINUOUS
10
62.6221
20
-137.588
11
62.765
21
-137.874
0
LINE
8
BLACK
6
CONTINUOUS
10
62.765
20
-137.874
11
62.765
21
-138.731
0
LINE
8
BLACK
6
CONTINUOUS
10
62.765
20
-138.731
11
62.6221
21
-139.016
0
LINE
8
BLACK
6
CONTINUOUS
10
62.6221
20
-139.016
11
62.4793
21
-139.159
0
LINE
8
BLACK
6
CONTINUOUS
10
62.4793
20
-139.159
11
62.1936
21
-139.302
0
LINE
8
BLACK
6
CONTINUOUS
10
62.1936
20
-139.302
11
61.6221
21
-139.302
0
LINE
8
BLACK
6
CONTINUOUS
10
61.6221
20
-139.302
11
61.3364
21
-139.159
0
LINE
8
BLACK
6
CONTINUOUS
10
64.0507
20
-139.016
11
64.1936
21
-139.159
0
LINE
8
BLACK
6
CONTINUOUS
10
64.1936
20
-139.159
11
64.0507
21
-139.302
0
LINE
8
BLACK
6
CONTINUOUS
10
64.0507
20
-139.302
11
63.9079
21
-139.159
0
LINE
8
BLACK
6
CONTINUOUS
10
63.9079
20
-139.159
11
64.0507
21
-139.016
0
LINE
8
BLACK
6
CONTINUOUS
10
64.0507
20
-139.016
11
64.0507
21
-139.302
0
LINE
8
BLACK
6
CONTINUOUS
10
64.0507
20
-137.445
11
64.1936
21
-137.588
0
LINE
8
BLACK
6
CONTINUOUS
10
64.1936
20
-137.588
11
64.0507
21
-137.731
0
LINE
8
BLACK
6
CONTINUOUS
10
64.0507
20
-137.731
11
63.9079
21
-137.588
0
LINE
8
BLACK
6
CONTINUOUS
10
63.9079
20
-137.588
11
64.0507
21
-137.445
0
LINE
8
BLACK
6
CONTINUOUS
10
64.0507
20
-137.445
11
64.0507
21
-137.731
  0
ENDSEC
  0
EOF
