%TF.GenerationSoftware,KiCad,Pcbnew,5.1.6-c6e7f7d~87~ubuntu18.04.1*%
%TF.CreationDate,2022-01-03T17:12:36+01:00*%
%TF.ProjectId,e-p-wifi-lf,652d702d-7769-4666-992d-6c662e6b6963,rev?*%
%TF.SameCoordinates,Original*%
%TF.FileFunction,Copper,L2,Bot*%
%TF.FilePolarity,Positive*%
%FSLAX46Y46*%
G04 Gerber Fmt 4.6, Leading zero omitted, Abs format (unit mm)*
G04 Created by KiCad (PCBNEW 5.1.6-c6e7f7d~87~ubuntu18.04.1) date 2022-01-03 17:12:36*
%MOMM*%
%LPD*%
G01*
G04 APERTURE LIST*
%ADD10C,0.100000*%
%ADD11C,0.150000*%
%ADD12C,0.300000*%
%ADD13C,0.400000*%
%TA.AperFunction,ComponentPad*%
%ADD14R,1.700000X1.700000*%
%TD*%
%TA.AperFunction,ComponentPad*%
%ADD15C,1.500000*%
%TD*%
%TA.AperFunction,ComponentPad*%
%ADD16R,1.500000X1.500000*%
%TD*%
%TA.AperFunction,ComponentPad*%
%ADD17C,3.200001*%
%TD*%
%TA.AperFunction,ComponentPad*%
%ADD18C,3.200000*%
%TD*%
%TA.AperFunction,ComponentPad*%
%ADD19O,1.700000X1.700000*%
%TD*%
%TA.AperFunction,ComponentPad*%
%ADD20C,2.500000*%
%TD*%
%TA.AperFunction,ComponentPad*%
%ADD21O,1.600000X1.200000*%
%TD*%
%TA.AperFunction,ComponentPad*%
%ADD22O,1.200000X1.200000*%
%TD*%
%TA.AperFunction,ComponentPad*%
%ADD23C,1.400000*%
%TD*%
%TA.AperFunction,ComponentPad*%
%ADD24O,1.400000X1.400000*%
%TD*%
%TA.AperFunction,Conductor*%
%ADD25C,0.500000*%
%TD*%
%TA.AperFunction,Conductor*%
%ADD26C,0.250000*%
%TD*%
%TA.AperFunction,Conductor*%
%ADD27C,0.254000*%
%TD*%
G04 APERTURE END LIST*
D10*
D11*
X177002200Y-166007200D02*
X177002200Y-198007200D01*
X285002200Y-198007200D01*
X285002200Y-166007200D01*
X177002200Y-166007200D01*
D10*
D11*
X10000000Y-10000000D02*
X10000000Y-200007200D01*
X287002200Y-200007200D01*
X287002200Y-10000000D01*
X10000000Y-10000000D01*
D10*
D11*
X12000000Y-12000000D02*
X12000000Y-198007200D01*
X285002200Y-198007200D01*
X285002200Y-12000000D01*
X12000000Y-12000000D01*
D10*
D11*
X60000000Y-12000000D02*
X60000000Y-10000000D01*
D10*
D11*
X110000000Y-12000000D02*
X110000000Y-10000000D01*
D10*
D11*
X160000000Y-12000000D02*
X160000000Y-10000000D01*
D10*
D11*
X210000000Y-12000000D02*
X210000000Y-10000000D01*
D10*
D11*
X260000000Y-12000000D02*
X260000000Y-10000000D01*
D10*
D11*
X36065476Y-11588095D02*
X35322619Y-11588095D01*
X35694047Y-11588095D02*
X35694047Y-10288095D01*
X35570238Y-10473809D01*
X35446428Y-10597619D01*
X35322619Y-10659523D01*
D10*
D11*
X85322619Y-10411904D02*
X85384523Y-10350000D01*
X85508333Y-10288095D01*
X85817857Y-10288095D01*
X85941666Y-10350000D01*
X86003571Y-10411904D01*
X86065476Y-10535714D01*
X86065476Y-10659523D01*
X86003571Y-10845238D01*
X85260714Y-11588095D01*
X86065476Y-11588095D01*
D10*
D11*
X135260714Y-10288095D02*
X136065476Y-10288095D01*
X135632142Y-10783333D01*
X135817857Y-10783333D01*
X135941666Y-10845238D01*
X136003571Y-10907142D01*
X136065476Y-11030952D01*
X136065476Y-11340476D01*
X136003571Y-11464285D01*
X135941666Y-11526190D01*
X135817857Y-11588095D01*
X135446428Y-11588095D01*
X135322619Y-11526190D01*
X135260714Y-11464285D01*
D10*
D11*
X185941666Y-10721428D02*
X185941666Y-11588095D01*
X185632142Y-10226190D02*
X185322619Y-11154761D01*
X186127380Y-11154761D01*
D10*
D11*
X236003571Y-10288095D02*
X235384523Y-10288095D01*
X235322619Y-10907142D01*
X235384523Y-10845238D01*
X235508333Y-10783333D01*
X235817857Y-10783333D01*
X235941666Y-10845238D01*
X236003571Y-10907142D01*
X236065476Y-11030952D01*
X236065476Y-11340476D01*
X236003571Y-11464285D01*
X235941666Y-11526190D01*
X235817857Y-11588095D01*
X235508333Y-11588095D01*
X235384523Y-11526190D01*
X235322619Y-11464285D01*
D10*
D11*
X285941666Y-10288095D02*
X285694047Y-10288095D01*
X285570238Y-10350000D01*
X285508333Y-10411904D01*
X285384523Y-10597619D01*
X285322619Y-10845238D01*
X285322619Y-11340476D01*
X285384523Y-11464285D01*
X285446428Y-11526190D01*
X285570238Y-11588095D01*
X285817857Y-11588095D01*
X285941666Y-11526190D01*
X286003571Y-11464285D01*
X286065476Y-11340476D01*
X286065476Y-11030952D01*
X286003571Y-10907142D01*
X285941666Y-10845238D01*
X285817857Y-10783333D01*
X285570238Y-10783333D01*
X285446428Y-10845238D01*
X285384523Y-10907142D01*
X285322619Y-11030952D01*
D10*
D11*
X60000000Y-198007200D02*
X60000000Y-200007200D01*
D10*
D11*
X110000000Y-198007200D02*
X110000000Y-200007200D01*
D10*
D11*
X160000000Y-198007200D02*
X160000000Y-200007200D01*
D10*
D11*
X210000000Y-198007200D02*
X210000000Y-200007200D01*
D10*
D11*
X260000000Y-198007200D02*
X260000000Y-200007200D01*
D10*
D11*
X36065476Y-199595295D02*
X35322619Y-199595295D01*
X35694047Y-199595295D02*
X35694047Y-198295295D01*
X35570238Y-198481009D01*
X35446428Y-198604819D01*
X35322619Y-198666723D01*
D10*
D11*
X85322619Y-198419104D02*
X85384523Y-198357200D01*
X85508333Y-198295295D01*
X85817857Y-198295295D01*
X85941666Y-198357200D01*
X86003571Y-198419104D01*
X86065476Y-198542914D01*
X86065476Y-198666723D01*
X86003571Y-198852438D01*
X85260714Y-199595295D01*
X86065476Y-199595295D01*
D10*
D11*
X135260714Y-198295295D02*
X136065476Y-198295295D01*
X135632142Y-198790533D01*
X135817857Y-198790533D01*
X135941666Y-198852438D01*
X136003571Y-198914342D01*
X136065476Y-199038152D01*
X136065476Y-199347676D01*
X136003571Y-199471485D01*
X135941666Y-199533390D01*
X135817857Y-199595295D01*
X135446428Y-199595295D01*
X135322619Y-199533390D01*
X135260714Y-199471485D01*
D10*
D11*
X185941666Y-198728628D02*
X185941666Y-199595295D01*
X185632142Y-198233390D02*
X185322619Y-199161961D01*
X186127380Y-199161961D01*
D10*
D11*
X236003571Y-198295295D02*
X235384523Y-198295295D01*
X235322619Y-198914342D01*
X235384523Y-198852438D01*
X235508333Y-198790533D01*
X235817857Y-198790533D01*
X235941666Y-198852438D01*
X236003571Y-198914342D01*
X236065476Y-199038152D01*
X236065476Y-199347676D01*
X236003571Y-199471485D01*
X235941666Y-199533390D01*
X235817857Y-199595295D01*
X235508333Y-199595295D01*
X235384523Y-199533390D01*
X235322619Y-199471485D01*
D10*
D11*
X285941666Y-198295295D02*
X285694047Y-198295295D01*
X285570238Y-198357200D01*
X285508333Y-198419104D01*
X285384523Y-198604819D01*
X285322619Y-198852438D01*
X285322619Y-199347676D01*
X285384523Y-199471485D01*
X285446428Y-199533390D01*
X285570238Y-199595295D01*
X285817857Y-199595295D01*
X285941666Y-199533390D01*
X286003571Y-199471485D01*
X286065476Y-199347676D01*
X286065476Y-199038152D01*
X286003571Y-198914342D01*
X285941666Y-198852438D01*
X285817857Y-198790533D01*
X285570238Y-198790533D01*
X285446428Y-198852438D01*
X285384523Y-198914342D01*
X285322619Y-199038152D01*
D10*
D11*
X10000000Y-60000000D02*
X12000000Y-60000000D01*
D10*
D11*
X10000000Y-110000000D02*
X12000000Y-110000000D01*
D10*
D11*
X10000000Y-160000000D02*
X12000000Y-160000000D01*
D10*
D11*
X10690476Y-35216666D02*
X11309523Y-35216666D01*
X10566666Y-35588095D02*
X11000000Y-34288095D01*
X11433333Y-35588095D01*
D10*
D11*
X11092857Y-84907142D02*
X11278571Y-84969047D01*
X11340476Y-85030952D01*
X11402380Y-85154761D01*
X11402380Y-85340476D01*
X11340476Y-85464285D01*
X11278571Y-85526190D01*
X11154761Y-85588095D01*
X10659523Y-85588095D01*
X10659523Y-84288095D01*
X11092857Y-84288095D01*
X11216666Y-84350000D01*
X11278571Y-84411904D01*
X11340476Y-84535714D01*
X11340476Y-84659523D01*
X11278571Y-84783333D01*
X11216666Y-84845238D01*
X11092857Y-84907142D01*
X10659523Y-84907142D01*
D10*
D11*
X11402380Y-135464285D02*
X11340476Y-135526190D01*
X11154761Y-135588095D01*
X11030952Y-135588095D01*
X10845238Y-135526190D01*
X10721428Y-135402380D01*
X10659523Y-135278571D01*
X10597619Y-135030952D01*
X10597619Y-134845238D01*
X10659523Y-134597619D01*
X10721428Y-134473809D01*
X10845238Y-134350000D01*
X11030952Y-134288095D01*
X11154761Y-134288095D01*
X11340476Y-134350000D01*
X11402380Y-134411904D01*
D10*
D11*
X10659523Y-185588095D02*
X10659523Y-184288095D01*
X10969047Y-184288095D01*
X11154761Y-184350000D01*
X11278571Y-184473809D01*
X11340476Y-184597619D01*
X11402380Y-184845238D01*
X11402380Y-185030952D01*
X11340476Y-185278571D01*
X11278571Y-185402380D01*
X11154761Y-185526190D01*
X10969047Y-185588095D01*
X10659523Y-185588095D01*
D10*
D11*
X287002200Y-60000000D02*
X285002200Y-60000000D01*
D10*
D11*
X287002200Y-110000000D02*
X285002200Y-110000000D01*
D10*
D11*
X287002200Y-160000000D02*
X285002200Y-160000000D01*
D10*
D11*
X285692676Y-35216666D02*
X286311723Y-35216666D01*
X285568866Y-35588095D02*
X286002200Y-34288095D01*
X286435533Y-35588095D01*
D10*
D11*
X286095057Y-84907142D02*
X286280771Y-84969047D01*
X286342676Y-85030952D01*
X286404580Y-85154761D01*
X286404580Y-85340476D01*
X286342676Y-85464285D01*
X286280771Y-85526190D01*
X286156961Y-85588095D01*
X285661723Y-85588095D01*
X285661723Y-84288095D01*
X286095057Y-84288095D01*
X286218866Y-84350000D01*
X286280771Y-84411904D01*
X286342676Y-84535714D01*
X286342676Y-84659523D01*
X286280771Y-84783333D01*
X286218866Y-84845238D01*
X286095057Y-84907142D01*
X285661723Y-84907142D01*
D10*
D11*
X286404580Y-135464285D02*
X286342676Y-135526190D01*
X286156961Y-135588095D01*
X286033152Y-135588095D01*
X285847438Y-135526190D01*
X285723628Y-135402380D01*
X285661723Y-135278571D01*
X285599819Y-135030952D01*
X285599819Y-134845238D01*
X285661723Y-134597619D01*
X285723628Y-134473809D01*
X285847438Y-134350000D01*
X286033152Y-134288095D01*
X286156961Y-134288095D01*
X286342676Y-134350000D01*
X286404580Y-134411904D01*
D10*
D11*
X285661723Y-185588095D02*
X285661723Y-184288095D01*
X285971247Y-184288095D01*
X286156961Y-184350000D01*
X286280771Y-184473809D01*
X286342676Y-184597619D01*
X286404580Y-184845238D01*
X286404580Y-185030952D01*
X286342676Y-185278571D01*
X286280771Y-185402380D01*
X286156961Y-185526190D01*
X285971247Y-185588095D01*
X285661723Y-185588095D01*
D10*
D11*
X200434342Y-193785771D02*
X200434342Y-192285771D01*
X200791485Y-192285771D01*
X201005771Y-192357200D01*
X201148628Y-192500057D01*
X201220057Y-192642914D01*
X201291485Y-192928628D01*
X201291485Y-193142914D01*
X201220057Y-193428628D01*
X201148628Y-193571485D01*
X201005771Y-193714342D01*
X200791485Y-193785771D01*
X200434342Y-193785771D01*
X202577200Y-193785771D02*
X202577200Y-193000057D01*
X202505771Y-192857200D01*
X202362914Y-192785771D01*
X202077200Y-192785771D01*
X201934342Y-192857200D01*
X202577200Y-193714342D02*
X202434342Y-193785771D01*
X202077200Y-193785771D01*
X201934342Y-193714342D01*
X201862914Y-193571485D01*
X201862914Y-193428628D01*
X201934342Y-193285771D01*
X202077200Y-193214342D01*
X202434342Y-193214342D01*
X202577200Y-193142914D01*
X203077200Y-192785771D02*
X203648628Y-192785771D01*
X203291485Y-192285771D02*
X203291485Y-193571485D01*
X203362914Y-193714342D01*
X203505771Y-193785771D01*
X203648628Y-193785771D01*
X204720057Y-193714342D02*
X204577200Y-193785771D01*
X204291485Y-193785771D01*
X204148628Y-193714342D01*
X204077200Y-193571485D01*
X204077200Y-193000057D01*
X204148628Y-192857200D01*
X204291485Y-192785771D01*
X204577200Y-192785771D01*
X204720057Y-192857200D01*
X204791485Y-193000057D01*
X204791485Y-193142914D01*
X204077200Y-193285771D01*
X205434342Y-193642914D02*
X205505771Y-193714342D01*
X205434342Y-193785771D01*
X205362914Y-193714342D01*
X205434342Y-193642914D01*
X205434342Y-193785771D01*
X205434342Y-192857200D02*
X205505771Y-192928628D01*
X205434342Y-193000057D01*
X205362914Y-192928628D01*
X205434342Y-192857200D01*
X205434342Y-193000057D01*
D10*
D11*
X177002200Y-194507200D02*
X285002200Y-194507200D01*
D10*
D11*
X178434342Y-196585771D02*
X178434342Y-195085771D01*
X179291485Y-196585771D02*
X178648628Y-195728628D01*
X179291485Y-195085771D02*
X178434342Y-195942914D01*
X179934342Y-196585771D02*
X179934342Y-195585771D01*
X179934342Y-195085771D02*
X179862914Y-195157200D01*
X179934342Y-195228628D01*
X180005771Y-195157200D01*
X179934342Y-195085771D01*
X179934342Y-195228628D01*
X181505771Y-196442914D02*
X181434342Y-196514342D01*
X181220057Y-196585771D01*
X181077200Y-196585771D01*
X180862914Y-196514342D01*
X180720057Y-196371485D01*
X180648628Y-196228628D01*
X180577200Y-195942914D01*
X180577200Y-195728628D01*
X180648628Y-195442914D01*
X180720057Y-195300057D01*
X180862914Y-195157200D01*
X181077200Y-195085771D01*
X181220057Y-195085771D01*
X181434342Y-195157200D01*
X181505771Y-195228628D01*
X182791485Y-196585771D02*
X182791485Y-195800057D01*
X182720057Y-195657200D01*
X182577200Y-195585771D01*
X182291485Y-195585771D01*
X182148628Y-195657200D01*
X182791485Y-196514342D02*
X182648628Y-196585771D01*
X182291485Y-196585771D01*
X182148628Y-196514342D01*
X182077200Y-196371485D01*
X182077200Y-196228628D01*
X182148628Y-196085771D01*
X182291485Y-196014342D01*
X182648628Y-196014342D01*
X182791485Y-195942914D01*
X184148628Y-196585771D02*
X184148628Y-195085771D01*
X184148628Y-196514342D02*
X184005771Y-196585771D01*
X183720057Y-196585771D01*
X183577200Y-196514342D01*
X183505771Y-196442914D01*
X183434342Y-196300057D01*
X183434342Y-195871485D01*
X183505771Y-195728628D01*
X183577200Y-195657200D01*
X183720057Y-195585771D01*
X184005771Y-195585771D01*
X184148628Y-195657200D01*
X186005771Y-195800057D02*
X186505771Y-195800057D01*
X186720057Y-196585771D02*
X186005771Y-196585771D01*
X186005771Y-195085771D01*
X186720057Y-195085771D01*
X187362914Y-196442914D02*
X187434342Y-196514342D01*
X187362914Y-196585771D01*
X187291485Y-196514342D01*
X187362914Y-196442914D01*
X187362914Y-196585771D01*
X188077200Y-196585771D02*
X188077200Y-195085771D01*
X188434342Y-195085771D01*
X188648628Y-195157200D01*
X188791485Y-195300057D01*
X188862914Y-195442914D01*
X188934342Y-195728628D01*
X188934342Y-195942914D01*
X188862914Y-196228628D01*
X188791485Y-196371485D01*
X188648628Y-196514342D01*
X188434342Y-196585771D01*
X188077200Y-196585771D01*
X189577200Y-196442914D02*
X189648628Y-196514342D01*
X189577200Y-196585771D01*
X189505771Y-196514342D01*
X189577200Y-196442914D01*
X189577200Y-196585771D01*
X190220057Y-196157200D02*
X190934342Y-196157200D01*
X190077200Y-196585771D02*
X190577200Y-195085771D01*
X191077200Y-196585771D01*
X191577200Y-196442914D02*
X191648628Y-196514342D01*
X191577200Y-196585771D01*
X191505771Y-196514342D01*
X191577200Y-196442914D01*
X191577200Y-196585771D01*
X194577200Y-196585771D02*
X194577200Y-195085771D01*
X194720057Y-196014342D02*
X195148628Y-196585771D01*
X195148628Y-195585771D02*
X194577200Y-196157200D01*
X195791485Y-196585771D02*
X195791485Y-195585771D01*
X195791485Y-195085771D02*
X195720057Y-195157200D01*
X195791485Y-195228628D01*
X195862914Y-195157200D01*
X195791485Y-195085771D01*
X195791485Y-195228628D01*
X197148628Y-196514342D02*
X197005771Y-196585771D01*
X196720057Y-196585771D01*
X196577200Y-196514342D01*
X196505771Y-196442914D01*
X196434342Y-196300057D01*
X196434342Y-195871485D01*
X196505771Y-195728628D01*
X196577200Y-195657200D01*
X196720057Y-195585771D01*
X197005771Y-195585771D01*
X197148628Y-195657200D01*
X198434342Y-196585771D02*
X198434342Y-195800057D01*
X198362914Y-195657200D01*
X198220057Y-195585771D01*
X197934342Y-195585771D01*
X197791485Y-195657200D01*
X198434342Y-196514342D02*
X198291485Y-196585771D01*
X197934342Y-196585771D01*
X197791485Y-196514342D01*
X197720057Y-196371485D01*
X197720057Y-196228628D01*
X197791485Y-196085771D01*
X197934342Y-196014342D01*
X198291485Y-196014342D01*
X198434342Y-195942914D01*
X199791485Y-196585771D02*
X199791485Y-195085771D01*
X199791485Y-196514342D02*
X199648628Y-196585771D01*
X199362914Y-196585771D01*
X199220057Y-196514342D01*
X199148628Y-196442914D01*
X199077200Y-196300057D01*
X199077200Y-195871485D01*
X199148628Y-195728628D01*
X199220057Y-195657200D01*
X199362914Y-195585771D01*
X199648628Y-195585771D01*
X199791485Y-195657200D01*
X202362914Y-195085771D02*
X201648628Y-195085771D01*
X201577200Y-195800057D01*
X201648628Y-195728628D01*
X201791485Y-195657200D01*
X202148628Y-195657200D01*
X202291485Y-195728628D01*
X202362914Y-195800057D01*
X202434342Y-195942914D01*
X202434342Y-196300057D01*
X202362914Y-196442914D01*
X202291485Y-196514342D01*
X202148628Y-196585771D01*
X201791485Y-196585771D01*
X201648628Y-196514342D01*
X201577200Y-196442914D01*
X203077200Y-196442914D02*
X203148628Y-196514342D01*
X203077200Y-196585771D01*
X203005771Y-196514342D01*
X203077200Y-196442914D01*
X203077200Y-196585771D01*
X204577200Y-196585771D02*
X203720057Y-196585771D01*
X204148628Y-196585771D02*
X204148628Y-195085771D01*
X204005771Y-195300057D01*
X203862914Y-195442914D01*
X203720057Y-195514342D01*
X205220057Y-196442914D02*
X205291485Y-196514342D01*
X205220057Y-196585771D01*
X205148628Y-196514342D01*
X205220057Y-196442914D01*
X205220057Y-196585771D01*
X206577200Y-195085771D02*
X206291485Y-195085771D01*
X206148628Y-195157200D01*
X206077200Y-195228628D01*
X205934342Y-195442914D01*
X205862914Y-195728628D01*
X205862914Y-196300057D01*
X205934342Y-196442914D01*
X206005771Y-196514342D01*
X206148628Y-196585771D01*
X206434342Y-196585771D01*
X206577200Y-196514342D01*
X206648628Y-196442914D01*
X206720057Y-196300057D01*
X206720057Y-195942914D01*
X206648628Y-195800057D01*
X206577200Y-195728628D01*
X206434342Y-195657200D01*
X206148628Y-195657200D01*
X206005771Y-195728628D01*
X205934342Y-195800057D01*
X205862914Y-195942914D01*
X207362914Y-196014342D02*
X208505771Y-196014342D01*
X209862914Y-196514342D02*
X209720057Y-196585771D01*
X209434342Y-196585771D01*
X209291485Y-196514342D01*
X209220057Y-196442914D01*
X209148628Y-196300057D01*
X209148628Y-195871485D01*
X209220057Y-195728628D01*
X209291485Y-195657200D01*
X209434342Y-195585771D01*
X209720057Y-195585771D01*
X209862914Y-195657200D01*
X211148628Y-195085771D02*
X210862914Y-195085771D01*
X210720057Y-195157200D01*
X210648628Y-195228628D01*
X210505771Y-195442914D01*
X210434342Y-195728628D01*
X210434342Y-196300057D01*
X210505771Y-196442914D01*
X210577200Y-196514342D01*
X210720057Y-196585771D01*
X211005771Y-196585771D01*
X211148628Y-196514342D01*
X211220057Y-196442914D01*
X211291485Y-196300057D01*
X211291485Y-195942914D01*
X211220057Y-195800057D01*
X211148628Y-195728628D01*
X211005771Y-195657200D01*
X210720057Y-195657200D01*
X210577200Y-195728628D01*
X210505771Y-195800057D01*
X210434342Y-195942914D01*
X212505771Y-196514342D02*
X212362914Y-196585771D01*
X212077200Y-196585771D01*
X211934342Y-196514342D01*
X211862914Y-196371485D01*
X211862914Y-195800057D01*
X211934342Y-195657200D01*
X212077200Y-195585771D01*
X212362914Y-195585771D01*
X212505771Y-195657200D01*
X212577200Y-195800057D01*
X212577200Y-195942914D01*
X211862914Y-196085771D01*
X213077200Y-195085771D02*
X214077200Y-195085771D01*
X213434342Y-196585771D01*
X214434342Y-195585771D02*
X215005771Y-195585771D01*
X214648628Y-196585771D02*
X214648628Y-195300057D01*
X214720057Y-195157200D01*
X214862914Y-195085771D01*
X215005771Y-195085771D01*
X215362914Y-195085771D02*
X216362914Y-195085771D01*
X215720057Y-196585771D01*
X217577200Y-196585771D02*
X217577200Y-195085771D01*
X217577200Y-196514342D02*
X217434342Y-196585771D01*
X217148628Y-196585771D01*
X217005771Y-196514342D01*
X216934342Y-196442914D01*
X216862914Y-196300057D01*
X216862914Y-195871485D01*
X216934342Y-195728628D01*
X217005771Y-195657200D01*
X217148628Y-195585771D01*
X217434342Y-195585771D01*
X217577200Y-195657200D01*
X217934342Y-194677200D02*
X219362914Y-194677200D01*
X218505771Y-195728628D02*
X218362914Y-195657200D01*
X218291485Y-195585771D01*
X218220057Y-195442914D01*
X218220057Y-195371485D01*
X218291485Y-195228628D01*
X218362914Y-195157200D01*
X218505771Y-195085771D01*
X218791485Y-195085771D01*
X218934342Y-195157200D01*
X219005771Y-195228628D01*
X219077200Y-195371485D01*
X219077200Y-195442914D01*
X219005771Y-195585771D01*
X218934342Y-195657200D01*
X218791485Y-195728628D01*
X218505771Y-195728628D01*
X218362914Y-195800057D01*
X218291485Y-195871485D01*
X218220057Y-196014342D01*
X218220057Y-196300057D01*
X218291485Y-196442914D01*
X218362914Y-196514342D01*
X218505771Y-196585771D01*
X218791485Y-196585771D01*
X218934342Y-196514342D01*
X219005771Y-196442914D01*
X219077200Y-196300057D01*
X219077200Y-196014342D01*
X219005771Y-195871485D01*
X218934342Y-195800057D01*
X218791485Y-195728628D01*
X219362914Y-194677200D02*
X220791485Y-194677200D01*
X219577200Y-195085771D02*
X220577200Y-195085771D01*
X219934342Y-196585771D01*
X221791485Y-195585771D02*
X221791485Y-196585771D01*
X221148628Y-195585771D02*
X221148628Y-196371485D01*
X221220057Y-196514342D01*
X221362914Y-196585771D01*
X221577200Y-196585771D01*
X221720057Y-196514342D01*
X221791485Y-196442914D01*
X222505771Y-196585771D02*
X222505771Y-195085771D01*
X222505771Y-195657200D02*
X222648628Y-195585771D01*
X222934342Y-195585771D01*
X223077200Y-195657200D01*
X223148628Y-195728628D01*
X223220057Y-195871485D01*
X223220057Y-196300057D01*
X223148628Y-196442914D01*
X223077200Y-196514342D01*
X222934342Y-196585771D01*
X222648628Y-196585771D01*
X222505771Y-196514342D01*
X224505771Y-195585771D02*
X224505771Y-196585771D01*
X223862914Y-195585771D02*
X223862914Y-196371485D01*
X223934342Y-196514342D01*
X224077200Y-196585771D01*
X224291485Y-196585771D01*
X224434342Y-196514342D01*
X224505771Y-196442914D01*
X225220057Y-195585771D02*
X225220057Y-196585771D01*
X225220057Y-195728628D02*
X225291485Y-195657200D01*
X225434342Y-195585771D01*
X225648628Y-195585771D01*
X225791485Y-195657200D01*
X225862914Y-195800057D01*
X225862914Y-196585771D01*
X226362914Y-195585771D02*
X226934342Y-195585771D01*
X226577200Y-195085771D02*
X226577200Y-196371485D01*
X226648628Y-196514342D01*
X226791485Y-196585771D01*
X226934342Y-196585771D01*
X228077200Y-195585771D02*
X228077200Y-196585771D01*
X227434342Y-195585771D02*
X227434342Y-196371485D01*
X227505771Y-196514342D01*
X227648628Y-196585771D01*
X227862914Y-196585771D01*
X228005771Y-196514342D01*
X228077200Y-196442914D01*
X229577200Y-196585771D02*
X228720057Y-196585771D01*
X229148628Y-196585771D02*
X229148628Y-195085771D01*
X229005771Y-195300057D01*
X228862914Y-195442914D01*
X228720057Y-195514342D01*
X230434342Y-195728628D02*
X230291485Y-195657200D01*
X230220057Y-195585771D01*
X230148628Y-195442914D01*
X230148628Y-195371485D01*
X230220057Y-195228628D01*
X230291485Y-195157200D01*
X230434342Y-195085771D01*
X230720057Y-195085771D01*
X230862914Y-195157200D01*
X230934342Y-195228628D01*
X231005771Y-195371485D01*
X231005771Y-195442914D01*
X230934342Y-195585771D01*
X230862914Y-195657200D01*
X230720057Y-195728628D01*
X230434342Y-195728628D01*
X230291485Y-195800057D01*
X230220057Y-195871485D01*
X230148628Y-196014342D01*
X230148628Y-196300057D01*
X230220057Y-196442914D01*
X230291485Y-196514342D01*
X230434342Y-196585771D01*
X230720057Y-196585771D01*
X230862914Y-196514342D01*
X230934342Y-196442914D01*
X231005771Y-196300057D01*
X231005771Y-196014342D01*
X230934342Y-195871485D01*
X230862914Y-195800057D01*
X230720057Y-195728628D01*
X231648628Y-196442914D02*
X231720057Y-196514342D01*
X231648628Y-196585771D01*
X231577200Y-196514342D01*
X231648628Y-196442914D01*
X231648628Y-196585771D01*
X232648628Y-195085771D02*
X232791485Y-195085771D01*
X232934342Y-195157200D01*
X233005771Y-195228628D01*
X233077200Y-195371485D01*
X233148628Y-195657200D01*
X233148628Y-196014342D01*
X233077200Y-196300057D01*
X233005771Y-196442914D01*
X232934342Y-196514342D01*
X232791485Y-196585771D01*
X232648628Y-196585771D01*
X232505771Y-196514342D01*
X232434342Y-196442914D01*
X232362914Y-196300057D01*
X232291485Y-196014342D01*
X232291485Y-195657200D01*
X232362914Y-195371485D01*
X232434342Y-195228628D01*
X232505771Y-195157200D01*
X232648628Y-195085771D01*
X234434342Y-195585771D02*
X234434342Y-196585771D01*
X234077200Y-195014342D02*
X233720057Y-196085771D01*
X234648628Y-196085771D01*
X235220057Y-196442914D02*
X235291485Y-196514342D01*
X235220057Y-196585771D01*
X235148628Y-196514342D01*
X235220057Y-196442914D01*
X235220057Y-196585771D01*
X236720057Y-196585771D02*
X235862914Y-196585771D01*
X236291485Y-196585771D02*
X236291485Y-195085771D01*
X236148628Y-195300057D01*
X236005771Y-195442914D01*
X235862914Y-195514342D01*
D10*
D11*
X177002200Y-191507200D02*
X285002200Y-191507200D01*
D10*
D12*
X264411485Y-193785771D02*
X263911485Y-193071485D01*
X263554342Y-193785771D02*
X263554342Y-192285771D01*
X264125771Y-192285771D01*
X264268628Y-192357200D01*
X264340057Y-192428628D01*
X264411485Y-192571485D01*
X264411485Y-192785771D01*
X264340057Y-192928628D01*
X264268628Y-193000057D01*
X264125771Y-193071485D01*
X263554342Y-193071485D01*
X265625771Y-193714342D02*
X265482914Y-193785771D01*
X265197200Y-193785771D01*
X265054342Y-193714342D01*
X264982914Y-193571485D01*
X264982914Y-193000057D01*
X265054342Y-192857200D01*
X265197200Y-192785771D01*
X265482914Y-192785771D01*
X265625771Y-192857200D01*
X265697200Y-193000057D01*
X265697200Y-193142914D01*
X264982914Y-193285771D01*
X266197200Y-192785771D02*
X266554342Y-193785771D01*
X266911485Y-192785771D01*
X267482914Y-193642914D02*
X267554342Y-193714342D01*
X267482914Y-193785771D01*
X267411485Y-193714342D01*
X267482914Y-193642914D01*
X267482914Y-193785771D01*
X267482914Y-192857200D02*
X267554342Y-192928628D01*
X267482914Y-193000057D01*
X267411485Y-192928628D01*
X267482914Y-192857200D01*
X267482914Y-193000057D01*
D10*
D11*
X178362914Y-193714342D02*
X178577200Y-193785771D01*
X178934342Y-193785771D01*
X179077200Y-193714342D01*
X179148628Y-193642914D01*
X179220057Y-193500057D01*
X179220057Y-193357200D01*
X179148628Y-193214342D01*
X179077200Y-193142914D01*
X178934342Y-193071485D01*
X178648628Y-193000057D01*
X178505771Y-192928628D01*
X178434342Y-192857200D01*
X178362914Y-192714342D01*
X178362914Y-192571485D01*
X178434342Y-192428628D01*
X178505771Y-192357200D01*
X178648628Y-192285771D01*
X179005771Y-192285771D01*
X179220057Y-192357200D01*
X179862914Y-193785771D02*
X179862914Y-192785771D01*
X179862914Y-192285771D02*
X179791485Y-192357200D01*
X179862914Y-192428628D01*
X179934342Y-192357200D01*
X179862914Y-192285771D01*
X179862914Y-192428628D01*
X180434342Y-192785771D02*
X181220057Y-192785771D01*
X180434342Y-193785771D01*
X181220057Y-193785771D01*
X182362914Y-193714342D02*
X182220057Y-193785771D01*
X181934342Y-193785771D01*
X181791485Y-193714342D01*
X181720057Y-193571485D01*
X181720057Y-193000057D01*
X181791485Y-192857200D01*
X181934342Y-192785771D01*
X182220057Y-192785771D01*
X182362914Y-192857200D01*
X182434342Y-193000057D01*
X182434342Y-193142914D01*
X181720057Y-193285771D01*
X183077200Y-193642914D02*
X183148628Y-193714342D01*
X183077200Y-193785771D01*
X183005771Y-193714342D01*
X183077200Y-193642914D01*
X183077200Y-193785771D01*
X183077200Y-192857200D02*
X183148628Y-192928628D01*
X183077200Y-193000057D01*
X183005771Y-192928628D01*
X183077200Y-192857200D01*
X183077200Y-193000057D01*
X184862914Y-193357200D02*
X185577200Y-193357200D01*
X184720057Y-193785771D02*
X185220057Y-192285771D01*
X185720057Y-193785771D01*
X186862914Y-192785771D02*
X186862914Y-193785771D01*
X186505771Y-192214342D02*
X186148628Y-193285771D01*
X187077200Y-193285771D01*
D10*
D11*
X263434342Y-196585771D02*
X263434342Y-195085771D01*
X264791485Y-196585771D02*
X264791485Y-195085771D01*
X264791485Y-196514342D02*
X264648628Y-196585771D01*
X264362914Y-196585771D01*
X264220057Y-196514342D01*
X264148628Y-196442914D01*
X264077200Y-196300057D01*
X264077200Y-195871485D01*
X264148628Y-195728628D01*
X264220057Y-195657200D01*
X264362914Y-195585771D01*
X264648628Y-195585771D01*
X264791485Y-195657200D01*
X265505771Y-196442914D02*
X265577200Y-196514342D01*
X265505771Y-196585771D01*
X265434342Y-196514342D01*
X265505771Y-196442914D01*
X265505771Y-196585771D01*
X265505771Y-195657200D02*
X265577200Y-195728628D01*
X265505771Y-195800057D01*
X265434342Y-195728628D01*
X265505771Y-195657200D01*
X265505771Y-195800057D01*
X268148628Y-196585771D02*
X267291485Y-196585771D01*
X267720057Y-196585771D02*
X267720057Y-195085771D01*
X267577200Y-195300057D01*
X267434342Y-195442914D01*
X267291485Y-195514342D01*
X269862914Y-195014342D02*
X268577200Y-196942914D01*
X271148628Y-196585771D02*
X270291485Y-196585771D01*
X270720057Y-196585771D02*
X270720057Y-195085771D01*
X270577200Y-195300057D01*
X270434342Y-195442914D01*
X270291485Y-195514342D01*
D10*
D11*
X177002200Y-187507200D02*
X285002200Y-187507200D01*
D10*
D13*
X178714580Y-188211961D02*
X179857438Y-188211961D01*
X179036009Y-190211961D02*
X179286009Y-188211961D01*
X180274104Y-190211961D02*
X180440771Y-188878628D01*
X180524104Y-188211961D02*
X180416961Y-188307200D01*
X180500295Y-188402438D01*
X180607438Y-188307200D01*
X180524104Y-188211961D01*
X180500295Y-188402438D01*
X181107438Y-188878628D02*
X181869342Y-188878628D01*
X181476485Y-188211961D02*
X181262200Y-189926247D01*
X181333628Y-190116723D01*
X181512200Y-190211961D01*
X181702676Y-190211961D01*
X182655057Y-190211961D02*
X182476485Y-190116723D01*
X182405057Y-189926247D01*
X182619342Y-188211961D01*
X184190771Y-190116723D02*
X183988390Y-190211961D01*
X183607438Y-190211961D01*
X183428866Y-190116723D01*
X183357438Y-189926247D01*
X183452676Y-189164342D01*
X183571723Y-188973866D01*
X183774104Y-188878628D01*
X184155057Y-188878628D01*
X184333628Y-188973866D01*
X184405057Y-189164342D01*
X184381247Y-189354819D01*
X183405057Y-189545295D01*
X185155057Y-190021485D02*
X185238390Y-190116723D01*
X185131247Y-190211961D01*
X185047914Y-190116723D01*
X185155057Y-190021485D01*
X185131247Y-190211961D01*
X185286009Y-188973866D02*
X185369342Y-189069104D01*
X185262200Y-189164342D01*
X185178866Y-189069104D01*
X185286009Y-188973866D01*
X185262200Y-189164342D01*
D10*
D11*
X178934342Y-185600057D02*
X178434342Y-185600057D01*
X178434342Y-186385771D02*
X178434342Y-184885771D01*
X179148628Y-184885771D01*
X179720057Y-186385771D02*
X179720057Y-185385771D01*
X179720057Y-184885771D02*
X179648628Y-184957200D01*
X179720057Y-185028628D01*
X179791485Y-184957200D01*
X179720057Y-184885771D01*
X179720057Y-185028628D01*
X180648628Y-186385771D02*
X180505771Y-186314342D01*
X180434342Y-186171485D01*
X180434342Y-184885771D01*
X181791485Y-186314342D02*
X181648628Y-186385771D01*
X181362914Y-186385771D01*
X181220057Y-186314342D01*
X181148628Y-186171485D01*
X181148628Y-185600057D01*
X181220057Y-185457200D01*
X181362914Y-185385771D01*
X181648628Y-185385771D01*
X181791485Y-185457200D01*
X181862914Y-185600057D01*
X181862914Y-185742914D01*
X181148628Y-185885771D01*
X182505771Y-186242914D02*
X182577200Y-186314342D01*
X182505771Y-186385771D01*
X182434342Y-186314342D01*
X182505771Y-186242914D01*
X182505771Y-186385771D01*
X182505771Y-185457200D02*
X182577200Y-185528628D01*
X182505771Y-185600057D01*
X182434342Y-185528628D01*
X182505771Y-185457200D01*
X182505771Y-185600057D01*
X184934342Y-186314342D02*
X184791485Y-186385771D01*
X184505771Y-186385771D01*
X184362914Y-186314342D01*
X184291485Y-186171485D01*
X184291485Y-185600057D01*
X184362914Y-185457200D01*
X184505771Y-185385771D01*
X184791485Y-185385771D01*
X184934342Y-185457200D01*
X185005771Y-185600057D01*
X185005771Y-185742914D01*
X184291485Y-185885771D01*
X185648628Y-185814342D02*
X186791485Y-185814342D01*
X187505771Y-185385771D02*
X187505771Y-186885771D01*
X187505771Y-185457200D02*
X187648628Y-185385771D01*
X187934342Y-185385771D01*
X188077200Y-185457200D01*
X188148628Y-185528628D01*
X188220057Y-185671485D01*
X188220057Y-186100057D01*
X188148628Y-186242914D01*
X188077200Y-186314342D01*
X187934342Y-186385771D01*
X187648628Y-186385771D01*
X187505771Y-186314342D01*
X188862914Y-185814342D02*
X190005771Y-185814342D01*
X190577200Y-185385771D02*
X190862914Y-186385771D01*
X191148628Y-185671485D01*
X191434342Y-186385771D01*
X191720057Y-185385771D01*
X192291485Y-186385771D02*
X192291485Y-185385771D01*
X192291485Y-184885771D02*
X192220057Y-184957200D01*
X192291485Y-185028628D01*
X192362914Y-184957200D01*
X192291485Y-184885771D01*
X192291485Y-185028628D01*
X192791485Y-185385771D02*
X193362914Y-185385771D01*
X193005771Y-186385771D02*
X193005771Y-185100057D01*
X193077200Y-184957200D01*
X193220057Y-184885771D01*
X193362914Y-184885771D01*
X193862914Y-186385771D02*
X193862914Y-185385771D01*
X193862914Y-184885771D02*
X193791485Y-184957200D01*
X193862914Y-185028628D01*
X193934342Y-184957200D01*
X193862914Y-184885771D01*
X193862914Y-185028628D01*
X194577200Y-185814342D02*
X195720057Y-185814342D01*
X196648628Y-186385771D02*
X196505771Y-186314342D01*
X196434342Y-186171485D01*
X196434342Y-184885771D01*
X197005771Y-185385771D02*
X197577200Y-185385771D01*
X197220057Y-186385771D02*
X197220057Y-185100057D01*
X197291485Y-184957200D01*
X197434342Y-184885771D01*
X197577200Y-184885771D01*
X198077200Y-186242914D02*
X198148628Y-186314342D01*
X198077200Y-186385771D01*
X198005771Y-186314342D01*
X198077200Y-186242914D01*
X198077200Y-186385771D01*
X198791485Y-186385771D02*
X198791485Y-184885771D01*
X198934342Y-185814342D02*
X199362914Y-186385771D01*
X199362914Y-185385771D02*
X198791485Y-185957200D01*
X200005771Y-186385771D02*
X200005771Y-185385771D01*
X200005771Y-184885771D02*
X199934342Y-184957200D01*
X200005771Y-185028628D01*
X200077200Y-184957200D01*
X200005771Y-184885771D01*
X200005771Y-185028628D01*
X201362914Y-186314342D02*
X201220057Y-186385771D01*
X200934342Y-186385771D01*
X200791485Y-186314342D01*
X200720057Y-186242914D01*
X200648628Y-186100057D01*
X200648628Y-185671485D01*
X200720057Y-185528628D01*
X200791485Y-185457200D01*
X200934342Y-185385771D01*
X201220057Y-185385771D01*
X201362914Y-185457200D01*
X202648628Y-186385771D02*
X202648628Y-185600057D01*
X202577200Y-185457200D01*
X202434342Y-185385771D01*
X202148628Y-185385771D01*
X202005771Y-185457200D01*
X202648628Y-186314342D02*
X202505771Y-186385771D01*
X202148628Y-186385771D01*
X202005771Y-186314342D01*
X201934342Y-186171485D01*
X201934342Y-186028628D01*
X202005771Y-185885771D01*
X202148628Y-185814342D01*
X202505771Y-185814342D01*
X202648628Y-185742914D01*
X204005771Y-186385771D02*
X204005771Y-184885771D01*
X204005771Y-186314342D02*
X203862914Y-186385771D01*
X203577200Y-186385771D01*
X203434342Y-186314342D01*
X203362914Y-186242914D01*
X203291485Y-186100057D01*
X203291485Y-185671485D01*
X203362914Y-185528628D01*
X203434342Y-185457200D01*
X203577200Y-185385771D01*
X203862914Y-185385771D01*
X204005771Y-185457200D01*
X204362914Y-186528628D02*
X205505771Y-186528628D01*
X205862914Y-185385771D02*
X205862914Y-186885771D01*
X205862914Y-185457200D02*
X206005771Y-185385771D01*
X206291485Y-185385771D01*
X206434342Y-185457200D01*
X206505771Y-185528628D01*
X206577200Y-185671485D01*
X206577200Y-186100057D01*
X206505771Y-186242914D01*
X206434342Y-186314342D01*
X206291485Y-186385771D01*
X206005771Y-186385771D01*
X205862914Y-186314342D01*
X207862914Y-186314342D02*
X207720057Y-186385771D01*
X207434342Y-186385771D01*
X207291485Y-186314342D01*
X207220057Y-186242914D01*
X207148628Y-186100057D01*
X207148628Y-185671485D01*
X207220057Y-185528628D01*
X207291485Y-185457200D01*
X207434342Y-185385771D01*
X207720057Y-185385771D01*
X207862914Y-185457200D01*
X208505771Y-186385771D02*
X208505771Y-184885771D01*
X208505771Y-185457200D02*
X208648628Y-185385771D01*
X208934342Y-185385771D01*
X209077200Y-185457200D01*
X209148628Y-185528628D01*
X209220057Y-185671485D01*
X209220057Y-186100057D01*
X209148628Y-186242914D01*
X209077200Y-186314342D01*
X208934342Y-186385771D01*
X208648628Y-186385771D01*
X208505771Y-186314342D01*
D10*
D11*
X177002200Y-181507200D02*
X285002200Y-181507200D01*
D10*
D11*
X178362914Y-183614342D02*
X178577200Y-183685771D01*
X178934342Y-183685771D01*
X179077200Y-183614342D01*
X179148628Y-183542914D01*
X179220057Y-183400057D01*
X179220057Y-183257200D01*
X179148628Y-183114342D01*
X179077200Y-183042914D01*
X178934342Y-182971485D01*
X178648628Y-182900057D01*
X178505771Y-182828628D01*
X178434342Y-182757200D01*
X178362914Y-182614342D01*
X178362914Y-182471485D01*
X178434342Y-182328628D01*
X178505771Y-182257200D01*
X178648628Y-182185771D01*
X179005771Y-182185771D01*
X179220057Y-182257200D01*
X179862914Y-183685771D02*
X179862914Y-182185771D01*
X180505771Y-183685771D02*
X180505771Y-182900057D01*
X180434342Y-182757200D01*
X180291485Y-182685771D01*
X180077200Y-182685771D01*
X179934342Y-182757200D01*
X179862914Y-182828628D01*
X181791485Y-183614342D02*
X181648628Y-183685771D01*
X181362914Y-183685771D01*
X181220057Y-183614342D01*
X181148628Y-183471485D01*
X181148628Y-182900057D01*
X181220057Y-182757200D01*
X181362914Y-182685771D01*
X181648628Y-182685771D01*
X181791485Y-182757200D01*
X181862914Y-182900057D01*
X181862914Y-183042914D01*
X181148628Y-183185771D01*
X183077200Y-183614342D02*
X182934342Y-183685771D01*
X182648628Y-183685771D01*
X182505771Y-183614342D01*
X182434342Y-183471485D01*
X182434342Y-182900057D01*
X182505771Y-182757200D01*
X182648628Y-182685771D01*
X182934342Y-182685771D01*
X183077200Y-182757200D01*
X183148628Y-182900057D01*
X183148628Y-183042914D01*
X182434342Y-183185771D01*
X183577200Y-182685771D02*
X184148628Y-182685771D01*
X183791485Y-182185771D02*
X183791485Y-183471485D01*
X183862914Y-183614342D01*
X184005771Y-183685771D01*
X184148628Y-183685771D01*
X184648628Y-183542914D02*
X184720057Y-183614342D01*
X184648628Y-183685771D01*
X184577200Y-183614342D01*
X184648628Y-183542914D01*
X184648628Y-183685771D01*
X184648628Y-182757200D02*
X184720057Y-182828628D01*
X184648628Y-182900057D01*
X184577200Y-182828628D01*
X184648628Y-182757200D01*
X184648628Y-182900057D01*
D10*
D11*
X197002200Y-191507200D02*
X197002200Y-194507200D01*
D10*
D11*
X261002200Y-191507200D02*
X261002200Y-198007200D01*
D14*
%TO.P,J3,10*%
%TO.N,GND*%
X84582000Y-128905000D03*
%TO.P,J3,9*%
X84582000Y-113665000D03*
D15*
%TO.P,J3,8*%
%TO.N,Net-(J2-PadA5)*%
X78740000Y-116840000D03*
%TO.P,J3,7*%
%TO.N,Net-(J2-PadA3)*%
X81280000Y-118110000D03*
%TO.P,J3,6*%
%TO.N,Net-(J2-PadA6)*%
X78740000Y-119380000D03*
%TO.P,J3,5*%
%TO.N,Net-(J2-Pad+5V)*%
X81280000Y-120650000D03*
%TO.P,J3,4*%
%TO.N,Net-(J2-PadReset)*%
X78740000Y-121920000D03*
%TO.P,J3,3*%
%TO.N,GND*%
X81280000Y-123190000D03*
%TO.P,J3,2*%
%TO.N,Net-(J2-Pad3.3V)*%
X78740000Y-124460000D03*
D16*
%TO.P,J3,1*%
%TO.N,GND*%
X81280000Y-125730000D03*
D17*
%TO.P,J3,*%
%TO.N,*%
X87630000Y-127000000D03*
D18*
X87630000Y-115570000D03*
%TD*%
D14*
%TO.P,J2,AREF*%
%TO.N,Net-(J2-PadAREF)*%
X73660000Y-111760000D03*
D19*
%TO.P,J2,A3*%
%TO.N,Net-(J2-PadA3)*%
X63500000Y-111760000D03*
%TO.P,J2,A6*%
%TO.N,Net-(J2-PadA6)*%
X55880000Y-111760000D03*
%TO.P,J2,A0*%
%TO.N,Net-(J2-PadA0)*%
X71120000Y-111760000D03*
%TO.P,J2,A5*%
%TO.N,Net-(J2-PadA5)*%
X58420000Y-111760000D03*
%TO.P,J2,A4*%
%TO.N,Net-(J2-PadA4)*%
X60960000Y-111760000D03*
%TO.P,J2,A1*%
%TO.N,Net-(J2-PadA1)*%
X68580000Y-111760000D03*
%TO.P,J2,A2*%
%TO.N,Net-(J2-PadA2)*%
X66040000Y-111760000D03*
%TO.P,J2,D12*%
%TO.N,Net-(J2-PadD12)*%
X55880000Y-132080000D03*
%TO.P,J2,D13*%
%TO.N,Net-(J2-PadD13)*%
X58420000Y-132080000D03*
%TO.P,J2,D14*%
%TO.N,Net-(J2-PadD14)*%
X60960000Y-132080000D03*
%TO.P,J2,Reset*%
%TO.N,Net-(J2-PadReset)*%
X63500000Y-132080000D03*
%TO.P,J2,GND*%
%TO.N,GND*%
X66040000Y-132080000D03*
%TO.P,J2,3.3V*%
%TO.N,Net-(J2-Pad3.3V)*%
X68580000Y-132080000D03*
%TO.P,J2,VIN*%
%TO.N,Net-(J2-PadVIN)*%
X71120000Y-132080000D03*
D14*
%TO.P,J2,+5V*%
%TO.N,Net-(J2-Pad+5V)*%
X73660000Y-132080000D03*
%TD*%
%TO.P,J1,1*%
%TO.N,Net-(J1-Pad1)*%
X44450000Y-128270000D03*
%TD*%
D20*
%TO.P,LS1,2*%
%TO.N,GND*%
X52272000Y-119126000D03*
%TO.P,LS1,1*%
%TO.N,Net-(LS1-Pad1)*%
X45772000Y-119126000D03*
%TD*%
D21*
%TO.P,Q1,1*%
%TO.N,Net-(Q1-Pad1)*%
X62230000Y-121158000D03*
D22*
%TO.P,Q1,2*%
%TO.N,Net-(Q1-Pad2)*%
X63500000Y-122428000D03*
%TO.P,Q1,3*%
%TO.N,Net-(LS1-Pad1)*%
X64770000Y-121158000D03*
%TD*%
D23*
%TO.P,R1,1*%
%TO.N,Net-(Q1-Pad2)*%
X53086000Y-128270000D03*
D24*
%TO.P,R1,2*%
%TO.N,Net-(J1-Pad1)*%
X48006000Y-128270000D03*
%TD*%
%TO.P,R2,2*%
%TO.N,Net-(J2-Pad3.3V)*%
X68580000Y-128016000D03*
D23*
%TO.P,R2,1*%
%TO.N,Net-(Q1-Pad1)*%
X63500000Y-128016000D03*
%TD*%
D25*
%TO.N,Net-(J1-Pad1)*%
X44450000Y-128270000D02*
X48006000Y-128270000D01*
%TO.N,Net-(J2-Pad3.3V)*%
X78740000Y-124460000D02*
X77470000Y-124460000D01*
X77470000Y-124460000D02*
X76200000Y-125730000D01*
X76200000Y-125730000D02*
X76200000Y-127000000D01*
X76200000Y-127000000D02*
X75184000Y-128016000D01*
X75184000Y-128016000D02*
X68580000Y-128016000D01*
X68580000Y-128016000D02*
X68580000Y-132080000D01*
D26*
%TO.N,GND*%
X66040000Y-132080000D02*
X66040000Y-132842000D01*
D25*
X84582000Y-113157000D02*
X84582000Y-119888000D01*
X84582000Y-119888000D02*
X81280000Y-123190000D01*
X81280000Y-123190000D02*
X81280000Y-125730000D01*
X81280000Y-125730000D02*
X82804000Y-125730000D01*
X82804000Y-125730000D02*
X84582000Y-127508000D01*
X84582000Y-127508000D02*
X84582000Y-129286000D01*
X84582000Y-129413000D02*
X83185000Y-129413000D01*
X83185000Y-129413000D02*
X79217999Y-133380001D01*
X79217999Y-133380001D02*
X78994000Y-133604000D01*
X78994000Y-133604000D02*
X67310000Y-133604000D01*
X67310000Y-133604000D02*
X66040000Y-132334000D01*
X67310000Y-133604000D02*
X44196000Y-133604000D01*
X44196000Y-133604000D02*
X41910000Y-131318000D01*
X41910000Y-131318000D02*
X41910000Y-115062000D01*
X41910000Y-115062000D02*
X44958000Y-112014000D01*
X44958000Y-112014000D02*
X50292000Y-112014000D01*
X50292000Y-112014000D02*
X52324000Y-114046000D01*
X52324000Y-114046000D02*
X52324000Y-119126000D01*
%TO.N,Net-(J2-PadReset)*%
X76962000Y-121920000D02*
X78740000Y-121920000D01*
X73152000Y-125730000D02*
X76962000Y-121920000D01*
X65024000Y-127254000D02*
X66548000Y-125730000D01*
X63500000Y-132080000D02*
X65024000Y-130556000D01*
X66548000Y-125730000D02*
X73152000Y-125730000D01*
X65024000Y-130556000D02*
X65024000Y-127254000D01*
%TO.N,Net-(J2-PadA5)*%
X78740000Y-116840000D02*
X77216000Y-115316000D01*
X77216000Y-115316000D02*
X59182000Y-115316000D01*
X58420000Y-114554000D02*
X59182000Y-115316000D01*
X58420000Y-111760000D02*
X58420000Y-114554000D01*
%TO.N,Net-(J2-PadA6)*%
X55880000Y-111760000D02*
X55880000Y-114300000D01*
X55880000Y-114300000D02*
X55880000Y-114808000D01*
X55880000Y-114808000D02*
X57404000Y-116332000D01*
X57404000Y-116332000D02*
X73406000Y-116332000D01*
X73406000Y-116332000D02*
X76454000Y-119380000D01*
X76454000Y-119380000D02*
X78740000Y-119380000D01*
%TO.N,Net-(J2-PadA3)*%
X81280000Y-118110000D02*
X81280000Y-115316000D01*
X81280000Y-115316000D02*
X79756000Y-113792000D01*
X79756000Y-113792000D02*
X65278000Y-113792000D01*
X65278000Y-113792000D02*
X64516000Y-113792000D01*
X64516000Y-113792000D02*
X64516000Y-112776000D01*
X64516000Y-112776000D02*
X63754000Y-112014000D01*
%TO.N,Net-(J2-Pad+5V)*%
X81280000Y-120650000D02*
X80264000Y-121666000D01*
X79940001Y-121989999D02*
X79940001Y-126307999D01*
X80264000Y-121666000D02*
X79940001Y-121989999D01*
X79940001Y-126307999D02*
X74168000Y-132080000D01*
X74168000Y-132080000D02*
X73660000Y-132080000D01*
%TO.N,Net-(LS1-Pad1)*%
X64770000Y-121158000D02*
X64770000Y-118364000D01*
X64770000Y-118364000D02*
X64770000Y-118110000D01*
X64770000Y-118110000D02*
X64008000Y-117348000D01*
X64008000Y-117348000D02*
X59436000Y-117348000D01*
X59436000Y-117348000D02*
X54610000Y-122174000D01*
X54610000Y-122174000D02*
X48768000Y-122174000D01*
X48768000Y-122174000D02*
X45974000Y-119380000D01*
%TO.N,Net-(Q1-Pad1)*%
X57150000Y-121158000D02*
X62230000Y-121158000D01*
X57150000Y-128016000D02*
X54610000Y-130556000D01*
X63500000Y-128016000D02*
X57150000Y-128016000D01*
X51054000Y-130302000D02*
X51054000Y-127254000D01*
X54610000Y-130556000D02*
X51308000Y-130556000D01*
X51308000Y-130556000D02*
X51054000Y-130302000D01*
X51054000Y-127254000D02*
X57150000Y-121158000D01*
%TO.N,Net-(Q1-Pad2)*%
X53086000Y-128270000D02*
X55372000Y-128270000D01*
X63500000Y-122428000D02*
X63500000Y-124206000D01*
X63119000Y-124587000D02*
X59055000Y-124587000D01*
X63500000Y-124206000D02*
X63119000Y-124587000D01*
X55372000Y-128270000D02*
X59055000Y-124587000D01*
%TD*%
D27*
%TO.N,GND*%
G36*
X94590001Y-133960000D02*
G01*
X41300000Y-133960000D01*
X41300000Y-127420000D01*
X42961928Y-127420000D01*
X42961928Y-129120000D01*
X42974188Y-129244482D01*
X43010498Y-129364180D01*
X43069463Y-129474494D01*
X43148815Y-129571185D01*
X43245506Y-129650537D01*
X43355820Y-129709502D01*
X43475518Y-129745812D01*
X43600000Y-129758072D01*
X45300000Y-129758072D01*
X45424482Y-129745812D01*
X45544180Y-129709502D01*
X45654494Y-129650537D01*
X45751185Y-129571185D01*
X45830537Y-129474494D01*
X45889502Y-129364180D01*
X45925812Y-129244482D01*
X45934625Y-129155000D01*
X47003025Y-129155000D01*
X47154987Y-129306962D01*
X47373641Y-129453061D01*
X47616595Y-129553696D01*
X47874514Y-129605000D01*
X48137486Y-129605000D01*
X48395405Y-129553696D01*
X48638359Y-129453061D01*
X48857013Y-129306962D01*
X49042962Y-129121013D01*
X49189061Y-128902359D01*
X49289696Y-128659405D01*
X49341000Y-128401486D01*
X49341000Y-128138514D01*
X49289696Y-127880595D01*
X49189061Y-127637641D01*
X49042962Y-127418987D01*
X48857013Y-127233038D01*
X48638359Y-127086939D01*
X48395405Y-126986304D01*
X48137486Y-126935000D01*
X47874514Y-126935000D01*
X47616595Y-126986304D01*
X47373641Y-127086939D01*
X47154987Y-127233038D01*
X47003025Y-127385000D01*
X45934625Y-127385000D01*
X45925812Y-127295518D01*
X45889502Y-127175820D01*
X45830537Y-127065506D01*
X45751185Y-126968815D01*
X45654494Y-126889463D01*
X45544180Y-126830498D01*
X45424482Y-126794188D01*
X45300000Y-126781928D01*
X43600000Y-126781928D01*
X43475518Y-126794188D01*
X43355820Y-126830498D01*
X43245506Y-126889463D01*
X43148815Y-126968815D01*
X43069463Y-127065506D01*
X43010498Y-127175820D01*
X42974188Y-127295518D01*
X42961928Y-127420000D01*
X41300000Y-127420000D01*
X41300000Y-118940344D01*
X43887000Y-118940344D01*
X43887000Y-119311656D01*
X43959439Y-119675834D01*
X44101534Y-120018882D01*
X44307825Y-120327618D01*
X44570382Y-120590175D01*
X44879118Y-120796466D01*
X45222166Y-120938561D01*
X45586344Y-121011000D01*
X45957656Y-121011000D01*
X46287760Y-120945339D01*
X48111470Y-122769049D01*
X48139183Y-122802817D01*
X48172951Y-122830530D01*
X48172953Y-122830532D01*
X48273941Y-122913411D01*
X48427686Y-122995589D01*
X48594510Y-123046195D01*
X48724523Y-123059000D01*
X48724531Y-123059000D01*
X48768000Y-123063281D01*
X48811469Y-123059000D01*
X53997421Y-123059000D01*
X50458952Y-126597470D01*
X50425184Y-126625183D01*
X50397471Y-126658951D01*
X50397468Y-126658954D01*
X50314590Y-126759941D01*
X50232412Y-126913687D01*
X50181805Y-127080510D01*
X50164719Y-127254000D01*
X50169001Y-127297479D01*
X50169000Y-130258531D01*
X50164719Y-130302000D01*
X50169000Y-130345469D01*
X50169000Y-130345476D01*
X50181805Y-130475489D01*
X50232411Y-130642312D01*
X50314589Y-130796058D01*
X50425183Y-130930817D01*
X50458956Y-130958534D01*
X50651466Y-131151044D01*
X50679183Y-131184817D01*
X50813941Y-131295411D01*
X50967687Y-131377589D01*
X51134510Y-131428195D01*
X51264523Y-131441000D01*
X51264533Y-131441000D01*
X51307999Y-131445281D01*
X51351465Y-131441000D01*
X54537330Y-131441000D01*
X54452068Y-131646842D01*
X54395000Y-131933740D01*
X54395000Y-132226260D01*
X54452068Y-132513158D01*
X54564010Y-132783411D01*
X54726525Y-133026632D01*
X54933368Y-133233475D01*
X55176589Y-133395990D01*
X55446842Y-133507932D01*
X55733740Y-133565000D01*
X56026260Y-133565000D01*
X56313158Y-133507932D01*
X56583411Y-133395990D01*
X56826632Y-133233475D01*
X57033475Y-133026632D01*
X57150000Y-132852240D01*
X57266525Y-133026632D01*
X57473368Y-133233475D01*
X57716589Y-133395990D01*
X57986842Y-133507932D01*
X58273740Y-133565000D01*
X58566260Y-133565000D01*
X58853158Y-133507932D01*
X59123411Y-133395990D01*
X59366632Y-133233475D01*
X59573475Y-133026632D01*
X59690000Y-132852240D01*
X59806525Y-133026632D01*
X60013368Y-133233475D01*
X60256589Y-133395990D01*
X60526842Y-133507932D01*
X60813740Y-133565000D01*
X61106260Y-133565000D01*
X61393158Y-133507932D01*
X61663411Y-133395990D01*
X61906632Y-133233475D01*
X62113475Y-133026632D01*
X62230000Y-132852240D01*
X62346525Y-133026632D01*
X62553368Y-133233475D01*
X62796589Y-133395990D01*
X63066842Y-133507932D01*
X63353740Y-133565000D01*
X63646260Y-133565000D01*
X63933158Y-133507932D01*
X64203411Y-133395990D01*
X64446632Y-133233475D01*
X64653475Y-133026632D01*
X64775195Y-132844466D01*
X64844822Y-132961355D01*
X65039731Y-133177588D01*
X65273080Y-133351641D01*
X65535901Y-133476825D01*
X65683110Y-133521476D01*
X65913000Y-133400155D01*
X65913000Y-132207000D01*
X65893000Y-132207000D01*
X65893000Y-131953000D01*
X65913000Y-131953000D01*
X65913000Y-130759845D01*
X65890577Y-130748011D01*
X65896195Y-130729490D01*
X65909000Y-130599477D01*
X65909000Y-130599467D01*
X65913281Y-130556001D01*
X65909000Y-130512535D01*
X65909000Y-127620578D01*
X66914579Y-126615000D01*
X73108531Y-126615000D01*
X73152000Y-126619281D01*
X73195469Y-126615000D01*
X73195477Y-126615000D01*
X73325490Y-126602195D01*
X73492313Y-126551589D01*
X73646059Y-126469411D01*
X73780817Y-126358817D01*
X73808534Y-126325044D01*
X77328579Y-122805000D01*
X77666315Y-122805000D01*
X77857114Y-122995799D01*
X78083957Y-123147371D01*
X78186873Y-123190000D01*
X78083957Y-123232629D01*
X77857114Y-123384201D01*
X77666315Y-123575000D01*
X77513465Y-123575000D01*
X77469999Y-123570719D01*
X77426533Y-123575000D01*
X77426523Y-123575000D01*
X77296510Y-123587805D01*
X77129687Y-123638411D01*
X76975941Y-123720589D01*
X76975939Y-123720590D01*
X76975940Y-123720590D01*
X76874953Y-123803468D01*
X76874951Y-123803470D01*
X76841183Y-123831183D01*
X76813470Y-123864951D01*
X75604956Y-125073466D01*
X75571183Y-125101183D01*
X75460589Y-125235942D01*
X75378411Y-125389688D01*
X75327805Y-125556511D01*
X75315000Y-125686524D01*
X75315000Y-125686531D01*
X75310719Y-125730000D01*
X75315000Y-125773470D01*
X75315001Y-126633421D01*
X74817422Y-127131000D01*
X69582975Y-127131000D01*
X69431013Y-126979038D01*
X69212359Y-126832939D01*
X68969405Y-126732304D01*
X68711486Y-126681000D01*
X68448514Y-126681000D01*
X68190595Y-126732304D01*
X67947641Y-126832939D01*
X67728987Y-126979038D01*
X67543038Y-127164987D01*
X67396939Y-127383641D01*
X67296304Y-127626595D01*
X67245000Y-127884514D01*
X67245000Y-128147486D01*
X67296304Y-128405405D01*
X67396939Y-128648359D01*
X67543038Y-128867013D01*
X67695000Y-129018975D01*
X67695001Y-130885343D01*
X67633368Y-130926525D01*
X67426525Y-131133368D01*
X67304805Y-131315534D01*
X67235178Y-131198645D01*
X67040269Y-130982412D01*
X66806920Y-130808359D01*
X66544099Y-130683175D01*
X66396890Y-130638524D01*
X66167000Y-130759845D01*
X66167000Y-131953000D01*
X66187000Y-131953000D01*
X66187000Y-132207000D01*
X66167000Y-132207000D01*
X66167000Y-133400155D01*
X66396890Y-133521476D01*
X66544099Y-133476825D01*
X66806920Y-133351641D01*
X67040269Y-133177588D01*
X67235178Y-132961355D01*
X67304805Y-132844466D01*
X67426525Y-133026632D01*
X67633368Y-133233475D01*
X67876589Y-133395990D01*
X68146842Y-133507932D01*
X68433740Y-133565000D01*
X68726260Y-133565000D01*
X69013158Y-133507932D01*
X69283411Y-133395990D01*
X69526632Y-133233475D01*
X69733475Y-133026632D01*
X69850000Y-132852240D01*
X69966525Y-133026632D01*
X70173368Y-133233475D01*
X70416589Y-133395990D01*
X70686842Y-133507932D01*
X70973740Y-133565000D01*
X71266260Y-133565000D01*
X71553158Y-133507932D01*
X71823411Y-133395990D01*
X72066632Y-133233475D01*
X72198487Y-133101620D01*
X72220498Y-133174180D01*
X72279463Y-133284494D01*
X72358815Y-133381185D01*
X72455506Y-133460537D01*
X72565820Y-133519502D01*
X72685518Y-133555812D01*
X72810000Y-133568072D01*
X74510000Y-133568072D01*
X74634482Y-133555812D01*
X74754180Y-133519502D01*
X74864494Y-133460537D01*
X74961185Y-133381185D01*
X75040537Y-133284494D01*
X75099502Y-133174180D01*
X75135812Y-133054482D01*
X75148072Y-132930000D01*
X75148072Y-132351506D01*
X77744578Y-129755000D01*
X83093928Y-129755000D01*
X83106188Y-129879482D01*
X83142498Y-129999180D01*
X83201463Y-130109494D01*
X83280815Y-130206185D01*
X83377506Y-130285537D01*
X83487820Y-130344502D01*
X83607518Y-130380812D01*
X83732000Y-130393072D01*
X84296250Y-130390000D01*
X84455000Y-130231250D01*
X84455000Y-129032000D01*
X84709000Y-129032000D01*
X84709000Y-130231250D01*
X84867750Y-130390000D01*
X85432000Y-130393072D01*
X85556482Y-130380812D01*
X85676180Y-130344502D01*
X85786494Y-130285537D01*
X85883185Y-130206185D01*
X85962537Y-130109494D01*
X86021502Y-129999180D01*
X86057812Y-129879482D01*
X86070072Y-129755000D01*
X86067000Y-129190750D01*
X85908250Y-129032000D01*
X84709000Y-129032000D01*
X84455000Y-129032000D01*
X83255750Y-129032000D01*
X83097000Y-129190750D01*
X83093928Y-129755000D01*
X77744578Y-129755000D01*
X79444578Y-128055000D01*
X83093928Y-128055000D01*
X83097000Y-128619250D01*
X83255750Y-128778000D01*
X84455000Y-128778000D01*
X84455000Y-127578750D01*
X84709000Y-127578750D01*
X84709000Y-128778000D01*
X85908250Y-128778000D01*
X86067000Y-128619250D01*
X86067116Y-128597883D01*
X86205271Y-128736038D01*
X86571331Y-128980631D01*
X86978075Y-129149110D01*
X87409872Y-129235000D01*
X87850128Y-129235000D01*
X88281925Y-129149110D01*
X88688669Y-128980631D01*
X89054729Y-128736038D01*
X89366038Y-128424729D01*
X89610631Y-128058669D01*
X89779110Y-127651925D01*
X89865000Y-127220128D01*
X89865000Y-126779872D01*
X89779110Y-126348075D01*
X89610631Y-125941331D01*
X89366038Y-125575271D01*
X89054729Y-125263962D01*
X88688669Y-125019369D01*
X88281925Y-124850890D01*
X87850128Y-124765000D01*
X87409872Y-124765000D01*
X86978075Y-124850890D01*
X86571331Y-125019369D01*
X86205271Y-125263962D01*
X85893962Y-125575271D01*
X85649369Y-125941331D01*
X85480890Y-126348075D01*
X85395000Y-126779872D01*
X85395000Y-127220128D01*
X85434189Y-127417144D01*
X85432000Y-127416928D01*
X84867750Y-127420000D01*
X84709000Y-127578750D01*
X84455000Y-127578750D01*
X84296250Y-127420000D01*
X83732000Y-127416928D01*
X83607518Y-127429188D01*
X83487820Y-127465498D01*
X83377506Y-127524463D01*
X83280815Y-127603815D01*
X83201463Y-127700506D01*
X83142498Y-127810820D01*
X83106188Y-127930518D01*
X83093928Y-128055000D01*
X79444578Y-128055000D01*
X80396502Y-127103077D01*
X80405518Y-127105812D01*
X80530000Y-127118072D01*
X80994250Y-127115000D01*
X81153000Y-126956250D01*
X81153000Y-125857000D01*
X81407000Y-125857000D01*
X81407000Y-126956250D01*
X81565750Y-127115000D01*
X82030000Y-127118072D01*
X82154482Y-127105812D01*
X82274180Y-127069502D01*
X82384494Y-127010537D01*
X82481185Y-126931185D01*
X82560537Y-126834494D01*
X82619502Y-126724180D01*
X82655812Y-126604482D01*
X82668072Y-126480000D01*
X82665000Y-126015750D01*
X82506250Y-125857000D01*
X81407000Y-125857000D01*
X81153000Y-125857000D01*
X81133000Y-125857000D01*
X81133000Y-125603000D01*
X81153000Y-125603000D01*
X81153000Y-125583000D01*
X81407000Y-125583000D01*
X81407000Y-125603000D01*
X82506250Y-125603000D01*
X82665000Y-125444250D01*
X82668072Y-124980000D01*
X82655812Y-124855518D01*
X82619502Y-124735820D01*
X82560537Y-124625506D01*
X82481185Y-124528815D01*
X82384494Y-124449463D01*
X82274180Y-124390498D01*
X82154482Y-124354188D01*
X82030000Y-124341928D01*
X82003867Y-124342101D01*
X82057388Y-124146993D01*
X81280000Y-123369605D01*
X81265858Y-123383748D01*
X81086253Y-123204143D01*
X81100395Y-123190000D01*
X81459605Y-123190000D01*
X82236993Y-123967388D01*
X82475860Y-123901863D01*
X82591760Y-123654884D01*
X82657250Y-123390040D01*
X82669812Y-123117508D01*
X82628965Y-122847762D01*
X82536277Y-122591168D01*
X82475860Y-122478137D01*
X82236993Y-122412612D01*
X81459605Y-123190000D01*
X81100395Y-123190000D01*
X81086253Y-123175858D01*
X81265858Y-122996253D01*
X81280000Y-123010395D01*
X82057388Y-122233007D01*
X81991863Y-121994140D01*
X81833523Y-121919836D01*
X81936043Y-121877371D01*
X82162886Y-121725799D01*
X82355799Y-121532886D01*
X82507371Y-121306043D01*
X82611775Y-121053989D01*
X82665000Y-120786411D01*
X82665000Y-120513589D01*
X82611775Y-120246011D01*
X82507371Y-119993957D01*
X82355799Y-119767114D01*
X82162886Y-119574201D01*
X81936043Y-119422629D01*
X81833127Y-119380000D01*
X81936043Y-119337371D01*
X82162886Y-119185799D01*
X82355799Y-118992886D01*
X82507371Y-118766043D01*
X82611775Y-118513989D01*
X82665000Y-118246411D01*
X82665000Y-117973589D01*
X82611775Y-117706011D01*
X82507371Y-117453957D01*
X82355799Y-117227114D01*
X82165000Y-117036315D01*
X82165000Y-115359465D01*
X82169281Y-115315999D01*
X82165000Y-115272533D01*
X82165000Y-115272523D01*
X82152195Y-115142510D01*
X82101589Y-114975687D01*
X82019411Y-114821941D01*
X81967904Y-114759180D01*
X81936532Y-114720953D01*
X81936530Y-114720951D01*
X81908817Y-114687183D01*
X81875049Y-114659470D01*
X81730579Y-114515000D01*
X83093928Y-114515000D01*
X83106188Y-114639482D01*
X83142498Y-114759180D01*
X83201463Y-114869494D01*
X83280815Y-114966185D01*
X83377506Y-115045537D01*
X83487820Y-115104502D01*
X83607518Y-115140812D01*
X83732000Y-115153072D01*
X84296250Y-115150000D01*
X84455000Y-114991250D01*
X84455000Y-113792000D01*
X84709000Y-113792000D01*
X84709000Y-114991250D01*
X84867750Y-115150000D01*
X85432000Y-115153072D01*
X85434189Y-115152856D01*
X85395000Y-115349872D01*
X85395000Y-115790128D01*
X85480890Y-116221925D01*
X85649369Y-116628669D01*
X85893962Y-116994729D01*
X86205271Y-117306038D01*
X86571331Y-117550631D01*
X86978075Y-117719110D01*
X87409872Y-117805000D01*
X87850128Y-117805000D01*
X88281925Y-117719110D01*
X88688669Y-117550631D01*
X89054729Y-117306038D01*
X89366038Y-116994729D01*
X89610631Y-116628669D01*
X89779110Y-116221925D01*
X89865000Y-115790128D01*
X89865000Y-115349872D01*
X89779110Y-114918075D01*
X89610631Y-114511331D01*
X89366038Y-114145271D01*
X89054729Y-113833962D01*
X88688669Y-113589369D01*
X88281925Y-113420890D01*
X87850128Y-113335000D01*
X87409872Y-113335000D01*
X86978075Y-113420890D01*
X86571331Y-113589369D01*
X86205271Y-113833962D01*
X86067116Y-113972117D01*
X86067000Y-113950750D01*
X85908250Y-113792000D01*
X84709000Y-113792000D01*
X84455000Y-113792000D01*
X83255750Y-113792000D01*
X83097000Y-113950750D01*
X83093928Y-114515000D01*
X81730579Y-114515000D01*
X80412534Y-113196956D01*
X80384817Y-113163183D01*
X80250059Y-113052589D01*
X80096313Y-112970411D01*
X79929490Y-112919805D01*
X79799477Y-112907000D01*
X79799469Y-112907000D01*
X79756000Y-112902719D01*
X79712531Y-112907000D01*
X75071269Y-112907000D01*
X75099502Y-112854180D01*
X75111387Y-112815000D01*
X83093928Y-112815000D01*
X83097000Y-113379250D01*
X83255750Y-113538000D01*
X84455000Y-113538000D01*
X84455000Y-112338750D01*
X84709000Y-112338750D01*
X84709000Y-113538000D01*
X85908250Y-113538000D01*
X86067000Y-113379250D01*
X86070072Y-112815000D01*
X86057812Y-112690518D01*
X86021502Y-112570820D01*
X85962537Y-112460506D01*
X85883185Y-112363815D01*
X85786494Y-112284463D01*
X85676180Y-112225498D01*
X85556482Y-112189188D01*
X85432000Y-112176928D01*
X84867750Y-112180000D01*
X84709000Y-112338750D01*
X84455000Y-112338750D01*
X84296250Y-112180000D01*
X83732000Y-112176928D01*
X83607518Y-112189188D01*
X83487820Y-112225498D01*
X83377506Y-112284463D01*
X83280815Y-112363815D01*
X83201463Y-112460506D01*
X83142498Y-112570820D01*
X83106188Y-112690518D01*
X83093928Y-112815000D01*
X75111387Y-112815000D01*
X75135812Y-112734482D01*
X75148072Y-112610000D01*
X75148072Y-110910000D01*
X75135812Y-110785518D01*
X75099502Y-110665820D01*
X75040537Y-110555506D01*
X74961185Y-110458815D01*
X74864494Y-110379463D01*
X74754180Y-110320498D01*
X74634482Y-110284188D01*
X74510000Y-110271928D01*
X72810000Y-110271928D01*
X72685518Y-110284188D01*
X72565820Y-110320498D01*
X72455506Y-110379463D01*
X72358815Y-110458815D01*
X72279463Y-110555506D01*
X72220498Y-110665820D01*
X72198487Y-110738380D01*
X72066632Y-110606525D01*
X71823411Y-110444010D01*
X71553158Y-110332068D01*
X71266260Y-110275000D01*
X70973740Y-110275000D01*
X70686842Y-110332068D01*
X70416589Y-110444010D01*
X70173368Y-110606525D01*
X69966525Y-110813368D01*
X69850000Y-110987760D01*
X69733475Y-110813368D01*
X69526632Y-110606525D01*
X69283411Y-110444010D01*
X69013158Y-110332068D01*
X68726260Y-110275000D01*
X68433740Y-110275000D01*
X68146842Y-110332068D01*
X67876589Y-110444010D01*
X67633368Y-110606525D01*
X67426525Y-110813368D01*
X67310000Y-110987760D01*
X67193475Y-110813368D01*
X66986632Y-110606525D01*
X66743411Y-110444010D01*
X66473158Y-110332068D01*
X66186260Y-110275000D01*
X65893740Y-110275000D01*
X65606842Y-110332068D01*
X65336589Y-110444010D01*
X65093368Y-110606525D01*
X64886525Y-110813368D01*
X64770000Y-110987760D01*
X64653475Y-110813368D01*
X64446632Y-110606525D01*
X64203411Y-110444010D01*
X63933158Y-110332068D01*
X63646260Y-110275000D01*
X63353740Y-110275000D01*
X63066842Y-110332068D01*
X62796589Y-110444010D01*
X62553368Y-110606525D01*
X62346525Y-110813368D01*
X62230000Y-110987760D01*
X62113475Y-110813368D01*
X61906632Y-110606525D01*
X61663411Y-110444010D01*
X61393158Y-110332068D01*
X61106260Y-110275000D01*
X60813740Y-110275000D01*
X60526842Y-110332068D01*
X60256589Y-110444010D01*
X60013368Y-110606525D01*
X59806525Y-110813368D01*
X59690000Y-110987760D01*
X59573475Y-110813368D01*
X59366632Y-110606525D01*
X59123411Y-110444010D01*
X58853158Y-110332068D01*
X58566260Y-110275000D01*
X58273740Y-110275000D01*
X57986842Y-110332068D01*
X57716589Y-110444010D01*
X57473368Y-110606525D01*
X57266525Y-110813368D01*
X57150000Y-110987760D01*
X57033475Y-110813368D01*
X56826632Y-110606525D01*
X56583411Y-110444010D01*
X56313158Y-110332068D01*
X56026260Y-110275000D01*
X55733740Y-110275000D01*
X55446842Y-110332068D01*
X55176589Y-110444010D01*
X54933368Y-110606525D01*
X54726525Y-110813368D01*
X54564010Y-111056589D01*
X54452068Y-111326842D01*
X54395000Y-111613740D01*
X54395000Y-111906260D01*
X54452068Y-112193158D01*
X54564010Y-112463411D01*
X54726525Y-112706632D01*
X54933368Y-112913475D01*
X54995000Y-112954656D01*
X54995001Y-114256514D01*
X54995000Y-114256524D01*
X54995000Y-114764531D01*
X54990719Y-114808000D01*
X54995000Y-114851469D01*
X54995000Y-114851477D01*
X55007805Y-114981490D01*
X55058411Y-115148313D01*
X55124803Y-115272523D01*
X55140590Y-115302059D01*
X55223468Y-115403046D01*
X55223471Y-115403049D01*
X55251184Y-115436817D01*
X55284951Y-115464529D01*
X56747470Y-116927049D01*
X56775183Y-116960817D01*
X56808951Y-116988530D01*
X56808953Y-116988532D01*
X56839363Y-117013489D01*
X56909941Y-117071411D01*
X57063687Y-117153589D01*
X57230510Y-117204195D01*
X57360523Y-117217000D01*
X57360533Y-117217000D01*
X57403999Y-117221281D01*
X57447465Y-117217000D01*
X58315421Y-117217000D01*
X54243422Y-121289000D01*
X49134579Y-121289000D01*
X48285184Y-120439605D01*
X51138000Y-120439605D01*
X51263914Y-120729577D01*
X51596126Y-120895433D01*
X51954312Y-120993290D01*
X52324706Y-121019389D01*
X52693075Y-120972725D01*
X53045262Y-120855094D01*
X53280086Y-120729577D01*
X53406000Y-120439605D01*
X52272000Y-119305605D01*
X51138000Y-120439605D01*
X48285184Y-120439605D01*
X47566065Y-119720487D01*
X47584561Y-119675834D01*
X47657000Y-119311656D01*
X47657000Y-119178706D01*
X50378611Y-119178706D01*
X50425275Y-119547075D01*
X50542906Y-119899262D01*
X50668423Y-120134086D01*
X50958395Y-120260000D01*
X52092395Y-119126000D01*
X52451605Y-119126000D01*
X53585605Y-120260000D01*
X53875577Y-120134086D01*
X54041433Y-119801874D01*
X54139290Y-119443688D01*
X54165389Y-119073294D01*
X54118725Y-118704925D01*
X54001094Y-118352738D01*
X53875577Y-118117914D01*
X53585605Y-117992000D01*
X52451605Y-119126000D01*
X52092395Y-119126000D01*
X50958395Y-117992000D01*
X50668423Y-118117914D01*
X50502567Y-118450126D01*
X50404710Y-118808312D01*
X50378611Y-119178706D01*
X47657000Y-119178706D01*
X47657000Y-118940344D01*
X47584561Y-118576166D01*
X47442466Y-118233118D01*
X47236175Y-117924382D01*
X47124188Y-117812395D01*
X51138000Y-117812395D01*
X52272000Y-118946395D01*
X53406000Y-117812395D01*
X53280086Y-117522423D01*
X52947874Y-117356567D01*
X52589688Y-117258710D01*
X52219294Y-117232611D01*
X51850925Y-117279275D01*
X51498738Y-117396906D01*
X51263914Y-117522423D01*
X51138000Y-117812395D01*
X47124188Y-117812395D01*
X46973618Y-117661825D01*
X46664882Y-117455534D01*
X46321834Y-117313439D01*
X45957656Y-117241000D01*
X45586344Y-117241000D01*
X45222166Y-117313439D01*
X44879118Y-117455534D01*
X44570382Y-117661825D01*
X44307825Y-117924382D01*
X44101534Y-118233118D01*
X43959439Y-118576166D01*
X43887000Y-118940344D01*
X41300000Y-118940344D01*
X41300000Y-109880000D01*
X94590000Y-109880000D01*
X94590001Y-133960000D01*
G37*
X94590001Y-133960000D02*
X41300000Y-133960000D01*
X41300000Y-127420000D01*
X42961928Y-127420000D01*
X42961928Y-129120000D01*
X42974188Y-129244482D01*
X43010498Y-129364180D01*
X43069463Y-129474494D01*
X43148815Y-129571185D01*
X43245506Y-129650537D01*
X43355820Y-129709502D01*
X43475518Y-129745812D01*
X43600000Y-129758072D01*
X45300000Y-129758072D01*
X45424482Y-129745812D01*
X45544180Y-129709502D01*
X45654494Y-129650537D01*
X45751185Y-129571185D01*
X45830537Y-129474494D01*
X45889502Y-129364180D01*
X45925812Y-129244482D01*
X45934625Y-129155000D01*
X47003025Y-129155000D01*
X47154987Y-129306962D01*
X47373641Y-129453061D01*
X47616595Y-129553696D01*
X47874514Y-129605000D01*
X48137486Y-129605000D01*
X48395405Y-129553696D01*
X48638359Y-129453061D01*
X48857013Y-129306962D01*
X49042962Y-129121013D01*
X49189061Y-128902359D01*
X49289696Y-128659405D01*
X49341000Y-128401486D01*
X49341000Y-128138514D01*
X49289696Y-127880595D01*
X49189061Y-127637641D01*
X49042962Y-127418987D01*
X48857013Y-127233038D01*
X48638359Y-127086939D01*
X48395405Y-126986304D01*
X48137486Y-126935000D01*
X47874514Y-126935000D01*
X47616595Y-126986304D01*
X47373641Y-127086939D01*
X47154987Y-127233038D01*
X47003025Y-127385000D01*
X45934625Y-127385000D01*
X45925812Y-127295518D01*
X45889502Y-127175820D01*
X45830537Y-127065506D01*
X45751185Y-126968815D01*
X45654494Y-126889463D01*
X45544180Y-126830498D01*
X45424482Y-126794188D01*
X45300000Y-126781928D01*
X43600000Y-126781928D01*
X43475518Y-126794188D01*
X43355820Y-126830498D01*
X43245506Y-126889463D01*
X43148815Y-126968815D01*
X43069463Y-127065506D01*
X43010498Y-127175820D01*
X42974188Y-127295518D01*
X42961928Y-127420000D01*
X41300000Y-127420000D01*
X41300000Y-118940344D01*
X43887000Y-118940344D01*
X43887000Y-119311656D01*
X43959439Y-119675834D01*
X44101534Y-120018882D01*
X44307825Y-120327618D01*
X44570382Y-120590175D01*
X44879118Y-120796466D01*
X45222166Y-120938561D01*
X45586344Y-121011000D01*
X45957656Y-121011000D01*
X46287760Y-120945339D01*
X48111470Y-122769049D01*
X48139183Y-122802817D01*
X48172951Y-122830530D01*
X48172953Y-122830532D01*
X48273941Y-122913411D01*
X48427686Y-122995589D01*
X48594510Y-123046195D01*
X48724523Y-123059000D01*
X48724531Y-123059000D01*
X48768000Y-123063281D01*
X48811469Y-123059000D01*
X53997421Y-123059000D01*
X50458952Y-126597470D01*
X50425184Y-126625183D01*
X50397471Y-126658951D01*
X50397468Y-126658954D01*
X50314590Y-126759941D01*
X50232412Y-126913687D01*
X50181805Y-127080510D01*
X50164719Y-127254000D01*
X50169001Y-127297479D01*
X50169000Y-130258531D01*
X50164719Y-130302000D01*
X50169000Y-130345469D01*
X50169000Y-130345476D01*
X50181805Y-130475489D01*
X50232411Y-130642312D01*
X50314589Y-130796058D01*
X50425183Y-130930817D01*
X50458956Y-130958534D01*
X50651466Y-131151044D01*
X50679183Y-131184817D01*
X50813941Y-131295411D01*
X50967687Y-131377589D01*
X51134510Y-131428195D01*
X51264523Y-131441000D01*
X51264533Y-131441000D01*
X51307999Y-131445281D01*
X51351465Y-131441000D01*
X54537330Y-131441000D01*
X54452068Y-131646842D01*
X54395000Y-131933740D01*
X54395000Y-132226260D01*
X54452068Y-132513158D01*
X54564010Y-132783411D01*
X54726525Y-133026632D01*
X54933368Y-133233475D01*
X55176589Y-133395990D01*
X55446842Y-133507932D01*
X55733740Y-133565000D01*
X56026260Y-133565000D01*
X56313158Y-133507932D01*
X56583411Y-133395990D01*
X56826632Y-133233475D01*
X57033475Y-133026632D01*
X57150000Y-132852240D01*
X57266525Y-133026632D01*
X57473368Y-133233475D01*
X57716589Y-133395990D01*
X57986842Y-133507932D01*
X58273740Y-133565000D01*
X58566260Y-133565000D01*
X58853158Y-133507932D01*
X59123411Y-133395990D01*
X59366632Y-133233475D01*
X59573475Y-133026632D01*
X59690000Y-132852240D01*
X59806525Y-133026632D01*
X60013368Y-133233475D01*
X60256589Y-133395990D01*
X60526842Y-133507932D01*
X60813740Y-133565000D01*
X61106260Y-133565000D01*
X61393158Y-133507932D01*
X61663411Y-133395990D01*
X61906632Y-133233475D01*
X62113475Y-133026632D01*
X62230000Y-132852240D01*
X62346525Y-133026632D01*
X62553368Y-133233475D01*
X62796589Y-133395990D01*
X63066842Y-133507932D01*
X63353740Y-133565000D01*
X63646260Y-133565000D01*
X63933158Y-133507932D01*
X64203411Y-133395990D01*
X64446632Y-133233475D01*
X64653475Y-133026632D01*
X64775195Y-132844466D01*
X64844822Y-132961355D01*
X65039731Y-133177588D01*
X65273080Y-133351641D01*
X65535901Y-133476825D01*
X65683110Y-133521476D01*
X65913000Y-133400155D01*
X65913000Y-132207000D01*
X65893000Y-132207000D01*
X65893000Y-131953000D01*
X65913000Y-131953000D01*
X65913000Y-130759845D01*
X65890577Y-130748011D01*
X65896195Y-130729490D01*
X65909000Y-130599477D01*
X65909000Y-130599467D01*
X65913281Y-130556001D01*
X65909000Y-130512535D01*
X65909000Y-127620578D01*
X66914579Y-126615000D01*
X73108531Y-126615000D01*
X73152000Y-126619281D01*
X73195469Y-126615000D01*
X73195477Y-126615000D01*
X73325490Y-126602195D01*
X73492313Y-126551589D01*
X73646059Y-126469411D01*
X73780817Y-126358817D01*
X73808534Y-126325044D01*
X77328579Y-122805000D01*
X77666315Y-122805000D01*
X77857114Y-122995799D01*
X78083957Y-123147371D01*
X78186873Y-123190000D01*
X78083957Y-123232629D01*
X77857114Y-123384201D01*
X77666315Y-123575000D01*
X77513465Y-123575000D01*
X77469999Y-123570719D01*
X77426533Y-123575000D01*
X77426523Y-123575000D01*
X77296510Y-123587805D01*
X77129687Y-123638411D01*
X76975941Y-123720589D01*
X76975939Y-123720590D01*
X76975940Y-123720590D01*
X76874953Y-123803468D01*
X76874951Y-123803470D01*
X76841183Y-123831183D01*
X76813470Y-123864951D01*
X75604956Y-125073466D01*
X75571183Y-125101183D01*
X75460589Y-125235942D01*
X75378411Y-125389688D01*
X75327805Y-125556511D01*
X75315000Y-125686524D01*
X75315000Y-125686531D01*
X75310719Y-125730000D01*
X75315000Y-125773470D01*
X75315001Y-126633421D01*
X74817422Y-127131000D01*
X69582975Y-127131000D01*
X69431013Y-126979038D01*
X69212359Y-126832939D01*
X68969405Y-126732304D01*
X68711486Y-126681000D01*
X68448514Y-126681000D01*
X68190595Y-126732304D01*
X67947641Y-126832939D01*
X67728987Y-126979038D01*
X67543038Y-127164987D01*
X67396939Y-127383641D01*
X67296304Y-127626595D01*
X67245000Y-127884514D01*
X67245000Y-128147486D01*
X67296304Y-128405405D01*
X67396939Y-128648359D01*
X67543038Y-128867013D01*
X67695000Y-129018975D01*
X67695001Y-130885343D01*
X67633368Y-130926525D01*
X67426525Y-131133368D01*
X67304805Y-131315534D01*
X67235178Y-131198645D01*
X67040269Y-130982412D01*
X66806920Y-130808359D01*
X66544099Y-130683175D01*
X66396890Y-130638524D01*
X66167000Y-130759845D01*
X66167000Y-131953000D01*
X66187000Y-131953000D01*
X66187000Y-132207000D01*
X66167000Y-132207000D01*
X66167000Y-133400155D01*
X66396890Y-133521476D01*
X66544099Y-133476825D01*
X66806920Y-133351641D01*
X67040269Y-133177588D01*
X67235178Y-132961355D01*
X67304805Y-132844466D01*
X67426525Y-133026632D01*
X67633368Y-133233475D01*
X67876589Y-133395990D01*
X68146842Y-133507932D01*
X68433740Y-133565000D01*
X68726260Y-133565000D01*
X69013158Y-133507932D01*
X69283411Y-133395990D01*
X69526632Y-133233475D01*
X69733475Y-133026632D01*
X69850000Y-132852240D01*
X69966525Y-133026632D01*
X70173368Y-133233475D01*
X70416589Y-133395990D01*
X70686842Y-133507932D01*
X70973740Y-133565000D01*
X71266260Y-133565000D01*
X71553158Y-133507932D01*
X71823411Y-133395990D01*
X72066632Y-133233475D01*
X72198487Y-133101620D01*
X72220498Y-133174180D01*
X72279463Y-133284494D01*
X72358815Y-133381185D01*
X72455506Y-133460537D01*
X72565820Y-133519502D01*
X72685518Y-133555812D01*
X72810000Y-133568072D01*
X74510000Y-133568072D01*
X74634482Y-133555812D01*
X74754180Y-133519502D01*
X74864494Y-133460537D01*
X74961185Y-133381185D01*
X75040537Y-133284494D01*
X75099502Y-133174180D01*
X75135812Y-133054482D01*
X75148072Y-132930000D01*
X75148072Y-132351506D01*
X77744578Y-129755000D01*
X83093928Y-129755000D01*
X83106188Y-129879482D01*
X83142498Y-129999180D01*
X83201463Y-130109494D01*
X83280815Y-130206185D01*
X83377506Y-130285537D01*
X83487820Y-130344502D01*
X83607518Y-130380812D01*
X83732000Y-130393072D01*
X84296250Y-130390000D01*
X84455000Y-130231250D01*
X84455000Y-129032000D01*
X84709000Y-129032000D01*
X84709000Y-130231250D01*
X84867750Y-130390000D01*
X85432000Y-130393072D01*
X85556482Y-130380812D01*
X85676180Y-130344502D01*
X85786494Y-130285537D01*
X85883185Y-130206185D01*
X85962537Y-130109494D01*
X86021502Y-129999180D01*
X86057812Y-129879482D01*
X86070072Y-129755000D01*
X86067000Y-129190750D01*
X85908250Y-129032000D01*
X84709000Y-129032000D01*
X84455000Y-129032000D01*
X83255750Y-129032000D01*
X83097000Y-129190750D01*
X83093928Y-129755000D01*
X77744578Y-129755000D01*
X79444578Y-128055000D01*
X83093928Y-128055000D01*
X83097000Y-128619250D01*
X83255750Y-128778000D01*
X84455000Y-128778000D01*
X84455000Y-127578750D01*
X84709000Y-127578750D01*
X84709000Y-128778000D01*
X85908250Y-128778000D01*
X86067000Y-128619250D01*
X86067116Y-128597883D01*
X86205271Y-128736038D01*
X86571331Y-128980631D01*
X86978075Y-129149110D01*
X87409872Y-129235000D01*
X87850128Y-129235000D01*
X88281925Y-129149110D01*
X88688669Y-128980631D01*
X89054729Y-128736038D01*
X89366038Y-128424729D01*
X89610631Y-128058669D01*
X89779110Y-127651925D01*
X89865000Y-127220128D01*
X89865000Y-126779872D01*
X89779110Y-126348075D01*
X89610631Y-125941331D01*
X89366038Y-125575271D01*
X89054729Y-125263962D01*
X88688669Y-125019369D01*
X88281925Y-124850890D01*
X87850128Y-124765000D01*
X87409872Y-124765000D01*
X86978075Y-124850890D01*
X86571331Y-125019369D01*
X86205271Y-125263962D01*
X85893962Y-125575271D01*
X85649369Y-125941331D01*
X85480890Y-126348075D01*
X85395000Y-126779872D01*
X85395000Y-127220128D01*
X85434189Y-127417144D01*
X85432000Y-127416928D01*
X84867750Y-127420000D01*
X84709000Y-127578750D01*
X84455000Y-127578750D01*
X84296250Y-127420000D01*
X83732000Y-127416928D01*
X83607518Y-127429188D01*
X83487820Y-127465498D01*
X83377506Y-127524463D01*
X83280815Y-127603815D01*
X83201463Y-127700506D01*
X83142498Y-127810820D01*
X83106188Y-127930518D01*
X83093928Y-128055000D01*
X79444578Y-128055000D01*
X80396502Y-127103077D01*
X80405518Y-127105812D01*
X80530000Y-127118072D01*
X80994250Y-127115000D01*
X81153000Y-126956250D01*
X81153000Y-125857000D01*
X81407000Y-125857000D01*
X81407000Y-126956250D01*
X81565750Y-127115000D01*
X82030000Y-127118072D01*
X82154482Y-127105812D01*
X82274180Y-127069502D01*
X82384494Y-127010537D01*
X82481185Y-126931185D01*
X82560537Y-126834494D01*
X82619502Y-126724180D01*
X82655812Y-126604482D01*
X82668072Y-126480000D01*
X82665000Y-126015750D01*
X82506250Y-125857000D01*
X81407000Y-125857000D01*
X81153000Y-125857000D01*
X81133000Y-125857000D01*
X81133000Y-125603000D01*
X81153000Y-125603000D01*
X81153000Y-125583000D01*
X81407000Y-125583000D01*
X81407000Y-125603000D01*
X82506250Y-125603000D01*
X82665000Y-125444250D01*
X82668072Y-124980000D01*
X82655812Y-124855518D01*
X82619502Y-124735820D01*
X82560537Y-124625506D01*
X82481185Y-124528815D01*
X82384494Y-124449463D01*
X82274180Y-124390498D01*
X82154482Y-124354188D01*
X82030000Y-124341928D01*
X82003867Y-124342101D01*
X82057388Y-124146993D01*
X81280000Y-123369605D01*
X81265858Y-123383748D01*
X81086253Y-123204143D01*
X81100395Y-123190000D01*
X81459605Y-123190000D01*
X82236993Y-123967388D01*
X82475860Y-123901863D01*
X82591760Y-123654884D01*
X82657250Y-123390040D01*
X82669812Y-123117508D01*
X82628965Y-122847762D01*
X82536277Y-122591168D01*
X82475860Y-122478137D01*
X82236993Y-122412612D01*
X81459605Y-123190000D01*
X81100395Y-123190000D01*
X81086253Y-123175858D01*
X81265858Y-122996253D01*
X81280000Y-123010395D01*
X82057388Y-122233007D01*
X81991863Y-121994140D01*
X81833523Y-121919836D01*
X81936043Y-121877371D01*
X82162886Y-121725799D01*
X82355799Y-121532886D01*
X82507371Y-121306043D01*
X82611775Y-121053989D01*
X82665000Y-120786411D01*
X82665000Y-120513589D01*
X82611775Y-120246011D01*
X82507371Y-119993957D01*
X82355799Y-119767114D01*
X82162886Y-119574201D01*
X81936043Y-119422629D01*
X81833127Y-119380000D01*
X81936043Y-119337371D01*
X82162886Y-119185799D01*
X82355799Y-118992886D01*
X82507371Y-118766043D01*
X82611775Y-118513989D01*
X82665000Y-118246411D01*
X82665000Y-117973589D01*
X82611775Y-117706011D01*
X82507371Y-117453957D01*
X82355799Y-117227114D01*
X82165000Y-117036315D01*
X82165000Y-115359465D01*
X82169281Y-115315999D01*
X82165000Y-115272533D01*
X82165000Y-115272523D01*
X82152195Y-115142510D01*
X82101589Y-114975687D01*
X82019411Y-114821941D01*
X81967904Y-114759180D01*
X81936532Y-114720953D01*
X81936530Y-114720951D01*
X81908817Y-114687183D01*
X81875049Y-114659470D01*
X81730579Y-114515000D01*
X83093928Y-114515000D01*
X83106188Y-114639482D01*
X83142498Y-114759180D01*
X83201463Y-114869494D01*
X83280815Y-114966185D01*
X83377506Y-115045537D01*
X83487820Y-115104502D01*
X83607518Y-115140812D01*
X83732000Y-115153072D01*
X84296250Y-115150000D01*
X84455000Y-114991250D01*
X84455000Y-113792000D01*
X84709000Y-113792000D01*
X84709000Y-114991250D01*
X84867750Y-115150000D01*
X85432000Y-115153072D01*
X85434189Y-115152856D01*
X85395000Y-115349872D01*
X85395000Y-115790128D01*
X85480890Y-116221925D01*
X85649369Y-116628669D01*
X85893962Y-116994729D01*
X86205271Y-117306038D01*
X86571331Y-117550631D01*
X86978075Y-117719110D01*
X87409872Y-117805000D01*
X87850128Y-117805000D01*
X88281925Y-117719110D01*
X88688669Y-117550631D01*
X89054729Y-117306038D01*
X89366038Y-116994729D01*
X89610631Y-116628669D01*
X89779110Y-116221925D01*
X89865000Y-115790128D01*
X89865000Y-115349872D01*
X89779110Y-114918075D01*
X89610631Y-114511331D01*
X89366038Y-114145271D01*
X89054729Y-113833962D01*
X88688669Y-113589369D01*
X88281925Y-113420890D01*
X87850128Y-113335000D01*
X87409872Y-113335000D01*
X86978075Y-113420890D01*
X86571331Y-113589369D01*
X86205271Y-113833962D01*
X86067116Y-113972117D01*
X86067000Y-113950750D01*
X85908250Y-113792000D01*
X84709000Y-113792000D01*
X84455000Y-113792000D01*
X83255750Y-113792000D01*
X83097000Y-113950750D01*
X83093928Y-114515000D01*
X81730579Y-114515000D01*
X80412534Y-113196956D01*
X80384817Y-113163183D01*
X80250059Y-113052589D01*
X80096313Y-112970411D01*
X79929490Y-112919805D01*
X79799477Y-112907000D01*
X79799469Y-112907000D01*
X79756000Y-112902719D01*
X79712531Y-112907000D01*
X75071269Y-112907000D01*
X75099502Y-112854180D01*
X75111387Y-112815000D01*
X83093928Y-112815000D01*
X83097000Y-113379250D01*
X83255750Y-113538000D01*
X84455000Y-113538000D01*
X84455000Y-112338750D01*
X84709000Y-112338750D01*
X84709000Y-113538000D01*
X85908250Y-113538000D01*
X86067000Y-113379250D01*
X86070072Y-112815000D01*
X86057812Y-112690518D01*
X86021502Y-112570820D01*
X85962537Y-112460506D01*
X85883185Y-112363815D01*
X85786494Y-112284463D01*
X85676180Y-112225498D01*
X85556482Y-112189188D01*
X85432000Y-112176928D01*
X84867750Y-112180000D01*
X84709000Y-112338750D01*
X84455000Y-112338750D01*
X84296250Y-112180000D01*
X83732000Y-112176928D01*
X83607518Y-112189188D01*
X83487820Y-112225498D01*
X83377506Y-112284463D01*
X83280815Y-112363815D01*
X83201463Y-112460506D01*
X83142498Y-112570820D01*
X83106188Y-112690518D01*
X83093928Y-112815000D01*
X75111387Y-112815000D01*
X75135812Y-112734482D01*
X75148072Y-112610000D01*
X75148072Y-110910000D01*
X75135812Y-110785518D01*
X75099502Y-110665820D01*
X75040537Y-110555506D01*
X74961185Y-110458815D01*
X74864494Y-110379463D01*
X74754180Y-110320498D01*
X74634482Y-110284188D01*
X74510000Y-110271928D01*
X72810000Y-110271928D01*
X72685518Y-110284188D01*
X72565820Y-110320498D01*
X72455506Y-110379463D01*
X72358815Y-110458815D01*
X72279463Y-110555506D01*
X72220498Y-110665820D01*
X72198487Y-110738380D01*
X72066632Y-110606525D01*
X71823411Y-110444010D01*
X71553158Y-110332068D01*
X71266260Y-110275000D01*
X70973740Y-110275000D01*
X70686842Y-110332068D01*
X70416589Y-110444010D01*
X70173368Y-110606525D01*
X69966525Y-110813368D01*
X69850000Y-110987760D01*
X69733475Y-110813368D01*
X69526632Y-110606525D01*
X69283411Y-110444010D01*
X69013158Y-110332068D01*
X68726260Y-110275000D01*
X68433740Y-110275000D01*
X68146842Y-110332068D01*
X67876589Y-110444010D01*
X67633368Y-110606525D01*
X67426525Y-110813368D01*
X67310000Y-110987760D01*
X67193475Y-110813368D01*
X66986632Y-110606525D01*
X66743411Y-110444010D01*
X66473158Y-110332068D01*
X66186260Y-110275000D01*
X65893740Y-110275000D01*
X65606842Y-110332068D01*
X65336589Y-110444010D01*
X65093368Y-110606525D01*
X64886525Y-110813368D01*
X64770000Y-110987760D01*
X64653475Y-110813368D01*
X64446632Y-110606525D01*
X64203411Y-110444010D01*
X63933158Y-110332068D01*
X63646260Y-110275000D01*
X63353740Y-110275000D01*
X63066842Y-110332068D01*
X62796589Y-110444010D01*
X62553368Y-110606525D01*
X62346525Y-110813368D01*
X62230000Y-110987760D01*
X62113475Y-110813368D01*
X61906632Y-110606525D01*
X61663411Y-110444010D01*
X61393158Y-110332068D01*
X61106260Y-110275000D01*
X60813740Y-110275000D01*
X60526842Y-110332068D01*
X60256589Y-110444010D01*
X60013368Y-110606525D01*
X59806525Y-110813368D01*
X59690000Y-110987760D01*
X59573475Y-110813368D01*
X59366632Y-110606525D01*
X59123411Y-110444010D01*
X58853158Y-110332068D01*
X58566260Y-110275000D01*
X58273740Y-110275000D01*
X57986842Y-110332068D01*
X57716589Y-110444010D01*
X57473368Y-110606525D01*
X57266525Y-110813368D01*
X57150000Y-110987760D01*
X57033475Y-110813368D01*
X56826632Y-110606525D01*
X56583411Y-110444010D01*
X56313158Y-110332068D01*
X56026260Y-110275000D01*
X55733740Y-110275000D01*
X55446842Y-110332068D01*
X55176589Y-110444010D01*
X54933368Y-110606525D01*
X54726525Y-110813368D01*
X54564010Y-111056589D01*
X54452068Y-111326842D01*
X54395000Y-111613740D01*
X54395000Y-111906260D01*
X54452068Y-112193158D01*
X54564010Y-112463411D01*
X54726525Y-112706632D01*
X54933368Y-112913475D01*
X54995000Y-112954656D01*
X54995001Y-114256514D01*
X54995000Y-114256524D01*
X54995000Y-114764531D01*
X54990719Y-114808000D01*
X54995000Y-114851469D01*
X54995000Y-114851477D01*
X55007805Y-114981490D01*
X55058411Y-115148313D01*
X55124803Y-115272523D01*
X55140590Y-115302059D01*
X55223468Y-115403046D01*
X55223471Y-115403049D01*
X55251184Y-115436817D01*
X55284951Y-115464529D01*
X56747470Y-116927049D01*
X56775183Y-116960817D01*
X56808951Y-116988530D01*
X56808953Y-116988532D01*
X56839363Y-117013489D01*
X56909941Y-117071411D01*
X57063687Y-117153589D01*
X57230510Y-117204195D01*
X57360523Y-117217000D01*
X57360533Y-117217000D01*
X57403999Y-117221281D01*
X57447465Y-117217000D01*
X58315421Y-117217000D01*
X54243422Y-121289000D01*
X49134579Y-121289000D01*
X48285184Y-120439605D01*
X51138000Y-120439605D01*
X51263914Y-120729577D01*
X51596126Y-120895433D01*
X51954312Y-120993290D01*
X52324706Y-121019389D01*
X52693075Y-120972725D01*
X53045262Y-120855094D01*
X53280086Y-120729577D01*
X53406000Y-120439605D01*
X52272000Y-119305605D01*
X51138000Y-120439605D01*
X48285184Y-120439605D01*
X47566065Y-119720487D01*
X47584561Y-119675834D01*
X47657000Y-119311656D01*
X47657000Y-119178706D01*
X50378611Y-119178706D01*
X50425275Y-119547075D01*
X50542906Y-119899262D01*
X50668423Y-120134086D01*
X50958395Y-120260000D01*
X52092395Y-119126000D01*
X52451605Y-119126000D01*
X53585605Y-120260000D01*
X53875577Y-120134086D01*
X54041433Y-119801874D01*
X54139290Y-119443688D01*
X54165389Y-119073294D01*
X54118725Y-118704925D01*
X54001094Y-118352738D01*
X53875577Y-118117914D01*
X53585605Y-117992000D01*
X52451605Y-119126000D01*
X52092395Y-119126000D01*
X50958395Y-117992000D01*
X50668423Y-118117914D01*
X50502567Y-118450126D01*
X50404710Y-118808312D01*
X50378611Y-119178706D01*
X47657000Y-119178706D01*
X47657000Y-118940344D01*
X47584561Y-118576166D01*
X47442466Y-118233118D01*
X47236175Y-117924382D01*
X47124188Y-117812395D01*
X51138000Y-117812395D01*
X52272000Y-118946395D01*
X53406000Y-117812395D01*
X53280086Y-117522423D01*
X52947874Y-117356567D01*
X52589688Y-117258710D01*
X52219294Y-117232611D01*
X51850925Y-117279275D01*
X51498738Y-117396906D01*
X51263914Y-117522423D01*
X51138000Y-117812395D01*
X47124188Y-117812395D01*
X46973618Y-117661825D01*
X46664882Y-117455534D01*
X46321834Y-117313439D01*
X45957656Y-117241000D01*
X45586344Y-117241000D01*
X45222166Y-117313439D01*
X44879118Y-117455534D01*
X44570382Y-117661825D01*
X44307825Y-117924382D01*
X44101534Y-118233118D01*
X43959439Y-118576166D01*
X43887000Y-118940344D01*
X41300000Y-118940344D01*
X41300000Y-109880000D01*
X94590000Y-109880000D01*
X94590001Y-133960000D01*
%TD*%
M02*
