%TF.GenerationSoftware,KiCad,Pcbnew,5.1.6-c6e7f7d~87~ubuntu18.04.1*%
%TF.CreationDate,2021-11-16T17:45:47+01:00*%
%TF.ProjectId,e-p-wifi-lf,652d702d-7769-4666-992d-6c662e6b6963,rev?*%
%TF.SameCoordinates,Original*%
%TF.FileFunction,Copper,L2,Bot*%
%TF.FilePolarity,Positive*%
%FSLAX46Y46*%
G04 Gerber Fmt 4.6, Leading zero omitted, Abs format (unit mm)*
G04 Created by KiCad (PCBNEW 5.1.6-c6e7f7d~87~ubuntu18.04.1) date 2021-11-16 17:45:47*
%MOMM*%
%LPD*%
G01*
G04 APERTURE LIST*
%TA.AperFunction,ComponentPad*%
%ADD10O,1.600000X1.200000*%
%TD*%
%TA.AperFunction,ComponentPad*%
%ADD11O,1.200000X1.200000*%
%TD*%
%TA.AperFunction,ComponentPad*%
%ADD12R,1.700000X1.700000*%
%TD*%
%TA.AperFunction,ComponentPad*%
%ADD13O,1.700000X1.700000*%
%TD*%
%TA.AperFunction,ComponentPad*%
%ADD14C,2.500000*%
%TD*%
%TA.AperFunction,ComponentPad*%
%ADD15C,1.400000*%
%TD*%
%TA.AperFunction,ComponentPad*%
%ADD16O,1.400000X1.400000*%
%TD*%
%TA.AperFunction,Conductor*%
%ADD17C,0.250000*%
%TD*%
G04 APERTURE END LIST*
D10*
%TO.P,Q1,1*%
%TO.N,Net-(Q1-Pad1)*%
X52070000Y-125984000D03*
D11*
%TO.P,Q1,2*%
%TO.N,Net-(Q1-Pad2)*%
X53340000Y-127254000D03*
%TO.P,Q1,3*%
%TO.N,Net-(LS1-Pad1)*%
X54610000Y-125984000D03*
%TD*%
D12*
%TO.P,J1,1*%
%TO.N,Net-(J1-Pad1)*%
X50800000Y-115062000D03*
%TD*%
%TO.P,J2,1*%
%TO.N,Net-(J2-Pad1)*%
X53340000Y-119380000D03*
%TD*%
%TO.P,J3,1*%
%TO.N,Net-(J3-Pad1)*%
X40386000Y-127254000D03*
%TD*%
%TO.P,J4,1*%
%TO.N,Net-(J4-Pad1)*%
X58420000Y-116840000D03*
%TD*%
%TO.P,J5,1*%
%TO.N,Net-(J5-Pad1)*%
X58420000Y-127000000D03*
%TD*%
%TO.P,J6,+5V*%
%TO.N,Net-(J6-Pad+5V)*%
X68580000Y-132080000D03*
D13*
%TO.P,J6,VIN*%
%TO.N,Net-(J6-PadVIN)*%
X66040000Y-132080000D03*
%TO.P,J6,3.3V*%
%TO.N,Net-(J6-Pad3.3V)*%
X63500000Y-132080000D03*
%TO.P,J6,GND*%
%TO.N,GND*%
X60960000Y-132080000D03*
%TO.P,J6,Reset*%
%TO.N,Net-(J5-Pad1)*%
X58420000Y-132080000D03*
%TO.P,J6,D14*%
%TO.N,Net-(J6-PadD14)*%
X55880000Y-132080000D03*
%TO.P,J6,D13*%
%TO.N,Net-(J6-PadD13)*%
X53340000Y-132080000D03*
%TO.P,J6,D12*%
%TO.N,Net-(J6-PadD12)*%
X50800000Y-132080000D03*
%TO.P,J6,A2*%
%TO.N,Net-(J6-PadA2)*%
X60960000Y-111760000D03*
%TO.P,J6,A1*%
%TO.N,Net-(J6-PadA1)*%
X63500000Y-111760000D03*
%TO.P,J6,A4*%
%TO.N,Net-(J6-PadA4)*%
X55880000Y-111760000D03*
%TO.P,J6,A5*%
%TO.N,Net-(J2-Pad1)*%
X53340000Y-111760000D03*
%TO.P,J6,A0*%
%TO.N,Net-(J6-PadA0)*%
X66040000Y-111760000D03*
%TO.P,J6,A6*%
%TO.N,Net-(J1-Pad1)*%
X50800000Y-111760000D03*
%TO.P,J6,A3*%
%TO.N,Net-(J4-Pad1)*%
X58420000Y-111760000D03*
D12*
%TO.P,J6,AREF*%
%TO.N,Net-(J6-PadAREF)*%
X68580000Y-111760000D03*
%TD*%
%TO.P,J7,1*%
%TO.N,Net-(J6-Pad3.3V)*%
X63500000Y-127000000D03*
%TD*%
%TO.P,J8,1*%
%TO.N,Net-(J6-Pad+5V)*%
X68580000Y-127000000D03*
%TD*%
%TO.P,J9,1*%
%TO.N,GND*%
X66040000Y-121920000D03*
%TD*%
%TO.P,J10,1*%
%TO.N,GND*%
X60960000Y-116840000D03*
%TD*%
%TO.P,J11,1*%
%TO.N,GND*%
X60960000Y-121920000D03*
%TD*%
D14*
%TO.P,LS1,2*%
%TO.N,GND*%
X47446000Y-119634000D03*
%TO.P,LS1,1*%
%TO.N,Net-(LS1-Pad1)*%
X40946000Y-119634000D03*
%TD*%
D15*
%TO.P,R1,1*%
%TO.N,Net-(Q1-Pad2)*%
X48260000Y-127254000D03*
D16*
%TO.P,R1,2*%
%TO.N,Net-(J3-Pad1)*%
X43180000Y-127254000D03*
%TD*%
D15*
%TO.P,R2,1*%
%TO.N,Net-(Q1-Pad1)*%
X58420000Y-124714000D03*
D16*
%TO.P,R2,2*%
%TO.N,Net-(J6-Pad3.3V)*%
X63500000Y-124714000D03*
%TD*%
D17*
%TO.N,Net-(J1-Pad1)*%
X50800000Y-111760000D02*
X50800000Y-115062000D01*
%TO.N,GND*%
X66040000Y-121920000D02*
X60960000Y-121920000D01*
X60960000Y-121920000D02*
X60960000Y-116840000D01*
X60960000Y-121920000D02*
X60960000Y-132080000D01*
X47446000Y-119634000D02*
X49276000Y-119634000D01*
X49276000Y-119634000D02*
X51562000Y-121920000D01*
X51562000Y-121920000D02*
X60960000Y-121920000D01*
%TO.N,Net-(LS1-Pad1)*%
X54610000Y-125984000D02*
X54610000Y-124460000D01*
X54610000Y-124460000D02*
X54102000Y-123952000D01*
X54102000Y-123952000D02*
X43688000Y-123952000D01*
X43688000Y-123952000D02*
X43180000Y-123952000D01*
X43180000Y-123952000D02*
X40894000Y-121666000D01*
X40894000Y-121666000D02*
X40894000Y-119888000D01*
%TO.N,Net-(Q1-Pad2)*%
X53340000Y-127254000D02*
X48260000Y-127254000D01*
%TO.N,Net-(J2-Pad1)*%
X53340000Y-119380000D02*
X53340000Y-111760000D01*
%TO.N,Net-(J3-Pad1)*%
X40386000Y-127254000D02*
X43180000Y-127254000D01*
%TO.N,Net-(J4-Pad1)*%
X58420000Y-111760000D02*
X58420000Y-116840000D01*
%TO.N,Net-(J5-Pad1)*%
X58420000Y-132080000D02*
X58420000Y-127000000D01*
%TO.N,Net-(J6-Pad+5V)*%
X68580000Y-132080000D02*
X68580000Y-127000000D01*
%TO.N,Net-(J6-Pad3.3V)*%
X63500000Y-132080000D02*
X63500000Y-127000000D01*
X63500000Y-124714000D02*
X63500000Y-127000000D01*
%TO.N,Net-(Q1-Pad1)*%
X58420000Y-124714000D02*
X57150000Y-124714000D01*
X57150000Y-124714000D02*
X56896000Y-124968000D01*
X56896000Y-124968000D02*
X56896000Y-129540000D01*
X56896000Y-129540000D02*
X56388000Y-130048000D01*
X56388000Y-130048000D02*
X46990000Y-130048000D01*
X46990000Y-130048000D02*
X46482000Y-129540000D01*
X46482000Y-129540000D02*
X46482000Y-126492000D01*
X46482000Y-126492000D02*
X46990000Y-125984000D01*
X46990000Y-125984000D02*
X52070000Y-125984000D01*
%TD*%
M02*
