M48
; DRILL file {KiCad 5.1.6-c6e7f7d~87~ubuntu18.04.1} date Thu Dec 16 12:23:01 2021
; FORMAT={-:-/ absolute / inch / decimal}
; #@! TF.CreationDate,2021-12-16T12:23:01+01:00
; #@! TF.GenerationSoftware,Kicad,Pcbnew,5.1.6-c6e7f7d~87~ubuntu18.04.1
; #@! TF.FileFunction,Plated,1,2,PTH
FMAT,2
INCH
T1C0.0276
T2C0.0315
T3C0.0394
T4C0.1260
T5C0.1260
%
G90
G05
T1
X2.7Y-5.04
X1.89Y-5.05
X2.09Y-5.05
X2.45Y-4.77
X2.5Y-4.82
X2.55Y-4.77
X2.5Y-5.04
T2
X1.802Y-4.69
X2.058Y-4.69
X3.1Y-4.6
X3.1Y-4.7
X3.1Y-4.8
X3.1Y-4.9
X3.2Y-4.65
X3.2Y-4.75
X3.2Y-4.85
X3.2Y-4.95
T3
X1.75Y-5.05
X3.33Y-4.475
X3.33Y-5.075
X2.2Y-4.4
X2.2Y-5.2
X2.3Y-4.4
X2.3Y-5.2
X2.4Y-4.4
X2.4Y-5.2
X2.5Y-4.4
X2.5Y-5.2
X2.6Y-4.4
X2.6Y-5.2
X2.7Y-4.4
X2.7Y-5.2
X2.8Y-4.4
X2.8Y-5.2
X2.9Y-4.4
X2.9Y-5.2
T4
X3.45Y-4.55
T5
X3.45Y-5.0
T0
M30
