<?xml version="1.0" encoding="UTF-8" standalone="no"?>
<svg
   xmlns:dc="http://purl.org/dc/elements/1.1/"
   xmlns:cc="http://creativecommons.org/ns#"
   xmlns:rdf="http://www.w3.org/1999/02/22-rdf-syntax-ns#"
   xmlns:svg="http://www.w3.org/2000/svg"
   xmlns="http://www.w3.org/2000/svg"
   xmlns:sodipodi="http://sodipodi.sourceforge.net/DTD/sodipodi-0.dtd"
   xmlns:inkscape="http://www.inkscape.org/namespaces/inkscape"
   version="1.1"
   width="29.700220cm"
   height="21.000720cm"
   viewBox="0 0 116930 82680"
   id="svg528"
   sodipodi:docname="e-p-wifi-lf-PTH-drl_map.svg"
   inkscape:version="0.92.3 (2405546, 2018-03-11)">
  <metadata
     id="metadata534">
    <rdf:RDF>
      <cc:Work
         rdf:about="">
        <dc:format>image/svg+xml</dc:format>
        <dc:type
           rdf:resource="http://purl.org/dc/dcmitype/StillImage" />
      </cc:Work>
    </rdf:RDF>
  </metadata>
  <defs
     id="defs532" />
  <sodipodi:namedview
     pagecolor="#ffffff"
     bordercolor="#666666"
     borderopacity="1"
     objecttolerance="10"
     gridtolerance="10"
     guidetolerance="10"
     inkscape:pageopacity="0"
     inkscape:pageshadow="2"
     inkscape:window-width="1853"
     inkscape:window-height="1025"
     id="namedview530"
     showgrid="false"
     inkscape:zoom="1.0230205"
     inkscape:cx="561.264"
     inkscape:cy="396.86398"
     inkscape:window-x="67"
     inkscape:window-y="27"
     inkscape:window-maximized="1"
     inkscape:current-layer="svg528" />
  <title
     id="title2">SVG Picture created as e-p-wifi-lf-PTH-drl_map.svg date 2021/12/13 18:05:53 </title>
  <desc
     id="desc4">Picture generated by PCBNEW </desc>
  <g
     style="fill:#000000; fill-opacity:1;stroke:#000000; stroke-opacity:1; stroke-linecap:round; stroke-linejoin:round;"
     transform="translate(0 0) scale(1 1)"
     id="g6" />
  <g
     style="fill:#000000; fill-opacity:0.0;  stroke:#000000; stroke-width:-0.000393701; stroke-opacity:1;  stroke-linecap:round; stroke-linejoin:round;"
     id="g8" />
  <g
     style="fill:#000000;fill-opacity:0;stroke:#000000;stroke-width:196.85040283;stroke-linecap:round;stroke-linejoin:round;stroke-miterlimit:4;stroke-dasharray:none;stroke-opacity:1"
     id="g26"
     inkscape:export-xdpi="163"
     inkscape:export-ydpi="163">
    <path
       d="M 37500,53000 H 35000"
       id="path10"
       inkscape:connector-curvature="0"
       style="stroke-width:196.85040283;stroke-miterlimit:4;stroke-dasharray:none" />
    <path
       d="M 37500,43000 V 53000"
       id="path12"
       inkscape:connector-curvature="0"
       style="stroke-width:196.85040283;stroke-miterlimit:4;stroke-dasharray:none" />
    <path
       d="m 35000,43000 h 2500"
       id="path14"
       inkscape:connector-curvature="0"
       style="stroke-width:196.85040283;stroke-miterlimit:4;stroke-dasharray:none" />
    <path
       d="M 16000,43000 H 31000"
       id="path16"
       inkscape:connector-curvature="0"
       style="stroke-width:196.85040283;stroke-miterlimit:4;stroke-dasharray:none" />
    <path
       d="M 16000,53000 H 31000"
       id="path18"
       inkscape:connector-curvature="0"
       style="stroke-width:196.85040283;stroke-miterlimit:4;stroke-dasharray:none" />
    <path
       d="M 16000,43000 V 53000"
       id="path20"
       inkscape:connector-curvature="0"
       style="stroke-width:196.85040283;stroke-miterlimit:4;stroke-dasharray:none" />
    <path
       d="M 35000,53000 H 31000"
       id="path22"
       inkscape:connector-curvature="0"
       style="stroke-width:196.85040283;stroke-miterlimit:4;stroke-dasharray:none" />
    <path
       d="m 31000,43000 h 4000"
       id="path24"
       inkscape:connector-curvature="0"
       style="stroke-width:196.85040283;stroke-miterlimit:4;stroke-dasharray:none" />
  </g>
  <g
     style="fill:#000000;fill-opacity:0;stroke:#000000;stroke-width:78.74019623;stroke-linecap:round;stroke-linejoin:round;stroke-opacity:1"
     id="g126"
     inkscape:export-xdpi="163"
     inkscape:export-ydpi="163">
    <path
       d="m 24362,47562 275,275"
       id="path28"
       inkscape:connector-curvature="0" />
    <path
       d="m 24637,47562 -275,275"
       id="path30"
       inkscape:connector-curvature="0" />
    <path
       d="m 24862,48062 275,275"
       id="path32"
       inkscape:connector-curvature="0" />
    <path
       d="m 25137,48062 -275,275"
       id="path34"
       inkscape:connector-curvature="0" />
    <path
       d="m 25362,47562 275,275"
       id="path36"
       inkscape:connector-curvature="0" />
    <path
       d="m 25637,47562 -275,275"
       id="path38"
       inkscape:connector-curvature="0" />
    <path
       d="m 18762,50362 275,275"
       id="path40"
       inkscape:connector-curvature="0" />
    <path
       d="m 19037,50362 -275,275"
       id="path42"
       inkscape:connector-curvature="0" />
    <path
       d="m 20762,50362 275,275"
       id="path44"
       inkscape:connector-curvature="0" />
    <path
       d="m 21037,50362 -275,275"
       id="path46"
       inkscape:connector-curvature="0" />
    <path
       d="m 24862,50262 275,275"
       id="path48"
       inkscape:connector-curvature="0" />
    <path
       d="m 25137,50262 -275,275"
       id="path50"
       inkscape:connector-curvature="0" />
    <path
       d="m 26862,50262 275,275"
       id="path52"
       inkscape:connector-curvature="0" />
    <path
       d="m 27137,50262 -275,275"
       id="path54"
       inkscape:connector-curvature="0" />
    <circle
       cx="31000"
       cy="46000"
       r="149.606"
       id="circle56" />
    <circle
       cx="31000"
       cy="47000"
       r="149.606"
       id="circle58" />
    <circle
       cx="31000"
       cy="48000"
       r="149.606"
       id="circle60" />
    <circle
       cx="31000"
       cy="49000"
       r="149.606"
       id="circle62" />
    <circle
       cx="32000"
       cy="46500"
       r="149.606"
       id="circle64" />
    <circle
       cx="32000"
       cy="47500"
       r="149.606"
       id="circle66" />
    <circle
       cx="32000"
       cy="48500"
       r="149.606"
       id="circle68" />
    <circle
       cx="32000"
       cy="49500"
       r="149.606"
       id="circle70" />
    <path
       d="m 18020,46742 v 315"
       id="path72"
       inkscape:connector-curvature="0" />
    <path
       d="m 17862,46900 h 315"
       id="path74"
       inkscape:connector-curvature="0" />
    <path
       d="m 20579,46742 v 315"
       id="path76"
       inkscape:connector-curvature="0" />
    <path
       d="m 20422,46900 h 315"
       id="path78"
       inkscape:connector-curvature="0" />
    <path
       style="fill:none;fill-opacity:0;stroke:#000000;stroke-width:78.74019623;stroke-linecap:round;stroke-linejoin:round;stroke-opacity:1"
       d="m 33439.2,44889.2 v -278.4 h -278.4 v 278.4 z"
       id="path80"
       inkscape:connector-curvature="0" />
    <path
       style="fill:none;fill-opacity:0;stroke:#000000;stroke-width:78.74019623;stroke-linecap:round;stroke-linejoin:round;stroke-opacity:1"
       d="m 33439.2,50889.2 v -278.4 h -278.4 v 278.4 z"
       id="path82"
       inkscape:connector-curvature="0" />
    <path
       style="fill:none;fill-opacity:0;stroke:#000000;stroke-width:78.74019623;stroke-linecap:round;stroke-linejoin:round;stroke-opacity:1"
       d="m 17639.2,50639.2 v -278.4 h -278.4 v 278.4 z"
       id="path84"
       inkscape:connector-curvature="0" />
    <path
       style="fill:none;fill-opacity:0;stroke:#000000;stroke-width:78.74019623;stroke-linecap:round;stroke-linejoin:round;stroke-opacity:1"
       d="m 22139.2,44139.2 v -278.4 h -278.4 v 278.4 z"
       id="path86"
       inkscape:connector-curvature="0" />
    <path
       style="fill:none;fill-opacity:0;stroke:#000000;stroke-width:78.74019623;stroke-linecap:round;stroke-linejoin:round;stroke-opacity:1"
       d="m 22139.2,52139.2 v -278.4 h -278.4 v 278.4 z"
       id="path88"
       inkscape:connector-curvature="0" />
    <path
       style="fill:none;fill-opacity:0;stroke:#000000;stroke-width:78.74019623;stroke-linecap:round;stroke-linejoin:round;stroke-opacity:1"
       d="m 23139.2,44139.2 v -278.4 h -278.4 v 278.4 z"
       id="path90"
       inkscape:connector-curvature="0" />
    <path
       style="fill:none;fill-opacity:0;stroke:#000000;stroke-width:78.74019623;stroke-linecap:round;stroke-linejoin:round;stroke-opacity:1"
       d="m 23139.2,52139.2 v -278.4 h -278.4 v 278.4 z"
       id="path92"
       inkscape:connector-curvature="0" />
    <path
       style="fill:none;fill-opacity:0;stroke:#000000;stroke-width:78.74019623;stroke-linecap:round;stroke-linejoin:round;stroke-opacity:1"
       d="m 24139.2,44139.2 v -278.4 h -278.4 v 278.4 z"
       id="path94"
       inkscape:connector-curvature="0" />
    <path
       style="fill:none;fill-opacity:0;stroke:#000000;stroke-width:78.74019623;stroke-linecap:round;stroke-linejoin:round;stroke-opacity:1"
       d="m 24139.2,52139.2 v -278.4 h -278.4 v 278.4 z"
       id="path96"
       inkscape:connector-curvature="0" />
    <path
       style="fill:none;fill-opacity:0;stroke:#000000;stroke-width:78.74019623;stroke-linecap:round;stroke-linejoin:round;stroke-opacity:1"
       d="m 25139.2,44139.2 v -278.4 h -278.4 v 278.4 z"
       id="path98"
       inkscape:connector-curvature="0" />
    <path
       style="fill:none;fill-opacity:0;stroke:#000000;stroke-width:78.74019623;stroke-linecap:round;stroke-linejoin:round;stroke-opacity:1"
       d="m 25139.2,52139.2 v -278.4 h -278.4 v 278.4 z"
       id="path100"
       inkscape:connector-curvature="0" />
    <path
       style="fill:none;fill-opacity:0;stroke:#000000;stroke-width:78.74019623;stroke-linecap:round;stroke-linejoin:round;stroke-opacity:1"
       d="m 26139.2,44139.2 v -278.4 h -278.4 v 278.4 z"
       id="path102"
       inkscape:connector-curvature="0" />
    <path
       style="fill:none;fill-opacity:0;stroke:#000000;stroke-width:78.74019623;stroke-linecap:round;stroke-linejoin:round;stroke-opacity:1"
       d="m 26139.2,52139.2 v -278.4 h -278.4 v 278.4 z"
       id="path104"
       inkscape:connector-curvature="0" />
    <path
       style="fill:none;fill-opacity:0;stroke:#000000;stroke-width:78.74019623;stroke-linecap:round;stroke-linejoin:round;stroke-opacity:1"
       d="m 27139.2,44139.2 v -278.4 h -278.4 v 278.4 z"
       id="path106"
       inkscape:connector-curvature="0" />
    <path
       style="fill:none;fill-opacity:0;stroke:#000000;stroke-width:78.74019623;stroke-linecap:round;stroke-linejoin:round;stroke-opacity:1"
       d="m 27139.2,52139.2 v -278.4 h -278.4 v 278.4 z"
       id="path108"
       inkscape:connector-curvature="0" />
    <path
       style="fill:none;fill-opacity:0;stroke:#000000;stroke-width:78.74019623;stroke-linecap:round;stroke-linejoin:round;stroke-opacity:1"
       d="m 28139.2,44139.2 v -278.4 h -278.4 v 278.4 z"
       id="path110"
       inkscape:connector-curvature="0" />
    <path
       style="fill:none;fill-opacity:0;stroke:#000000;stroke-width:78.74019623;stroke-linecap:round;stroke-linejoin:round;stroke-opacity:1"
       d="m 28139.2,52139.2 v -278.4 h -278.4 v 278.4 z"
       id="path112"
       inkscape:connector-curvature="0" />
    <path
       style="fill:none;fill-opacity:0;stroke:#000000;stroke-width:78.74019623;stroke-linecap:round;stroke-linejoin:round;stroke-opacity:1"
       d="m 29139.2,44139.2 v -278.4 h -278.4 v 278.4 z"
       id="path114"
       inkscape:connector-curvature="0" />
    <path
       style="fill:none;fill-opacity:0;stroke:#000000;stroke-width:78.74019623;stroke-linecap:round;stroke-linejoin:round;stroke-opacity:1"
       d="m 29139.2,52139.2 v -278.4 h -278.4 v 278.4 z"
       id="path116"
       inkscape:connector-curvature="0" />
    <path
       style="fill:none;fill-opacity:0;stroke:#000000;stroke-width:78.74019623;stroke-linecap:round;stroke-linejoin:round;stroke-opacity:1"
       d="m 34500,46129.9 629.9,-629.9 -629.9,-629.9 -629.9,629.9 z"
       id="path118"
       inkscape:connector-curvature="0" />
    <path
       d="m 33870,49370 1259,1259"
       id="path120"
       inkscape:connector-curvature="0" />
    <path
       d="m 35129,49370 -1259,1259"
       id="path122"
       inkscape:connector-curvature="0" />
    <circle
       cx="34500"
       cy="50000"
       r="629.92102"
       id="circle124" />
  </g>
  <g
     style="fill:#000000;fill-opacity:0;stroke:#000000;stroke-width:118.11000061;stroke-linecap:round;stroke-linejoin:round;stroke-opacity:1"
     id="g526"
     inkscape:export-xdpi="163"
     inkscape:export-ydpi="163">
    <text
       x="16777.6"
       y="54899.602"
       textLength="8661.4199"
       font-size="1574.8"
       lengthAdjust="spacingAndGlyphs"
       id="text128"
       style="font-size:1574.80004883px;text-anchor:start;opacity:0">Drill Map:</text>
    <path
       d="m 17117,54843 v -1181 h 282 l 168,56 113,112 56,113 56,225 v 169 l -56,225 -56,112 -113,113 -168,56 h -282"
       id="path130"
       inkscape:connector-curvature="0" />
    <path
       d="m 18298,54843 v -788"
       id="path132"
       inkscape:connector-curvature="0" />
    <path
       d="m 18298,54280 57,-112 56,-56 112,-57 h 113"
       id="path134"
       inkscape:connector-curvature="0" />
    <path
       d="m 19030,54843 v -788"
       id="path136"
       inkscape:connector-curvature="0" />
    <path
       d="m 19030,53662 -57,56 57,56 56,-56 -56,-56 v 112"
       id="path138"
       inkscape:connector-curvature="0" />
    <path
       d="m 19761,54843 -113,-56 -56,-113 v -1012"
       id="path140"
       inkscape:connector-curvature="0" />
    <path
       d="m 20379,54843 -112,-56 -56,-113 v -1012"
       id="path142"
       inkscape:connector-curvature="0" />
    <path
       d="m 21729,54843 v -1181 l 394,843 394,-843 v 1181"
       id="path144"
       inkscape:connector-curvature="0" />
    <path
       d="m 23585,54843 v -619 l -56,-112 -112,-57 h -225 l -113,57"
       id="path146"
       inkscape:connector-curvature="0" />
    <path
       d="m 23585,54787 -112,56 h -281 l -113,-56 -56,-113 v -112 l 56,-113 113,-56 h 281 l 112,-56"
       id="path148"
       inkscape:connector-curvature="0" />
    <path
       d="m 24148,54055 v 1182"
       id="path150"
       inkscape:connector-curvature="0" />
    <path
       d="m 24148,54112 112,-57 h 225 l 113,57 56,56 56,112 v 338 l -56,112 -56,57 -113,56 h -225 l -112,-56"
       id="path152"
       inkscape:connector-curvature="0" />
    <path
       d="m 25216,54730 57,57 -57,56 -56,-56 56,-57 v 113"
       id="path154"
       inkscape:connector-curvature="0" />
    <path
       d="m 25216,54112 57,56 -57,56 -56,-56 56,-56 v 112"
       id="path156"
       inkscape:connector-curvature="0" />
    <path
       d="m 15714,56651 276,276"
       id="path158"
       inkscape:connector-curvature="0" />
    <path
       d="m 15990,56651 -276,276"
       id="path160"
       inkscape:connector-curvature="0" />
    <text
       x="16777.6"
       y="57379.898"
       textLength="25427.4"
       font-size="1574.8"
       lengthAdjust="spacingAndGlyphs"
       id="text162"
       style="font-size:1574.80004883px;text-anchor:start;opacity:0">0.70mm / 0.028&quot; (7 holes)</text>
    <path
       d="m 17342,56142 h 113 l 112,56 57,57 56,112 56,225 v 281 l -56,225 -56,113 -57,56 -112,56 h -113 l -112,-56 -56,-56 -57,-113 -56,-225 v -281 l 56,-225 57,-112 56,-57 112,-56"
       id="path164"
       inkscape:connector-curvature="0" />
    <path
       d="m 18242,57211 56,56 -56,56 -56,-56 56,-56 v 112"
       id="path166"
       inkscape:connector-curvature="0" />
    <path
       d="m 18692,56142 h 788 l -507,1181"
       id="path168"
       inkscape:connector-curvature="0" />
    <path
       d="m 20154,56142 h 113 l 112,56 57,57 56,112 56,225 v 281 l -56,225 -56,113 -57,56 -112,56 h -113 l -112,-56 -56,-56 -57,-113 -56,-225 v -281 l 56,-225 57,-112 56,-57 112,-56"
       id="path170"
       inkscape:connector-curvature="0" />
    <path
       d="m 21054,57323 v -787"
       id="path172"
       inkscape:connector-curvature="0" />
    <path
       d="m 21054,56648 57,-56 112,-56 h 169 l 112,56 57,113 v 618"
       id="path174"
       inkscape:connector-curvature="0" />
    <path
       d="m 21561,56705 56,-113 112,-56 h 169 l 112,56 57,113 v 618"
       id="path176"
       inkscape:connector-curvature="0" />
    <path
       d="m 22629,57323 v -787"
       id="path178"
       inkscape:connector-curvature="0" />
    <path
       d="m 22629,56648 56,-56 113,-56 h 169 l 112,56 56,113 v 618"
       id="path180"
       inkscape:connector-curvature="0" />
    <path
       d="m 23135,56705 57,-113 112,-56 h 169 l 112,56 57,113 v 618"
       id="path182"
       inkscape:connector-curvature="0" />
    <path
       d="m 25947,56086 -1012,1518"
       id="path184"
       inkscape:connector-curvature="0" />
    <path
       d="m 27466,56142 h 113 l 112,56 56,57 56,112 57,225 v 281 l -57,225 -56,113 -56,56 -112,56 h -113 l -112,-56 -57,-56 -56,-113 -56,-225 v -281 l 56,-225 56,-112 57,-57 112,-56"
       id="path186"
       inkscape:connector-curvature="0" />
    <path
       d="m 28366,57211 56,56 -56,56 -56,-56 56,-56 v 112"
       id="path188"
       inkscape:connector-curvature="0" />
    <path
       d="m 29153,56142 h 113 l 112,56 57,57 56,112 56,225 v 281 l -56,225 -56,113 -57,56 -112,56 h -113 l -112,-56 -56,-56 -57,-113 -56,-225 v -281 l 56,-225 57,-112 56,-57 112,-56"
       id="path190"
       inkscape:connector-curvature="0" />
    <path
       d="m 29997,56255 56,-57 113,-56 h 281 l 112,56 57,57 56,112 v 113 l -56,168 -675,675 h 731"
       id="path192"
       inkscape:connector-curvature="0" />
    <path
       d="m 31347,56648 -113,-56 -56,-56 -56,-113 v -56 l 56,-112 56,-57 113,-56 h 225 l 112,56 57,57 56,112 v 56 l -56,113 -57,56 -112,56 h -225 l -113,57 -56,56 -56,112 v 225 l 56,113 56,56 113,56 h 225 l 112,-56 57,-56 56,-113 v -225 l -56,-112 -57,-56 -112,-57"
       id="path194"
       inkscape:connector-curvature="0" />
    <path
       d="m 32247,56142 v 225"
       id="path196"
       inkscape:connector-curvature="0" />
    <path
       d="m 32697,56142 v 225"
       id="path198"
       inkscape:connector-curvature="0" />
    <path
       d="m 34440,57773 -56,-56 -113,-169 -56,-112 -56,-169 -56,-281 v -225 l 56,-281 56,-169 56,-113 113,-168 56,-57"
       id="path200"
       inkscape:connector-curvature="0" />
    <path
       d="m 34778,56142 h 787 l -506,1181"
       id="path202"
       inkscape:connector-curvature="0" />
    <path
       d="M 36915,57323 V 56142"
       id="path204"
       inkscape:connector-curvature="0" />
    <path
       d="m 37421,57323 v -618 l -56,-113 -113,-56 h -168 l -113,56 -56,56"
       id="path206"
       inkscape:connector-curvature="0" />
    <path
       d="m 38152,57323 -112,-56 -57,-56 -56,-113 v -337 l 56,-113 57,-56 112,-56 h 169 l 112,56 57,56 56,113 v 337 l -56,113 -57,56 -112,56 h -169"
       id="path208"
       inkscape:connector-curvature="0" />
    <path
       d="m 39221,57323 -113,-56 -56,-113 v -1012"
       id="path210"
       inkscape:connector-curvature="0" />
    <path
       d="m 40121,57267 -113,56 h -225 l -112,-56 -56,-113 v -449 l 56,-113 112,-56 h 225 l 113,56 56,113 v 112 l -562,112"
       id="path212"
       inkscape:connector-curvature="0" />
    <path
       d="m 40627,57267 112,56 h 225 l 113,-56 56,-113 v -56 l -56,-112 -113,-57 h -168 l -113,-56 -56,-112 v -56 l 56,-113 113,-56 h 168 l 113,56"
       id="path214"
       inkscape:connector-curvature="0" />
    <path
       d="m 41527,57773 56,-56 113,-169 56,-112 56,-169 56,-281 v -225 l -56,-281 -56,-169 -56,-113 -113,-168 -56,-57"
       id="path216"
       inkscape:connector-curvature="0" />
    <circle
       cx="15840.6"
       cy="58348.398"
       r="149.606"
       id="circle218" />
    <text
       x="16777.6"
       y="58939"
       textLength="25427.4"
       font-size="1574.8"
       lengthAdjust="spacingAndGlyphs"
       id="text220"
       style="font-size:1574.80004883px;text-anchor:start;opacity:0">0.76mm / 0.030&quot; (8 holes)</text>
    <path
       d="m 17342,57701 h 113 l 112,56 57,57 56,112 56,225 v 281 l -56,225 -56,113 -57,56 -112,56 h -113 l -112,-56 -56,-56 -57,-113 -56,-225 v -281 l 56,-225 57,-112 56,-57 112,-56"
       id="path222"
       inkscape:connector-curvature="0" />
    <path
       d="m 18242,58770 56,56 -56,56 -56,-56 56,-56 v 112"
       id="path224"
       inkscape:connector-curvature="0" />
    <path
       d="m 18692,57701 h 788 l -507,1181"
       id="path226"
       inkscape:connector-curvature="0" />
    <path
       d="m 20436,57701 h -225 l -113,56 -56,57 -113,168 -56,225 v 450 l 56,113 57,56 112,56 h 225 l 113,-56 56,-56 56,-113 v -281 l -56,-112 -56,-57 -113,-56 h -225 l -112,56 -57,57 -56,112"
       id="path228"
       inkscape:connector-curvature="0" />
    <path
       d="m 21054,58882 v -787"
       id="path230"
       inkscape:connector-curvature="0" />
    <path
       d="m 21054,58207 57,-56 112,-56 h 169 l 112,56 57,113 v 618"
       id="path232"
       inkscape:connector-curvature="0" />
    <path
       d="m 21561,58264 56,-113 112,-56 h 169 l 112,56 57,113 v 618"
       id="path234"
       inkscape:connector-curvature="0" />
    <path
       d="m 22629,58882 v -787"
       id="path236"
       inkscape:connector-curvature="0" />
    <path
       d="m 22629,58207 56,-56 113,-56 h 169 l 112,56 56,113 v 618"
       id="path238"
       inkscape:connector-curvature="0" />
    <path
       d="m 23135,58264 57,-113 112,-56 h 169 l 112,56 57,113 v 618"
       id="path240"
       inkscape:connector-curvature="0" />
    <path
       d="m 25947,57645 -1012,1518"
       id="path242"
       inkscape:connector-curvature="0" />
    <path
       d="m 27466,57701 h 113 l 112,56 56,57 56,112 57,225 v 281 l -57,225 -56,113 -56,56 -112,56 h -113 l -112,-56 -57,-56 -56,-113 -56,-225 v -281 l 56,-225 56,-112 57,-57 112,-56"
       id="path244"
       inkscape:connector-curvature="0" />
    <path
       d="m 28366,58770 56,56 -56,56 -56,-56 56,-56 v 112"
       id="path246"
       inkscape:connector-curvature="0" />
    <path
       d="m 29153,57701 h 113 l 112,56 57,57 56,112 56,225 v 281 l -56,225 -56,113 -57,56 -112,56 h -113 l -112,-56 -56,-56 -57,-113 -56,-225 v -281 l 56,-225 57,-112 56,-57 112,-56"
       id="path248"
       inkscape:connector-curvature="0" />
    <path
       d="m 29941,57701 h 731 l -394,450 h 169 l 112,56 57,57 56,112 v 281 l -56,113 -57,56 -112,56 h -338 l -112,-56 -56,-56"
       id="path250"
       inkscape:connector-curvature="0" />
    <path
       d="m 31403,57701 h 113 l 112,56 56,57 57,112 56,225 v 281 l -56,225 -57,113 -56,56 -112,56 h -113 l -112,-56 -57,-56 -56,-113 -56,-225 v -281 l 56,-225 56,-112 57,-57 112,-56"
       id="path252"
       inkscape:connector-curvature="0" />
    <path
       d="m 32247,57701 v 225"
       id="path254"
       inkscape:connector-curvature="0" />
    <path
       d="m 32697,57701 v 225"
       id="path256"
       inkscape:connector-curvature="0" />
    <path
       d="m 34440,59332 -56,-56 -113,-169 -56,-112 -56,-169 -56,-281 v -225 l 56,-281 56,-169 56,-113 113,-168 56,-57"
       id="path258"
       inkscape:connector-curvature="0" />
    <path
       d="m 35059,58207 -113,-56 -56,-56 -56,-113 v -56 l 56,-112 56,-57 113,-56 h 225 l 112,56 57,57 56,112 v 56 l -56,113 -57,56 -112,56 h -225 l -113,57 -56,56 -56,112 v 225 l 56,113 56,56 113,56 h 225 l 112,-56 57,-56 56,-113 v -225 l -56,-112 -57,-56 -112,-57"
       id="path260"
       inkscape:connector-curvature="0" />
    <path
       d="M 36915,58882 V 57701"
       id="path262"
       inkscape:connector-curvature="0" />
    <path
       d="m 37421,58882 v -618 l -56,-113 -113,-56 h -168 l -113,56 -56,56"
       id="path264"
       inkscape:connector-curvature="0" />
    <path
       d="m 38152,58882 -112,-56 -57,-56 -56,-113 v -337 l 56,-113 57,-56 112,-56 h 169 l 112,56 57,56 56,113 v 337 l -56,113 -57,56 -112,56 h -169"
       id="path266"
       inkscape:connector-curvature="0" />
    <path
       d="m 39221,58882 -113,-56 -56,-112 v -1013"
       id="path268"
       inkscape:connector-curvature="0" />
    <path
       d="m 40121,58826 -113,56 h -225 l -112,-56 -56,-112 v -450 l 56,-113 112,-56 h 225 l 113,56 56,113 v 112 l -562,113"
       id="path270"
       inkscape:connector-curvature="0" />
    <path
       d="m 40627,58826 112,56 h 225 l 113,-56 56,-112 v -57 l -56,-112 -113,-56 h -168 l -113,-57 -56,-112 v -56 l 56,-113 113,-56 h 168 l 113,56"
       id="path272"
       inkscape:connector-curvature="0" />
    <path
       d="m 41527,59332 56,-56 113,-169 56,-112 56,-169 56,-281 v -225 l -56,-281 -56,-169 -56,-113 -113,-168 -56,-57"
       id="path274"
       inkscape:connector-curvature="0" />
    <path
       d="m 15832,59750 v 314"
       id="path276"
       inkscape:connector-curvature="0" />
    <path
       d="m 15675,59907 h 315"
       id="path278"
       inkscape:connector-curvature="0" />
    <text
       x="16777.6"
       y="60498"
       textLength="25427.4"
       font-size="1574.8"
       lengthAdjust="spacingAndGlyphs"
       id="text280"
       style="font-size:1574.80004883px;text-anchor:start;opacity:0">0.80mm / 0.031&quot; (2 holes)</text>
    <path
       d="m 17342,59260 h 113 l 112,56 57,57 56,112 56,225 v 281 l -56,225 -56,113 -57,56 -112,56 h -113 l -112,-56 -56,-56 -57,-113 -56,-225 v -281 l 56,-225 57,-112 56,-57 112,-56"
       id="path282"
       inkscape:connector-curvature="0" />
    <path
       d="m 18242,60329 56,56 -56,56 -56,-56 56,-56 v 112"
       id="path284"
       inkscape:connector-curvature="0" />
    <path
       d="m 18973,59766 -112,-56 -56,-56 -57,-113 v -56 l 57,-112 56,-57 112,-56 h 225 l 113,56 56,57 56,112 v 56 l -56,113 -56,56 -113,56 h -225 l -112,57 -56,56 -57,112 v 225 l 57,113 56,56 112,56 h 225 l 113,-56 56,-56 56,-113 v -225 l -56,-112 -56,-56 -113,-57"
       id="path286"
       inkscape:connector-curvature="0" />
    <path
       d="m 20154,59260 h 113 l 112,56 57,57 56,112 56,225 v 281 l -56,225 -56,113 -57,56 -112,56 h -113 l -112,-56 -56,-56 -57,-113 -56,-225 v -281 l 56,-225 57,-112 56,-57 112,-56"
       id="path288"
       inkscape:connector-curvature="0" />
    <path
       d="m 21054,60441 v -787"
       id="path290"
       inkscape:connector-curvature="0" />
    <path
       d="m 21054,59766 57,-56 112,-56 h 169 l 112,56 57,113 v 618"
       id="path292"
       inkscape:connector-curvature="0" />
    <path
       d="m 21561,59823 56,-113 112,-56 h 169 l 112,56 57,113 v 618"
       id="path294"
       inkscape:connector-curvature="0" />
    <path
       d="m 22629,60441 v -787"
       id="path296"
       inkscape:connector-curvature="0" />
    <path
       d="m 22629,59766 56,-56 113,-56 h 169 l 112,56 56,113 v 618"
       id="path298"
       inkscape:connector-curvature="0" />
    <path
       d="m 23135,59823 57,-113 112,-56 h 169 l 112,56 57,113 v 618"
       id="path300"
       inkscape:connector-curvature="0" />
    <path
       d="m 25947,59204 -1012,1519"
       id="path302"
       inkscape:connector-curvature="0" />
    <path
       d="m 27466,59260 h 113 l 112,56 56,57 56,112 57,225 v 281 l -57,225 -56,113 -56,56 -112,56 h -113 l -112,-56 -57,-56 -56,-113 -56,-225 v -281 l 56,-225 56,-112 57,-57 112,-56"
       id="path304"
       inkscape:connector-curvature="0" />
    <path
       d="m 28366,60329 56,56 -56,56 -56,-56 56,-56 v 112"
       id="path306"
       inkscape:connector-curvature="0" />
    <path
       d="m 29153,59260 h 113 l 112,56 57,57 56,112 56,225 v 281 l -56,225 -56,113 -57,56 -112,56 h -113 l -112,-56 -56,-56 -57,-113 -56,-225 v -281 l 56,-225 57,-112 56,-57 112,-56"
       id="path308"
       inkscape:connector-curvature="0" />
    <path
       d="m 29941,59260 h 731 l -394,450 h 169 l 112,56 57,57 56,112 v 281 l -56,113 -57,56 -112,56 h -338 l -112,-56 -56,-56"
       id="path310"
       inkscape:connector-curvature="0" />
    <path
       d="m 31797,60441 h -675"
       id="path312"
       inkscape:connector-curvature="0" />
    <path
       d="m 31459,60441 v -1181 l -112,169 -113,112 -112,57"
       id="path314"
       inkscape:connector-curvature="0" />
    <path
       d="m 32247,59260 v 225"
       id="path316"
       inkscape:connector-curvature="0" />
    <path
       d="m 32697,59260 v 225"
       id="path318"
       inkscape:connector-curvature="0" />
    <path
       d="m 34440,60891 -56,-56 -113,-169 -56,-112 -56,-169 -56,-281 v -225 l 56,-281 56,-169 56,-113 113,-168 56,-57"
       id="path320"
       inkscape:connector-curvature="0" />
    <path
       d="m 34834,59373 56,-57 113,-56 h 281 l 112,56 57,57 56,112 v 113 l -56,168 -675,675 h 731"
       id="path322"
       inkscape:connector-curvature="0" />
    <path
       d="M 36915,60441 V 59260"
       id="path324"
       inkscape:connector-curvature="0" />
    <path
       d="m 37421,60441 v -618 l -56,-113 -113,-56 h -168 l -113,56 -56,56"
       id="path326"
       inkscape:connector-curvature="0" />
    <path
       d="m 38152,60441 -112,-56 -57,-56 -56,-113 v -337 l 56,-113 57,-56 112,-56 h 169 l 112,56 57,56 56,113 v 337 l -56,113 -57,56 -112,56 h -169"
       id="path328"
       inkscape:connector-curvature="0" />
    <path
       d="m 39221,60441 -113,-56 -56,-112 v -1013"
       id="path330"
       inkscape:connector-curvature="0" />
    <path
       d="m 40121,60385 -113,56 h -225 l -112,-56 -56,-112 v -450 l 56,-113 112,-56 h 225 l 113,56 56,113 v 112 l -562,113"
       id="path332"
       inkscape:connector-curvature="0" />
    <path
       d="m 40627,60385 112,56 h 225 l 113,-56 56,-112 v -57 l -56,-112 -113,-56 h -168 l -113,-57 -56,-112 v -56 l 56,-113 113,-56 h 168 l 113,56"
       id="path334"
       inkscape:connector-curvature="0" />
    <path
       d="m 41527,60891 56,-56 113,-169 56,-112 56,-169 56,-281 v -225 l -56,-281 -56,-169 -56,-113 -113,-168 -56,-57"
       id="path336"
       inkscape:connector-curvature="0" />
    <path
       style="fill:none;fill-opacity:0;stroke:#000000;stroke-width:118.11000061;stroke-linecap:round;stroke-linejoin:round;stroke-opacity:1"
       d="m 15932.5,61605.7 v -278.4 h -278.4 v 278.4 z"
       id="path338"
       inkscape:connector-curvature="0" />
    <text
       x="16777.6"
       y="62057.102"
       textLength="26552.301"
       font-size="1574.8"
       lengthAdjust="spacingAndGlyphs"
       id="text340"
       style="font-size:1574.80004883px;text-anchor:start;opacity:0">1.00mm / 0.039&quot; (19 holes)</text>
    <path
       d="m 17736,62000 h -675"
       id="path342"
       inkscape:connector-curvature="0" />
    <path
       d="m 17399,62000 v -1181 l -113,169 -112,112 -113,57"
       id="path344"
       inkscape:connector-curvature="0" />
    <path
       d="m 18242,61888 56,56 -56,56 -56,-56 56,-56 v 112"
       id="path346"
       inkscape:connector-curvature="0" />
    <path
       d="m 19030,60819 h 112 l 113,56 56,57 56,112 56,225 v 281 l -56,225 -56,113 -56,56 -113,56 h -112 l -113,-56 -56,-56 -56,-113 -57,-225 v -281 l 57,-225 56,-112 56,-57 113,-56"
       id="path348"
       inkscape:connector-curvature="0" />
    <path
       d="m 20154,60819 h 113 l 112,56 57,57 56,112 56,225 v 281 l -56,225 -56,113 -57,56 -112,56 h -113 l -112,-56 -56,-56 -57,-113 -56,-225 v -281 l 56,-225 57,-112 56,-57 112,-56"
       id="path350"
       inkscape:connector-curvature="0" />
    <path
       d="m 21054,62000 v -787"
       id="path352"
       inkscape:connector-curvature="0" />
    <path
       d="m 21054,61325 57,-56 112,-56 h 169 l 112,56 57,113 v 618"
       id="path354"
       inkscape:connector-curvature="0" />
    <path
       d="m 21561,61382 56,-113 112,-56 h 169 l 112,56 57,113 v 618"
       id="path356"
       inkscape:connector-curvature="0" />
    <path
       d="m 22629,62000 v -787"
       id="path358"
       inkscape:connector-curvature="0" />
    <path
       d="m 22629,61325 56,-56 113,-56 h 169 l 112,56 56,113 v 618"
       id="path360"
       inkscape:connector-curvature="0" />
    <path
       d="m 23135,61382 57,-113 112,-56 h 169 l 112,56 57,113 v 618"
       id="path362"
       inkscape:connector-curvature="0" />
    <path
       d="m 25947,60763 -1012,1519"
       id="path364"
       inkscape:connector-curvature="0" />
    <path
       d="m 27466,60819 h 113 l 112,56 56,57 56,112 57,225 v 281 l -57,225 -56,113 -56,56 -112,56 h -113 l -112,-56 -57,-56 -56,-113 -56,-225 v -281 l 56,-225 56,-112 57,-57 112,-56"
       id="path366"
       inkscape:connector-curvature="0" />
    <path
       d="m 28366,61888 56,56 -56,56 -56,-56 56,-56 v 112"
       id="path368"
       inkscape:connector-curvature="0" />
    <path
       d="m 29153,60819 h 113 l 112,56 57,57 56,112 56,225 v 281 l -56,225 -56,113 -57,56 -112,56 h -113 l -112,-56 -56,-56 -57,-113 -56,-225 v -281 l 56,-225 57,-112 56,-57 112,-56"
       id="path370"
       inkscape:connector-curvature="0" />
    <path
       d="m 29941,60819 h 731 l -394,450 h 169 l 112,56 57,57 56,112 v 281 l -56,113 -57,56 -112,56 h -338 l -112,-56 -56,-56"
       id="path372"
       inkscape:connector-curvature="0" />
    <path
       d="m 31234,62000 h 225 l 113,-56 56,-56 113,-169 56,-225 v -450 l -56,-112 -57,-57 -112,-56 h -225 l -113,56 -56,57 -56,112 v 281 l 56,113 56,56 113,56 h 225 l 112,-56 57,-56 56,-113"
       id="path374"
       inkscape:connector-curvature="0" />
    <path
       d="m 32247,60819 v 225"
       id="path376"
       inkscape:connector-curvature="0" />
    <path
       d="m 32697,60819 v 225"
       id="path378"
       inkscape:connector-curvature="0" />
    <path
       d="m 34440,62450 -56,-56 -113,-169 -56,-112 -56,-169 -56,-281 v -225 l 56,-281 56,-169 56,-113 113,-168 56,-56"
       id="path380"
       inkscape:connector-curvature="0" />
    <path
       d="m 35509,62000 h -675"
       id="path382"
       inkscape:connector-curvature="0" />
    <path
       d="m 35171,62000 v -1181 l -112,169 -113,112 -112,57"
       id="path384"
       inkscape:connector-curvature="0" />
    <path
       d="m 36071,62000 h 225 l 113,-56 56,-56 112,-169 57,-225 v -450 l -57,-112 -56,-57 -112,-56 h -225 l -113,56 -56,57 -56,112 v 281 l 56,113 56,56 113,56 h 225 l 112,-56 56,-56 57,-113"
       id="path386"
       inkscape:connector-curvature="0" />
    <path
       d="M 38040,62000 V 60819"
       id="path388"
       inkscape:connector-curvature="0" />
    <path
       d="m 38546,62000 v -618 l -56,-113 -113,-56 h -169 l -112,56 -56,56"
       id="path390"
       inkscape:connector-curvature="0" />
    <path
       d="m 39277,62000 -112,-56 -57,-56 -56,-113 v -337 l 56,-113 57,-56 112,-56 h 169 l 112,56 57,56 56,113 v 337 l -56,113 -57,56 -112,56 h -169"
       id="path392"
       inkscape:connector-curvature="0" />
    <path
       d="m 40346,62000 -113,-56 -56,-112 v -1013"
       id="path394"
       inkscape:connector-curvature="0" />
    <path
       d="m 41246,61944 -113,56 h -225 l -112,-56 -57,-112 v -450 l 57,-113 112,-56 h 225 l 113,56 56,113 v 112 l -563,113"
       id="path396"
       inkscape:connector-curvature="0" />
    <path
       d="m 41752,61944 112,56 h 225 l 113,-56 56,-112 v -57 l -56,-112 -113,-56 h -169 l -112,-57 -56,-112 v -56 l 56,-113 112,-56 h 169 l 113,56"
       id="path398"
       inkscape:connector-curvature="0" />
    <path
       d="m 42652,62450 56,-56 112,-169 57,-112 56,-169 56,-281 v -225 l -56,-281 -56,-169 -57,-113 -112,-168 -56,-56"
       id="path400"
       inkscape:connector-curvature="0" />
    <path
       style="fill:none;fill-opacity:0;stroke:#000000;stroke-width:118.11000061;stroke-linecap:round;stroke-linejoin:round;stroke-opacity:1"
       d="m 15360.2,63655.5 630,-629.9 -630,-629.9 -629.9,629.9 z"
       id="path402"
       inkscape:connector-curvature="0" />
    <text
       x="16777.6"
       y="63616.102"
       textLength="24471.301"
       font-size="1574.8"
       lengthAdjust="spacingAndGlyphs"
       id="text404"
       style="font-size:1574.80004883px;text-anchor:start;opacity:0">3.20mm / 0.126&quot; (1 hole)</text>
    <path
       d="m 17005,62378 h 731 l -394,450 h 169 l 113,56 56,57 56,112 v 281 l -56,113 -56,56 -113,56 h -337 l -113,-56 -56,-56"
       id="path406"
       inkscape:connector-curvature="0" />
    <path
       d="m 18242,63447 56,56 -56,56 -56,-56 56,-56 v 112"
       id="path408"
       inkscape:connector-curvature="0" />
    <path
       d="m 18748,62491 57,-56 112,-57 h 281 l 113,57 56,56 56,112 v 113 l -56,168 -675,675 h 731"
       id="path410"
       inkscape:connector-curvature="0" />
    <path
       d="m 20154,62378 h 113 l 112,57 57,56 56,112 56,225 v 281 l -56,225 -56,113 -57,56 -112,56 h -113 l -112,-56 -56,-56 -57,-113 -56,-225 v -281 l 56,-225 57,-112 56,-56 112,-57"
       id="path412"
       inkscape:connector-curvature="0" />
    <path
       d="m 21054,63559 v -787"
       id="path414"
       inkscape:connector-curvature="0" />
    <path
       d="m 21054,62884 57,-56 112,-56 h 169 l 112,56 57,113 v 618"
       id="path416"
       inkscape:connector-curvature="0" />
    <path
       d="m 21561,62941 56,-113 112,-56 h 169 l 112,56 57,113 v 618"
       id="path418"
       inkscape:connector-curvature="0" />
    <path
       d="m 22629,63559 v -787"
       id="path420"
       inkscape:connector-curvature="0" />
    <path
       d="m 22629,62884 56,-56 113,-56 h 169 l 112,56 56,113 v 618"
       id="path422"
       inkscape:connector-curvature="0" />
    <path
       d="m 23135,62941 57,-113 112,-56 h 169 l 112,56 57,113 v 618"
       id="path424"
       inkscape:connector-curvature="0" />
    <path
       d="m 25947,62322 -1012,1519"
       id="path426"
       inkscape:connector-curvature="0" />
    <path
       d="m 27466,62378 h 113 l 112,57 56,56 56,112 57,225 v 281 l -57,225 -56,113 -56,56 -112,56 h -113 l -112,-56 -57,-56 -56,-113 -56,-225 v -281 l 56,-225 56,-112 57,-56 112,-57"
       id="path428"
       inkscape:connector-curvature="0" />
    <path
       d="m 28366,63447 56,56 -56,56 -56,-56 56,-56 v 112"
       id="path430"
       inkscape:connector-curvature="0" />
    <path
       d="m 29547,63559 h -675"
       id="path432"
       inkscape:connector-curvature="0" />
    <path
       d="m 29210,63559 v -1181 l -113,169 -112,113 -113,56"
       id="path434"
       inkscape:connector-curvature="0" />
    <path
       d="m 29997,62491 56,-56 113,-57 h 281 l 112,57 57,56 56,112 v 113 l -56,168 -675,675 h 731"
       id="path436"
       inkscape:connector-curvature="0" />
    <path
       d="m 31684,62378 h -225 l -112,57 -56,56 -113,169 -56,224 v 450 l 56,113 56,56 113,56 h 225 l 112,-56 57,-56 56,-113 v -281 l -56,-112 -57,-57 -112,-56 h -225 l -113,56 -56,57 -56,112"
       id="path438"
       inkscape:connector-curvature="0" />
    <path
       d="m 32247,62378 v 225"
       id="path440"
       inkscape:connector-curvature="0" />
    <path
       d="m 32697,62378 v 225"
       id="path442"
       inkscape:connector-curvature="0" />
    <path
       d="m 34440,64009 -56,-56 -113,-169 -56,-112 -56,-169 -56,-281 v -225 l 56,-281 56,-169 56,-112 113,-169 56,-56"
       id="path444"
       inkscape:connector-curvature="0" />
    <path
       d="m 35509,63559 h -675"
       id="path446"
       inkscape:connector-curvature="0" />
    <path
       d="m 35171,63559 v -1181 l -112,169 -113,113 -112,56"
       id="path448"
       inkscape:connector-curvature="0" />
    <path
       d="M 36915,63559 V 62378"
       id="path450"
       inkscape:connector-curvature="0" />
    <path
       d="m 37421,63559 v -618 l -56,-113 -113,-56 h -168 l -113,56 -56,56"
       id="path452"
       inkscape:connector-curvature="0" />
    <path
       d="m 38152,63559 -112,-56 -57,-56 -56,-113 v -337 l 56,-113 57,-56 112,-56 h 169 l 112,56 57,56 56,113 v 337 l -56,113 -57,56 -112,56 h -169"
       id="path454"
       inkscape:connector-curvature="0" />
    <path
       d="m 39221,63559 -113,-56 -56,-112 v -1013"
       id="path456"
       inkscape:connector-curvature="0" />
    <path
       d="m 40121,63503 -113,56 h -225 l -112,-56 -56,-112 v -450 l 56,-113 112,-56 h 225 l 113,56 56,113 v 112 l -562,113"
       id="path458"
       inkscape:connector-curvature="0" />
    <path
       d="m 40571,64009 56,-56 112,-169 57,-112 56,-169 56,-281 v -225 l -56,-281 -56,-169 -57,-112 -112,-169 -56,-56"
       id="path460"
       inkscape:connector-curvature="0" />
    <path
       d="m 14730,64167 1260,1260"
       id="path462"
       inkscape:connector-curvature="0" />
    <path
       d="m 15990,64167 -1260,1260"
       id="path464"
       inkscape:connector-curvature="0" />
    <circle
       cx="15360.2"
       cy="64797.199"
       r="629.92102"
       id="circle466" />
    <text
       x="16777.6"
       y="65387.801"
       textLength="24471.301"
       font-size="1574.8"
       lengthAdjust="spacingAndGlyphs"
       id="text468"
       style="font-size:1574.80004883px;text-anchor:start;opacity:0">3.20mm / 0.126&quot; (1 hole)</text>
    <path
       d="m 17005,64150 h 731 l -394,450 h 169 l 113,56 56,56 56,113 v 281 l -56,113 -56,56 -113,56 h -337 l -113,-56 -56,-56"
       id="path470"
       inkscape:connector-curvature="0" />
    <path
       d="m 18242,65219 56,56 -56,56 -56,-56 56,-56 v 112"
       id="path472"
       inkscape:connector-curvature="0" />
    <path
       d="m 18748,64262 57,-56 112,-56 h 281 l 113,56 56,56 56,113 v 112 l -56,169 -675,675 h 731"
       id="path474"
       inkscape:connector-curvature="0" />
    <path
       d="m 20154,64150 h 113 l 112,56 57,56 56,113 56,225 v 281 l -56,225 -56,113 -57,56 -112,56 h -113 l -112,-56 -56,-56 -57,-113 -56,-225 v -281 l 56,-225 57,-113 56,-56 112,-56"
       id="path476"
       inkscape:connector-curvature="0" />
    <path
       d="m 21054,65331 v -787"
       id="path478"
       inkscape:connector-curvature="0" />
    <path
       d="m 21054,64656 57,-56 112,-56 h 169 l 112,56 57,112 v 619"
       id="path480"
       inkscape:connector-curvature="0" />
    <path
       d="m 21561,64712 56,-112 112,-56 h 169 l 112,56 57,112 v 619"
       id="path482"
       inkscape:connector-curvature="0" />
    <path
       d="m 22629,65331 v -787"
       id="path484"
       inkscape:connector-curvature="0" />
    <path
       d="m 22629,64656 56,-56 113,-56 h 169 l 112,56 56,112 v 619"
       id="path486"
       inkscape:connector-curvature="0" />
    <path
       d="m 23135,64712 57,-112 112,-56 h 169 l 112,56 57,112 v 619"
       id="path488"
       inkscape:connector-curvature="0" />
    <path
       d="m 25947,64094 -1012,1518"
       id="path490"
       inkscape:connector-curvature="0" />
    <path
       d="m 27466,64150 h 113 l 112,56 56,56 56,113 57,225 v 281 l -57,225 -56,113 -56,56 -112,56 h -113 l -112,-56 -57,-56 -56,-113 -56,-225 v -281 l 56,-225 56,-113 57,-56 112,-56"
       id="path492"
       inkscape:connector-curvature="0" />
    <path
       d="m 28366,65219 56,56 -56,56 -56,-56 56,-56 v 112"
       id="path494"
       inkscape:connector-curvature="0" />
    <path
       d="m 29547,65331 h -675"
       id="path496"
       inkscape:connector-curvature="0" />
    <path
       d="m 29210,65331 v -1181 l -113,169 -112,112 -113,56"
       id="path498"
       inkscape:connector-curvature="0" />
    <path
       d="m 29997,64262 56,-56 113,-56 h 281 l 112,56 57,56 56,113 v 112 l -56,169 -675,675 h 731"
       id="path500"
       inkscape:connector-curvature="0" />
    <path
       d="m 31684,64150 h -225 l -112,56 -56,56 -113,169 -56,225 v 450 l 56,113 56,56 113,56 h 225 l 112,-56 57,-56 56,-113 v -281 l -56,-113 -57,-56 -112,-56 h -225 l -113,56 -56,56 -56,113"
       id="path502"
       inkscape:connector-curvature="0" />
    <path
       d="m 32247,64150 v 225"
       id="path504"
       inkscape:connector-curvature="0" />
    <path
       d="m 32697,64150 v 225"
       id="path506"
       inkscape:connector-curvature="0" />
    <path
       d="m 34440,65781 -56,-56 -113,-169 -56,-112 -56,-169 -56,-281 v -225 l 56,-282 56,-168 56,-113 113,-169 56,-56"
       id="path508"
       inkscape:connector-curvature="0" />
    <path
       d="m 35509,65331 h -675"
       id="path510"
       inkscape:connector-curvature="0" />
    <path
       d="m 35171,65331 v -1181 l -112,169 -113,112 -112,56"
       id="path512"
       inkscape:connector-curvature="0" />
    <path
       d="M 36915,65331 V 64150"
       id="path514"
       inkscape:connector-curvature="0" />
    <path
       d="m 37421,65331 v -619 l -56,-112 -113,-56 h -168 l -113,56 -56,56"
       id="path516"
       inkscape:connector-curvature="0" />
    <path
       d="m 38152,65331 -112,-56 -57,-56 -56,-113 v -337 l 56,-113 57,-56 112,-56 h 169 l 112,56 57,56 56,113 v 337 l -56,113 -57,56 -112,56 h -169"
       id="path518"
       inkscape:connector-curvature="0" />
    <path
       d="m 39221,65331 -113,-56 -56,-113 v -1012"
       id="path520"
       inkscape:connector-curvature="0" />
    <path
       d="m 40121,65275 -113,56 h -225 l -112,-56 -56,-113 v -450 l 56,-112 112,-56 h 225 l 113,56 56,112 v 113 l -562,112"
       id="path522"
       inkscape:connector-curvature="0" />
    <path
       d="m 40571,65781 56,-56 112,-169 57,-112 56,-169 56,-281 v -225 l -56,-282 -56,-168 -57,-113 -112,-169 -56,-56"
       id="path524"
       inkscape:connector-curvature="0" />
  </g>
</svg>
