<?xml version="1.0" standalone="no"?>
 <!DOCTYPE svg PUBLIC "-//W3C//DTD SVG 1.1//EN" 
 "http://www.w3.org/Graphics/SVG/1.1/DTD/svg11.dtd"> 
<svg
  xmlns:svg="http://www.w3.org/2000/svg"
  xmlns="http://www.w3.org/2000/svg"
  xmlns:xlink="http://www.w3.org/1999/xlink"
  version="1.1"
  width="29.700220cm" height="21.000720cm" viewBox="0 0 116930 82680">
<title>SVG Picture created as e-p-wifi-lf-B_Cu.svg date 2022/01/03 17:18:10 </title>
  <desc>Picture generated by PCBNEW </desc>
<g style="fill:#000000; fill-opacity:1;stroke:#000000; stroke-opacity:1;
stroke-linecap:round; stroke-linejoin:round;"
 transform="translate(0 0) scale(1 1)">
</g>
<g style="fill:#000000; fill-opacity:0.0; 
stroke:#000000; stroke-width:-0.000393701; stroke-opacity:1; 
stroke-linecap:round; stroke-linejoin:round;">
</g>
<g style="fill:#000000; fill-opacity:0.0; 
stroke:#000000; stroke-width:39.3701; stroke-opacity:1; 
stroke-linecap:round; stroke-linejoin:round;">
</g>
<g style="fill:#000000; fill-opacity:0.0; 
stroke:#000000; stroke-width:59.0551; stroke-opacity:1; 
stroke-linecap:round; stroke-linejoin:round;">
<rect x="69685.9" y="65357.2" width="42519.7" height="12598.4" rx="0" />
</g>
<g style="fill:#000000; fill-opacity:0.0; 
stroke:#000000; stroke-width:39.3701; stroke-opacity:1; 
stroke-linecap:round; stroke-linejoin:round;">
</g>
<g style="fill:#000000; fill-opacity:0.0; 
stroke:#000000; stroke-width:59.0551; stroke-opacity:1; 
stroke-linecap:round; stroke-linejoin:round;">
<rect x="3937.01" y="3937.01" width="109056" height="74806" rx="0" />
</g>
<g style="fill:#000000; fill-opacity:0.0; 
stroke:#000000; stroke-width:39.3701; stroke-opacity:1; 
stroke-linecap:round; stroke-linejoin:round;">
</g>
<g style="fill:#000000; fill-opacity:0.0; 
stroke:#000000; stroke-width:59.0551; stroke-opacity:1; 
stroke-linecap:round; stroke-linejoin:round;">
<rect x="4724.41" y="4724.41" width="107481" height="73231.2" rx="0" />
</g>
<g style="fill:#000000; fill-opacity:0.0; 
stroke:#000000; stroke-width:39.3701; stroke-opacity:1; 
stroke-linecap:round; stroke-linejoin:round;">
</g>
<g style="fill:#000000; fill-opacity:0.0; 
stroke:#000000; stroke-width:59.0551; stroke-opacity:1; 
stroke-linecap:round; stroke-linejoin:round;">
<path d="M23622 4724
L23622 3937
" />
</g>
<g style="fill:#000000; fill-opacity:0.0; 
stroke:#000000; stroke-width:39.3701; stroke-opacity:1; 
stroke-linecap:round; stroke-linejoin:round;">
</g>
<g style="fill:#000000; fill-opacity:0.0; 
stroke:#000000; stroke-width:59.0551; stroke-opacity:1; 
stroke-linecap:round; stroke-linejoin:round;">
<path d="M43307 4724
L43307 3937
" />
</g>
<g style="fill:#000000; fill-opacity:0.0; 
stroke:#000000; stroke-width:39.3701; stroke-opacity:1; 
stroke-linecap:round; stroke-linejoin:round;">
</g>
<g style="fill:#000000; fill-opacity:0.0; 
stroke:#000000; stroke-width:59.0551; stroke-opacity:1; 
stroke-linecap:round; stroke-linejoin:round;">
<path d="M62992 4724
L62992 3937
" />
</g>
<g style="fill:#000000; fill-opacity:0.0; 
stroke:#000000; stroke-width:39.3701; stroke-opacity:1; 
stroke-linecap:round; stroke-linejoin:round;">
</g>
<g style="fill:#000000; fill-opacity:0.0; 
stroke:#000000; stroke-width:59.0551; stroke-opacity:1; 
stroke-linecap:round; stroke-linejoin:round;">
<path d="M82677 4724
L82677 3937
" />
</g>
<g style="fill:#000000; fill-opacity:0.0; 
stroke:#000000; stroke-width:39.3701; stroke-opacity:1; 
stroke-linecap:round; stroke-linejoin:round;">
</g>
<g style="fill:#000000; fill-opacity:0.0; 
stroke:#000000; stroke-width:59.0551; stroke-opacity:1; 
stroke-linecap:round; stroke-linejoin:round;">
<path d="M102362 4724
L102362 3937
" />
</g>
<g style="fill:#000000; fill-opacity:0.0; 
stroke:#000000; stroke-width:39.3701; stroke-opacity:1; 
stroke-linecap:round; stroke-linejoin:round;">
</g>
<g style="fill:#000000; fill-opacity:0.0; 
stroke:#000000; stroke-width:59.0551; stroke-opacity:1; 
stroke-linecap:round; stroke-linejoin:round;">
<text x="13779.5" y="4586.61"
textLength="546.494" font-size="682.415" lengthAdjust="spacingAndGlyphs"
text-anchor="start" opacity="0">1</text>
<path d="M14199 4562
L13906 4562
" />
<path d="M14052 4562
L14052 4050
L14004 4123
L13955 4172
L13906 4196
" />
</g>
<g style="fill:#000000; fill-opacity:0.0; 
stroke:#000000; stroke-width:39.3701; stroke-opacity:1; 
stroke-linecap:round; stroke-linejoin:round;">
</g>
<g style="fill:#000000; fill-opacity:0.0; 
stroke:#000000; stroke-width:59.0551; stroke-opacity:1; 
stroke-linecap:round; stroke-linejoin:round;">
<text x="33464.6" y="4586.61"
textLength="546.494" font-size="682.415" lengthAdjust="spacingAndGlyphs"
text-anchor="start" opacity="0">2</text>
<path d="M33591 4099
L33615 4074
L33664 4050
L33786 4050
L33835 4074
L33859 4099
L33884 4147
L33884 4196
L33859 4269
L33567 4562
L33884 4562
" />
</g>
<g style="fill:#000000; fill-opacity:0.0; 
stroke:#000000; stroke-width:39.3701; stroke-opacity:1; 
stroke-linecap:round; stroke-linejoin:round;">
</g>
<g style="fill:#000000; fill-opacity:0.0; 
stroke:#000000; stroke-width:59.0551; stroke-opacity:1; 
stroke-linecap:round; stroke-linejoin:round;">
<text x="53149.6" y="4586.61"
textLength="546.494" font-size="682.415" lengthAdjust="spacingAndGlyphs"
text-anchor="start" opacity="0">3</text>
<path d="M53252 4050
L53569 4050
L53398 4245
L53471 4245
L53520 4269
L53544 4294
L53569 4342
L53569 4464
L53544 4513
L53520 4537
L53471 4562
L53325 4562
L53276 4537
L53252 4513
" />
</g>
<g style="fill:#000000; fill-opacity:0.0; 
stroke:#000000; stroke-width:39.3701; stroke-opacity:1; 
stroke-linecap:round; stroke-linejoin:round;">
</g>
<g style="fill:#000000; fill-opacity:0.0; 
stroke:#000000; stroke-width:59.0551; stroke-opacity:1; 
stroke-linecap:round; stroke-linejoin:round;">
<text x="72834.6" y="4586.61"
textLength="546.494" font-size="682.415" lengthAdjust="spacingAndGlyphs"
text-anchor="start" opacity="0">4</text>
<path d="M73205 4221
L73205 4562
" />
<path d="M73083 4026
L72961 4391
L73278 4391
" />
</g>
<g style="fill:#000000; fill-opacity:0.0; 
stroke:#000000; stroke-width:39.3701; stroke-opacity:1; 
stroke-linecap:round; stroke-linejoin:round;">
</g>
<g style="fill:#000000; fill-opacity:0.0; 
stroke:#000000; stroke-width:59.0551; stroke-opacity:1; 
stroke-linecap:round; stroke-linejoin:round;">
<text x="92519.7" y="4586.61"
textLength="546.494" font-size="682.415" lengthAdjust="spacingAndGlyphs"
text-anchor="start" opacity="0">5</text>
<path d="M92914 4050
L92671 4050
L92646 4294
L92671 4269
L92719 4245
L92841 4245
L92890 4269
L92914 4294
L92939 4342
L92939 4464
L92914 4513
L92890 4537
L92841 4562
L92719 4562
L92671 4537
L92646 4513
" />
</g>
<g style="fill:#000000; fill-opacity:0.0; 
stroke:#000000; stroke-width:39.3701; stroke-opacity:1; 
stroke-linecap:round; stroke-linejoin:round;">
</g>
<g style="fill:#000000; fill-opacity:0.0; 
stroke:#000000; stroke-width:59.0551; stroke-opacity:1; 
stroke-linecap:round; stroke-linejoin:round;">
<text x="112205" y="4586.61"
textLength="546.494" font-size="682.415" lengthAdjust="spacingAndGlyphs"
text-anchor="start" opacity="0">6</text>
<path d="M112575 4050
L112477 4050
L112429 4074
L112404 4099
L112356 4172
L112331 4269
L112331 4464
L112356 4513
L112380 4537
L112429 4562
L112526 4562
L112575 4537
L112599 4513
L112624 4464
L112624 4342
L112599 4294
L112575 4269
L112526 4245
L112429 4245
L112380 4269
L112356 4294
L112331 4342
" />
</g>
<g style="fill:#000000; fill-opacity:0.0; 
stroke:#000000; stroke-width:39.3701; stroke-opacity:1; 
stroke-linecap:round; stroke-linejoin:round;">
</g>
<g style="fill:#000000; fill-opacity:0.0; 
stroke:#000000; stroke-width:59.0551; stroke-opacity:1; 
stroke-linecap:round; stroke-linejoin:round;">
<path d="M23622 77955
L23622 78742
" />
</g>
<g style="fill:#000000; fill-opacity:0.0; 
stroke:#000000; stroke-width:39.3701; stroke-opacity:1; 
stroke-linecap:round; stroke-linejoin:round;">
</g>
<g style="fill:#000000; fill-opacity:0.0; 
stroke:#000000; stroke-width:59.0551; stroke-opacity:1; 
stroke-linecap:round; stroke-linejoin:round;">
<path d="M43307 77955
L43307 78742
" />
</g>
<g style="fill:#000000; fill-opacity:0.0; 
stroke:#000000; stroke-width:39.3701; stroke-opacity:1; 
stroke-linecap:round; stroke-linejoin:round;">
</g>
<g style="fill:#000000; fill-opacity:0.0; 
stroke:#000000; stroke-width:59.0551; stroke-opacity:1; 
stroke-linecap:round; stroke-linejoin:round;">
<path d="M62992 77955
L62992 78742
" />
</g>
<g style="fill:#000000; fill-opacity:0.0; 
stroke:#000000; stroke-width:39.3701; stroke-opacity:1; 
stroke-linecap:round; stroke-linejoin:round;">
</g>
<g style="fill:#000000; fill-opacity:0.0; 
stroke:#000000; stroke-width:59.0551; stroke-opacity:1; 
stroke-linecap:round; stroke-linejoin:round;">
<path d="M82677 77955
L82677 78742
" />
</g>
<g style="fill:#000000; fill-opacity:0.0; 
stroke:#000000; stroke-width:39.3701; stroke-opacity:1; 
stroke-linecap:round; stroke-linejoin:round;">
</g>
<g style="fill:#000000; fill-opacity:0.0; 
stroke:#000000; stroke-width:59.0551; stroke-opacity:1; 
stroke-linecap:round; stroke-linejoin:round;">
<path d="M102362 77955
L102362 78742
" />
</g>
<g style="fill:#000000; fill-opacity:0.0; 
stroke:#000000; stroke-width:39.3701; stroke-opacity:1; 
stroke-linecap:round; stroke-linejoin:round;">
</g>
<g style="fill:#000000; fill-opacity:0.0; 
stroke:#000000; stroke-width:59.0551; stroke-opacity:1; 
stroke-linecap:round; stroke-linejoin:round;">
<text x="13779.5" y="78605.2"
textLength="546.494" font-size="682.415" lengthAdjust="spacingAndGlyphs"
text-anchor="start" opacity="0">1</text>
<path d="M14199 78580
L13906 78580
" />
<path d="M14052 78580
L14052 78069
L14004 78142
L13955 78190
L13906 78215
" />
</g>
<g style="fill:#000000; fill-opacity:0.0; 
stroke:#000000; stroke-width:39.3701; stroke-opacity:1; 
stroke-linecap:round; stroke-linejoin:round;">
</g>
<g style="fill:#000000; fill-opacity:0.0; 
stroke:#000000; stroke-width:59.0551; stroke-opacity:1; 
stroke-linecap:round; stroke-linejoin:round;">
<text x="33464.6" y="78605.2"
textLength="546.494" font-size="682.415" lengthAdjust="spacingAndGlyphs"
text-anchor="start" opacity="0">2</text>
<path d="M33591 78117
L33615 78093
L33664 78069
L33786 78069
L33835 78093
L33859 78117
L33884 78166
L33884 78215
L33859 78288
L33567 78580
L33884 78580
" />
</g>
<g style="fill:#000000; fill-opacity:0.0; 
stroke:#000000; stroke-width:39.3701; stroke-opacity:1; 
stroke-linecap:round; stroke-linejoin:round;">
</g>
<g style="fill:#000000; fill-opacity:0.0; 
stroke:#000000; stroke-width:59.0551; stroke-opacity:1; 
stroke-linecap:round; stroke-linejoin:round;">
<text x="53149.6" y="78605.2"
textLength="546.494" font-size="682.415" lengthAdjust="spacingAndGlyphs"
text-anchor="start" opacity="0">3</text>
<path d="M53252 78069
L53569 78069
L53398 78263
L53471 78263
L53520 78288
L53544 78312
L53569 78361
L53569 78483
L53544 78532
L53520 78556
L53471 78580
L53325 78580
L53276 78556
L53252 78532
" />
</g>
<g style="fill:#000000; fill-opacity:0.0; 
stroke:#000000; stroke-width:39.3701; stroke-opacity:1; 
stroke-linecap:round; stroke-linejoin:round;">
</g>
<g style="fill:#000000; fill-opacity:0.0; 
stroke:#000000; stroke-width:59.0551; stroke-opacity:1; 
stroke-linecap:round; stroke-linejoin:round;">
<text x="72834.6" y="78605.2"
textLength="546.494" font-size="682.415" lengthAdjust="spacingAndGlyphs"
text-anchor="start" opacity="0">4</text>
<path d="M73205 78239
L73205 78580
" />
<path d="M73083 78044
L72961 78410
L73278 78410
" />
</g>
<g style="fill:#000000; fill-opacity:0.0; 
stroke:#000000; stroke-width:39.3701; stroke-opacity:1; 
stroke-linecap:round; stroke-linejoin:round;">
</g>
<g style="fill:#000000; fill-opacity:0.0; 
stroke:#000000; stroke-width:59.0551; stroke-opacity:1; 
stroke-linecap:round; stroke-linejoin:round;">
<text x="92519.7" y="78605.2"
textLength="546.494" font-size="682.415" lengthAdjust="spacingAndGlyphs"
text-anchor="start" opacity="0">5</text>
<path d="M92914 78069
L92671 78069
L92646 78312
L92671 78288
L92719 78263
L92841 78263
L92890 78288
L92914 78312
L92939 78361
L92939 78483
L92914 78532
L92890 78556
L92841 78580
L92719 78580
L92671 78556
L92646 78532
" />
</g>
<g style="fill:#000000; fill-opacity:0.0; 
stroke:#000000; stroke-width:39.3701; stroke-opacity:1; 
stroke-linecap:round; stroke-linejoin:round;">
</g>
<g style="fill:#000000; fill-opacity:0.0; 
stroke:#000000; stroke-width:59.0551; stroke-opacity:1; 
stroke-linecap:round; stroke-linejoin:round;">
<text x="112205" y="78605.2"
textLength="546.494" font-size="682.415" lengthAdjust="spacingAndGlyphs"
text-anchor="start" opacity="0">6</text>
<path d="M112575 78069
L112477 78069
L112429 78093
L112404 78117
L112356 78190
L112331 78288
L112331 78483
L112356 78532
L112380 78556
L112429 78580
L112526 78580
L112575 78556
L112599 78532
L112624 78483
L112624 78361
L112599 78312
L112575 78288
L112526 78263
L112429 78263
L112380 78288
L112356 78312
L112331 78361
" />
</g>
<g style="fill:#000000; fill-opacity:0.0; 
stroke:#000000; stroke-width:39.3701; stroke-opacity:1; 
stroke-linecap:round; stroke-linejoin:round;">
</g>
<g style="fill:#000000; fill-opacity:0.0; 
stroke:#000000; stroke-width:59.0551; stroke-opacity:1; 
stroke-linecap:round; stroke-linejoin:round;">
<path d="M3937 23622
L4724 23622
" />
</g>
<g style="fill:#000000; fill-opacity:0.0; 
stroke:#000000; stroke-width:39.3701; stroke-opacity:1; 
stroke-linecap:round; stroke-linejoin:round;">
</g>
<g style="fill:#000000; fill-opacity:0.0; 
stroke:#000000; stroke-width:59.0551; stroke-opacity:1; 
stroke-linecap:round; stroke-linejoin:round;">
<path d="M3937 43307
L4724 43307
" />
</g>
<g style="fill:#000000; fill-opacity:0.0; 
stroke:#000000; stroke-width:39.3701; stroke-opacity:1; 
stroke-linecap:round; stroke-linejoin:round;">
</g>
<g style="fill:#000000; fill-opacity:0.0; 
stroke:#000000; stroke-width:59.0551; stroke-opacity:1; 
stroke-linecap:round; stroke-linejoin:round;">
<path d="M3937 62992
L4724 62992
" />
</g>
<g style="fill:#000000; fill-opacity:0.0; 
stroke:#000000; stroke-width:39.3701; stroke-opacity:1; 
stroke-linecap:round; stroke-linejoin:round;">
</g>
<g style="fill:#000000; fill-opacity:0.0; 
stroke:#000000; stroke-width:59.0551; stroke-opacity:1; 
stroke-linecap:round; stroke-linejoin:round;">
<text x="4330.71" y="14035.4"
textLength="497.75" font-size="682.415" lengthAdjust="spacingAndGlyphs"
text-anchor="middle" opacity="0">A</text>
<path d="M4208 13864
L4452 13864
" />
<path d="M4160 14011
L4330 13499
L4501 14011
" />
</g>
<g style="fill:#000000; fill-opacity:0.0; 
stroke:#000000; stroke-width:39.3701; stroke-opacity:1; 
stroke-linecap:round; stroke-linejoin:round;">
</g>
<g style="fill:#000000; fill-opacity:0.0; 
stroke:#000000; stroke-width:59.0551; stroke-opacity:1; 
stroke-linecap:round; stroke-linejoin:round;">
<text x="4330.71" y="33720.5"
textLength="570.866" font-size="682.415" lengthAdjust="spacingAndGlyphs"
text-anchor="middle" opacity="0">B</text>
<path d="M4367 33428
L4440 33452
L4464 33476
L4489 33525
L4489 33598
L4464 33647
L4440 33671
L4391 33696
L4196 33696
L4196 33184
L4367 33184
L4416 33208
L4440 33233
L4464 33281
L4464 33330
L4440 33379
L4416 33403
L4367 33428
L4196 33428
" />
</g>
<g style="fill:#000000; fill-opacity:0.0; 
stroke:#000000; stroke-width:39.3701; stroke-opacity:1; 
stroke-linecap:round; stroke-linejoin:round;">
</g>
<g style="fill:#000000; fill-opacity:0.0; 
stroke:#000000; stroke-width:59.0551; stroke-opacity:1; 
stroke-linecap:round; stroke-linejoin:round;">
<text x="4330.71" y="53405.5"
textLength="570.866" font-size="682.415" lengthAdjust="spacingAndGlyphs"
text-anchor="middle" opacity="0">C</text>
<path d="M4489 53332
L4464 53356
L4391 53381
L4342 53381
L4269 53356
L4221 53308
L4196 53259
L4172 53161
L4172 53088
L4196 52991
L4221 52942
L4269 52893
L4342 52869
L4391 52869
L4464 52893
L4489 52918
" />
</g>
<g style="fill:#000000; fill-opacity:0.0; 
stroke:#000000; stroke-width:39.3701; stroke-opacity:1; 
stroke-linecap:round; stroke-linejoin:round;">
</g>
<g style="fill:#000000; fill-opacity:0.0; 
stroke:#000000; stroke-width:59.0551; stroke-opacity:1; 
stroke-linecap:round; stroke-linejoin:round;">
<text x="4330.71" y="73090.6"
textLength="570.866" font-size="682.415" lengthAdjust="spacingAndGlyphs"
text-anchor="middle" opacity="0">D</text>
<path d="M4196 73066
L4196 72554
L4318 72554
L4391 72578
L4440 72627
L4464 72676
L4489 72773
L4489 72846
L4464 72944
L4440 72993
L4391 73041
L4318 73066
L4196 73066
" />
</g>
<g style="fill:#000000; fill-opacity:0.0; 
stroke:#000000; stroke-width:39.3701; stroke-opacity:1; 
stroke-linecap:round; stroke-linejoin:round;">
</g>
<g style="fill:#000000; fill-opacity:0.0; 
stroke:#000000; stroke-width:59.0551; stroke-opacity:1; 
stroke-linecap:round; stroke-linejoin:round;">
<path d="M112992 23622
L112205 23622
" />
</g>
<g style="fill:#000000; fill-opacity:0.0; 
stroke:#000000; stroke-width:39.3701; stroke-opacity:1; 
stroke-linecap:round; stroke-linejoin:round;">
</g>
<g style="fill:#000000; fill-opacity:0.0; 
stroke:#000000; stroke-width:59.0551; stroke-opacity:1; 
stroke-linecap:round; stroke-linejoin:round;">
<path d="M112992 43307
L112205 43307
" />
</g>
<g style="fill:#000000; fill-opacity:0.0; 
stroke:#000000; stroke-width:39.3701; stroke-opacity:1; 
stroke-linecap:round; stroke-linejoin:round;">
</g>
<g style="fill:#000000; fill-opacity:0.0; 
stroke:#000000; stroke-width:59.0551; stroke-opacity:1; 
stroke-linecap:round; stroke-linejoin:round;">
<path d="M112992 62992
L112205 62992
" />
</g>
<g style="fill:#000000; fill-opacity:0.0; 
stroke:#000000; stroke-width:39.3701; stroke-opacity:1; 
stroke-linecap:round; stroke-linejoin:round;">
</g>
<g style="fill:#000000; fill-opacity:0.0; 
stroke:#000000; stroke-width:59.0551; stroke-opacity:1; 
stroke-linecap:round; stroke-linejoin:round;">
<text x="112599" y="14035.4"
textLength="497.75" font-size="682.415" lengthAdjust="spacingAndGlyphs"
text-anchor="middle" opacity="0">A</text>
<path d="M112477 13864
L112721 13864
" />
<path d="M112428 14011
L112599 13499
L112769 14011
" />
</g>
<g style="fill:#000000; fill-opacity:0.0; 
stroke:#000000; stroke-width:39.3701; stroke-opacity:1; 
stroke-linecap:round; stroke-linejoin:round;">
</g>
<g style="fill:#000000; fill-opacity:0.0; 
stroke:#000000; stroke-width:59.0551; stroke-opacity:1; 
stroke-linecap:round; stroke-linejoin:round;">
<text x="112599" y="33720.5"
textLength="570.866" font-size="682.415" lengthAdjust="spacingAndGlyphs"
text-anchor="middle" opacity="0">B</text>
<path d="M112635 33428
L112708 33452
L112733 33476
L112757 33525
L112757 33598
L112733 33647
L112708 33671
L112660 33696
L112465 33696
L112465 33184
L112635 33184
L112684 33208
L112708 33233
L112733 33281
L112733 33330
L112708 33379
L112684 33403
L112635 33428
L112465 33428
" />
</g>
<g style="fill:#000000; fill-opacity:0.0; 
stroke:#000000; stroke-width:39.3701; stroke-opacity:1; 
stroke-linecap:round; stroke-linejoin:round;">
</g>
<g style="fill:#000000; fill-opacity:0.0; 
stroke:#000000; stroke-width:59.0551; stroke-opacity:1; 
stroke-linecap:round; stroke-linejoin:round;">
<text x="112599" y="53405.5"
textLength="570.866" font-size="682.415" lengthAdjust="spacingAndGlyphs"
text-anchor="middle" opacity="0">C</text>
<path d="M112757 53332
L112733 53356
L112660 53381
L112611 53381
L112538 53356
L112489 53308
L112465 53259
L112440 53161
L112440 53088
L112465 52991
L112489 52942
L112538 52893
L112611 52869
L112660 52869
L112733 52893
L112757 52918
" />
</g>
<g style="fill:#000000; fill-opacity:0.0; 
stroke:#000000; stroke-width:39.3701; stroke-opacity:1; 
stroke-linecap:round; stroke-linejoin:round;">
</g>
<g style="fill:#000000; fill-opacity:0.0; 
stroke:#000000; stroke-width:59.0551; stroke-opacity:1; 
stroke-linecap:round; stroke-linejoin:round;">
<text x="112599" y="73090.6"
textLength="570.866" font-size="682.415" lengthAdjust="spacingAndGlyphs"
text-anchor="middle" opacity="0">D</text>
<path d="M112465 73066
L112465 72554
L112587 72554
L112660 72578
L112708 72627
L112733 72676
L112757 72773
L112757 72846
L112733 72944
L112708 72993
L112660 73041
L112587 73066
L112465 73066
" />
</g>
<g style="fill:#000000; fill-opacity:0.0; 
stroke:#000000; stroke-width:39.3701; stroke-opacity:1; 
stroke-linecap:round; stroke-linejoin:round;">
</g>
<g style="fill:#000000; fill-opacity:0.0; 
stroke:#000000; stroke-width:59.0551; stroke-opacity:1; 
stroke-linecap:round; stroke-linejoin:round;">
<text x="78741" y="76321.7"
textLength="2758.72" font-size="787.402" lengthAdjust="spacingAndGlyphs"
text-anchor="start" opacity="0">Date: </text>
<path d="M78911 76293
L78911 75703
L79051 75703
L79136 75731
L79192 75787
L79220 75843
L79248 75956
L79248 76040
L79220 76153
L79192 76209
L79136 76265
L79051 76293
L78911 76293
" />
<path d="M79754 76293
L79754 75984
L79726 75928
L79670 75899
L79557 75899
L79501 75928
" />
<path d="M79754 76265
L79698 76293
L79557 76293
L79501 76265
L79473 76209
L79473 76153
L79501 76096
L79557 76068
L79698 76068
L79754 76040
" />
<path d="M79951 75899
L80176 75899
" />
<path d="M80036 75703
L80036 76209
L80064 76265
L80120 76293
L80176 76293
" />
<path d="M80598 76265
L80542 76293
L80429 76293
L80373 76265
L80345 76209
L80345 75984
L80373 75928
L80429 75899
L80542 75899
L80598 75928
L80626 75984
L80626 76040
L80345 76096
" />
<path d="M80879 76237
L80907 76265
L80879 76293
L80851 76265
L80879 76237
L80879 76293
" />
<path d="M80879 75928
L80907 75956
L80879 75984
L80851 75956
L80879 75928
L80879 75984
" />
</g>
<g style="fill:#000000; fill-opacity:0.0; 
stroke:#000000; stroke-width:39.3701; stroke-opacity:1; 
stroke-linecap:round; stroke-linejoin:round;">
</g>
<g style="fill:#000000; fill-opacity:0.0; 
stroke:#000000; stroke-width:59.0551; stroke-opacity:1; 
stroke-linecap:round; stroke-linejoin:round;">
<path d="M69685 76577
L112205 76577
" />
</g>
<g style="fill:#000000; fill-opacity:0.0; 
stroke:#000000; stroke-width:39.3701; stroke-opacity:1; 
stroke-linecap:round; stroke-linejoin:round;">
</g>
<g style="fill:#000000; fill-opacity:0.0; 
stroke:#000000; stroke-width:59.0551; stroke-opacity:1; 
stroke-linecap:round; stroke-linejoin:round;">
<text x="70079.6" y="77424.1"
textLength="23259.3" font-size="787.402" lengthAdjust="spacingAndGlyphs"
text-anchor="start" opacity="0">KiCad E.D.A.  kicad 5.1.6-c6e7f7d~87~ubuntu18.04.1</text>
<path d="M70249 77395
L70249 76805
" />
<path d="M70587 77395
L70334 77058
" />
<path d="M70587 76805
L70249 77142
" />
<path d="M70840 77395
L70840 77002
" />
<path d="M70840 76805
L70812 76833
L70840 76861
L70868 76833
L70840 76805
L70840 76861
" />
<path d="M71458 77339
L71430 77367
L71346 77395
L71290 77395
L71205 77367
L71149 77311
L71121 77255
L71093 77142
L71093 77058
L71121 76946
L71149 76889
L71205 76833
L71290 76805
L71346 76805
L71430 76833
L71458 76861
" />
<path d="M71965 77395
L71965 77086
L71937 77030
L71880 77002
L71768 77002
L71712 77030
" />
<path d="M71965 77367
L71908 77395
L71768 77395
L71712 77367
L71683 77311
L71683 77255
L71712 77199
L71768 77171
L71908 77171
L71965 77142
" />
<path d="M72499 77395
L72499 76805
" />
<path d="M72499 77367
L72443 77395
L72330 77395
L72274 77367
L72246 77339
L72218 77283
L72218 77114
L72246 77058
L72274 77030
L72330 77002
L72443 77002
L72499 77030
" />
<path d="M73230 77086
L73427 77086
" />
<path d="M73511 77395
L73230 77395
L73230 76805
L73511 76805
" />
<path d="M73764 77339
L73793 77367
L73764 77395
L73736 77367
L73764 77339
L73764 77395
" />
<path d="M74046 77395
L74046 76805
L74186 76805
L74271 76833
L74327 76889
L74355 76946
L74383 77058
L74383 77142
L74355 77255
L74327 77311
L74271 77367
L74186 77395
L74046 77395
" />
<path d="M74636 77339
L74664 77367
L74636 77395
L74608 77367
L74636 77339
L74636 77395
" />
<path d="M74889 77227
L75171 77227
" />
<path d="M74833 77395
L75030 76805
L75227 77395
" />
<path d="M75424 77339
L75452 77367
L75424 77395
L75395 77367
L75424 77339
L75424 77395
" />
<path d="M76605 77395
L76605 76805
" />
<path d="M76661 77171
L76830 77395
" />
<path d="M76830 77002
L76605 77227
" />
<path d="M77083 77395
L77083 77002
" />
<path d="M77083 76805
L77055 76833
L77083 76861
L77111 76833
L77083 76805
L77083 76861
" />
<path d="M77617 77367
L77561 77395
L77448 77395
L77392 77367
L77364 77339
L77336 77283
L77336 77114
L77364 77058
L77392 77030
L77448 77002
L77561 77002
L77617 77030
" />
<path d="M78123 77395
L78123 77086
L78095 77030
L78039 77002
L77926 77002
L77870 77030
" />
<path d="M78123 77367
L78067 77395
L77926 77395
L77870 77367
L77842 77311
L77842 77255
L77870 77199
L77926 77171
L78067 77171
L78123 77142
" />
<path d="M78658 77395
L78658 76805
" />
<path d="M78658 77367
L78601 77395
L78489 77395
L78433 77367
L78404 77339
L78376 77283
L78376 77114
L78404 77058
L78433 77030
L78489 77002
L78601 77002
L78658 77030
" />
<path d="M79670 76805
L79389 76805
L79361 77086
L79389 77058
L79445 77030
L79586 77030
L79642 77058
L79670 77086
L79698 77142
L79698 77283
L79670 77339
L79642 77367
L79586 77395
L79445 77395
L79389 77367
L79361 77339
" />
<path d="M79951 77339
L79979 77367
L79951 77395
L79923 77367
L79951 77339
L79951 77395
" />
<path d="M80542 77395
L80204 77395
" />
<path d="M80373 77395
L80373 76805
L80317 76889
L80260 76946
L80204 76974
" />
<path d="M80795 77339
L80823 77367
L80795 77395
L80767 77367
L80795 77339
L80795 77395
" />
<path d="M81329 76805
L81217 76805
L81160 76833
L81132 76861
L81076 76946
L81048 77058
L81048 77283
L81076 77339
L81104 77367
L81160 77395
L81273 77395
L81329 77367
L81357 77339
L81385 77283
L81385 77142
L81357 77086
L81329 77058
L81273 77030
L81160 77030
L81104 77058
L81076 77086
L81048 77142
" />
<path d="M81638 77171
L82088 77171
" />
<path d="M82623 77367
L82566 77395
L82454 77395
L82398 77367
L82370 77339
L82341 77283
L82341 77114
L82370 77058
L82398 77030
L82454 77002
L82566 77002
L82623 77030
" />
<path d="M83129 76805
L83016 76805
L82960 76833
L82932 76861
L82876 76946
L82848 77058
L82848 77283
L82876 77339
L82904 77367
L82960 77395
L83073 77395
L83129 77367
L83157 77339
L83185 77283
L83185 77142
L83157 77086
L83129 77058
L83073 77030
L82960 77030
L82904 77058
L82876 77086
L82848 77142
" />
<path d="M83663 77367
L83607 77395
L83494 77395
L83438 77367
L83410 77311
L83410 77086
L83438 77030
L83494 77002
L83607 77002
L83663 77030
L83691 77086
L83691 77142
L83410 77199
" />
<path d="M83888 76805
L84282 76805
L84029 77395
" />
<path d="M84422 77002
L84647 77002
" />
<path d="M84507 77395
L84507 76889
L84535 76833
L84591 76805
L84647 76805
" />
<path d="M84788 76805
L85182 76805
L84929 77395
" />
<path d="M85660 77395
L85660 76805
" />
<path d="M85660 77367
L85604 77395
L85491 77395
L85435 77367
L85407 77339
L85379 77283
L85379 77114
L85407 77058
L85435 77030
L85491 77002
L85604 77002
L85660 77030
" />
<path d="M85800 76644
L86363 76644
" />
<path d="M86025 77058
L85969 77030
L85941 77002
L85913 76946
L85913 76917
L85941 76861
L85969 76833
L86025 76805
L86138 76805
L86194 76833
L86222 76861
L86250 76917
L86250 76946
L86222 77002
L86194 77030
L86138 77058
L86025 77058
L85969 77086
L85941 77114
L85913 77171
L85913 77283
L85941 77339
L85969 77367
L86025 77395
L86138 77395
L86194 77367
L86222 77339
L86250 77283
L86250 77171
L86222 77114
L86194 77086
L86138 77058
" />
<path d="M86363 76644
L86925 76644
" />
<path d="M86447 76805
L86841 76805
L86588 77395
" />
<path d="M87319 77002
L87319 77395
" />
<path d="M87066 77002
L87066 77311
L87094 77367
L87150 77395
L87235 77395
L87291 77367
L87319 77339
" />
<path d="M87600 77395
L87600 76805
" />
<path d="M87600 77030
L87656 77002
L87769 77002
L87825 77030
L87853 77058
L87881 77114
L87881 77283
L87853 77339
L87825 77367
L87769 77395
L87656 77395
L87600 77367
" />
<path d="M88388 77002
L88388 77395
" />
<path d="M88135 77002
L88135 77311
L88163 77367
L88219 77395
L88303 77395
L88359 77367
L88388 77339
" />
<path d="M88669 77002
L88669 77395
" />
<path d="M88669 77058
L88697 77030
L88753 77002
L88838 77002
L88894 77030
L88922 77086
L88922 77395
" />
<path d="M89119 77002
L89344 77002
" />
<path d="M89203 76805
L89203 77311
L89231 77367
L89287 77395
L89344 77395
" />
<path d="M89794 77002
L89794 77395
" />
<path d="M89541 77002
L89541 77311
L89569 77367
L89625 77395
L89709 77395
L89766 77367
L89794 77339
" />
<path d="M90384 77395
L90047 77395
" />
<path d="M90215 77395
L90215 76805
L90159 76889
L90103 76946
L90047 76974
" />
<path d="M90722 77058
L90665 77030
L90637 77002
L90609 76946
L90609 76917
L90637 76861
L90665 76833
L90722 76805
L90834 76805
L90890 76833
L90919 76861
L90947 76917
L90947 76946
L90919 77002
L90890 77030
L90834 77058
L90722 77058
L90665 77086
L90637 77114
L90609 77171
L90609 77283
L90637 77339
L90665 77367
L90722 77395
L90834 77395
L90890 77367
L90919 77339
L90947 77283
L90947 77171
L90919 77114
L90890 77086
L90834 77058
" />
<path d="M91200 77339
L91228 77367
L91200 77395
L91172 77367
L91200 77339
L91200 77395
" />
<path d="M91593 76805
L91650 76805
L91706 76833
L91734 76861
L91762 76917
L91790 77030
L91790 77171
L91762 77283
L91734 77339
L91706 77367
L91650 77395
L91593 77395
L91537 77367
L91509 77339
L91481 77283
L91453 77171
L91453 77030
L91481 76917
L91509 76861
L91537 76833
L91593 76805
" />
<path d="M92296 77002
L92296 77395
" />
<path d="M92156 76777
L92015 77199
L92381 77199
" />
<path d="M92606 77339
L92634 77367
L92606 77395
L92578 77367
L92606 77339
L92606 77395
" />
<path d="M93196 77395
L92859 77395
" />
<path d="M93028 77395
L93028 76805
L92971 76889
L92915 76946
L92859 76974
" />
</g>
<g style="fill:#000000; fill-opacity:0.0; 
stroke:#000000; stroke-width:39.3701; stroke-opacity:1; 
stroke-linecap:round; stroke-linejoin:round;">
</g>
<g style="fill:#000000; fill-opacity:0.0; 
stroke:#000000; stroke-width:59.0551; stroke-opacity:1; 
stroke-linecap:round; stroke-linejoin:round;">
<path d="M69685 75396
L112205 75396
" />
</g>
<g style="fill:#000000; fill-opacity:0.0; 
stroke:#000000; stroke-width:39.3701; stroke-opacity:1; 
stroke-linecap:round; stroke-linejoin:round;">
</g>
<g style="fill:#000000; fill-opacity:0.0; 
stroke:#000000; stroke-width:118.11; stroke-opacity:1; 
stroke-linecap:round; stroke-linejoin:round;">
<text x="103544" y="76321.7"
textLength="2336.9" font-size="787.402" lengthAdjust="spacingAndGlyphs"
text-anchor="start" opacity="0">Rev: </text>
<path d="M104099 76293
L103902 76012
" />
<path d="M103761 76293
L103761 75703
L103986 75703
L104042 75731
L104070 75759
L104099 75815
L104099 75899
L104070 75956
L104042 75984
L103986 76012
L103761 76012
" />
<path d="M104577 76265
L104520 76293
L104408 76293
L104352 76265
L104323 76209
L104323 75984
L104352 75928
L104408 75899
L104520 75899
L104577 75928
L104605 75984
L104605 76040
L104323 76096
" />
<path d="M104802 75899
L104942 76293
L105083 75899
" />
<path d="M105308 76237
L105336 76265
L105308 76293
L105280 76265
L105308 76237
L105308 76293
" />
<path d="M105308 75928
L105336 75956
L105308 75984
L105280 75956
L105308 75928
L105308 75984
" />
</g>
<g style="fill:#000000; fill-opacity:0.0; 
stroke:#000000; stroke-width:39.3701; stroke-opacity:1; 
stroke-linecap:round; stroke-linejoin:round;">
</g>
<g style="fill:#000000; fill-opacity:0.0; 
stroke:#000000; stroke-width:59.0551; stroke-opacity:1; 
stroke-linecap:round; stroke-linejoin:round;">
<text x="70079.6" y="76321.7"
textLength="3781.21" font-size="787.402" lengthAdjust="spacingAndGlyphs"
text-anchor="start" opacity="0">Size: A4</text>
<path d="M70221 76265
L70305 76293
L70446 76293
L70502 76265
L70530 76237
L70559 76181
L70559 76124
L70530 76068
L70502 76040
L70446 76012
L70334 75984
L70277 75956
L70249 75928
L70221 75871
L70221 75815
L70249 75759
L70277 75731
L70334 75703
L70474 75703
L70559 75731
" />
<path d="M70812 76293
L70812 75899
" />
<path d="M70812 75703
L70784 75731
L70812 75759
L70840 75731
L70812 75703
L70812 75759
" />
<path d="M71037 75899
L71346 75899
L71037 76293
L71346 76293
" />
<path d="M71796 76265
L71740 76293
L71627 76293
L71571 76265
L71543 76209
L71543 75984
L71571 75928
L71627 75899
L71740 75899
L71796 75928
L71824 75984
L71824 76040
L71543 76096
" />
<path d="M72077 76237
L72105 76265
L72077 76293
L72049 76265
L72077 76237
L72077 76293
" />
<path d="M72077 75928
L72105 75956
L72077 75984
L72049 75956
L72077 75928
L72077 75984
" />
<path d="M72780 76124
L73061 76124
" />
<path d="M72724 76293
L72921 75703
L73118 76293
" />
<path d="M73568 75899
L73568 76293
" />
<path d="M73427 75674
L73286 76096
L73652 76096
" />
</g>
<g style="fill:#000000; fill-opacity:0.0; 
stroke:#000000; stroke-width:39.3701; stroke-opacity:1; 
stroke-linecap:round; stroke-linejoin:round;">
</g>
<g style="fill:#000000; fill-opacity:0.0; 
stroke:#000000; stroke-width:59.0551; stroke-opacity:1; 
stroke-linecap:round; stroke-linejoin:round;">
<text x="103544" y="77424.1"
textLength="3349.27" font-size="787.402" lengthAdjust="spacingAndGlyphs"
text-anchor="start" opacity="0">Id: 1/1</text>
<path d="M103714 77395
L103714 76805
" />
<path d="M104248 77395
L104248 76805
" />
<path d="M104248 77367
L104192 77395
L104079 77395
L104023 77367
L103995 77339
L103967 77283
L103967 77114
L103995 77058
L104023 77030
L104079 77002
L104192 77002
L104248 77030
" />
<path d="M104529 77339
L104557 77367
L104529 77395
L104501 77367
L104529 77339
L104529 77395
" />
<path d="M104529 77030
L104557 77058
L104529 77086
L104501 77058
L104529 77030
L104529 77086
" />
<path d="M105570 77395
L105232 77395
" />
<path d="M105401 77395
L105401 76805
L105345 76889
L105289 76946
L105232 76974
" />
<path d="M106245 76777
L105739 77536
" />
<path d="M106751 77395
L106413 77395
" />
<path d="M106582 77395
L106582 76805
L106526 76889
L106470 76946
L106413 76974
" />
</g>
<g style="fill:#000000; fill-opacity:0.0; 
stroke:#000000; stroke-width:39.3701; stroke-opacity:1; 
stroke-linecap:round; stroke-linejoin:round;">
</g>
<g style="fill:#000000; fill-opacity:0.0; 
stroke:#000000; stroke-width:59.0551; stroke-opacity:1; 
stroke-linecap:round; stroke-linejoin:round;">
<path d="M69685 73821
L112205 73821
" />
</g>
<g style="fill:#000000; fill-opacity:0.0; 
stroke:#000000; stroke-width:39.3701; stroke-opacity:1; 
stroke-linecap:round; stroke-linejoin:round;">
</g>
<g style="fill:#000000; fill-opacity:0.0; 
stroke:#000000; stroke-width:157.48; stroke-opacity:1; 
stroke-linecap:round; stroke-linejoin:round;">
<text x="70079.6" y="74924.1"
textLength="3701.14" font-size="1049.87" lengthAdjust="spacingAndGlyphs"
text-anchor="start" opacity="0">Title: </text>
<path d="M70360 74099
L70810 74099
" />
<path d="M70486 74886
L70585 74099
" />
<path d="M70974 74886
L71039 74361
" />
<path d="M71072 74099
L71030 74136
L71063 74174
L71105 74136
L71072 74099
L71063 74174
" />
<path d="M71302 74361
L71602 74361
" />
<path d="M71447 74099
L71363 74774
L71391 74849
L71461 74886
L71536 74886
" />
<path d="M71911 74886
L71841 74849
L71813 74774
L71897 74099
" />
<path d="M72516 74849
L72436 74886
L72286 74886
L72216 74849
L72187 74774
L72225 74474
L72272 74399
L72352 74361
L72501 74361
L72572 74399
L72600 74474
L72591 74549
L72206 74624
" />
<path d="M72895 74811
L72928 74849
L72886 74886
L72853 74849
L72895 74811
L72886 74886
" />
<path d="M72947 74399
L72980 74436
L72937 74474
L72905 74436
L72947 74399
L72937 74474
" />
</g>
<g style="fill:#000000; fill-opacity:0.0; 
stroke:#000000; stroke-width:39.3701; stroke-opacity:1; 
stroke-linecap:round; stroke-linejoin:round;">
</g>
<g style="fill:#000000; fill-opacity:0.0; 
stroke:#000000; stroke-width:59.0551; stroke-opacity:1; 
stroke-linecap:round; stroke-linejoin:round;">
<text x="70079.6" y="73408.3"
textLength="12578.2" font-size="787.402" lengthAdjust="spacingAndGlyphs"
text-anchor="start" opacity="0">File: e-p-wifi-lf.kicad_pcb</text>
<path d="M70446 73070
L70249 73070
" />
<path d="M70249 73380
L70249 72789
L70530 72789
" />
<path d="M70755 73380
L70755 72986
" />
<path d="M70755 72789
L70727 72817
L70755 72845
L70784 72817
L70755 72789
L70755 72845
" />
<path d="M71121 73380
L71065 73352
L71037 73295
L71037 72789
" />
<path d="M71571 73352
L71515 73380
L71402 73380
L71346 73352
L71318 73295
L71318 73070
L71346 73014
L71402 72986
L71515 72986
L71571 73014
L71599 73070
L71599 73127
L71318 73183
" />
<path d="M71852 73323
L71880 73352
L71852 73380
L71824 73352
L71852 73323
L71852 73380
" />
<path d="M71852 73014
L71880 73042
L71852 73070
L71824 73042
L71852 73014
L71852 73070
" />
<path d="M72808 73352
L72752 73380
L72640 73380
L72583 73352
L72555 73295
L72555 73070
L72583 73014
L72640 72986
L72752 72986
L72808 73014
L72836 73070
L72836 73127
L72555 73183
" />
<path d="M73090 73155
L73539 73155
" />
<path d="M73821 72986
L73821 73577
" />
<path d="M73821 73014
L73877 72986
L73989 72986
L74046 73014
L74074 73042
L74102 73099
L74102 73267
L74074 73323
L74046 73352
L73989 73380
L73877 73380
L73821 73352
" />
<path d="M74355 73155
L74805 73155
" />
<path d="M75030 72986
L75142 73380
L75255 73099
L75367 73380
L75480 72986
" />
<path d="M75705 73380
L75705 72986
" />
<path d="M75705 72789
L75677 72817
L75705 72845
L75733 72817
L75705 72789
L75705 72845
" />
<path d="M75902 72986
L76127 72986
" />
<path d="M75986 73380
L75986 72874
L76014 72817
L76070 72789
L76127 72789
" />
<path d="M76323 73380
L76323 72986
" />
<path d="M76323 72789
L76295 72817
L76323 72845
L76352 72817
L76323 72789
L76323 72845
" />
<path d="M76605 73155
L77055 73155
" />
<path d="M77420 73380
L77364 73352
L77336 73295
L77336 72789
" />
<path d="M77561 72986
L77786 72986
" />
<path d="M77645 73380
L77645 72874
L77673 72817
L77730 72789
L77786 72789
" />
<path d="M77983 73323
L78011 73352
L77983 73380
L77955 73352
L77983 73323
L77983 73380
" />
<path d="M78264 73380
L78264 72789
" />
<path d="M78320 73155
L78489 73380
" />
<path d="M78489 72986
L78264 73211
" />
<path d="M78742 73380
L78742 72986
" />
<path d="M78742 72789
L78714 72817
L78742 72845
L78770 72817
L78742 72789
L78742 72845
" />
<path d="M79276 73352
L79220 73380
L79108 73380
L79051 73352
L79023 73323
L78995 73267
L78995 73099
L79023 73042
L79051 73014
L79108 72986
L79220 72986
L79276 73014
" />
<path d="M79782 73380
L79782 73070
L79754 73014
L79698 72986
L79586 72986
L79529 73014
" />
<path d="M79782 73352
L79726 73380
L79586 73380
L79529 73352
L79501 73295
L79501 73239
L79529 73183
L79586 73155
L79726 73155
L79782 73127
" />
<path d="M80317 73380
L80317 72789
" />
<path d="M80317 73352
L80260 73380
L80148 73380
L80092 73352
L80064 73323
L80036 73267
L80036 73099
L80064 73042
L80092 73014
L80148 72986
L80260 72986
L80317 73014
" />
<path d="M80457 73436
L80907 73436
" />
<path d="M81048 72986
L81048 73577
" />
<path d="M81048 73014
L81104 72986
L81217 72986
L81273 73014
L81301 73042
L81329 73099
L81329 73267
L81301 73323
L81273 73352
L81217 73380
L81104 73380
L81048 73352
" />
<path d="M81835 73352
L81779 73380
L81667 73380
L81610 73352
L81582 73323
L81554 73267
L81554 73099
L81582 73042
L81610 73014
L81667 72986
L81779 72986
L81835 73014
" />
<path d="M82088 73380
L82088 72789
" />
<path d="M82088 73014
L82145 72986
L82257 72986
L82313 73014
L82341 73042
L82370 73099
L82370 73267
L82341 73323
L82313 73352
L82257 73380
L82145 73380
L82088 73352
" />
</g>
<g style="fill:#000000; fill-opacity:0.0; 
stroke:#000000; stroke-width:39.3701; stroke-opacity:1; 
stroke-linecap:round; stroke-linejoin:round;">
</g>
<g style="fill:#000000; fill-opacity:0.0; 
stroke:#000000; stroke-width:59.0551; stroke-opacity:1; 
stroke-linecap:round; stroke-linejoin:round;">
<path d="M69685 71459
L112205 71459
" />
</g>
<g style="fill:#000000; fill-opacity:0.0; 
stroke:#000000; stroke-width:39.3701; stroke-opacity:1; 
stroke-linecap:round; stroke-linejoin:round;">
</g>
<g style="fill:#000000; fill-opacity:0.0; 
stroke:#000000; stroke-width:59.0551; stroke-opacity:1; 
stroke-linecap:round; stroke-linejoin:round;">
<text x="70079.6" y="72345.4"
textLength="3236.78" font-size="787.402" lengthAdjust="spacingAndGlyphs"
text-anchor="start" opacity="0">Sheet: </text>
<path d="M70221 72289
L70305 72317
L70446 72317
L70502 72289
L70530 72260
L70559 72204
L70559 72148
L70530 72092
L70502 72064
L70446 72036
L70334 72007
L70277 71979
L70249 71951
L70221 71895
L70221 71839
L70249 71782
L70277 71754
L70334 71726
L70474 71726
L70559 71754
" />
<path d="M70812 72317
L70812 71726
" />
<path d="M71065 72317
L71065 72007
L71037 71951
L70980 71923
L70896 71923
L70840 71951
L70812 71979
" />
<path d="M71571 72289
L71515 72317
L71402 72317
L71346 72289
L71318 72232
L71318 72007
L71346 71951
L71402 71923
L71515 71923
L71571 71951
L71599 72007
L71599 72064
L71318 72120
" />
<path d="M72077 72289
L72021 72317
L71908 72317
L71852 72289
L71824 72232
L71824 72007
L71852 71951
L71908 71923
L72021 71923
L72077 71951
L72105 72007
L72105 72064
L71824 72120
" />
<path d="M72274 71923
L72499 71923
" />
<path d="M72358 71726
L72358 72232
L72386 72289
L72443 72317
L72499 72317
" />
<path d="M72696 72260
L72724 72289
L72696 72317
L72668 72289
L72696 72260
L72696 72317
" />
<path d="M72696 71951
L72724 71979
L72696 72007
L72668 71979
L72696 71951
L72696 72007
" />
</g>
<g style="fill:#000000; fill-opacity:0.0; 
stroke:#000000; stroke-width:39.3701; stroke-opacity:1; 
stroke-linecap:round; stroke-linejoin:round;">
</g>
<g style="fill:#000000; fill-opacity:0.0; 
stroke:#000000; stroke-width:59.0551; stroke-opacity:1; 
stroke-linecap:round; stroke-linejoin:round;">
<path d="M77559 75396
L77559 76577
" />
</g>
<g style="fill:#000000; fill-opacity:0.0; 
stroke:#000000; stroke-width:39.3701; stroke-opacity:1; 
stroke-linecap:round; stroke-linejoin:round;">
</g>
<g style="fill:#000000; fill-opacity:0.0; 
stroke:#000000; stroke-width:59.0551; stroke-opacity:1; 
stroke-linecap:round; stroke-linejoin:round;">
<path d="M102756 75396
L102756 77955
" />
<g >
</g>
<g style="fill:#000000; fill-opacity:0.0; 
stroke:#000000; stroke-width:0; stroke-opacity:1; 
stroke-linecap:round; stroke-linejoin:round;">
</g>
<g style="fill:#000000; fill-opacity:1.0; 
stroke:#000000; stroke-width:0; stroke-opacity:1; 
stroke-linecap:round; stroke-linejoin:round;">
<path style="fill:#000000; fill-opacity:1.0; 
stroke:#000000; stroke-width:0; stroke-opacity:1; 
stroke-linecap:round; stroke-linejoin:round;fill-rule:evenodd;"
d="M 32965.4,51084.6
32965.4,50415.4
33634.6,50415.4
33634.6,51084.6
Z" /> 
<path style="fill:#000000; fill-opacity:1.0; 
stroke:#000000; stroke-width:0; stroke-opacity:1; 
stroke-linecap:round; stroke-linejoin:round;fill-rule:evenodd;"
d="M 32965.4,45084.6
32965.4,44415.4
33634.6,44415.4
33634.6,45084.6
Z" /> 
<circle cx="31000" cy="46000" r="295.276" /> 
</g>
<g style="fill:#000000; fill-opacity:1.0; 
stroke:#000000; stroke-width:39.3701; stroke-opacity:1; 
stroke-linecap:round; stroke-linejoin:round;">
</g>
<g style="fill:#000000; fill-opacity:1.0; 
stroke:#000000; stroke-width:0; stroke-opacity:1; 
stroke-linecap:round; stroke-linejoin:round;">
<circle cx="32000" cy="46500" r="295.276" /> 
</g>
<g style="fill:#000000; fill-opacity:1.0; 
stroke:#000000; stroke-width:39.3701; stroke-opacity:1; 
stroke-linecap:round; stroke-linejoin:round;">
</g>
<g style="fill:#000000; fill-opacity:1.0; 
stroke:#000000; stroke-width:0; stroke-opacity:1; 
stroke-linecap:round; stroke-linejoin:round;">
<circle cx="31000" cy="47000" r="295.276" /> 
</g>
<g style="fill:#000000; fill-opacity:1.0; 
stroke:#000000; stroke-width:39.3701; stroke-opacity:1; 
stroke-linecap:round; stroke-linejoin:round;">
</g>
<g style="fill:#000000; fill-opacity:1.0; 
stroke:#000000; stroke-width:0; stroke-opacity:1; 
stroke-linecap:round; stroke-linejoin:round;">
<circle cx="32000" cy="47500" r="295.276" /> 
</g>
<g style="fill:#000000; fill-opacity:1.0; 
stroke:#000000; stroke-width:39.3701; stroke-opacity:1; 
stroke-linecap:round; stroke-linejoin:round;">
</g>
<g style="fill:#000000; fill-opacity:1.0; 
stroke:#000000; stroke-width:0; stroke-opacity:1; 
stroke-linecap:round; stroke-linejoin:round;">
<circle cx="31000" cy="48000" r="295.276" /> 
</g>
<g style="fill:#000000; fill-opacity:1.0; 
stroke:#000000; stroke-width:39.3701; stroke-opacity:1; 
stroke-linecap:round; stroke-linejoin:round;">
</g>
<g style="fill:#000000; fill-opacity:1.0; 
stroke:#000000; stroke-width:0; stroke-opacity:1; 
stroke-linecap:round; stroke-linejoin:round;">
<circle cx="32000" cy="48500" r="295.276" /> 
</g>
<g style="fill:#000000; fill-opacity:1.0; 
stroke:#000000; stroke-width:39.3701; stroke-opacity:1; 
stroke-linecap:round; stroke-linejoin:round;">
</g>
<g style="fill:#000000; fill-opacity:1.0; 
stroke:#000000; stroke-width:0; stroke-opacity:1; 
stroke-linecap:round; stroke-linejoin:round;">
<circle cx="31000" cy="49000" r="295.276" /> 
</g>
<g style="fill:#000000; fill-opacity:1.0; 
stroke:#000000; stroke-width:39.3701; stroke-opacity:1; 
stroke-linecap:round; stroke-linejoin:round;">
</g>
<g style="fill:#000000; fill-opacity:1.0; 
stroke:#000000; stroke-width:0; stroke-opacity:1; 
stroke-linecap:round; stroke-linejoin:round;">
<path style="fill:#000000; fill-opacity:1.0; 
stroke:#000000; stroke-width:0; stroke-opacity:1; 
stroke-linecap:round; stroke-linejoin:round;fill-rule:evenodd;"
d="M 32295.3,49795.3
31704.7,49795.3
31704.7,49204.7
32295.3,49204.7
Z" /> 
<circle cx="34500" cy="50000" r="629.921" /> 
</g>
<g style="fill:#000000; fill-opacity:1.0; 
stroke:#000000; stroke-width:39.3701; stroke-opacity:1; 
stroke-linecap:round; stroke-linejoin:round;">
</g>
<g style="fill:#000000; fill-opacity:1.0; 
stroke:#000000; stroke-width:0; stroke-opacity:1; 
stroke-linecap:round; stroke-linejoin:round;">
<circle cx="34500" cy="45500" r="629.921" /> 
</g>
<g style="fill:#000000; fill-opacity:1.0; 
stroke:#000000; stroke-width:39.3701; stroke-opacity:1; 
stroke-linecap:round; stroke-linejoin:round;">
</g>
<g >
</g>
<g style="fill:#000000; fill-opacity:1.0; 
stroke:#000000; stroke-width:39.3701; stroke-opacity:1; 
stroke-linecap:round; stroke-linejoin:round;">
</g>
<g style="fill:#000000; fill-opacity:1.0; 
stroke:#000000; stroke-width:0; stroke-opacity:1; 
stroke-linecap:round; stroke-linejoin:round;">
<path style="fill:#000000; fill-opacity:1.0; 
stroke:#000000; stroke-width:0; stroke-opacity:1; 
stroke-linecap:round; stroke-linejoin:round;fill-rule:evenodd;"
d="M 28665.4,43665.4
29334.6,43665.4
29334.6,44334.6
28665.4,44334.6
Z" /> 
</g>
<g style="fill:#000000; fill-opacity:1.0; 
stroke:#000000; stroke-width:669.291; stroke-opacity:1; 
stroke-linecap:round; stroke-linejoin:round;">
</g>
<g style="fill:#000000; fill-opacity:0.0; 
stroke:#000000; stroke-width:669.291; stroke-opacity:1; 
stroke-linecap:round; stroke-linejoin:round;">
<path d="M25000 44000
L25000 44000
" />
<path d="M22000 44000
L22000 44000
" />
<path d="M28000 44000
L28000 44000
" />
<path d="M23000 44000
L23000 44000
" />
<path d="M24000 44000
L24000 44000
" />
<path d="M27000 44000
L27000 44000
" />
<path d="M26000 44000
L26000 44000
" />
<path d="M22000 52000
L22000 52000
" />
<path d="M23000 52000
L23000 52000
" />
<path d="M24000 52000
L24000 52000
" />
<path d="M25000 52000
L25000 52000
" />
<path d="M26000 52000
L26000 52000
" />
<path d="M27000 52000
L27000 52000
" />
<path d="M28000 52000
L28000 52000
" />
</g>
<g style="fill:#000000; fill-opacity:0.0; 
stroke:#000000; stroke-width:0; stroke-opacity:1; 
stroke-linecap:round; stroke-linejoin:round;">
</g>
<g style="fill:#000000; fill-opacity:1.0; 
stroke:#000000; stroke-width:0; stroke-opacity:1; 
stroke-linecap:round; stroke-linejoin:round;">
<path style="fill:#000000; fill-opacity:1.0; 
stroke:#000000; stroke-width:0; stroke-opacity:1; 
stroke-linecap:round; stroke-linejoin:round;fill-rule:evenodd;"
d="M 28665.4,51665.4
29334.6,51665.4
29334.6,52334.6
28665.4,52334.6
Z" /> 
</g>
<g >
</g>
<g style="fill:#000000; fill-opacity:1.0; 
stroke:#000000; stroke-width:0; stroke-opacity:1; 
stroke-linecap:round; stroke-linejoin:round;">
<path style="fill:#000000; fill-opacity:1.0; 
stroke:#000000; stroke-width:0; stroke-opacity:1; 
stroke-linecap:round; stroke-linejoin:round;fill-rule:evenodd;"
d="M 17165.4,50834.6
17165.4,50165.4
17834.6,50165.4
17834.6,50834.6
Z" /> 
</g>
<g >
</g>
<g style="fill:#000000; fill-opacity:1.0; 
stroke:#000000; stroke-width:0; stroke-opacity:1; 
stroke-linecap:round; stroke-linejoin:round;">
<circle cx="20579.5" cy="46900" r="492.126" /> 
</g>
<g style="fill:#000000; fill-opacity:1.0; 
stroke:#000000; stroke-width:39.3701; stroke-opacity:1; 
stroke-linecap:round; stroke-linejoin:round;">
</g>
<g style="fill:#000000; fill-opacity:1.0; 
stroke:#000000; stroke-width:0; stroke-opacity:1; 
stroke-linecap:round; stroke-linejoin:round;">
<circle cx="18020.5" cy="46900" r="492.126" /> 
</g>
<g style="fill:#000000; fill-opacity:1.0; 
stroke:#000000; stroke-width:39.3701; stroke-opacity:1; 
stroke-linecap:round; stroke-linejoin:round;">
</g>
<g >
</g>
<g style="fill:#000000; fill-opacity:1.0; 
stroke:#000000; stroke-width:39.3701; stroke-opacity:1; 
stroke-linecap:round; stroke-linejoin:round;">
</g>
<g style="fill:#000000; fill-opacity:1.0; 
stroke:#000000; stroke-width:472.441; stroke-opacity:1; 
stroke-linecap:round; stroke-linejoin:round;">
</g>
<g style="fill:#000000; fill-opacity:0.0; 
stroke:#000000; stroke-width:472.441; stroke-opacity:1; 
stroke-linecap:round; stroke-linejoin:round;">
<path d="M24421 47700
L24578 47700
" />
<path d="M25000 48200
L25000 48200
" />
<path d="M25500 47700
L25500 47700
" />
</g>
<g >
</g>
<g style="fill:#000000; fill-opacity:0.0; 
stroke:#000000; stroke-width:472.441; stroke-opacity:1; 
stroke-linecap:round; stroke-linejoin:round;">
</g>
<g style="fill:#000000; fill-opacity:1.0; 
stroke:#000000; stroke-width:0; stroke-opacity:1; 
stroke-linecap:round; stroke-linejoin:round;">
<circle cx="20900" cy="50500" r="275.591" /> 
</g>
<g style="fill:#000000; fill-opacity:1.0; 
stroke:#000000; stroke-width:39.3701; stroke-opacity:1; 
stroke-linecap:round; stroke-linejoin:round;">
</g>
<g style="fill:#000000; fill-opacity:1.0; 
stroke:#000000; stroke-width:551.181; stroke-opacity:1; 
stroke-linecap:round; stroke-linejoin:round;">
</g>
<g style="fill:#000000; fill-opacity:0.0; 
stroke:#000000; stroke-width:551.181; stroke-opacity:1; 
stroke-linecap:round; stroke-linejoin:round;">
<path d="M18900 50500
L18900 50500
" />
</g>
<g >
</g>
<g style="fill:#000000; fill-opacity:0.0; 
stroke:#000000; stroke-width:551.181; stroke-opacity:1; 
stroke-linecap:round; stroke-linejoin:round;">
<path d="M27000 50400
L27000 50400
" />
</g>
<g style="fill:#000000; fill-opacity:1.0; 
stroke:#000000; stroke-width:0; stroke-opacity:1; 
stroke-linecap:round; stroke-linejoin:round;">
<circle cx="25000" cy="50400" r="275.591" /> 
</g>
<g style="fill:#000000; fill-opacity:1.0; 
stroke:#000000; stroke-width:39.3701; stroke-opacity:1; 
stroke-linecap:round; stroke-linejoin:round;">
</g>
<g >
</g>
<g >
</g>
<g style="fill:#000000; fill-opacity:1.0; 
stroke:#000000; stroke-width:39.3701; stroke-opacity:1; 
stroke-linecap:round; stroke-linejoin:round;">
</g>
<g style="fill:#000000; fill-opacity:1.0; 
stroke:#000000; stroke-width:196.85; stroke-opacity:1; 
stroke-linecap:round; stroke-linejoin:round;">
</g>
<g style="fill:#000000; fill-opacity:0.0; 
stroke:#000000; stroke-width:196.85; stroke-opacity:1; 
stroke-linecap:round; stroke-linejoin:round;">
<path d="M17500 50500
L18900 50500
" />
<path d="M31000 49000
L30500 49000
" />
<path d="M30500 49000
L30000 49500
" />
<path d="M30000 49500
L30000 50000
" />
<path d="M30000 50000
L29600 50400
" />
<path d="M29600 50400
L27000 50400
" />
<path d="M27000 50400
L27000 52000
" />
</g>
<g style="fill:#000000; fill-opacity:0.0; 
stroke:#000000; stroke-width:98.4252; stroke-opacity:1; 
stroke-linecap:round; stroke-linejoin:round;">
<path d="M26000 52000
L26000 52300
" />
</g>
<g style="fill:#000000; fill-opacity:0.0; 
stroke:#000000; stroke-width:196.85; stroke-opacity:1; 
stroke-linecap:round; stroke-linejoin:round;">
<path d="M33300 44550
L33300 47200
" />
<path d="M33300 47200
L32000 48500
" />
<path d="M32000 48500
L32000 49500
" />
<path d="M32000 49500
L32600 49500
" />
<path d="M32600 49500
L33300 50200
" />
<path d="M33300 50200
L33300 50900
" />
<path d="M33300 50950
L32750 50950
" />
<path d="M32750 50950
L31188 52511
" />
<path d="M31188 52511
L31100 52600
" />
<path d="M31100 52600
L26500 52600
" />
<path d="M26500 52600
L26000 52100
" />
<path d="M26500 52600
L17400 52600
" />
<path d="M17400 52600
L16500 51700
" />
<path d="M16500 51700
L16500 45300
" />
<path d="M16500 45300
L17700 44100
" />
<path d="M17700 44100
L19800 44100
" />
<path d="M19800 44100
L20600 44900
" />
<path d="M20600 44900
L20600 46900
" />
<path d="M30300 48000
L31000 48000
" />
<path d="M28800 49500
L30300 48000
" />
<path d="M25600 50100
L26200 49500
" />
<path d="M25000 52000
L25600 51400
" />
<path d="M26200 49500
L28800 49500
" />
<path d="M25600 51400
L25600 50100
" />
<path d="M31000 46000
L30400 45400
" />
<path d="M30400 45400
L23300 45400
" />
<path d="M23000 45100
L23300 45400
" />
<path d="M23000 44000
L23000 45100
" />
<path d="M22000 44000
L22000 45000
" />
<path d="M22000 45000
L22000 45200
" />
<path d="M22000 45200
L22600 45800
" />
<path d="M22600 45800
L28900 45800
" />
<path d="M28900 45800
L30100 47000
" />
<path d="M30100 47000
L31000 47000
" />
<path d="M32000 46500
L32000 45400
" />
<path d="M32000 45400
L31400 44800
" />
<path d="M31400 44800
L25700 44800
" />
<path d="M25700 44800
L25400 44800
" />
<path d="M25400 44800
L25400 44400
" />
<path d="M25400 44400
L25100 44100
" />
<path d="M32000 47500
L31600 47900
" />
<path d="M31472 48027
L31472 49727
" />
<path d="M31600 47900
L31472 48027
" />
<path d="M31472 49727
L29200 52000
" />
<path d="M29200 52000
L29000 52000
" />
<path d="M25500 47700
L25500 46600
" />
<path d="M25500 46600
L25500 46500
" />
<path d="M25500 46500
L25200 46200
" />
<path d="M25200 46200
L23400 46200
" />
<path d="M23400 46200
L21500 48100
" />
<path d="M21500 48100
L19200 48100
" />
<path d="M19200 48100
L18100 47000
" />
<path d="M22500 47700
L24500 47700
" />
<path d="M22500 50400
L21500 51400
" />
<path d="M25000 50400
L22500 50400
" />
<path d="M20100 51300
L20100 50100
" />
<path d="M21500 51400
L20200 51400
" />
<path d="M20200 51400
L20100 51300
" />
<path d="M20100 50100
L22500 47700
" />
<path d="M20900 50500
L21800 50500
" />
<path d="M25000 48200
L25000 48900
" />
<path d="M24850 49050
L23250 49050
" />
<path d="M25000 48900
L24850 49050
" />
<path d="M21800 50500
L23250 49050
" />
</g>
<g >
</g>
<g style="fill:#000000; fill-opacity:0.0; 
stroke:#000000; stroke-width:196.85; stroke-opacity:1; 
stroke-linecap:round; stroke-linejoin:round;">
</g>
<g style="fill:#000000; fill-opacity:1.0; 
stroke:#000000; stroke-width:100; stroke-opacity:1; 
stroke-linecap:round; stroke-linejoin:round;">
<path style="fill:#000000; fill-opacity:1.0; 
stroke:#000000; stroke-width:100; stroke-opacity:1; 
stroke-linecap:round; stroke-linejoin:round;fill-rule:evenodd;"
d="M 37240.2,52740.2
16259.8,52740.2
16259.8,50165.4
16914.1,50165.4
16914.1,50834.6
16919,50883.7
16933.3,50930.8
16956.5,50974.2
16987.7,51012.3
17025.8,51043.5
17069.2,51066.7
17116.3,51081
17165.4,51085.9
17834.6,51085.9
17883.7,51081
17930.8,51066.7
17974.2,51043.5
18012.3,51012.3
18043.5,50974.2
18066.7,50930.8
18081,50883.7
18084.5,50848.4
18505.1,50848.4
18565,50908.3
18651,50965.8
18746.7,51005.4
18848.2,51025.6
18951.8,51025.6
19053.3,51005.4
19149,50965.8
19235,50908.3
19308.3,50835
19365.8,50749
19405.4,50653.3
19425.6,50551.8
19425.6,50448.2
19405.4,50346.7
19365.8,50251
19308.3,50165
19235,50091.7
19149,50034.2
19053.3,49994.6
18951.8,49974.4
18848.2,49974.4
18746.7,49994.6
18651,50034.2
18565,50091.7
18505.1,50151.6
18084.5,50151.6
18081,50116.3
18066.7,50069.2
18043.5,50025.8
18012.3,49987.7
17974.2,49956.5
17930.8,49933.3
17883.7,49919
17834.6,49914.1
17165.4,49914.1
17116.3,49919
17069.2,49933.3
17025.8,49956.5
16987.7,49987.7
16956.5,50025.8
16933.3,50069.2
16919,50116.3
16914.1,50165.4
16259.8,50165.4
16259.8,46826.9
17278.3,46826.9
17278.3,46973.1
17306.9,47116.5
17362.8,47251.5
17444,47373.1
17547.4,47476.4
17668.9,47557.7
17804,47613.6
17947.4,47642.1
18093.6,47642.1
18223.5,47616.3
18941.5,48334.3
18952.4,48347.6
18965.7,48358.5
18965.7,48358.5
19005.5,48391.1
19066,48423.5
19131.7,48443.4
19182.9,48448.4
19182.9,48448.4
19200,48450.1
19217.1,48448.4
21258.8,48448.4
19865.7,49841.5
19852.4,49852.4
19841.5,49865.7
19841.5,49865.7
19808.9,49905.5
19776.5,49966
19756.6,50031.7
19749.9,50100
19751.6,50117.1
19751.6,51282.9
19749.9,51300
19751.6,51317.1
19751.6,51317.1
19756.6,51368.3
19776.5,51434
19808.9,51494.5
19852.4,51547.6
19865.7,51558.5
19941.5,51634.3
19952.4,51647.6
20005.5,51691.1
20066,51723.5
20131.7,51743.4
20182.9,51748.4
20182.9,51748.4
20200,51750.1
20217.1,51748.4
21471.4,51748.4
21437.8,51829.5
21415.4,51942.4
21415.4,52057.6
21437.8,52170.5
21481.9,52276.9
21545.9,52372.7
21627.3,52454.1
21723.1,52518.1
21829.5,52562.2
21942.4,52584.6
22057.6,52584.6
22170.5,52562.2
22276.9,52518.1
22372.7,52454.1
22454.1,52372.7
22500,52304
22545.9,52372.7
22627.3,52454.1
22723.1,52518.1
22829.5,52562.2
22942.4,52584.6
23057.6,52584.6
23170.5,52562.2
23276.9,52518.1
23372.7,52454.1
23454.1,52372.7
23500,52304
23545.9,52372.7
23627.3,52454.1
23723.1,52518.1
23829.5,52562.2
23942.4,52584.6
24057.6,52584.6
24170.5,52562.2
24276.9,52518.1
24372.7,52454.1
24454.1,52372.7
24500,52304
24545.9,52372.7
24627.3,52454.1
24723.1,52518.1
24829.5,52562.2
24942.4,52584.6
25057.6,52584.6
25170.5,52562.2
25276.9,52518.1
25372.7,52454.1
25454.1,52372.7
25502,52301
25529.5,52347
25606.2,52432.1
25698.1,52500.6
25801.5,52549.9
25859.5,52567.5
25950,52519.7
25950,52050
25942.1,52050
25942.1,51950
25950,51950
25950,51480.3
25941.2,51475.6
25943.4,51468.3
25948.4,51417.1
25948.4,51417.1
25950.1,51400
25948.4,51382.9
25948.4,50244.3
26344.3,49848.4
28782.9,49848.4
28800,49850.1
28817.1,49848.4
28817.1,49848.4
28868.3,49843.4
28934,49823.5
28994.5,49791.1
29047.6,49747.6
29058.5,49734.3
30444.3,48348.4
30577.3,48348.4
30652.4,48423.5
30741.7,48483.2
30782.2,48500
30741.7,48516.8
30652.4,48576.5
30577.3,48651.6
30517.1,48651.6
30500,48649.9
30482.9,48651.6
30482.9,48651.6
30431.7,48656.6
30366,48676.5
30305.5,48708.9
30305.5,48708.9
30305.5,48708.9
30265.7,48741.5
30265.7,48741.5
30252.4,48752.4
30241.5,48765.7
29765.7,49241.5
29752.4,49252.4
29708.9,49305.5
29676.5,49366
29656.6,49431.7
29651.6,49482.9
29651.6,49482.9
29649.9,49500
29651.6,49517.1
29651.6,49855.7
29455.7,50051.6
27394.9,50051.6
27335,49991.7
27249,49934.2
27153.3,49894.6
27051.8,49874.4
26948.2,49874.4
26846.7,49894.6
26751,49934.2
26665,49991.7
26591.7,50065
26534.2,50151
26494.6,50246.7
26474.4,50348.2
26474.4,50451.8
26494.6,50553.3
26534.2,50649
26591.7,50735
26651.6,50794.9
26651.6,51529.7
26627.3,51545.9
26545.9,51627.3
26498,51699
26470.5,51653
26393.8,51567.9
26301.9,51499.4
26198.5,51450.1
26140.5,51432.5
26050,51480.3
26050,51950
26057.9,51950
26057.9,52050
26050,52050
26050,52519.7
26140.5,52567.5
26198.5,52549.9
26301.9,52500.6
26393.8,52432.1
26470.5,52347
26498,52301
26545.9,52372.7
26627.3,52454.1
26723.1,52518.1
26829.5,52562.2
26942.4,52584.6
27057.6,52584.6
27170.5,52562.2
27276.9,52518.1
27372.7,52454.1
27454.1,52372.7
27500,52304
27545.9,52372.7
27627.3,52454.1
27723.1,52518.1
27829.5,52562.2
27942.4,52584.6
28057.6,52584.6
28170.5,52562.2
28276.9,52518.1
28372.7,52454.1
28424.6,52402.2
28433.3,52430.8
28456.5,52474.2
28487.7,52512.3
28525.8,52543.5
28569.2,52566.7
28616.3,52581
28665.4,52585.9
29334.6,52585.9
29383.7,52581
29430.8,52566.7
29474.2,52543.5
29512.3,52512.3
29543.5,52474.2
29566.7,52430.8
29581,52383.7
29585.9,52334.6
29585.9,52106.9
30608.1,51084.6
32714.1,51084.6
32719,51133.7
32733.3,51180.8
32756.5,51224.2
32787.7,51262.3
32825.8,51293.5
32869.2,51316.7
32916.3,51331
32965.4,51335.9
33187.5,51334.6
33250,51272.1
33250,50800
33350,50800
33350,51272.1
33412.5,51334.6
33634.6,51335.9
33683.7,51331
33730.8,51316.7
33774.2,51293.5
33812.3,51262.3
33843.5,51224.2
33866.7,51180.8
33881,51133.7
33885.9,51084.6
33884.6,50862.5
33822.1,50800
33350,50800
33250,50800
32777.9,50800
32715.4,50862.5
32714.1,51084.6
30608.1,51084.6
31277.4,50415.4
32714.1,50415.4
32715.4,50637.5
32777.9,50700
33250,50700
33250,50227.9
33350,50227.9
33350,50700
33822.1,50700
33884.6,50637.5
33884.7,50629.1
33939.1,50683.5
34083.2,50779.8
34243.3,50846.1
34413.3,50879.9
34586.7,50879.9
34756.7,50846.1
34916.8,50779.8
35060.9,50683.5
35183.5,50560.9
35279.8,50416.8
35346.1,50256.7
35379.9,50086.7
35379.9,49913.3
35346.1,49743.3
35279.8,49583.2
35183.5,49439.1
35060.9,49316.5
34916.8,49220.2
34756.7,49153.9
34586.7,49120.1
34413.3,49120.1
34243.3,49153.9
34083.2,49220.2
33939.1,49316.5
33816.5,49439.1
33720.2,49583.2
33653.9,49743.3
33620.1,49913.3
33620.1,50086.7
33635.5,50164.2
33634.6,50164.1
33412.5,50165.4
33350,50227.9
33250,50227.9
33187.5,50165.4
32965.4,50164.1
32916.3,50169
32869.2,50183.3
32825.8,50206.5
32787.7,50237.7
32756.5,50275.8
32733.3,50319.2
32719,50366.3
32714.1,50415.4
31277.4,50415.4
31652.2,50040.6
31655.7,50041.7
31704.7,50046.5
31887.5,50045.3
31950,49982.8
31950,49550
32050,49550
32050,49982.8
32112.5,50045.3
32295.3,50046.5
32344.3,50041.7
32391.4,50027.4
32434.8,50004.1
32472.9,49972.9
32504.1,49934.8
32527.4,49891.4
32541.7,49844.3
32546.5,49795.3
32545.3,49612.5
32482.8,49550
32050,49550
31950,49550
31942.1,49550
31942.1,49450
31950,49450
31950,49442.1
32050,49442.1
32050,49450
32482.8,49450
32545.3,49387.5
32546.5,49204.7
32541.7,49155.7
32527.4,49108.6
32504.1,49065.2
32472.9,49027.1
32434.8,48995.9
32391.4,48972.6
32344.3,48958.3
32295.3,48953.5
32285,48953.6
32306.1,48876.8
32000,48570.7
31994.4,48576.3
31923.7,48505.6
31929.3,48500
32070.7,48500
32376.8,48806.1
32470.8,48780.3
32516.4,48683
32542.2,48578.8
32547.2,48471.5
32531.1,48365.3
32494.6,48264.2
32470.8,48219.7
32376.8,48193.9
32070.7,48500
31929.3,48500
31923.7,48494.4
31994.4,48423.7
32000,48429.3
32306.1,48123.2
32280.3,48029.2
32217.9,47999.9
32258.3,47983.2
32347.6,47923.5
32423.5,47847.6
32483.2,47758.3
32524.3,47659.1
32545.3,47553.7
32545.3,47446.3
32524.3,47340.9
32483.2,47241.7
32423.5,47152.4
32347.6,47076.5
32258.3,47016.8
32217.8,47000
32258.3,46983.2
32347.6,46923.5
32423.5,46847.6
32483.2,46758.3
32524.3,46659.1
32545.3,46553.7
32545.3,46446.3
32524.3,46340.9
32483.2,46241.7
32423.5,46152.4
32348.4,46077.3
32348.4,45417.1
32350.1,45400
32348.4,45382.9
32348.4,45382.9
32343.4,45331.7
32323.5,45266
32291.1,45205.5
32270.8,45180.8
32258.5,45165.7
32258.5,45165.7
32247.6,45152.4
32234.3,45141.5
32177.4,45084.6
32714.1,45084.6
32719,45133.7
32733.3,45180.8
32756.5,45224.2
32787.7,45262.3
32825.8,45293.5
32869.2,45316.7
32916.3,45331
32965.4,45335.9
33187.5,45334.6
33250,45272.1
33250,44800
33350,44800
33350,45272.1
33412.5,45334.6
33634.6,45335.9
33635.5,45335.8
33620.1,45413.3
33620.1,45586.7
33653.9,45756.7
33720.2,45916.8
33816.5,46060.9
33939.1,46183.5
34083.2,46279.8
34243.3,46346.1
34413.3,46379.9
34586.7,46379.9
34756.7,46346.1
34916.8,46279.8
35060.9,46183.5
35183.5,46060.9
35279.8,45916.8
35346.1,45756.7
35379.9,45586.7
35379.9,45413.3
35346.1,45243.3
35279.8,45083.2
35183.5,44939.1
35060.9,44816.5
34916.8,44720.2
34756.7,44653.9
34586.7,44620.1
34413.3,44620.1
34243.3,44653.9
34083.2,44720.2
33939.1,44816.5
33884.7,44870.9
33884.6,44862.5
33822.1,44800
33350,44800
33250,44800
32777.9,44800
32715.4,44862.5
32714.1,45084.6
32177.4,45084.6
31658.5,44565.7
31647.6,44552.4
31594.5,44508.9
31534,44476.5
31468.3,44456.6
31417.1,44451.6
31417.1,44451.6
31400,44449.9
31382.9,44451.6
29555.6,44451.6
29566.7,44430.8
29571.4,44415.4
32714.1,44415.4
32715.4,44637.5
32777.9,44700
33250,44700
33250,44227.9
33350,44227.9
33350,44700
33822.1,44700
33884.6,44637.5
33885.9,44415.4
33881,44366.3
33866.7,44319.2
33843.5,44275.8
33812.3,44237.7
33774.2,44206.5
33730.8,44183.3
33683.7,44169
33634.6,44164.1
33412.5,44165.4
33350,44227.9
33250,44227.9
33187.5,44165.4
32965.4,44164.1
32916.3,44169
32869.2,44183.3
32825.8,44206.5
32787.7,44237.7
32756.5,44275.8
32733.3,44319.2
32719,44366.3
32714.1,44415.4
29571.4,44415.4
29581,44383.7
29585.9,44334.6
29585.9,43665.4
29581,43616.3
29566.7,43569.2
29543.5,43525.8
29512.3,43487.7
29474.2,43456.5
29430.8,43433.3
29383.7,43419
29334.6,43414.1
28665.4,43414.1
28616.3,43419
28569.2,43433.3
28525.8,43456.5
28487.7,43487.7
28456.5,43525.8
28433.3,43569.2
28424.6,43597.8
28372.7,43545.9
28276.9,43481.9
28170.5,43437.8
28057.6,43415.4
27942.4,43415.4
27829.5,43437.8
27723.1,43481.9
27627.3,43545.9
27545.9,43627.3
27500,43696
27454.1,43627.3
27372.7,43545.9
27276.9,43481.9
27170.5,43437.8
27057.6,43415.4
26942.4,43415.4
26829.5,43437.8
26723.1,43481.9
26627.3,43545.9
26545.9,43627.3
26500,43696
26454.1,43627.3
26372.7,43545.9
26276.9,43481.9
26170.5,43437.8
26057.6,43415.4
25942.4,43415.4
25829.5,43437.8
25723.1,43481.9
25627.3,43545.9
25545.9,43627.3
25500,43696
25454.1,43627.3
25372.7,43545.9
25276.9,43481.9
25170.5,43437.8
25057.6,43415.4
24942.4,43415.4
24829.5,43437.8
24723.1,43481.9
24627.3,43545.9
24545.9,43627.3
24500,43696
24454.1,43627.3
24372.7,43545.9
24276.9,43481.9
24170.5,43437.8
24057.6,43415.4
23942.4,43415.4
23829.5,43437.8
23723.1,43481.9
23627.3,43545.9
23545.9,43627.3
23500,43696
23454.1,43627.3
23372.7,43545.9
23276.9,43481.9
23170.5,43437.8
23057.6,43415.4
22942.4,43415.4
22829.5,43437.8
22723.1,43481.9
22627.3,43545.9
22545.9,43627.3
22500,43696
22454.1,43627.3
22372.7,43545.9
22276.9,43481.9
22170.5,43437.8
22057.6,43415.4
21942.4,43415.4
21829.5,43437.8
21723.1,43481.9
21627.3,43545.9
21545.9,43627.3
21481.9,43723.1
21437.8,43829.5
21415.4,43942.4
21415.4,44057.6
21437.8,44170.5
21481.9,44276.9
21545.9,44372.7
21627.3,44454.1
21651.6,44470.3
21651.6,44982.9
21651.6,44982.9
21651.6,45182.9
21649.9,45200
21651.6,45217.1
21651.6,45217.1
21656.6,45268.3
21676.5,45334
21702.7,45382.9
21708.9,45394.5
21741.5,45434.3
21741.5,45434.3
21752.4,45447.6
21765.7,45458.5
22341.5,46034.3
22352.4,46047.6
22365.7,46058.5
22365.7,46058.5
22377.7,46068.3
22405.5,46091.1
22466,46123.5
22531.7,46143.4
22582.9,46148.4
22582.9,46148.4
22600,46150.1
22617.1,46148.4
22958.8,46148.4
21355.7,47751.6
19344.3,47751.6
19009.9,47417.2
20133.1,47417.2
20182.6,47531.3
20313.4,47596.6
20454.5,47635.2
20600.3,47645.4
20745.3,47627.1
20884,47580.7
20976.4,47531.3
21026,47417.2
20579.5,46970.7
20133.1,47417.2
19009.9,47417.2
18726.8,47134.1
18734.1,47116.5
18762.6,46973.1
18762.6,46920.8
19834.1,46920.8
19852.5,47065.8
19898.8,47204.4
19948.2,47296.9
20062.4,47346.5
20508.8,46900
20650.2,46900
21096.7,47346.5
21210.9,47296.9
21276.2,47166.1
21314.7,47025.1
21325,46879.2
21306.6,46734.2
21260.3,46595.6
21210.9,46503.1
21096.7,46453.5
20650.2,46900
20508.8,46900
20062.4,46453.5
19948.2,46503.1
19882.9,46633.9
19844.4,46774.9
19834.1,46920.8
18762.6,46920.8
18762.6,46826.9
18734.1,46683.5
18678.1,46548.5
18596.9,46426.9
18552.8,46382.8
20133.1,46382.8
20579.5,46829.3
21026,46382.8
20976.4,46268.7
20845.6,46203.4
20704.6,46164.8
20558.8,46154.6
20413.8,46172.9
20275.1,46219.3
20182.6,46268.7
20133.1,46382.8
18552.8,46382.8
18493.6,46323.6
18372,46242.3
18236.9,46186.4
18093.6,46157.9
17947.4,46157.9
17804,46186.4
17668.9,46242.3
17547.4,46323.6
17444,46426.9
17362.8,46548.5
17306.9,46683.5
17278.3,46826.9
16259.8,46826.9
16259.8,43259.8
37240.2,43259.8
Z" /> 
</g>
</g> 
</svg>
