<?xml version="1.0" standalone="no"?>
 <!DOCTYPE svg PUBLIC "-//W3C//DTD SVG 1.1//EN" 
 "http://www.w3.org/Graphics/SVG/1.1/DTD/svg11.dtd"> 
<svg
  xmlns:svg="http://www.w3.org/2000/svg"
  xmlns="http://www.w3.org/2000/svg"
  xmlns:xlink="http://www.w3.org/1999/xlink"
  version="1.1"
  width="29.700220cm" height="21.000720cm" viewBox="0 0 116930 82680">
<title>SVG Picture created as e-p-wifi-lf-NPTH-drl_map.svg date 2021/12/14 18:49:53 </title>
  <desc>Picture generated by PCBNEW </desc>
<g style="fill:#000000; fill-opacity:1;stroke:#000000; stroke-opacity:1;
stroke-linecap:round; stroke-linejoin:round;"
 transform="translate(0 0) scale(1 1)">
</g>
<g style="fill:#000000; fill-opacity:0.0; 
stroke:#000000; stroke-width:-0.000393701; stroke-opacity:1; 
stroke-linecap:round; stroke-linejoin:round;">
</g>
<g style="fill:#000000; fill-opacity:0.0; 
stroke:#000000; stroke-width:19.685; stroke-opacity:1; 
stroke-linecap:round; stroke-linejoin:round;">
<path d="M37500 53000
L35000 53000
" />
<path d="M37500 43000
L37500 53000
" />
<path d="M35000 43000
L37500 43000
" />
<path d="M16000 43000
L31000 43000
" />
<path d="M16000 53000
L31000 53000
" />
<path d="M16000 43000
L16000 53000
" />
<path d="M35000 53000
L31000 53000
" />
<path d="M31000 43000
L35000 43000
" />
</g>
<g style="fill:#000000; fill-opacity:0.0; 
stroke:#000000; stroke-width:78.7402; stroke-opacity:1; 
stroke-linecap:round; stroke-linejoin:round;">
</g>
<g style="fill:#000000; fill-opacity:0.0; 
stroke:#000000; stroke-width:118.11; stroke-opacity:1; 
stroke-linecap:round; stroke-linejoin:round;">
<text x="16777.6" y="54899.6"
textLength="8779.53" font-size="1574.8" lengthAdjust="spacingAndGlyphs"
text-anchor="start" opacity="0">Drill Map:</text>
<path d="M17117 54843
L17117 53662
L17399 53662
L17567 53718
L17680 53830
L17736 53943
L17792 54168
L17792 54337
L17736 54562
L17680 54674
L17567 54787
L17399 54843
L17117 54843
" />
<path d="M18298 54843
L18298 54055
" />
<path d="M18298 54280
L18355 54168
L18411 54112
L18523 54055
L18636 54055
" />
<path d="M19030 54843
L19030 54055
" />
<path d="M19030 53662
L18973 53718
L19030 53774
L19086 53718
L19030 53662
L19030 53774
" />
<path d="M19761 54843
L19648 54787
L19592 54674
L19592 53662
" />
<path d="M20379 54843
L20267 54787
L20211 54674
L20211 53662
" />
<path d="M21729 54843
L21729 53662
L22123 54505
L22517 53662
L22517 54843
" />
<path d="M23585 54843
L23585 54224
L23529 54112
L23417 54055
L23192 54055
L23079 54112
" />
<path d="M23585 54787
L23473 54843
L23192 54843
L23079 54787
L23023 54674
L23023 54562
L23079 54449
L23192 54393
L23473 54393
L23585 54337
" />
<path d="M24148 54055
L24148 55237
" />
<path d="M24148 54112
L24260 54055
L24485 54055
L24598 54112
L24654 54168
L24710 54280
L24710 54618
L24654 54730
L24598 54787
L24485 54843
L24260 54843
L24148 54787
" />
<path d="M25216 54730
L25273 54787
L25216 54843
L25160 54787
L25216 54730
L25216 54843
" />
<path d="M25216 54112
L25273 54168
L25216 54224
L25160 54168
L25216 54112
L25216 54224
" />
</g> 
</svg>
