999
dxfrw 0.6.3
  0
SECTION
  2
HEADER
  9
$ACADVER
  1
AC1021
  9
$DWGCODEPAGE
  3
ANSI_1252
  9
$INSBASE
 10
0
 20
0
 30
0
  9
$EXTMIN
 10
-600
 20
-200
 30
0
  9
$EXTMAX
 10
4300
 20
3000
 30
0
  9
$LIMMIN
 10
0
 20
0
  9
$LIMMAX
 10
420
 20
297
  9
$ORTHOMODE
 70
    0
  9
$REGENMODE
 70
    1
  9
$FILLMODE
 70
    1
  9
$QTEXTMODE
 70
    0
  9
$MIRRTEXT
 70
    0
  9
$LTSCALE
 40
1
  9
$ATTMODE
 70
    0
  9
$TEXTSIZE
 40
2.5
  9
$TRACEWID
 40
15.68
  9
$TEXTSTYLE
  7
STANDARD
  9
$CLAYER
  8
construction
  9
$CELTYPE
  6
BYLAYER
  9
$CECOLOR
 62
  256
  9
$CELTSCALE
 40
1
  9
$DISPSILH
 70
    0
  9
$DIMSCALE
 40
3
  9
$DIMASZ
 40
15
  9
$DIMEXO
 40
6.25
  9
$DIMDLI
 40
3.75
  9
$DIMRND
 40
0
  9
$DIMDLE
 40
0
  9
$DIMEXE
 40
1.25
  9
$DIMTP
 40
0
  9
$DIMTM
 40
0
  9
$DIMTXT
 40
15
  9
$DIMCEN
 40
2.5
  9
$DIMTSZ
 40
0
  9
$DIMTOL
 70
    0
  9
$DIMLIM
 70
    0
  9
$DIMTIH
 70
    0
  9
$DIMTOH
 70
    0
  9
$DIMSE1
 70
    0
  9
$DIMSE2
 70
    0
  9
$DIMTAD
 70
    1
  9
$DIMZIN
 70
    8
  9
$DIMBLK
  1

  9
$DIMASO
 70
    1
  9
$DIMSHO
 70
    1
  9
$DIMPOST
  1

  9
$DIMAPOST
  1

  9
$DIMALT
 70
    0
  9
$DIMALTD
 70
    3
  9
$DIMALTF
 40
0.03937
  9
$DIMLFAC
 40
1
  9
$DIMTOFL
 70
    1
  9
$DIMTVP
 40
0
  9
$DIMTIX
 70
    0
  9
$DIMSOXD
 70
    0
  9
$DIMSAH
 70
    0
  9
$DIMBLK1
  1

  9
$DIMBLK2
  1

  9
$DIMSTYLE
  2
STANDARD
  9
$DIMCLRD
 70
    0
  9
$DIMCLRE
 70
    0
  9
$DIMCLRT
 70
    0
  9
$DIMTFAC
 40
1
  9
$DIMGAP
 40
5
  9
$DIMJUST
 70
    0
  9
$DIMSD1
 70
    0
  9
$DIMSD2
 70
    0
  9
$DIMTOLJ
 70
    0
  9
$DIMTZIN
 70
    8
  9
$DIMALTZ
 70
    0
  9
$DIMALTTZ
 70
    0
  9
$DIMUPT
 70
    0
  9
$DIMDEC
 70
    1
  9
$DIMTDEC
 70
    2
  9
$DIMALTU
 70
    2
  9
$DIMALTTD
 70
    3
  9
$DIMTXSTY
  7
standard
  9
$DIMAUNIT
 70
    0
  9
$DIMADEC
 70
    2
  9
$DIMALTRND
 40
0
  9
$DIMAZIN
 70
    0
  9
$DIMDSEP
 70
    0
  9
$DIMATFIT
 70
    3
  9
$DIMFRAC
 70
    0
  9
$DIMLDRBLK
  1
STANDARD
  9
$DIMLUNIT
 70
    2
  9
$DIMLWD
 70
   -2
  9
$DIMLWE
 70
   -2
  9
$DIMTMOVE
 70
    0
  9
$DIMFXL
 40
1
  9
$DIMFXLON
 70
    0
  9
$DIMJOGANG
 40
0.7854
  9
$DIMTFILL
 70
    0
  9
$DIMTFILLCLR
 70
    0
  9
$DIMARCSYM
 70
    0
  9
$DIMLTYPE
  6

  9
$DIMLTEX1
  6

  9
$DIMLTEX2
  6

  9
$LUNITS
 70
    2
  9
$LUPREC
 70
    4
  9
$SKETCHINC
 40
1
  9
$FILLETRAD
 40
0
  9
$AUNITS
 70
    0
  9
$AUPREC
 70
    2
  9
$MENU
  1
.
  9
$ELEVATION
 40
0
  9
$PELEVATION
 40
0
  9
$THICKNESS
 40
0
  9
$LIMCHECK
 70
    0
  9
$CHAMFERA
 40
0
  9
$CHAMFERB
 40
0
  9
$CHAMFERC
 40
0
  9
$CHAMFERD
 40
0
  9
$SKPOLY
 70
    0
  9
$USRTIMER
 70
    1
  9
$ANGBASE
 50
0
  9
$ANGDIR
 70
    0
  9
$PDMODE
 70
   34
  9
$PDSIZE
 40
0
  9
$PLINEWID
 40
0
  9
$SPLFRAME
 70
    0
  9
$SPLINETYPE
 70
    2
  9
$SPLINESEGS
 70
    8
  9
$HANDSEED
  5
20000
  9
$SURFTAB1
 70
    6
  9
$SURFTAB2
 70
    6
  9
$SURFTYPE
 70
    6
  9
$SURFU
 70
    6
  9
$SURFV
 70
    6
  9
$UCSBASE
  2

  9
$UCSNAME
  2

  9
$UCSORG
 10
0
 20
0
 30
0
  9
$UCSXDIR
 10
1
 20
0
 30
0
  9
$UCSYDIR
 10
0
 20
1
 30
0
  9
$UCSORTHOREF
  2

  9
$UCSORTHOVIEW
 70
    0
  9
$UCSORGTOP
 10
0
 20
0
 30
0
  9
$UCSORGBOTTOM
 10
0
 20
0
 30
0
  9
$UCSORGLEFT
 10
0
 20
0
 30
0
  9
$UCSORGRIGHT
 10
0
 20
0
 30
0
  9
$UCSORGFRONT
 10
0
 20
0
 30
0
  9
$UCSORGBACK
 10
0
 20
0
 30
0
  9
$PUCSBASE
  2

  9
$PUCSNAME
  2

  9
$PUCSORG
 10
0
 20
0
 30
0
  9
$PUCSXDIR
 10
1
 20
0
 30
0
  9
$PUCSYDIR
 10
0
 20
1
 30
0
  9
$PUCSORTHOREF
  2

  9
$PUCSORTHOVIEW
 70
    0
  9
$PUCSORGTOP
 10
0
 20
0
 30
0
  9
$PUCSORGBOTTOM
 10
0
 20
0
 30
0
  9
$PUCSORGLEFT
 10
0
 20
0
 30
0
  9
$PUCSORGRIGHT
 10
0
 20
0
 30
0
  9
$PUCSORGFRONT
 10
0
 20
0
 30
0
  9
$PUCSORGBACK
 10
0
 20
0
 30
0
  9
$USERI1
 70
    0
  9
$USERI2
 70
    0
  9
$USERI3
 70
    0
  9
$USERI4
 70
    0
  9
$USERI5
 70
    0
  9
$USERR1
 40
0
  9
$USERR2
 40
0
  9
$USERR3
 40
0
  9
$USERR4
 40
0
  9
$USERR5
 40
0
  9
$WORLDVIEW
 70
    1
  9
$SHADEDGE
 70
    3
  9
$SHADEDIF
 70
   70
  9
$TILEMODE
 70
    1
  9
$MAXACTVP
 70
   64
  9
$PINSBASE
 10
45.80608891627394
 20
27.28568890961272
 30
0
  9
$PLIMCHECK
 70
    0
  9
$PEXTMIN
 10
0
 20
0
 30
0
  9
$PEXTMAX
 10
0
 20
0
 30
0
  9
$GRIDMODE
 70
    1
  9
$SNAPSTYLE
 70
    0
  9
$GRIDUNIT
 10
0
 20
0
  9
$PLIMMIN
 10
0
 20
0
  9
$PLIMMAX
 10
297
 20
210
  9
$UNITMODE
 70
    0
  9
$VISRETAIN
 70
    1
  9
$PLINEGEN
 70
    0
  9
$PSLTSCALE
 70
    1
  9
$TREEDEPTH
 70
 3020
  9
$CMLSTYLE
  2
Standard
  9
$CMLJUST
 70
    0
  9
$CMLSCALE
 40
20
  9
$PROXYGRAPHICS
 70
    1
  9
$MEASUREMENT
 70
    1
  9
$CELWEIGHT
370
   -1
  9
$ENDCAPS
280
    0
  9
$JOINSTYLE
280
    0
  9
$LWDISPLAY
290
    0
  9
$INSUNITS
 70
    4
  9
$HYPERLINKBASE
  1

  9
$STYLESHEET
  1

  9
$XEDIT
290
    1
  9
$CEPSNTYPE
380
    0
  9
$PSTYLEMODE
290
    1
  9
$EXTNAMES
290
    1
  9
$PSVPSCALE
 40
0.05551022220741949
  9
$OLESTARTUP
290
    0
  9
$SORTENTS
280
  127
  9
$INDEXCTL
280
    0
  9
$HIDETEXT
280
    1
  9
$XCLIPFRAME
290
    0
  9
$HALOGAP
280
    0
  9
$OBSCOLOR
 70
  257
  9
$OBSLTYPE
280
    0
  9
$INTERSECTIONDISPLAY
280
    0
  9
$INTERSECTIONCOLOR
 70
  257
  9
$DIMASSOC
280
    1
  9
$PROJECTNAME
  1

  9
$CAMERADISPLAY
290
    0
  9
$LENSLENGTH
 40
50
  9
$CAMERAHEIGHT
 40
0
  9
$STEPSPERSEC
 40
2
  9
$STEPSIZE
 40
50
  9
$3DDWFPREC
 40
2
  9
$PSOLWIDTH
 40
5
  9
$PSOLHEIGHT
 40
80
  9
$LOFTANG1
 40
1.570796326794897
  9
$LOFTANG2
 40
1.570796326794897
  9
$LOFTMAG1
 40
0
  9
$LOFTMAG2
 40
0
  9
$LOFTPARAM
 70
    7
  9
$LOFTNORMALS
280
    1
  9
$LATITUDE
 40
1
  9
$LONGITUDE
 40
1
  9
$NORTHDIRECTION
 40
0
  9
$TIMEZONE
 70
-8000
  9
$LIGHTGLYPHDISPLAY
280
    1
  9
$TILEMODELIGHTSYNCH
280
    1
  9
$SOLIDHIST
280
    1
  9
$SHOWHIST
280
    1
  9
$DWFFRAME
280
    2
  9
$DGNFRAME
280
    0
  9
$REALWORLDSCALE
290
    1
  9
$INTERFERECOLOR
 62
    1
  9
$CSHADOW
280
    0
  9
$SHADOWPLANELOCATION
 40
0
  0
ENDSEC
  0
SECTION
  2
CLASSES
  0
ENDSEC
  0
SECTION
  2
TABLES
  0
TABLE
  2
VPORT
  5
8
330
0
100
AcDbSymbolTable
 70
    1
  0
VPORT
  5
31
330
2
100
AcDbSymbolTableRecord
100
AcDbViewportTableRecord
  2
*ACTIVE
 70
    0
 10
0
 20
0
 11
1
 21
1
 12
2226.919985365314
 22
1605.523086912242
 13
0
 23
0
 14
10
 24
10
 15
10
 25
10
 16
0
 26
0
 36
1
 17
0
 27
0
 37
0
 40
4126.788971544801
 41
1.334293948126801
 42
50
 43
0
 44
0
 50
0
 51
0
 71
    0
 72
  100
 73
    1
 74
    3
 75
    0
 76
    1
 77
    0
 78
    0
281
    0
 65
    1
110
0
120
0
130
0
111
1
121
0
131
0
112
0
122
1
132
0
 79
    0
146
0
348
10020
 60
    7
 61
    5
292
1
282
    1
141
0
142
0
 63
  250
421
3358443
  0
ENDTAB
  0
TABLE
  2
LTYPE
  5
5
330
0
100
AcDbSymbolTable
 70
    4
  0
LTYPE
  5
14
330
5
100
AcDbSymbolTableRecord
100
AcDbLinetypeTableRecord
  2
ByBlock
 70
    0
  3

 72
   65
 73
    0
 40
0
  0
LTYPE
  5
15
330
5
100
AcDbSymbolTableRecord
100
AcDbLinetypeTableRecord
  2
ByLayer
 70
    0
  3

 72
   65
 73
    0
 40
0
  0
LTYPE
  5
16
330
5
100
AcDbSymbolTableRecord
100
AcDbLinetypeTableRecord
  2
Continuous
 70
    0
  3
Solid line
 72
   65
 73
    0
 40
0
  0
LTYPE
  5
32
330
5
100
AcDbSymbolTableRecord
100
AcDbLinetypeTableRecord
  2
DOT
 70
    0
  3
Dot . . . . . . . . . . . . . . . . . . . . . .
 72
   65
 73
    2
 40
6.35
 49
0
 74
    0
 49
-6.35
 74
    0
  0
LTYPE
  5
33
330
5
100
AcDbSymbolTableRecord
100
AcDbLinetypeTableRecord
  2
DOTTINY
 70
    0
  3
Dot (.15x) .....................................
 72
   65
 73
    2
 40
0.9525
 49
0
 74
    0
 49
-0.9525
 74
    0
  0
LTYPE
  5
34
330
5
100
AcDbSymbolTableRecord
100
AcDbLinetypeTableRecord
  2
DOT2
 70
    0
  3
Dot (.5x) .....................................
 72
   65
 73
    2
 40
3.175
 49
0
 74
    0
 49
-3.175
 74
    0
  0
LTYPE
  5
35
330
5
100
AcDbSymbolTableRecord
100
AcDbLinetypeTableRecord
  2
DOTX2
 70
    0
  3
Dot (2x) .  .  .  .  .  .  .  .  .  .  .  .  .
 72
   65
 73
    2
 40
12.7
 49
0
 74
    0
 49
-12.7
 74
    0
  0
LTYPE
  5
36
330
5
100
AcDbSymbolTableRecord
100
AcDbLinetypeTableRecord
  2
DASHED
 70
    0
  3
Dashed _ _ _ _ _ _ _ _ _ _ _ _ _ _ _ _ _
 72
   65
 73
    2
 40
19.05
 49
12.7
 74
    0
 49
-6.35
 74
    0
  0
LTYPE
  5
37
330
5
100
AcDbSymbolTableRecord
100
AcDbLinetypeTableRecord
  2
DASHEDTINY
 70
    0
  3
Dashed (.15x) _ _ _ _ _ _ _ _ _ _ _ _ _ _ _ _ _
 72
   65
 73
    2
 40
2.8575
 49
1.905
 74
    0
 49
-0.9525
 74
    0
  0
LTYPE
  5
38
330
5
100
AcDbSymbolTableRecord
100
AcDbLinetypeTableRecord
  2
DASHED2
 70
    0
  3
Dashed (.5x) _ _ _ _ _ _ _ _ _ _ _ _ _ _ _ _ _
 72
   65
 73
    2
 40
9.524999999999999
 49
6.35
 74
    0
 49
-3.175
 74
    0
  0
LTYPE
  5
39
330
5
100
AcDbSymbolTableRecord
100
AcDbLinetypeTableRecord
  2
DASHEDX2
 70
    0
  3
Dashed (2x) ____  ____  ____  ____  ____  ___
 72
   65
 73
    2
 40
38.09999999999999
 49
25.4
 74
    0
 49
-12.7
 74
    0
  0
LTYPE
  5
3A
330
5
100
AcDbSymbolTableRecord
100
AcDbLinetypeTableRecord
  2
DASHDOT
 70
    0
  3
Dash dot __ . __ . __ . __ . __ . __ . __ . __
 72
   65
 73
    4
 40
25.4
 49
12.7
 74
    0
 49
-6.35
 74
    0
 49
0
 74
    0
 49
-6.35
 74
    0
  0
LTYPE
  5
3B
330
5
100
AcDbSymbolTableRecord
100
AcDbLinetypeTableRecord
  2
DASHDOTTINY
 70
    0
  3
Dash dot (.15x) _._._._._._._._._._._._._._._.
 72
   65
 73
    4
 40
3.81
 49
1.905
 74
    0
 49
-0.9525
 74
    0
 49
0
 74
    0
 49
-0.9525
 74
    0
  0
LTYPE
  5
3C
330
5
100
AcDbSymbolTableRecord
100
AcDbLinetypeTableRecord
  2
DASHDOT2
 70
    0
  3
Dash dot (.5x) _._._._._._._._._._._._._._._.
 72
   65
 73
    4
 40
12.7
 49
6.35
 74
    0
 49
-3.175
 74
    0
 49
0
 74
    0
 49
-3.175
 74
    0
  0
LTYPE
  5
3D
330
5
100
AcDbSymbolTableRecord
100
AcDbLinetypeTableRecord
  2
DASHDOTX2
 70
    0
  3
Dash dot (2x) ____  .  ____  .  ____  .  ___
 72
   65
 73
    4
 40
50.8
 49
25.4
 74
    0
 49
-12.7
 74
    0
 49
0
 74
    0
 49
-12.7
 74
    0
  0
LTYPE
  5
3E
330
5
100
AcDbSymbolTableRecord
100
AcDbLinetypeTableRecord
  2
DIVIDE
 70
    0
  3
Divide ____ . . ____ . . ____ . . ____ . . ____
 72
   65
 73
    6
 40
31.75
 49
12.7
 74
    0
 49
-6.35
 74
    0
 49
0
 74
    0
 49
-6.35
 74
    0
 49
0
 74
    0
 49
-6.35
 74
    0
  0
LTYPE
  5
3F
330
5
100
AcDbSymbolTableRecord
100
AcDbLinetypeTableRecord
  2
DIVIDETINY
 70
    0
  3
Divide (.15x) __..__..__..__..__..__..__..__.._
 72
   65
 73
    6
 40
4.7625
 49
1.905
 74
    0
 49
-0.9525
 74
    0
 49
0
 74
    0
 49
-0.9525
 74
    0
 49
0
 74
    0
 49
-0.9525
 74
    0
  0
LTYPE
  5
40
330
5
100
AcDbSymbolTableRecord
100
AcDbLinetypeTableRecord
  2
DIVIDE2
 70
    0
  3
Divide (.5x) __..__..__..__..__..__..__..__.._
 72
   65
 73
    6
 40
15.875
 49
6.35
 74
    0
 49
-3.175
 74
    0
 49
0
 74
    0
 49
-3.175
 74
    0
 49
0
 74
    0
 49
-3.175
 74
    0
  0
LTYPE
  5
41
330
5
100
AcDbSymbolTableRecord
100
AcDbLinetypeTableRecord
  2
DIVIDEX2
 70
    0
  3
Divide (2x) ________  .  .  ________  .  .  _
 72
   65
 73
    6
 40
63.5
 49
25.4
 74
    0
 49
-12.7
 74
    0
 49
0
 74
    0
 49
-12.7
 74
    0
 49
0
 74
    0
 49
-12.7
 74
    0
  0
LTYPE
  5
42
330
5
100
AcDbSymbolTableRecord
100
AcDbLinetypeTableRecord
  2
BORDER
 70
    0
  3
Border __ __ . __ __ . __ __ . __ __ . __ __ .
 72
   65
 73
    6
 40
44.45
 49
12.7
 74
    0
 49
-6.35
 74
    0
 49
12.7
 74
    0
 49
-6.35
 74
    0
 49
0
 74
    0
 49
-6.35
 74
    0
  0
LTYPE
  5
43
330
5
100
AcDbSymbolTableRecord
100
AcDbLinetypeTableRecord
  2
BORDERTINY
 70
    0
  3
Border (.15x) __.__.__.__.__.__.__.__.__.__.__.
 72
   65
 73
    6
 40
6.6675
 49
1.905
 74
    0
 49
-0.9525
 74
    0
 49
1.905
 74
    0
 49
-0.9525
 74
    0
 49
0
 74
    0
 49
-0.9525
 74
    0
  0
LTYPE
  5
44
330
5
100
AcDbSymbolTableRecord
100
AcDbLinetypeTableRecord
  2
BORDER2
 70
    0
  3
Border (.5x) __.__.__.__.__.__.__.__.__.__.__.
 72
   65
 73
    6
 40
22.225
 49
6.35
 74
    0
 49
-3.175
 74
    0
 49
6.35
 74
    0
 49
-3.175
 74
    0
 49
0
 74
    0
 49
-3.175
 74
    0
  0
LTYPE
  5
45
330
5
100
AcDbSymbolTableRecord
100
AcDbLinetypeTableRecord
  2
BORDERX2
 70
    0
  3
Border (2x) ____  ____  .  ____  ____  .  ___
 72
   65
 73
    6
 40
88.89999999999999
 49
25.4
 74
    0
 49
-12.7
 74
    0
 49
25.4
 74
    0
 49
-12.7
 74
    0
 49
0
 74
    0
 49
-12.7
 74
    0
  0
LTYPE
  5
46
330
5
100
AcDbSymbolTableRecord
100
AcDbLinetypeTableRecord
  2
CENTER
 70
    0
  3
Center ____ _ ____ _ ____ _ ____ _ ____ _ ____
 72
   65
 73
    4
 40
50.8
 49
31.75
 74
    0
 49
-6.35
 74
    0
 49
6.35
 74
    0
 49
-6.35
 74
    0
  0
LTYPE
  5
47
330
5
100
AcDbSymbolTableRecord
100
AcDbLinetypeTableRecord
  2
CENTERTINY
 70
    0
  3
Center (.15x) ___ _ ___ _ ___ _ ___ _ ___ _ ___
 72
   65
 73
    4
 40
7.62
 49
4.7625
 74
    0
 49
-0.9525
 74
    0
 49
0.9525
 74
    0
 49
-0.9525
 74
    0
  0
LTYPE
  5
48
330
5
100
AcDbSymbolTableRecord
100
AcDbLinetypeTableRecord
  2
CENTER2
 70
    0
  3
Center (.5x) ___ _ ___ _ ___ _ ___ _ ___ _ ___
 72
   65
 73
    4
 40
28.575
 49
19.05
 74
    0
 49
-3.175
 74
    0
 49
3.175
 74
    0
 49
-3.175
 74
    0
  0
LTYPE
  5
49
330
5
100
AcDbSymbolTableRecord
100
AcDbLinetypeTableRecord
  2
CENTERX2
 70
    0
  3
Center (2x) ________  __  ________  __  _____
 72
   65
 73
    4
 40
101.6
 49
63.5
 74
    0
 49
-12.7
 74
    0
 49
12.7
 74
    0
 49
-12.7
 74
    0
  0
ENDTAB
  0
TABLE
  2
LAYER
  5
2
330
0
100
AcDbSymbolTable
 70
    1
  0
LAYER
  5
10
330
2
100
AcDbSymbolTableRecord
100
AcDbLayerTableRecord
  2
0
 70
    1
 62
    7
  6
CONTINUOUS
370
    0
390
F
  0
LAYER
  5
4A
330
2
100
AcDbSymbolTableRecord
100
AcDbLayerTableRecord
  2
axe
 70
    1
 62
    7
  6
DASHDOT2
370
   18
390
F
  0
LAYER
  5
4B
330
2
100
AcDbSymbolTableRecord
100
AcDbLayerTableRecord
  2
construction
 70
    0
 62
    9
  6
CONTINUOUS
370
    0
390
F
  0
LAYER
  5
4C
330
2
100
AcDbSymbolTableRecord
100
AcDbLayerTableRecord
  2
contour
 70
    0
 62
    7
  6
CONTINUOUS
370
   50
390
F
  0
LAYER
  5
4D
330
2
100
AcDbSymbolTableRecord
100
AcDbLayerTableRecord
  2
cotation
 70
    0
 62
    7
  6
CONTINUOUS
370
   50
390
F
  0
LAYER
  5
4E
330
2
100
AcDbSymbolTableRecord
100
AcDbLayerTableRecord
  2
gris
 70
    1
 62
    1
  6
CONTINUOUS
370
   35
390
F
  0
LAYER
  5
4F
330
2
100
AcDbSymbolTableRecord
100
AcDbLayerTableRecord
  2
pointillés
 70
    1
 62
    7
  6
DOTTINY
370
   25
390
F
  0
LAYER
  5
50
330
2
100
AcDbSymbolTableRecord
100
AcDbLayerTableRecord
  2
texte
 70
    0
 62
    7
  6
CONTINUOUS
370
   50
390
F
  0
ENDTAB
  0
TABLE
  2
STYLE
  5
3
330
0
100
AcDbSymbolTable
 70
    3
  0
STYLE
  5
51
330
2
100
AcDbSymbolTableRecord
100
AcDbTextStyleTableRecord
  2
unicode
 70
    0
 40
0
 41
1
 50
0
 71
    0
 42
1
  3
unicode
  4

  0
STYLE
  5
52
330
2
100
AcDbSymbolTableRecord
100
AcDbTextStyleTableRecord
  2
iso
 70
    0
 40
0
 41
1
 50
0
 71
    0
 42
1
  3
iso
  4

  0
STYLE
  5
53
330
2
100
AcDbSymbolTableRecord
100
AcDbTextStyleTableRecord
  2
Standard
 70
    0
 40
0
 41
1
 50
0
 71
    0
 42
1
  3
txt
  4

  0
ENDTAB
  0
TABLE
  2
VIEW
  5
6
330
0
100
AcDbSymbolTable
 70
    0
  0
ENDTAB
  0
TABLE
  2
UCS
  5
7
330
0
100
AcDbSymbolTable
 70
    0
  0
ENDTAB
  0
TABLE
  2
APPID
  5
9
330
0
100
AcDbSymbolTable
 70
    1
  0
APPID
  5
12
330
9
100
AcDbSymbolTableRecord
100
AcDbRegAppTableRecord
  2
ACAD
 70
    0
  0
APPID
  5
54
330
9
100
AcDbSymbolTableRecord
100
AcDbRegAppTableRecord
  2
LibreCad
 70
    0
  0
ENDTAB
  0
TABLE
  2
DIMSTYLE
  5
A
330
0
100
AcDbSymbolTable
 70
    1
100
AcDbDimStyleTable
 71
    1
  0
DIMSTYLE
105
55
330
A
100
AcDbSymbolTableRecord
100
AcDbDimStyleTableRecord
  2
Standard
 70
    0
 40
3
 41
15
 42
6.25
 43
0.38
 44
1.25
 45
0
 46
0
 47
0
 48
0
 49
1
140
15
141
0.09
142
0
143
25.4
144
1
145
0
146
1
147
5
148
0
 71
    0
 72
    0
 73
    0
 74
    1
 75
    0
 76
    0
 77
    0
 78
    8
 79
    0
170
    0
171
    2
172
    0
173
    0
174
    0
175
    0
176
    0
177
    0
178
    0
179
    2
271
    1
272
    4
273
    2
274
    2
275
    0
276
    0
277
    2
278
    0
279
    0
280
    0
281
    0
282
    0
283
    1
284
    0
285
    0
286
    0
288
    0
289
    3
340
standard
341

371
   -2
372
   -2
  0
ENDTAB
  0
TABLE
  2
BLOCK_RECORD
  5
1
330
0
100
AcDbSymbolTable
 70
    2
  0
BLOCK_RECORD
  5
1F
330
1
100
AcDbSymbolTableRecord
100
AcDbBlockTableRecord
  2
*Model_Space
 70
    0
280
    1
281
    0
  0
BLOCK_RECORD
  5
1E
330
1
100
AcDbSymbolTableRecord
100
AcDbBlockTableRecord
  2
*Paper_Space
 70
    0
280
    1
281
    0
  0
BLOCK_RECORD
  5
56
330
1
100
AcDbSymbolTableRecord
100
AcDbBlockTableRecord
  2
*D5
 70
    0
280
    1
281
    0
  0
BLOCK_RECORD
  5
59
330
1
100
AcDbSymbolTableRecord
100
AcDbBlockTableRecord
  2
*D3
 70
    0
280
    1
281
    0
  0
BLOCK_RECORD
  5
5C
330
1
100
AcDbSymbolTableRecord
100
AcDbBlockTableRecord
  2
*D10
 70
    0
280
    1
281
    0
  0
BLOCK_RECORD
  5
5F
330
1
100
AcDbSymbolTableRecord
100
AcDbBlockTableRecord
  2
*D9
 70
    0
280
    1
281
    0
  0
BLOCK_RECORD
  5
62
330
1
100
AcDbSymbolTableRecord
100
AcDbBlockTableRecord
  2
*D13
 70
    0
280
    1
281
    0
  0
BLOCK_RECORD
  5
65
330
1
100
AcDbSymbolTableRecord
100
AcDbBlockTableRecord
  2
*D16
 70
    0
280
    1
281
    0
  0
BLOCK_RECORD
  5
68
330
1
100
AcDbSymbolTableRecord
100
AcDbBlockTableRecord
  2
*D21
 70
    0
280
    1
281
    0
  0
BLOCK_RECORD
  5
6B
330
1
100
AcDbSymbolTableRecord
100
AcDbBlockTableRecord
  2
*D26
 70
    0
280
    1
281
    0
  0
BLOCK_RECORD
  5
6E
330
1
100
AcDbSymbolTableRecord
100
AcDbBlockTableRecord
  2
*D4
 70
    0
280
    1
281
    0
  0
BLOCK_RECORD
  5
71
330
1
100
AcDbSymbolTableRecord
100
AcDbBlockTableRecord
  2
*D27
 70
    0
280
    1
281
    0
  0
BLOCK_RECORD
  5
74
330
1
100
AcDbSymbolTableRecord
100
AcDbBlockTableRecord
  2
*D14
 70
    0
280
    1
281
    0
  0
BLOCK_RECORD
  5
77
330
1
100
AcDbSymbolTableRecord
100
AcDbBlockTableRecord
  2
*D15
 70
    0
280
    1
281
    0
  0
BLOCK_RECORD
  5
7A
330
1
100
AcDbSymbolTableRecord
100
AcDbBlockTableRecord
  2
*D25
 70
    0
280
    1
281
    0
  0
BLOCK_RECORD
  5
7D
330
1
100
AcDbSymbolTableRecord
100
AcDbBlockTableRecord
  2
*D29
 70
    0
280
    1
281
    0
  0
BLOCK_RECORD
  5
80
330
1
100
AcDbSymbolTableRecord
100
AcDbBlockTableRecord
  2
*D31
 70
    0
280
    1
281
    0
  0
BLOCK_RECORD
  5
83
330
1
100
AcDbSymbolTableRecord
100
AcDbBlockTableRecord
  2
*D19
 70
    0
280
    1
281
    0
  0
BLOCK_RECORD
  5
86
330
1
100
AcDbSymbolTableRecord
100
AcDbBlockTableRecord
  2
*D32
 70
    0
280
    1
281
    0
  0
BLOCK_RECORD
  5
89
330
1
100
AcDbSymbolTableRecord
100
AcDbBlockTableRecord
  2
*D8
 70
    0
280
    1
281
    0
  0
BLOCK_RECORD
  5
8C
330
1
100
AcDbSymbolTableRecord
100
AcDbBlockTableRecord
  2
*D12
 70
    0
280
    1
281
    0
  0
BLOCK_RECORD
  5
8F
330
1
100
AcDbSymbolTableRecord
100
AcDbBlockTableRecord
  2
*D17
 70
    0
280
    1
281
    0
  0
BLOCK_RECORD
  5
92
330
1
100
AcDbSymbolTableRecord
100
AcDbBlockTableRecord
  2
*D20
 70
    0
280
    1
281
    0
  0
BLOCK_RECORD
  5
95
330
1
100
AcDbSymbolTableRecord
100
AcDbBlockTableRecord
  2
*D30
 70
    0
280
    1
281
    0
  0
BLOCK_RECORD
  5
98
330
1
100
AcDbSymbolTableRecord
100
AcDbBlockTableRecord
  2
*D35
 70
    0
280
    1
281
    0
  0
BLOCK_RECORD
  5
9B
330
1
100
AcDbSymbolTableRecord
100
AcDbBlockTableRecord
  2
*D6
 70
    0
280
    1
281
    0
  0
BLOCK_RECORD
  5
9E
330
1
100
AcDbSymbolTableRecord
100
AcDbBlockTableRecord
  2
*D28
 70
    0
280
    1
281
    0
  0
BLOCK_RECORD
  5
A1
330
1
100
AcDbSymbolTableRecord
100
AcDbBlockTableRecord
  2
*D1
 70
    0
280
    1
281
    0
  0
BLOCK_RECORD
  5
A4
330
1
100
AcDbSymbolTableRecord
100
AcDbBlockTableRecord
  2
*D34
 70
    0
280
    1
281
    0
  0
BLOCK_RECORD
  5
A7
330
1
100
AcDbSymbolTableRecord
100
AcDbBlockTableRecord
  2
*D37
 70
    0
280
    1
281
    0
  0
BLOCK_RECORD
  5
AA
330
1
100
AcDbSymbolTableRecord
100
AcDbBlockTableRecord
  2
*D33
 70
    0
280
    1
281
    0
  0
BLOCK_RECORD
  5
AD
330
1
100
AcDbSymbolTableRecord
100
AcDbBlockTableRecord
  2
*D7
 70
    0
280
    1
281
    0
  0
BLOCK_RECORD
  5
B0
330
1
100
AcDbSymbolTableRecord
100
AcDbBlockTableRecord
  2
*D24
 70
    0
280
    1
281
    0
  0
BLOCK_RECORD
  5
B3
330
1
100
AcDbSymbolTableRecord
100
AcDbBlockTableRecord
  2
*D18
 70
    0
280
    1
281
    0
  0
BLOCK_RECORD
  5
B6
330
1
100
AcDbSymbolTableRecord
100
AcDbBlockTableRecord
  2
*D36
 70
    0
280
    1
281
    0
  0
BLOCK_RECORD
  5
B9
330
1
100
AcDbSymbolTableRecord
100
AcDbBlockTableRecord
  2
*D23
 70
    0
280
    1
281
    0
  0
BLOCK_RECORD
  5
BC
330
1
100
AcDbSymbolTableRecord
100
AcDbBlockTableRecord
  2
*D22
 70
    0
280
    1
281
    0
  0
BLOCK_RECORD
  5
BF
330
1
100
AcDbSymbolTableRecord
100
AcDbBlockTableRecord
  2
*D2
 70
    0
280
    1
281
    0
  0
BLOCK_RECORD
  5
C2
330
1
100
AcDbSymbolTableRecord
100
AcDbBlockTableRecord
  2
*D11
 70
    0
280
    1
281
    0
  0
BLOCK_RECORD
  5
C5
330
1
100
AcDbSymbolTableRecord
100
AcDbBlockTableRecord
  2
fixation1
 70
    0
280
    1
281
    0
  0
BLOCK_RECORD
  5
C8
330
1
100
AcDbSymbolTableRecord
100
AcDbBlockTableRecord
  2
pied
 70
    0
280
    1
281
    0
  0
BLOCK_RECORD
  5
CB
330
1
100
AcDbSymbolTableRecord
100
AcDbBlockTableRecord
  2
Tasseau
 70
    0
280
    1
281
    0
  0
BLOCK_RECORD
  5
CE
330
1
100
AcDbSymbolTableRecord
100
AcDbBlockTableRecord
  2
Tirfond
 70
    0
280
    1
281
    0
  0
BLOCK_RECORD
  5
D1
330
1
100
AcDbSymbolTableRecord
100
AcDbBlockTableRecord
  2
vis 1
 70
    0
280
    1
281
    0
  0
BLOCK_RECORD
  5
D4
330
1
100
AcDbSymbolTableRecord
100
AcDbBlockTableRecord
  2
tirfond2
 70
    0
280
    1
281
    0
  0
BLOCK_RECORD
  5
D7
330
1
100
AcDbSymbolTableRecord
100
AcDbBlockTableRecord
  2
oblong
 70
    0
280
    1
281
    0
  0
BLOCK_RECORD
  5
DA
330
1
100
AcDbSymbolTableRecord
100
AcDbBlockTableRecord
  2
poignée
 70
    0
280
    1
281
    0
  0
BLOCK_RECORD
  5
DD
330
1
100
AcDbSymbolTableRecord
100
AcDbBlockTableRecord
  2
pied2
 70
    0
280
    1
281
    0
  0
BLOCK_RECORD
  5
E0
330
1
100
AcDbSymbolTableRecord
100
AcDbBlockTableRecord
  2
tirfond3
 70
    0
280
    1
281
    0
  0
BLOCK_RECORD
  5
E3
330
1
100
AcDbSymbolTableRecord
100
AcDbBlockTableRecord
  2
tirfond3;1
 70
    0
280
    1
281
    0
  0
BLOCK_RECORD
  5
E6
330
1
100
AcDbSymbolTableRecord
100
AcDbBlockTableRecord
  2
rond8
 70
    0
280
    1
281
    0
  0
ENDTAB
  0
ENDSEC
  0
SECTION
  2
BLOCKS
  0
BLOCK
  5
20
330
1F
100
AcDbEntity
  8
0
100
AcDbBlockBegin
  2
*Model_Space
 70
    0
 10
0
 20
0
 30
0
  3
*Model_Space
  1

  0
ENDBLK
  5
21
330
1F
100
AcDbEntity
  8
0
100
AcDbBlockEnd
  0
BLOCK
  5
1C
330
1B
100
AcDbEntity
  8
0
100
AcDbBlockBegin
  2
*Paper_Space
 70
    0
 10
0
 20
0
 30
0
  3
*Paper_Space
  1

  0
ENDBLK
  5
1D
330
1F
100
AcDbEntity
  8
0
100
AcDbBlockEnd
  0
BLOCK
  5
57
330
56
100
AcDbEntity
  8
0
100
AcDbBlockBegin
  2
*D5
 70
    1
 10
0
 20
0
  3
*D5
  1

  0
LINE
  5
E9
100
AcDbEntity
  8
cotation
  6
ByBlock
 62
    0
370
   -2
100
AcDbLine
 10
39.99999999999998
 20
1150
 11
40.00000000000001
 21
1406
  0
SOLID
  5
EA
100
AcDbEntity
  8
cotation
  6
ByBlock
 62
    0
370
   -2
100
AcDbTrace
 10
39.99999999999999
 20
1240
 30
0
 11
47.49312383991112
 21
1195
 31
0
 12
32.50687616008886
 22
1195
 32
0
 13
32.50687616008886
 23
1195
 33
0
  0
SOLID
  5
EB
100
AcDbEntity
  8
cotation
  6
ByBlock
 62
    0
370
   -2
100
AcDbTrace
 10
40
 20
1316
 30
0
 11
32.50687616008888
 21
1361
 31
0
 12
47.49312383991114
 22
1361
 32
0
 13
47.49312383991114
 23
1361
 33
0
  0
MTEXT
  5
EC
100
AcDbEntity
  8
cotation
  6
CONTINUOUS
 62
    0
370
   -2
100
AcDbMText
 10
2.5
 20
1278
 30
0
 40
45
 41
55.00000000000279
 71
    5
 72
    1
  1
76
  7
standard
210
0
220
0
230
1
 50
90
 73
    2
 44
1
  0
LINE
  5
ED
100
AcDbEntity
  8
cotation
  6
ByBlock
 62
    0
370
   -2
100
AcDbLine
 10
76.2500000000298
 20
1240
 11
36.24999999999999
 21
1240
  0
LINE
  5
EE
100
AcDbEntity
  8
cotation
  6
ByBlock
 62
    0
370
   -2
100
AcDbLine
 10
76.24999999999388
 20
1316
 11
36.25
 21
1316
  0
ENDBLK
  5
58
330
56
100
AcDbEntity
  8
0
100
AcDbBlockEnd
  0
BLOCK
  5
5A
330
59
100
AcDbEntity
  8
0
100
AcDbBlockBegin
  2
*D3
 70
    1
 10
0
 20
0
  3
*D3
  1

  0
LINE
  5
EF
100
AcDbEntity
  8
cotation
  6
ByBlock
 62
    0
370
   -2
100
AcDbLine
 10
-300
 20
2080
 11
-300
 21
2330
  0
SOLID
  5
F0
100
AcDbEntity
  8
cotation
  6
ByBlock
 62
    0
370
   -2
100
AcDbTrace
 10
-300
 20
2170
 30
0
 11
-292.5068761600889
 21
2125
 31
0
 12
-307.4931238399111
 22
2125
 32
0
 13
-307.4931238399111
 23
2125
 33
0
  0
SOLID
  5
F1
100
AcDbEntity
  8
cotation
  6
ByBlock
 62
    0
370
   -2
100
AcDbTrace
 10
-300
 20
2240
 30
0
 11
-307.4931238399111
 21
2285
 31
0
 12
-292.5068761600888
 22
2285
 32
0
 13
-292.5068761600888
 23
2285
 33
0
  0
MTEXT
  5
F2
100
AcDbEntity
  8
cotation
  6
CONTINUOUS
 62
    0
370
   -2
100
AcDbMText
 10
-337.5
 20
2205
 30
0
 40
45
 41
55
 71
    5
 72
    1
  1
70
  7
standard
210
0
220
0
230
1
 50
90
 73
    2
 44
1
  0
LINE
  5
F3
100
AcDbEntity
  8
cotation
  6
ByBlock
 62
    0
370
   -2
100
AcDbLine
 10
-18.75
 20
2170
 11
-303.75
 21
2170
  0
LINE
  5
F4
100
AcDbEntity
  8
cotation
  6
ByBlock
 62
    0
370
   -2
100
AcDbLine
 10
-18.75
 20
2240
 11
-303.75
 21
2240
  0
ENDBLK
  5
5B
330
59
100
AcDbEntity
  8
0
100
AcDbBlockEnd
  0
BLOCK
  5
5D
330
5C
100
AcDbEntity
  8
0
100
AcDbBlockBegin
  2
*D10
 70
    1
 10
0
 20
0
  3
*D10
  1

  0
LINE
  5
F5
100
AcDbEntity
  8
cotation
  6
ByBlock
 62
    0
370
   -2
100
AcDbLine
 10
1404
 20
2300
 11
2316
 21
2300
  0
SOLID
  5
F6
100
AcDbEntity
  8
cotation
  6
ByBlock
 62
    0
370
   -2
100
AcDbTrace
 10
1404
 20
2300
 30
0
 11
1449
 21
2307.493123839911
 31
0
 12
1449
 22
2292.506876160089
 32
0
 13
1449
 23
2292.506876160089
 33
0
  0
SOLID
  5
F7
100
AcDbEntity
  8
cotation
  6
ByBlock
 62
    0
370
   -2
100
AcDbTrace
 10
2316
 20
2300
 30
0
 11
2271
 21
2292.506876160089
 31
0
 12
2271
 22
2307.493123839911
 32
0
 13
2271
 23
2307.493123839911
 33
0
  0
MTEXT
  5
F8
100
AcDbEntity
  8
cotation
  6
CONTINUOUS
 62
    0
370
   -2
100
AcDbMText
 10
1860
 20
2337.5
 30
0
 40
45
 41
80.0000000000028
 71
    5
 72
    1
  1
912
  7
standard
210
0
220
0
230
1
 50
0
 73
    2
 44
1
  0
LINE
  5
F9
100
AcDbEntity
  8
cotation
  6
ByBlock
 62
    0
370
   -2
100
AcDbLine
 10
1404
 20
2240.75
 11
1404
 21
2303.75
  0
LINE
  5
FA
100
AcDbEntity
  8
cotation
  6
ByBlock
 62
    0
370
   -2
100
AcDbLine
 10
2316
 20
2240.75
 11
2316
 21
2303.75
  0
ENDBLK
  5
5E
330
5C
100
AcDbEntity
  8
0
100
AcDbBlockEnd
  0
BLOCK
  5
60
330
5F
100
AcDbEntity
  8
0
100
AcDbBlockBegin
  2
*D9
 70
    1
 10
0
 20
0
  3
*D9
  1

  0
LINE
  5
FB
100
AcDbEntity
  8
cotation
  6
ByBlock
 62
    0
370
   -2
100
AcDbLine
 10
1400
 20
1740
 11
1400
 21
1240
  0
SOLID
  5
FC
100
AcDbEntity
  8
cotation
  6
ByBlock
 62
    0
370
   -2
100
AcDbTrace
 10
1400
 20
1740
 30
0
 11
1407.493123839911
 21
1695
 31
0
 12
1392.506876160089
 22
1695
 32
0
 13
1392.506876160089
 23
1695
 33
0
  0
SOLID
  5
FD
100
AcDbEntity
  8
cotation
  6
ByBlock
 62
    0
370
   -2
100
AcDbTrace
 10
1400
 20
1240
 30
0
 11
1392.506876160089
 21
1285
 31
0
 12
1407.493123839911
 22
1285
 32
0
 13
1407.493123839911
 23
1285
 33
0
  0
MTEXT
  5
FE
100
AcDbEntity
  8
cotation
  6
CONTINUOUS
 62
    0
370
   -2
100
AcDbMText
 10
1362.5
 20
1490
 30
0
 40
45
 41
90.00000000000279
 71
    5
 72
    1
  1
500
  7
standard
210
0
220
0
230
1
 50
90
 73
    2
 44
1
  0
LINE
  5
FF
100
AcDbEntity
  8
cotation
  6
ByBlock
 62
    0
370
   -2
100
AcDbLine
 10
1316.75
 20
1740
 11
1403.75
 21
1740
  0
LINE
  5
100
100
AcDbEntity
  8
cotation
  6
ByBlock
 62
    0
370
   -2
100
AcDbLine
 10
1326.75
 20
1240
 11
1403.75
 21
1240
  0
ENDBLK
  5
61
330
5F
100
AcDbEntity
  8
0
100
AcDbBlockEnd
  0
BLOCK
  5
63
330
62
100
AcDbEntity
  8
0
100
AcDbBlockBegin
  2
*D13
 70
    1
 10
0
 20
0
  3
*D13
  1

  0
LINE
  5
101
100
AcDbEntity
  8
cotation
  6
ByBlock
 62
    0
370
   -2
100
AcDbLine
 10
1606
 20
1500
 11
2248
 21
1500
  0
SOLID
  5
102
100
AcDbEntity
  8
cotation
  6
ByBlock
 62
    0
370
   -2
100
AcDbTrace
 10
1606
 20
1500
 30
0
 11
1651
 21
1507.493123839911
 31
0
 12
1651
 22
1492.506876160089
 32
0
 13
1651
 23
1492.506876160089
 33
0
  0
SOLID
  5
103
100
AcDbEntity
  8
cotation
  6
ByBlock
 62
    0
370
   -2
100
AcDbTrace
 10
2248
 20
1500
 30
0
 11
2203
 21
1492.506876160089
 31
0
 12
2203
 22
1507.493123839911
 32
0
 13
2203
 23
1507.493123839911
 33
0
  0
MTEXT
  5
104
100
AcDbEntity
  8
cotation
  6
CONTINUOUS
 62
    0
370
   -2
100
AcDbMText
 10
1927
 20
1537.5
 30
0
 40
45
 41
95.00000000000279
 71
    5
 72
    1
  1
642
  7
standard
210
0
220
0
230
1
 50
0
 73
    2
 44
1
  0
LINE
  5
105
100
AcDbEntity
  8
cotation
  6
ByBlock
 62
    0
370
   -2
100
AcDbLine
 10
1606
 20
1540.25
 11
1606
 21
1496.25
  0
LINE
  5
106
100
AcDbEntity
  8
cotation
  6
ByBlock
 62
    0
370
   -2
100
AcDbLine
 10
2248
 20
1540.25
 11
2248
 21
1496.25
  0
ENDBLK
  5
64
330
62
100
AcDbEntity
  8
0
100
AcDbBlockEnd
  0
BLOCK
  5
66
330
65
100
AcDbEntity
  8
0
100
AcDbBlockBegin
  2
*D16
 70
    1
 10
0
 20
0
  3
*D16
  1

  0
LINE
  5
107
100
AcDbEntity
  8
cotation
  6
ByBlock
 62
    0
370
   -2
100
AcDbLine
 10
701
 20
1970
 11
1194
 21
1970
  0
SOLID
  5
108
100
AcDbEntity
  8
cotation
  6
ByBlock
 62
    0
370
   -2
100
AcDbTrace
 10
701
 20
1970
 30
0
 11
746
 21
1977.493123839911
 31
0
 12
746
 22
1962.506876160089
 32
0
 13
746
 23
1962.506876160089
 33
0
  0
SOLID
  5
109
100
AcDbEntity
  8
cotation
  6
ByBlock
 62
    0
370
   -2
100
AcDbTrace
 10
1194
 20
1970
 30
0
 11
1149
 21
1962.506876160089
 31
0
 12
1149
 22
1977.493123839911
 32
0
 13
1149
 23
1977.493123839911
 33
0
  0
MTEXT
  5
10A
100
AcDbEntity
  8
cotation
  6
CONTINUOUS
 62
    0
370
   -2
100
AcDbMText
 10
947.5
 20
2007.5
 30
0
 40
45
 41
95.0000000000028
 71
    5
 72
    1
  1
493
  7
standard
210
0
220
0
230
1
 50
0
 73
    2
 44
1
  0
LINE
  5
10B
100
AcDbEntity
  8
cotation
  6
ByBlock
 62
    0
370
   -2
100
AcDbLine
 10
701
 20
2046.25
 11
701
 21
1966.25
  0
LINE
  5
10C
100
AcDbEntity
  8
cotation
  6
ByBlock
 62
    0
370
   -2
100
AcDbLine
 10
1194
 20
2046.25
 11
1194
 21
1966.25
  0
ENDBLK
  5
67
330
65
100
AcDbEntity
  8
0
100
AcDbBlockEnd
  0
BLOCK
  5
69
330
68
100
AcDbEntity
  8
0
100
AcDbBlockBegin
  2
*D21
 70
    1
 10
0
 20
0
  3
*D21
  1

  0
LINE
  5
10D
100
AcDbEntity
  8
cotation
  6
ByBlock
 62
    0
370
   -2
100
AcDbLine
 10
1120
 20
2320
 11
1120
 21
2560
  0
SOLID
  5
10E
100
AcDbEntity
  8
cotation
  6
ByBlock
 62
    0
370
   -2
100
AcDbTrace
 10
1120
 20
2410
 30
0
 11
1127.493123839911
 21
2365
 31
0
 12
1112.506876160089
 22
2365
 32
0
 13
1112.506876160089
 23
2365
 33
0
  0
SOLID
  5
10F
100
AcDbEntity
  8
cotation
  6
ByBlock
 62
    0
370
   -2
100
AcDbTrace
 10
1120
 20
2470
 30
0
 11
1112.506876160089
 21
2515
 31
0
 12
1127.493123839911
 22
2515
 32
0
 13
1127.493123839911
 23
2515
 33
0
  0
MTEXT
  5
110
100
AcDbEntity
  8
cotation
  6
CONTINUOUS
 62
    0
370
   -2
100
AcDbMText
 10
1082.5
 20
2440
 30
0
 40
45
 41
55.00000000000279
 71
    5
 72
    1
  1
60
  7
standard
210
0
220
0
230
1
 50
90
 73
    2
 44
1
  0
LINE
  5
111
100
AcDbEntity
  8
cotation
  6
ByBlock
 62
    0
370
   -2
100
AcDbLine
 10
1148.75
 20
2410
 11
1116.25
 21
2410
  0
LINE
  5
112
100
AcDbEntity
  8
cotation
  6
ByBlock
 62
    0
370
   -2
100
AcDbLine
 10
1148.75
 20
2470
 11
1116.25
 21
2470
  0
ENDBLK
  5
6A
330
68
100
AcDbEntity
  8
0
100
AcDbBlockEnd
  0
BLOCK
  5
6C
330
6B
100
AcDbEntity
  8
0
100
AcDbBlockBegin
  2
*D26
 70
    1
 10
0
 20
0
  3
*D26
  1

  0
LINE
  5
113
100
AcDbEntity
  8
cotation
  6
ByBlock
 62
    0
370
   -2
100
AcDbLine
 10
300
 20
2195
 11
300
 21
2065
  0
SOLID
  5
114
100
AcDbEntity
  8
cotation
  6
ByBlock
 62
    0
370
   -2
100
AcDbTrace
 10
300
 20
2195
 30
0
 11
307.4931238399111
 21
2150
 31
0
 12
292.5068761600889
 22
2150
 32
0
 13
292.5068761600889
 23
2150
 33
0
  0
SOLID
  5
115
100
AcDbEntity
  8
cotation
  6
ByBlock
 62
    0
370
   -2
100
AcDbTrace
 10
300
 20
2065
 30
0
 11
292.5068761600889
 21
2110
 31
0
 12
307.4931238399112
 22
2110
 32
0
 13
307.4931238399112
 23
2110
 33
0
  0
MTEXT
  5
116
100
AcDbEntity
  8
cotation
  6
CONTINUOUS
 62
    0
370
   -2
100
AcDbMText
 10
262.5
 20
2130
 30
0
 40
45
 41
80.00000000000279
 71
    5
 72
    1
  1
130
  7
standard
210
0
220
0
230
1
 50
90
 73
    2
 44
1
  0
LINE
  5
117
100
AcDbEntity
  8
cotation
  6
ByBlock
 62
    0
370
   -2
100
AcDbLine
 10
327.25
 20
2195
 11
296.25
 21
2195
  0
LINE
  5
118
100
AcDbEntity
  8
cotation
  6
ByBlock
 62
    0
370
   -2
100
AcDbLine
 10
327.25
 20
2065
 11
296.25
 21
2065
  0
ENDBLK
  5
6D
330
6B
100
AcDbEntity
  8
0
100
AcDbBlockEnd
  0
BLOCK
  5
6F
330
6E
100
AcDbEntity
  8
0
100
AcDbBlockBegin
  2
*D4
 70
    1
 10
0
 20
0
  3
*D4
  1

  0
LINE
  5
119
100
AcDbEntity
  8
cotation
  6
ByBlock
 62
    0
370
   -2
100
AcDbLine
 10
-400
 20
2019.999999999985
 11
-400
 21
1280
  0
SOLID
  5
11A
100
AcDbEntity
  8
cotation
  6
ByBlock
 62
    0
370
   -2
100
AcDbTrace
 10
-400
 20
2019.999999999985
 30
0
 11
-392.5068761600889
 21
1974.999999999985
 31
0
 12
-407.4931238399111
 22
1974.999999999985
 32
0
 13
-407.4931238399111
 23
1974.999999999985
 33
0
  0
SOLID
  5
11B
100
AcDbEntity
  8
cotation
  6
ByBlock
 62
    0
370
   -2
100
AcDbTrace
 10
-400
 20
1280
 30
0
 11
-407.4931238399111
 21
1325
 31
0
 12
-392.5068761600888
 22
1325
 32
0
 13
-392.5068761600888
 23
1325
 33
0
  0
MTEXT
  5
11C
100
AcDbEntity
  8
cotation
  6
CONTINUOUS
 62
    0
370
   -2
100
AcDbMText
 10
-437.5
 20
1649.999999999992
 30
0
 40
45
 41
95
 71
    5
 72
    1
  1
740
  7
standard
210
0
220
0
230
1
 50
90
 73
    2
 44
1
  0
LINE
  5
11D
100
AcDbEntity
  8
cotation
  6
ByBlock
 62
    0
370
   -2
100
AcDbLine
 10
81.25
 20
2019.999999999985
 11
-403.75
 21
2019.999999999985
  0
LINE
  5
11E
100
AcDbEntity
  8
cotation
  6
ByBlock
 62
    0
370
   -2
100
AcDbLine
 10
76.25000000000057
 20
1280
 11
-403.75
 21
1280
  0
ENDBLK
  5
70
330
6E
100
AcDbEntity
  8
0
100
AcDbBlockEnd
  0
BLOCK
  5
72
330
71
100
AcDbEntity
  8
0
100
AcDbBlockBegin
  2
*D27
 70
    1
 10
0
 20
0
  3
*D27
  1

  0
LINE
  5
11F
100
AcDbEntity
  8
cotation
  6
ByBlock
 62
    0
370
   -2
100
AcDbLine
 10
-300
 20
915
 11
-300
 21
525
  0
SOLID
  5
120
100
AcDbEntity
  8
cotation
  6
ByBlock
 62
    0
370
   -2
100
AcDbTrace
 10
-300
 20
915
 30
0
 11
-292.5068761600889
 21
870
 31
0
 12
-307.4931238399111
 22
870
 32
0
 13
-307.4931238399111
 23
870
 33
0
  0
SOLID
  5
121
100
AcDbEntity
  8
cotation
  6
ByBlock
 62
    0
370
   -2
100
AcDbTrace
 10
-300
 20
525
 30
0
 11
-307.4931238399111
 21
570
 31
0
 12
-292.5068761600888
 22
570
 32
0
 13
-292.5068761600888
 23
570
 33
0
  0
MTEXT
  5
122
100
AcDbEntity
  8
cotation
  6
CONTINUOUS
 62
    0
370
   -2
100
AcDbMText
 10
-337.5
 20
720
 30
0
 40
45
 41
90.00000000000279
 71
    5
 72
    1
  1
390
  7
standard
210
0
220
0
230
1
 50
90
 73
    2
 44
1
  0
LINE
  5
123
100
AcDbEntity
  8
cotation
  6
ByBlock
 62
    0
370
   -2
100
AcDbLine
 10
-18.75
 20
915
 11
-303.75
 21
915
  0
LINE
  5
124
100
AcDbEntity
  8
cotation
  6
ByBlock
 62
    0
370
   -2
100
AcDbLine
 10
-18.75
 20
525
 11
-303.75
 21
525
  0
ENDBLK
  5
73
330
71
100
AcDbEntity
  8
0
100
AcDbBlockEnd
  0
BLOCK
  5
75
330
74
100
AcDbEntity
  8
0
100
AcDbBlockBegin
  2
*D14
 70
    1
 10
0
 20
0
  3
*D14
  1

  0
LINE
  5
125
100
AcDbEntity
  8
cotation
  6
ByBlock
 62
    0
370
   -2
100
AcDbLine
 10
1250
 20
1950
 11
1550
 21
1950
  0
SOLID
  5
126
100
AcDbEntity
  8
cotation
  6
ByBlock
 62
    0
370
   -2
100
AcDbTrace
 10
1250
 20
1950
 30
0
 11
1295
 21
1957.493123839911
 31
0
 12
1295
 22
1942.506876160089
 32
0
 13
1295
 23
1942.506876160089
 33
0
  0
SOLID
  5
127
100
AcDbEntity
  8
cotation
  6
ByBlock
 62
    0
370
   -2
100
AcDbTrace
 10
1550
 20
1950
 30
0
 11
1505
 21
1942.506876160089
 31
0
 12
1505
 22
1957.493123839911
 32
0
 13
1505
 23
1957.493123839911
 33
0
  0
MTEXT
  5
128
100
AcDbEntity
  8
cotation
  6
CONTINUOUS
 62
    0
370
   -2
100
AcDbMText
 10
1400
 20
1987.5
 30
0
 40
45
 41
90.00000000000279
 71
    5
 72
    1
  1
300
  7
standard
210
0
220
0
230
1
 50
0
 73
    2
 44
1
  0
LINE
  5
129
100
AcDbEntity
  8
cotation
  6
ByBlock
 62
    0
370
   -2
100
AcDbLine
 10
1250
 20
2021.25
 11
1250
 21
1946.25
  0
LINE
  5
12A
100
AcDbEntity
  8
cotation
  6
ByBlock
 62
    0
370
   -2
100
AcDbLine
 10
1550
 20
2021.25
 11
1550
 21
1946.25
  0
ENDBLK
  5
76
330
74
100
AcDbEntity
  8
0
100
AcDbBlockEnd
  0
BLOCK
  5
78
330
77
100
AcDbEntity
  8
0
100
AcDbBlockBegin
  2
*D15
 70
    1
 10
0
 20
0
  3
*D15
  1

  0
LINE
  5
12B
100
AcDbEntity
  8
cotation
  6
ByBlock
 62
    0
370
   -2
100
AcDbLine
 10
346
 20
1970
 11
696
 21
1970
  0
SOLID
  5
12C
100
AcDbEntity
  8
cotation
  6
ByBlock
 62
    0
370
   -2
100
AcDbTrace
 10
346
 20
1970
 30
0
 11
391
 21
1977.493123839911
 31
0
 12
391
 22
1962.506876160089
 32
0
 13
391
 23
1962.506876160089
 33
0
  0
SOLID
  5
12D
100
AcDbEntity
  8
cotation
  6
ByBlock
 62
    0
370
   -2
100
AcDbTrace
 10
696
 20
1970
 30
0
 11
651
 21
1962.506876160089
 31
0
 12
651
 22
1977.493123839911
 32
0
 13
651
 23
1977.493123839911
 33
0
  0
MTEXT
  5
12E
100
AcDbEntity
  8
cotation
  6
CONTINUOUS
 62
    0
370
   -2
100
AcDbMText
 10
521
 20
2007.5
 30
0
 40
45
 41
90.00000000000558
 71
    5
 72
    1
  1
350
  7
standard
210
0
220
0
230
1
 50
0
 73
    2
 44
1
  0
LINE
  5
12F
100
AcDbEntity
  8
cotation
  6
ByBlock
 62
    0
370
   -2
100
AcDbLine
 10
346
 20
2046.25
 11
346
 21
1966.25
  0
LINE
  5
130
100
AcDbEntity
  8
cotation
  6
ByBlock
 62
    0
370
   -2
100
AcDbLine
 10
696
 20
2046.25
 11
696
 21
1966.25
  0
ENDBLK
  5
79
330
77
100
AcDbEntity
  8
0
100
AcDbBlockEnd
  0
BLOCK
  5
7B
330
7A
100
AcDbEntity
  8
0
100
AcDbBlockBegin
  2
*D25
 70
    1
 10
0
 20
0
  3
*D25
  1

  0
LINE
  5
131
100
AcDbEntity
  8
cotation
  6
ByBlock
 62
    0
370
   -2
100
AcDbLine
 10
-200
 20
895
 11
-200
 21
545
  0
SOLID
  5
132
100
AcDbEntity
  8
cotation
  6
ByBlock
 62
    0
370
   -2
100
AcDbTrace
 10
-200
 20
895
 30
0
 11
-192.5068761600889
 21
850
 31
0
 12
-207.4931238399111
 22
850
 32
0
 13
-207.4931238399111
 23
850
 33
0
  0
SOLID
  5
133
100
AcDbEntity
  8
cotation
  6
ByBlock
 62
    0
370
   -2
100
AcDbTrace
 10
-200
 20
545
 30
0
 11
-207.4931238399111
 21
590
 31
0
 12
-192.5068761600889
 22
590
 32
0
 13
-192.5068761600889
 23
590
 33
0
  0
MTEXT
  5
134
100
AcDbEntity
  8
cotation
  6
CONTINUOUS
 62
    0
370
   -2
100
AcDbMText
 10
-237.5
 20
720
 30
0
 40
45
 41
90.00000000000558
 71
    5
 72
    1
  1
350
  7
standard
210
0
220
0
230
1
 50
90
 73
    2
 44
1
  0
LINE
  5
135
100
AcDbEntity
  8
cotation
  6
ByBlock
 62
    0
370
   -2
100
AcDbLine
 10
-53.75
 20
895
 11
-203.75
 21
895
  0
LINE
  5
136
100
AcDbEntity
  8
cotation
  6
ByBlock
 62
    0
370
   -2
100
AcDbLine
 10
-53.75
 20
545
 11
-203.75
 21
545
  0
ENDBLK
  5
7C
330
7A
100
AcDbEntity
  8
0
100
AcDbBlockEnd
  0
BLOCK
  5
7E
330
7D
100
AcDbEntity
  8
0
100
AcDbBlockBegin
  2
*D29
 70
    1
 10
0
 20
0
  3
*D29
  1

  0
LINE
  5
137
100
AcDbEntity
  8
cotation
  6
ByBlock
 62
    0
370
   -2
100
AcDbLine
 10
870.0000000000002
 20
2600
 11
310
 21
2600
  0
SOLID
  5
138
100
AcDbEntity
  8
cotation
  6
ByBlock
 62
    0
370
   -2
100
AcDbTrace
 10
870.0000000000002
 20
2600
 30
0
 11
825.0000000000002
 21
2592.506876160089
 31
0
 12
825.0000000000002
 22
2607.493123839911
 32
0
 13
825.0000000000002
 23
2607.493123839911
 33
0
  0
SOLID
  5
139
100
AcDbEntity
  8
cotation
  6
ByBlock
 62
    0
370
   -2
100
AcDbTrace
 10
310
 20
2600
 30
0
 11
355
 21
2607.493123839911
 31
0
 12
355
 22
2592.506876160089
 32
0
 13
355
 23
2592.506876160089
 33
0
  0
MTEXT
  5
13A
100
AcDbEntity
  8
cotation
  6
CONTINUOUS
 62
    0
370
   -2
100
AcDbMText
 10
590.0000000000001
 20
2637.5
 30
0
 40
45
 41
90.00000000000558
 71
    5
 72
    1
  1
560
  7
standard
210
0
220
0
230
1
 50
360
 73
    2
 44
1
  0
LINE
  5
13B
100
AcDbEntity
  8
cotation
  6
ByBlock
 62
    0
370
   -2
100
AcDbLine
 10
870.0000000000001
 20
2396.25
 11
870.0000000000002
 21
2603.75
  0
LINE
  5
13C
100
AcDbEntity
  8
cotation
  6
ByBlock
 62
    0
370
   -2
100
AcDbLine
 10
310
 20
2396.25
 11
310
 21
2603.75
  0
ENDBLK
  5
7F
330
7D
100
AcDbEntity
  8
0
100
AcDbBlockEnd
  0
BLOCK
  5
81
330
80
100
AcDbEntity
  8
0
100
AcDbBlockBegin
  2
*D31
 70
    1
 10
0
 20
0
  3
*D31
  1

  0
LINE
  5
13D
100
AcDbEntity
  8
cotation
  6
ByBlock
 62
    0
370
   -2
100
AcDbLine
 10
1700
 20
2496
 11
1700
 21
2260
  0
SOLID
  5
13E
100
AcDbEntity
  8
cotation
  6
ByBlock
 62
    0
370
   -2
100
AcDbTrace
 10
1700
 20
2406
 30
0
 11
1692.506876160089
 21
2451
 31
0
 12
1707.493123839911
 22
2451
 32
0
 13
1707.493123839911
 23
2451
 33
0
  0
SOLID
  5
13F
100
AcDbEntity
  8
cotation
  6
ByBlock
 62
    0
370
   -2
100
AcDbTrace
 10
1700
 20
2350
 30
0
 11
1707.493123839911
 21
2305
 31
0
 12
1692.506876160089
 22
2305
 32
0
 13
1692.506876160089
 23
2305
 33
0
  0
MTEXT
  5
140
100
AcDbEntity
  8
cotation
  6
CONTINUOUS
 62
    0
370
   -2
100
AcDbMText
 10
1662.5
 20
2378
 30
0
 40
45
 41
55.00000000000558
 71
    5
 72
    1
  1
56
  7
standard
210
0
220
0
230
1
 50
90
 73
    2
 44
1
  0
LINE
  5
141
100
AcDbEntity
  8
cotation
  6
ByBlock
 62
    0
370
   -2
100
AcDbLine
 10
1578.75
 20
2406
 11
1703.75
 21
2406
  0
LINE
  5
142
100
AcDbEntity
  8
cotation
  6
ByBlock
 62
    0
370
   -2
100
AcDbLine
 10
1578.75
 20
2350
 11
1703.75
 21
2350
  0
ENDBLK
  5
82
330
80
100
AcDbEntity
  8
0
100
AcDbBlockEnd
  0
BLOCK
  5
84
330
83
100
AcDbEntity
  8
0
100
AcDbBlockBegin
  2
*D19
 70
    1
 10
0
 20
0
  3
*D19
  1

  0
LINE
  5
143
100
AcDbEntity
  8
cotation
  6
ByBlock
 62
    0
370
   -2
100
AcDbLine
 10
440
 20
2300
 11
310
 21
2300
  0
SOLID
  5
144
100
AcDbEntity
  8
cotation
  6
ByBlock
 62
    0
370
   -2
100
AcDbTrace
 10
440
 20
2300
 30
0
 11
395
 21
2292.506876160089
 31
0
 12
395
 22
2307.493123839911
 32
0
 13
395
 23
2307.493123839911
 33
0
  0
SOLID
  5
145
100
AcDbEntity
  8
cotation
  6
ByBlock
 62
    0
370
   -2
100
AcDbTrace
 10
310
 20
2300
 30
0
 11
355
 21
2307.493123839911
 31
0
 12
355
 22
2292.506876160089
 32
0
 13
355
 23
2292.506876160089
 33
0
  0
MTEXT
  5
146
100
AcDbEntity
  8
cotation
  6
CONTINUOUS
 62
    0
370
   -2
100
AcDbMText
 10
375
 20
2337.5
 30
0
 40
45
 41
80.00000000000279
 71
    5
 72
    1
  1
130
  7
standard
210
0
220
0
230
1
 50
360
 73
    2
 44
1
  0
LINE
  5
147
100
AcDbEntity
  8
cotation
  6
ByBlock
 62
    0
370
   -2
100
AcDbLine
 10
440
 20
2361.25
 11
440
 21
2296.25
  0
LINE
  5
148
100
AcDbEntity
  8
cotation
  6
ByBlock
 62
    0
370
   -2
100
AcDbLine
 10
310
 20
2361.25
 11
310
 21
2296.25
  0
ENDBLK
  5
85
330
83
100
AcDbEntity
  8
0
100
AcDbBlockEnd
  0
BLOCK
  5
87
330
86
100
AcDbEntity
  8
0
100
AcDbBlockBegin
  2
*D32
 70
    1
 10
0
 20
0
  3
*D32
  1

  0
LINE
  5
149
100
AcDbEntity
  8
cotation
  6
ByBlock
 62
    0
370
   -2
100
AcDbLine
 10
2900
 20
2470
 11
2900
 21
2170
  0
SOLID
  5
14A
100
AcDbEntity
  8
cotation
  6
ByBlock
 62
    0
370
   -2
100
AcDbTrace
 10
2900
 20
2470
 30
0
 11
2907.493123839911
 21
2425
 31
0
 12
2892.506876160089
 22
2425
 32
0
 13
2892.506876160089
 23
2425
 33
0
  0
SOLID
  5
14B
100
AcDbEntity
  8
cotation
  6
ByBlock
 62
    0
370
   -2
100
AcDbTrace
 10
2900
 20
2170
 30
0
 11
2892.506876160089
 21
2215
 31
0
 12
2907.493123839911
 22
2215
 32
0
 13
2907.493123839911
 23
2215
 33
0
  0
MTEXT
  5
14C
100
AcDbEntity
  8
cotation
  6
CONTINUOUS
 62
    0
370
   -2
100
AcDbMText
 10
2862.5
 20
2320
 30
0
 40
45
 41
90.00000000000279
 71
    5
 72
    1
  1
300
  7
standard
210
0
220
0
230
1
 50
90
 73
    2
 44
1
  0
LINE
  5
14D
100
AcDbEntity
  8
cotation
  6
ByBlock
 62
    0
370
   -2
100
AcDbLine
 10
2981.25
 20
2470
 11
2896.25
 21
2470
  0
LINE
  5
14E
100
AcDbEntity
  8
cotation
  6
ByBlock
 62
    0
370
   -2
100
AcDbLine
 10
2981.25
 20
2170
 11
2896.25
 21
2170
  0
ENDBLK
  5
88
330
86
100
AcDbEntity
  8
0
100
AcDbBlockEnd
  0
BLOCK
  5
8A
330
89
100
AcDbEntity
  8
0
100
AcDbBlockBegin
  2
*D8
 70
    1
 10
0
 20
0
  3
*D8
  1

  0
LINE
  5
14F
100
AcDbEntity
  8
cotation
  6
ByBlock
 62
    0
370
   -2
100
AcDbLine
 10
2500
 20
2268
 11
2500
 21
2032
  0
SOLID
  5
150
100
AcDbEntity
  8
cotation
  6
ByBlock
 62
    0
370
   -2
100
AcDbTrace
 10
2500
 20
2178
 30
0
 11
2492.506876160089
 21
2223
 31
0
 12
2507.493123839911
 22
2223
 32
0
 13
2507.493123839911
 23
2223
 33
0
  0
SOLID
  5
151
100
AcDbEntity
  8
cotation
  6
ByBlock
 62
    0
370
   -2
100
AcDbTrace
 10
2500
 20
2122
 30
0
 11
2507.493123839911
 21
2077
 31
0
 12
2492.506876160089
 22
2077
 32
0
 13
2492.506876160089
 23
2077
 33
0
  0
MTEXT
  5
152
100
AcDbEntity
  8
cotation
  6
CONTINUOUS
 62
    0
370
   -2
100
AcDbMText
 10
2462.5
 20
2150
 30
0
 40
45
 41
55.00000000000558
 71
    5
 72
    1
  1
56
  7
standard
210
0
220
0
230
1
 50
90
 73
    2
 44
1
  0
LINE
  5
153
100
AcDbEntity
  8
cotation
  6
ByBlock
 62
    0
370
   -2
100
AcDbLine
 10
2378.75
 20
2178
 11
2503.75
 21
2178
  0
LINE
  5
154
100
AcDbEntity
  8
cotation
  6
ByBlock
 62
    0
370
   -2
100
AcDbLine
 10
2378.75
 20
2122
 11
2503.75
 21
2122
  0
ENDBLK
  5
8B
330
89
100
AcDbEntity
  8
0
100
AcDbBlockEnd
  0
BLOCK
  5
8D
330
8C
100
AcDbEntity
  8
0
100
AcDbBlockBegin
  2
*D12
 70
    1
 10
0
 20
0
  3
*D12
  1

  0
LINE
  5
155
100
AcDbEntity
  8
cotation
  6
ByBlock
 62
    0
370
   -2
100
AcDbLine
 10
0
 20
2800
 11
1360
 21
2800
  0
SOLID
  5
156
100
AcDbEntity
  8
cotation
  6
ByBlock
 62
    0
370
   -2
100
AcDbTrace
 10
0
 20
2800
 30
0
 11
45
 21
2807.493123839911
 31
0
 12
45
 22
2792.506876160089
 32
0
 13
45
 23
2792.506876160089
 33
0
  0
SOLID
  5
157
100
AcDbEntity
  8
cotation
  6
ByBlock
 62
    0
370
   -2
100
AcDbTrace
 10
1360
 20
2800
 30
0
 11
1315
 21
2792.506876160089
 31
0
 12
1315
 22
2807.493123839911
 32
0
 13
1315
 23
2807.493123839911
 33
0
  0
MTEXT
  5
158
100
AcDbEntity
  8
cotation
  6
CONTINUOUS
 62
    0
370
   -2
100
AcDbMText
 10
680
 20
2837.5
 30
0
 40
45
 41
115.0000000000056
 71
    5
 72
    1
  1
1360
  7
standard
210
0
220
0
230
1
 50
0
 73
    2
 44
1
  0
LINE
  5
159
100
AcDbEntity
  8
cotation
  6
ByBlock
 62
    0
370
   -2
100
AcDbLine
 10
1.148106374200644e-15
 20
2258.75
 11
2.296212748401287e-16
 21
2803.75
  0
LINE
  5
15A
100
AcDbEntity
  8
cotation
  6
ByBlock
 62
    0
370
   -2
100
AcDbLine
 10
1360
 20
2258.75
 11
1360
 21
2803.75
  0
ENDBLK
  5
8E
330
8C
100
AcDbEntity
  8
0
100
AcDbBlockEnd
  0
BLOCK
  5
90
330
8F
100
AcDbEntity
  8
0
100
AcDbBlockBegin
  2
*D17
 70
    1
 10
0
 20
0
  3
*D17
  1

  0
LINE
  5
15B
100
AcDbEntity
  8
cotation
  6
ByBlock
 62
    0
370
   -2
100
AcDbLine
 10
1160
 20
1820
 11
1384
 21
1820
  0
SOLID
  5
15C
100
AcDbEntity
  8
cotation
  6
ByBlock
 62
    0
370
   -2
100
AcDbTrace
 10
1250
 20
1820
 30
0
 11
1205
 21
1812.506876160089
 31
0
 12
1205
 22
1827.493123839911
 32
0
 13
1205
 23
1827.493123839911
 33
0
  0
SOLID
  5
15D
100
AcDbEntity
  8
cotation
  6
ByBlock
 62
    0
370
   -2
100
AcDbTrace
 10
1294
 20
1820
 30
0
 11
1339
 21
1827.493123839911
 31
0
 12
1339
 22
1812.506876160089
 32
0
 13
1339
 23
1812.506876160089
 33
0
  0
MTEXT
  5
15E
100
AcDbEntity
  8
cotation
  6
CONTINUOUS
 62
    0
370
   -2
100
AcDbMText
 10
1341.5
 20
1857.5
 30
0
 40
45
 41
65
 71
    5
 72
    1
  1
44
  7
standard
210
0
220
0
230
1
 50
0
 73
    2
 44
1
  0
LINE
  5
15F
100
AcDbEntity
  8
cotation
  6
ByBlock
 62
    0
370
   -2
100
AcDbLine
 10
1250
 20
1820.75
 11
1250
 21
1823.75
  0
LINE
  5
160
100
AcDbEntity
  8
cotation
  6
ByBlock
 62
    0
370
   -2
100
AcDbLine
 10
1294
 20
1820.75
 11
1294
 21
1823.75
  0
ENDBLK
  5
91
330
8F
100
AcDbEntity
  8
0
100
AcDbBlockEnd
  0
BLOCK
  5
93
330
92
100
AcDbEntity
  8
0
100
AcDbBlockBegin
  2
*D20
 70
    1
 10
0
 20
0
  3
*D20
  1

  0
LINE
  5
161
100
AcDbEntity
  8
cotation
  6
ByBlock
 62
    0
370
   -2
100
AcDbLine
 10
640
 20
2320
 11
640
 21
2560
  0
SOLID
  5
162
100
AcDbEntity
  8
cotation
  6
ByBlock
 62
    0
370
   -2
100
AcDbTrace
 10
640
 20
2410
 30
0
 11
647.4931238399112
 21
2365
 31
0
 12
632.5068761600888
 22
2365
 32
0
 13
632.5068761600888
 23
2365
 33
0
  0
SOLID
  5
163
100
AcDbEntity
  8
cotation
  6
ByBlock
 62
    0
370
   -2
100
AcDbTrace
 10
640
 20
2470
 30
0
 11
632.5068761600888
 21
2515
 31
0
 12
647.4931238399112
 22
2515
 32
0
 13
647.4931238399112
 23
2515
 33
0
  0
MTEXT
  5
164
100
AcDbEntity
  8
cotation
  6
CONTINUOUS
 62
    0
370
   -2
100
AcDbMText
 10
602.5
 20
2440
 30
0
 40
45
 41
55.00000000000279
 71
    5
 72
    1
  1
60
  7
standard
210
0
220
0
230
1
 50
90
 73
    2
 44
1
  0
LINE
  5
165
100
AcDbEntity
  8
cotation
  6
ByBlock
 62
    0
370
   -2
100
AcDbLine
 10
528.75
 20
2410
 11
643.75
 21
2410
  0
LINE
  5
166
100
AcDbEntity
  8
cotation
  6
ByBlock
 62
    0
370
   -2
100
AcDbLine
 10
528.75
 20
2470
 11
643.75
 21
2470
  0
ENDBLK
  5
94
330
92
100
AcDbEntity
  8
0
100
AcDbBlockEnd
  0
BLOCK
  5
96
330
95
100
AcDbEntity
  8
0
100
AcDbBlockBegin
  2
*D30
 70
    1
 10
0
 20
0
  3
*D30
  1

  0
LINE
  5
167
100
AcDbEntity
  8
cotation
  6
ByBlock
 62
    0
370
   -2
100
AcDbLine
 10
870
 20
2600
 11
1135
 21
2600
  0
SOLID
  5
168
100
AcDbEntity
  8
cotation
  6
ByBlock
 62
    0
370
   -2
100
AcDbTrace
 10
870
 20
2600
 30
0
 11
915
 21
2607.493123839911
 31
0
 12
915
 22
2592.506876160089
 32
0
 13
915
 23
2592.506876160089
 33
0
  0
SOLID
  5
169
100
AcDbEntity
  8
cotation
  6
ByBlock
 62
    0
370
   -2
100
AcDbTrace
 10
1135
 20
2600
 30
0
 11
1090
 21
2592.506876160089
 31
0
 12
1090
 22
2607.493123839911
 32
0
 13
1090
 23
2607.493123839911
 33
0
  0
MTEXT
  5
16A
100
AcDbEntity
  8
cotation
  6
CONTINUOUS
 62
    0
370
   -2
100
AcDbMText
 10
1002.5
 20
2637.5
 30
0
 40
45
 41
90.00000000000558
 71
    5
 72
    1
  1
265
  7
standard
210
0
220
0
230
1
 50
0
 73
    2
 44
1
  0
LINE
  5
16B
100
AcDbEntity
  8
cotation
  6
ByBlock
 62
    0
370
   -2
100
AcDbLine
 10
870
 20
2396.25
 11
870
 21
2603.75
  0
LINE
  5
16C
100
AcDbEntity
  8
cotation
  6
ByBlock
 62
    0
370
   -2
100
AcDbLine
 10
1135
 20
2396.250057561163
 11
1135
 21
2603.75
  0
ENDBLK
  5
97
330
95
100
AcDbEntity
  8
0
100
AcDbBlockEnd
  0
BLOCK
  5
99
330
98
100
AcDbEntity
  8
0
100
AcDbBlockBegin
  2
*D35
 70
    1
 10
0
 20
0
  3
*D35
  1

  0
LINE
  5
16D
100
AcDbEntity
  8
cotation
  6
ByBlock
 62
    0
370
   -2
100
AcDbLine
 10
3200
 20
2560
 11
3200
 21
2316
  0
SOLID
  5
16E
100
AcDbEntity
  8
cotation
  6
ByBlock
 62
    0
370
   -2
100
AcDbTrace
 10
3200
 20
2470
 30
0
 11
3192.506876160089
 21
2515
 31
0
 12
3207.493123839911
 22
2515
 32
0
 13
3207.493123839911
 23
2515
 33
0
  0
SOLID
  5
16F
100
AcDbEntity
  8
cotation
  6
ByBlock
 62
    0
370
   -2
100
AcDbTrace
 10
3200
 20
2406
 30
0
 11
3207.493123839911
 21
2361
 31
0
 12
3192.506876160089
 22
2361
 32
0
 13
3192.506876160089
 23
2361
 33
0
  0
MTEXT
  5
170
100
AcDbEntity
  8
cotation
  6
CONTINUOUS
 62
    0
370
   -2
100
AcDbMText
 10
3162.5
 20
2438
 30
0
 40
45
 41
60.00000000000279
 71
    5
 72
    1
  1
64
  7
standard
210
0
220
0
230
1
 50
90
 73
    2
 44
1
  0
LINE
  5
171
100
AcDbEntity
  8
cotation
  6
ByBlock
 62
    0
370
   -2
100
AcDbLine
 10
3036.75
 20
2470
 11
3203.75
 21
2470
  0
LINE
  5
172
100
AcDbEntity
  8
cotation
  6
ByBlock
 62
    0
370
   -2
100
AcDbLine
 10
3036.75
 20
2406
 11
3203.75
 21
2406
  0
ENDBLK
  5
9A
330
98
100
AcDbEntity
  8
0
100
AcDbBlockEnd
  0
BLOCK
  5
9C
330
9B
100
AcDbEntity
  8
0
100
AcDbBlockBegin
  2
*D6
 70
    1
 10
0
 20
0
  3
*D6
  1

  0
LINE
  5
173
100
AcDbEntity
  8
cotation
  6
ByBlock
 62
    0
370
   -2
100
AcDbLine
 10
200
 20
1190
 11
200
 21
1436
  0
SOLID
  5
174
100
AcDbEntity
  8
cotation
  6
ByBlock
 62
    0
370
   -2
100
AcDbTrace
 10
200
 20
1280
 30
0
 11
207.4931238399111
 21
1235
 31
0
 12
192.5068761600889
 22
1235
 32
0
 13
192.5068761600889
 23
1235
 33
0
  0
SOLID
  5
175
100
AcDbEntity
  8
cotation
  6
ByBlock
 62
    0
370
   -2
100
AcDbTrace
 10
200
 20
1346
 30
0
 11
192.5068761600889
 21
1391
 31
0
 12
207.4931238399111
 22
1391
 32
0
 13
207.4931238399111
 23
1391
 33
0
  0
MTEXT
  5
176
100
AcDbEntity
  8
cotation
  6
CONTINUOUS
 62
    0
370
   -2
100
AcDbMText
 10
162.5
 20
1313
 30
0
 40
45
 41
55.00000000000558
 71
    5
 72
    1
  1
66
  7
standard
210
0
220
0
230
1
 50
89.99999999999999
 73
    2
 44
1
  0
LINE
  5
177
100
AcDbEntity
  8
cotation
  6
ByBlock
 62
    0
370
   -2
100
AcDbLine
 10
118.75
 20
1280
 11
203.75
 21
1280
  0
LINE
  5
178
100
AcDbEntity
  8
cotation
  6
ByBlock
 62
    0
370
   -2
100
AcDbLine
 10
118.75
 20
1346
 11
203.75
 21
1346
  0
ENDBLK
  5
9D
330
9B
100
AcDbEntity
  8
0
100
AcDbBlockEnd
  0
BLOCK
  5
9F
330
9E
100
AcDbEntity
  8
0
100
AcDbBlockBegin
  2
*D28
 70
    1
 10
0
 20
0
  3
*D28
  1

  0
LINE
  5
179
100
AcDbEntity
  8
cotation
  6
ByBlock
 62
    0
370
   -2
100
AcDbLine
 10
-300
 20
525
 11
-300
 21
0
  0
SOLID
  5
17A
100
AcDbEntity
  8
cotation
  6
ByBlock
 62
    0
370
   -2
100
AcDbTrace
 10
-300
 20
525
 30
0
 11
-292.5068761600889
 21
480
 31
0
 12
-307.4931238399111
 22
480
 32
0
 13
-307.4931238399111
 23
480
 33
0
  0
SOLID
  5
17B
100
AcDbEntity
  8
cotation
  6
ByBlock
 62
    0
370
   -2
100
AcDbTrace
 10
-300
 20
0
 30
0
 11
-307.4931238399111
 21
45
 31
0
 12
-292.5068761600888
 22
45
 32
0
 13
-292.5068761600888
 23
45
 33
0
  0
MTEXT
  5
17C
100
AcDbEntity
  8
cotation
  6
CONTINUOUS
 62
    0
370
   -2
100
AcDbMText
 10
-337.5
 20
262.5
 30
0
 40
45
 41
90.00000000000558
 71
    5
 72
    1
  1
525
  7
standard
210
0
220
0
230
1
 50
90
 73
    2
 44
1
  0
LINE
  5
17D
100
AcDbEntity
  8
cotation
  6
ByBlock
 62
    0
370
   -2
100
AcDbLine
 10
-18.75
 20
525
 11
-303.75
 21
525
  0
LINE
  5
17E
100
AcDbEntity
  8
cotation
  6
ByBlock
 62
    0
370
   -2
100
AcDbLine
 10
-18.75
 20
2.296212748401287e-15
 11
-303.75
 21
4.592425496802575e-16
  0
ENDBLK
  5
A0
330
9E
100
AcDbEntity
  8
0
100
AcDbBlockEnd
  0
BLOCK
  5
A2
330
A1
100
AcDbEntity
  8
0
100
AcDbBlockBegin
  2
*D1
 70
    1
 10
0
 20
0
  3
*D1
  1

  0
LINE
  5
17F
100
AcDbEntity
  8
cotation
  6
ByBlock
 62
    0
370
   -2
100
AcDbLine
 10
-100
 20
1930
 11
-99.99999999999999
 21
2185
  0
SOLID
  5
180
100
AcDbEntity
  8
cotation
  6
ByBlock
 62
    0
370
   -2
100
AcDbTrace
 10
-100
 20
2020
 30
0
 11
-92.50687616008888
 21
1975
 31
0
 12
-107.4931238399111
 22
1975
 32
0
 13
-107.4931238399111
 23
1975
 33
0
  0
SOLID
  5
181
100
AcDbEntity
  8
cotation
  6
ByBlock
 62
    0
370
   -2
100
AcDbTrace
 10
-100
 20
2095
 30
0
 11
-107.4931238399111
 21
2140
 31
0
 12
-92.50687616008886
 22
2140
 32
0
 13
-92.50687616008886
 23
2140
 33
0
  0
MTEXT
  5
182
100
AcDbEntity
  8
cotation
  6
CONTINUOUS
 62
    0
370
   -2
100
AcDbMText
 10
-137.5
 20
2057.5
 30
0
 40
45
 41
55.00000000000279
 71
    5
 72
    1
  1
75
  7
standard
210
0
220
0
230
1
 50
90
 73
    2
 44
1
  0
LINE
  5
183
100
AcDbEntity
  8
cotation
  6
ByBlock
 62
    0
370
   -2
100
AcDbLine
 10
-18.75
 20
2020
 11
-103.75
 21
2020
  0
LINE
  5
184
100
AcDbEntity
  8
cotation
  6
ByBlock
 62
    0
370
   -2
100
AcDbLine
 10
-18.75
 20
2095
 11
-103.75
 21
2095
  0
ENDBLK
  5
A3
330
A1
100
AcDbEntity
  8
0
100
AcDbBlockEnd
  0
BLOCK
  5
A5
330
A4
100
AcDbEntity
  8
0
100
AcDbBlockBegin
  2
*D34
 70
    1
 10
0
 20
0
  3
*D34
  1

  0
LINE
  5
185
100
AcDbEntity
  8
cotation
  6
ByBlock
 62
    0
370
   -2
100
AcDbLine
 10
3580
 20
2330
 11
3580
 21
2132
  0
SOLID
  5
186
100
AcDbEntity
  8
cotation
  6
ByBlock
 62
    0
370
   -2
100
AcDbTrace
 10
3580
 20
2240
 30
0
 11
3572.506876160089
 21
2285
 31
0
 12
3587.493123839911
 22
2285
 32
0
 13
3587.493123839911
 23
2285
 33
0
  0
SOLID
  5
187
100
AcDbEntity
  8
cotation
  6
ByBlock
 62
    0
370
   -2
100
AcDbTrace
 10
3580
 20
2222
 30
0
 11
3587.493123839911
 21
2177
 31
0
 12
3572.506876160089
 22
2177
 32
0
 13
3572.506876160089
 23
2177
 33
0
  0
MTEXT
  5
188
100
AcDbEntity
  8
cotation
  6
CONTINUOUS
 62
    0
370
   -2
100
AcDbMText
 10
3542.5
 20
2277.5
 30
0
 40
45
 41
45
 71
    5
 72
    1
  1
18
  7
standard
210
0
220
0
230
1
 50
90
 73
    2
 44
1
  0
LINE
  5
189
100
AcDbEntity
  8
cotation
  6
ByBlock
 62
    0
370
   -2
100
AcDbLine
 10
3536.75
 20
2240
 11
3583.75
 21
2240
  0
LINE
  5
18A
100
AcDbEntity
  8
cotation
  6
ByBlock
 62
    0
370
   -2
100
AcDbLine
 10
3536.75
 20
2222
 11
3583.75
 21
2222
  0
ENDBLK
  5
A6
330
A4
100
AcDbEntity
  8
0
100
AcDbBlockEnd
  0
BLOCK
  5
A8
330
A7
100
AcDbEntity
  8
0
100
AcDbBlockBegin
  2
*D37
 70
    1
 10
0
 20
0
  3
*D37
  1

  0
LINE
  5
18B
100
AcDbEntity
  8
cotation
  6
ByBlock
 62
    0
370
   -2
100
AcDbLine
 10
1800
 20
2177.993738317012
 11
1800
 21
1746
  0
SOLID
  5
18C
100
AcDbEntity
  8
cotation
  6
ByBlock
 62
    0
370
   -2
100
AcDbTrace
 10
1800
 20
2177.993738317012
 30
0
 11
1807.493123839911
 21
2132.993738317012
 31
0
 12
1792.506876160089
 22
2132.993738317012
 32
0
 13
1792.506876160089
 23
2132.993738317012
 33
0
  0
SOLID
  5
18D
100
AcDbEntity
  8
cotation
  6
ByBlock
 62
    0
370
   -2
100
AcDbTrace
 10
1800
 20
1746
 30
0
 11
1792.506876160089
 21
1791
 31
0
 12
1807.493123839911
 22
1791
 32
0
 13
1807.493123839911
 23
1791
 33
0
  0
MTEXT
  5
18E
100
AcDbEntity
  8
cotation
  6
CONTINUOUS
 62
    0
370
   -2
100
AcDbMText
 10
1762.5
 20
1961.996869158506
 30
0
 40
45
 41
95.0000000000028
 71
    5
 72
    1
  1
432
  7
standard
210
0
220
0
230
1
 50
90
 73
    2
 44
1
  0
LINE
  5
18F
100
AcDbEntity
  8
cotation
  6
ByBlock
 62
    0
370
   -2
100
AcDbLine
 10
1624.75
 20
2177.993738317012
 11
1803.75
 21
2177.993738317012
  0
LINE
  5
190
100
AcDbEntity
  8
cotation
  6
ByBlock
 62
    0
370
   -2
100
AcDbLine
 10
1624.75
 20
1746
 11
1803.75
 21
1746
  0
ENDBLK
  5
A9
330
A7
100
AcDbEntity
  8
0
100
AcDbBlockEnd
  0
BLOCK
  5
AB
330
AA
100
AcDbEntity
  8
0
100
AcDbBlockBegin
  2
*D33
 70
    1
 10
0
 20
0
  3
*D33
  1

  0
LINE
  5
191
100
AcDbEntity
  8
cotation
  6
ByBlock
 62
    0
370
   -2
100
AcDbLine
 10
2500
 20
915
 11
2500
 21
415
  0
SOLID
  5
192
100
AcDbEntity
  8
cotation
  6
ByBlock
 62
    0
370
   -2
100
AcDbTrace
 10
2500
 20
915
 30
0
 11
2507.493123839911
 21
870
 31
0
 12
2492.506876160089
 22
870
 32
0
 13
2492.506876160089
 23
870
 33
0
  0
SOLID
  5
193
100
AcDbEntity
  8
cotation
  6
ByBlock
 62
    0
370
   -2
100
AcDbTrace
 10
2500
 20
415
 30
0
 11
2492.506876160089
 21
460
 31
0
 12
2507.493123839911
 22
460
 32
0
 13
2507.493123839911
 23
460
 33
0
  0
MTEXT
  5
194
100
AcDbEntity
  8
cotation
  6
CONTINUOUS
 62
    0
370
   -2
100
AcDbMText
 10
2462.5
 20
665
 30
0
 40
45
 41
90.00000000000279
 71
    5
 72
    1
  1
500
  7
standard
210
0
220
0
230
1
 50
90
 73
    2
 44
1
  0
LINE
  5
195
100
AcDbEntity
  8
cotation
  6
ByBlock
 62
    0
370
   -2
100
AcDbLine
 10
2378.75
 20
915
 11
2503.75
 21
915
  0
LINE
  5
196
100
AcDbEntity
  8
cotation
  6
ByBlock
 62
    0
370
   -2
100
AcDbLine
 10
2378.75
 20
415
 11
2503.75
 21
415
  0
ENDBLK
  5
AC
330
AA
100
AcDbEntity
  8
0
100
AcDbBlockEnd
  0
BLOCK
  5
AE
330
AD
100
AcDbEntity
  8
0
100
AcDbBlockBegin
  2
*D7
 70
    1
 10
0
 20
0
  3
*D7
  1

  0
LINE
  5
197
100
AcDbEntity
  8
cotation
  6
ByBlock
 62
    0
370
   -2
100
AcDbLine
 10
2214
 20
2050
 11
2450
 21
2050
  0
SOLID
  5
198
100
AcDbEntity
  8
cotation
  6
ByBlock
 62
    0
370
   -2
100
AcDbTrace
 10
2304
 20
2050
 30
0
 11
2259
 21
2042.506876160089
 31
0
 12
2259
 22
2057.493123839911
 32
0
 13
2259
 23
2057.493123839911
 33
0
  0
SOLID
  5
199
100
AcDbEntity
  8
cotation
  6
ByBlock
 62
    0
370
   -2
100
AcDbTrace
 10
2360
 20
2050
 30
0
 11
2405
 21
2057.493123839911
 31
0
 12
2405
 22
2042.506876160089
 32
0
 13
2405
 23
2042.506876160089
 33
0
  0
MTEXT
  5
19A
100
AcDbEntity
  8
cotation
  6
CONTINUOUS
 62
    0
370
   -2
100
AcDbMText
 10
2332
 20
2087.5
 30
0
 40
45
 41
55.00000000000558
 71
    5
 72
    1
  1
56
  7
standard
210
0
220
0
230
1
 50
0
 73
    2
 44
1
  0
LINE
  5
19B
100
AcDbEntity
  8
cotation
  6
ByBlock
 62
    0
370
   -2
100
AcDbLine
 10
2304
 20
2105.25
 11
2304
 21
2046.25
  0
LINE
  5
19C
100
AcDbEntity
  8
cotation
  6
ByBlock
 62
    0
370
   -2
100
AcDbLine
 10
2360
 20
2105.25
 11
2360
 21
2046.25
  0
ENDBLK
  5
AF
330
AD
100
AcDbEntity
  8
0
100
AcDbBlockEnd
  0
BLOCK
  5
B1
330
B0
100
AcDbEntity
  8
0
100
AcDbBlockBegin
  2
*D24
 70
    1
 10
0
 20
0
  3
*D24
  1

  0
LINE
  5
19D
100
AcDbEntity
  8
cotation
  6
ByBlock
 62
    0
370
   -2
100
AcDbLine
 10
1010
 20
2260
 11
870
 21
2260
  0
SOLID
  5
19E
100
AcDbEntity
  8
cotation
  6
ByBlock
 62
    0
370
   -2
100
AcDbTrace
 10
1010
 20
2260
 30
0
 11
965
 21
2252.506876160089
 31
0
 12
965
 22
2267.493123839911
 32
0
 13
965
 23
2267.493123839911
 33
0
  0
SOLID
  5
19F
100
AcDbEntity
  8
cotation
  6
ByBlock
 62
    0
370
   -2
100
AcDbTrace
 10
870
 20
2260
 30
0
 11
915
 21
2267.493123839911
 31
0
 12
915
 22
2252.506876160089
 32
0
 13
915
 23
2252.506876160089
 33
0
  0
MTEXT
  5
1A0
100
AcDbEntity
  8
cotation
  6
CONTINUOUS
 62
    0
370
   -2
100
AcDbMText
 10
940
 20
2297.5
 30
0
 40
45
 41
85
 71
    5
 72
    1
  1
140
  7
standard
210
0
220
0
230
1
 50
360
 73
    2
 44
1
  0
LINE
  5
1A1
100
AcDbEntity
  8
cotation
  6
ByBlock
 62
    0
370
   -2
100
AcDbLine
 10
1010
 20
2358.75
 11
1010
 21
2256.25
  0
LINE
  5
1A2
100
AcDbEntity
  8
cotation
  6
ByBlock
 62
    0
370
   -2
100
AcDbLine
 10
870
 20
2358.75
 11
870
 21
2256.25
  0
ENDBLK
  5
B2
330
B0
100
AcDbEntity
  8
0
100
AcDbBlockEnd
  0
BLOCK
  5
B4
330
B3
100
AcDbEntity
  8
0
100
AcDbBlockBegin
  2
*D18
 70
    1
 10
0
 20
0
  3
*D18
  1

  0
LINE
  5
1A3
100
AcDbEntity
  8
cotation
  6
ByBlock
 62
    0
370
   -2
100
AcDbLine
 10
1480
 20
1892
 11
1480
 21
1668
  0
SOLID
  5
1A4
100
AcDbEntity
  8
cotation
  6
ByBlock
 62
    0
370
   -2
100
AcDbTrace
 10
1480
 20
1802
 30
0
 11
1472.506876160089
 21
1847
 31
0
 12
1487.493123839911
 22
1847
 32
0
 13
1487.493123839911
 23
1847
 33
0
  0
SOLID
  5
1A5
100
AcDbEntity
  8
cotation
  6
ByBlock
 62
    0
370
   -2
100
AcDbTrace
 10
1480
 20
1758
 30
0
 11
1487.493123839911
 21
1713
 31
0
 12
1472.506876160089
 22
1713
 32
0
 13
1472.506876160089
 23
1713
 33
0
  0
MTEXT
  5
1A6
100
AcDbEntity
  8
cotation
  6
CONTINUOUS
 62
    0
370
   -2
100
AcDbMText
 10
1442.5
 20
1849.5
 30
0
 40
45
 41
65
 71
    5
 72
    1
  1
44
  7
standard
210
0
220
0
230
1
 50
90
 73
    2
 44
1
  0
LINE
  5
1A7
100
AcDbEntity
  8
cotation
  6
ByBlock
 62
    0
370
   -2
100
AcDbLine
 10
1487.25
 20
1802
 11
1476.25
 21
1802
  0
LINE
  5
1A8
100
AcDbEntity
  8
cotation
  6
ByBlock
 62
    0
370
   -2
100
AcDbLine
 10
1487.25
 20
1758
 11
1476.25
 21
1758
  0
ENDBLK
  5
B5
330
B3
100
AcDbEntity
  8
0
100
AcDbBlockEnd
  0
BLOCK
  5
B7
330
B6
100
AcDbEntity
  8
0
100
AcDbBlockBegin
  2
*D36
 70
    1
 10
0
 20
0
  3
*D36
  1

  0
LINE
  5
1A9
100
AcDbEntity
  8
cotation
  6
ByBlock
 62
    0
370
   -2
100
AcDbLine
 10
4100
 20
2185
 11
4100
 21
1930
  0
SOLID
  5
1AA
100
AcDbEntity
  8
cotation
  6
ByBlock
 62
    0
370
   -2
100
AcDbTrace
 10
4100
 20
2095
 30
0
 11
4092.506876160089
 21
2140
 31
0
 12
4107.493123839911
 22
2140
 32
0
 13
4107.493123839911
 23
2140
 33
0
  0
SOLID
  5
1AB
100
AcDbEntity
  8
cotation
  6
ByBlock
 62
    0
370
   -2
100
AcDbTrace
 10
4100
 20
2020
 30
0
 11
4107.493123839911
 21
1975
 31
0
 12
4092.506876160089
 22
1975
 32
0
 13
4092.506876160089
 23
1975
 33
0
  0
MTEXT
  5
1AC
100
AcDbEntity
  8
cotation
  6
CONTINUOUS
 62
    0
370
   -2
100
AcDbMText
 10
4062.5
 20
2057.5
 30
0
 40
45
 41
55.00000000000279
 71
    5
 72
    1
  1
75
  7
standard
210
0
220
0
230
1
 50
90
 73
    2
 44
1
  0
LINE
  5
1AD
100
AcDbEntity
  8
cotation
  6
ByBlock
 62
    0
370
   -2
100
AcDbLine
 10
3951.75
 20
2095
 11
4103.75
 21
2095
  0
LINE
  5
1AE
100
AcDbEntity
  8
cotation
  6
ByBlock
 62
    0
370
   -2
100
AcDbLine
 10
3951.75
 20
2020
 11
4103.75
 21
2020
  0
ENDBLK
  5
B8
330
B6
100
AcDbEntity
  8
0
100
AcDbBlockEnd
  0
BLOCK
  5
BA
330
B9
100
AcDbEntity
  8
0
100
AcDbBlockBegin
  2
*D23
 70
    1
 10
0
 20
0
  3
*D23
  1

  0
LINE
  5
1AF
100
AcDbEntity
  8
cotation
  6
ByBlock
 62
    0
370
   -2
100
AcDbLine
 10
840
 20
2500
 11
840
 21
2255
  0
SOLID
  5
1B0
100
AcDbEntity
  8
cotation
  6
ByBlock
 62
    0
370
   -2
100
AcDbTrace
 10
840
 20
2410
 30
0
 11
832.5068761600888
 21
2455
 31
0
 12
847.4931238399112
 22
2455
 32
0
 13
847.4931238399112
 23
2455
 33
0
  0
SOLID
  5
1B1
100
AcDbEntity
  8
cotation
  6
ByBlock
 62
    0
370
   -2
100
AcDbTrace
 10
840
 20
2345
 30
0
 11
847.4931238399112
 21
2300
 31
0
 12
832.5068761600888
 22
2300
 32
0
 13
832.5068761600888
 23
2300
 33
0
  0
MTEXT
  5
1B2
100
AcDbEntity
  8
cotation
  6
CONTINUOUS
 62
    0
370
   -2
100
AcDbMText
 10
802.5
 20
2377.5
 30
0
 40
45
 41
55.00000000000558
 71
    5
 72
    1
  1
65
  7
standard
210
0
220
0
230
1
 50
90
 73
    2
 44
1
  0
LINE
  5
1B3
100
AcDbEntity
  8
cotation
  6
ByBlock
 62
    0
370
   -2
100
AcDbLine
 10
921.25
 20
2410
 11
836.25
 21
2410
  0
LINE
  5
1B4
100
AcDbEntity
  8
cotation
  6
ByBlock
 62
    0
370
   -2
100
AcDbLine
 10
921.25
 20
2345
 11
836.25
 21
2345
  0
ENDBLK
  5
BB
330
B9
100
AcDbEntity
  8
0
100
AcDbBlockEnd
  0
BLOCK
  5
BD
330
BC
100
AcDbEntity
  8
0
100
AcDbBlockBegin
  2
*D22
 70
    1
 10
0
 20
0
  3
*D22
  1

  0
LINE
  5
1B5
100
AcDbEntity
  8
cotation
  6
ByBlock
 62
    0
370
   -2
100
AcDbLine
 10
309.9999999999998
 20
2700
 11
1260
 21
2700
  0
SOLID
  5
1B6
100
AcDbEntity
  8
cotation
  6
ByBlock
 62
    0
370
   -2
100
AcDbTrace
 10
309.9999999999998
 20
2700
 30
0
 11
354.9999999999998
 21
2707.493123839911
 31
0
 12
354.9999999999998
 22
2692.506876160089
 32
0
 13
354.9999999999998
 23
2692.506876160089
 33
0
  0
SOLID
  5
1B7
100
AcDbEntity
  8
cotation
  6
ByBlock
 62
    0
370
   -2
100
AcDbTrace
 10
1260
 20
2700
 30
0
 11
1215
 21
2692.506876160089
 31
0
 12
1215
 22
2707.493123839911
 32
0
 13
1215
 23
2707.493123839911
 33
0
  0
MTEXT
  5
1B8
100
AcDbEntity
  8
cotation
  6
CONTINUOUS
 62
    0
370
   -2
100
AcDbMText
 10
784.9999999999999
 20
2737.5
 30
0
 40
45
 41
90.0000000000056
 71
    5
 72
    1
  1
950
  7
standard
210
0
220
0
230
1
 50
0
 73
    2
 44
1
  0
LINE
  5
1B9
100
AcDbEntity
  8
cotation
  6
ByBlock
 62
    0
370
   -2
100
AcDbLine
 10
309.9999999999999
 20
2428.750023389337
 11
309.9999999999998
 21
2703.75
  0
LINE
  5
1BA
100
AcDbEntity
  8
cotation
  6
ByBlock
 62
    0
370
   -2
100
AcDbLine
 10
1260
 20
2428.750044209773
 11
1260
 21
2703.75
  0
ENDBLK
  5
BE
330
BC
100
AcDbEntity
  8
0
100
AcDbBlockEnd
  0
BLOCK
  5
C0
330
BF
100
AcDbEntity
  8
0
100
AcDbBlockBegin
  2
*D2
 70
    1
 10
0
 20
0
  3
*D2
  1

  0
LINE
  5
1BB
100
AcDbEntity
  8
cotation
  6
ByBlock
 62
    0
370
   -2
100
AcDbLine
 10
-200
 20
2005
 11
-200
 21
2260
  0
SOLID
  5
1BC
100
AcDbEntity
  8
cotation
  6
ByBlock
 62
    0
370
   -2
100
AcDbTrace
 10
-200
 20
2095
 30
0
 11
-192.5068761600889
 21
2050
 31
0
 12
-207.4931238399111
 22
2050
 32
0
 13
-207.4931238399111
 23
2050
 33
0
  0
SOLID
  5
1BD
100
AcDbEntity
  8
cotation
  6
ByBlock
 62
    0
370
   -2
100
AcDbTrace
 10
-200
 20
2170
 30
0
 11
-207.4931238399111
 21
2215
 31
0
 12
-192.5068761600889
 22
2215
 32
0
 13
-192.5068761600889
 23
2215
 33
0
  0
MTEXT
  5
1BE
100
AcDbEntity
  8
cotation
  6
CONTINUOUS
 62
    0
370
   -2
100
AcDbMText
 10
-237.5
 20
2132.5
 30
0
 40
45
 41
55.00000000000279
 71
    5
 72
    1
  1
75
  7
standard
210
0
220
0
230
1
 50
89.99999999999999
 73
    2
 44
1
  0
LINE
  5
1BF
100
AcDbEntity
  8
cotation
  6
ByBlock
 62
    0
370
   -2
100
AcDbLine
 10
-18.75
 20
2095
 11
-203.75
 21
2095
  0
LINE
  5
1C0
100
AcDbEntity
  8
cotation
  6
ByBlock
 62
    0
370
   -2
100
AcDbLine
 10
-18.75
 20
2170
 11
-203.75
 21
2170
  0
ENDBLK
  5
C1
330
BF
100
AcDbEntity
  8
0
100
AcDbBlockEnd
  0
BLOCK
  5
C3
330
C2
100
AcDbEntity
  8
0
100
AcDbBlockBegin
  2
*D11
 70
    1
 10
0
 20
0
  3
*D11
  1

  0
LINE
  5
1C1
100
AcDbEntity
  8
cotation
  6
ByBlock
 62
    0
370
   -2
100
AcDbLine
 10
1260
 20
2600
 11
2360
 21
2600
  0
SOLID
  5
1C2
100
AcDbEntity
  8
cotation
  6
ByBlock
 62
    0
370
   -2
100
AcDbTrace
 10
1260
 20
2600
 30
0
 11
1305
 21
2607.493123839911
 31
0
 12
1305
 22
2592.506876160089
 32
0
 13
1305
 23
2592.506876160089
 33
0
  0
SOLID
  5
1C3
100
AcDbEntity
  8
cotation
  6
ByBlock
 62
    0
370
   -2
100
AcDbTrace
 10
2360
 20
2600
 30
0
 11
2315
 21
2592.506876160089
 31
0
 12
2315
 22
2607.493123839911
 32
0
 13
2315
 23
2607.493123839911
 33
0
  0
MTEXT
  5
1C4
100
AcDbEntity
  8
cotation
  6
CONTINUOUS
 62
    0
370
   -2
100
AcDbMText
 10
1810
 20
2637.5
 30
0
 40
45
 41
105
 71
    5
 72
    1
  1
1100
  7
standard
210
0
220
0
230
1
 50
0
 73
    2
 44
1
  0
LINE
  5
1C5
100
AcDbEntity
  8
cotation
  6
ByBlock
 62
    0
370
   -2
100
AcDbLine
 10
1260
 20
2428.750044209773
 11
1260
 21
2603.75
  0
LINE
  5
1C6
100
AcDbEntity
  8
cotation
  6
ByBlock
 62
    0
370
   -2
100
AcDbLine
 10
2360
 20
2428.750049480903
 11
2360
 21
2603.75
  0
ENDBLK
  5
C4
330
C2
100
AcDbEntity
  8
0
100
AcDbBlockEnd
  0
BLOCK
  5
C6
330
C5
100
AcDbEntity
  8
0
100
AcDbBlockBegin
  2
fixation1
 70
    0
 10
0
 20
0
  3
fixation1
  1

  0
LWPOLYLINE
  5
1C7
100
AcDbEntity
  8
gris
  6
ByLayer
 62
  256
370
   -1
100
AcDbPolyline
 90
    5
 70
    1
 43
0
 10
-36
 20
6
 10
94
 20
6
 10
94
 20
-6
 10
-36
 20
-6
 10
-36
 20
-6
  0
LWPOLYLINE
  5
1C8
100
AcDbEntity
  8
gris
  6
ByLayer
 62
  256
370
   -1
100
AcDbPolyline
 90
    4
 70
    1
 43
0
 10
-28
 20
9.5
 10
-18.5
 20
9.5
 10
-18.5
 20
-9.5
 10
-28
 20
-9.5
  0
LWPOLYLINE
  5
1C9
100
AcDbEntity
  8
gris
  6
ByLayer
 62
  256
370
   -1
100
AcDbPolyline
 90
    4
 70
    1
 43
0
 10
-18.5
 20
10
 10
-16.5
 20
10
 10
-16.5
 20
-10
 10
-18.5
 20
-10
  0
LWPOLYLINE
  5
1CA
100
AcDbEntity
  8
gris
  6
ByLayer
 62
  256
370
   -1
100
AcDbPolyline
 90
    4
 70
    1
 43
0
 10
-16.5
 20
12
 10
-14.5
 20
12
 10
-14.5
 20
-12
 10
-16.5
 20
-12
  0
LWPOLYLINE
  5
1CB
100
AcDbEntity
  8
gris
  6
ByLayer
 62
  256
370
   -1
100
AcDbPolyline
 90
    4
 70
    1
 43
0
 10
74.5
 20
9.5
 10
84
 20
9.5
 10
84
 20
-9.5
 10
74.5
 20
-9.5
  0
LWPOLYLINE
  5
1CC
100
AcDbEntity
  8
gris
  6
ByLayer
 62
  256
370
   -1
100
AcDbPolyline
 90
    4
 70
    1
 43
0
 10
72.5
 20
10
 10
74.5
 20
10
 10
74.5
 20
-10
 10
72.5
 20
-10
  0
LWPOLYLINE
  5
1CD
100
AcDbEntity
  8
gris
  6
ByLayer
 62
  256
370
   -1
100
AcDbPolyline
 90
    4
 70
    1
 43
0
 10
70.5
 20
12
 10
72.5
 20
12
 10
72.5
 20
-12
 10
70.5
 20
-12
  0
LINE
  5
1CE
100
AcDbEntity
  8
pointillés
  6
ByLayer
 62
  256
370
   -1
100
AcDbLine
 10
-28
 20
18
 11
-14.2
 21
18
  0
LINE
  5
1CF
100
AcDbEntity
  8
pointillés
  6
ByLayer
 62
  256
370
   -1
100
AcDbLine
 10
-28
 20
-18
 11
-14.2
 21
-18
  0
LINE
  5
1D0
100
AcDbEntity
  8
pointillés
  6
ByLayer
 62
  256
370
   -1
100
AcDbLine
 10
-14.2
 20
-18
 11
-14.2
 21
18
  0
LINE
  5
1D1
100
AcDbEntity
  8
pointillés
  6
ByLayer
 62
  256
370
   -1
100
AcDbLine
 10
70.19999999999999
 20
-18
 11
84
 21
-18
  0
LINE
  5
1D2
100
AcDbEntity
  8
pointillés
  6
ByLayer
 62
  256
370
   -1
100
AcDbLine
 10
70.2
 20
18
 11
84
 21
18
  0
LINE
  5
1D3
100
AcDbEntity
  8
pointillés
  6
ByLayer
 62
  256
370
   -1
100
AcDbLine
 10
70.2
 20
18
 11
70.2
 21
-18
  0
ENDBLK
  5
C7
330
C5
100
AcDbEntity
  8
0
100
AcDbBlockEnd
  0
BLOCK
  5
C9
330
C8
100
AcDbEntity
  8
0
100
AcDbBlockBegin
  2
pied
 70
    0
 10
0
 20
0
  3
pied
  1

  0
LWPOLYLINE
  5
1D4
100
AcDbEntity
  8
contour
  6
ByLayer
 62
  256
370
   -1
100
AcDbPolyline
 90
    4
 70
    1
 43
0
 10
-38.00000000000163
 20
0
 10
38.00000000000011
 20
0
 10
38.00000000000011
 20
12
 10
-38.00000000000163
 20
12
  0
LWPOLYLINE
  5
1D5
100
AcDbEntity
  8
contour
  6
ByLayer
 62
  256
370
   -1
100
AcDbPolyline
 90
    4
 70
    1
 43
0
 10
-4.999999999999432
 20
12
 10
4.999999999900808
 20
12
 10
4.999999999900808
 20
40
 10
-4.999999999999432
 20
40
  0
ENDBLK
  5
CA
330
C8
100
AcDbEntity
  8
0
100
AcDbBlockEnd
  0
BLOCK
  5
CC
330
CB
100
AcDbEntity
  8
0
100
AcDbBlockBegin
  2
Tasseau
 70
    0
 10
0
 20
0
  3
Tasseau
  1

  0
LWPOLYLINE
  5
1D6
100
AcDbEntity
  8
construction
  6
ByLayer
 62
  256
370
   -1
100
AcDbPolyline
 90
    4
 70
    1
 43
0
 10
0
 20
0
 10
28
 20
0
 10
28
 20
0
 10
0
 20
0
  0
LWPOLYLINE
  5
1D7
100
AcDbEntity
  8
construction
  6
ByLayer
 62
  256
370
   -1
100
AcDbPolyline
 90
    4
 70
    1
 43
0
 10
28
 20
28
 10
0
 20
28
 10
0
 20
0
 10
28
 20
0
  0
LWPOLYLINE
  5
1D8
100
AcDbEntity
  8
construction
  6
ByLayer
 62
  256
370
   -1
100
AcDbPolyline
 90
    4
 70
    1
 43
0
 10
0
 20
28
 10
-28
 20
28
 10
-28
 20
0
 10
0
 20
0
  0
LWPOLYLINE
  5
1D9
100
AcDbEntity
  8
construction
  6
ByLayer
 62
  256
370
   -1
100
AcDbPolyline
 90
    4
 70
    1
 43
0
 10
0
 20
0
 10
-28
 20
0
 10
-28
 20
-28
 10
0
 20
-28
  0
LWPOLYLINE
  5
1DA
100
AcDbEntity
  8
construction
  6
ByLayer
 62
  256
370
   -1
100
AcDbPolyline
 90
    4
 70
    1
 43
0
 10
28
 20
0
 10
0
 20
0
 10
0
 20
-28
 10
28
 20
-28
  0
LWPOLYLINE
  5
1DB
100
AcDbEntity
  8
pointillés
  6
ByLayer
 62
  256
370
   -1
100
AcDbPolyline
 90
    4
 70
    1
 43
0
 10
-28
 20
28
 10
28
 20
28
 10
28
 20
-28
 10
-28
 20
-28
  0
ENDBLK
  5
CD
330
CB
100
AcDbEntity
  8
0
100
AcDbBlockEnd
  0
BLOCK
  5
CF
330
CE
100
AcDbEntity
  8
0
100
AcDbBlockBegin
  2
Tirfond
 70
    0
 10
0
 20
0
  3
Tirfond
  1

  0
LWPOLYLINE
  5
1DC
100
AcDbEntity
  8
gris
  6
ByLayer
 62
  256
370
   -1
100
AcDbPolyline
 90
    5
 70
    1
 43
0
 10
0
 20
4.000000000000001
 10
100
 20
4.000000000000001
 10
100
 20
-3.999999999999823
 10
0
 20
-3.999999999999823
 10
0
 20
-3.999999999999823
  0
LWPOLYLINE
  5
1DD
100
AcDbEntity
  8
gris
  6
ByLayer
 62
  256
370
   -1
100
AcDbPolyline
 90
    5
 70
    1
 43
0
 10
1.177443559319258e-16
 20
6.499999999999999
 10
5.000000000000001
 20
6.499999999999999
 10
5.000000000000001
 20
-6.499999999999999
 10
1.177443559319258e-16
 20
-6.499999999999999
 10
1.177443559319258e-16
 20
-6.499999999999999
  0
ENDBLK
  5
D0
330
CE
100
AcDbEntity
  8
0
100
AcDbBlockEnd
  0
BLOCK
  5
D2
330
D1
100
AcDbEntity
  8
0
100
AcDbBlockBegin
  2
vis 1
 70
    0
 10
0
 20
0
  3
vis 1
  1

  0
LINE
  5
1DE
100
AcDbEntity
  8
gris
  6
ByLayer
 62
  256
370
   -1
100
AcDbLine
 10
0
 20
0
 11
7
 21
-2.5
  0
LINE
  5
1DF
100
AcDbEntity
  8
gris
  6
ByLayer
 62
  256
370
   -1
100
AcDbLine
 10
0
 20
0
 11
7
 21
2.5
  0
LINE
  5
1E0
100
AcDbEntity
  8
gris
  6
ByLayer
 62
  256
370
   -1
100
AcDbLine
 10
54
 20
2.5
 11
60
 21
5
  0
LINE
  5
1E1
100
AcDbEntity
  8
gris
  6
ByLayer
 62
  256
370
   -1
100
AcDbLine
 10
54
 20
-2.5
 11
60
 21
-5
  0
LINE
  5
1E2
100
AcDbEntity
  8
gris
  6
ByLayer
 62
  256
370
   -1
100
AcDbLine
 10
7.000000000000001
 20
2.5
 11
54
 21
2.5
  0
LINE
  5
1E3
100
AcDbEntity
  8
gris
  6
ByLayer
 62
  256
370
   -1
100
AcDbLine
 10
54
 20
-2.5
 11
7.000000000000001
 21
-2.5
  0
LINE
  5
1E4
100
AcDbEntity
  8
gris
  6
ByLayer
 62
  256
370
   -1
100
AcDbLine
 10
60
 20
5
 11
60
 21
-5
  0
LINE
  5
1E5
100
AcDbEntity
  8
gris
  6
ByLayer
 62
  256
370
   -1
100
AcDbLine
 10
7
 20
2.5
 11
7
 21
-2.5
  0
LINE
  5
1E6
100
AcDbEntity
  8
gris
  6
ByLayer
 62
  256
370
   -1
100
AcDbLine
 10
54
 20
2.5
 11
54
 21
-2.5
  0
ENDBLK
  5
D3
330
D1
100
AcDbEntity
  8
0
100
AcDbBlockEnd
  0
BLOCK
  5
D5
330
D4
100
AcDbEntity
  8
0
100
AcDbBlockBegin
  2
tirfond2
 70
    0
 10
0
 20
0
  3
tirfond2
  1

  0
LINE
  5
1E7
100
AcDbEntity
  8
gris
  6
ByLayer
 62
  256
370
   -1
100
AcDbLine
 10
0
 20
0
 11
5
 21
4
  0
LINE
  5
1E8
100
AcDbEntity
  8
gris
  6
ByLayer
 62
  256
370
   -1
100
AcDbLine
 10
0
 20
0
 11
5
 21
-4
  0
LINE
  5
1E9
100
AcDbEntity
  8
gris
  6
ByLayer
 62
  256
370
   -1
100
AcDbLine
 10
80
 20
6.5
 11
85.30000000000001
 21
6.5
  0
LINE
  5
1EA
100
AcDbEntity
  8
gris
  6
ByLayer
 62
  256
370
   -1
100
AcDbLine
 10
80
 20
-6.500000000000001
 11
85.30000000000001
 21
-6.5
  0
LINE
  5
1EB
100
AcDbEntity
  8
gris
  6
ByLayer
 62
  256
370
   -1
100
AcDbLine
 10
85.30000000000001
 20
-6.5
 11
85.30000000000001
 21
6.5
  0
LINE
  5
1EC
100
AcDbEntity
  8
gris
  6
ByLayer
 62
  256
370
   -1
100
AcDbLine
 10
80
 20
6.5
 11
80
 21
-6.500000000000001
  0
LINE
  5
1ED
100
AcDbEntity
  8
gris
  6
ByLayer
 62
  256
370
   -1
100
AcDbLine
 10
80
 20
3.5
 11
85.30000000000001
 21
3.5
  0
LINE
  5
1EE
100
AcDbEntity
  8
gris
  6
ByLayer
 62
  256
370
   -1
100
AcDbLine
 10
80.00000000000001
 20
-3.5
 11
85.30000000000001
 21
-3.5
  0
LINE
  5
1EF
100
AcDbEntity
  8
gris
  6
ByLayer
 62
  256
370
   -1
100
AcDbLine
 10
5
 20
4
 11
56
 21
4
  0
LINE
  5
1F0
100
AcDbEntity
  8
gris
  6
ByLayer
 62
  256
370
   -1
100
AcDbLine
 10
5
 20
-4
 11
57
 21
-4
  0
LINE
  5
1F1
100
AcDbEntity
  8
gris
  6
ByLayer
 62
  256
370
   -1
100
AcDbLine
 10
5
 20
4
 11
5
 21
-4
  0
LINE
  5
1F2
100
AcDbEntity
  8
gris
  6
ByLayer
 62
  256
370
   -1
100
AcDbLine
 10
78.50000000000001
 20
8.326672684688674e-17
 11
78.5
 21
6.600000000000001
  0
LINE
  5
1F3
100
AcDbEntity
  8
gris
  6
ByLayer
 62
  256
370
   -1
100
AcDbLine
 10
78.50000000000001
 20
0.0546875
 11
78.50000000000001
 21
-7.200000000000001
  0
LWPOLYLINE
  5
1F4
100
AcDbEntity
  8
gris
  6
ByLayer
 62
  256
370
   -1
100
AcDbPolyline
 90
    4
 70
    1
 43
0
 10
80
 20
10
 10
78.50000000000001
 20
10
 10
78.50000000000001
 20
-10.1
 10
80
 20
-10.1
  0
LWPOLYLINE
  5
1F5
100
AcDbEntity
  8
gris
  6
ByLayer
 62
  256
370
   -1
100
AcDbPolyline
 90
    4
 70
    1
 43
0
 10
5
 20
4
 10
78.50000000000001
 20
4
 10
78.50000000000001
 20
-4
 10
5
 20
-4
  0
ENDBLK
  5
D6
330
D4
100
AcDbEntity
  8
0
100
AcDbBlockEnd
  0
BLOCK
  5
D8
330
D7
100
AcDbEntity
  8
0
100
AcDbBlockBegin
  2
oblong
 70
    0
 10
0
 20
0
  3
oblong
  1

  0
ARC
  5
1F6
100
AcDbEntity
  8
contour
  6
ByLayer
 62
  256
370
   -1
100
AcDbCircle
 10
32.5
 20
32.5
 40
32.5
100
AcDbArc
 50
90
 51
269.8980503219844
  0
LINE
  5
1F7
100
AcDbEntity
  8
contour
  6
ByLayer
 62
  256
370
   -1
100
AcDbLine
 10
32.5
 20
65
 11
107.4
 21
65
  0
LINE
  5
1F8
100
AcDbEntity
  8
contour
  6
ByLayer
 62
  256
370
   -1
100
AcDbLine
 10
32.44
 20
-2.255140518769849e-17
 11
108
 21
0
  0
ARC
  5
1F9
100
AcDbEntity
  8
contour
  6
ByLayer
 62
  256
370
   -1
100
AcDbCircle
 10
107.5
 20
32.5
 40
32.5
100
AcDbArc
 50
270.0936204714405
 51
89.99999999999997
  0
ENDBLK
  5
D9
330
D7
100
AcDbEntity
  8
0
100
AcDbBlockEnd
  0
BLOCK
  5
DB
330
DA
100
AcDbEntity
  8
0
100
AcDbBlockBegin
  2
poignée
 70
    0
 10
0
 20
0
  3
poignée
  1

  0
LWPOLYLINE
  5
1FA
100
AcDbEntity
  8
contour
  6
ByLayer
 62
  256
370
   -1
100
AcDbPolyline
 90
    4
 70
    1
 43
0
 10
0
 20
0
 10
15
 20
0
 10
15
 20
10
 10
0
 20
10
  0
LWPOLYLINE
  5
1FB
100
AcDbEntity
  8
contour
  6
ByLayer
 62
  256
370
   -1
100
AcDbPolyline
 90
    4
 70
    1
 43
0
 10
15
 20
20
 10
24
 20
20
 10
24
 20
-10
 10
15
 20
-10
  0
ENDBLK
  5
DC
330
DA
100
AcDbEntity
  8
0
100
AcDbBlockEnd
  0
BLOCK
  5
DE
330
DD
100
AcDbEntity
  8
0
100
AcDbBlockBegin
  2
pied2
 70
    0
 10
0
 20
0
  3
pied2
  1

  0
LWPOLYLINE
  5
1FC
100
AcDbEntity
  8
pointillés
  6
ByLayer
 62
  256
370
   -1
100
AcDbPolyline
 90
    4
 70
    1
 43
0
 10
0
 20
0
 10
10
 20
0
 10
10
 20
66
 10
0
 20
66
  0
LINE
  5
1FD
100
AcDbEntity
  8
pointillés
  6
ByLayer
 62
  256
370
   -1
100
AcDbLine
 10
0
 20
36
 11
10
 21
36
  0
ENDBLK
  5
DF
330
DD
100
AcDbEntity
  8
0
100
AcDbBlockEnd
  0
BLOCK
  5
E1
330
E0
100
AcDbEntity
  8
0
100
AcDbBlockBegin
  2
tirfond3
 70
    0
 10
0
 20
0
  3
tirfond3
  1

  0
LINE
  5
1FE
100
AcDbEntity
  8
gris
  6
ByLayer
 62
  256
370
   -1
100
AcDbLine
 10
5
 20
4
 11
5
 21
-4
  0
LINE
  5
1FF
100
AcDbEntity
  8
gris
  6
ByLayer
 62
  256
370
   -1
100
AcDbLine
 10
5
 20
-4
 11
0
 21
0
  0
LINE
  5
200
100
AcDbEntity
  8
gris
  6
ByLayer
 62
  256
370
   -1
100
AcDbLine
 10
0
 20
0
 11
5
 21
4
  0
LINE
  5
201
100
AcDbEntity
  8
gris
  6
ByLayer
 62
  256
370
   -1
100
AcDbLine
 10
50
 20
10
 11
50
 21
-10
  0
LINE
  5
202
100
AcDbEntity
  8
gris
  6
ByLayer
 62
  256
370
   -1
100
AcDbLine
 10
50
 20
-10
 11
51
 21
-10
  0
LINE
  5
203
100
AcDbEntity
  8
gris
  6
ByLayer
 62
  256
370
   -1
100
AcDbLine
 10
51
 20
-10
 11
51
 21
10
  0
LINE
  5
204
100
AcDbEntity
  8
gris
  6
ByLayer
 62
  256
370
   -1
100
AcDbLine
 10
51
 20
10
 11
50
 21
10
  0
LINE
  5
205
100
AcDbEntity
  8
gris
  6
ByLayer
 62
  256
370
   -1
100
AcDbLine
 10
5
 20
4
 11
50
 21
4
  0
LINE
  5
206
100
AcDbEntity
  8
gris
  6
ByLayer
 62
  256
370
   -1
100
AcDbLine
 10
5
 20
-4
 11
50
 21
-4
  0
LINE
  5
207
100
AcDbEntity
  8
gris
  6
ByLayer
 62
  256
370
   -1
100
AcDbLine
 10
51
 20
6.5
 11
56
 21
6.5
  0
LINE
  5
208
100
AcDbEntity
  8
gris
  6
ByLayer
 62
  256
370
   -1
100
AcDbLine
 10
51
 20
-6.5
 11
56
 21
-6.500000000000001
  0
LINE
  5
209
100
AcDbEntity
  8
gris
  6
ByLayer
 62
  256
370
   -1
100
AcDbLine
 10
56
 20
6.500000000000001
 11
56
 21
-6.5
  0
LINE
  5
20A
100
AcDbEntity
  8
gris
  6
ByLayer
 62
  256
370
   -1
100
AcDbLine
 10
51
 20
3
 11
56
 21
3
  0
LINE
  5
20B
100
AcDbEntity
  8
gris
  6
ByLayer
 62
  256
370
   -1
100
AcDbLine
 10
51
 20
-3
 11
56
 21
-3
  0
ENDBLK
  5
E2
330
E0
100
AcDbEntity
  8
0
100
AcDbBlockEnd
  0
BLOCK
  5
E4
330
E3
100
AcDbEntity
  8
0
100
AcDbBlockBegin
  2
tirfond3;1
 70
    0
 10
0
 20
0
  3
tirfond3;1
  1

  0
CIRCLE
  5
20C
100
AcDbEntity
  8
gris
  6
ByLayer
 62
  256
370
   -1
100
AcDbCircle
 10
0
 20
0
 40
10
  0
LINE
  5
20D
100
AcDbEntity
  8
gris
  6
ByLayer
 62
  256
370
   -1
100
AcDbLine
 10
-3.719999999999999
 20
6.500000000000001
 11
-7.489165124598851
 21
0.02838549792188831
  0
LINE
  5
20E
100
AcDbEntity
  8
gris
  6
ByLayer
 62
  256
370
   -1
100
AcDbLine
 10
-7.489165124598851
 20
0.02838549792188831
 11
-3.769165124598853
 21
-6.47161450207811
  0
LINE
  5
20F
100
AcDbEntity
  8
gris
  6
ByLayer
 62
  256
370
   -1
100
AcDbLine
 10
-3.769165124598853
 20
-6.47161450207811
 11
3.719999999999996
 21
-6.500000000000003
  0
LINE
  5
210
100
AcDbEntity
  8
gris
  6
ByLayer
 62
  256
370
   -1
100
AcDbLine
 10
3.719999999999996
 20
-6.500000000000003
 11
7.489165124598851
 21
-0.02838549792188922
  0
LINE
  5
211
100
AcDbEntity
  8
gris
  6
ByLayer
 62
  256
370
   -1
100
AcDbLine
 10
7.489165124598851
 20
-0.02838549792188922
 11
3.769165124598854
 21
6.47161450207811
  0
LINE
  5
212
100
AcDbEntity
  8
gris
  6
ByLayer
 62
  256
370
   -1
100
AcDbLine
 10
3.769165124598854
 20
6.47161450207811
 11
-3.719999999999999
 21
6.500000000000001
  0
ENDBLK
  5
E5
330
E3
100
AcDbEntity
  8
0
100
AcDbBlockEnd
  0
BLOCK
  5
E7
330
E6
100
AcDbEntity
  8
0
100
AcDbBlockBegin
  2
rond8
 70
    0
 10
0
 20
0
  3
rond8
  1

  0
CIRCLE
  5
213
100
AcDbEntity
  8
gris
  6
ByLayer
 62
  256
370
   -1
100
AcDbCircle
 10
0
 20
0
 40
4
  0
ENDBLK
  5
E8
330
E6
100
AcDbEntity
  8
0
100
AcDbBlockEnd
  0
ENDSEC
  0
SECTION
  2
ENTITIES
  0
DIMENSION
  5
214
100
AcDbEntity
  8
cotation
  6
ByLayer
 62
  256
370
   -1
100
AcDbDimension
  2
*D1
 10
-100
 20
2095
 30
0
 11
-137.5
 21
2057.5
 31
0
 70
   32
 71
    5
 72
    0
  3
Standard
 53
0
210
0
220
0
230
1
100
AcDbAlignedDimension
 13
0
 23
2020
 33
0
 14
0
 24
2095
 34
0
 50
90
100
AcDbRotatedDimension
  0
DIMENSION
  5
215
100
AcDbEntity
  8
cotation
  6
ByLayer
 62
  256
370
   -1
100
AcDbDimension
  2
*D2
 10
-200
 20
2170
 30
0
 11
-237.5
 21
2132.5
 31
0
 70
   32
 71
    5
 72
    0
  3
Standard
 53
0
210
0
220
0
230
1
100
AcDbAlignedDimension
 13
0
 23
2095
 33
0
 14
0
 24
2170
 34
0
 50
90
100
AcDbRotatedDimension
  0
DIMENSION
  5
216
100
AcDbEntity
  8
cotation
  6
ByLayer
 62
  256
370
   -1
100
AcDbDimension
  2
*D3
 10
-300
 20
2240
 30
0
 11
-337.5
 21
2205
 31
0
 70
   32
 71
    5
 72
    0
  3
Standard
 53
0
210
0
220
0
230
1
100
AcDbAlignedDimension
 13
0
 23
2170
 33
0
 14
0
 24
2240
 34
0
 50
90
100
AcDbRotatedDimension
  0
LWPOLYLINE
  5
217
100
AcDbEntity
  8
pointillés
  6
ByLayer
 62
  256
370
   -1
100
AcDbPolyline
 90
    4
 70
    1
 43
0
 10
128
 20
2020
 10
72
 20
2020
 10
72
 20
1964.00000000001
 10
128
 20
1964.00000000001
  0
DIMENSION
  5
218
100
AcDbEntity
  8
cotation
  6
ByLayer
 62
  256
370
   -1
100
AcDbDimension
  2
*D4
 10
-400
 20
1280
 30
0
 11
-437.5
 21
1649.999999999992
 31
0
 70
   32
 71
    5
 72
    0
  3
Standard
 53
0
210
0
220
0
230
1
100
AcDbAlignedDimension
 13
100
 23
2019.999999999985
 33
0
 14
95.00000000000057
 24
1280
 34
0
 50
90
100
AcDbRotatedDimension
  0
LWPOLYLINE
  5
219
100
AcDbEntity
  8
pointillés
  6
ByLayer
 62
  256
370
   -1
100
AcDbPolyline
 90
    4
 70
    1
 43
0
 10
94.99999999999388
 20
1346
 10
104.9999999999008
 20
1346
 10
104.9999999999008
 20
1280
 10
94.99999999999388
 20
1280
  0
LWPOLYLINE
  5
21A
100
AcDbEntity
  8
pointillés
  6
ByLayer
 62
  256
370
   -1
100
AcDbPolyline
 90
    4
 70
    1
 43
0
 10
94.99999999999388
 20
1316
 10
104.9999999999008
 20
1316
 10
104.9999999999008
 20
1280
 10
94.99999999999388
 20
1280
  0
DIMENSION
  5
21B
100
AcDbEntity
  8
cotation
  6
ByLayer
 62
  256
370
   -1
100
AcDbDimension
  2
*D5
 10
40
 20
1316
 30
0
 11
2.5
 21
1278
 31
0
 70
   32
 71
    5
  3
Standard
 53
0
210
0
220
0
230
1
100
AcDbAlignedDimension
 13
95.0000000000298
 23
1240
 33
0
 14
94.99999999999388
 24
1316
 34
0
 50
90
100
AcDbRotatedDimension
  0
DIMENSION
  5
21C
100
AcDbEntity
  8
cotation
  6
ByLayer
 62
  256
370
   -1
100
AcDbDimension
  2
*D6
 10
200
 20
1346
 30
0
 11
162.5
 21
1313
 31
0
 70
   32
 71
    5
  3
Standard
 53
0
210
0
220
0
230
1
100
AcDbAlignedDimension
 13
100
 23
1280
 33
0
 14
100
 24
1346
 34
0
 50
90
100
AcDbRotatedDimension
  0
LINE
  5
21D
100
AcDbEntity
  8
axe
  6
ByLayer
 62
  256
370
   -1
100
AcDbLine
 10
180
 20
2290
 11
180
 21
2070
  0
LINE
  5
21E
100
AcDbEntity
  8
axe
  6
ByLayer
 62
  256
370
   -1
100
AcDbLine
 10
80
 20
2290
 11
80
 21
2070
  0
LINE
  5
21F
100
AcDbEntity
  8
axe
  6
ByLayer
 62
  256
370
   -1
100
AcDbLine
 10
140
 20
2110
 11
140
 21
2000
  0
LINE
  5
220
100
AcDbEntity
  8
axe
  6
ByLayer
 62
  256
370
   -1
100
AcDbLine
 10
40
 20
2110
 11
40
 21
2000
  0
INSERT
  5
221
100
AcDbEntity
  8
axe
  6
ByLayer
 62
  256
370
   -1
100
AcDbBlockReference
  2
Tirfond
 10
180
 20
2095
 30
0
 41
1
 42
1
 43
0
 50
90
 70
    1
 71
    1
 44
1
 45
1
  0
INSERT
  5
222
100
AcDbEntity
  8
axe
  6
ByLayer
 62
  256
370
   -1
100
AcDbBlockReference
  2
Tirfond
 10
80
 20
2095
 30
0
 41
1
 42
1
 43
0
 50
90
 70
    1
 71
    1
 44
1
 45
1
  0
INSERT
  5
223
100
AcDbEntity
  8
axe
  6
ByLayer
 62
  256
370
   -1
100
AcDbBlockReference
  2
Tirfond
 10
140
 20
2020
 30
0
 41
1
 42
1
 43
0
 50
90
 70
    1
 71
    1
 44
1
 45
1
  0
INSERT
  5
224
100
AcDbEntity
  8
axe
  6
ByLayer
 62
  256
370
   -1
100
AcDbBlockReference
  2
Tirfond
 10
40
 20
2020
 30
0
 41
1
 42
1
 43
0
 50
90
 70
    1
 71
    1
 44
1
 45
1
  0
DIMENSION
  5
225
100
AcDbEntity
  8
cotation
  6
ByLayer
 62
  256
370
   -1
100
AcDbDimension
  2
*D7
 10
2360
 20
2050
 30
0
 11
2332
 21
2087.5
 31
0
 70
   32
 71
    5
 72
    0
  3
Standard
 53
0
210
0
220
0
230
1
100
AcDbAlignedDimension
 13
2304
 23
2124
 33
0
 14
2360
 24
2124
 34
0
100
AcDbRotatedDimension
  0
DIMENSION
  5
226
100
AcDbEntity
  8
cotation
  6
ByLayer
 62
  256
370
   -1
100
AcDbDimension
  2
*D8
 10
2500
 20
2122
 30
0
 11
2462.5
 21
2150
 31
0
 70
   32
 71
    5
 72
    0
  3
Standard
 53
0
210
0
220
0
230
1
100
AcDbAlignedDimension
 13
2360
 23
2178
 33
0
 14
2360
 24
2122
 34
0
 50
90
100
AcDbRotatedDimension
  0
LWPOLYLINE
  5
227
100
AcDbEntity
  8
pointillés
  6
ByLayer
 62
  256
370
   -1
100
AcDbPolyline
 90
    4
 70
    1
 43
0
 10
2271.000000000093
 20
1346
 10
2281
 20
1346
 10
2281
 20
1280
 10
2271.000000000093
 20
1280
  0
LWPOLYLINE
  5
228
100
AcDbEntity
  8
pointillés
  6
ByLayer
 62
  256
370
   -1
100
AcDbPolyline
 90
    4
 70
    1
 43
0
 10
2271.000000000093
 20
1316
 10
2281
 20
1316
 10
2281
 20
1280
 10
2271.000000000093
 20
1280
  0
DIMENSION
  5
229
100
AcDbEntity
  8
cotation
  6
ByLayer
 62
  256
370
   -1
100
AcDbDimension
  2
*D9
 10
1400
 20
1240
 30
0
 11
1362.5
 21
1490
 31
0
 70
   32
 71
    5
  3
Standard
 53
0
210
0
220
0
230
1
100
AcDbAlignedDimension
 13
1298
 23
1740
 33
0
 14
1308
 24
1240
 34
0
 50
90
100
AcDbRotatedDimension
  0
DIMENSION
  5
22A
100
AcDbEntity
  8
cotation
  6
ByLayer
 62
  256
370
   -1
100
AcDbDimension
  2
*D10
 10
2316
 20
2300
 30
0
 11
1860
 21
2337.5
 31
0
 70
   32
 71
    5
  3
Standard
 53
0
210
0
220
0
230
1
100
AcDbAlignedDimension
 13
1404
 23
2222
 33
0
 14
2316
 24
2222
 34
0
100
AcDbRotatedDimension
  0
DIMENSION
  5
22B
100
AcDbEntity
  8
cotation
  6
ByLayer
 62
  256
370
   -1
100
AcDbDimension
  2
*D11
 10
2360
 20
2600
 30
0
 11
1810
 21
2637.5
 31
0
 70
   32
 71
    5
 72
    0
  3
Standard
 53
0
210
0
220
0
230
1
100
AcDbAlignedDimension
 13
1260
 23
2410.000044209773
 33
0
 14
2360
 24
2410.000049480903
 34
0
100
AcDbRotatedDimension
  0
DIMENSION
  5
22C
100
AcDbEntity
  8
cotation
  6
ByLayer
 62
  256
370
   -1
100
AcDbDimension
  2
*D12
 10
1360
 20
2800
 30
0
 11
680
 21
2837.5
 31
0
 70
   32
 71
    5
 72
    0
  3
Standard
 53
0
210
0
220
0
230
1
100
AcDbAlignedDimension
 13
0
 23
2240
 33
0
 14
1360
 24
2240
 34
0
100
AcDbRotatedDimension
  0
LWPOLYLINE
  5
22D
100
AcDbEntity
  8
pointillés
  6
ByLayer
 62
  256
370
   -1
100
AcDbPolyline
 90
    4
 70
    1
 43
0
 10
1573
 20
1346
 10
1582.999999999907
 20
1346
 10
1582.999999999907
 20
1280
 10
1573
 20
1280
  0
LWPOLYLINE
  5
22E
100
AcDbEntity
  8
pointillés
  6
ByLayer
 62
  256
370
   -1
100
AcDbPolyline
 90
    4
 70
    1
 43
0
 10
1217.0000000001
 20
1346
 10
1227.000000000007
 20
1346
 10
1227.000000000007
 20
1280
 10
1217.0000000001
 20
1280
  0
LWPOLYLINE
  5
22F
100
AcDbEntity
  8
pointillés
  6
ByLayer
 62
  256
370
   -1
100
AcDbPolyline
 90
    4
 70
    1
 43
0
 10
1217.0000000001
 20
1316
 10
1227.000000000007
 20
1316
 10
1227.000000000007
 20
1280
 10
1217.0000000001
 20
1280
  0
LWPOLYLINE
  5
230
100
AcDbEntity
  8
pointillés
  6
ByLayer
 62
  256
370
   -1
100
AcDbPolyline
 90
    4
 70
    1
 43
0
 10
313.0000000000931
 20
1346
 10
323
 20
1346
 10
323
 20
1280
 10
313.0000000000931
 20
1280
  0
LWPOLYLINE
  5
231
100
AcDbEntity
  8
pointillés
  6
ByLayer
 62
  256
370
   -1
100
AcDbPolyline
 90
    4
 70
    1
 43
0
 10
313.0000000000931
 20
1316
 10
323
 20
1316
 10
323
 20
1280
 10
313.0000000000931
 20
1280
  0
LWPOLYLINE
  5
232
100
AcDbEntity
  8
contour
  6
ByLayer
 62
  256
370
   -1
100
AcDbPolyline
 90
    4
 70
    1
 43
0
 10
0
 20
2095
 10
200
 20
2095
 10
200
 20
2170
 10
0
 20
2170
  0
LWPOLYLINE
  5
233
100
AcDbEntity
  8
contour
  6
ByLayer
 62
  256
370
   -1
100
AcDbPolyline
 90
    4
 70
    1
 43
0
 10
0
 20
2020
 10
200
 20
2020
 10
200
 20
2095
 10
0
 20
2095
  0
INSERT
  5
234
100
AcDbEntity
  8
contour
  6
ByLayer
 62
  256
370
   -1
100
AcDbBlockReference
  2
pied
 10
100
 20
1240
 30
0
 41
1
 42
1
 43
0
 50
0
 70
    1
 71
    1
 44
1
 45
1
  0
LWPOLYLINE
  5
235
100
AcDbEntity
  8
contour
  6
ByLayer
 62
  256
370
   -1
100
AcDbPolyline
 90
    4
 70
    1
 43
0
 10
0
 20
2019.999999999985
 10
200
 20
2019.999999999985
 10
200
 20
1964.00000000001
 10
0
 20
1964.00000000001
  0
LWPOLYLINE
  5
236
100
AcDbEntity
  8
contour
  6
ByLayer
 62
  256
370
   -1
100
AcDbPolyline
 90
    4
 70
    1
 43
0
 10
72
 20
1964.00000000001
 10
128
 20
1964.00000000001
 10
128
 20
1280
 10
72
 20
1280
  0
INSERT
  5
237
100
AcDbEntity
  8
contour
  6
ByLayer
 62
  256
370
   -1
100
AcDbBlockReference
  2
pied
 10
2276.000000000099
 20
1240
 30
0
 41
1
 42
1
 43
0
 50
0
 70
    1
 71
    1
 44
1
 45
1
  0
LWPOLYLINE
  5
238
100
AcDbEntity
  8
contour
  6
ByLayer
 62
  256
370
   -1
100
AcDbPolyline
 90
    4
 70
    1
 43
0
 10
1360
 20
2240
 10
2360
 20
2240
 10
2360
 20
2222
 10
1360
 20
2222
  0
LWPOLYLINE
  5
239
100
AcDbEntity
  8
contour
  6
ByLayer
 62
  256
370
   -1
100
AcDbPolyline
 90
    4
 70
    1
 43
0
 10
1360
 20
2222
 10
1404
 20
2222
 10
1404
 20
2178
 10
1360
 20
2178
  0
LWPOLYLINE
  5
23A
100
AcDbEntity
  8
contour
  6
ByLayer
 62
  256
370
   -1
100
AcDbPolyline
 90
    4
 70
    1
 43
0
 10
2316
 20
2222
 10
2360
 20
2222
 10
2360
 20
2178
 10
2316
 20
2178
  0
LINE
  5
23B
100
AcDbEntity
  8
contour
  6
ByLayer
 62
  256
370
   -1
100
AcDbLine
 10
1404
 20
2178
 11
2316
 21
2178
  0
LWPOLYLINE
  5
23C
100
AcDbEntity
  8
contour
  6
ByLayer
 62
  256
370
   -1
100
AcDbPolyline
 90
    4
 70
    1
 43
0
 10
2304
 20
2178
 10
2360
 20
2178
 10
2360
 20
2122
 10
2304
 20
2122
  0
LWPOLYLINE
  5
23D
100
AcDbEntity
  8
contour
  6
ByBlock
 62
  256
370
   -1
100
AcDbPolyline
 90
    4
 70
    1
 43
0
 10
2304
 20
2178
 10
2248
 20
2178
 10
2248
 20
1280
 10
2304
 20
1280
  0
LWPOLYLINE
  5
23E
100
AcDbEntity
  8
contour
  6
ByLayer
 62
  256
370
   -1
100
AcDbPolyline
 90
    4
 70
    1
 43
0
 10
2192
 20
1728
 10
2248
 20
1728
 10
2248
 20
1672
 10
2192
 20
1672
  0
INSERT
  5
23F
100
AcDbEntity
  8
contour
  6
ByLayer
 62
  256
370
   -1
100
AcDbBlockReference
  2
fixation1
 10
2220
 20
1700
 30
0
 41
1
 42
1
 43
0
 50
0
 70
    1
 71
    1
 44
1
 45
1
  0
INSERT
  5
240
100
AcDbEntity
  8
contour
  6
ByLayer
 62
  256
370
   -1
100
AcDbBlockReference
  2
fixation1
 10
2276
 20
2151
 30
0
 41
1
 42
1
 43
0
 50
0
 70
    1
 71
    1
 44
1
 45
1
  0
LWPOLYLINE
  5
241
100
AcDbEntity
  8
contour
  6
ByLayer
 62
  256
370
   -1
100
AcDbPolyline
 90
    4
 70
    1
 43
0
 10
310
 20
2240
 10
310
 20
2240
 10
310
 20
2240
 10
310
 20
2240
  0
ARC
  5
242
100
AcDbEntity
  8
contour
  6
ByLayer
 62
  256
370
   -1
100
AcDbCircle
 10
370
 20
2410
 40
60
100
AcDbArc
 50
90
 51
180
  0
ARC
  5
243
100
AcDbEntity
  8
contour
  6
ByLayer
 62
  256
370
   -1
100
AcDbCircle
 10
1200
 20
2410
 40
60
100
AcDbArc
 50
0
 51
90.00001650589793
  0
LINE
  5
244
100
AcDbEntity
  8
contour
  6
ByLayer
 62
  256
370
   -1
100
AcDbLine
 10
310
 20
2410
 11
310
 21
2240
  0
LINE
  5
245
100
AcDbEntity
  8
contour
  6
ByLayer
 62
  256
370
   -1
100
AcDbLine
 10
370
 20
2470
 11
1200
 21
2469.999999999978
  0
ARC
  5
246
100
AcDbEntity
  8
contour
  6
ByLayer
 62
  256
370
   -1
100
AcDbCircle
 10
1320
 20
2410
 40
60
100
AcDbArc
 50
90
 51
180
  0
ARC
  5
247
100
AcDbEntity
  8
contour
  6
ByLayer
 62
  256
370
   -1
100
AcDbCircle
 10
2300
 20
2410
 40
60
100
AcDbArc
 50
0
 51
90
  0
LINE
  5
248
100
AcDbEntity
  8
contour
  6
ByLayer
 62
  256
370
   -1
100
AcDbLine
 10
1319.999949401309
 20
2470
 11
2300.000060721425
 21
2470
  0
LINE
  5
249
100
AcDbEntity
  8
contour
  6
ByLayer
 62
  256
370
   -1
100
AcDbLine
 10
2360
 20
2410.000035734166
 11
2360
 21
2240
  0
INSERT
  5
24A
100
AcDbEntity
  8
contour
  6
ByLayer
 62
  256
370
   -1
100
AcDbBlockReference
  2
Tirfond
 10
2332
 20
2122
 30
0
 41
1
 42
1
 43
0
 50
90
 70
    1
 71
    1
 44
1
 45
1
  0
LWPOLYLINE
  5
24B
100
AcDbEntity
  8
contour
  6
ByLayer
 62
  256
370
   -1
100
AcDbPolyline
 90
    4
 70
    1
 43
0
 10
1194
 20
2170
 10
1250
 20
2170
 10
1250
 20
1280
 10
1194
 20
1280
  0
LWPOLYLINE
  5
24C
100
AcDbEntity
  8
contour
  6
ByLayer
 62
  256
370
   -1
100
AcDbPolyline
 90
    4
 70
    1
 43
0
 10
290
 20
2170
 10
346
 20
2170
 10
346
 20
1280
 10
290
 20
1280
  0
LINE
  5
24D
100
AcDbEntity
  8
contour
  6
ByLayer
 62
  256
370
   -1
100
AcDbLine
 10
366
 20
2195
 11
456
 21
2195
  0
LWPOLYLINE
  5
24E
100
AcDbEntity
  8
contour
  6
ByLayer
 62
  256
370
   -1
100
AcDbPolyline
 90
    4
 70
    1
 43
0
 10
346
 20
2195
 10
696
 20
2195
 10
696
 20
2065
 10
346
 20
2065
  0
LINE
  5
24F
100
AcDbEntity
  8
contour
  6
ByLayer
 62
  256
370
   -1
100
AcDbLine
 10
696
 20
2065
 11
696
 21
2195
  0
CIRCLE
  5
250
100
AcDbEntity
  8
contour
  6
ByLayer
 62
  256
370
   -1
100
AcDbCircle
 10
521.0000000000003
 20
2130
 40
15
  0
LWPOLYLINE
  5
251
100
AcDbEntity
  8
contour
  6
ByLayer
 62
  256
370
   -1
100
AcDbPolyline
 90
    4
 70
    1
 43
0
 10
701
 20
2195
 10
1194
 20
2195
 10
1194
 20
2065
 10
701
 20
2065
  0
LINE
  5
252
100
AcDbEntity
  8
contour
  6
ByLayer
 62
  256
370
   -1
100
AcDbLine
 10
1194
 20
2065
 11
1194
 21
2195
  0
CIRCLE
  5
253
100
AcDbEntity
  8
contour
  6
ByLayer
 62
  256
370
   -1
100
AcDbCircle
 10
947.5000000000005
 20
2130
 40
15
  0
LWPOLYLINE
  5
254
100
AcDbEntity
  8
contour
  6
ByLayer
 62
  256
370
   -1
100
AcDbPolyline
 90
    4
 70
    1
 43
0
 10
346
 20
1496
 10
402
 20
1496
 10
402
 20
1440
 10
346
 20
1440
  0
LWPOLYLINE
  5
255
100
AcDbEntity
  8
contour
  6
ByLayer
 62
  256
370
   -1
100
AcDbPolyline
 90
    4
 70
    1
 43
0
 10
1194
 20
1440.000000000208
 10
1138
 20
1440.000000000208
 10
1138
 20
1496.000000000208
 10
1194
 20
1496.000000000208
  0
LWPOLYLINE
  5
256
100
AcDbEntity
  8
contour
  6
ByLayer
 62
  256
370
   -1
100
AcDbPolyline
 90
    4
 70
    1
 43
0
 10
346
 20
1440
 10
1194
 20
1440
 10
1194
 20
1422
 10
346
 20
1422
  0
INSERT
  5
257
100
AcDbEntity
  8
contour
  6
ByLayer
 62
  256
370
   -1
100
AcDbBlockReference
  2
pied
 10
318.0000000000992
 20
1240
 30
0
 41
1
 42
1
 43
0
 50
0
 70
    1
 71
    1
 44
1
 45
1
  0
LWPOLYLINE
  5
258
100
AcDbEntity
  8
contour
  6
ByBlock
 62
  256
370
   -1
100
AcDbPolyline
 90
    4
 70
    1
 43
0
 10
1606
 20
2178
 10
1550
 20
2178
 10
1550
 20
1280
 10
1606
 20
1280
  0
LWPOLYLINE
  5
259
100
AcDbEntity
  8
contour
  6
ByLayer
 62
  256
370
   -1
100
AcDbPolyline
 90
    4
 70
    1
 43
0
 10
1606
 20
2178
 10
1662
 20
2178
 10
1662
 20
2122
 10
1606
 20
2122
  0
LINE
  5
25A
100
AcDbEntity
  8
contour
  6
ByBlock
 62
  256
370
   -1
100
AcDbLine
 10
1250
 20
1758
 11
1550
 21
1758
  0
LWPOLYLINE
  5
25B
100
AcDbEntity
  8
contour
  6
ByLayer
 62
  256
370
   -1
100
AcDbPolyline
 90
    4
 70
    1
 43
0
 10
1250
 20
1802
 10
1294
 20
1802
 10
1294
 20
1758
 10
1250
 20
1758
  0
LWPOLYLINE
  5
25C
100
AcDbEntity
  8
contour
  6
ByLayer
 62
  256
370
   -1
100
AcDbPolyline
 90
    4
 70
    1
 43
0
 10
1506
 20
1802
 10
1550
 20
1802
 10
1550
 20
1758
 10
1506
 20
1758
  0
LINE
  5
25D
100
AcDbEntity
  8
contour
  6
ByBlock
 62
  256
370
   -1
100
AcDbLine
 10
1250
 20
1740
 11
1550
 21
1740
  0
LWPOLYLINE
  5
25E
100
AcDbEntity
  8
contour
  6
ByLayer
 62
  256
370
   -1
100
AcDbPolyline
 90
    4
 70
    1
 43
0
 10
1606
 20
1746
 10
2248
 20
1746
 10
2248
 20
1728
 10
1606
 20
1728
  0
LWPOLYLINE
  5
25F
100
AcDbEntity
  8
contour
  6
ByLayer
 62
  256
370
   -1
100
AcDbPolyline
 90
    4
 70
    1
 43
0
 10
1606
 20
1728
 10
1662
 20
1728
 10
1662
 20
1672
 10
1606
 20
1672
  0
INSERT
  5
260
100
AcDbEntity
  8
contour
  6
ByLayer
 62
  256
370
   -1
100
AcDbBlockReference
  2
pied
 10
1577.999999999999
 20
1240
 30
0
 41
1
 42
1
 43
0
 50
0
 70
    1
 71
    1
 44
1
 45
1
  0
INSERT
  5
261
100
AcDbEntity
  8
contour
  6
ByLayer
 62
  256
370
   -1
100
AcDbBlockReference
  2
pied
 10
1222.000000000099
 20
1240
 30
0
 41
1
 42
1
 43
0
 50
0
 70
    1
 71
    1
 44
1
 45
1
  0
INSERT
  5
262
100
AcDbEntity
  8
contour
  6
ByLayer
 62
  256
370
   -1
100
AcDbBlockReference
  2
fixation1
 10
1578
 20
2150
 30
0
 41
1
 42
1
 43
0
 50
0
 70
    1
 71
    1
 44
1
 45
1
  0
INSERT
  5
263
100
AcDbEntity
  8
contour
  6
ByLayer
 62
  256
370
   -1
100
AcDbBlockReference
  2
fixation1
 10
1578
 20
1699
 30
0
 41
1
 42
1
 43
0
 50
0
 70
    1
 71
    1
 44
1
 45
1
  0
INSERT
  5
264
100
AcDbEntity
  8
contour
  6
ByLayer
 62
  256
370
   -1
100
AcDbBlockReference
  2
Tirfond
 10
1634
 20
2122
 30
0
 41
1
 42
1
 43
0
 50
90
 70
    1
 71
    1
 44
1
 45
1
  0
INSERT
  5
265
100
AcDbEntity
  8
axe
  6
ByLayer
 62
  256
370
   -1
100
AcDbBlockReference
  2
Tirfond
 10
375
 20
2114
 30
0
 41
1
 42
1
 43
0
 50
90
 70
    1
 71
    1
 44
1
 45
1
  0
INSERT
  5
266
100
AcDbEntity
  8
axe
  6
ByLayer
 62
  256
370
   -1
100
AcDbBlockReference
  2
fixation1
 10
318
 20
2142
 30
0
 41
1
 42
1
 43
0
 50
0
 70
    1
 71
    1
 44
1
 45
1
  0
INSERT
  5
267
100
AcDbEntity
  8
axe
  6
ByLayer
 62
  256
370
   -1
100
AcDbBlockReference
  2
Tirfond
 10
1166.078763127188
 20
2114
 30
0
 41
1
 42
1
 43
0
 50
90
 70
    1
 71
    1
 44
1
 45
1
  0
INSERT
  5
268
100
AcDbEntity
  8
axe
  6
ByLayer
 62
  256
370
   -1
100
AcDbBlockReference
  2
fixation1
 10
374
 20
1468
 30
0
 41
1
 42
1
 43
0
 50
180
 70
    1
 71
    1
 44
1
 45
1
  0
INSERT
  5
269
100
AcDbEntity
  8
axe
  6
ByLayer
 62
  256
370
   -1
100
AcDbBlockReference
  2
fixation1
 10
1222
 20
1470
 30
0
 41
1
 42
1
 43
0
 50
180
 70
    1
 71
    1
 44
1
 45
1
  0
LINE
  5
26A
100
AcDbEntity
  8
axe
  6
ByLayer
 62
  256
370
   -1
100
AcDbLine
 10
111.937572928822
 20
2142
 11
1193.937572928822
 21
2142
  0
DIMENSION
  5
26B
100
AcDbEntity
  8
cotation
  6
ByLayer
 62
  256
370
   -1
100
AcDbDimension
  2
*D13
 10
2248
 20
1500
 30
0
 11
1927
 21
1537.5
 31
0
 70
   32
 71
    5
  3
Standard
 53
0
210
0
220
0
230
1
100
AcDbAlignedDimension
 13
1606
 23
1559
 33
0
 14
2248
 24
1559
 34
0
100
AcDbRotatedDimension
  0
DIMENSION
  5
26C
100
AcDbEntity
  8
cotation
  6
ByLayer
 62
  256
370
   -1
100
AcDbDimension
  2
*D14
 10
1550
 20
1950
 30
0
 11
1400
 21
1987.5
 31
0
 70
   32
 71
    5
  3
Standard
 53
0
210
0
220
0
230
1
100
AcDbAlignedDimension
 13
1250
 23
2040
 33
0
 14
1550
 24
2040
 34
0
100
AcDbRotatedDimension
  0
LWPOLYLINE
  5
26D
100
AcDbEntity
  8
pointillés
  6
ByLayer
 62
  256
370
   -1
100
AcDbPolyline
 90
    4
 70
    1
 43
0
 10
1194
 20
2170
 10
1138
 20
2170
 10
1138
 20
2114
 10
1194
 20
2114
  0
LINE
  5
26E
100
AcDbEntity
  8
pointillés
  6
ByLayer
 62
  256
370
   -1
100
AcDbLine
 10
400
 20
2170
 11
1138
 21
2170
  0
LINE
  5
26F
100
AcDbEntity
  8
contour
  6
ByLayer
 62
  256
370
   -1
100
AcDbLine
 10
0
 20
2240
 11
0
 21
2170
  0
LINE
  5
270
100
AcDbEntity
  8
contour
  6
ByLayer
 62
  256
370
   -1
100
AcDbLine
 10
0
 20
2170
 11
346
 21
2170
  0
LINE
  5
271
100
AcDbEntity
  8
contour
  6
ByLayer
 62
  256
370
   -1
100
AcDbLine
 10
0
 20
2240
 11
1360
 21
2240
  0
LINE
  5
272
100
AcDbEntity
  8
contour
  6
ByLayer
 62
  256
370
   -1
100
AcDbLine
 10
1194
 20
2170
 11
1360
 21
2170
  0
LINE
  5
273
100
AcDbEntity
  8
contour
  6
ByLayer
 62
  256
370
   -1
100
AcDbLine
 10
1360
 20
2170
 11
1360
 21
2240
  0
DIMENSION
  5
274
100
AcDbEntity
  8
cotation
  6
ByLayer
 62
  256
370
   -1
100
AcDbDimension
  2
*D15
 10
696
 20
1970
 30
0
 11
521
 21
2007.5
 31
0
 70
   32
 71
    5
  3
Standard
 53
0
210
0
220
0
230
1
100
AcDbAlignedDimension
 13
346
 23
2065
 33
0
 14
696
 24
2065
 34
0
100
AcDbRotatedDimension
  0
DIMENSION
  5
275
100
AcDbEntity
  8
cotation
  6
ByLayer
 62
  256
370
   -1
100
AcDbDimension
  2
*D16
 10
1194
 20
1970
 30
0
 11
947.5
 21
2007.5
 31
0
 70
   32
 71
    5
  3
Standard
 53
0
210
0
220
0
230
1
100
AcDbAlignedDimension
 13
701
 23
2065
 33
0
 14
1194
 24
2065
 34
0
100
AcDbRotatedDimension
  0
DIMENSION
  5
276
100
AcDbEntity
  8
cotation
  6
ByLayer
 62
  256
370
   -1
100
AcDbDimension
  2
*D17
 10
1294
 20
1820
 30
0
 11
1272
 21
1857.5
 31
0
 70
   32
 71
    5
  3
Standard
 53
0
210
0
220
0
230
1
100
AcDbAlignedDimension
 13
1250
 23
1802
 33
0
 14
1294
 24
1802
 34
0
100
AcDbRotatedDimension
  0
DIMENSION
  5
277
100
AcDbEntity
  8
cotation
  6
ByLayer
 62
  256
370
   -1
100
AcDbDimension
  2
*D18
 10
1480
 20
1758
 30
0
 11
1442.5
 21
1780
 31
0
 70
   32
 71
    5
  3
Standard
 53
0
210
0
220
0
230
1
100
AcDbAlignedDimension
 13
1506
 23
1802
 33
0
 14
1506
 24
1758
 34
0
 50
90
100
AcDbRotatedDimension
  0
INSERT
  5
278
100
AcDbEntity
  8
gris
  6
ByLayer
 62
  256
370
   -1
100
AcDbBlockReference
  2
Tirfond
 10
1404
 20
2200
 30
0
 41
1
 42
1
 43
0
 50
180
 70
    1
 71
    1
 44
1
 45
1
  0
INSERT
  5
279
100
AcDbEntity
  8
gris
  6
ByLayer
 62
  256
370
   -1
100
AcDbBlockReference
  2
vis 1
 10
1442.5
 20
2238
 30
0
 41
1
 42
1
 43
0
 50
270
 70
    1
 71
    1
 44
1
 45
1
  0
INSERT
  5
27A
100
AcDbEntity
  8
gris
  6
ByLayer
 62
  256
370
   -1
100
AcDbBlockReference
  2
vis 1
 10
1382
 20
2238
 30
0
 41
1
 42
1
 43
0
 50
270
 70
    1
 71
    1
 44
1
 45
1
  0
INSERT
  5
27B
100
AcDbEntity
  8
gris
  6
ByLayer
 62
  256
370
   -1
100
AcDbBlockReference
  2
vis 1
 10
2282.5
 20
2238
 30
0
 41
1
 42
1
 43
0
 50
270
 70
    1
 71
    1
 44
1
 45
1
  0
INSERT
  5
27C
100
AcDbEntity
  8
gris
  6
ByLayer
 62
  256
370
   -1
100
AcDbBlockReference
  2
vis 1
 10
1610.5
 20
2238
 30
0
 41
1
 42
1
 43
0
 50
270.079
 70
    1
 71
    1
 44
1
 45
1
  0
INSERT
  5
27D
100
AcDbEntity
  8
gris
  6
ByLayer
 62
  256
370
   -1
100
AcDbBlockReference
  2
vis 1
 10
1778.5
 20
2238
 30
0
 41
1
 42
1
 43
0
 50
270
 70
    1
 71
    1
 44
1
 45
1
  0
INSERT
  5
27E
100
AcDbEntity
  8
gris
  6
ByLayer
 62
  256
370
   -1
100
AcDbBlockReference
  2
vis 1
 10
1946.5
 20
2238
 30
0
 41
1
 42
1
 43
0
 50
270
 70
    1
 71
    1
 44
1
 45
1
  0
INSERT
  5
27F
100
AcDbEntity
  8
gris
  6
ByLayer
 62
  256
370
   -1
100
AcDbBlockReference
  2
vis 1
 10
2114.5
 20
2238
 30
0
 41
1
 42
1
 43
0
 50
270
 70
    1
 71
    1
 44
1
 45
1
  0
INSERT
  5
280
100
AcDbEntity
  8
gris
  6
ByLayer
 62
  256
370
   -1
100
AcDbBlockReference
  2
vis 1
 10
2338
 20
2238
 30
0
 41
1
 42
1
 43
0
 50
270
 70
    1
 71
    1
 44
1
 45
1
  0
INSERT
  5
281
100
AcDbEntity
  8
gris
  6
ByLayer
 62
  256
370
   -1
100
AcDbBlockReference
  2
tirfond2
 10
1591.3
 20
1780
 30
0
 41
1
 42
1
 43
0
 50
180
 70
    1
 71
    1
 44
1
 45
1
  0
INSERT
  5
282
100
AcDbEntity
  8
gris
  6
ByLayer
 62
  256
370
   -1
100
AcDbBlockReference
  2
tirfond2
 10
1208.7
 20
1780
 30
0
 41
1
 42
1
 43
0
 50
0
 70
    1
 71
    1
 44
1
 45
1
  0
LINE
  5
283
100
AcDbEntity
  8
pointillés
  6
ByLayer
 62
  256
370
   -1
100
AcDbLine
 10
1513.1
 20
1767.5
 11
1513.1
 21
1769.9
  0
LINE
  5
284
100
AcDbEntity
  8
pointillés
  6
ByLayer
 62
  256
370
   -1
100
AcDbLine
 10
1513.1
 20
1767.5
 11
1506
 21
1767.5
  0
LINE
  5
285
100
AcDbEntity
  8
pointillés
  6
ByLayer
 62
  256
370
   -1
100
AcDbLine
 10
1513.1
 20
1769.9
 11
1513.1
 21
1792.5
  0
LINE
  5
286
100
AcDbEntity
  8
pointillés
  6
ByLayer
 62
  256
370
   -1
100
AcDbLine
 10
1513.1
 20
1792.5
 11
1506
 21
1792.5
  0
LINE
  5
287
100
AcDbEntity
  8
pointillés
  6
ByLayer
 62
  256
370
   -1
100
AcDbLine
 10
1294
 20
1767.5
 11
1287
 21
1767.5
  0
LINE
  5
288
100
AcDbEntity
  8
pointillés
  6
ByLayer
 62
  256
370
   -1
100
AcDbLine
 10
1287
 20
1767.5
 11
1287
 21
1792.5
  0
LINE
  5
289
100
AcDbEntity
  8
pointillés
  6
ByLayer
 62
  256
370
   -1
100
AcDbLine
 10
1287
 20
1792.5
 11
1294
 21
1792.5
  0
ARC
  5
28A
100
AcDbEntity
  8
contour
  6
ByLayer
 62
  256
370
   -1
100
AcDbCircle
 10
472.5
 20
2377.5
 40
32.50008243031716
100
AcDbArc
 50
90.0000000000001
 51
270.1290443445948
  0
ARC
  5
28B
100
AcDbEntity
  8
contour
  6
ByLayer
 62
  256
370
   -1
100
AcDbCircle
 10
547.5000069705407
 20
2377.50000697054
 40
32.50002162390653
100
AcDbArc
 50
269.9999889673346
 51
90.0000110632309
  0
ARC
  5
28C
100
AcDbEntity
  8
contour
  6
ByLayer
 62
  256
370
   -1
100
AcDbCircle
 10
902.4999907282546
 20
2377.500008393386
 40
32.50002798132859
100
AcDbArc
 50
89.99998915853109
 51
270.0000119646796
  0
ARC
  5
28D
100
AcDbEntity
  8
contour
  6
ByLayer
 62
  256
370
   -1
100
AcDbCircle
 10
977.4999999999998
 20
2377.500019365355
 40
32.5000186530774
100
AcDbArc
 50
270.0000000000006
 51
90.00000022378876
  0
LINE
  5
28E
100
AcDbEntity
  8
contour
  6
ByLayer
 62
  256
370
   -1
100
AcDbLine
 10
472.5
 20
2410
 11
547.5
 21
2410
  0
LINE
  5
28F
100
AcDbEntity
  8
contour
  6
ByLayer
 62
  256
370
   -1
100
AcDbLine
 10
472.6
 20
2345
 11
547.5
 21
2345
  0
LINE
  5
290
100
AcDbEntity
  8
contour
  6
ByLayer
 62
  256
370
   -1
100
AcDbLine
 10
902.5
 20
2345
 11
977.5
 21
2345
  0
LINE
  5
291
100
AcDbEntity
  8
contour
  6
ByLayer
 62
  256
370
   -1
100
AcDbLine
 10
902.5
 20
2410
 11
977.5
 21
2410
  0
ARC
  5
292
100
AcDbEntity
  8
contour
  6
ByLayer
 62
  256
370
   -1
100
AcDbCircle
 10
1167.5
 20
2377.5
 40
32.5
100
AcDbArc
 50
0
 51
180
  0
ARC
  5
293
100
AcDbEntity
  8
contour
  6
ByLayer
 62
  256
370
   -1
100
AcDbCircle
 10
1167.5
 20
2302.5
 40
32.5
100
AcDbArc
 50
180
 51
0
  0
LINE
  5
294
100
AcDbEntity
  8
contour
  6
ByLayer
 62
  256
370
   -1
100
AcDbLine
 10
1135
 20
2377.5
 11
1135.000000000035
 21
2302.5
  0
LINE
  5
295
100
AcDbEntity
  8
contour
  6
ByLayer
 62
  256
370
   -1
100
AcDbLine
 10
1200
 20
2377.5
 11
1200
 21
2302.5
  0
INSERT
  5
296
100
AcDbEntity
  8
gris
  6
ByLayer
 62
  256
370
   -1
100
AcDbBlockReference
  2
fixation1
 10
1166
 20
2142
 30
0
 41
1
 42
1
 43
0
 50
0
 70
    1
 71
    1
 44
1
 45
1
  0
DIMENSION
  5
297
100
AcDbEntity
  8
cotation
  6
ByLayer
 62
  256
370
   -1
100
AcDbDimension
  2
*D19
 10
310
 20
2300
 30
0
 11
375
 21
2337.5
 31
0
 70
   32
 71
    5
  3
Standard
 53
0
210
0
220
0
230
1
100
AcDbAlignedDimension
 13
440
 23
2380
 33
0
 14
310
 24
2380
 34
0
100
AcDbRotatedDimension
  0
DIMENSION
  5
298
100
AcDbEntity
  8
cotation
  6
ByLayer
 62
  256
370
   -1
100
AcDbDimension
  2
*D20
 10
640
 20
2470
 30
0
 11
602.5
 21
2440
 31
0
 70
   32
 71
    5
  3
Standard
 53
0
210
0
220
0
230
1
100
AcDbAlignedDimension
 13
510
 23
2410
 33
0
 14
510
 24
2470
 34
0
 50
90
100
AcDbRotatedDimension
  0
DIMENSION
  5
299
100
AcDbEntity
  8
cotation
  6
ByLayer
 62
  256
370
   -1
100
AcDbDimension
  2
*D21
 10
1120
 20
2470
 30
0
 11
1082.5
 21
2440
 31
0
 70
   32
 71
    5
  3
Standard
 53
0
210
0
220
0
230
1
100
AcDbAlignedDimension
 13
1167.5
 23
2410
 33
0
 14
1167.5
 24
2470
 34
0
 50
90
100
AcDbRotatedDimension
  0
DIMENSION
  5
29A
100
AcDbEntity
  8
cotation
  6
ByLayer
 62
  256
370
   -1
100
AcDbDimension
  2
*D22
 10
1260
 20
2700
 30
0
 11
784.9999999999999
 21
2737.5
 31
0
 70
   32
 71
    5
  3
Standard
 53
0
210
0
220
0
230
1
100
AcDbAlignedDimension
 13
309.9999999999999
 23
2410.000023389337
 33
0
 14
1260
 24
2410.000044209773
 34
0
100
AcDbRotatedDimension
  0
DIMENSION
  5
29B
100
AcDbEntity
  8
cotation
  6
ByLayer
 62
  256
370
   -1
100
AcDbDimension
  2
*D23
 10
840
 20
2345
 30
0
 11
802.5
 21
2377.5
 31
0
 70
   32
 71
    5
  3
Standard
 53
0
210
0
220
0
230
1
100
AcDbAlignedDimension
 13
940
 23
2410
 33
0
 14
940
 24
2345
 34
0
 50
90
100
AcDbRotatedDimension
  0
DIMENSION
  5
29C
100
AcDbEntity
  8
cotation
  6
ByLayer
 62
  256
370
   -1
100
AcDbDimension
  2
*D24
 10
870
 20
2260
 30
0
 11
940
 21
2297.5
 31
0
 70
   32
 71
    5
  3
Standard
 53
0
210
0
220
0
230
1
100
AcDbAlignedDimension
 13
1010
 23
2377.5
 33
0
 14
870
 24
2377.5
 34
0
100
AcDbRotatedDimension
  0
MTEXT
  5
29D
100
AcDbEntity
  8
contour
  6
ByLayer
 62
  256
370
   -1
100
AcDbMText
 10
2000
 20
340
 30
0
 40
0.005
 41
0.04319611223543561
 71
    2
 72
    1
  1
Atelier salon
  7
unicode
210
0
220
0
230
1
 50
0
 73
    2
 44
1
  0
ARC
  5
29E
100
AcDbEntity
  8
contour
  6
ByLayer
 62
  256
370
   -1
100
AcDbCircle
 10
0
 20
0
 40
0
100
AcDbArc
 50
0
 51
0
  0
ARC
  5
29F
100
AcDbEntity
  8
contour
  6
ByLayer
 62
  256
370
   -1
100
AcDbCircle
 10
0
 20
0
 40
0
100
AcDbArc
 50
0
 51
0
  0
ARC
  5
2A0
100
AcDbEntity
  8
contour
  6
ByLayer
 62
  256
370
   -1
100
AcDbCircle
 10
150
 20
50
 40
50
100
AcDbArc
 50
270
 51
0
  0
ARC
  5
2A1
100
AcDbEntity
  8
contour
  6
ByLayer
 62
  256
370
   -1
100
AcDbCircle
 10
50
 20
50
 40
50
100
AcDbArc
 50
180
 51
270
  0
LINE
  5
2A2
100
AcDbEntity
  8
contour
  6
ByLayer
 62
  256
370
   -1
100
AcDbLine
 10
50
 20
0
 11
150
 21
0
  0
LINE
  5
2A3
100
AcDbEntity
  8
contour
  6
ByLayer
 62
  256
370
   -1
100
AcDbLine
 10
0
 20
50
 11
0
 21
525
  0
LINE
  5
2A4
100
AcDbEntity
  8
contour
  6
ByLayer
 62
  256
370
   -1
100
AcDbLine
 10
200
 20
50
 11
200
 21
525
  0
LWPOLYLINE
  5
2A5
100
AcDbEntity
  8
contour
  6
ByLayer
 62
  256
370
   -1
100
AcDbPolyline
 90
    4
 70
    1
 43
0
 10
2360
 20
915
 10
310
 20
915
 10
310
 20
933
 10
2360
 20
933
  0
LINE
  5
2A6
100
AcDbEntity
  8
contour
  6
ByLayer
 62
  256
370
   -1
100
AcDbLine
 10
696
 20
525
 11
696
 21
507
  0
LINE
  5
2A7
100
AcDbEntity
  8
contour
  6
ByLayer
 62
  256
370
   -1
100
AcDbLine
 10
701
 20
525
 11
701
 21
508
  0
LWPOLYLINE
  5
2A8
100
AcDbEntity
  8
contour
  6
ByLayer
 62
  256
370
   -1
100
AcDbPolyline
 90
    4
 70
    1
 43
0
 10
346
 20
507
 10
696
 20
507
 10
696
 20
525
 10
346
 20
525
  0
LWPOLYLINE
  5
2A9
100
AcDbEntity
  8
contour
  6
ByLayer
 62
  256
370
   -1
100
AcDbPolyline
 90
    4
 70
    1
 43
0
 10
701
 20
525
 10
1194
 20
525
 10
1194
 20
507
 10
701
 20
507
  0
LINE
  5
2AA
100
AcDbEntity
  8
contour
  6
ByLayer
 62
  256
370
   -1
100
AcDbLine
 10
516
 20
507
 11
516
 21
493
  0
LINE
  5
2AB
100
AcDbEntity
  8
contour
  6
ByLayer
 62
  256
370
   -1
100
AcDbLine
 10
516
 20
492
 11
516
 21
507
  0
LINE
  5
2AC
100
AcDbEntity
  8
contour
  6
ByLayer
 62
  256
370
   -1
100
AcDbLine
 10
526
 20
507
 11
526
 21
492
  0
LINE
  5
2AD
100
AcDbEntity
  8
contour
  6
ByLayer
 62
  256
370
   -1
100
AcDbLine
 10
531
 20
483
 11
511
 21
483
  0
LINE
  5
2AE
100
AcDbEntity
  8
contour
  6
ByLayer
 62
  256
370
   -1
100
AcDbLine
 10
511
 20
492
 11
531
 21
492
  0
LINE
  5
2AF
100
AcDbEntity
  8
contour
  6
ByLayer
 62
  256
370
   -1
100
AcDbLine
 10
963
 20
483
 11
963
 21
492
  0
LINE
  5
2B0
100
AcDbEntity
  8
contour
  6
ByLayer
 62
  256
370
   -1
100
AcDbLine
 10
931
 20
492
 11
931
 21
483
  0
LINE
  5
2B1
100
AcDbEntity
  8
contour
  6
ByLayer
 62
  256
370
   -1
100
AcDbLine
 10
952
 20
507
 11
952
 21
492
  0
LINE
  5
2B2
100
AcDbEntity
  8
contour
  6
ByLayer
 62
  256
370
   -1
100
AcDbLine
 10
943
 20
492
 11
943
 21
507
  0
LINE
  5
2B3
100
AcDbEntity
  8
contour
  6
ByLayer
 62
  256
370
   -1
100
AcDbLine
 10
931
 20
492
 11
963
 21
492
  0
LINE
  5
2B4
100
AcDbEntity
  8
contour
  6
ByLayer
 62
  256
370
   -1
100
AcDbLine
 10
963
 20
483
 11
931
 21
483
  0
LINE
  5
2B5
100
AcDbEntity
  8
contour
  6
ByLayer
 62
  256
370
   -1
100
AcDbLine
 10
506
 20
492
 11
536
 21
492
  0
LINE
  5
2B6
100
AcDbEntity
  8
contour
  6
ByLayer
 62
  256
370
   -1
100
AcDbLine
 10
536
 20
492
 11
536
 21
483
  0
LINE
  5
2B7
100
AcDbEntity
  8
contour
  6
ByLayer
 62
  256
370
   -1
100
AcDbLine
 10
536
 20
483
 11
506
 21
483
  0
LINE
  5
2B8
100
AcDbEntity
  8
contour
  6
ByLayer
 62
  256
370
   -1
100
AcDbLine
 10
506
 20
483
 11
506
 21
492
  0
LWPOLYLINE
  5
2B9
100
AcDbEntity
  8
contour
  6
ByLayer
 62
  256
370
   -1
100
AcDbPolyline
 90
    4
 70
    1
 43
0
 10
-35
 20
895
 10
0
 20
895
 10
0
 20
545
 10
-35
 20
545
  0
LINE
  5
2BA
100
AcDbEntity
  8
contour
  6
ByLayer
 62
  256
370
   -1
100
AcDbLine
 10
-35
 20
545
 11
0
 21
545
  0
INSERT
  5
2BB
100
AcDbEntity
  8
contour
  6
ByLayer
 62
  256
370
   -1
100
AcDbBlockReference
  2
poignée
 10
-35
 20
725
 30
0
 41
1
 42
1
 43
0
 50
180
 70
    1
 71
    1
 44
1
 45
1
  0
LWPOLYLINE
  5
2BC
100
AcDbEntity
  8
contour
  6
ByLayer
 62
  256
370
   -1
100
AcDbPolyline
 90
    4
 70
    1
 43
0
 10
-35
 20
2235
 10
0
 20
2235
 10
0
 20
2035
 10
-35
 20
2035
  0
INSERT
  5
2BD
100
AcDbEntity
  8
contour
  6
ByLayer
 62
  256
370
   -1
100
AcDbBlockReference
  2
poignée
 10
-35
 20
2140
 30
0
 41
1
 42
1
 43
0
 50
180
 70
    1
 71
    1
 44
1
 45
1
  0
LINE
  5
2BE
100
AcDbEntity
  8
contour
  6
ByLayer
 62
  256
370
   -1
100
AcDbLine
 10
1260
 20
933
 11
1260
 21
915
  0
DIMENSION
  5
2BF
100
AcDbEntity
  8
cotation
  6
ByLayer
 62
  256
370
   -1
100
AcDbDimension
  2
*D25
 10
-200
 20
545
 30
0
 11
-237.5
 21
720
 31
0
 70
   32
 71
    5
  3
Standard
 53
0
210
0
220
0
230
1
100
AcDbAlignedDimension
 13
-35
 23
895
 33
0
 14
-35
 24
545
 34
0
 50
90
100
AcDbRotatedDimension
  0
DIMENSION
  5
2C0
100
AcDbEntity
  8
cotation
  6
ByLayer
 62
  256
370
   -1
100
AcDbDimension
  2
*D26
 10
300
 20
2065
 30
0
 11
262.5
 21
2130
 31
0
 70
   32
 71
    5
  3
Standard
 53
0
210
0
220
0
230
1
100
AcDbAlignedDimension
 13
346
 23
2195
 33
0
 14
346
 24
2065
 34
0
 50
90
100
AcDbRotatedDimension
  0
DIMENSION
  5
2C1
100
AcDbEntity
  8
cotation
  6
ByLayer
 62
  256
370
   -1
100
AcDbDimension
  2
*D27
 10
-300
 20
525
 30
0
 11
-337.5
 21
720
 31
0
 70
   32
 71
    5
  3
Standard
 53
0
210
0
220
0
230
1
100
AcDbAlignedDimension
 13
0
 23
915
 33
0
 14
0
 24
525
 34
0
 50
90
100
AcDbRotatedDimension
  0
DIMENSION
  5
2C2
100
AcDbEntity
  8
cotation
  6
ByLayer
 62
  256
370
   -1
100
AcDbDimension
  2
*D28
 10
-300
 20
3.673940397442059e-14
 30
0
 11
-337.5
 21
262.5
 31
0
 70
   32
 71
    5
  3
Standard
 53
0
210
0
220
0
230
1
100
AcDbAlignedDimension
 13
0
 23
525
 33
0
 14
0
 24
0
 34
0
 50
90
100
AcDbRotatedDimension
  0
LINE
  5
2C3
100
AcDbEntity
  8
contour
  6
ByLayer
 62
  256
370
   -1
100
AcDbLine
 10
2360
 20
915
 11
2360
 21
415
  0
ARC
  5
2C4
100
AcDbEntity
  8
contour
  6
ByLayer
 62
  256
370
   -1
100
AcDbCircle
 10
1470
 20
525
 40
110
100
AcDbArc
 50
180
 51
270
  0
LINE
  5
2C5
100
AcDbEntity
  8
contour
  6
ByLayer
 62
  256
370
   -1
100
AcDbLine
 10
1470
 20
415
 11
2360
 21
415
  0
LINE
  5
2C6
100
AcDbEntity
  8
contour
  6
ByLayer
 62
  256
370
   -1
100
AcDbLine
 10
3018
 20
2164
 11
3018
 21
2181
  0
LWPOLYLINE
  5
2C7
100
AcDbEntity
  8
contour
  6
ByLayer
 62
  256
370
   -1
100
AcDbPolyline
 90
    4
 70
    1
 43
0
 10
3000
 20
2470
 10
3018
 20
2470
 10
3018
 20
2170
 10
3000
 20
2170
  0
LINE
  5
2C8
100
AcDbEntity
  8
contour
  6
ByLayer
 62
  256
370
   -1
100
AcDbLine
 10
3018
 20
2470
 11
3018
 21
1280
  0
LINE
  5
2C9
100
AcDbEntity
  8
contour
  6
ByLayer
 62
  256
370
   -1
100
AcDbLine
 10
3038
 20
2235
 11
3038
 21
2157
  0
LWPOLYLINE
  5
2CA
100
AcDbEntity
  8
contour
  6
ByLayer
 62
  256
370
   -1
100
AcDbPolyline
 90
    4
 70
    1
 43
0
 10
3038
 20
2235
 10
3388
 20
2235
 10
3388
 20
2035
 10
3038
 20
2035
  0
CIRCLE
  5
2CB
100
AcDbEntity
  8
contour
  6
ByLayer
 62
  256
370
   -1
100
AcDbCircle
 10
3213
 20
2135
 40
15
  0
LINE
  5
2CC
100
AcDbEntity
  8
contour
  6
ByLayer
 62
  256
370
   -1
100
AcDbLine
 10
3408
 20
2240
 11
3018
 21
2240
  0
LINE
  5
2CD
100
AcDbEntity
  8
contour
  6
ByLayer
 62
  256
370
   -1
100
AcDbLine
 10
3018
 20
2170
 11
3038
 21
2170
  0
LINE
  5
2CE
100
AcDbEntity
  8
contour
  6
ByLayer
 62
  256
370
   -1
100
AcDbLine
 10
3408
 20
2178
 11
3408
 21
2095
  0
LINE
  5
2CF
100
AcDbEntity
  8
contour
  6
ByLayer
 62
  256
370
   -1
100
AcDbLine
 10
3408
 20
2095
 11
3388
 21
2095
  0
LINE
  5
2D0
100
AcDbEntity
  8
contour
  6
ByLayer
 62
  256
370
   -1
100
AcDbLine
 10
3388
 20
2170
 11
3408
 21
2170
  0
LINE
  5
2D1
100
AcDbEntity
  8
contour
  6
ByLayer
 62
  256
370
   -1
100
AcDbLine
 10
3018
 20
2095
 11
3038
 21
2095
  0
LINE
  5
2D2
100
AcDbEntity
  8
contour
  6
ByLayer
 62
  256
370
   -1
100
AcDbLine
 10
3018
 20
2020
 11
3933
 21
2020
  0
LINE
  5
2D3
100
AcDbEntity
  8
contour
  6
ByLayer
 62
  256
370
   -1
100
AcDbLine
 10
3408
 20
2095
 11
3933
 21
2095
  0
LINE
  5
2D4
100
AcDbEntity
  8
contour
  6
ByLayer
 62
  256
370
   -1
100
AcDbLine
 10
3933
 20
2095
 11
3933
 21
2020
  0
LINE
  5
2D5
100
AcDbEntity
  8
contour
  6
ByLayer
 62
  256
370
   -1
100
AcDbLine
 10
3018
 20
1280
 11
3047
 21
1280
  0
LWPOLYLINE
  5
2D6
100
AcDbEntity
  8
contour
  6
ByLayer
 62
  256
370
   -1
100
AcDbPolyline
 90
    4
 70
    1
 43
0
 10
3018
 20
2020
 10
3074
 20
2020
 10
3074
 20
1280
 10
3018
 20
1280
  0
LWPOLYLINE
  5
2D7
100
AcDbEntity
  8
contour
  6
ByLayer
 62
  256
370
   -1
100
AcDbPolyline
 90
    4
 70
    1
 43
0
 10
3780
 20
2020
 10
3836
 20
2020
 10
3836
 20
1964
 10
3780
 20
1964
  0
LWPOLYLINE
  5
2D8
100
AcDbEntity
  8
contour
  6
ByLayer
 62
  256
370
   -1
100
AcDbPolyline
 90
    4
 70
    1
 43
0
 10
3724
 20
2020
 10
3780
 20
2020
 10
3780
 20
1280
 10
3724
 20
1280
  0
LWPOLYLINE
  5
2D9
100
AcDbEntity
  8
contour
  6
ByLayer
 62
  256
370
   -1
100
AcDbPolyline
 90
    4
 70
    1
 43
0
 10
3352
 20
2020
 10
3408
 20
2020
 10
3408
 20
1280
 10
3352
 20
1280
  0
LWPOLYLINE
  5
2DA
100
AcDbEntity
  8
contour
  6
ByLayer
 62
  256
370
   -1
100
AcDbPolyline
 90
    4
 70
    1
 43
0
 10
3408
 20
2240
 10
3518
 20
2240
 10
3518
 20
2222
 10
3408
 20
2222
  0
LINE
  5
2DB
100
AcDbEntity
  8
contour
  6
ByLayer
 62
  256
370
   -1
100
AcDbLine
 10
3408
 20
2222
 11
3408
 21
2178
  0
INSERT
  5
2DC
100
AcDbEntity
  8
contour
  6
ByLayer
 62
  256
370
   -1
100
AcDbBlockReference
  2
pied
 10
3046
 20
1240
 30
0
 41
1
 42
1
 43
0
 50
0
 70
    1
 71
    1
 44
1
 45
1
  0
INSERT
  5
2DD
100
AcDbEntity
  8
contour
  6
ByLayer
 62
  256
370
   -1
100
AcDbBlockReference
  2
pied
 10
3380
 20
1240
 30
0
 41
1
 42
1
 43
0
 50
0
 70
    1
 71
    1
 44
1
 45
1
  0
INSERT
  5
2DE
100
AcDbEntity
  8
contour
  6
ByLayer
 62
  256
370
   -1
100
AcDbBlockReference
  2
pied
 10
3752
 20
1240
 30
0
 41
1
 42
1
 43
0
 50
0
 70
    1
 71
    1
 44
1
 45
1
  0
INSERT
  5
2DF
100
AcDbEntity
  8
pointillés
  6
ByLayer
 62
  256
370
   -1
100
AcDbBlockReference
  2
pied2
 10
3041
 20
1280
 30
0
 41
1
 42
1
 43
0
 50
0
 70
    1
 71
    1
 44
1
 45
1
  0
INSERT
  5
2E0
100
AcDbEntity
  8
pointillés
  6
ByLayer
 62
  256
370
   -1
100
AcDbBlockReference
  2
pied2
 10
3375
 20
1280
 30
0
 41
1
 42
1
 43
0
 50
0
 70
    1
 71
    1
 44
1
 45
1
  0
INSERT
  5
2E1
100
AcDbEntity
  8
pointillés
  6
ByLayer
 62
  256
370
   -1
100
AcDbBlockReference
  2
pied2
 10
3747
 20
1280
 30
0
 41
1
 42
1
 43
0
 50
0
 70
    1
 71
    1
 44
1
 45
1
  0
LINE
  5
2E2
100
AcDbEntity
  8
contour
  6
ByLayer
 62
  256
370
   -1
100
AcDbLine
 10
3074
 20
1422
 11
3352
 21
1422
  0
LINE
  5
2E3
100
AcDbEntity
  8
contour
  6
ByLayer
 62
  256
370
   -1
100
AcDbLine
 10
3074
 20
1440
 11
3352
 21
1440
  0
LINE
  5
2E4
100
AcDbEntity
  8
contour
  6
ByLayer
 62
  256
370
   -1
100
AcDbLine
 10
3074
 20
1496
 11
3352
 21
1496
  0
LINE
  5
2E5
100
AcDbEntity
  8
contour
  6
ByLayer
 62
  256
370
   -1
100
AcDbLine
 10
3352
 20
1672
 11
3074
 21
1672
  0
LINE
  5
2E6
100
AcDbEntity
  8
contour
  6
ByLayer
 62
  256
370
   -1
100
AcDbLine
 10
3352
 20
1728
 11
3074
 21
1728
  0
LINE
  5
2E7
100
AcDbEntity
  8
contour
  6
ByLayer
 62
  256
370
   -1
100
AcDbLine
 10
3074
 20
1758
 11
3352
 21
1758
  0
LINE
  5
2E8
100
AcDbEntity
  8
contour
  6
ByLayer
 62
  256
370
   -1
100
AcDbLine
 10
3352
 20
1740
 11
3074
 21
1740
  0
LINE
  5
2E9
100
AcDbEntity
  8
contour
  6
ByLayer
 62
  256
370
   -1
100
AcDbLine
 10
3074
 20
1814
 11
3352
 21
1814
  0
LWPOLYLINE
  5
2EA
100
AcDbEntity
  8
contour
  6
ByLayer
 62
  256
370
   -1
100
AcDbPolyline
 90
    4
 70
    1
 43
0
 10
3408
 20
2195.945345858241
 10
3426
 20
2195.945345858241
 10
3426
 20
2095
 10
3408
 20
2095
  0
INSERT
  5
2EB
100
AcDbEntity
  8
contour
  6
ByLayer
 62
  256
370
   -1
100
AcDbBlockReference
  2
poignée
 10
3426
 20
2130
 30
0
 41
1
 42
1
 43
0
 50
0
 70
    1
 71
    1
 44
1
 45
1
  0
LINE
  5
2EC
100
AcDbEntity
  8
pointillés
  6
ByLayer
 62
  256
370
   -1
100
AcDbLine
 10
3352
 20
1422
 11
3408
 21
1422
  0
LINE
  5
2ED
100
AcDbEntity
  8
pointillés
  6
ByLayer
 62
  256
370
   -1
100
AcDbLine
 10
3352
 20
1440
 11
3408
 21
1440
  0
LINE
  5
2EE
100
AcDbEntity
  8
pointillés
  6
ByLayer
 62
  256
370
   -1
100
AcDbLine
 10
3074
 20
1440
 11
3018
 21
1440
  0
LINE
  5
2EF
100
AcDbEntity
  8
pointillés
  6
ByLayer
 62
  256
370
   -1
100
AcDbLine
 10
3074
 20
1422
 11
3018
 21
1422
  0
LINE
  5
2F0
100
AcDbEntity
  8
pointillés
  6
ByLayer
 62
  256
370
   -1
100
AcDbLine
 10
3352
 20
1496
 11
3408
 21
1496
  0
LINE
  5
2F1
100
AcDbEntity
  8
pointillés
  6
ByLayer
 62
  256
370
   -1
100
AcDbLine
 10
3074
 20
1496
 11
3018
 21
1496
  0
LINE
  5
2F2
100
AcDbEntity
  8
pointillés
  6
ByLayer
 62
  256
370
   -1
100
AcDbLine
 10
3074
 20
1672
 11
3018
 21
1672
  0
LINE
  5
2F3
100
AcDbEntity
  8
pointillés
  6
ByLayer
 62
  256
370
   -1
100
AcDbLine
 10
3074
 20
1728
 11
3018
 21
1728
  0
LINE
  5
2F4
100
AcDbEntity
  8
pointillés
  6
ByLayer
 62
  256
370
   -1
100
AcDbLine
 10
3074
 20
1740
 11
3018
 21
1740
  0
LINE
  5
2F5
100
AcDbEntity
  8
pointillés
  6
ByLayer
 62
  256
370
   -1
100
AcDbLine
 10
3074
 20
1758
 11
3018
 21
1758
  0
LINE
  5
2F6
100
AcDbEntity
  8
pointillés
  6
ByLayer
 62
  256
370
   -1
100
AcDbLine
 10
3352
 20
1758
 11
3408
 21
1758
  0
LINE
  5
2F7
100
AcDbEntity
  8
pointillés
  6
ByLayer
 62
  256
370
   -1
100
AcDbLine
 10
3352
 20
1740
 11
3408
 21
1740
  0
LINE
  5
2F8
100
AcDbEntity
  8
pointillés
  6
ByLayer
 62
  256
370
   -1
100
AcDbLine
 10
3352
 20
1728
 11
3408
 21
1728
  0
LINE
  5
2F9
100
AcDbEntity
  8
pointillés
  6
ByLayer
 62
  256
370
   -1
100
AcDbLine
 10
3352
 20
1672
 11
3408
 21
1672
  0
LINE
  5
2FA
100
AcDbEntity
  8
pointillés
  6
ByLayer
 62
  256
370
   -1
100
AcDbLine
 10
3352
 20
1814
 11
3408
 21
1814
  0
LINE
  5
2FB
100
AcDbEntity
  8
pointillés
  6
ByLayer
 62
  256
370
   -1
100
AcDbLine
 10
3074
 20
1814
 11
3018
 21
1814
  0
LINE
  5
2FC
100
AcDbEntity
  8
pointillés
  6
ByLayer
 62
  256
370
   -1
100
AcDbLine
 10
3038
 20
2095
 11
3388
 21
2095
  0
LINE
  5
2FD
100
AcDbEntity
  8
pointillés
  6
ByLayer
 62
  256
370
   -1
100
AcDbLine
 10
3388
 20
2170
 11
3038
 21
2170
  0
LINE
  5
2FE
100
AcDbEntity
  8
pointillés
  6
ByLayer
 62
  256
370
   -1
100
AcDbLine
 10
3408
 20
2095
 11
3408
 21
2035
  0
LINE
  5
2FF
100
AcDbEntity
  8
pointillés
  6
ByLayer
 62
  256
370
   -1
100
AcDbLine
 10
3426
 20
2095
 11
3426
 21
2035
  0
LINE
  5
300
100
AcDbEntity
  8
pointillés
  6
ByLayer
 62
  256
370
   -1
100
AcDbLine
 10
3426
 20
2035
 11
3408
 21
2035
  0
LINE
  5
301
100
AcDbEntity
  8
pointillés
  6
ByLayer
 62
  256
370
   -1
100
AcDbLine
 10
3408
 20
2035
 11
3408
 21
2020
  0
INSERT
  5
302
100
AcDbEntity
  8
gris
  6
ByLayer
 62
  256
370
   -1
100
AcDbBlockReference
  2
tirfond3
 10
3050
 20
2200
 30
0
 41
1
 42
1
 43
0
 50
180
 70
    1
 71
    1
 44
1
 45
1
  0
INSERT
  5
303
100
AcDbEntity
  8
gris
  6
ByLayer
 62
  256
370
   -1
100
AcDbBlockReference
  2
tirfond3
 10
410
 20
883
 30
0
 41
1
 42
1
 43
0
 50
90
 70
    1
 71
    1
 44
1
 45
1
  0
INSERT
  5
304
100
AcDbEntity
  8
gris
  6
ByLayer
 62
  256
370
   -1
100
AcDbBlockReference
  2
tirfond3
 10
1160
 20
883
 30
0
 41
1
 42
1
 43
0
 50
90
 70
    1
 71
    1
 44
1
 45
1
  0
INSERT
  5
305
100
AcDbEntity
  8
gris
  6
ByLayer
 62
  256
370
   -1
100
AcDbBlockReference
  2
tirfond3
 10
785
 20
883
 30
0
 41
1
 42
1
 43
0
 50
90
 70
    1
 71
    1
 44
1
 45
1
  0
LINE
  5
306
100
AcDbEntity
  8
construction
  6
ByLayer
 62
  256
370
   -1
100
AcDbLine
 10
597.5000000000001
 20
924
 11
597.5
 21
935.2
  0
INSERT
  5
307
100
AcDbEntity
  8
gris
  6
ByLayer
 62
  256
370
   -1
100
AcDbBlockReference
  2
tirfond3
 10
972.5
 20
883
 30
0
 41
1
 42
1
 43
0
 50
90
 70
    1
 71
    1
 44
1
 45
1
  0
INSERT
  5
308
100
AcDbEntity
  8
gris
  6
ByLayer
 62
  256
370
   -1
100
AcDbBlockReference
  2
tirfond3
 10
597.5
 20
883
 30
0
 41
1
 42
1
 43
0
 50
90
 70
    1
 71
    1
 44
1
 45
1
  0
LWPOLYLINE
  5
309
100
AcDbEntity
  8
contour
  6
ByLayer
 62
  256
370
   -1
100
AcDbPolyline
 90
    4
 70
    1
 43
0
 10
1230
 20
2406
 10
1560
 20
2406
 10
1560
 20
2350
 10
1230
 20
2350
  0
LINE
  5
30A
100
AcDbEntity
  8
contour
  6
ByLayer
 62
  256
370
   -1
100
AcDbLine
 10
1260
 20
2410
 11
1260
 21
2406
  0
LINE
  5
30B
100
AcDbEntity
  8
contour
  6
ByLayer
 62
  256
370
   -1
100
AcDbLine
 10
1260
 20
2350
 11
1260
 21
2240
  0
LWPOLYLINE
  5
30C
100
AcDbEntity
  8
contour
  6
ByLayer
 62
  256
370
   -1
100
AcDbPolyline
 90
    4
 70
    1
 43
0
 10
3018
 20
2406
 10
3074
 20
2406
 10
3074
 20
2350
 10
3018
 20
2350
  0
LINE
  5
30D
100
AcDbEntity
  8
pointillés
  6
ByLayer
 62
  256
370
   -1
100
AcDbLine
 10
3018
 20
2406
 11
3000
 21
2406
  0
LINE
  5
30E
100
AcDbEntity
  8
pointillés
  6
ByLayer
 62
  256
370
   -1
100
AcDbLine
 10
3000
 20
2341
 11
3018
 21
2341
  0
LINE
  5
30F
100
AcDbEntity
  8
pointillés
  6
ByLayer
 62
  256
370
   -1
100
AcDbLine
 10
3000
 20
2266
 11
3018
 21
2266
  0
INSERT
  5
310
100
AcDbEntity
  8
gris
  6
ByLayer
 62
  256
370
   -1
100
AcDbBlockReference
  2
tirfond3
 10
3050
 20
2378
 30
0
 41
1
 42
1
 43
0
 50
180
 70
    1
 71
    1
 44
1
 45
1
  0
DIMENSION
  5
311
100
AcDbEntity
  8
cotation
  6
ByLayer
 62
  256
370
   -1
100
AcDbDimension
  2
*D29
 10
310
 20
2600
 30
0
 11
590.0000000000001
 21
2637.5
 31
0
 70
   32
 71
    5
  3
Standard
 53
0
210
0
220
0
230
1
100
AcDbAlignedDimension
 13
870.0000000000001
 23
2377.5
 33
0
 14
310
 24
2377.5
 34
0
100
AcDbRotatedDimension
  0
DIMENSION
  5
312
100
AcDbEntity
  8
cotation
  6
ByLayer
 62
  256
370
   -1
100
AcDbDimension
  2
*D30
 10
1135
 20
2600
 30
0
 11
1002.5
 21
2637.5
 31
0
 70
   32
 71
    5
  3
Standard
 53
0
210
0
220
0
230
1
100
AcDbAlignedDimension
 13
870
 23
2377.5
 33
0
 14
1135
 24
2377.500057561163
 34
0
100
AcDbRotatedDimension
  0
DIMENSION
  5
313
100
AcDbEntity
  8
cotation
  6
ByLayer
 62
  256
370
   -1
100
AcDbDimension
  2
*D31
 10
1700
 20
2350
 30
0
 11
1662.5
 21
2378
 31
0
 70
   32
 71
    5
  3
Standard
 53
0
210
0
220
0
230
1
100
AcDbAlignedDimension
 13
1560
 23
2406
 33
0
 14
1560
 24
2350
 34
0
 50
90
100
AcDbRotatedDimension
  0
LINE
  5
314
100
AcDbEntity
  8
contour
  6
ByLayer
 62
  256
370
   -1
100
AcDbLine
 10
1230
 20
859
 11
1560
 21
859
  0
LINE
  5
315
100
AcDbEntity
  8
contour
  6
ByLayer
 62
  256
370
   -1
100
AcDbLine
 10
0
 20
915
 11
1360
 21
915
  0
LINE
  5
316
100
AcDbEntity
  8
contour
  6
ByLayer
 62
  256
370
   -1
100
AcDbLine
 10
0
 20
915
 11
0
 21
525.000023549191
  0
LINE
  5
317
100
AcDbEntity
  8
contour
  6
ByLayer
 62
  256
370
   -1
100
AcDbLine
 10
0
 20
525.000023549191
 11
1360
 21
525.000023549191
  0
LINE
  5
318
100
AcDbEntity
  8
contour
  6
ByLayer
 62
  256
370
   -1
100
AcDbLine
 10
1360
 20
525.000023549191
 11
1360
 21
859
  0
LINE
  5
319
100
AcDbEntity
  8
pointillés
  6
ByLayer
 62
  256
370
   -1
100
AcDbLine
 10
1360
 20
859
 11
1360
 21
915
  0
LINE
  5
31A
100
AcDbEntity
  8
contour
  6
ByLayer
 62
  256
370
   -1
100
AcDbLine
 10
1230
 20
859
 11
1230
 21
915
  0
LINE
  5
31B
100
AcDbEntity
  8
contour
  6
ByLayer
 62
  256
370
   -1
100
AcDbLine
 10
1560
 20
859
 11
1560
 21
915
  0
INSERT
  5
31C
100
AcDbEntity
  8
contour
  6
ByLayer
 62
  256
370
   -1
100
AcDbBlockReference
  2
tirfond3
 10
2310
 20
883
 30
0
 41
1
 42
1
 43
0
 50
90
 70
    1
 71
    1
 44
1
 45
1
  0
INSERT
  5
31D
100
AcDbEntity
  8
contour
  6
ByLayer
 62
  256
370
   -1
100
AcDbBlockReference
  2
tirfond3
 10
2085
 20
883
 30
0
 41
1
 42
1
 43
0
 50
90
 70
    1
 71
    1
 44
1
 45
1
  0
INSERT
  5
31E
100
AcDbEntity
  8
contour
  6
ByLayer
 62
  256
370
   -1
100
AcDbBlockReference
  2
tirfond3
 10
1810
 20
883
 30
0
 41
1
 42
1
 43
0
 50
90
 70
    1
 71
    1
 44
1
 45
1
  0
INSERT
  5
31F
100
AcDbEntity
  8
contour
  6
ByLayer
 62
  256
370
   -1
100
AcDbBlockReference
  2
tirfond3
 10
1535
 20
883
 30
0
 41
1
 42
1
 43
0
 50
90
 70
    1
 71
    1
 44
1
 45
1
  0
INSERT
  5
320
100
AcDbEntity
  8
contour
  6
ByLayer
 62
  256
370
   -1
100
AcDbBlockReference
  2
tirfond3
 10
1310
 20
883
 30
0
 41
1
 42
1
 43
0
 50
90
 70
    1
 71
    1
 44
1
 45
1
  0
INSERT
  5
321
100
AcDbEntity
  8
contour
  6
ByLayer
 62
  256
370
   -1
100
AcDbBlockReference
  2
tirfond3
 10
1395
 20
883
 30
0
 41
1
 42
1
 43
0
 50
90
 70
    1
 71
    1
 44
1
 45
1
  0
INSERT
  5
322
100
AcDbEntity
  8
contour
  6
ByLayer
 62
  256
370
   -1
100
AcDbBlockReference
  2
tirfond3
 10
1480
 20
883
 30
0
 41
1
 42
1
 43
0
 50
90
 70
    1
 71
    1
 44
1
 45
1
  0
LINE
  5
323
100
AcDbEntity
  8
pointillés
  6
ByLayer
 62
  256
370
   -1
100
AcDbLine
 10
200
 20
525
 11
200
 21
915
  0
LWPOLYLINE
  5
324
100
AcDbEntity
  8
pointillés
  6
ByLayer
 62
  256
370
   -1
100
AcDbPolyline
 90
    4
 70
    1
 43
0
 10
0
 20
153
 10
200
 20
153
 10
200
 20
97
 10
0
 20
97
  0
LWPOLYLINE
  5
325
100
AcDbEntity
  8
pointillés
  6
ByLayer
 62
  256
370
   -1
100
AcDbPolyline
 90
    4
 70
    1
 43
0
 10
346
 20
2170
 10
402
 20
2170
 10
402
 20
2114
 10
346
 20
2114
  0
LWPOLYLINE
  5
326
100
AcDbEntity
  8
pointillés
  6
ByLayer
 62
  256
370
   -1
100
AcDbPolyline
 90
    4
 70
    1
 43
0
 10
72
 20
209
 10
128
 20
209
 10
128
 20
153
 10
72
 20
153
  0
CIRCLE
  5
327
100
AcDbEntity
  8
contour
  6
ByLayer
 62
  256
370
   -1
100
AcDbCircle
 10
2200
 20
2380
 40
50
  0
INSERT
  5
328
100
AcDbEntity
  8
contour
  6
ByLayer
 62
  256
370
   -1
100
AcDbBlockReference
  2
tirfond3;1
 10
1310
 20
2204
 30
0
 41
1
 42
1
 43
0
 50
0
 70
    1
 71
    1
 44
1
 45
1
  0
INSERT
  5
329
100
AcDbEntity
  8
contour
  6
ByLayer
 62
  256
370
   -1
100
AcDbBlockReference
  2
tirfond3;1
 10
1404
 20
2204
 30
0
 41
1
 42
1
 43
0
 50
0
 70
    1
 71
    1
 44
1
 45
1
  0
INSERT
  5
32A
100
AcDbEntity
  8
contour
  6
ByLayer
 62
  256
370
   -1
100
AcDbBlockReference
  2
tirfond3;1
 10
1480
 20
2204
 30
0
 41
1
 42
1
 43
0
 50
0
 70
    1
 71
    1
 44
1
 45
1
  0
INSERT
  5
32B
100
AcDbEntity
  8
contour
  6
ByLayer
 62
  256
370
   -1
100
AcDbBlockReference
  2
tirfond3;1
 10
1535.668856048166
 20
2204
 30
0
 41
1
 42
1
 43
0
 50
0
 70
    1
 71
    1
 44
1
 45
1
  0
INSERT
  5
32C
100
AcDbEntity
  8
contour
  6
ByLayer
 62
  256
370
   -1
100
AcDbBlockReference
  2
tirfond3;1
 10
1810
 20
2204
 30
0
 41
1
 42
1
 43
0
 50
0
 70
    1
 71
    1
 44
1
 45
1
  0
INSERT
  5
32D
100
AcDbEntity
  8
contour
  6
ByLayer
 62
  256
370
   -1
100
AcDbBlockReference
  2
tirfond3;1
 10
2083.059016393443
 20
2204
 30
0
 41
1
 42
1
 43
0
 50
0
 70
    1
 71
    1
 44
1
 45
1
  0
INSERT
  5
32E
100
AcDbEntity
  8
contour
  6
ByLayer
 62
  256
370
   -1
100
AcDbBlockReference
  2
tirfond3;1
 10
2310
 20
2204
 30
0
 41
1
 42
1
 43
0
 50
0
 70
    1
 71
    1
 44
1
 45
1
  0
LINE
  5
32F
100
AcDbEntity
  8
pointillés
  6
ByLayer
 62
  256
370
   -1
100
AcDbLine
 10
3000
 20
2430
 11
3018
 21
2430
  0
LINE
  5
330
100
AcDbEntity
  8
pointillés
  6
ByLayer
 62
  256
370
   -1
100
AcDbLine
 10
3000
 20
2330
 11
3018
 21
2330
  0
INSERT
  5
331
100
AcDbEntity
  8
pointillés
  6
ByLayer
 62
  256
370
   -1
100
AcDbBlockReference
  2
fixation1
 10
99.5
 20
125
 30
0
 41
1
 42
1
 43
0
 50
90
 70
    1
 71
    1
 44
1
 45
1
  0
LINE
  5
332
100
AcDbEntity
  8
axe
  6
ByLayer
 62
  256
370
   -1
100
AcDbLine
 10
180
 20
2070
 11
180
 21
540
  0
LINE
  5
333
100
AcDbEntity
  8
axe
  6
ByLayer
 62
  256
370
   -1
100
AcDbLine
 10
140
 20
2000
 11
140
 21
560
  0
LINE
  5
334
100
AcDbEntity
  8
axe
  6
ByLayer
 62
  256
370
   -1
100
AcDbLine
 10
80
 20
2070
 11
80
 21
570
  0
LINE
  5
335
100
AcDbEntity
  8
axe
  6
ByLayer
 62
  256
370
   -1
100
AcDbLine
 10
40
 20
2000
 11
40
 21
540
  0
LINE
  5
336
100
AcDbEntity
  8
axe
  6
ByLayer
 62
  256
370
   -1
100
AcDbLine
 10
260
 20
890
 11
10
 21
890
  0
LINE
  5
337
100
AcDbEntity
  8
axe
  6
ByLayer
 62
  256
370
   -1
100
AcDbLine
 10
10
 20
550
 11
190
 21
550
  0
LINE
  5
338
100
AcDbEntity
  8
axe
  6
ByLayer
 62
  256
370
   -1
100
AcDbLine
 10
80
 20
570
 11
80
 21
540
  0
LINE
  5
339
100
AcDbEntity
  8
axe
  6
ByLayer
 62
  256
370
   -1
100
AcDbLine
 10
140
 20
560
 11
140
 21
540
  0
INSERT
  5
33A
100
AcDbEntity
  8
axe
  6
ByLayer
 62
  256
370
   -1
100
AcDbBlockReference
  2
rond8
 10
40
 20
550
 30
0
 41
1
 42
1
 43
0
 50
0
 70
    1
 71
    1
 44
1
 45
1
  0
INSERT
  5
33B
100
AcDbEntity
  8
axe
  6
ByLayer
 62
  256
370
   -1
100
AcDbBlockReference
  2
rond8
 10
140
 20
550
 30
0
 41
1
 42
1
 43
0
 50
0
 70
    1
 71
    1
 44
1
 45
1
  0
INSERT
  5
33C
100
AcDbEntity
  8
axe
  6
ByLayer
 62
  256
370
   -1
100
AcDbBlockReference
  2
rond8
 10
80
 20
890
 30
0
 41
1
 42
1
 43
0
 50
0
 70
    1
 71
    1
 44
1
 45
1
  0
INSERT
  5
33D
100
AcDbEntity
  8
axe
  6
ByLayer
 62
  256
370
   -1
100
AcDbBlockReference
  2
rond8
 10
180
 20
890
 30
0
 41
1
 42
1
 43
0
 50
0
 70
    1
 71
    1
 44
1
 45
1
  0
LWPOLYLINE
  5
33E
100
AcDbEntity
  8
pointillés
  6
ByLayer
 62
  256
370
   -1
100
AcDbPolyline
 90
    4
 70
    1
 43
0
 10
1400
 20
525.0000213327967
 10
1360
 20
525.0000213327967
 10
1360
 20
859
 10
1400
 20
859
  0
LINE
  5
33F
100
AcDbEntity
  8
pointillés
  6
ByLayer
 62
  256
370
   -1
100
AcDbLine
 10
1400
 20
859
 11
1400
 21
915
  0
LWPOLYLINE
  5
340
100
AcDbEntity
  8
pointillés
  6
ByLayer
 62
  256
370
   -1
100
AcDbPolyline
 90
    4
 70
    1
 43
0
 10
2360
 20
915
 10
2316
 20
915
 10
2316
 20
525
 10
2360
 20
525
  0
LWPOLYLINE
  5
341
100
AcDbEntity
  8
pointillés
  6
ByLayer
 62
  256
370
   -1
100
AcDbPolyline
 90
    4
 70
    1
 43
0
 10
1400
 20
915
 10
2316
 20
915
 10
2316
 20
871
 10
1400
 20
871
  0
LWPOLYLINE
  5
342
100
AcDbEntity
  8
pointillés
  6
ByLayer
 62
  256
370
   -1
100
AcDbPolyline
 90
    4
 70
    1
 43
0
 10
1400.0000002468
 20
569
 10
2316.0000002468
 20
569
 10
2316.0000002468
 20
525
 10
1400.0000002468
 20
525
  0
INSERT
  5
343
100
AcDbEntity
  8
construction
  6
ByLayer
 62
  256
370
   -1
100
AcDbBlockReference
  2
rond8
 10
1441.043071749029
 20
892.9638387033049
 30
0
 41
1
 42
1
 43
0
 50
0
 70
    1
 71
    1
 44
1
 45
1
  0
INSERT
  5
344
100
AcDbEntity
  8
construction
  6
ByLayer
 62
  256
370
   -1
100
AcDbBlockReference
  2
rond8
 10
1560
 20
892.8590308370044
 30
0
 41
1
 42
1
 43
0
 50
0
 70
    1
 71
    1
 44
1
 45
1
  0
INSERT
  5
345
100
AcDbEntity
  8
construction
  6
ByLayer
 62
  256
370
   -1
100
AcDbBlockReference
  2
rond8
 10
1610.200804003793
 20
892.8148010537412
 30
0
 41
1
 42
1
 43
0
 50
0
 70
    1
 71
    1
 44
1
 45
1
  0
INSERT
  5
346
100
AcDbEntity
  8
construction
  6
ByLayer
 62
  256
370
   -1
100
AcDbBlockReference
  2
rond8
 10
1779.441671238807
 20
892.6656901574988
 30
0
 41
1
 42
1
 43
0
 50
0
 70
    1
 71
    1
 44
1
 45
1
  0
INSERT
  5
347
100
AcDbEntity
  8
construction
  6
ByLayer
 62
  256
370
   -1
100
AcDbBlockReference
  2
rond8
 10
1946.84911307872
 20
892.5181946140276
 30
0
 41
1
 42
1
 43
0
 50
0
 70
    1
 71
    1
 44
1
 45
1
  0
INSERT
  5
348
100
AcDbEntity
  8
construction
  6
ByLayer
 62
  256
370
   -1
100
AcDbBlockReference
  2
rond8
 10
2114.84538753073
 20
892.3701802753034
 30
0
 41
1
 42
1
 43
0
 50
0
 70
    1
 71
    1
 44
1
 45
1
  0
INSERT
  5
349
100
AcDbEntity
  8
construction
  6
ByLayer
 62
  256
370
   -1
100
AcDbBlockReference
  2
rond8
 10
2277.463424043683
 20
892.2269044722082
 30
0
 41
1
 42
1
 43
0
 50
0
 70
    1
 71
    1
 44
1
 45
1
  0
INSERT
  5
34A
100
AcDbEntity
  8
construction
  6
ByLayer
 62
  256
370
   -1
100
AcDbBlockReference
  2
rond8
 10
1440.668288329755
 20
546.9637860299824
 30
0
 41
1
 42
1
 43
0
 50
0
 70
    1
 71
    1
 44
1
 45
1
  0
INSERT
  5
34B
100
AcDbEntity
  8
construction
  6
ByLayer
 62
  256
370
   -1
100
AcDbBlockReference
  2
rond8
 10
1610.123846283499
 20
546.8128906088305
 30
0
 41
1
 42
1
 43
0
 50
0
 70
    1
 71
    1
 44
1
 45
1
  0
INSERT
  5
34C
100
AcDbEntity
  8
construction
  6
ByLayer
 62
  256
370
   -1
100
AcDbBlockReference
  2
rond8
 10
1779.683857744628
 20
546.6619021747598
 30
0
 41
1
 42
1
 43
0
 50
0
 70
    1
 71
    1
 44
1
 45
1
  0
INSERT
  5
34D
100
AcDbEntity
  8
construction
  6
ByLayer
 62
  256
370
   -1
100
AcDbBlockReference
  2
rond8
 10
1946.93889129054
 20
546.5129662588687
 30
0
 41
1
 42
1
 43
0
 50
0
 70
    1
 71
    1
 44
1
 45
1
  0
INSERT
  5
34E
100
AcDbEntity
  8
construction
  6
ByLayer
 62
  256
370
   -1
100
AcDbBlockReference
  2
rond8
 10
2114.93419831336
 20
546.3633711502108
 30
0
 41
1
 42
1
 43
0
 50
0
 70
    1
 71
    1
 44
1
 45
1
  0
INSERT
  5
34F
100
AcDbEntity
  8
construction
  6
ByLayer
 62
  256
370
   -1
100
AcDbBlockReference
  2
rond8
 10
2276.168487262494
 20
546.2197965385018
 30
0
 41
1
 42
1
 43
0
 50
0
 70
    1
 71
    1
 44
1
 45
1
  0
LINE
  5
350
100
AcDbEntity
  8
pointillés
  6
ByLayer
 62
  256
370
   -1
100
AcDbLine
 10
346
 20
525.000023549191
 11
346
 21
915
  0
LINE
  5
351
100
AcDbEntity
  8
pointillés
  6
ByLayer
 62
  256
370
   -1
100
AcDbLine
 10
696
 20
525.000023549191
 11
696
 21
915
  0
LINE
  5
352
100
AcDbEntity
  8
pointillés
  6
ByLayer
 62
  256
370
   -1
100
AcDbLine
 10
700.344537815126
 20
915
 11
700.9999999604215
 21
525.000023549191
  0
LINE
  5
353
100
AcDbEntity
  8
pointillés
  6
ByLayer
 62
  256
370
   -1
100
AcDbLine
 10
1194
 20
525.000023549191
 11
1194
 21
915
  0
LINE
  5
354
100
AcDbEntity
  8
pointillés
  6
ByLayer
 62
  256
370
   -1
100
AcDbLine
 10
0
 20
895
 11
340
 21
895
  0
LINE
  5
355
100
AcDbEntity
  8
pointillés
  6
ByLayer
 62
  256
370
   -1
100
AcDbLine
 10
340
 20
895
 11
340
 21
545
  0
LINE
  5
356
100
AcDbEntity
  8
pointillés
  6
ByLayer
 62
  256
370
   -1
100
AcDbLine
 10
340
 20
545
 11
0
 21
545
  0
LWPOLYLINE
  5
357
100
AcDbEntity
  8
pointillés
  6
ByLayer
 62
  256
370
   -1
100
AcDbPolyline
 90
    4
 70
    1
 43
0
 10
1613
 20
871
 10
1657
 20
871
 10
1657
 20
569
 10
1613
 20
569
  0
INSERT
  5
358
100
AcDbEntity
  8
construction
  6
ByLayer
 62
  256
370
   -1
100
AcDbBlockReference
  2
rond8
 10
1634.957712444624
 20
825
 30
0
 41
1
 42
1
 43
0
 50
0
 70
    1
 71
    1
 44
1
 45
1
  0
INSERT
  5
359
100
AcDbEntity
  8
construction
  6
ByLayer
 62
  256
370
   -1
100
AcDbBlockReference
  2
rond8
 10
1634.985904148208
 20
755
 30
0
 41
1
 42
1
 43
0
 50
0
 70
    1
 71
    1
 44
1
 45
1
  0
INSERT
  5
35A
100
AcDbEntity
  8
construction
  6
ByLayer
 62
  256
370
   -1
100
AcDbBlockReference
  2
rond8
 10
1634.99998005247
 20
685
 30
0
 41
1
 42
1
 43
0
 50
0
 70
    1
 71
    1
 44
1
 45
1
  0
INSERT
  5
35B
100
AcDbEntity
  8
construction
  6
ByLayer
 62
  256
370
   -1
100
AcDbBlockReference
  2
rond8
 10
1635
 20
615
 30
0
 41
1
 42
1
 43
0
 50
0
 70
    1
 71
    1
 44
1
 45
1
  0
INSERT
  5
35C
100
AcDbEntity
  8
construction
  6
ByLayer
 62
  256
370
   -1
100
AcDbBlockReference
  2
rond8
 10
2338
 20
855
 30
0
 41
1
 42
1
 43
0
 50
0
 70
    1
 71
    1
 44
1
 45
1
  0
INSERT
  5
35D
100
AcDbEntity
  8
construction
  6
ByLayer
 62
  256
370
   -1
100
AcDbBlockReference
  2
rond8
 10
2338.00005344832
 20
764.9999999999999
 30
0
 41
1
 42
1
 43
0
 50
0
 70
    1
 71
    1
 44
1
 45
1
  0
INSERT
  5
35E
100
AcDbEntity
  8
construction
  6
ByLayer
 62
  256
370
   -1
100
AcDbBlockReference
  2
rond8
 10
2338
 20
675
 30
0
 41
1
 42
1
 43
0
 50
0
 70
    1
 71
    1
 44
1
 45
1
  0
INSERT
  5
35F
100
AcDbEntity
  8
construction
  6
ByLayer
 62
  256
370
   -1
100
AcDbBlockReference
  2
rond8
 10
2338
 20
585
 30
0
 41
1
 42
1
 43
0
 50
0
 70
    1
 71
    1
 44
1
 45
1
  0
INSERT
  5
360
100
AcDbEntity
  8
construction
  6
ByLayer
 62
  256
370
   -1
100
AcDbBlockReference
  2
rond8
 10
1381.999999999981
 20
585
 30
0
 41
1
 42
1
 43
0
 50
0
 70
    1
 71
    1
 44
1
 45
1
  0
INSERT
  5
361
100
AcDbEntity
  8
construction
  6
ByLayer
 62
  256
370
   -1
100
AcDbBlockReference
  2
rond8
 10
1381.999999999997
 20
675
 30
0
 41
1
 42
1
 43
0
 50
0
 70
    1
 71
    1
 44
1
 45
1
  0
INSERT
  5
362
100
AcDbEntity
  8
construction
  6
ByLayer
 62
  256
370
   -1
100
AcDbBlockReference
  2
rond8
 10
1382.000000000027
 20
765
 30
0
 41
1
 42
1
 43
0
 50
0
 70
    1
 71
    1
 44
1
 45
1
  0
INSERT
  5
363
100
AcDbEntity
  8
construction
  6
ByLayer
 62
  256
370
   -1
100
AcDbBlockReference
  2
rond8
 10
1382.000000000004
 20
855
 30
0
 41
1
 42
1
 43
0
 50
0
 70
    1
 71
    1
 44
1
 45
1
  0
DIMENSION
  5
364
100
AcDbEntity
  8
cotation
  6
ByLayer
 62
  256
370
   -1
100
AcDbDimension
  2
*D32
 10
2900
 20
2170
 30
0
 11
2862.5
 21
2320
 31
0
 70
   32
 71
    5
 72
    0
  3
Standard
 53
0
210
0
220
0
230
1
100
AcDbAlignedDimension
 13
3000
 23
2470
 33
0
 14
3000
 24
2170
 34
0
 50
90
100
AcDbRotatedDimension
  0
DIMENSION
  5
365
100
AcDbEntity
  8
cotation
  6
ByLayer
 62
  256
370
   -1
100
AcDbDimension
  2
*D33
 10
2500
 20
415
 30
0
 11
2462.5
 21
665
 31
0
 70
   32
 71
    5
 72
    0
  3
Standard
 53
0
210
0
220
0
230
1
100
AcDbAlignedDimension
 13
2360
 23
915
 33
0
 14
2360
 24
415
 34
0
 50
90
100
AcDbRotatedDimension
  0
DIMENSION
  5
366
100
AcDbEntity
  8
cotation
  6
ByLayer
 62
  256
370
   -1
100
AcDbDimension
  2
*D34
 10
3580
 20
2222
 30
0
 11
3542.5
 21
2231
 31
0
 70
   32
 71
    5
 72
    0
  3
Standard
 53
0
210
0
220
0
230
1
100
AcDbAlignedDimension
 13
3518
 23
2240
 33
0
 14
3518
 24
2222
 34
0
 50
90
100
AcDbRotatedDimension
  0
DIMENSION
  5
367
100
AcDbEntity
  8
cotation
  6
ByLayer
 62
  256
370
   -1
100
AcDbDimension
  2
*D35
 10
3200
 20
2406
 30
0
 11
3162.5
 21
2438
 31
0
 70
   32
 71
    5
 72
    0
  3
Standard
 53
0
210
0
220
0
230
1
100
AcDbAlignedDimension
 13
3018
 23
2470
 33
0
 14
3018
 24
2406
 34
0
 50
90
100
AcDbRotatedDimension
  0
DIMENSION
  5
368
100
AcDbEntity
  8
cotation
  6
ByLayer
 62
  256
370
   -1
100
AcDbDimension
  2
*D36
 10
4100
 20
2020
 30
0
 11
4062.5
 21
2057.5
 31
0
 70
   32
 71
    5
 72
    0
  3
Standard
 53
0
210
0
220
0
230
1
100
AcDbAlignedDimension
 13
3933
 23
2095
 33
0
 14
3933
 24
2020
 34
0
 50
90
100
AcDbRotatedDimension
  0
DIMENSION
  5
369
100
AcDbEntity
  8
cotation
  6
ByLayer
 62
  256
370
   -1
100
AcDbDimension
  2
*D37
 10
1800
 20
1746
 30
0
 11
1762.5
 21
1961.996869158506
 31
0
 70
   32
 71
    5
 72
    0
  3
Standard
 53
0
210
0
220
0
230
1
100
AcDbAlignedDimension
 13
1606
 23
2177.993738317012
 33
0
 14
1606
 24
1746
 34
0
 50
90
100
AcDbRotatedDimension
  0
INSERT
  5
36A
100
AcDbEntity
  8
cotation
  6
ByLayer
 62
  256
370
   -1
100
AcDbBlockReference
  2
fixation1
 10
3808
 20
1992
 30
0
 41
1
 42
1
 43
0
 50
180
 70
    1
 71
    1
 44
1
 45
1
  0
MTEXT
  5
36B
100
AcDbEntity
  8
texte
  6
ByLayer
 62
  256
370
   -1
100
AcDbMText
 10
3300
 20
600
 30
0
 40
70
 41
937.2222222222454
 71
    5
 72
    1
  1
Etabli et rangement
  7
iso
210
0
220
0
230
1
 50
0
 73
    2
 44
1
  0
LINE
  5
36C
100
AcDbEntity
  8
contour
  6
ByLayer
 62
  256
370
   -1
100
AcDbLine
 10
200
 20
2090
 11
290
 21
2090
  0
ENDSEC
  0
SECTION
  2
OBJECTS
  0
DICTIONARY
  5
C
330
0
100
AcDbDictionary
281
    1
  3
ACAD_GROUP
350
D
  0
DICTIONARY
  5
D
330
C
100
AcDbDictionary
281
    1
  0
ENDSEC
  0
EOF
