<svg xmlns="http://www.w3.org/2000/svg" viewBox="0 0 128 128"><path d="M0 0h128v128H0z"/><path fill="#fff" d="M72.83 35.3c.18.52.62.94 1.24.94h.11c.64 0 1.06-.43 1.26-.94l5.86-14.47c.06-.15.09-.3.09-.47 0-.6-.47-1.16-1.14-1.16-.57.01-.92.44-1.1.81l-5 12.77-4.96-12.7c-.16-.46-.56-.88-1.15-.88a1.2 1.2 0 00-1.16 1.18c0 .19.03.36.12.53l5.83 14.39zm33.73-.31v-6.2c-.03-2.13-1-3.3-2.8-3.32-1.76 0-3.05 1.33-3.07 3.46V35c0 .62-.45 1.18-1.1 1.18-.66 0-1.14-.55-1.14-1.18V24.6c0-.62.46-1.17 1.11-1.18.65 0 1.13.54 1.13 1.18v.35a4.35 4.35 0 013.54-1.67c1.42 0 2.59.52 3.38 1.43.78.9 1.19 2.16 1.19 3.63V35c0 .63-.47 1.17-1.1 1.18-.66 0-1.14-.55-1.14-1.18zM87.99 36.3c-1.42 0-2.83-.6-3.89-1.72a6.79 6.79 0 01-1.74-4.76v-.04c0-4.04 2.78-6.5 5.63-6.5 1.8 0 3.1.87 4 1.94v-.62c0-.6.44-1.18 1.1-1.18.67 0 1.14.56 1.14 1.18v10.37c0 .64-.48 1.18-1.11 1.19-.66 0-1.14-.55-1.14-1.19v-.7A4.97 4.97 0 0188 36.3zm-3.34-6.5c0 2.7 1.73 4.34 3.64 4.34 1.9 0 3.75-1.72 3.76-4.34v-.05c0-2.62-1.86-4.31-3.76-4.31-1.99 0-3.63 1.54-3.64 4.31v.05zm21.9 29.02v-6.2c-.02-2.13-1-3.3-2.8-3.32-1.75.01-3.04 1.34-3.06 3.47v6.05c0 .63-.45 1.18-1.1 1.18-.66 0-1.14-.54-1.14-1.18v-15.3c0-.61.46-1.17 1.11-1.18.66 0 1.13.57 1.13 1.18v5.27a4.35 4.35 0 013.54-1.67c1.42 0 2.59.52 3.38 1.43.78.9 1.19 2.17 1.19 3.64v6.63c0 .64-.47 1.18-1.1 1.18-.66 0-1.14-.54-1.14-1.18zm-57.01-7.26c0 2.37.75 4.52 2.13 6.08a7.61 7.61 0 005.85 2.52c2.34 0 4.26-.9 5.68-2.02.45-.32.7-.81.69-1.33V51.9c0-.65-.49-1.2-1.13-1.2h-4.87c-.6 0-1.04.51-1.04 1.1 0 .58.45 1.09 1.04 1.1h3.78v3.6a6.55 6.55 0 01-4.08 1.47c-3.5 0-5.68-2.69-5.7-6.44v-.05c0-3.5 2.31-6.34 5.46-6.35 1.84 0 2.96.56 4.01 1.41.2.16.43.3.73.3.64 0 1.13-.56 1.13-1.2 0-.42-.2-.75-.45-.96a8.03 8.03 0 00-5.35-1.8c-4.74 0-7.87 4.1-7.88 8.65v.04zm43.55-4.3c-.66 0-1.1.58-1.1 1.18V49a5.3 5.3 0 00-4.08-1.86c-2.83 0-5.54 2.3-5.55 5.92v.05c0 3.59 2.7 5.87 5.55 5.87 1.81 0 3.13-.85 4.1-1.96v.57c-.04 2.69-1.45 3.94-3.78 3.97-.56.04-1.01.5-1.01 1.05s.45 1 1 1.03v.01h.04c1.82 0 3.4-.55 4.46-1.69.97-1.03 1.5-2.52 1.5-4.41v-9.09c0-.61-.46-1.17-1.13-1.18zM67.27 53.7v-.05c0-3.5 2.57-6.51 6.13-6.52 3.53 0 6.1 2.98 6.1 6.48v.04c0 3.5-2.59 6.52-6.14 6.52-3.54 0-6.09-2.97-6.1-6.47zm24.78-.62a3.78 3.78 0 01-3.82 3.76c-1.91 0-3.58-1.52-3.58-3.79v-.04c.01-2.32 1.62-3.73 3.58-3.74a3.75 3.75 0 013.82 3.76v.05zm-22.5.53v.04c.01 2.45 1.68 4.36 3.85 4.37 2.23 0 3.8-1.91 3.82-4.32v-.05c-.01-2.44-1.7-4.38-3.86-4.38-2.23 0-3.8 1.93-3.8 4.34zM30.39 82.48V71.41l-4.31 6.76c-.2.34-.53.6-.96.6-.42 0-.76-.25-.98-.6l-4.28-6.74V82.5c0 .64-.49 1.18-1.14 1.18-.64 0-1.11-.54-1.11-1.18V67.95c0-.63.49-1.18 1.13-1.19h.2c.49 0 .85.3 1.05.63l5.15 8.28 5.16-8.28c.2-.37.6-.63 1.05-.63h.2c.64.01 1.12.56 1.13 1.19v14.53c0 .64-.5 1.2-1.14 1.2a1.2 1.2 0 01-1.15-1.2zm76.18.02v-6.19c-.04-2.24-.97-3.3-2.61-3.32-1.51 0-2.76 1.16-2.78 3.41v6.1c0 .64-.48 1.18-1.14 1.18-.63 0-1.1-.54-1.1-1.18v-6.23c-.04-2.17-1-3.27-2.6-3.28-1.57 0-2.8 1.39-2.82 3.48v6.03c0 .63-.45 1.18-1.1 1.18-.66 0-1.14-.54-1.14-1.18V72.13c0-.62.46-1.17 1.1-1.18.66 0 1.14.54 1.14 1.18v.3a4.05 4.05 0 013.32-1.62c1.73-.01 2.94.9 3.62 2.08a4.59 4.59 0 013.91-2.08c1.36 0 2.49.5 3.26 1.4.77.89 1.18 2.16 1.18 3.68v6.61c0 .64-.48 1.18-1.11 1.18-.65 0-1.13-.54-1.13-1.18zM64 82.03a5.6 5.6 0 004.15 1.82h.02a5.8 5.8 0 004.4-1.9 1.03 1.03 0 00-.68-1.81 1 1 0 00-.67.28 4.14 4.14 0 01-3.03 1.32c-1.75-.01-3.27-1.2-3.6-3.48h7.76c.58 0 1.06-.49 1.07-1.12 0-1.63-.49-3.2-1.42-4.38a5.03 5.03 0 00-4.06-1.95c-3.3 0-5.65 2.94-5.66 6.5v.04a6.8 6.8 0 001.72 4.68zm-13.78-.66c0 .4.2.7.41.87a7.68 7.68 0 004.49 1.56 4.6 4.6 0 003-1.01 3.63 3.63 0 001.26-2.85v-.05c0-1.15-.52-1.98-1.25-2.53a8.54 8.54 0 00-2.54-1.15c-.74-.25-1.45-.48-1.93-.76-.5-.3-.74-.6-.75-1.03v-.05c.02-.82.67-1.44 1.88-1.45.88 0 1.85.32 2.77.88a1.03 1.03 0 001.55-.91c0-.45-.27-.8-.55-.97a7.67 7.67 0 00-3.73-1.07c-1.16 0-2.18.36-2.92 1.02a3.5 3.5 0 00-1.17 2.68v.05c0 1.18.55 2 1.3 2.54a9 9 0 002.6 1.1c.73.22 1.41.44 1.87.74.47.3.7.6.71 1.1v.04c0 .98-.78 1.6-2.02 1.62a5.72 5.72 0 01-3.37-1.22.92.92 0 00-.59-.2c-.58.01-1.02.5-1.02 1.05zM77.9 82.4c.79.9 1.95 1.43 3.38 1.42h.01c1.62 0 2.74-.71 3.52-1.68v.36c0 .64.48 1.18 1.11 1.18.67 0 1.12-.57 1.12-1.18V72.13c0-.64-.48-1.18-1.12-1.19-.65 0-1.1.56-1.1 1.19v6.05c-.02 2.13-1.34 3.46-3.07 3.46-1.8-.01-2.77-1.18-2.8-3.32v-6.2c0-.64-.5-1.17-1.13-1.18-.66 0-1.11.56-1.11 1.19v6.63c0 1.47.4 2.73 1.19 3.64zm-36.75 1.42a4.3 4.3 0 01-3.38-1.42 5.45 5.45 0 01-1.2-3.64v-6.63c0-.63.46-1.18 1.12-1.18.63 0 1.13.53 1.13 1.18v6.2c.03 2.13 1 3.3 2.8 3.31 1.73 0 3.05-1.33 3.06-3.46v-6.05c0-.63.46-1.18 1.12-1.18.63 0 1.1.54 1.1 1.18V82.5c0 .6-.44 1.18-1.1 1.18-.64 0-1.12-.54-1.12-1.18v-.36a4.33 4.33 0 01-3.52 1.68h-.01zM67.9 72.87c1.93 0 3 1.54 3.25 3.5H64.6c.3-2.08 1.64-3.5 3.3-3.5zm17.14 37.52c-1.53 0-3-1.3-3.01-3.46v-.03c0-2.14 1.48-3.46 3.01-3.47.93 0 1.6.43 2.08.97v-2.84c0-.34.25-.66.62-.66s.64.31.64.66v8.1c0 .34-.26.65-.63.65-.36 0-.63-.3-.63-.66v-.27c-.48.57-1.15 1-2.07 1zm-49.11-.7c0 .33.25.62.6.62.3 0 .52-.2.6-.45l.8-1.87h4.13l.78 1.85c.1.23.3.47.63.47.35 0 .62-.3.62-.65a.87.87 0 00-.07-.3l-3.25-7.58a.76.76 0 00-.73-.55h-.05c-.37 0-.63.24-.75.55L36 109.36a.75.75 0 00-.07.33zm30.9-.64c-.19.02-.25.09-.54.09-.53-.03-.78-.17-.8-.87v-3.5h1.34a.6.6 0 00.59-.6.6.6 0 00-.6-.6h-1.34v-1.3a.65.65 0 00-.63-.67c-.38 0-.63.32-.63.66v6.13c0 .68.2 1.18.54 1.5.34.34.81.47 1.32.47.37 0 .68-.06.95-.18.2-.09.37-.3.36-.54a.58.58 0 00-.56-.59zm-25.28-2.3h-3.12l1.56-3.7 1.56 3.7zm12.34-.37v3.27c0 .36.27.66.64.66.36 0 .62-.3.63-.66v-3.5c0-.8-.22-1.48-.64-1.97a2.23 2.23 0 00-1.75-.75c-.97 0-1.62.47-2.06 1.08a2.16 2.16 0 00-1.92-1.08c-.8 0-1.34.36-1.72.8v-.06a.65.65 0 00-.63-.66.65.65 0 00-.63.66v5.48c0 .36.27.66.64.66s.62-.31.62-.66v-3.19c.01-1.09.65-1.8 1.46-1.8.82 0 1.31.56 1.33 1.7v3.3c0 .34.26.65.62.65.37 0 .64-.3.64-.66v-3.22c.01-1.18.66-1.77 1.43-1.77.85 0 1.32.54 1.34 1.72zm36.68.55c0 2.16 1.49 3.45 3.02 3.46.92 0 1.59-.44 2.07-1.01v.27c0 .36.27.66.64.66.36 0 .62-.3.62-.66v-5.48a.65.65 0 00-.64-.66c-.37 0-.62.32-.62.66v.23a2.69 2.69 0 00-2.07-.97c-1.54 0-3.02 1.33-3.02 3.47v.03zm16.97-.55v3.27c0 .36.27.66.63.66.37 0 .63-.3.63-.66v-3.5c0-.8-.22-1.48-.63-1.97a2.23 2.23 0 00-1.75-.75c-.97 0-1.63.47-2.06 1.08a2.16 2.16 0 00-1.92-1.08c-.8 0-1.34.36-1.72.8v-.06a.65.65 0 00-.64-.66.65.65 0 00-.62.66v5.48c0 .36.27.66.63.66.37 0 .63-.31.63-.66v-3.19c0-1.09.65-1.8 1.45-1.8.82 0 1.31.56 1.33 1.7v3.3c0 .34.27.65.63.65.37 0 .63-.3.63-.66v-3.22c.02-1.18.66-1.77 1.44-1.77.84 0 1.32.54 1.34 1.72zm-35.45 4.02c-1.74 0-3.14-1.44-3.14-3.47v-.03c0-1.89 1.26-3.46 3.02-3.47 1.89 0 2.93 1.65 2.94 3.39 0 .35-.27.62-.6.62h-4.07c.2 1.16.97 1.76 1.87 1.77.67 0 1.15-.27 1.57-.68a.56.56 0 01.38-.16.59.59 0 01.4 1.02c-.58.6-1.31 1.01-2.36 1.01h-.01zm-14.56-.86a.62.62 0 01-.23-.49c0-.3.25-.58.58-.58.12 0 .24.03.33.1.59.43 1.17.64 1.76.64.65-.01 1.03-.32 1.03-.82v-.02c0-.25-.11-.4-.36-.55-.24-.15-.59-.27-.98-.39-.9-.27-2.08-.65-2.08-1.95v-.03c0-.6.23-1.1.62-1.45.4-.35.95-.54 1.58-.54.67 0 1.38.21 1.99.56.16.1.3.3.3.55 0 .31-.25.59-.58.59a.64.64 0 01-.3-.08 2.88 2.88 0 00-1.44-.46c-.62.01-.94.32-.95.73v.03c0 .21.12.36.37.51.26.15.63.27 1.02.4.9.28 2.02.71 2.03 1.98v.03c0 .64-.25 1.17-.68 1.53-.41.36-.99.54-1.61.54a4.1 4.1 0 01-2.4-.83zm19.5.11v-5.48c0-.35.26-.66.63-.66s.63.3.63.66v.44c.5-.7 1.18-1.12 1.85-1.13.38 0 .62.32.62.66.01.34-.23.62-.55.66-1.05.14-1.9.94-1.92 2.7v2.15c0 .34-.25.66-.62.66a.65.65 0 01-.64-.66zm-3.4-3.27c-.15-1.01-.7-1.79-1.68-1.78-.84 0-1.53.71-1.7 1.78h3.37zm9.69.54c0 1.41.9 2.25 1.89 2.25.97 0 1.94-.89 1.94-2.25v-.03c0-1.37-.97-2.24-1.94-2.25-1.04.01-1.89.8-1.9 2.25v.03zm10.43 2.25c-.99 0-1.88-.84-1.9-2.25v-.03c.02-1.45.87-2.24 1.9-2.25.97 0 1.94.88 1.94 2.25v.03c0 1.36-.97 2.25-1.94 2.25z"/></svg>
