solid OpenSCAD_Model
  facet normal -1 0 0
    outer loop
      vertex -20.32 -15.24 -1.27
      vertex -20.32 -15.24 1.27
      vertex -20.32 15.24 -1.27
    endloop
  endfacet
  facet normal -1 0 0
    outer loop
      vertex -20.32 15.24 -1.27
      vertex -20.32 -15.24 1.27
      vertex -20.32 15.24 1.27
    endloop
  endfacet
  facet normal 0 -1 0
    outer loop
      vertex -20.32 -15.24 1.27
      vertex -20.32 -15.24 -1.27
      vertex 20.32 -15.24 -1.27
    endloop
  endfacet
  facet normal 0 -1 0
    outer loop
      vertex 20.32 -15.24 1.27
      vertex -20.32 -15.24 1.27
      vertex 20.32 -15.24 -1.27
    endloop
  endfacet
  facet normal 0 0 -1
    outer loop
      vertex -16.0194 9.9202 -1.27
      vertex -16.0194 -9.9202 -1.27
      vertex -17.7943 10.4969 -1.27
    endloop
  endfacet
  facet normal 0 0 -1
    outer loop
      vertex -16.0194 12.9398 -1.27
      vertex -20.32 15.24 -1.27
      vertex 20.32 15.24 -1.27
    endloop
  endfacet
  facet normal 0 0 -1
    outer loop
      vertex -20.32 -15.24 -1.27
      vertex -20.32 15.24 -1.27
      vertex -17.7943 -10.4969 -1.27
    endloop
  endfacet
  facet normal 0 0 -1
    outer loop
      vertex 15.2257 -12.3631 -1.27
      vertex -16.0194 9.9202 -1.27
      vertex -14.9225 11.43 -1.27
    endloop
  endfacet
  facet normal 0 0 -1
    outer loop
      vertex -20.32 -15.24 -1.27
      vertex -17.7943 -10.4969 -1.27
      vertex -17.7943 -12.3631 -1.27
    endloop
  endfacet
  facet normal 0 0 -1
    outer loop
      vertex -20.32 -15.24 -1.27
      vertex -17.7943 -12.3631 -1.27
      vertex -16.0194 -12.9398 -1.27
    endloop
  endfacet
  facet normal 0 0 -1
    outer loop
      vertex -20.32 -15.24 -1.27
      vertex -16.0194 -12.9398 -1.27
      vertex 20.32 -15.24 -1.27
    endloop
  endfacet
  facet normal 0 0 -1
    outer loop
      vertex -16.0194 -9.9202 -1.27
      vertex 20.32 -15.24 -1.27
      vertex -14.9225 -11.43 -1.27
    endloop
  endfacet
  facet normal 0 0 -1
    outer loop
      vertex -17.7943 -10.4969 -1.27
      vertex -20.32 15.24 -1.27
      vertex -16.0194 -9.9202 -1.27
    endloop
  endfacet
  facet normal 0 0 -1
    outer loop
      vertex -17.7943 12.3631 -1.27
      vertex -20.32 15.24 -1.27
      vertex -16.0194 12.9398 -1.27
    endloop
  endfacet
  facet normal 0 0 -1
    outer loop
      vertex -17.7943 10.4969 -1.27
      vertex -20.32 15.24 -1.27
      vertex -17.7943 12.3631 -1.27
    endloop
  endfacet
  facet normal 0 0 -1
    outer loop
      vertex 15.2257 -12.3631 -1.27
      vertex -14.9225 11.43 -1.27
      vertex 15.2257 -10.4969 -1.27
    endloop
  endfacet
  facet normal 0 0 -1
    outer loop
      vertex -16.0194 -9.9202 -1.27
      vertex -20.32 15.24 -1.27
      vertex -17.7943 10.4969 -1.27
    endloop
  endfacet
  facet normal 0 0 -1
    outer loop
      vertex 18.0975 -11.43 -1.27
      vertex 20.32 -15.24 -1.27
      vertex 17.0006 -12.9398 -1.27
    endloop
  endfacet
  facet normal 0 0 -1
    outer loop
      vertex 15.2257 12.3631 -1.27
      vertex -14.9225 11.43 -1.27
      vertex 20.32 15.24 -1.27
    endloop
  endfacet
  facet normal 0 0 -1
    outer loop
      vertex -14.9225 11.43 -1.27
      vertex -16.0194 12.9398 -1.27
      vertex 20.32 15.24 -1.27
    endloop
  endfacet
  facet normal 0 0 -1
    outer loop
      vertex 17.0006 -9.9202 -1.27
      vertex 15.2257 -10.4969 -1.27
      vertex 20.32 15.24 -1.27
    endloop
  endfacet
  facet normal 0 0 -1
    outer loop
      vertex -16.0194 -9.9202 -1.27
      vertex -16.0194 9.9202 -1.27
      vertex 15.2257 -12.3631 -1.27
    endloop
  endfacet
  facet normal 0 0 -1
    outer loop
      vertex -16.0194 -9.9202 -1.27
      vertex 15.2257 -12.3631 -1.27
      vertex 20.32 -15.24 -1.27
    endloop
  endfacet
  facet normal 0 0 -1
    outer loop
      vertex 17.0006 12.9398 -1.27
      vertex 20.32 15.24 -1.27
      vertex 18.0975 11.43 -1.27
    endloop
  endfacet
  facet normal 0 0 -1
    outer loop
      vertex 20.32 -15.24 -1.27
      vertex 18.0975 -11.43 -1.27
      vertex 20.32 15.24 -1.27
    endloop
  endfacet
  facet normal 0 0 -1
    outer loop
      vertex 18.0975 -11.43 -1.27
      vertex 17.0006 -9.9202 -1.27
      vertex 20.32 15.24 -1.27
    endloop
  endfacet
  facet normal 0 0 -1
    outer loop
      vertex 15.2257 -10.4969 -1.27
      vertex -14.9225 11.43 -1.27
      vertex 15.2257 10.4969 -1.27
    endloop
  endfacet
  facet normal 0 0 -1
    outer loop
      vertex 17.0006 12.9398 -1.27
      vertex 15.2257 12.3631 -1.27
      vertex 20.32 15.24 -1.27
    endloop
  endfacet
  facet normal 0 0 -1
    outer loop
      vertex -14.9225 11.43 -1.27
      vertex 15.2257 12.3631 -1.27
      vertex 15.2257 10.4969 -1.27
    endloop
  endfacet
  facet normal 0 0 -1
    outer loop
      vertex 15.2257 -10.4969 -1.27
      vertex 15.2257 10.4969 -1.27
      vertex 17.0006 9.9202 -1.27
    endloop
  endfacet
  facet normal 0 0 -1
    outer loop
      vertex 15.2257 -10.4969 -1.27
      vertex 17.0006 9.9202 -1.27
      vertex 18.0975 11.43 -1.27
    endloop
  endfacet
  facet normal 0 0 -1
    outer loop
      vertex 15.2257 -10.4969 -1.27
      vertex 18.0975 11.43 -1.27
      vertex 20.32 15.24 -1.27
    endloop
  endfacet
  facet normal 0 0 -1
    outer loop
      vertex -14.9225 -11.43 -1.27
      vertex 20.32 -15.24 -1.27
      vertex -16.0194 -12.9398 -1.27
    endloop
  endfacet
  facet normal 0 0 -1
    outer loop
      vertex 17.0006 -12.9398 -1.27
      vertex 20.32 -15.24 -1.27
      vertex 15.2257 -12.3631 -1.27
    endloop
  endfacet
  facet normal 0 1 0
    outer loop
      vertex -20.32 15.24 -1.27
      vertex -20.32 15.24 1.27
      vertex 20.32 15.24 -1.27
    endloop
  endfacet
  facet normal 0 1 0
    outer loop
      vertex 20.32 15.24 -1.27
      vertex -20.32 15.24 1.27
      vertex 20.32 15.24 1.27
    endloop
  endfacet
  facet normal 0 0 1
    outer loop
      vertex -16.0194 -12.9398 1.27
      vertex -20.32 -15.24 1.27
      vertex 20.32 -15.24 1.27
    endloop
  endfacet
  facet normal 0 0 1
    outer loop
      vertex 18.0975 -11.43 1.27
      vertex 17.0006 -12.9398 1.27
      vertex 20.32 -15.24 1.27
    endloop
  endfacet
  facet normal 0 0 1
    outer loop
      vertex -20.32 15.24 1.27
      vertex -20.32 -15.24 1.27
      vertex -17.7943 -12.3631 1.27
    endloop
  endfacet
  facet normal 0 0 1
    outer loop
      vertex -14.9225 -11.43 1.27
      vertex -16.0194 -12.9398 1.27
      vertex 20.32 -15.24 1.27
    endloop
  endfacet
  facet normal 0 0 1
    outer loop
      vertex -20.32 15.24 1.27
      vertex -17.7943 -12.3631 1.27
      vertex -17.7943 -10.4969 1.27
    endloop
  endfacet
  facet normal 0 0 1
    outer loop
      vertex 15.2257 -12.3631 1.27
      vertex -16.0194 -9.9202 1.27
      vertex 20.32 -15.24 1.27
    endloop
  endfacet
  facet normal 0 0 1
    outer loop
      vertex -20.32 15.24 1.27
      vertex -17.7943 -10.4969 1.27
      vertex -16.0194 -9.9202 1.27
    endloop
  endfacet
  facet normal 0 0 1
    outer loop
      vertex 17.0006 -12.9398 1.27
      vertex 15.2257 -12.3631 1.27
      vertex 20.32 -15.24 1.27
    endloop
  endfacet
  facet normal 0 0 1
    outer loop
      vertex -17.7943 -12.3631 1.27
      vertex -20.32 -15.24 1.27
      vertex -16.0194 -12.9398 1.27
    endloop
  endfacet
  facet normal 0 0 1
    outer loop
      vertex -20.32 15.24 1.27
      vertex -16.0194 -9.9202 1.27
      vertex -17.7943 10.4969 1.27
    endloop
  endfacet
  facet normal 0 0 1
    outer loop
      vertex -20.32 15.24 1.27
      vertex -17.7943 10.4969 1.27
      vertex -17.7943 12.3631 1.27
    endloop
  endfacet
  facet normal 0 0 1
    outer loop
      vertex 20.32 15.24 1.27
      vertex -20.32 15.24 1.27
      vertex -16.0194 12.9398 1.27
    endloop
  endfacet
  facet normal 0 0 1
    outer loop
      vertex 15.2257 -12.3631 1.27
      vertex -14.9225 11.43 1.27
      vertex -16.0194 9.9202 1.27
    endloop
  endfacet
  facet normal 0 0 1
    outer loop
      vertex -17.7943 10.4969 1.27
      vertex -16.0194 -9.9202 1.27
      vertex 15.2257 -12.3631 1.27
    endloop
  endfacet
  facet normal 0 0 1
    outer loop
      vertex 17.0006 12.9398 1.27
      vertex 18.0975 11.43 1.27
      vertex 20.32 15.24 1.27
    endloop
  endfacet
  facet normal 0 0 1
    outer loop
      vertex 15.2257 10.4969 1.27
      vertex -16.0194 12.9398 1.27
      vertex 15.2257 -10.4969 1.27
    endloop
  endfacet
  facet normal 0 0 1
    outer loop
      vertex 20.32 15.24 1.27
      vertex 15.2257 -10.4969 1.27
      vertex 17.0006 -9.9202 1.27
    endloop
  endfacet
  facet normal 0 0 1
    outer loop
      vertex 20.32 15.24 1.27
      vertex 18.0975 -11.43 1.27
      vertex 20.32 -15.24 1.27
    endloop
  endfacet
  facet normal 0 0 1
    outer loop
      vertex 20.32 15.24 1.27
      vertex 17.0006 -9.9202 1.27
      vertex 18.0975 -11.43 1.27
    endloop
  endfacet
  facet normal 0 0 1
    outer loop
      vertex 15.2257 -12.3631 1.27
      vertex -16.0194 9.9202 1.27
      vertex -17.7943 10.4969 1.27
    endloop
  endfacet
  facet normal 0 0 1
    outer loop
      vertex 17.0006 9.9202 1.27
      vertex 15.2257 10.4969 1.27
      vertex 15.2257 -10.4969 1.27
    endloop
  endfacet
  facet normal 0 0 1
    outer loop
      vertex 15.2257 12.3631 1.27
      vertex -16.0194 12.9398 1.27
      vertex 15.2257 10.4969 1.27
    endloop
  endfacet
  facet normal 0 0 1
    outer loop
      vertex 20.32 15.24 1.27
      vertex -16.0194 12.9398 1.27
      vertex 15.2257 12.3631 1.27
    endloop
  endfacet
  facet normal 0 0 1
    outer loop
      vertex 20.32 15.24 1.27
      vertex 15.2257 12.3631 1.27
      vertex 17.0006 12.9398 1.27
    endloop
  endfacet
  facet normal 0 0 1
    outer loop
      vertex 20.32 15.24 1.27
      vertex 18.0975 11.43 1.27
      vertex 15.2257 -10.4969 1.27
    endloop
  endfacet
  facet normal 0 0 1
    outer loop
      vertex 18.0975 11.43 1.27
      vertex 17.0006 9.9202 1.27
      vertex 15.2257 -10.4969 1.27
    endloop
  endfacet
  facet normal 0 0 1
    outer loop
      vertex -16.0194 -9.9202 1.27
      vertex -14.9225 -11.43 1.27
      vertex 20.32 -15.24 1.27
    endloop
  endfacet
  facet normal 0 0 1
    outer loop
      vertex -17.7943 12.3631 1.27
      vertex -16.0194 12.9398 1.27
      vertex -20.32 15.24 1.27
    endloop
  endfacet
  facet normal 0 0 1
    outer loop
      vertex 15.2257 -12.3631 1.27
      vertex -16.0194 12.9398 1.27
      vertex -14.9225 11.43 1.27
    endloop
  endfacet
  facet normal 0 0 1
    outer loop
      vertex 15.2257 -12.3631 1.27
      vertex 15.2257 -10.4969 1.27
      vertex -16.0194 12.9398 1.27
    endloop
  endfacet
  facet normal 1 0 0
    outer loop
      vertex 20.32 -15.24 1.27
      vertex 20.32 -15.24 -1.27
      vertex 20.32 15.24 -1.27
    endloop
  endfacet
  facet normal 1 0 0
    outer loop
      vertex 20.32 15.24 1.27
      vertex 20.32 -15.24 1.27
      vertex 20.32 15.24 -1.27
    endloop
  endfacet
  facet normal 0.309017 -0.951056 0
    outer loop
      vertex -16.0194 -9.9202 -1.27
      vertex -16.0194 -9.9202 1.27
      vertex -17.7943 -10.4969 1.27
    endloop
  endfacet
  facet normal 0.309017 -0.951056 0
    outer loop
      vertex -17.7943 -10.4969 -1.27
      vertex -16.0194 -9.9202 -1.27
      vertex -17.7943 -10.4969 1.27
    endloop
  endfacet
  facet normal 1 0 0
    outer loop
      vertex -17.7943 -10.4969 -1.27
      vertex -17.7943 -10.4969 1.27
      vertex -17.7943 -12.3631 1.27
    endloop
  endfacet
  facet normal 1 0 0
    outer loop
      vertex -17.7943 -12.3631 -1.27
      vertex -17.7943 -10.4969 -1.27
      vertex -17.7943 -12.3631 1.27
    endloop
  endfacet
  facet normal -0.809017 -0.587785 0
    outer loop
      vertex -14.9225 -11.43 1.27
      vertex -16.0194 -9.9202 1.27
      vertex -14.9225 -11.43 -1.27
    endloop
  endfacet
  facet normal -0.809017 -0.587785 0
    outer loop
      vertex -14.9225 -11.43 -1.27
      vertex -16.0194 -9.9202 1.27
      vertex -16.0194 -9.9202 -1.27
    endloop
  endfacet
  facet normal -0.809017 0.587785 0
    outer loop
      vertex -14.9225 -11.43 1.27
      vertex -14.9225 -11.43 -1.27
      vertex -16.0194 -12.9398 1.27
    endloop
  endfacet
  facet normal -0.809017 0.587785 0
    outer loop
      vertex -16.0194 -12.9398 1.27
      vertex -14.9225 -11.43 -1.27
      vertex -16.0194 -12.9398 -1.27
    endloop
  endfacet
  facet normal 0.309017 0.951056 0
    outer loop
      vertex -16.0194 -12.9398 1.27
      vertex -16.0194 -12.9398 -1.27
      vertex -17.7943 -12.3631 1.27
    endloop
  endfacet
  facet normal 0.309017 0.951056 0
    outer loop
      vertex -17.7943 -12.3631 1.27
      vertex -16.0194 -12.9398 -1.27
      vertex -17.7943 -12.3631 -1.27
    endloop
  endfacet
  facet normal 0.309017 -0.951056 0
    outer loop
      vertex -16.0194 12.9398 -1.27
      vertex -16.0194 12.9398 1.27
      vertex -17.7943 12.3631 1.27
    endloop
  endfacet
  facet normal 0.309017 -0.951056 0
    outer loop
      vertex -17.7943 12.3631 -1.27
      vertex -16.0194 12.9398 -1.27
      vertex -17.7943 12.3631 1.27
    endloop
  endfacet
  facet normal 1 0 0
    outer loop
      vertex -17.7943 12.3631 -1.27
      vertex -17.7943 12.3631 1.27
      vertex -17.7943 10.4969 1.27
    endloop
  endfacet
  facet normal 1 0 0
    outer loop
      vertex -17.7943 10.4969 -1.27
      vertex -17.7943 12.3631 -1.27
      vertex -17.7943 10.4969 1.27
    endloop
  endfacet
  facet normal -0.809017 -0.587785 0
    outer loop
      vertex -14.9225 11.43 1.27
      vertex -16.0194 12.9398 1.27
      vertex -14.9225 11.43 -1.27
    endloop
  endfacet
  facet normal -0.809017 -0.587785 0
    outer loop
      vertex -14.9225 11.43 -1.27
      vertex -16.0194 12.9398 1.27
      vertex -16.0194 12.9398 -1.27
    endloop
  endfacet
  facet normal -0.809017 0.587785 0
    outer loop
      vertex -14.9225 11.43 1.27
      vertex -14.9225 11.43 -1.27
      vertex -16.0194 9.9202 1.27
    endloop
  endfacet
  facet normal -0.809017 0.587785 0
    outer loop
      vertex -16.0194 9.9202 1.27
      vertex -14.9225 11.43 -1.27
      vertex -16.0194 9.9202 -1.27
    endloop
  endfacet
  facet normal 0.309017 0.951056 0
    outer loop
      vertex -16.0194 9.9202 1.27
      vertex -16.0194 9.9202 -1.27
      vertex -17.7943 10.4969 1.27
    endloop
  endfacet
  facet normal 0.309017 0.951056 0
    outer loop
      vertex -17.7943 10.4969 1.27
      vertex -16.0194 9.9202 -1.27
      vertex -17.7943 10.4969 -1.27
    endloop
  endfacet
  facet normal 0.309017 -0.951056 0
    outer loop
      vertex 17.0006 -9.9202 -1.27
      vertex 17.0006 -9.9202 1.27
      vertex 15.2257 -10.4969 1.27
    endloop
  endfacet
  facet normal 0.309017 -0.951056 0
    outer loop
      vertex 15.2257 -10.4969 -1.27
      vertex 17.0006 -9.9202 -1.27
      vertex 15.2257 -10.4969 1.27
    endloop
  endfacet
  facet normal 1 0 0
    outer loop
      vertex 15.2257 -10.4969 -1.27
      vertex 15.2257 -10.4969 1.27
      vertex 15.2257 -12.3631 1.27
    endloop
  endfacet
  facet normal 1 0 0
    outer loop
      vertex 15.2257 -12.3631 -1.27
      vertex 15.2257 -10.4969 -1.27
      vertex 15.2257 -12.3631 1.27
    endloop
  endfacet
  facet normal -0.809017 -0.587785 0
    outer loop
      vertex 18.0975 -11.43 1.27
      vertex 17.0006 -9.9202 1.27
      vertex 18.0975 -11.43 -1.27
    endloop
  endfacet
  facet normal -0.809017 -0.587785 0
    outer loop
      vertex 18.0975 -11.43 -1.27
      vertex 17.0006 -9.9202 1.27
      vertex 17.0006 -9.9202 -1.27
    endloop
  endfacet
  facet normal -0.809017 0.587785 0
    outer loop
      vertex 18.0975 -11.43 1.27
      vertex 18.0975 -11.43 -1.27
      vertex 17.0006 -12.9398 1.27
    endloop
  endfacet
  facet normal -0.809017 0.587785 0
    outer loop
      vertex 17.0006 -12.9398 1.27
      vertex 18.0975 -11.43 -1.27
      vertex 17.0006 -12.9398 -1.27
    endloop
  endfacet
  facet normal 0.309017 0.951056 0
    outer loop
      vertex 17.0006 -12.9398 1.27
      vertex 17.0006 -12.9398 -1.27
      vertex 15.2257 -12.3631 1.27
    endloop
  endfacet
  facet normal 0.309017 0.951056 0
    outer loop
      vertex 15.2257 -12.3631 1.27
      vertex 17.0006 -12.9398 -1.27
      vertex 15.2257 -12.3631 -1.27
    endloop
  endfacet
  facet normal 1 0 0
    outer loop
      vertex 15.2257 12.3631 -1.27
      vertex 15.2257 12.3631 1.27
      vertex 15.2257 10.4969 1.27
    endloop
  endfacet
  facet normal 1 0 0
    outer loop
      vertex 15.2257 10.4969 -1.27
      vertex 15.2257 12.3631 -1.27
      vertex 15.2257 10.4969 1.27
    endloop
  endfacet
  facet normal 0.309017 -0.951056 0
    outer loop
      vertex 17.0006 12.9398 -1.27
      vertex 17.0006 12.9398 1.27
      vertex 15.2257 12.3631 1.27
    endloop
  endfacet
  facet normal 0.309017 -0.951056 0
    outer loop
      vertex 15.2257 12.3631 -1.27
      vertex 17.0006 12.9398 -1.27
      vertex 15.2257 12.3631 1.27
    endloop
  endfacet
  facet normal -0.809017 -0.587785 0
    outer loop
      vertex 18.0975 11.43 1.27
      vertex 17.0006 12.9398 1.27
      vertex 18.0975 11.43 -1.27
    endloop
  endfacet
  facet normal -0.809017 -0.587785 0
    outer loop
      vertex 18.0975 11.43 -1.27
      vertex 17.0006 12.9398 1.27
      vertex 17.0006 12.9398 -1.27
    endloop
  endfacet
  facet normal -0.809017 0.587785 0
    outer loop
      vertex 18.0975 11.43 1.27
      vertex 18.0975 11.43 -1.27
      vertex 17.0006 9.9202 1.27
    endloop
  endfacet
  facet normal -0.809017 0.587785 0
    outer loop
      vertex 17.0006 9.9202 1.27
      vertex 18.0975 11.43 -1.27
      vertex 17.0006 9.9202 -1.27
    endloop
  endfacet
  facet normal 0.309017 0.951056 0
    outer loop
      vertex 17.0006 9.9202 1.27
      vertex 17.0006 9.9202 -1.27
      vertex 15.2257 10.4969 1.27
    endloop
  endfacet
  facet normal 0.309017 0.951056 0
    outer loop
      vertex 15.2257 10.4969 1.27
      vertex 17.0006 9.9202 -1.27
      vertex 15.2257 10.4969 -1.27
    endloop
  endfacet
  facet normal -1 0 0
    outer loop
      vertex 11.684 -4.064 1.27
      vertex 11.684 -4.064 3.81
      vertex 11.684 4.064 1.27
    endloop
  endfacet
  facet normal -1 0 0
    outer loop
      vertex 11.684 4.064 1.27
      vertex 11.684 -4.064 3.81
      vertex 11.684 4.064 3.81
    endloop
  endfacet
  facet normal 0 -1 0
    outer loop
      vertex 11.684 -4.064 3.81
      vertex 11.684 -4.064 1.27
      vertex 20.32 -4.064 1.27
    endloop
  endfacet
  facet normal 0 -1 0
    outer loop
      vertex 20.32 -4.064 3.81
      vertex 11.684 -4.064 3.81
      vertex 20.32 -4.064 1.27
    endloop
  endfacet
  facet normal 0 0 -1
    outer loop
      vertex 11.684 -4.064 1.27
      vertex 11.684 4.064 1.27
      vertex 20.32 -4.064 1.27
    endloop
  endfacet
  facet normal 0 0 -1
    outer loop
      vertex 20.32 -4.064 1.27
      vertex 11.684 4.064 1.27
      vertex 20.32 4.064 1.27
    endloop
  endfacet
  facet normal 0 1 0
    outer loop
      vertex 11.684 4.064 1.27
      vertex 11.684 4.064 3.81
      vertex 20.32 4.064 1.27
    endloop
  endfacet
  facet normal 0 1 0
    outer loop
      vertex 20.32 4.064 1.27
      vertex 11.684 4.064 3.81
      vertex 20.32 4.064 3.81
    endloop
  endfacet
  facet normal 0 0 1
    outer loop
      vertex 11.684 4.064 3.81
      vertex 11.684 -4.064 3.81
      vertex 20.32 -4.064 3.81
    endloop
  endfacet
  facet normal 0 0 1
    outer loop
      vertex 20.32 4.064 3.81
      vertex 11.684 4.064 3.81
      vertex 20.32 -4.064 3.81
    endloop
  endfacet
  facet normal 1 0 0
    outer loop
      vertex 20.32 -3.175 1.524
      vertex 20.32 -4.064 1.27
      vertex 20.32 4.064 1.27
    endloop
  endfacet
  facet normal 1 0 0
    outer loop
      vertex 20.32 3.175 1.524
      vertex 20.32 -3.175 1.524
      vertex 20.32 4.064 1.27
    endloop
  endfacet
  facet normal 1 0 0
    outer loop
      vertex 20.32 -4.064 3.81
      vertex 20.32 -4.064 1.27
      vertex 20.32 -3.175 1.524
    endloop
  endfacet
  facet normal 1 0 0
    outer loop
      vertex 20.32 4.064 3.81
      vertex 20.32 -4.064 3.81
      vertex 20.32 -3.175 3.556
    endloop
  endfacet
  facet normal 1 0 0
    outer loop
      vertex 20.32 4.064 3.81
      vertex 20.32 3.175 3.556
      vertex 20.32 4.064 1.27
    endloop
  endfacet
  facet normal 1 0 0
    outer loop
      vertex 20.32 4.064 3.81
      vertex 20.32 -3.175 3.556
      vertex 20.32 3.175 3.556
    endloop
  endfacet
  facet normal 1 0 0
    outer loop
      vertex 20.32 3.175 3.556
      vertex 20.32 3.175 1.524
      vertex 20.32 4.064 1.27
    endloop
  endfacet
  facet normal 1 0 0
    outer loop
      vertex 20.32 -3.175 1.524
      vertex 20.32 -3.175 3.556
      vertex 20.32 -4.064 3.81
    endloop
  endfacet
  facet normal 0 0 1
    outer loop
      vertex 20.32 -3.175 1.524
      vertex 20.32 3.175 1.524
      vertex 19.05 3.175 1.524
    endloop
  endfacet
  facet normal 0 0 1
    outer loop
      vertex 19.05 -3.175 1.524
      vertex 20.32 -3.175 1.524
      vertex 19.05 3.175 1.524
    endloop
  endfacet
  facet normal 0 1 0
    outer loop
      vertex 20.32 -3.175 3.556
      vertex 20.32 -3.175 1.524
      vertex 19.05 -3.175 3.556
    endloop
  endfacet
  facet normal 0 1 0
    outer loop
      vertex 19.05 -3.175 3.556
      vertex 20.32 -3.175 1.524
      vertex 19.05 -3.175 1.524
    endloop
  endfacet
  facet normal 0 -1 0
    outer loop
      vertex 20.32 3.175 1.524
      vertex 20.32 3.175 3.556
      vertex 19.05 3.175 3.556
    endloop
  endfacet
  facet normal 0 -1 0
    outer loop
      vertex 19.05 3.175 1.524
      vertex 20.32 3.175 1.524
      vertex 19.05 3.175 3.556
    endloop
  endfacet
  facet normal 0 0 -1
    outer loop
      vertex 20.32 3.175 3.556
      vertex 20.32 -3.175 3.556
      vertex 19.05 3.175 3.556
    endloop
  endfacet
  facet normal 0 0 -1
    outer loop
      vertex 19.05 3.175 3.556
      vertex 20.32 -3.175 3.556
      vertex 19.05 -3.175 3.556
    endloop
  endfacet
  facet normal 1 0 0
    outer loop
      vertex 19.05 3.175 1.524
      vertex 19.05 3.175 3.556
      vertex 19.05 -3.175 3.556
    endloop
  endfacet
  facet normal 1 0 0
    outer loop
      vertex 19.05 -3.175 1.524
      vertex 19.05 3.175 1.524
      vertex 19.05 -3.175 3.556
    endloop
  endfacet
  facet normal -1 0 0
    outer loop
      vertex -20.32 3.429 3.556
      vertex -20.32 4.064 1.27
      vertex -20.32 1.651 3.556
    endloop
  endfacet
  facet normal -1 0 0
    outer loop
      vertex -20.32 1.651 5.334
      vertex -20.32 -4.064 9.8806
      vertex -20.32 4.064 9.8806
    endloop
  endfacet
  facet normal -1 0 0
    outer loop
      vertex -20.32 -4.064 1.27
      vertex -20.32 -4.064 9.8806
      vertex -20.32 -3.429 5.334
    endloop
  endfacet
  facet normal -1 0 0
    outer loop
      vertex -20.32 -4.064 1.27
      vertex -20.32 -3.429 5.334
      vertex -20.32 -3.429 3.556
    endloop
  endfacet
  facet normal -1 0 0
    outer loop
      vertex -20.32 -4.064 1.27
      vertex -20.32 -3.429 3.556
      vertex -20.32 4.064 1.27
    endloop
  endfacet
  facet normal -1 0 0
    outer loop
      vertex -20.32 -3.429 3.556
      vertex -20.32 -1.651 3.556
      vertex -20.32 4.064 1.27
    endloop
  endfacet
  facet normal -1 0 0
    outer loop
      vertex -20.32 -3.429 5.334
      vertex -20.32 -4.064 9.8806
      vertex -20.32 -1.651 5.334
    endloop
  endfacet
  facet normal -1 0 0
    outer loop
      vertex -20.32 1.651 3.556
      vertex -20.32 -4.064 9.8806
      vertex -20.32 1.651 5.334
    endloop
  endfacet
  facet normal -1 0 0
    outer loop
      vertex -20.32 3.429 5.334
      vertex -20.32 1.651 5.334
      vertex -20.32 4.064 9.8806
    endloop
  endfacet
  facet normal -1 0 0
    outer loop
      vertex -20.32 -1.651 5.334
      vertex -20.32 -4.064 9.8806
      vertex -20.32 1.651 3.556
    endloop
  endfacet
  facet normal -1 0 0
    outer loop
      vertex -20.32 -1.651 5.334
      vertex -20.32 1.651 3.556
      vertex -20.32 4.064 1.27
    endloop
  endfacet
  facet normal -1 0 0
    outer loop
      vertex -20.32 4.064 1.27
      vertex -20.32 3.429 3.556
      vertex -20.32 4.064 9.8806
    endloop
  endfacet
  facet normal -1 0 0
    outer loop
      vertex -20.32 3.429 3.556
      vertex -20.32 3.429 5.334
      vertex -20.32 4.064 9.8806
    endloop
  endfacet
  facet normal -1 0 0
    outer loop
      vertex -20.32 -1.651 5.334
      vertex -20.32 4.064 1.27
      vertex -20.32 -1.651 3.556
    endloop
  endfacet
  facet normal 0 -1 0
    outer loop
      vertex -20.32 -4.064 9.8806
      vertex -20.32 -4.064 1.27
      vertex -12.7 -4.064 1.27
    endloop
  endfacet
  facet normal 0 -1 0
    outer loop
      vertex -12.7 -4.064 9.8806
      vertex -20.32 -4.064 9.8806
      vertex -12.7 -4.064 1.27
    endloop
  endfacet
  facet normal 0 0 -1
    outer loop
      vertex -20.32 -4.064 1.27
      vertex -20.32 4.064 1.27
      vertex -12.7 -4.064 1.27
    endloop
  endfacet
  facet normal 0 0 -1
    outer loop
      vertex -12.7 -4.064 1.27
      vertex -20.32 4.064 1.27
      vertex -12.7 4.064 1.27
    endloop
  endfacet
  facet normal 0 1 0
    outer loop
      vertex -20.32 4.064 1.27
      vertex -20.32 4.064 9.8806
      vertex -12.7 4.064 1.27
    endloop
  endfacet
  facet normal 0 1 0
    outer loop
      vertex -12.7 4.064 1.27
      vertex -20.32 4.064 9.8806
      vertex -12.7 4.064 9.8806
    endloop
  endfacet
  facet normal 0 0 1
    outer loop
      vertex -20.32 4.064 9.8806
      vertex -20.32 -4.064 9.8806
      vertex -12.7 -4.064 9.8806
    endloop
  endfacet
  facet normal 0 0 1
    outer loop
      vertex -12.7 4.064 9.8806
      vertex -20.32 4.064 9.8806
      vertex -12.7 -4.064 9.8806
    endloop
  endfacet
  facet normal 0 0 -1
    outer loop
      vertex -19.431 -1.651 5.334
      vertex -19.431 -3.429 5.334
      vertex -20.32 -1.651 5.334
    endloop
  endfacet
  facet normal 0 0 -1
    outer loop
      vertex -20.32 -1.651 5.334
      vertex -19.431 -3.429 5.334
      vertex -20.32 -3.429 5.334
    endloop
  endfacet
  facet normal 0 1 0
    outer loop
      vertex -19.431 -3.429 5.334
      vertex -19.431 -3.429 3.556
      vertex -20.32 -3.429 5.334
    endloop
  endfacet
  facet normal 0 1 0
    outer loop
      vertex -20.32 -3.429 5.334
      vertex -19.431 -3.429 3.556
      vertex -20.32 -3.429 3.556
    endloop
  endfacet
  facet normal 0 -1 0
    outer loop
      vertex -19.431 -1.651 3.556
      vertex -19.431 -1.651 5.334
      vertex -20.32 -1.651 5.334
    endloop
  endfacet
  facet normal 0 -1 0
    outer loop
      vertex -20.32 -1.651 3.556
      vertex -19.431 -1.651 3.556
      vertex -20.32 -1.651 5.334
    endloop
  endfacet
  facet normal 0 0 1
    outer loop
      vertex -19.431 -3.429 3.556
      vertex -19.431 -1.651 3.556
      vertex -20.32 -1.651 3.556
    endloop
  endfacet
  facet normal 0 0 1
    outer loop
      vertex -20.32 -3.429 3.556
      vertex -19.431 -3.429 3.556
      vertex -20.32 -1.651 3.556
    endloop
  endfacet
  facet normal 0 1 0
    outer loop
      vertex -19.431 1.651 5.334
      vertex -19.431 1.651 3.556
      vertex -20.32 1.651 5.334
    endloop
  endfacet
  facet normal 0 1 0
    outer loop
      vertex -20.32 1.651 5.334
      vertex -19.431 1.651 3.556
      vertex -20.32 1.651 3.556
    endloop
  endfacet
  facet normal 0 0 -1
    outer loop
      vertex -19.431 3.429 5.334
      vertex -19.431 1.651 5.334
      vertex -20.32 3.429 5.334
    endloop
  endfacet
  facet normal 0 0 -1
    outer loop
      vertex -20.32 3.429 5.334
      vertex -19.431 1.651 5.334
      vertex -20.32 1.651 5.334
    endloop
  endfacet
  facet normal 0 -1 0
    outer loop
      vertex -19.431 3.429 3.556
      vertex -19.431 3.429 5.334
      vertex -20.32 3.429 5.334
    endloop
  endfacet
  facet normal 0 -1 0
    outer loop
      vertex -20.32 3.429 3.556
      vertex -19.431 3.429 3.556
      vertex -20.32 3.429 5.334
    endloop
  endfacet
  facet normal 0 0 1
    outer loop
      vertex -19.431 1.651 3.556
      vertex -19.431 3.429 3.556
      vertex -20.32 3.429 3.556
    endloop
  endfacet
  facet normal 0 0 1
    outer loop
      vertex -20.32 1.651 3.556
      vertex -19.431 1.651 3.556
      vertex -20.32 3.429 3.556
    endloop
  endfacet
  facet normal 1 0 0
    outer loop
      vertex -12.7 -4.064 9.8806
      vertex -12.7 -4.064 1.27
      vertex -12.7 4.064 1.27
    endloop
  endfacet
  facet normal 1 0 0
    outer loop
      vertex -12.7 4.064 9.8806
      vertex -12.7 -4.064 9.8806
      vertex -12.7 4.064 1.27
    endloop
  endfacet
  facet normal -1 0 0
    outer loop
      vertex -19.431 -1.651 5.334
      vertex -19.431 -1.651 3.556
      vertex -19.431 -3.429 5.334
    endloop
  endfacet
  facet normal -1 0 0
    outer loop
      vertex -19.431 -3.429 5.334
      vertex -19.431 -1.651 3.556
      vertex -19.431 -3.429 3.556
    endloop
  endfacet
  facet normal -1 0 0
    outer loop
      vertex -19.431 3.429 5.334
      vertex -19.431 3.429 3.556
      vertex -19.431 1.651 5.334
    endloop
  endfacet
  facet normal -1 0 0
    outer loop
      vertex -19.431 1.651 5.334
      vertex -19.431 3.429 3.556
      vertex -19.431 1.651 3.556
    endloop
  endfacet
endsolid OpenSCAD_Model
