solid OpenSCAD_Model
  facet normal -0.5 -0.866025 0
    outer loop
      vertex -5.01717 -6.96034e-008 1.25
      vertex -5.01717 -6.96034e-008 -1.25
      vertex -5.01717 -1.39207e-007 -1.25
    endloop
  endfacet
  facet normal -0.5 -0.866025 0
    outer loop
      vertex -5.01717 -1.39207e-007 1.25
      vertex -5.01717 -6.96034e-008 1.25
      vertex -5.01717 -1.39207e-007 -1.25
    endloop
  endfacet
  facet normal 0 0 -1
    outer loop
      vertex -5.01717 -6.96034e-008 -1.25
      vertex -5.01717 -8.90158e-016 -1.25
      vertex -5.01717 -1.39207e-007 -1.25
    endloop
  endfacet
  facet normal 0 0 -1
    outer loop
      vertex -5.01717 1.39207e-007 -1.25
      vertex -5.01717 -8.90158e-016 -1.25
      vertex -5.01717 6.96034e-008 -1.25
    endloop
  endfacet
  facet normal 0 0 -1
    outer loop
      vertex -5.01717 -1.39207e-007 -1.25
      vertex -5.01717 -8.90158e-016 -1.25
      vertex -5.01717 1.39207e-007 -1.25
    endloop
  endfacet
  facet normal 0 0 -1
    outer loop
      vertex -5.01717 -1.39207e-007 -1.25
      vertex -5.01717 1.39207e-007 -1.25
      vertex -2.50859 4.345 -1.25
    endloop
  endfacet
  facet normal 0 0 -1
    outer loop
      vertex -5.01717 -1.39207e-007 -1.25
      vertex -2.50859 4.345 -1.25
      vertex 2.50859 4.345 -1.25
    endloop
  endfacet
  facet normal 0 0 -1
    outer loop
      vertex 2.49507 0.156976 -1.25
      vertex 2.50859 4.345 -1.25
      vertex 5.01717 1.39207e-007 -1.25
    endloop
  endfacet
  facet normal 0 0 -1
    outer loop
      vertex 2.5 0 -1.25
      vertex 5.01717 6.96034e-008 -1.25
      vertex 5.01717 8.90158e-016 -1.25
    endloop
  endfacet
  facet normal 0 0 -1
    outer loop
      vertex 1.20438 -2.19077 -1.25
      vertex 5.01717 -1.39207e-007 -1.25
      vertex 2.50859 -4.345 -1.25
    endloop
  endfacet
  facet normal 0 0 -1
    outer loop
      vertex 2.50859 -4.345 -1.25
      vertex -2.50859 -4.345 -1.25
      vertex -5.01717 -1.39207e-007 -1.25
    endloop
  endfacet
  facet normal 0 0 -1
    outer loop
      vertex -2.49507 -0.156976 -1.25
      vertex -5.01717 -1.39207e-007 -1.25
      vertex -2.5 0 -1.25
    endloop
  endfacet
  facet normal 0 0 -1
    outer loop
      vertex -1.46946 2.02254 -1.25
      vertex -5.01717 -1.39207e-007 -1.25
      vertex -1.33957 2.11082 -1.25
    endloop
  endfacet
  facet normal 0 0 -1
    outer loop
      vertex -1.06445 -2.26207 -1.25
      vertex 2.50859 -4.345 -1.25
      vertex -1.20438 -2.19077 -1.25
    endloop
  endfacet
  facet normal 0 0 -1
    outer loop
      vertex -5.01717 -1.39207e-007 -1.25
      vertex -2.49507 -0.156976 -1.25
      vertex -2.48029 -0.313333 -1.25
    endloop
  endfacet
  facet normal 0 0 -1
    outer loop
      vertex -5.01717 -1.39207e-007 -1.25
      vertex -2.48029 -0.313333 -1.25
      vertex -2.45572 -0.468453 -1.25
    endloop
  endfacet
  facet normal 0 0 -1
    outer loop
      vertex -5.01717 -1.39207e-007 -1.25
      vertex -2.45572 -0.468453 -1.25
      vertex -2.42146 -0.621725 -1.25
    endloop
  endfacet
  facet normal 0 0 -1
    outer loop
      vertex -5.01717 -1.39207e-007 -1.25
      vertex -2.42146 -0.621725 -1.25
      vertex -2.37764 -0.772542 -1.25
    endloop
  endfacet
  facet normal 0 0 -1
    outer loop
      vertex -5.01717 -1.39207e-007 -1.25
      vertex -2.37764 -0.772542 -1.25
      vertex -2.32444 -0.920311 -1.25
    endloop
  endfacet
  facet normal 0 0 -1
    outer loop
      vertex -5.01717 -1.39207e-007 -1.25
      vertex -2.32444 -0.920311 -1.25
      vertex -2.26207 -1.06445 -1.25
    endloop
  endfacet
  facet normal 0 0 -1
    outer loop
      vertex -5.01717 -1.39207e-007 -1.25
      vertex -2.26207 -1.06445 -1.25
      vertex -2.19077 -1.20438 -1.25
    endloop
  endfacet
  facet normal 0 0 -1
    outer loop
      vertex -5.01717 -1.39207e-007 -1.25
      vertex -2.19077 -1.20438 -1.25
      vertex -2.11082 -1.33957 -1.25
    endloop
  endfacet
  facet normal 0 0 -1
    outer loop
      vertex -5.01717 -1.39207e-007 -1.25
      vertex -2.11082 -1.33957 -1.25
      vertex -2.02254 -1.46946 -1.25
    endloop
  endfacet
  facet normal 0 0 -1
    outer loop
      vertex -5.01717 -1.39207e-007 -1.25
      vertex -2.02254 -1.46946 -1.25
      vertex -1.92628 -1.59356 -1.25
    endloop
  endfacet
  facet normal 0 0 -1
    outer loop
      vertex -5.01717 -1.39207e-007 -1.25
      vertex -1.92628 -1.59356 -1.25
      vertex -1.82242 -1.71137 -1.25
    endloop
  endfacet
  facet normal 0 0 -1
    outer loop
      vertex -5.01717 -1.39207e-007 -1.25
      vertex -1.82242 -1.71137 -1.25
      vertex -1.71137 -1.82242 -1.25
    endloop
  endfacet
  facet normal 0 0 -1
    outer loop
      vertex -5.01717 -1.39207e-007 -1.25
      vertex -1.71137 -1.82242 -1.25
      vertex -1.59356 -1.92628 -1.25
    endloop
  endfacet
  facet normal 0 0 -1
    outer loop
      vertex -5.01717 -1.39207e-007 -1.25
      vertex -1.59356 -1.92628 -1.25
      vertex -1.46946 -2.02254 -1.25
    endloop
  endfacet
  facet normal 0 0 -1
    outer loop
      vertex -5.01717 -1.39207e-007 -1.25
      vertex -1.46946 -2.02254 -1.25
      vertex -1.33957 -2.11082 -1.25
    endloop
  endfacet
  facet normal 0 0 -1
    outer loop
      vertex -5.01717 -1.39207e-007 -1.25
      vertex -1.33957 -2.11082 -1.25
      vertex -1.20438 -2.19077 -1.25
    endloop
  endfacet
  facet normal 0 0 -1
    outer loop
      vertex -5.01717 -1.39207e-007 -1.25
      vertex -1.20438 -2.19077 -1.25
      vertex 2.50859 -4.345 -1.25
    endloop
  endfacet
  facet normal 0 0 -1
    outer loop
      vertex -0.920311 -2.32444 -1.25
      vertex 2.50859 -4.345 -1.25
      vertex -1.06445 -2.26207 -1.25
    endloop
  endfacet
  facet normal 0 0 -1
    outer loop
      vertex -0.772542 -2.37764 -1.25
      vertex 2.50859 -4.345 -1.25
      vertex -0.920311 -2.32444 -1.25
    endloop
  endfacet
  facet normal 0 0 -1
    outer loop
      vertex -0.621725 -2.42146 -1.25
      vertex 2.50859 -4.345 -1.25
      vertex -0.772542 -2.37764 -1.25
    endloop
  endfacet
  facet normal 0 0 -1
    outer loop
      vertex -0.468453 -2.45572 -1.25
      vertex 2.50859 -4.345 -1.25
      vertex -0.621725 -2.42146 -1.25
    endloop
  endfacet
  facet normal 0 0 -1
    outer loop
      vertex -0.313333 -2.48029 -1.25
      vertex 2.50859 -4.345 -1.25
      vertex -0.468453 -2.45572 -1.25
    endloop
  endfacet
  facet normal 0 0 -1
    outer loop
      vertex -0.156976 -2.49507 -1.25
      vertex 2.50859 -4.345 -1.25
      vertex -0.313333 -2.48029 -1.25
    endloop
  endfacet
  facet normal 0 0 -1
    outer loop
      vertex 0 -2.5 -1.25
      vertex 2.50859 -4.345 -1.25
      vertex -0.156976 -2.49507 -1.25
    endloop
  endfacet
  facet normal 0 0 -1
    outer loop
      vertex 0.156976 -2.49507 -1.25
      vertex 2.50859 -4.345 -1.25
      vertex 0 -2.5 -1.25
    endloop
  endfacet
  facet normal 0 0 -1
    outer loop
      vertex 0.313333 -2.48029 -1.25
      vertex 2.50859 -4.345 -1.25
      vertex 0.156976 -2.49507 -1.25
    endloop
  endfacet
  facet normal 0 0 -1
    outer loop
      vertex 2.5 0 -1.25
      vertex 5.01717 -6.96034e-008 -1.25
      vertex 5.01717 -1.39207e-007 -1.25
    endloop
  endfacet
  facet normal 0 0 -1
    outer loop
      vertex 1.46946 -2.02254 -1.25
      vertex 5.01717 -1.39207e-007 -1.25
      vertex 1.33957 -2.11082 -1.25
    endloop
  endfacet
  facet normal 0 0 -1
    outer loop
      vertex 1.92628 -1.59356 -1.25
      vertex 5.01717 -1.39207e-007 -1.25
      vertex 1.82242 -1.71137 -1.25
    endloop
  endfacet
  facet normal 0 0 -1
    outer loop
      vertex 0.313333 -2.48029 -1.25
      vertex 0.468453 -2.45572 -1.25
      vertex 2.50859 -4.345 -1.25
    endloop
  endfacet
  facet normal 0 0 -1
    outer loop
      vertex 0.468453 -2.45572 -1.25
      vertex 0.621725 -2.42146 -1.25
      vertex 2.50859 -4.345 -1.25
    endloop
  endfacet
  facet normal 0 0 -1
    outer loop
      vertex 1.82242 -1.71137 -1.25
      vertex 5.01717 -1.39207e-007 -1.25
      vertex 1.71137 -1.82242 -1.25
    endloop
  endfacet
  facet normal 0 0 -1
    outer loop
      vertex 0.621725 -2.42146 -1.25
      vertex 0.772542 -2.37764 -1.25
      vertex 2.50859 -4.345 -1.25
    endloop
  endfacet
  facet normal 0 0 -1
    outer loop
      vertex 1.71137 -1.82242 -1.25
      vertex 5.01717 -1.39207e-007 -1.25
      vertex 1.59356 -1.92628 -1.25
    endloop
  endfacet
  facet normal 0 0 -1
    outer loop
      vertex 0.772542 -2.37764 -1.25
      vertex 0.920311 -2.32444 -1.25
      vertex 2.50859 -4.345 -1.25
    endloop
  endfacet
  facet normal 0 0 -1
    outer loop
      vertex 1.59356 -1.92628 -1.25
      vertex 5.01717 -1.39207e-007 -1.25
      vertex 1.46946 -2.02254 -1.25
    endloop
  endfacet
  facet normal 0 0 -1
    outer loop
      vertex 0.920311 -2.32444 -1.25
      vertex 1.06445 -2.26207 -1.25
      vertex 2.50859 -4.345 -1.25
    endloop
  endfacet
  facet normal 0 0 -1
    outer loop
      vertex 1.33957 -2.11082 -1.25
      vertex 5.01717 -1.39207e-007 -1.25
      vertex 1.20438 -2.19077 -1.25
    endloop
  endfacet
  facet normal 0 0 -1
    outer loop
      vertex 1.06445 -2.26207 -1.25
      vertex 1.20438 -2.19077 -1.25
      vertex 2.50859 -4.345 -1.25
    endloop
  endfacet
  facet normal 0 0 -1
    outer loop
      vertex 2.5 0 -1.25
      vertex 5.01717 -1.39207e-007 -1.25
      vertex 2.49507 -0.156976 -1.25
    endloop
  endfacet
  facet normal 0 0 -1
    outer loop
      vertex 2.02254 -1.46946 -1.25
      vertex 5.01717 -1.39207e-007 -1.25
      vertex 1.92628 -1.59356 -1.25
    endloop
  endfacet
  facet normal 0 0 -1
    outer loop
      vertex 2.11082 -1.33957 -1.25
      vertex 5.01717 -1.39207e-007 -1.25
      vertex 2.02254 -1.46946 -1.25
    endloop
  endfacet
  facet normal 0 0 -1
    outer loop
      vertex 2.19077 -1.20438 -1.25
      vertex 5.01717 -1.39207e-007 -1.25
      vertex 2.11082 -1.33957 -1.25
    endloop
  endfacet
  facet normal 0 0 -1
    outer loop
      vertex 2.26207 -1.06445 -1.25
      vertex 5.01717 -1.39207e-007 -1.25
      vertex 2.19077 -1.20438 -1.25
    endloop
  endfacet
  facet normal 0 0 -1
    outer loop
      vertex 2.32444 -0.920311 -1.25
      vertex 5.01717 -1.39207e-007 -1.25
      vertex 2.26207 -1.06445 -1.25
    endloop
  endfacet
  facet normal 0 0 -1
    outer loop
      vertex 2.37764 -0.772542 -1.25
      vertex 5.01717 -1.39207e-007 -1.25
      vertex 2.32444 -0.920311 -1.25
    endloop
  endfacet
  facet normal 0 0 -1
    outer loop
      vertex 2.42146 -0.621725 -1.25
      vertex 5.01717 -1.39207e-007 -1.25
      vertex 2.37764 -0.772542 -1.25
    endloop
  endfacet
  facet normal 0 0 -1
    outer loop
      vertex 2.45572 -0.468453 -1.25
      vertex 5.01717 -1.39207e-007 -1.25
      vertex 2.42146 -0.621725 -1.25
    endloop
  endfacet
  facet normal 0 0 -1
    outer loop
      vertex 2.48029 -0.313333 -1.25
      vertex 5.01717 -1.39207e-007 -1.25
      vertex 2.45572 -0.468453 -1.25
    endloop
  endfacet
  facet normal 0 0 -1
    outer loop
      vertex 2.49507 -0.156976 -1.25
      vertex 5.01717 -1.39207e-007 -1.25
      vertex 2.48029 -0.313333 -1.25
    endloop
  endfacet
  facet normal 0 0 -1
    outer loop
      vertex 2.48029 0.313333 -1.25
      vertex 2.50859 4.345 -1.25
      vertex 2.49507 0.156976 -1.25
    endloop
  endfacet
  facet normal 0 0 -1
    outer loop
      vertex 0.313333 2.48029 -1.25
      vertex 2.50859 4.345 -1.25
      vertex 0.468453 2.45572 -1.25
    endloop
  endfacet
  facet normal 0 0 -1
    outer loop
      vertex 2.45572 0.468453 -1.25
      vertex 2.50859 4.345 -1.25
      vertex 2.48029 0.313333 -1.25
    endloop
  endfacet
  facet normal 0 0 -1
    outer loop
      vertex 2.42146 0.621725 -1.25
      vertex 2.50859 4.345 -1.25
      vertex 2.45572 0.468453 -1.25
    endloop
  endfacet
  facet normal 0 0 -1
    outer loop
      vertex 2.37764 0.772542 -1.25
      vertex 2.50859 4.345 -1.25
      vertex 2.42146 0.621725 -1.25
    endloop
  endfacet
  facet normal 0 0 -1
    outer loop
      vertex 2.32444 0.920311 -1.25
      vertex 2.50859 4.345 -1.25
      vertex 2.37764 0.772542 -1.25
    endloop
  endfacet
  facet normal 0 0 -1
    outer loop
      vertex 2.26207 1.06445 -1.25
      vertex 2.50859 4.345 -1.25
      vertex 2.32444 0.920311 -1.25
    endloop
  endfacet
  facet normal 0 0 -1
    outer loop
      vertex 2.19077 1.20438 -1.25
      vertex 2.50859 4.345 -1.25
      vertex 2.26207 1.06445 -1.25
    endloop
  endfacet
  facet normal 0 0 -1
    outer loop
      vertex 2.11082 1.33957 -1.25
      vertex 2.50859 4.345 -1.25
      vertex 2.19077 1.20438 -1.25
    endloop
  endfacet
  facet normal 0 0 -1
    outer loop
      vertex 2.02254 1.46946 -1.25
      vertex 2.50859 4.345 -1.25
      vertex 2.11082 1.33957 -1.25
    endloop
  endfacet
  facet normal 0 0 -1
    outer loop
      vertex 1.92628 1.59356 -1.25
      vertex 2.50859 4.345 -1.25
      vertex 2.02254 1.46946 -1.25
    endloop
  endfacet
  facet normal 0 0 -1
    outer loop
      vertex 1.82242 1.71137 -1.25
      vertex 2.50859 4.345 -1.25
      vertex 1.92628 1.59356 -1.25
    endloop
  endfacet
  facet normal 0 0 -1
    outer loop
      vertex 1.71137 1.82242 -1.25
      vertex 2.50859 4.345 -1.25
      vertex 1.82242 1.71137 -1.25
    endloop
  endfacet
  facet normal 0 0 -1
    outer loop
      vertex 1.59356 1.92628 -1.25
      vertex 2.50859 4.345 -1.25
      vertex 1.71137 1.82242 -1.25
    endloop
  endfacet
  facet normal 0 0 -1
    outer loop
      vertex 1.46946 2.02254 -1.25
      vertex 2.50859 4.345 -1.25
      vertex 1.59356 1.92628 -1.25
    endloop
  endfacet
  facet normal 0 0 -1
    outer loop
      vertex 1.33957 2.11082 -1.25
      vertex 2.50859 4.345 -1.25
      vertex 1.46946 2.02254 -1.25
    endloop
  endfacet
  facet normal 0 0 -1
    outer loop
      vertex 1.20438 2.19077 -1.25
      vertex 2.50859 4.345 -1.25
      vertex 1.33957 2.11082 -1.25
    endloop
  endfacet
  facet normal 0 0 -1
    outer loop
      vertex 1.06445 2.26207 -1.25
      vertex 2.50859 4.345 -1.25
      vertex 1.20438 2.19077 -1.25
    endloop
  endfacet
  facet normal 0 0 -1
    outer loop
      vertex 0.920311 2.32444 -1.25
      vertex 2.50859 4.345 -1.25
      vertex 1.06445 2.26207 -1.25
    endloop
  endfacet
  facet normal 0 0 -1
    outer loop
      vertex 0.772542 2.37764 -1.25
      vertex 2.50859 4.345 -1.25
      vertex 0.920311 2.32444 -1.25
    endloop
  endfacet
  facet normal 0 0 -1
    outer loop
      vertex 0.621725 2.42146 -1.25
      vertex 2.50859 4.345 -1.25
      vertex 0.772542 2.37764 -1.25
    endloop
  endfacet
  facet normal 0 0 -1
    outer loop
      vertex 0.468453 2.45572 -1.25
      vertex 2.50859 4.345 -1.25
      vertex 0.621725 2.42146 -1.25
    endloop
  endfacet
  facet normal 0 0 -1
    outer loop
      vertex 0.156976 2.49507 -1.25
      vertex 2.50859 4.345 -1.25
      vertex 0.313333 2.48029 -1.25
    endloop
  endfacet
  facet normal 0 0 -1
    outer loop
      vertex 0 2.5 -1.25
      vertex 2.50859 4.345 -1.25
      vertex 0.156976 2.49507 -1.25
    endloop
  endfacet
  facet normal 0 0 -1
    outer loop
      vertex -0.156976 2.49507 -1.25
      vertex 2.50859 4.345 -1.25
      vertex 0 2.5 -1.25
    endloop
  endfacet
  facet normal 0 0 -1
    outer loop
      vertex -0.313333 2.48029 -1.25
      vertex 2.50859 4.345 -1.25
      vertex -0.156976 2.49507 -1.25
    endloop
  endfacet
  facet normal 0 0 -1
    outer loop
      vertex -0.468453 2.45572 -1.25
      vertex 2.50859 4.345 -1.25
      vertex -0.313333 2.48029 -1.25
    endloop
  endfacet
  facet normal 0 0 -1
    outer loop
      vertex -0.621725 2.42146 -1.25
      vertex 2.50859 4.345 -1.25
      vertex -0.468453 2.45572 -1.25
    endloop
  endfacet
  facet normal 0 0 -1
    outer loop
      vertex -0.772542 2.37764 -1.25
      vertex 2.50859 4.345 -1.25
      vertex -0.621725 2.42146 -1.25
    endloop
  endfacet
  facet normal 0 0 -1
    outer loop
      vertex -0.920311 2.32444 -1.25
      vertex 2.50859 4.345 -1.25
      vertex -0.772542 2.37764 -1.25
    endloop
  endfacet
  facet normal 0 0 -1
    outer loop
      vertex -1.06445 2.26207 -1.25
      vertex 2.50859 4.345 -1.25
      vertex -0.920311 2.32444 -1.25
    endloop
  endfacet
  facet normal 0 0 -1
    outer loop
      vertex -1.20438 2.19077 -1.25
      vertex 2.50859 4.345 -1.25
      vertex -1.06445 2.26207 -1.25
    endloop
  endfacet
  facet normal 0 0 -1
    outer loop
      vertex -5.01717 -1.39207e-007 -1.25
      vertex 2.50859 4.345 -1.25
      vertex -1.20438 2.19077 -1.25
    endloop
  endfacet
  facet normal 0 0 -1
    outer loop
      vertex -5.01717 -1.39207e-007 -1.25
      vertex -1.20438 2.19077 -1.25
      vertex -1.33957 2.11082 -1.25
    endloop
  endfacet
  facet normal 0 0 -1
    outer loop
      vertex -1.59356 1.92628 -1.25
      vertex -5.01717 -1.39207e-007 -1.25
      vertex -1.46946 2.02254 -1.25
    endloop
  endfacet
  facet normal 0 0 -1
    outer loop
      vertex -1.71137 1.82242 -1.25
      vertex -5.01717 -1.39207e-007 -1.25
      vertex -1.59356 1.92628 -1.25
    endloop
  endfacet
  facet normal 0 0 -1
    outer loop
      vertex -1.82242 1.71137 -1.25
      vertex -5.01717 -1.39207e-007 -1.25
      vertex -1.71137 1.82242 -1.25
    endloop
  endfacet
  facet normal 0 0 -1
    outer loop
      vertex -1.92628 1.59356 -1.25
      vertex -5.01717 -1.39207e-007 -1.25
      vertex -1.82242 1.71137 -1.25
    endloop
  endfacet
  facet normal 0 0 -1
    outer loop
      vertex -2.02254 1.46946 -1.25
      vertex -5.01717 -1.39207e-007 -1.25
      vertex -1.92628 1.59356 -1.25
    endloop
  endfacet
  facet normal 0 0 -1
    outer loop
      vertex -2.11082 1.33957 -1.25
      vertex -5.01717 -1.39207e-007 -1.25
      vertex -2.02254 1.46946 -1.25
    endloop
  endfacet
  facet normal 0 0 -1
    outer loop
      vertex -5.01717 -1.39207e-007 -1.25
      vertex -2.11082 1.33957 -1.25
      vertex -2.19077 1.20438 -1.25
    endloop
  endfacet
  facet normal 0 0 -1
    outer loop
      vertex -5.01717 -1.39207e-007 -1.25
      vertex -2.19077 1.20438 -1.25
      vertex -2.26207 1.06445 -1.25
    endloop
  endfacet
  facet normal 0 0 -1
    outer loop
      vertex -5.01717 -1.39207e-007 -1.25
      vertex -2.26207 1.06445 -1.25
      vertex -2.32444 0.920311 -1.25
    endloop
  endfacet
  facet normal 0 0 -1
    outer loop
      vertex -5.01717 -1.39207e-007 -1.25
      vertex -2.32444 0.920311 -1.25
      vertex -2.37764 0.772542 -1.25
    endloop
  endfacet
  facet normal 0 0 -1
    outer loop
      vertex -5.01717 -1.39207e-007 -1.25
      vertex -2.37764 0.772542 -1.25
      vertex -2.42146 0.621725 -1.25
    endloop
  endfacet
  facet normal 0 0 -1
    outer loop
      vertex -5.01717 -1.39207e-007 -1.25
      vertex -2.42146 0.621725 -1.25
      vertex -2.45572 0.468453 -1.25
    endloop
  endfacet
  facet normal 0 0 -1
    outer loop
      vertex -5.01717 -1.39207e-007 -1.25
      vertex -2.45572 0.468453 -1.25
      vertex -2.48029 0.313333 -1.25
    endloop
  endfacet
  facet normal 0 0 -1
    outer loop
      vertex -5.01717 -1.39207e-007 -1.25
      vertex -2.48029 0.313333 -1.25
      vertex -2.49507 0.156976 -1.25
    endloop
  endfacet
  facet normal 0 0 -1
    outer loop
      vertex -5.01717 -1.39207e-007 -1.25
      vertex -2.49507 0.156976 -1.25
      vertex -2.5 0 -1.25
    endloop
  endfacet
  facet normal 0 0 -1
    outer loop
      vertex 2.5 0 -1.25
      vertex 5.01717 8.90158e-016 -1.25
      vertex 5.01717 -6.96034e-008 -1.25
    endloop
  endfacet
  facet normal 0 0 -1
    outer loop
      vertex 2.49507 0.156976 -1.25
      vertex 5.01717 1.39207e-007 -1.25
      vertex 5.01717 6.96034e-008 -1.25
    endloop
  endfacet
  facet normal 0 0 -1
    outer loop
      vertex 2.49507 0.156976 -1.25
      vertex 5.01717 6.96034e-008 -1.25
      vertex 2.5 0 -1.25
    endloop
  endfacet
  facet normal -0.866025 0.5 0
    outer loop
      vertex -5.01717 -6.96034e-008 -1.25
      vertex -5.01717 -6.96034e-008 1.25
      vertex -5.01717 -8.90158e-016 -1.25
    endloop
  endfacet
  facet normal -0.866025 0.5 0
    outer loop
      vertex -5.01717 -8.90158e-016 -1.25
      vertex -5.01717 -6.96034e-008 1.25
      vertex -5.01717 -8.90158e-016 1.25
    endloop
  endfacet
  facet normal 0 0 1
    outer loop
      vertex -5.01717 -8.90158e-016 1.25
      vertex -5.01717 -6.96034e-008 1.25
      vertex -5.01717 -1.39207e-007 1.25
    endloop
  endfacet
  facet normal 0 0 1
    outer loop
      vertex -2.50859 -4.345 1.25
      vertex -5.01717 -8.90158e-016 1.25
      vertex -5.01717 -1.39207e-007 1.25
    endloop
  endfacet
  facet normal 0 0 1
    outer loop
      vertex -2.50859 -4.345 1.25
      vertex 2.50859 -4.345 1.25
      vertex -5.01717 -8.90158e-016 1.25
    endloop
  endfacet
  facet normal 0 0 1
    outer loop
      vertex 2.49507 0.156976 1.25
      vertex 2.5 0 1.25
      vertex 5.01717 8.90158e-016 1.25
    endloop
  endfacet
  facet normal 0 0 1
    outer loop
      vertex 2.49507 0.156976 1.25
      vertex 5.01717 8.90158e-016 1.25
      vertex 5.01717 6.96034e-008 1.25
    endloop
  endfacet
  facet normal 0 0 1
    outer loop
      vertex -0.920311 2.32444 1.25
      vertex -0.772542 2.37764 1.25
      vertex 2.50859 4.345 1.25
    endloop
  endfacet
  facet normal 0 0 1
    outer loop
      vertex 2.5 0 1.25
      vertex 5.01717 -1.39207e-007 1.25
      vertex 5.01717 -6.96034e-008 1.25
    endloop
  endfacet
  facet normal 0 0 1
    outer loop
      vertex -1.20438 2.19077 1.25
      vertex 2.50859 4.345 1.25
      vertex -5.01717 -8.90158e-016 1.25
    endloop
  endfacet
  facet normal 0 0 1
    outer loop
      vertex -1.20438 2.19077 1.25
      vertex -1.06445 2.26207 1.25
      vertex 2.50859 4.345 1.25
    endloop
  endfacet
  facet normal 0 0 1
    outer loop
      vertex 2.50859 4.345 1.25
      vertex -2.50859 4.345 1.25
      vertex -5.01717 -8.90158e-016 1.25
    endloop
  endfacet
  facet normal 0 0 1
    outer loop
      vertex -2.50859 4.345 1.25
      vertex -5.01717 1.39207e-007 1.25
      vertex -5.01717 -8.90158e-016 1.25
    endloop
  endfacet
  facet normal 0 0 1
    outer loop
      vertex -5.01717 1.39207e-007 1.25
      vertex -5.01717 6.96034e-008 1.25
      vertex -5.01717 -8.90158e-016 1.25
    endloop
  endfacet
  facet normal 0 0 1
    outer loop
      vertex -2.48029 -0.313333 1.25
      vertex -2.49507 -0.156976 1.25
      vertex -5.01717 -8.90158e-016 1.25
    endloop
  endfacet
  facet normal 0 0 1
    outer loop
      vertex 2.5 0 1.25
      vertex 2.49507 -0.156976 1.25
      vertex 5.01717 -1.39207e-007 1.25
    endloop
  endfacet
  facet normal 0 0 1
    outer loop
      vertex -2.49507 0.156976 1.25
      vertex -2.48029 0.313333 1.25
      vertex -5.01717 -8.90158e-016 1.25
    endloop
  endfacet
  facet normal 0 0 1
    outer loop
      vertex 1.33957 2.11082 1.25
      vertex 1.46946 2.02254 1.25
      vertex 5.01717 1.39207e-007 1.25
    endloop
  endfacet
  facet normal 0 0 1
    outer loop
      vertex -2.48029 0.313333 1.25
      vertex -2.45572 0.468453 1.25
      vertex -5.01717 -8.90158e-016 1.25
    endloop
  endfacet
  facet normal 0 0 1
    outer loop
      vertex -2.45572 0.468453 1.25
      vertex -2.42146 0.621725 1.25
      vertex -5.01717 -8.90158e-016 1.25
    endloop
  endfacet
  facet normal 0 0 1
    outer loop
      vertex -2.42146 0.621725 1.25
      vertex -2.37764 0.772542 1.25
      vertex -5.01717 -8.90158e-016 1.25
    endloop
  endfacet
  facet normal 0 0 1
    outer loop
      vertex -2.37764 0.772542 1.25
      vertex -2.32444 0.920311 1.25
      vertex -5.01717 -8.90158e-016 1.25
    endloop
  endfacet
  facet normal 0 0 1
    outer loop
      vertex -2.32444 0.920311 1.25
      vertex -2.26207 1.06445 1.25
      vertex -5.01717 -8.90158e-016 1.25
    endloop
  endfacet
  facet normal 0 0 1
    outer loop
      vertex -2.26207 1.06445 1.25
      vertex -2.19077 1.20438 1.25
      vertex -5.01717 -8.90158e-016 1.25
    endloop
  endfacet
  facet normal 0 0 1
    outer loop
      vertex -2.19077 1.20438 1.25
      vertex -2.11082 1.33957 1.25
      vertex -5.01717 -8.90158e-016 1.25
    endloop
  endfacet
  facet normal 0 0 1
    outer loop
      vertex -2.11082 1.33957 1.25
      vertex -2.02254 1.46946 1.25
      vertex -5.01717 -8.90158e-016 1.25
    endloop
  endfacet
  facet normal 0 0 1
    outer loop
      vertex -2.02254 1.46946 1.25
      vertex -1.92628 1.59356 1.25
      vertex -5.01717 -8.90158e-016 1.25
    endloop
  endfacet
  facet normal 0 0 1
    outer loop
      vertex -1.92628 1.59356 1.25
      vertex -1.82242 1.71137 1.25
      vertex -5.01717 -8.90158e-016 1.25
    endloop
  endfacet
  facet normal 0 0 1
    outer loop
      vertex -1.82242 1.71137 1.25
      vertex -1.71137 1.82242 1.25
      vertex -5.01717 -8.90158e-016 1.25
    endloop
  endfacet
  facet normal 0 0 1
    outer loop
      vertex -1.71137 1.82242 1.25
      vertex -1.59356 1.92628 1.25
      vertex -5.01717 -8.90158e-016 1.25
    endloop
  endfacet
  facet normal 0 0 1
    outer loop
      vertex -0.772542 2.37764 1.25
      vertex -0.621725 2.42146 1.25
      vertex 2.50859 4.345 1.25
    endloop
  endfacet
  facet normal 0 0 1
    outer loop
      vertex -1.59356 1.92628 1.25
      vertex -1.46946 2.02254 1.25
      vertex -5.01717 -8.90158e-016 1.25
    endloop
  endfacet
  facet normal 0 0 1
    outer loop
      vertex -1.46946 2.02254 1.25
      vertex -1.33957 2.11082 1.25
      vertex -5.01717 -8.90158e-016 1.25
    endloop
  endfacet
  facet normal 0 0 1
    outer loop
      vertex -1.33957 2.11082 1.25
      vertex -1.20438 2.19077 1.25
      vertex -5.01717 -8.90158e-016 1.25
    endloop
  endfacet
  facet normal 0 0 1
    outer loop
      vertex -1.06445 2.26207 1.25
      vertex -0.920311 2.32444 1.25
      vertex 2.50859 4.345 1.25
    endloop
  endfacet
  facet normal 0 0 1
    outer loop
      vertex -0.468453 2.45572 1.25
      vertex -0.313333 2.48029 1.25
      vertex 2.50859 4.345 1.25
    endloop
  endfacet
  facet normal 0 0 1
    outer loop
      vertex -0.621725 2.42146 1.25
      vertex -0.468453 2.45572 1.25
      vertex 2.50859 4.345 1.25
    endloop
  endfacet
  facet normal 0 0 1
    outer loop
      vertex -0.313333 2.48029 1.25
      vertex -0.156976 2.49507 1.25
      vertex 2.50859 4.345 1.25
    endloop
  endfacet
  facet normal 0 0 1
    outer loop
      vertex -0.156976 2.49507 1.25
      vertex 0 2.5 1.25
      vertex 2.50859 4.345 1.25
    endloop
  endfacet
  facet normal 0 0 1
    outer loop
      vertex 0 2.5 1.25
      vertex 0.156976 2.49507 1.25
      vertex 2.50859 4.345 1.25
    endloop
  endfacet
  facet normal 0 0 1
    outer loop
      vertex 0.156976 2.49507 1.25
      vertex 0.313333 2.48029 1.25
      vertex 2.50859 4.345 1.25
    endloop
  endfacet
  facet normal 0 0 1
    outer loop
      vertex 1.71137 1.82242 1.25
      vertex 1.82242 1.71137 1.25
      vertex 5.01717 1.39207e-007 1.25
    endloop
  endfacet
  facet normal 0 0 1
    outer loop
      vertex 0.468453 2.45572 1.25
      vertex 2.50859 4.345 1.25
      vertex 0.313333 2.48029 1.25
    endloop
  endfacet
  facet normal 0 0 1
    outer loop
      vertex 0.621725 2.42146 1.25
      vertex 2.50859 4.345 1.25
      vertex 0.468453 2.45572 1.25
    endloop
  endfacet
  facet normal 0 0 1
    outer loop
      vertex 1.82242 1.71137 1.25
      vertex 1.92628 1.59356 1.25
      vertex 5.01717 1.39207e-007 1.25
    endloop
  endfacet
  facet normal 0 0 1
    outer loop
      vertex 0.772542 2.37764 1.25
      vertex 2.50859 4.345 1.25
      vertex 0.621725 2.42146 1.25
    endloop
  endfacet
  facet normal 0 0 1
    outer loop
      vertex 0.920311 2.32444 1.25
      vertex 2.50859 4.345 1.25
      vertex 0.772542 2.37764 1.25
    endloop
  endfacet
  facet normal 0 0 1
    outer loop
      vertex 1.06445 2.26207 1.25
      vertex 2.50859 4.345 1.25
      vertex 0.920311 2.32444 1.25
    endloop
  endfacet
  facet normal 0 0 1
    outer loop
      vertex 1.20438 2.19077 1.25
      vertex 2.50859 4.345 1.25
      vertex 1.06445 2.26207 1.25
    endloop
  endfacet
  facet normal 0 0 1
    outer loop
      vertex 5.01717 1.39207e-007 1.25
      vertex 2.50859 4.345 1.25
      vertex 1.20438 2.19077 1.25
    endloop
  endfacet
  facet normal 0 0 1
    outer loop
      vertex 1.46946 2.02254 1.25
      vertex 1.59356 1.92628 1.25
      vertex 5.01717 1.39207e-007 1.25
    endloop
  endfacet
  facet normal 0 0 1
    outer loop
      vertex 5.01717 1.39207e-007 1.25
      vertex 1.20438 2.19077 1.25
      vertex 1.33957 2.11082 1.25
    endloop
  endfacet
  facet normal 0 0 1
    outer loop
      vertex 1.59356 1.92628 1.25
      vertex 1.71137 1.82242 1.25
      vertex 5.01717 1.39207e-007 1.25
    endloop
  endfacet
  facet normal 0 0 1
    outer loop
      vertex 2.49507 0.156976 1.25
      vertex 5.01717 6.96034e-008 1.25
      vertex 5.01717 1.39207e-007 1.25
    endloop
  endfacet
  facet normal 0 0 1
    outer loop
      vertex 5.01717 1.39207e-007 1.25
      vertex 1.92628 1.59356 1.25
      vertex 2.02254 1.46946 1.25
    endloop
  endfacet
  facet normal 0 0 1
    outer loop
      vertex 5.01717 1.39207e-007 1.25
      vertex 2.02254 1.46946 1.25
      vertex 2.11082 1.33957 1.25
    endloop
  endfacet
  facet normal 0 0 1
    outer loop
      vertex 5.01717 1.39207e-007 1.25
      vertex 2.11082 1.33957 1.25
      vertex 2.19077 1.20438 1.25
    endloop
  endfacet
  facet normal 0 0 1
    outer loop
      vertex 5.01717 1.39207e-007 1.25
      vertex 2.19077 1.20438 1.25
      vertex 2.26207 1.06445 1.25
    endloop
  endfacet
  facet normal 0 0 1
    outer loop
      vertex 5.01717 1.39207e-007 1.25
      vertex 2.26207 1.06445 1.25
      vertex 2.32444 0.920311 1.25
    endloop
  endfacet
  facet normal 0 0 1
    outer loop
      vertex 5.01717 1.39207e-007 1.25
      vertex 2.32444 0.920311 1.25
      vertex 2.37764 0.772542 1.25
    endloop
  endfacet
  facet normal 0 0 1
    outer loop
      vertex 5.01717 1.39207e-007 1.25
      vertex 2.37764 0.772542 1.25
      vertex 2.42146 0.621725 1.25
    endloop
  endfacet
  facet normal 0 0 1
    outer loop
      vertex 5.01717 1.39207e-007 1.25
      vertex 2.42146 0.621725 1.25
      vertex 2.45572 0.468453 1.25
    endloop
  endfacet
  facet normal 0 0 1
    outer loop
      vertex 5.01717 1.39207e-007 1.25
      vertex 2.45572 0.468453 1.25
      vertex 2.48029 0.313333 1.25
    endloop
  endfacet
  facet normal 0 0 1
    outer loop
      vertex 5.01717 1.39207e-007 1.25
      vertex 2.48029 0.313333 1.25
      vertex 2.49507 0.156976 1.25
    endloop
  endfacet
  facet normal 0 0 1
    outer loop
      vertex -2.5 0 1.25
      vertex -2.49507 0.156976 1.25
      vertex -5.01717 -8.90158e-016 1.25
    endloop
  endfacet
  facet normal 0 0 1
    outer loop
      vertex 5.01717 -6.96034e-008 1.25
      vertex 5.01717 8.90158e-016 1.25
      vertex 2.5 0 1.25
    endloop
  endfacet
  facet normal 0 0 1
    outer loop
      vertex 2.50859 -4.345 1.25
      vertex 5.01717 -1.39207e-007 1.25
      vertex 2.49507 -0.156976 1.25
    endloop
  endfacet
  facet normal 0 0 1
    outer loop
      vertex 2.50859 -4.345 1.25
      vertex 2.49507 -0.156976 1.25
      vertex 2.48029 -0.313333 1.25
    endloop
  endfacet
  facet normal 0 0 1
    outer loop
      vertex 2.50859 -4.345 1.25
      vertex 2.48029 -0.313333 1.25
      vertex 2.45572 -0.468453 1.25
    endloop
  endfacet
  facet normal 0 0 1
    outer loop
      vertex 2.50859 -4.345 1.25
      vertex 2.45572 -0.468453 1.25
      vertex 2.42146 -0.621725 1.25
    endloop
  endfacet
  facet normal 0 0 1
    outer loop
      vertex 2.50859 -4.345 1.25
      vertex 2.42146 -0.621725 1.25
      vertex 2.37764 -0.772542 1.25
    endloop
  endfacet
  facet normal 0 0 1
    outer loop
      vertex 2.50859 -4.345 1.25
      vertex 2.37764 -0.772542 1.25
      vertex 2.32444 -0.920311 1.25
    endloop
  endfacet
  facet normal 0 0 1
    outer loop
      vertex 2.50859 -4.345 1.25
      vertex 2.32444 -0.920311 1.25
      vertex 2.26207 -1.06445 1.25
    endloop
  endfacet
  facet normal 0 0 1
    outer loop
      vertex 2.50859 -4.345 1.25
      vertex 2.26207 -1.06445 1.25
      vertex 2.19077 -1.20438 1.25
    endloop
  endfacet
  facet normal 0 0 1
    outer loop
      vertex 2.50859 -4.345 1.25
      vertex 2.19077 -1.20438 1.25
      vertex 2.11082 -1.33957 1.25
    endloop
  endfacet
  facet normal 0 0 1
    outer loop
      vertex 2.50859 -4.345 1.25
      vertex 2.11082 -1.33957 1.25
      vertex 2.02254 -1.46946 1.25
    endloop
  endfacet
  facet normal 0 0 1
    outer loop
      vertex 2.50859 -4.345 1.25
      vertex 2.02254 -1.46946 1.25
      vertex 1.92628 -1.59356 1.25
    endloop
  endfacet
  facet normal 0 0 1
    outer loop
      vertex 2.50859 -4.345 1.25
      vertex 1.92628 -1.59356 1.25
      vertex 1.82242 -1.71137 1.25
    endloop
  endfacet
  facet normal 0 0 1
    outer loop
      vertex 2.50859 -4.345 1.25
      vertex 1.82242 -1.71137 1.25
      vertex 1.71137 -1.82242 1.25
    endloop
  endfacet
  facet normal 0 0 1
    outer loop
      vertex 2.50859 -4.345 1.25
      vertex 1.71137 -1.82242 1.25
      vertex 1.59356 -1.92628 1.25
    endloop
  endfacet
  facet normal 0 0 1
    outer loop
      vertex 2.50859 -4.345 1.25
      vertex 1.59356 -1.92628 1.25
      vertex 1.46946 -2.02254 1.25
    endloop
  endfacet
  facet normal 0 0 1
    outer loop
      vertex 2.50859 -4.345 1.25
      vertex 1.46946 -2.02254 1.25
      vertex 1.33957 -2.11082 1.25
    endloop
  endfacet
  facet normal 0 0 1
    outer loop
      vertex 2.50859 -4.345 1.25
      vertex 1.33957 -2.11082 1.25
      vertex 1.20438 -2.19077 1.25
    endloop
  endfacet
  facet normal 0 0 1
    outer loop
      vertex 2.50859 -4.345 1.25
      vertex 1.20438 -2.19077 1.25
      vertex 1.06445 -2.26207 1.25
    endloop
  endfacet
  facet normal 0 0 1
    outer loop
      vertex 2.50859 -4.345 1.25
      vertex 1.06445 -2.26207 1.25
      vertex 0.920311 -2.32444 1.25
    endloop
  endfacet
  facet normal 0 0 1
    outer loop
      vertex 2.50859 -4.345 1.25
      vertex 0.920311 -2.32444 1.25
      vertex 0.772542 -2.37764 1.25
    endloop
  endfacet
  facet normal 0 0 1
    outer loop
      vertex 2.50859 -4.345 1.25
      vertex 0.772542 -2.37764 1.25
      vertex 0.621725 -2.42146 1.25
    endloop
  endfacet
  facet normal 0 0 1
    outer loop
      vertex 2.50859 -4.345 1.25
      vertex 0.621725 -2.42146 1.25
      vertex 0.468453 -2.45572 1.25
    endloop
  endfacet
  facet normal 0 0 1
    outer loop
      vertex -1.33957 -2.11082 1.25
      vertex -1.46946 -2.02254 1.25
      vertex -5.01717 -8.90158e-016 1.25
    endloop
  endfacet
  facet normal 0 0 1
    outer loop
      vertex 2.50859 -4.345 1.25
      vertex 0.468453 -2.45572 1.25
      vertex 0.313333 -2.48029 1.25
    endloop
  endfacet
  facet normal 0 0 1
    outer loop
      vertex -2.02254 -1.46946 1.25
      vertex -2.11082 -1.33957 1.25
      vertex -5.01717 -8.90158e-016 1.25
    endloop
  endfacet
  facet normal 0 0 1
    outer loop
      vertex 2.50859 -4.345 1.25
      vertex 0.156976 -2.49507 1.25
      vertex 0 -2.5 1.25
    endloop
  endfacet
  facet normal 0 0 1
    outer loop
      vertex 2.50859 -4.345 1.25
      vertex 0 -2.5 1.25
      vertex -0.156976 -2.49507 1.25
    endloop
  endfacet
  facet normal 0 0 1
    outer loop
      vertex 2.50859 -4.345 1.25
      vertex -0.156976 -2.49507 1.25
      vertex -0.313333 -2.48029 1.25
    endloop
  endfacet
  facet normal 0 0 1
    outer loop
      vertex -1.82242 -1.71137 1.25
      vertex -1.92628 -1.59356 1.25
      vertex -5.01717 -8.90158e-016 1.25
    endloop
  endfacet
  facet normal 0 0 1
    outer loop
      vertex 2.50859 -4.345 1.25
      vertex -0.313333 -2.48029 1.25
      vertex -0.468453 -2.45572 1.25
    endloop
  endfacet
  facet normal 0 0 1
    outer loop
      vertex -1.92628 -1.59356 1.25
      vertex -2.02254 -1.46946 1.25
      vertex -5.01717 -8.90158e-016 1.25
    endloop
  endfacet
  facet normal 0 0 1
    outer loop
      vertex 2.50859 -4.345 1.25
      vertex -0.468453 -2.45572 1.25
      vertex -0.621725 -2.42146 1.25
    endloop
  endfacet
  facet normal 0 0 1
    outer loop
      vertex 2.50859 -4.345 1.25
      vertex -0.621725 -2.42146 1.25
      vertex -0.772542 -2.37764 1.25
    endloop
  endfacet
  facet normal 0 0 1
    outer loop
      vertex -1.59356 -1.92628 1.25
      vertex -1.71137 -1.82242 1.25
      vertex -5.01717 -8.90158e-016 1.25
    endloop
  endfacet
  facet normal 0 0 1
    outer loop
      vertex 2.50859 -4.345 1.25
      vertex -0.772542 -2.37764 1.25
      vertex -0.920311 -2.32444 1.25
    endloop
  endfacet
  facet normal 0 0 1
    outer loop
      vertex -1.46946 -2.02254 1.25
      vertex -1.59356 -1.92628 1.25
      vertex -5.01717 -8.90158e-016 1.25
    endloop
  endfacet
  facet normal 0 0 1
    outer loop
      vertex 2.50859 -4.345 1.25
      vertex -0.920311 -2.32444 1.25
      vertex -1.06445 -2.26207 1.25
    endloop
  endfacet
  facet normal 0 0 1
    outer loop
      vertex 2.50859 -4.345 1.25
      vertex -1.20438 -2.19077 1.25
      vertex -5.01717 -8.90158e-016 1.25
    endloop
  endfacet
  facet normal 0 0 1
    outer loop
      vertex 2.50859 -4.345 1.25
      vertex -1.06445 -2.26207 1.25
      vertex -1.20438 -2.19077 1.25
    endloop
  endfacet
  facet normal 0 0 1
    outer loop
      vertex -1.20438 -2.19077 1.25
      vertex -1.33957 -2.11082 1.25
      vertex -5.01717 -8.90158e-016 1.25
    endloop
  endfacet
  facet normal 0 0 1
    outer loop
      vertex -2.11082 -1.33957 1.25
      vertex -2.19077 -1.20438 1.25
      vertex -5.01717 -8.90158e-016 1.25
    endloop
  endfacet
  facet normal 0 0 1
    outer loop
      vertex -2.19077 -1.20438 1.25
      vertex -2.26207 -1.06445 1.25
      vertex -5.01717 -8.90158e-016 1.25
    endloop
  endfacet
  facet normal 0 0 1
    outer loop
      vertex -2.26207 -1.06445 1.25
      vertex -2.32444 -0.920311 1.25
      vertex -5.01717 -8.90158e-016 1.25
    endloop
  endfacet
  facet normal 0 0 1
    outer loop
      vertex -2.32444 -0.920311 1.25
      vertex -2.37764 -0.772542 1.25
      vertex -5.01717 -8.90158e-016 1.25
    endloop
  endfacet
  facet normal 0 0 1
    outer loop
      vertex -2.37764 -0.772542 1.25
      vertex -2.42146 -0.621725 1.25
      vertex -5.01717 -8.90158e-016 1.25
    endloop
  endfacet
  facet normal 0 0 1
    outer loop
      vertex -2.42146 -0.621725 1.25
      vertex -2.45572 -0.468453 1.25
      vertex -5.01717 -8.90158e-016 1.25
    endloop
  endfacet
  facet normal 0 0 1
    outer loop
      vertex -2.45572 -0.468453 1.25
      vertex -2.48029 -0.313333 1.25
      vertex -5.01717 -8.90158e-016 1.25
    endloop
  endfacet
  facet normal 0 0 1
    outer loop
      vertex -1.71137 -1.82242 1.25
      vertex -1.82242 -1.71137 1.25
      vertex -5.01717 -8.90158e-016 1.25
    endloop
  endfacet
  facet normal 0 0 1
    outer loop
      vertex 0.313333 -2.48029 1.25
      vertex 0.156976 -2.49507 1.25
      vertex 2.50859 -4.345 1.25
    endloop
  endfacet
  facet normal 0 0 1
    outer loop
      vertex -2.49507 -0.156976 1.25
      vertex -2.5 0 1.25
      vertex -5.01717 -8.90158e-016 1.25
    endloop
  endfacet
  facet normal -0.866025 -0.5 0
    outer loop
      vertex -5.01717 -1.39207e-007 -1.25
      vertex -2.50859 -4.345 -1.25
      vertex -5.01717 -1.39207e-007 1.25
    endloop
  endfacet
  facet normal -0.866025 -0.5 0
    outer loop
      vertex -5.01717 -1.39207e-007 1.25
      vertex -2.50859 -4.345 -1.25
      vertex -2.50859 -4.345 1.25
    endloop
  endfacet
  facet normal 0 -1 0
    outer loop
      vertex -2.50859 -4.345 1.25
      vertex -2.50859 -4.345 -1.25
      vertex 2.50859 -4.345 -1.25
    endloop
  endfacet
  facet normal 0 -1 0
    outer loop
      vertex 2.50859 -4.345 1.25
      vertex -2.50859 -4.345 1.25
      vertex 2.50859 -4.345 -1.25
    endloop
  endfacet
  facet normal 0.866025 -0.5 0
    outer loop
      vertex 2.50859 -4.345 1.25
      vertex 2.50859 -4.345 -1.25
      vertex 5.01717 -1.39207e-007 -1.25
    endloop
  endfacet
  facet normal 0.866025 -0.5 0
    outer loop
      vertex 5.01717 -1.39207e-007 1.25
      vertex 2.50859 -4.345 1.25
      vertex 5.01717 -1.39207e-007 -1.25
    endloop
  endfacet
  facet normal 0.5 -0.866025 0
    outer loop
      vertex 5.01717 -1.39207e-007 1.25
      vertex 5.01717 -1.39207e-007 -1.25
      vertex 5.01717 -6.96034e-008 -1.25
    endloop
  endfacet
  facet normal 0.5 -0.866025 0
    outer loop
      vertex 5.01717 -6.96034e-008 1.25
      vertex 5.01717 -1.39207e-007 1.25
      vertex 5.01717 -6.96034e-008 -1.25
    endloop
  endfacet
  facet normal 0.866025 0.5 0
    outer loop
      vertex 5.01717 -6.96034e-008 -1.25
      vertex 5.01717 8.90158e-016 -1.25
      vertex 5.01717 8.90158e-016 1.25
    endloop
  endfacet
  facet normal 0.866025 0.5 0
    outer loop
      vertex 5.01717 -6.96034e-008 1.25
      vertex 5.01717 -6.96034e-008 -1.25
      vertex 5.01717 8.90158e-016 1.25
    endloop
  endfacet
  facet normal 0.866025 -0.5 0
    outer loop
      vertex 5.01717 8.90158e-016 1.25
      vertex 5.01717 8.90158e-016 -1.25
      vertex 5.01717 6.96034e-008 -1.25
    endloop
  endfacet
  facet normal 0.866025 -0.5 0
    outer loop
      vertex 5.01717 6.96034e-008 1.25
      vertex 5.01717 8.90158e-016 1.25
      vertex 5.01717 6.96034e-008 -1.25
    endloop
  endfacet
  facet normal 0.5 0.866025 0
    outer loop
      vertex 5.01717 1.39207e-007 -1.25
      vertex 5.01717 1.39207e-007 1.25
      vertex 5.01717 6.96034e-008 -1.25
    endloop
  endfacet
  facet normal 0.5 0.866025 0
    outer loop
      vertex 5.01717 6.96034e-008 -1.25
      vertex 5.01717 1.39207e-007 1.25
      vertex 5.01717 6.96034e-008 1.25
    endloop
  endfacet
  facet normal 0.866025 0.5 0
    outer loop
      vertex 5.01717 1.39207e-007 -1.25
      vertex 2.50859 4.345 -1.25
      vertex 2.50859 4.345 1.25
    endloop
  endfacet
  facet normal 0.866025 0.5 0
    outer loop
      vertex 5.01717 1.39207e-007 1.25
      vertex 5.01717 1.39207e-007 -1.25
      vertex 2.50859 4.345 1.25
    endloop
  endfacet
  facet normal 0 1 0
    outer loop
      vertex -2.50859 4.345 -1.25
      vertex -2.50859 4.345 1.25
      vertex 2.50859 4.345 -1.25
    endloop
  endfacet
  facet normal 0 1 0
    outer loop
      vertex 2.50859 4.345 -1.25
      vertex -2.50859 4.345 1.25
      vertex 2.50859 4.345 1.25
    endloop
  endfacet
  facet normal -0.866025 0.5 0
    outer loop
      vertex -5.01717 1.39207e-007 -1.25
      vertex -5.01717 1.39207e-007 1.25
      vertex -2.50859 4.345 -1.25
    endloop
  endfacet
  facet normal -0.866025 0.5 0
    outer loop
      vertex -2.50859 4.345 -1.25
      vertex -5.01717 1.39207e-007 1.25
      vertex -2.50859 4.345 1.25
    endloop
  endfacet
  facet normal -0.5 0.866025 0
    outer loop
      vertex -5.01717 6.96034e-008 -1.25
      vertex -5.01717 6.96034e-008 1.25
      vertex -5.01717 1.39207e-007 -1.25
    endloop
  endfacet
  facet normal -0.5 0.866025 0
    outer loop
      vertex -5.01717 1.39207e-007 -1.25
      vertex -5.01717 6.96034e-008 1.25
      vertex -5.01717 1.39207e-007 1.25
    endloop
  endfacet
  facet normal -0.866025 -0.5 0
    outer loop
      vertex -5.01717 6.96034e-008 -1.25
      vertex -5.01717 -8.90158e-016 -1.25
      vertex -5.01717 6.96034e-008 1.25
    endloop
  endfacet
  facet normal -0.866025 -0.5 0
    outer loop
      vertex -5.01717 6.96034e-008 1.25
      vertex -5.01717 -8.90158e-016 -1.25
      vertex -5.01717 -8.90158e-016 1.25
    endloop
  endfacet
  facet normal 0.999507 -0.0314097 0
    outer loop
      vertex -2.49507 0.156976 -1.25
      vertex -2.49507 0.156976 1.25
      vertex -2.5 0 1.25
    endloop
  endfacet
  facet normal 0.999507 -0.0314097 0
    outer loop
      vertex -2.5 0 -1.25
      vertex -2.49507 0.156976 -1.25
      vertex -2.5 0 1.25
    endloop
  endfacet
  facet normal 0.999507 0.0314097 0
    outer loop
      vertex -2.5 0 1.25
      vertex -2.49507 -0.156976 1.25
      vertex -2.49507 -0.156976 -1.25
    endloop
  endfacet
  facet normal 0.999507 0.0314097 0
    outer loop
      vertex -2.5 0 -1.25
      vertex -2.5 0 1.25
      vertex -2.49507 -0.156976 -1.25
    endloop
  endfacet
  facet normal 0.995562 -0.0941078 0
    outer loop
      vertex -2.48029 0.313333 -1.25
      vertex -2.48029 0.313333 1.25
      vertex -2.49507 0.156976 1.25
    endloop
  endfacet
  facet normal 0.995562 -0.0941078 0
    outer loop
      vertex -2.49507 0.156976 -1.25
      vertex -2.48029 0.313333 -1.25
      vertex -2.49507 0.156976 1.25
    endloop
  endfacet
  facet normal 0.987688 -0.156437 0
    outer loop
      vertex -2.45572 0.468453 -1.25
      vertex -2.45572 0.468453 1.25
      vertex -2.48029 0.313333 1.25
    endloop
  endfacet
  facet normal 0.987688 -0.156437 0
    outer loop
      vertex -2.48029 0.313333 -1.25
      vertex -2.45572 0.468453 -1.25
      vertex -2.48029 0.313333 1.25
    endloop
  endfacet
  facet normal 0.975917 -0.218141 0
    outer loop
      vertex -2.42146 0.621725 -1.25
      vertex -2.42146 0.621725 1.25
      vertex -2.45572 0.468453 1.25
    endloop
  endfacet
  facet normal 0.975917 -0.218141 0
    outer loop
      vertex -2.45572 0.468453 -1.25
      vertex -2.42146 0.621725 -1.25
      vertex -2.45572 0.468453 1.25
    endloop
  endfacet
  facet normal 0.960293 -0.278995 0
    outer loop
      vertex -2.37764 0.772542 -1.25
      vertex -2.37764 0.772542 1.25
      vertex -2.42146 0.621725 1.25
    endloop
  endfacet
  facet normal 0.960293 -0.278995 0
    outer loop
      vertex -2.42146 0.621725 -1.25
      vertex -2.37764 0.772542 -1.25
      vertex -2.42146 0.621725 1.25
    endloop
  endfacet
  facet normal 0.940881 -0.338737 0
    outer loop
      vertex -2.32444 0.920311 -1.25
      vertex -2.32444 0.920311 1.25
      vertex -2.37764 0.772542 1.25
    endloop
  endfacet
  facet normal 0.940881 -0.338737 0
    outer loop
      vertex -2.37764 0.772542 -1.25
      vertex -2.32444 0.920311 -1.25
      vertex -2.37764 0.772542 1.25
    endloop
  endfacet
  facet normal 0.917756 -0.397144 0
    outer loop
      vertex -2.26207 1.06445 -1.25
      vertex -2.26207 1.06445 1.25
      vertex -2.32444 0.920311 1.25
    endloop
  endfacet
  facet normal 0.917756 -0.397144 0
    outer loop
      vertex -2.32444 0.920311 -1.25
      vertex -2.26207 1.06445 -1.25
      vertex -2.32444 0.920311 1.25
    endloop
  endfacet
  facet normal 0.891006 -0.453991 0
    outer loop
      vertex -2.19077 1.20438 -1.25
      vertex -2.19077 1.20438 1.25
      vertex -2.26207 1.06445 1.25
    endloop
  endfacet
  facet normal 0.891006 -0.453991 0
    outer loop
      vertex -2.26207 1.06445 -1.25
      vertex -2.19077 1.20438 -1.25
      vertex -2.26207 1.06445 1.25
    endloop
  endfacet
  facet normal 0.860742 -0.509041 0
    outer loop
      vertex -2.11082 1.33957 -1.25
      vertex -2.11082 1.33957 1.25
      vertex -2.19077 1.20438 1.25
    endloop
  endfacet
  facet normal 0.860742 -0.509041 0
    outer loop
      vertex -2.19077 1.20438 -1.25
      vertex -2.11082 1.33957 -1.25
      vertex -2.19077 1.20438 1.25
    endloop
  endfacet
  facet normal 0.827078 -0.562087 0
    outer loop
      vertex -2.02254 1.46946 -1.25
      vertex -2.02254 1.46946 1.25
      vertex -2.11082 1.33957 1.25
    endloop
  endfacet
  facet normal 0.827078 -0.562087 0
    outer loop
      vertex -2.11082 1.33957 -1.25
      vertex -2.02254 1.46946 -1.25
      vertex -2.11082 1.33957 1.25
    endloop
  endfacet
  facet normal 0.790157 -0.612905 0
    outer loop
      vertex -1.92628 1.59356 -1.25
      vertex -1.92628 1.59356 1.25
      vertex -2.02254 1.46946 1.25
    endloop
  endfacet
  facet normal 0.790157 -0.612905 0
    outer loop
      vertex -2.02254 1.46946 -1.25
      vertex -1.92628 1.59356 -1.25
      vertex -2.02254 1.46946 1.25
    endloop
  endfacet
  facet normal 0.750113 -0.661309 0
    outer loop
      vertex -1.82242 1.71137 -1.25
      vertex -1.82242 1.71137 1.25
      vertex -1.92628 1.59356 1.25
    endloop
  endfacet
  facet normal 0.750113 -0.661309 0
    outer loop
      vertex -1.92628 1.59356 -1.25
      vertex -1.82242 1.71137 -1.25
      vertex -1.92628 1.59356 1.25
    endloop
  endfacet
  facet normal 0.707107 -0.707107 0
    outer loop
      vertex -1.71137 1.82242 -1.25
      vertex -1.71137 1.82242 1.25
      vertex -1.82242 1.71137 1.25
    endloop
  endfacet
  facet normal 0.707107 -0.707107 0
    outer loop
      vertex -1.82242 1.71137 -1.25
      vertex -1.71137 1.82242 -1.25
      vertex -1.82242 1.71137 1.25
    endloop
  endfacet
  facet normal 0.661309 -0.750113 0
    outer loop
      vertex -1.59356 1.92628 -1.25
      vertex -1.59356 1.92628 1.25
      vertex -1.71137 1.82242 1.25
    endloop
  endfacet
  facet normal 0.661309 -0.750113 0
    outer loop
      vertex -1.71137 1.82242 -1.25
      vertex -1.59356 1.92628 -1.25
      vertex -1.71137 1.82242 1.25
    endloop
  endfacet
  facet normal 0.612905 -0.790157 0
    outer loop
      vertex -1.46946 2.02254 -1.25
      vertex -1.46946 2.02254 1.25
      vertex -1.59356 1.92628 1.25
    endloop
  endfacet
  facet normal 0.612905 -0.790157 0
    outer loop
      vertex -1.59356 1.92628 -1.25
      vertex -1.46946 2.02254 -1.25
      vertex -1.59356 1.92628 1.25
    endloop
  endfacet
  facet normal 0.562087 -0.827078 0
    outer loop
      vertex -1.33957 2.11082 -1.25
      vertex -1.33957 2.11082 1.25
      vertex -1.46946 2.02254 1.25
    endloop
  endfacet
  facet normal 0.562087 -0.827078 0
    outer loop
      vertex -1.46946 2.02254 -1.25
      vertex -1.33957 2.11082 -1.25
      vertex -1.46946 2.02254 1.25
    endloop
  endfacet
  facet normal 0.509041 -0.860742 0
    outer loop
      vertex -1.20438 2.19077 -1.25
      vertex -1.20438 2.19077 1.25
      vertex -1.33957 2.11082 1.25
    endloop
  endfacet
  facet normal 0.509041 -0.860742 0
    outer loop
      vertex -1.33957 2.11082 -1.25
      vertex -1.20438 2.19077 -1.25
      vertex -1.33957 2.11082 1.25
    endloop
  endfacet
  facet normal 0.453991 -0.891006 0
    outer loop
      vertex -1.06445 2.26207 -1.25
      vertex -1.06445 2.26207 1.25
      vertex -1.20438 2.19077 1.25
    endloop
  endfacet
  facet normal 0.453991 -0.891006 0
    outer loop
      vertex -1.20438 2.19077 -1.25
      vertex -1.06445 2.26207 -1.25
      vertex -1.20438 2.19077 1.25
    endloop
  endfacet
  facet normal 0.397144 -0.917756 0
    outer loop
      vertex -0.920311 2.32444 -1.25
      vertex -0.920311 2.32444 1.25
      vertex -1.06445 2.26207 1.25
    endloop
  endfacet
  facet normal 0.397144 -0.917756 0
    outer loop
      vertex -1.06445 2.26207 -1.25
      vertex -0.920311 2.32444 -1.25
      vertex -1.06445 2.26207 1.25
    endloop
  endfacet
  facet normal 0.338737 -0.940881 0
    outer loop
      vertex -0.772542 2.37764 -1.25
      vertex -0.772542 2.37764 1.25
      vertex -0.920311 2.32444 1.25
    endloop
  endfacet
  facet normal 0.338737 -0.940881 0
    outer loop
      vertex -0.920311 2.32444 -1.25
      vertex -0.772542 2.37764 -1.25
      vertex -0.920311 2.32444 1.25
    endloop
  endfacet
  facet normal 0.278995 -0.960293 0
    outer loop
      vertex -0.621725 2.42146 -1.25
      vertex -0.621725 2.42146 1.25
      vertex -0.772542 2.37764 1.25
    endloop
  endfacet
  facet normal 0.278995 -0.960293 0
    outer loop
      vertex -0.772542 2.37764 -1.25
      vertex -0.621725 2.42146 -1.25
      vertex -0.772542 2.37764 1.25
    endloop
  endfacet
  facet normal 0.218141 -0.975917 0
    outer loop
      vertex -0.468453 2.45572 -1.25
      vertex -0.468453 2.45572 1.25
      vertex -0.621725 2.42146 1.25
    endloop
  endfacet
  facet normal 0.218141 -0.975917 0
    outer loop
      vertex -0.621725 2.42146 -1.25
      vertex -0.468453 2.45572 -1.25
      vertex -0.621725 2.42146 1.25
    endloop
  endfacet
  facet normal 0.156437 -0.987688 0
    outer loop
      vertex -0.313333 2.48029 -1.25
      vertex -0.313333 2.48029 1.25
      vertex -0.468453 2.45572 1.25
    endloop
  endfacet
  facet normal 0.156437 -0.987688 0
    outer loop
      vertex -0.468453 2.45572 -1.25
      vertex -0.313333 2.48029 -1.25
      vertex -0.468453 2.45572 1.25
    endloop
  endfacet
  facet normal 0.0941078 -0.995562 0
    outer loop
      vertex -0.156976 2.49507 -1.25
      vertex -0.156976 2.49507 1.25
      vertex -0.313333 2.48029 1.25
    endloop
  endfacet
  facet normal 0.0941078 -0.995562 0
    outer loop
      vertex -0.313333 2.48029 -1.25
      vertex -0.156976 2.49507 -1.25
      vertex -0.313333 2.48029 1.25
    endloop
  endfacet
  facet normal 0.0314097 -0.999507 0
    outer loop
      vertex 0 2.5 -1.25
      vertex 0 2.5 1.25
      vertex -0.156976 2.49507 1.25
    endloop
  endfacet
  facet normal 0.0314097 -0.999507 0
    outer loop
      vertex -0.156976 2.49507 -1.25
      vertex 0 2.5 -1.25
      vertex -0.156976 2.49507 1.25
    endloop
  endfacet
  facet normal -0.0314097 -0.999507 0
    outer loop
      vertex 0.156976 2.49507 -1.25
      vertex 0.156976 2.49507 1.25
      vertex 0 2.5 1.25
    endloop
  endfacet
  facet normal -0.0314097 -0.999507 0
    outer loop
      vertex 0 2.5 -1.25
      vertex 0.156976 2.49507 -1.25
      vertex 0 2.5 1.25
    endloop
  endfacet
  facet normal -0.0941078 -0.995562 0
    outer loop
      vertex 0.313333 2.48029 -1.25
      vertex 0.313333 2.48029 1.25
      vertex 0.156976 2.49507 1.25
    endloop
  endfacet
  facet normal -0.0941078 -0.995562 0
    outer loop
      vertex 0.156976 2.49507 -1.25
      vertex 0.313333 2.48029 -1.25
      vertex 0.156976 2.49507 1.25
    endloop
  endfacet
  facet normal -0.156437 -0.987688 0
    outer loop
      vertex 0.468453 2.45572 -1.25
      vertex 0.468453 2.45572 1.25
      vertex 0.313333 2.48029 1.25
    endloop
  endfacet
  facet normal -0.156437 -0.987688 0
    outer loop
      vertex 0.313333 2.48029 -1.25
      vertex 0.468453 2.45572 -1.25
      vertex 0.313333 2.48029 1.25
    endloop
  endfacet
  facet normal -0.218141 -0.975917 0
    outer loop
      vertex 0.621725 2.42146 -1.25
      vertex 0.621725 2.42146 1.25
      vertex 0.468453 2.45572 1.25
    endloop
  endfacet
  facet normal -0.218141 -0.975917 0
    outer loop
      vertex 0.468453 2.45572 -1.25
      vertex 0.621725 2.42146 -1.25
      vertex 0.468453 2.45572 1.25
    endloop
  endfacet
  facet normal -0.278995 -0.960293 0
    outer loop
      vertex 0.772542 2.37764 -1.25
      vertex 0.772542 2.37764 1.25
      vertex 0.621725 2.42146 1.25
    endloop
  endfacet
  facet normal -0.278995 -0.960293 0
    outer loop
      vertex 0.621725 2.42146 -1.25
      vertex 0.772542 2.37764 -1.25
      vertex 0.621725 2.42146 1.25
    endloop
  endfacet
  facet normal -0.338737 -0.940881 0
    outer loop
      vertex 0.920311 2.32444 -1.25
      vertex 0.920311 2.32444 1.25
      vertex 0.772542 2.37764 1.25
    endloop
  endfacet
  facet normal -0.338737 -0.940881 0
    outer loop
      vertex 0.772542 2.37764 -1.25
      vertex 0.920311 2.32444 -1.25
      vertex 0.772542 2.37764 1.25
    endloop
  endfacet
  facet normal -0.397144 -0.917756 0
    outer loop
      vertex 1.06445 2.26207 -1.25
      vertex 1.06445 2.26207 1.25
      vertex 0.920311 2.32444 1.25
    endloop
  endfacet
  facet normal -0.397144 -0.917756 0
    outer loop
      vertex 0.920311 2.32444 -1.25
      vertex 1.06445 2.26207 -1.25
      vertex 0.920311 2.32444 1.25
    endloop
  endfacet
  facet normal -0.453991 -0.891006 0
    outer loop
      vertex 1.20438 2.19077 -1.25
      vertex 1.20438 2.19077 1.25
      vertex 1.06445 2.26207 1.25
    endloop
  endfacet
  facet normal -0.453991 -0.891006 0
    outer loop
      vertex 1.06445 2.26207 -1.25
      vertex 1.20438 2.19077 -1.25
      vertex 1.06445 2.26207 1.25
    endloop
  endfacet
  facet normal -0.509041 -0.860742 0
    outer loop
      vertex 1.33957 2.11082 -1.25
      vertex 1.33957 2.11082 1.25
      vertex 1.20438 2.19077 1.25
    endloop
  endfacet
  facet normal -0.509041 -0.860742 0
    outer loop
      vertex 1.20438 2.19077 -1.25
      vertex 1.33957 2.11082 -1.25
      vertex 1.20438 2.19077 1.25
    endloop
  endfacet
  facet normal -0.562087 -0.827078 0
    outer loop
      vertex 1.46946 2.02254 -1.25
      vertex 1.46946 2.02254 1.25
      vertex 1.33957 2.11082 1.25
    endloop
  endfacet
  facet normal -0.562087 -0.827078 0
    outer loop
      vertex 1.33957 2.11082 -1.25
      vertex 1.46946 2.02254 -1.25
      vertex 1.33957 2.11082 1.25
    endloop
  endfacet
  facet normal -0.612905 -0.790157 0
    outer loop
      vertex 1.59356 1.92628 -1.25
      vertex 1.59356 1.92628 1.25
      vertex 1.46946 2.02254 1.25
    endloop
  endfacet
  facet normal -0.612905 -0.790157 0
    outer loop
      vertex 1.46946 2.02254 -1.25
      vertex 1.59356 1.92628 -1.25
      vertex 1.46946 2.02254 1.25
    endloop
  endfacet
  facet normal -0.661309 -0.750113 0
    outer loop
      vertex 1.71137 1.82242 -1.25
      vertex 1.71137 1.82242 1.25
      vertex 1.59356 1.92628 1.25
    endloop
  endfacet
  facet normal -0.661309 -0.750113 0
    outer loop
      vertex 1.59356 1.92628 -1.25
      vertex 1.71137 1.82242 -1.25
      vertex 1.59356 1.92628 1.25
    endloop
  endfacet
  facet normal -0.707107 -0.707107 0
    outer loop
      vertex 1.82242 1.71137 -1.25
      vertex 1.82242 1.71137 1.25
      vertex 1.71137 1.82242 1.25
    endloop
  endfacet
  facet normal -0.707107 -0.707107 0
    outer loop
      vertex 1.71137 1.82242 -1.25
      vertex 1.82242 1.71137 -1.25
      vertex 1.71137 1.82242 1.25
    endloop
  endfacet
  facet normal -0.750113 -0.661309 0
    outer loop
      vertex 1.92628 1.59356 1.25
      vertex 1.82242 1.71137 1.25
      vertex 1.92628 1.59356 -1.25
    endloop
  endfacet
  facet normal -0.750113 -0.661309 0
    outer loop
      vertex 1.92628 1.59356 -1.25
      vertex 1.82242 1.71137 1.25
      vertex 1.82242 1.71137 -1.25
    endloop
  endfacet
  facet normal -0.790157 -0.612905 0
    outer loop
      vertex 2.02254 1.46946 1.25
      vertex 1.92628 1.59356 1.25
      vertex 2.02254 1.46946 -1.25
    endloop
  endfacet
  facet normal -0.790157 -0.612905 0
    outer loop
      vertex 2.02254 1.46946 -1.25
      vertex 1.92628 1.59356 1.25
      vertex 1.92628 1.59356 -1.25
    endloop
  endfacet
  facet normal -0.827078 -0.562087 0
    outer loop
      vertex 2.11082 1.33957 1.25
      vertex 2.02254 1.46946 1.25
      vertex 2.11082 1.33957 -1.25
    endloop
  endfacet
  facet normal -0.827078 -0.562087 0
    outer loop
      vertex 2.11082 1.33957 -1.25
      vertex 2.02254 1.46946 1.25
      vertex 2.02254 1.46946 -1.25
    endloop
  endfacet
  facet normal -0.860742 -0.509041 0
    outer loop
      vertex 2.19077 1.20438 1.25
      vertex 2.11082 1.33957 1.25
      vertex 2.19077 1.20438 -1.25
    endloop
  endfacet
  facet normal -0.860742 -0.509041 0
    outer loop
      vertex 2.19077 1.20438 -1.25
      vertex 2.11082 1.33957 1.25
      vertex 2.11082 1.33957 -1.25
    endloop
  endfacet
  facet normal -0.891006 -0.453991 0
    outer loop
      vertex 2.26207 1.06445 1.25
      vertex 2.19077 1.20438 1.25
      vertex 2.26207 1.06445 -1.25
    endloop
  endfacet
  facet normal -0.891006 -0.453991 0
    outer loop
      vertex 2.26207 1.06445 -1.25
      vertex 2.19077 1.20438 1.25
      vertex 2.19077 1.20438 -1.25
    endloop
  endfacet
  facet normal -0.917756 -0.397144 0
    outer loop
      vertex 2.32444 0.920311 1.25
      vertex 2.26207 1.06445 1.25
      vertex 2.32444 0.920311 -1.25
    endloop
  endfacet
  facet normal -0.917756 -0.397144 0
    outer loop
      vertex 2.32444 0.920311 -1.25
      vertex 2.26207 1.06445 1.25
      vertex 2.26207 1.06445 -1.25
    endloop
  endfacet
  facet normal -0.940881 -0.338737 0
    outer loop
      vertex 2.37764 0.772542 1.25
      vertex 2.32444 0.920311 1.25
      vertex 2.37764 0.772542 -1.25
    endloop
  endfacet
  facet normal -0.940881 -0.338737 0
    outer loop
      vertex 2.37764 0.772542 -1.25
      vertex 2.32444 0.920311 1.25
      vertex 2.32444 0.920311 -1.25
    endloop
  endfacet
  facet normal -0.960293 -0.278995 0
    outer loop
      vertex 2.42146 0.621725 1.25
      vertex 2.37764 0.772542 1.25
      vertex 2.42146 0.621725 -1.25
    endloop
  endfacet
  facet normal -0.960293 -0.278995 0
    outer loop
      vertex 2.42146 0.621725 -1.25
      vertex 2.37764 0.772542 1.25
      vertex 2.37764 0.772542 -1.25
    endloop
  endfacet
  facet normal -0.975917 -0.218141 0
    outer loop
      vertex 2.45572 0.468453 1.25
      vertex 2.42146 0.621725 1.25
      vertex 2.45572 0.468453 -1.25
    endloop
  endfacet
  facet normal -0.975917 -0.218141 0
    outer loop
      vertex 2.45572 0.468453 -1.25
      vertex 2.42146 0.621725 1.25
      vertex 2.42146 0.621725 -1.25
    endloop
  endfacet
  facet normal -0.987688 -0.156437 0
    outer loop
      vertex 2.48029 0.313333 1.25
      vertex 2.45572 0.468453 1.25
      vertex 2.48029 0.313333 -1.25
    endloop
  endfacet
  facet normal -0.987688 -0.156437 0
    outer loop
      vertex 2.48029 0.313333 -1.25
      vertex 2.45572 0.468453 1.25
      vertex 2.45572 0.468453 -1.25
    endloop
  endfacet
  facet normal -0.995562 -0.0941078 0
    outer loop
      vertex 2.49507 0.156976 1.25
      vertex 2.48029 0.313333 1.25
      vertex 2.49507 0.156976 -1.25
    endloop
  endfacet
  facet normal -0.995562 -0.0941078 0
    outer loop
      vertex 2.49507 0.156976 -1.25
      vertex 2.48029 0.313333 1.25
      vertex 2.48029 0.313333 -1.25
    endloop
  endfacet
  facet normal -0.999507 -0.0314097 0
    outer loop
      vertex 2.5 0 1.25
      vertex 2.49507 0.156976 1.25
      vertex 2.5 0 -1.25
    endloop
  endfacet
  facet normal -0.999507 -0.0314097 0
    outer loop
      vertex 2.5 0 -1.25
      vertex 2.49507 0.156976 1.25
      vertex 2.49507 0.156976 -1.25
    endloop
  endfacet
  facet normal -0.999507 0.0314097 0
    outer loop
      vertex 2.5 0 1.25
      vertex 2.5 0 -1.25
      vertex 2.49507 -0.156976 1.25
    endloop
  endfacet
  facet normal -0.999507 0.0314097 0
    outer loop
      vertex 2.49507 -0.156976 1.25
      vertex 2.5 0 -1.25
      vertex 2.49507 -0.156976 -1.25
    endloop
  endfacet
  facet normal -0.995562 0.0941078 0
    outer loop
      vertex 2.49507 -0.156976 1.25
      vertex 2.49507 -0.156976 -1.25
      vertex 2.48029 -0.313333 1.25
    endloop
  endfacet
  facet normal -0.995562 0.0941078 0
    outer loop
      vertex 2.48029 -0.313333 1.25
      vertex 2.49507 -0.156976 -1.25
      vertex 2.48029 -0.313333 -1.25
    endloop
  endfacet
  facet normal -0.987688 0.156437 0
    outer loop
      vertex 2.48029 -0.313333 1.25
      vertex 2.48029 -0.313333 -1.25
      vertex 2.45572 -0.468453 1.25
    endloop
  endfacet
  facet normal -0.987688 0.156437 0
    outer loop
      vertex 2.45572 -0.468453 1.25
      vertex 2.48029 -0.313333 -1.25
      vertex 2.45572 -0.468453 -1.25
    endloop
  endfacet
  facet normal -0.975917 0.218141 0
    outer loop
      vertex 2.45572 -0.468453 1.25
      vertex 2.45572 -0.468453 -1.25
      vertex 2.42146 -0.621725 1.25
    endloop
  endfacet
  facet normal -0.975917 0.218141 0
    outer loop
      vertex 2.42146 -0.621725 1.25
      vertex 2.45572 -0.468453 -1.25
      vertex 2.42146 -0.621725 -1.25
    endloop
  endfacet
  facet normal -0.960293 0.278995 0
    outer loop
      vertex 2.42146 -0.621725 1.25
      vertex 2.42146 -0.621725 -1.25
      vertex 2.37764 -0.772542 1.25
    endloop
  endfacet
  facet normal -0.960293 0.278995 0
    outer loop
      vertex 2.37764 -0.772542 1.25
      vertex 2.42146 -0.621725 -1.25
      vertex 2.37764 -0.772542 -1.25
    endloop
  endfacet
  facet normal -0.940881 0.338737 0
    outer loop
      vertex 2.37764 -0.772542 1.25
      vertex 2.37764 -0.772542 -1.25
      vertex 2.32444 -0.920311 1.25
    endloop
  endfacet
  facet normal -0.940881 0.338737 0
    outer loop
      vertex 2.32444 -0.920311 1.25
      vertex 2.37764 -0.772542 -1.25
      vertex 2.32444 -0.920311 -1.25
    endloop
  endfacet
  facet normal -0.917756 0.397144 0
    outer loop
      vertex 2.32444 -0.920311 1.25
      vertex 2.32444 -0.920311 -1.25
      vertex 2.26207 -1.06445 1.25
    endloop
  endfacet
  facet normal -0.917756 0.397144 0
    outer loop
      vertex 2.26207 -1.06445 1.25
      vertex 2.32444 -0.920311 -1.25
      vertex 2.26207 -1.06445 -1.25
    endloop
  endfacet
  facet normal -0.891006 0.453991 0
    outer loop
      vertex 2.26207 -1.06445 1.25
      vertex 2.26207 -1.06445 -1.25
      vertex 2.19077 -1.20438 1.25
    endloop
  endfacet
  facet normal -0.891006 0.453991 0
    outer loop
      vertex 2.19077 -1.20438 1.25
      vertex 2.26207 -1.06445 -1.25
      vertex 2.19077 -1.20438 -1.25
    endloop
  endfacet
  facet normal -0.860742 0.509041 0
    outer loop
      vertex 2.19077 -1.20438 1.25
      vertex 2.19077 -1.20438 -1.25
      vertex 2.11082 -1.33957 1.25
    endloop
  endfacet
  facet normal -0.860742 0.509041 0
    outer loop
      vertex 2.11082 -1.33957 1.25
      vertex 2.19077 -1.20438 -1.25
      vertex 2.11082 -1.33957 -1.25
    endloop
  endfacet
  facet normal -0.827078 0.562087 0
    outer loop
      vertex 2.11082 -1.33957 1.25
      vertex 2.11082 -1.33957 -1.25
      vertex 2.02254 -1.46946 1.25
    endloop
  endfacet
  facet normal -0.827078 0.562087 0
    outer loop
      vertex 2.02254 -1.46946 1.25
      vertex 2.11082 -1.33957 -1.25
      vertex 2.02254 -1.46946 -1.25
    endloop
  endfacet
  facet normal -0.790157 0.612905 0
    outer loop
      vertex 2.02254 -1.46946 1.25
      vertex 2.02254 -1.46946 -1.25
      vertex 1.92628 -1.59356 1.25
    endloop
  endfacet
  facet normal -0.790157 0.612905 0
    outer loop
      vertex 1.92628 -1.59356 1.25
      vertex 2.02254 -1.46946 -1.25
      vertex 1.92628 -1.59356 -1.25
    endloop
  endfacet
  facet normal -0.750113 0.661309 0
    outer loop
      vertex 1.92628 -1.59356 1.25
      vertex 1.92628 -1.59356 -1.25
      vertex 1.82242 -1.71137 1.25
    endloop
  endfacet
  facet normal -0.750113 0.661309 0
    outer loop
      vertex 1.82242 -1.71137 1.25
      vertex 1.92628 -1.59356 -1.25
      vertex 1.82242 -1.71137 -1.25
    endloop
  endfacet
  facet normal -0.707107 0.707107 0
    outer loop
      vertex 1.82242 -1.71137 1.25
      vertex 1.82242 -1.71137 -1.25
      vertex 1.71137 -1.82242 1.25
    endloop
  endfacet
  facet normal -0.707107 0.707107 0
    outer loop
      vertex 1.71137 -1.82242 1.25
      vertex 1.82242 -1.71137 -1.25
      vertex 1.71137 -1.82242 -1.25
    endloop
  endfacet
  facet normal -0.661309 0.750113 0
    outer loop
      vertex 1.71137 -1.82242 1.25
      vertex 1.71137 -1.82242 -1.25
      vertex 1.59356 -1.92628 1.25
    endloop
  endfacet
  facet normal -0.661309 0.750113 0
    outer loop
      vertex 1.59356 -1.92628 1.25
      vertex 1.71137 -1.82242 -1.25
      vertex 1.59356 -1.92628 -1.25
    endloop
  endfacet
  facet normal -0.612905 0.790157 0
    outer loop
      vertex 1.59356 -1.92628 1.25
      vertex 1.59356 -1.92628 -1.25
      vertex 1.46946 -2.02254 1.25
    endloop
  endfacet
  facet normal -0.612905 0.790157 0
    outer loop
      vertex 1.46946 -2.02254 1.25
      vertex 1.59356 -1.92628 -1.25
      vertex 1.46946 -2.02254 -1.25
    endloop
  endfacet
  facet normal -0.562087 0.827078 0
    outer loop
      vertex 1.46946 -2.02254 1.25
      vertex 1.46946 -2.02254 -1.25
      vertex 1.33957 -2.11082 1.25
    endloop
  endfacet
  facet normal -0.562087 0.827078 0
    outer loop
      vertex 1.33957 -2.11082 1.25
      vertex 1.46946 -2.02254 -1.25
      vertex 1.33957 -2.11082 -1.25
    endloop
  endfacet
  facet normal -0.509041 0.860742 0
    outer loop
      vertex 1.33957 -2.11082 1.25
      vertex 1.33957 -2.11082 -1.25
      vertex 1.20438 -2.19077 1.25
    endloop
  endfacet
  facet normal -0.509041 0.860742 0
    outer loop
      vertex 1.20438 -2.19077 1.25
      vertex 1.33957 -2.11082 -1.25
      vertex 1.20438 -2.19077 -1.25
    endloop
  endfacet
  facet normal -0.453991 0.891006 0
    outer loop
      vertex 1.20438 -2.19077 1.25
      vertex 1.20438 -2.19077 -1.25
      vertex 1.06445 -2.26207 1.25
    endloop
  endfacet
  facet normal -0.453991 0.891006 0
    outer loop
      vertex 1.06445 -2.26207 1.25
      vertex 1.20438 -2.19077 -1.25
      vertex 1.06445 -2.26207 -1.25
    endloop
  endfacet
  facet normal -0.397144 0.917756 0
    outer loop
      vertex 1.06445 -2.26207 1.25
      vertex 1.06445 -2.26207 -1.25
      vertex 0.920311 -2.32444 1.25
    endloop
  endfacet
  facet normal -0.397144 0.917756 0
    outer loop
      vertex 0.920311 -2.32444 1.25
      vertex 1.06445 -2.26207 -1.25
      vertex 0.920311 -2.32444 -1.25
    endloop
  endfacet
  facet normal -0.338737 0.940881 0
    outer loop
      vertex 0.920311 -2.32444 1.25
      vertex 0.920311 -2.32444 -1.25
      vertex 0.772542 -2.37764 1.25
    endloop
  endfacet
  facet normal -0.338737 0.940881 0
    outer loop
      vertex 0.772542 -2.37764 1.25
      vertex 0.920311 -2.32444 -1.25
      vertex 0.772542 -2.37764 -1.25
    endloop
  endfacet
  facet normal -0.278995 0.960293 0
    outer loop
      vertex 0.772542 -2.37764 1.25
      vertex 0.772542 -2.37764 -1.25
      vertex 0.621725 -2.42146 1.25
    endloop
  endfacet
  facet normal -0.278995 0.960293 0
    outer loop
      vertex 0.621725 -2.42146 1.25
      vertex 0.772542 -2.37764 -1.25
      vertex 0.621725 -2.42146 -1.25
    endloop
  endfacet
  facet normal -0.218141 0.975917 0
    outer loop
      vertex 0.621725 -2.42146 1.25
      vertex 0.621725 -2.42146 -1.25
      vertex 0.468453 -2.45572 1.25
    endloop
  endfacet
  facet normal -0.218141 0.975917 0
    outer loop
      vertex 0.468453 -2.45572 1.25
      vertex 0.621725 -2.42146 -1.25
      vertex 0.468453 -2.45572 -1.25
    endloop
  endfacet
  facet normal -0.156437 0.987688 0
    outer loop
      vertex 0.468453 -2.45572 1.25
      vertex 0.468453 -2.45572 -1.25
      vertex 0.313333 -2.48029 1.25
    endloop
  endfacet
  facet normal -0.156437 0.987688 0
    outer loop
      vertex 0.313333 -2.48029 1.25
      vertex 0.468453 -2.45572 -1.25
      vertex 0.313333 -2.48029 -1.25
    endloop
  endfacet
  facet normal -0.0941078 0.995562 0
    outer loop
      vertex 0.313333 -2.48029 1.25
      vertex 0.313333 -2.48029 -1.25
      vertex 0.156976 -2.49507 1.25
    endloop
  endfacet
  facet normal -0.0941078 0.995562 0
    outer loop
      vertex 0.156976 -2.49507 1.25
      vertex 0.313333 -2.48029 -1.25
      vertex 0.156976 -2.49507 -1.25
    endloop
  endfacet
  facet normal -0.0314097 0.999507 0
    outer loop
      vertex 0.156976 -2.49507 1.25
      vertex 0.156976 -2.49507 -1.25
      vertex 0 -2.5 1.25
    endloop
  endfacet
  facet normal -0.0314097 0.999507 0
    outer loop
      vertex 0 -2.5 1.25
      vertex 0.156976 -2.49507 -1.25
      vertex 0 -2.5 -1.25
    endloop
  endfacet
  facet normal 0.0314097 0.999507 0
    outer loop
      vertex 0 -2.5 1.25
      vertex 0 -2.5 -1.25
      vertex -0.156976 -2.49507 1.25
    endloop
  endfacet
  facet normal 0.0314097 0.999507 0
    outer loop
      vertex -0.156976 -2.49507 1.25
      vertex 0 -2.5 -1.25
      vertex -0.156976 -2.49507 -1.25
    endloop
  endfacet
  facet normal 0.0941078 0.995562 0
    outer loop
      vertex -0.156976 -2.49507 1.25
      vertex -0.156976 -2.49507 -1.25
      vertex -0.313333 -2.48029 1.25
    endloop
  endfacet
  facet normal 0.0941078 0.995562 0
    outer loop
      vertex -0.313333 -2.48029 1.25
      vertex -0.156976 -2.49507 -1.25
      vertex -0.313333 -2.48029 -1.25
    endloop
  endfacet
  facet normal 0.156437 0.987688 0
    outer loop
      vertex -0.313333 -2.48029 1.25
      vertex -0.313333 -2.48029 -1.25
      vertex -0.468453 -2.45572 1.25
    endloop
  endfacet
  facet normal 0.156437 0.987688 0
    outer loop
      vertex -0.468453 -2.45572 1.25
      vertex -0.313333 -2.48029 -1.25
      vertex -0.468453 -2.45572 -1.25
    endloop
  endfacet
  facet normal 0.218141 0.975917 0
    outer loop
      vertex -0.468453 -2.45572 1.25
      vertex -0.468453 -2.45572 -1.25
      vertex -0.621725 -2.42146 1.25
    endloop
  endfacet
  facet normal 0.218141 0.975917 0
    outer loop
      vertex -0.621725 -2.42146 1.25
      vertex -0.468453 -2.45572 -1.25
      vertex -0.621725 -2.42146 -1.25
    endloop
  endfacet
  facet normal 0.278995 0.960293 0
    outer loop
      vertex -0.621725 -2.42146 1.25
      vertex -0.621725 -2.42146 -1.25
      vertex -0.772542 -2.37764 1.25
    endloop
  endfacet
  facet normal 0.278995 0.960293 0
    outer loop
      vertex -0.772542 -2.37764 1.25
      vertex -0.621725 -2.42146 -1.25
      vertex -0.772542 -2.37764 -1.25
    endloop
  endfacet
  facet normal 0.338737 0.940881 0
    outer loop
      vertex -0.772542 -2.37764 1.25
      vertex -0.772542 -2.37764 -1.25
      vertex -0.920311 -2.32444 1.25
    endloop
  endfacet
  facet normal 0.338737 0.940881 0
    outer loop
      vertex -0.920311 -2.32444 1.25
      vertex -0.772542 -2.37764 -1.25
      vertex -0.920311 -2.32444 -1.25
    endloop
  endfacet
  facet normal 0.397144 0.917756 0
    outer loop
      vertex -0.920311 -2.32444 1.25
      vertex -0.920311 -2.32444 -1.25
      vertex -1.06445 -2.26207 1.25
    endloop
  endfacet
  facet normal 0.397144 0.917756 0
    outer loop
      vertex -1.06445 -2.26207 1.25
      vertex -0.920311 -2.32444 -1.25
      vertex -1.06445 -2.26207 -1.25
    endloop
  endfacet
  facet normal 0.453991 0.891006 0
    outer loop
      vertex -1.06445 -2.26207 1.25
      vertex -1.06445 -2.26207 -1.25
      vertex -1.20438 -2.19077 1.25
    endloop
  endfacet
  facet normal 0.453991 0.891006 0
    outer loop
      vertex -1.20438 -2.19077 1.25
      vertex -1.06445 -2.26207 -1.25
      vertex -1.20438 -2.19077 -1.25
    endloop
  endfacet
  facet normal 0.509041 0.860742 0
    outer loop
      vertex -1.20438 -2.19077 1.25
      vertex -1.20438 -2.19077 -1.25
      vertex -1.33957 -2.11082 1.25
    endloop
  endfacet
  facet normal 0.509041 0.860742 0
    outer loop
      vertex -1.33957 -2.11082 1.25
      vertex -1.20438 -2.19077 -1.25
      vertex -1.33957 -2.11082 -1.25
    endloop
  endfacet
  facet normal 0.562087 0.827078 0
    outer loop
      vertex -1.33957 -2.11082 1.25
      vertex -1.33957 -2.11082 -1.25
      vertex -1.46946 -2.02254 1.25
    endloop
  endfacet
  facet normal 0.562087 0.827078 0
    outer loop
      vertex -1.46946 -2.02254 1.25
      vertex -1.33957 -2.11082 -1.25
      vertex -1.46946 -2.02254 -1.25
    endloop
  endfacet
  facet normal 0.612905 0.790157 0
    outer loop
      vertex -1.46946 -2.02254 1.25
      vertex -1.46946 -2.02254 -1.25
      vertex -1.59356 -1.92628 1.25
    endloop
  endfacet
  facet normal 0.612905 0.790157 0
    outer loop
      vertex -1.59356 -1.92628 1.25
      vertex -1.46946 -2.02254 -1.25
      vertex -1.59356 -1.92628 -1.25
    endloop
  endfacet
  facet normal 0.661309 0.750113 0
    outer loop
      vertex -1.59356 -1.92628 1.25
      vertex -1.59356 -1.92628 -1.25
      vertex -1.71137 -1.82242 1.25
    endloop
  endfacet
  facet normal 0.661309 0.750113 0
    outer loop
      vertex -1.71137 -1.82242 1.25
      vertex -1.59356 -1.92628 -1.25
      vertex -1.71137 -1.82242 -1.25
    endloop
  endfacet
  facet normal 0.707107 0.707107 0
    outer loop
      vertex -1.71137 -1.82242 1.25
      vertex -1.71137 -1.82242 -1.25
      vertex -1.82242 -1.71137 1.25
    endloop
  endfacet
  facet normal 0.707107 0.707107 0
    outer loop
      vertex -1.82242 -1.71137 1.25
      vertex -1.71137 -1.82242 -1.25
      vertex -1.82242 -1.71137 -1.25
    endloop
  endfacet
  facet normal 0.750113 0.661309 0
    outer loop
      vertex -1.92628 -1.59356 1.25
      vertex -1.82242 -1.71137 1.25
      vertex -1.82242 -1.71137 -1.25
    endloop
  endfacet
  facet normal 0.750113 0.661309 0
    outer loop
      vertex -1.92628 -1.59356 -1.25
      vertex -1.92628 -1.59356 1.25
      vertex -1.82242 -1.71137 -1.25
    endloop
  endfacet
  facet normal 0.790157 0.612905 0
    outer loop
      vertex -2.02254 -1.46946 1.25
      vertex -1.92628 -1.59356 1.25
      vertex -1.92628 -1.59356 -1.25
    endloop
  endfacet
  facet normal 0.790157 0.612905 0
    outer loop
      vertex -2.02254 -1.46946 -1.25
      vertex -2.02254 -1.46946 1.25
      vertex -1.92628 -1.59356 -1.25
    endloop
  endfacet
  facet normal 0.827078 0.562087 0
    outer loop
      vertex -2.11082 -1.33957 1.25
      vertex -2.02254 -1.46946 1.25
      vertex -2.02254 -1.46946 -1.25
    endloop
  endfacet
  facet normal 0.827078 0.562087 0
    outer loop
      vertex -2.11082 -1.33957 -1.25
      vertex -2.11082 -1.33957 1.25
      vertex -2.02254 -1.46946 -1.25
    endloop
  endfacet
  facet normal 0.860742 0.509041 0
    outer loop
      vertex -2.19077 -1.20438 1.25
      vertex -2.11082 -1.33957 1.25
      vertex -2.11082 -1.33957 -1.25
    endloop
  endfacet
  facet normal 0.860742 0.509041 0
    outer loop
      vertex -2.19077 -1.20438 -1.25
      vertex -2.19077 -1.20438 1.25
      vertex -2.11082 -1.33957 -1.25
    endloop
  endfacet
  facet normal 0.891006 0.453991 0
    outer loop
      vertex -2.26207 -1.06445 1.25
      vertex -2.19077 -1.20438 1.25
      vertex -2.19077 -1.20438 -1.25
    endloop
  endfacet
  facet normal 0.891006 0.453991 0
    outer loop
      vertex -2.26207 -1.06445 -1.25
      vertex -2.26207 -1.06445 1.25
      vertex -2.19077 -1.20438 -1.25
    endloop
  endfacet
  facet normal 0.917756 0.397144 0
    outer loop
      vertex -2.32444 -0.920311 1.25
      vertex -2.26207 -1.06445 1.25
      vertex -2.26207 -1.06445 -1.25
    endloop
  endfacet
  facet normal 0.917756 0.397144 0
    outer loop
      vertex -2.32444 -0.920311 -1.25
      vertex -2.32444 -0.920311 1.25
      vertex -2.26207 -1.06445 -1.25
    endloop
  endfacet
  facet normal 0.940881 0.338737 0
    outer loop
      vertex -2.37764 -0.772542 1.25
      vertex -2.32444 -0.920311 1.25
      vertex -2.32444 -0.920311 -1.25
    endloop
  endfacet
  facet normal 0.940881 0.338737 0
    outer loop
      vertex -2.37764 -0.772542 -1.25
      vertex -2.37764 -0.772542 1.25
      vertex -2.32444 -0.920311 -1.25
    endloop
  endfacet
  facet normal 0.960293 0.278995 0
    outer loop
      vertex -2.42146 -0.621725 1.25
      vertex -2.37764 -0.772542 1.25
      vertex -2.37764 -0.772542 -1.25
    endloop
  endfacet
  facet normal 0.960293 0.278995 0
    outer loop
      vertex -2.42146 -0.621725 -1.25
      vertex -2.42146 -0.621725 1.25
      vertex -2.37764 -0.772542 -1.25
    endloop
  endfacet
  facet normal 0.975917 0.218141 0
    outer loop
      vertex -2.45572 -0.468453 1.25
      vertex -2.42146 -0.621725 1.25
      vertex -2.42146 -0.621725 -1.25
    endloop
  endfacet
  facet normal 0.975917 0.218141 0
    outer loop
      vertex -2.45572 -0.468453 -1.25
      vertex -2.45572 -0.468453 1.25
      vertex -2.42146 -0.621725 -1.25
    endloop
  endfacet
  facet normal 0.987688 0.156437 0
    outer loop
      vertex -2.48029 -0.313333 1.25
      vertex -2.45572 -0.468453 1.25
      vertex -2.45572 -0.468453 -1.25
    endloop
  endfacet
  facet normal 0.987688 0.156437 0
    outer loop
      vertex -2.48029 -0.313333 -1.25
      vertex -2.48029 -0.313333 1.25
      vertex -2.45572 -0.468453 -1.25
    endloop
  endfacet
  facet normal 0.995562 0.0941078 0
    outer loop
      vertex -2.49507 -0.156976 1.25
      vertex -2.48029 -0.313333 1.25
      vertex -2.48029 -0.313333 -1.25
    endloop
  endfacet
  facet normal 0.995562 0.0941078 0
    outer loop
      vertex -2.49507 -0.156976 -1.25
      vertex -2.49507 -0.156976 1.25
      vertex -2.48029 -0.313333 -1.25
    endloop
  endfacet
endsolid OpenSCAD_Model
