solid OpenSCAD_Model
  facet normal -0 0 1
    outer loop
      vertex 1.31446 0.722631 1.25
      vertex 3.0103 0 1.25
      vertex 1.50515 2.607 1.25
    endloop
  endfacet
  facet normal 0 0 1
    outer loop
      vertex 1.49704 -0.0941849 1.25
      vertex 3.0103 0 1.25
      vertex 1.5 0 1.25
    endloop
  endfacet
  facet normal 0 0 1
    outer loop
      vertex 3.0103 0 1.25
      vertex 1.49704 0.0941849 1.25
      vertex 1.5 0 1.25
    endloop
  endfacet
  facet normal 0 0 1
    outer loop
      vertex 3.0103 0 1.25
      vertex 1.48817 0.188 1.25
      vertex 1.49704 0.0941849 1.25
    endloop
  endfacet
  facet normal 0 0 1
    outer loop
      vertex 3.0103 0 1.25
      vertex 1.47343 0.281072 1.25
      vertex 1.48817 0.188 1.25
    endloop
  endfacet
  facet normal 0 0 1
    outer loop
      vertex 3.0103 0 1.25
      vertex 1.45287 0.373034 1.25
      vertex 1.47343 0.281072 1.25
    endloop
  endfacet
  facet normal 0 0 1
    outer loop
      vertex 3.0103 0 1.25
      vertex 1.42658 0.463525 1.25
      vertex 1.45287 0.373034 1.25
    endloop
  endfacet
  facet normal 0 0 1
    outer loop
      vertex 3.0103 0 1.25
      vertex 1.39466 0.552186 1.25
      vertex 1.42658 0.463525 1.25
    endloop
  endfacet
  facet normal 0 0 1
    outer loop
      vertex 3.0103 0 1.25
      vertex 1.35724 0.638668 1.25
      vertex 1.39466 0.552186 1.25
    endloop
  endfacet
  facet normal 0 0 1
    outer loop
      vertex 3.0103 0 1.25
      vertex 1.31446 0.722631 1.25
      vertex 1.35724 0.638668 1.25
    endloop
  endfacet
  facet normal 0 0 1
    outer loop
      vertex 1.50515 2.607 1.25
      vertex 1.26649 0.80374 1.25
      vertex 1.31446 0.722631 1.25
    endloop
  endfacet
  facet normal 0 0 1
    outer loop
      vertex 1.50515 2.607 1.25
      vertex 1.21352 0.881678 1.25
      vertex 1.26649 0.80374 1.25
    endloop
  endfacet
  facet normal 0 0 1
    outer loop
      vertex 1.50515 2.607 1.25
      vertex 1.15577 0.956136 1.25
      vertex 1.21352 0.881678 1.25
    endloop
  endfacet
  facet normal 0 0 1
    outer loop
      vertex 1.50515 2.607 1.25
      vertex 1.09345 1.02682 1.25
      vertex 1.15577 0.956136 1.25
    endloop
  endfacet
  facet normal 0 0 1
    outer loop
      vertex 1.50515 2.607 1.25
      vertex 1.02682 1.09345 1.25
      vertex 1.09345 1.02682 1.25
    endloop
  endfacet
  facet normal 0 0 1
    outer loop
      vertex 1.50515 2.607 1.25
      vertex 0.956136 1.15577 1.25
      vertex 1.02682 1.09345 1.25
    endloop
  endfacet
  facet normal 0 0 1
    outer loop
      vertex 1.50515 2.607 1.25
      vertex 0.881678 1.21352 1.25
      vertex 0.956136 1.15577 1.25
    endloop
  endfacet
  facet normal 0 0 1
    outer loop
      vertex 1.50515 2.607 1.25
      vertex 0.80374 1.26649 1.25
      vertex 0.881678 1.21352 1.25
    endloop
  endfacet
  facet normal 0 0 1
    outer loop
      vertex 1.50515 2.607 1.25
      vertex 0.722631 1.31446 1.25
      vertex 0.80374 1.26649 1.25
    endloop
  endfacet
  facet normal 0 0 1
    outer loop
      vertex 1.50515 2.607 1.25
      vertex 0.638668 1.35724 1.25
      vertex 0.722631 1.31446 1.25
    endloop
  endfacet
  facet normal 0 0 1
    outer loop
      vertex 1.50515 2.607 1.25
      vertex 0.552186 1.39466 1.25
      vertex 0.638668 1.35724 1.25
    endloop
  endfacet
  facet normal 0 0 1
    outer loop
      vertex 1.50515 2.607 1.25
      vertex 0.463525 1.42658 1.25
      vertex 0.552186 1.39466 1.25
    endloop
  endfacet
  facet normal 0 0 1
    outer loop
      vertex 1.50515 2.607 1.25
      vertex 0.373034 1.45287 1.25
      vertex 0.463525 1.42658 1.25
    endloop
  endfacet
  facet normal 0 0 1
    outer loop
      vertex 1.50515 2.607 1.25
      vertex 0.281072 1.47343 1.25
      vertex 0.373034 1.45287 1.25
    endloop
  endfacet
  facet normal 0 0 1
    outer loop
      vertex 1.50515 2.607 1.25
      vertex 0.188 1.48817 1.25
      vertex 0.281072 1.47343 1.25
    endloop
  endfacet
  facet normal 0 0 1
    outer loop
      vertex 1.50515 2.607 1.25
      vertex 0.0941849 1.49704 1.25
      vertex 0.188 1.48817 1.25
    endloop
  endfacet
  facet normal 0 0 1
    outer loop
      vertex 1.50515 2.607 1.25
      vertex 0 1.5 1.25
      vertex 0.0941849 1.49704 1.25
    endloop
  endfacet
  facet normal -0 0 1
    outer loop
      vertex -1.50515 2.607 1.25
      vertex 0 1.5 1.25
      vertex 1.50515 2.607 1.25
    endloop
  endfacet
  facet normal 0 0 1
    outer loop
      vertex 0 1.5 1.25
      vertex -1.50515 2.607 1.25
      vertex -0.0941849 1.49704 1.25
    endloop
  endfacet
  facet normal 0 0 1
    outer loop
      vertex -0.0941849 1.49704 1.25
      vertex -1.50515 2.607 1.25
      vertex -0.188 1.48817 1.25
    endloop
  endfacet
  facet normal 0 0 1
    outer loop
      vertex -0.188 1.48817 1.25
      vertex -1.50515 2.607 1.25
      vertex -0.281072 1.47343 1.25
    endloop
  endfacet
  facet normal 0 0 1
    outer loop
      vertex -0.281072 1.47343 1.25
      vertex -1.50515 2.607 1.25
      vertex -0.373034 1.45287 1.25
    endloop
  endfacet
  facet normal 0 0 1
    outer loop
      vertex -0.373034 1.45287 1.25
      vertex -1.50515 2.607 1.25
      vertex -0.463525 1.42658 1.25
    endloop
  endfacet
  facet normal 0 0 1
    outer loop
      vertex -0.463525 1.42658 1.25
      vertex -1.50515 2.607 1.25
      vertex -0.552186 1.39466 1.25
    endloop
  endfacet
  facet normal 0 0 1
    outer loop
      vertex -0.552186 1.39466 1.25
      vertex -1.50515 2.607 1.25
      vertex -0.638668 1.35724 1.25
    endloop
  endfacet
  facet normal 0 0 1
    outer loop
      vertex -1.48817 0.188 1.25
      vertex -3.0103 0 1.25
      vertex -1.49704 0.0941849 1.25
    endloop
  endfacet
  facet normal 0 0 1
    outer loop
      vertex -1.47343 0.281072 1.25
      vertex -3.0103 0 1.25
      vertex -1.48817 0.188 1.25
    endloop
  endfacet
  facet normal 0 0 1
    outer loop
      vertex -1.45287 0.373034 1.25
      vertex -3.0103 0 1.25
      vertex -1.47343 0.281072 1.25
    endloop
  endfacet
  facet normal 0 0 1
    outer loop
      vertex -1.42658 0.463525 1.25
      vertex -3.0103 0 1.25
      vertex -1.45287 0.373034 1.25
    endloop
  endfacet
  facet normal 0 0 1
    outer loop
      vertex -1.39466 0.552186 1.25
      vertex -3.0103 0 1.25
      vertex -1.42658 0.463525 1.25
    endloop
  endfacet
  facet normal 0 0 1
    outer loop
      vertex -1.35724 0.638668 1.25
      vertex -3.0103 0 1.25
      vertex -1.39466 0.552186 1.25
    endloop
  endfacet
  facet normal 0 0 1
    outer loop
      vertex -1.31446 0.722631 1.25
      vertex -3.0103 0 1.25
      vertex -1.35724 0.638668 1.25
    endloop
  endfacet
  facet normal 0 0 1
    outer loop
      vertex -3.0103 0 1.25
      vertex -1.31446 0.722631 1.25
      vertex -1.50515 2.607 1.25
    endloop
  endfacet
  facet normal 0 0 1
    outer loop
      vertex -1.26649 0.80374 1.25
      vertex -1.50515 2.607 1.25
      vertex -1.31446 0.722631 1.25
    endloop
  endfacet
  facet normal 0 0 1
    outer loop
      vertex -1.21352 0.881678 1.25
      vertex -1.50515 2.607 1.25
      vertex -1.26649 0.80374 1.25
    endloop
  endfacet
  facet normal 0 0 1
    outer loop
      vertex -1.15577 0.956136 1.25
      vertex -1.50515 2.607 1.25
      vertex -1.21352 0.881678 1.25
    endloop
  endfacet
  facet normal 0 0 1
    outer loop
      vertex -1.09345 1.02682 1.25
      vertex -1.50515 2.607 1.25
      vertex -1.15577 0.956136 1.25
    endloop
  endfacet
  facet normal 0 0 1
    outer loop
      vertex -1.02682 1.09345 1.25
      vertex -1.50515 2.607 1.25
      vertex -1.09345 1.02682 1.25
    endloop
  endfacet
  facet normal 0 0 1
    outer loop
      vertex -0.956136 1.15577 1.25
      vertex -1.50515 2.607 1.25
      vertex -1.02682 1.09345 1.25
    endloop
  endfacet
  facet normal 0 0 1
    outer loop
      vertex -0.881678 1.21352 1.25
      vertex -1.50515 2.607 1.25
      vertex -0.956136 1.15577 1.25
    endloop
  endfacet
  facet normal 0 0 1
    outer loop
      vertex -0.80374 1.26649 1.25
      vertex -1.50515 2.607 1.25
      vertex -0.881678 1.21352 1.25
    endloop
  endfacet
  facet normal 0 0 1
    outer loop
      vertex -0.722631 1.31446 1.25
      vertex -1.50515 2.607 1.25
      vertex -0.80374 1.26649 1.25
    endloop
  endfacet
  facet normal 0 0 1
    outer loop
      vertex -0.638668 1.35724 1.25
      vertex -1.50515 2.607 1.25
      vertex -0.722631 1.31446 1.25
    endloop
  endfacet
  facet normal 0 0 1
    outer loop
      vertex 1.48817 -0.188 1.25
      vertex 3.0103 0 1.25
      vertex 1.49704 -0.0941849 1.25
    endloop
  endfacet
  facet normal 0 0 1
    outer loop
      vertex 1.47343 -0.281072 1.25
      vertex 3.0103 0 1.25
      vertex 1.48817 -0.188 1.25
    endloop
  endfacet
  facet normal 0 0 1
    outer loop
      vertex 1.45287 -0.373034 1.25
      vertex 3.0103 0 1.25
      vertex 1.47343 -0.281072 1.25
    endloop
  endfacet
  facet normal 0 0 1
    outer loop
      vertex 1.42658 -0.463525 1.25
      vertex 3.0103 0 1.25
      vertex 1.45287 -0.373034 1.25
    endloop
  endfacet
  facet normal 0 0 1
    outer loop
      vertex 1.39466 -0.552186 1.25
      vertex 3.0103 0 1.25
      vertex 1.42658 -0.463525 1.25
    endloop
  endfacet
  facet normal 0 0 1
    outer loop
      vertex 1.35724 -0.638668 1.25
      vertex 3.0103 0 1.25
      vertex 1.39466 -0.552186 1.25
    endloop
  endfacet
  facet normal 0 0 1
    outer loop
      vertex 1.31446 -0.722631 1.25
      vertex 3.0103 0 1.25
      vertex 1.35724 -0.638668 1.25
    endloop
  endfacet
  facet normal 0 0 1
    outer loop
      vertex 3.0103 0 1.25
      vertex 1.31446 -0.722631 1.25
      vertex 1.50515 -2.607 1.25
    endloop
  endfacet
  facet normal -0 0 1
    outer loop
      vertex 1.26649 -0.80374 1.25
      vertex 1.50515 -2.607 1.25
      vertex 1.31446 -0.722631 1.25
    endloop
  endfacet
  facet normal -0 0 1
    outer loop
      vertex 1.21352 -0.881678 1.25
      vertex 1.50515 -2.607 1.25
      vertex 1.26649 -0.80374 1.25
    endloop
  endfacet
  facet normal -0 0 1
    outer loop
      vertex 1.15577 -0.956136 1.25
      vertex 1.50515 -2.607 1.25
      vertex 1.21352 -0.881678 1.25
    endloop
  endfacet
  facet normal -0 0 1
    outer loop
      vertex 1.09345 -1.02682 1.25
      vertex 1.50515 -2.607 1.25
      vertex 1.15577 -0.956136 1.25
    endloop
  endfacet
  facet normal -0 0 1
    outer loop
      vertex 1.02682 -1.09345 1.25
      vertex 1.50515 -2.607 1.25
      vertex 1.09345 -1.02682 1.25
    endloop
  endfacet
  facet normal -0 0 1
    outer loop
      vertex 0.956136 -1.15577 1.25
      vertex 1.50515 -2.607 1.25
      vertex 1.02682 -1.09345 1.25
    endloop
  endfacet
  facet normal -0 0 1
    outer loop
      vertex 0.881678 -1.21352 1.25
      vertex 1.50515 -2.607 1.25
      vertex 0.956136 -1.15577 1.25
    endloop
  endfacet
  facet normal -0 0 1
    outer loop
      vertex 0.80374 -1.26649 1.25
      vertex 1.50515 -2.607 1.25
      vertex 0.881678 -1.21352 1.25
    endloop
  endfacet
  facet normal -0 0 1
    outer loop
      vertex 0.722631 -1.31446 1.25
      vertex 1.50515 -2.607 1.25
      vertex 0.80374 -1.26649 1.25
    endloop
  endfacet
  facet normal -0 0 1
    outer loop
      vertex 0.638668 -1.35724 1.25
      vertex 1.50515 -2.607 1.25
      vertex 0.722631 -1.31446 1.25
    endloop
  endfacet
  facet normal -0 0 1
    outer loop
      vertex 0.552186 -1.39466 1.25
      vertex 1.50515 -2.607 1.25
      vertex 0.638668 -1.35724 1.25
    endloop
  endfacet
  facet normal -0 0 1
    outer loop
      vertex 0.463525 -1.42658 1.25
      vertex 1.50515 -2.607 1.25
      vertex 0.552186 -1.39466 1.25
    endloop
  endfacet
  facet normal -0 0 1
    outer loop
      vertex 0.373034 -1.45287 1.25
      vertex 1.50515 -2.607 1.25
      vertex 0.463525 -1.42658 1.25
    endloop
  endfacet
  facet normal -0 0 1
    outer loop
      vertex 0.281072 -1.47343 1.25
      vertex 1.50515 -2.607 1.25
      vertex 0.373034 -1.45287 1.25
    endloop
  endfacet
  facet normal -0 0 1
    outer loop
      vertex 0.188 -1.48817 1.25
      vertex 1.50515 -2.607 1.25
      vertex 0.281072 -1.47343 1.25
    endloop
  endfacet
  facet normal -0 0 1
    outer loop
      vertex 0.0941849 -1.49704 1.25
      vertex 1.50515 -2.607 1.25
      vertex 0.188 -1.48817 1.25
    endloop
  endfacet
  facet normal -0 0 1
    outer loop
      vertex 0 -1.5 1.25
      vertex 1.50515 -2.607 1.25
      vertex 0.0941849 -1.49704 1.25
    endloop
  endfacet
  facet normal 0 0 1
    outer loop
      vertex -1.50515 -2.607 1.25
      vertex 0 -1.5 1.25
      vertex -0.0941849 -1.49704 1.25
    endloop
  endfacet
  facet normal 0 0 1
    outer loop
      vertex -1.50515 -2.607 1.25
      vertex -0.0941849 -1.49704 1.25
      vertex -0.188 -1.48817 1.25
    endloop
  endfacet
  facet normal 0 0 1
    outer loop
      vertex -1.50515 -2.607 1.25
      vertex -0.188 -1.48817 1.25
      vertex -0.281072 -1.47343 1.25
    endloop
  endfacet
  facet normal 0 0 1
    outer loop
      vertex -1.50515 -2.607 1.25
      vertex -0.281072 -1.47343 1.25
      vertex -0.373034 -1.45287 1.25
    endloop
  endfacet
  facet normal 0 0 1
    outer loop
      vertex -1.50515 -2.607 1.25
      vertex -0.373034 -1.45287 1.25
      vertex -0.463525 -1.42658 1.25
    endloop
  endfacet
  facet normal 0 0 1
    outer loop
      vertex -1.50515 -2.607 1.25
      vertex -0.463525 -1.42658 1.25
      vertex -0.552186 -1.39466 1.25
    endloop
  endfacet
  facet normal 0 0 1
    outer loop
      vertex -1.50515 -2.607 1.25
      vertex -0.552186 -1.39466 1.25
      vertex -0.638668 -1.35724 1.25
    endloop
  endfacet
  facet normal 0 0 1
    outer loop
      vertex -1.50515 -2.607 1.25
      vertex -0.638668 -1.35724 1.25
      vertex -0.722631 -1.31446 1.25
    endloop
  endfacet
  facet normal 0 0 1
    outer loop
      vertex 0 -1.5 1.25
      vertex -1.50515 -2.607 1.25
      vertex 1.50515 -2.607 1.25
    endloop
  endfacet
  facet normal 0 0 1
    outer loop
      vertex -0.80374 -1.26649 1.25
      vertex -1.50515 -2.607 1.25
      vertex -0.722631 -1.31446 1.25
    endloop
  endfacet
  facet normal 0 0 1
    outer loop
      vertex -0.881678 -1.21352 1.25
      vertex -1.50515 -2.607 1.25
      vertex -0.80374 -1.26649 1.25
    endloop
  endfacet
  facet normal 0 0 1
    outer loop
      vertex -0.956136 -1.15577 1.25
      vertex -1.50515 -2.607 1.25
      vertex -0.881678 -1.21352 1.25
    endloop
  endfacet
  facet normal 0 0 1
    outer loop
      vertex -1.02682 -1.09345 1.25
      vertex -1.50515 -2.607 1.25
      vertex -0.956136 -1.15577 1.25
    endloop
  endfacet
  facet normal 0 0 1
    outer loop
      vertex -1.09345 -1.02682 1.25
      vertex -1.50515 -2.607 1.25
      vertex -1.02682 -1.09345 1.25
    endloop
  endfacet
  facet normal 0 0 1
    outer loop
      vertex -1.15577 -0.956136 1.25
      vertex -1.50515 -2.607 1.25
      vertex -1.09345 -1.02682 1.25
    endloop
  endfacet
  facet normal 0 0 1
    outer loop
      vertex -1.21352 -0.881678 1.25
      vertex -1.50515 -2.607 1.25
      vertex -1.15577 -0.956136 1.25
    endloop
  endfacet
  facet normal 0 0 1
    outer loop
      vertex -1.26649 -0.80374 1.25
      vertex -1.50515 -2.607 1.25
      vertex -1.21352 -0.881678 1.25
    endloop
  endfacet
  facet normal 0 0 1
    outer loop
      vertex -1.31446 -0.722631 1.25
      vertex -1.50515 -2.607 1.25
      vertex -1.26649 -0.80374 1.25
    endloop
  endfacet
  facet normal 0 0 1
    outer loop
      vertex -3.0103 0 1.25
      vertex -1.31446 -0.722631 1.25
      vertex -1.35724 -0.638668 1.25
    endloop
  endfacet
  facet normal 0 0 1
    outer loop
      vertex -3.0103 0 1.25
      vertex -1.35724 -0.638668 1.25
      vertex -1.39466 -0.552186 1.25
    endloop
  endfacet
  facet normal 0 0 1
    outer loop
      vertex -3.0103 0 1.25
      vertex -1.39466 -0.552186 1.25
      vertex -1.42658 -0.463525 1.25
    endloop
  endfacet
  facet normal 0 0 1
    outer loop
      vertex -3.0103 0 1.25
      vertex -1.42658 -0.463525 1.25
      vertex -1.45287 -0.373034 1.25
    endloop
  endfacet
  facet normal 0 0 1
    outer loop
      vertex -3.0103 0 1.25
      vertex -1.45287 -0.373034 1.25
      vertex -1.47343 -0.281072 1.25
    endloop
  endfacet
  facet normal 0 0 1
    outer loop
      vertex -3.0103 0 1.25
      vertex -1.47343 -0.281072 1.25
      vertex -1.48817 -0.188 1.25
    endloop
  endfacet
  facet normal 0 0 1
    outer loop
      vertex -3.0103 0 1.25
      vertex -1.48817 -0.188 1.25
      vertex -1.49704 -0.0941849 1.25
    endloop
  endfacet
  facet normal -0 0 1
    outer loop
      vertex -3.0103 0 1.25
      vertex -1.49704 -0.0941849 1.25
      vertex -1.5 0 1.25
    endloop
  endfacet
  facet normal 0 0 1
    outer loop
      vertex -1.49704 0.0941849 1.25
      vertex -3.0103 0 1.25
      vertex -1.5 0 1.25
    endloop
  endfacet
  facet normal 0 0 1
    outer loop
      vertex -1.31446 -0.722631 1.25
      vertex -3.0103 0 1.25
      vertex -1.50515 -2.607 1.25
    endloop
  endfacet
  facet normal 0 0 -1
    outer loop
      vertex 1.31446 -0.722631 -1.25
      vertex 3.0103 0 -1.25
      vertex 1.50515 -2.607 -1.25
    endloop
  endfacet
  facet normal 0 0 -1
    outer loop
      vertex 1.49704 0.0941849 -1.25
      vertex 3.0103 0 -1.25
      vertex 1.5 0 -1.25
    endloop
  endfacet
  facet normal -0 0 -1
    outer loop
      vertex 3.0103 0 -1.25
      vertex 1.49704 -0.0941849 -1.25
      vertex 1.5 0 -1.25
    endloop
  endfacet
  facet normal 0 0 -1
    outer loop
      vertex 3.0103 0 -1.25
      vertex 1.48817 -0.188 -1.25
      vertex 1.49704 -0.0941849 -1.25
    endloop
  endfacet
  facet normal 0 0 -1
    outer loop
      vertex 3.0103 0 -1.25
      vertex 1.47343 -0.281072 -1.25
      vertex 1.48817 -0.188 -1.25
    endloop
  endfacet
  facet normal 0 0 -1
    outer loop
      vertex 3.0103 0 -1.25
      vertex 1.45287 -0.373034 -1.25
      vertex 1.47343 -0.281072 -1.25
    endloop
  endfacet
  facet normal 0 0 -1
    outer loop
      vertex 3.0103 0 -1.25
      vertex 1.42658 -0.463525 -1.25
      vertex 1.45287 -0.373034 -1.25
    endloop
  endfacet
  facet normal 0 0 -1
    outer loop
      vertex 3.0103 0 -1.25
      vertex 1.39466 -0.552186 -1.25
      vertex 1.42658 -0.463525 -1.25
    endloop
  endfacet
  facet normal 0 0 -1
    outer loop
      vertex 3.0103 0 -1.25
      vertex 1.35724 -0.638668 -1.25
      vertex 1.39466 -0.552186 -1.25
    endloop
  endfacet
  facet normal 0 0 -1
    outer loop
      vertex 3.0103 0 -1.25
      vertex 1.31446 -0.722631 -1.25
      vertex 1.35724 -0.638668 -1.25
    endloop
  endfacet
  facet normal 0 0 -1
    outer loop
      vertex 1.50515 -2.607 -1.25
      vertex 1.26649 -0.80374 -1.25
      vertex 1.31446 -0.722631 -1.25
    endloop
  endfacet
  facet normal 0 0 -1
    outer loop
      vertex 1.50515 -2.607 -1.25
      vertex 1.21352 -0.881678 -1.25
      vertex 1.26649 -0.80374 -1.25
    endloop
  endfacet
  facet normal 0 0 -1
    outer loop
      vertex 1.50515 -2.607 -1.25
      vertex 1.15577 -0.956136 -1.25
      vertex 1.21352 -0.881678 -1.25
    endloop
  endfacet
  facet normal 0 0 -1
    outer loop
      vertex 1.50515 -2.607 -1.25
      vertex 1.09345 -1.02682 -1.25
      vertex 1.15577 -0.956136 -1.25
    endloop
  endfacet
  facet normal 0 0 -1
    outer loop
      vertex 1.50515 -2.607 -1.25
      vertex 1.02682 -1.09345 -1.25
      vertex 1.09345 -1.02682 -1.25
    endloop
  endfacet
  facet normal 0 0 -1
    outer loop
      vertex 1.50515 -2.607 -1.25
      vertex 0.956136 -1.15577 -1.25
      vertex 1.02682 -1.09345 -1.25
    endloop
  endfacet
  facet normal 0 0 -1
    outer loop
      vertex 1.50515 -2.607 -1.25
      vertex 0.881678 -1.21352 -1.25
      vertex 0.956136 -1.15577 -1.25
    endloop
  endfacet
  facet normal 0 0 -1
    outer loop
      vertex 1.50515 -2.607 -1.25
      vertex 0.80374 -1.26649 -1.25
      vertex 0.881678 -1.21352 -1.25
    endloop
  endfacet
  facet normal 0 0 -1
    outer loop
      vertex 1.50515 -2.607 -1.25
      vertex 0.722631 -1.31446 -1.25
      vertex 0.80374 -1.26649 -1.25
    endloop
  endfacet
  facet normal 0 0 -1
    outer loop
      vertex 1.50515 -2.607 -1.25
      vertex 0.638668 -1.35724 -1.25
      vertex 0.722631 -1.31446 -1.25
    endloop
  endfacet
  facet normal 0 0 -1
    outer loop
      vertex 1.50515 -2.607 -1.25
      vertex 0.552186 -1.39466 -1.25
      vertex 0.638668 -1.35724 -1.25
    endloop
  endfacet
  facet normal 0 0 -1
    outer loop
      vertex 1.50515 -2.607 -1.25
      vertex 0.463525 -1.42658 -1.25
      vertex 0.552186 -1.39466 -1.25
    endloop
  endfacet
  facet normal 0 0 -1
    outer loop
      vertex 1.50515 -2.607 -1.25
      vertex 0.373034 -1.45287 -1.25
      vertex 0.463525 -1.42658 -1.25
    endloop
  endfacet
  facet normal 0 0 -1
    outer loop
      vertex 1.50515 -2.607 -1.25
      vertex 0.281072 -1.47343 -1.25
      vertex 0.373034 -1.45287 -1.25
    endloop
  endfacet
  facet normal 0 0 -1
    outer loop
      vertex 1.50515 -2.607 -1.25
      vertex 0.188 -1.48817 -1.25
      vertex 0.281072 -1.47343 -1.25
    endloop
  endfacet
  facet normal 0 0 -1
    outer loop
      vertex 1.50515 -2.607 -1.25
      vertex 0.0941849 -1.49704 -1.25
      vertex 0.188 -1.48817 -1.25
    endloop
  endfacet
  facet normal 0 0 -1
    outer loop
      vertex 1.50515 -2.607 -1.25
      vertex 0 -1.5 -1.25
      vertex 0.0941849 -1.49704 -1.25
    endloop
  endfacet
  facet normal 0 0 -1
    outer loop
      vertex -1.50515 -2.607 -1.25
      vertex 0 -1.5 -1.25
      vertex 1.50515 -2.607 -1.25
    endloop
  endfacet
  facet normal -0 0 -1
    outer loop
      vertex 0 -1.5 -1.25
      vertex -1.50515 -2.607 -1.25
      vertex -0.0941849 -1.49704 -1.25
    endloop
  endfacet
  facet normal -0 0 -1
    outer loop
      vertex -0.0941849 -1.49704 -1.25
      vertex -1.50515 -2.607 -1.25
      vertex -0.188 -1.48817 -1.25
    endloop
  endfacet
  facet normal -0 0 -1
    outer loop
      vertex -0.188 -1.48817 -1.25
      vertex -1.50515 -2.607 -1.25
      vertex -0.281072 -1.47343 -1.25
    endloop
  endfacet
  facet normal -0 0 -1
    outer loop
      vertex -0.281072 -1.47343 -1.25
      vertex -1.50515 -2.607 -1.25
      vertex -0.373034 -1.45287 -1.25
    endloop
  endfacet
  facet normal -0 0 -1
    outer loop
      vertex -0.373034 -1.45287 -1.25
      vertex -1.50515 -2.607 -1.25
      vertex -0.463525 -1.42658 -1.25
    endloop
  endfacet
  facet normal -0 0 -1
    outer loop
      vertex -0.463525 -1.42658 -1.25
      vertex -1.50515 -2.607 -1.25
      vertex -0.552186 -1.39466 -1.25
    endloop
  endfacet
  facet normal -0 0 -1
    outer loop
      vertex -0.552186 -1.39466 -1.25
      vertex -1.50515 -2.607 -1.25
      vertex -0.638668 -1.35724 -1.25
    endloop
  endfacet
  facet normal 0 0 -1
    outer loop
      vertex -1.48817 -0.188 -1.25
      vertex -3.0103 0 -1.25
      vertex -1.49704 -0.0941849 -1.25
    endloop
  endfacet
  facet normal 0 0 -1
    outer loop
      vertex -1.47343 -0.281072 -1.25
      vertex -3.0103 0 -1.25
      vertex -1.48817 -0.188 -1.25
    endloop
  endfacet
  facet normal 0 0 -1
    outer loop
      vertex -1.45287 -0.373034 -1.25
      vertex -3.0103 0 -1.25
      vertex -1.47343 -0.281072 -1.25
    endloop
  endfacet
  facet normal 0 0 -1
    outer loop
      vertex -1.42658 -0.463525 -1.25
      vertex -3.0103 0 -1.25
      vertex -1.45287 -0.373034 -1.25
    endloop
  endfacet
  facet normal 0 0 -1
    outer loop
      vertex -1.39466 -0.552186 -1.25
      vertex -3.0103 0 -1.25
      vertex -1.42658 -0.463525 -1.25
    endloop
  endfacet
  facet normal 0 0 -1
    outer loop
      vertex -1.35724 -0.638668 -1.25
      vertex -3.0103 0 -1.25
      vertex -1.39466 -0.552186 -1.25
    endloop
  endfacet
  facet normal 0 0 -1
    outer loop
      vertex -1.31446 -0.722631 -1.25
      vertex -3.0103 0 -1.25
      vertex -1.35724 -0.638668 -1.25
    endloop
  endfacet
  facet normal 0 0 -1
    outer loop
      vertex -3.0103 0 -1.25
      vertex -1.31446 -0.722631 -1.25
      vertex -1.50515 -2.607 -1.25
    endloop
  endfacet
  facet normal -0 0 -1
    outer loop
      vertex -1.26649 -0.80374 -1.25
      vertex -1.50515 -2.607 -1.25
      vertex -1.31446 -0.722631 -1.25
    endloop
  endfacet
  facet normal -0 0 -1
    outer loop
      vertex -1.21352 -0.881678 -1.25
      vertex -1.50515 -2.607 -1.25
      vertex -1.26649 -0.80374 -1.25
    endloop
  endfacet
  facet normal -0 0 -1
    outer loop
      vertex -1.15577 -0.956136 -1.25
      vertex -1.50515 -2.607 -1.25
      vertex -1.21352 -0.881678 -1.25
    endloop
  endfacet
  facet normal -0 0 -1
    outer loop
      vertex -1.09345 -1.02682 -1.25
      vertex -1.50515 -2.607 -1.25
      vertex -1.15577 -0.956136 -1.25
    endloop
  endfacet
  facet normal -0 0 -1
    outer loop
      vertex -1.02682 -1.09345 -1.25
      vertex -1.50515 -2.607 -1.25
      vertex -1.09345 -1.02682 -1.25
    endloop
  endfacet
  facet normal -0 0 -1
    outer loop
      vertex -0.956136 -1.15577 -1.25
      vertex -1.50515 -2.607 -1.25
      vertex -1.02682 -1.09345 -1.25
    endloop
  endfacet
  facet normal -0 0 -1
    outer loop
      vertex -0.881678 -1.21352 -1.25
      vertex -1.50515 -2.607 -1.25
      vertex -0.956136 -1.15577 -1.25
    endloop
  endfacet
  facet normal -0 0 -1
    outer loop
      vertex -0.80374 -1.26649 -1.25
      vertex -1.50515 -2.607 -1.25
      vertex -0.881678 -1.21352 -1.25
    endloop
  endfacet
  facet normal -0 0 -1
    outer loop
      vertex -0.722631 -1.31446 -1.25
      vertex -1.50515 -2.607 -1.25
      vertex -0.80374 -1.26649 -1.25
    endloop
  endfacet
  facet normal -0 0 -1
    outer loop
      vertex -0.638668 -1.35724 -1.25
      vertex -1.50515 -2.607 -1.25
      vertex -0.722631 -1.31446 -1.25
    endloop
  endfacet
  facet normal 0 0 -1
    outer loop
      vertex 1.48817 0.188 -1.25
      vertex 3.0103 0 -1.25
      vertex 1.49704 0.0941849 -1.25
    endloop
  endfacet
  facet normal 0 0 -1
    outer loop
      vertex 1.47343 0.281072 -1.25
      vertex 3.0103 0 -1.25
      vertex 1.48817 0.188 -1.25
    endloop
  endfacet
  facet normal 0 0 -1
    outer loop
      vertex 1.45287 0.373034 -1.25
      vertex 3.0103 0 -1.25
      vertex 1.47343 0.281072 -1.25
    endloop
  endfacet
  facet normal 0 0 -1
    outer loop
      vertex 1.42658 0.463525 -1.25
      vertex 3.0103 0 -1.25
      vertex 1.45287 0.373034 -1.25
    endloop
  endfacet
  facet normal 0 0 -1
    outer loop
      vertex 1.39466 0.552186 -1.25
      vertex 3.0103 0 -1.25
      vertex 1.42658 0.463525 -1.25
    endloop
  endfacet
  facet normal 0 0 -1
    outer loop
      vertex 1.35724 0.638668 -1.25
      vertex 3.0103 0 -1.25
      vertex 1.39466 0.552186 -1.25
    endloop
  endfacet
  facet normal 0 0 -1
    outer loop
      vertex 1.31446 0.722631 -1.25
      vertex 3.0103 0 -1.25
      vertex 1.35724 0.638668 -1.25
    endloop
  endfacet
  facet normal 0 0 -1
    outer loop
      vertex 3.0103 0 -1.25
      vertex 1.31446 0.722631 -1.25
      vertex 1.50515 2.607 -1.25
    endloop
  endfacet
  facet normal 0 0 -1
    outer loop
      vertex 1.26649 0.80374 -1.25
      vertex 1.50515 2.607 -1.25
      vertex 1.31446 0.722631 -1.25
    endloop
  endfacet
  facet normal 0 0 -1
    outer loop
      vertex 1.21352 0.881678 -1.25
      vertex 1.50515 2.607 -1.25
      vertex 1.26649 0.80374 -1.25
    endloop
  endfacet
  facet normal 0 0 -1
    outer loop
      vertex 1.15577 0.956136 -1.25
      vertex 1.50515 2.607 -1.25
      vertex 1.21352 0.881678 -1.25
    endloop
  endfacet
  facet normal 0 0 -1
    outer loop
      vertex 1.09345 1.02682 -1.25
      vertex 1.50515 2.607 -1.25
      vertex 1.15577 0.956136 -1.25
    endloop
  endfacet
  facet normal 0 0 -1
    outer loop
      vertex 1.02682 1.09345 -1.25
      vertex 1.50515 2.607 -1.25
      vertex 1.09345 1.02682 -1.25
    endloop
  endfacet
  facet normal 0 0 -1
    outer loop
      vertex 0.956136 1.15577 -1.25
      vertex 1.50515 2.607 -1.25
      vertex 1.02682 1.09345 -1.25
    endloop
  endfacet
  facet normal 0 0 -1
    outer loop
      vertex 0.881678 1.21352 -1.25
      vertex 1.50515 2.607 -1.25
      vertex 0.956136 1.15577 -1.25
    endloop
  endfacet
  facet normal 0 0 -1
    outer loop
      vertex 0.80374 1.26649 -1.25
      vertex 1.50515 2.607 -1.25
      vertex 0.881678 1.21352 -1.25
    endloop
  endfacet
  facet normal 0 0 -1
    outer loop
      vertex 0.722631 1.31446 -1.25
      vertex 1.50515 2.607 -1.25
      vertex 0.80374 1.26649 -1.25
    endloop
  endfacet
  facet normal 0 0 -1
    outer loop
      vertex 0.638668 1.35724 -1.25
      vertex 1.50515 2.607 -1.25
      vertex 0.722631 1.31446 -1.25
    endloop
  endfacet
  facet normal 0 0 -1
    outer loop
      vertex 0.552186 1.39466 -1.25
      vertex 1.50515 2.607 -1.25
      vertex 0.638668 1.35724 -1.25
    endloop
  endfacet
  facet normal 0 0 -1
    outer loop
      vertex 0.463525 1.42658 -1.25
      vertex 1.50515 2.607 -1.25
      vertex 0.552186 1.39466 -1.25
    endloop
  endfacet
  facet normal 0 0 -1
    outer loop
      vertex 0.373034 1.45287 -1.25
      vertex 1.50515 2.607 -1.25
      vertex 0.463525 1.42658 -1.25
    endloop
  endfacet
  facet normal 0 0 -1
    outer loop
      vertex 0.281072 1.47343 -1.25
      vertex 1.50515 2.607 -1.25
      vertex 0.373034 1.45287 -1.25
    endloop
  endfacet
  facet normal 0 0 -1
    outer loop
      vertex 0.188 1.48817 -1.25
      vertex 1.50515 2.607 -1.25
      vertex 0.281072 1.47343 -1.25
    endloop
  endfacet
  facet normal 0 0 -1
    outer loop
      vertex 0.0941849 1.49704 -1.25
      vertex 1.50515 2.607 -1.25
      vertex 0.188 1.48817 -1.25
    endloop
  endfacet
  facet normal 0 0 -1
    outer loop
      vertex 0 1.5 -1.25
      vertex 1.50515 2.607 -1.25
      vertex 0.0941849 1.49704 -1.25
    endloop
  endfacet
  facet normal 0 0 -1
    outer loop
      vertex -1.50515 2.607 -1.25
      vertex 0 1.5 -1.25
      vertex -0.0941849 1.49704 -1.25
    endloop
  endfacet
  facet normal 0 0 -1
    outer loop
      vertex -1.50515 2.607 -1.25
      vertex -0.0941849 1.49704 -1.25
      vertex -0.188 1.48817 -1.25
    endloop
  endfacet
  facet normal 0 0 -1
    outer loop
      vertex -1.50515 2.607 -1.25
      vertex -0.188 1.48817 -1.25
      vertex -0.281072 1.47343 -1.25
    endloop
  endfacet
  facet normal 0 0 -1
    outer loop
      vertex -1.50515 2.607 -1.25
      vertex -0.281072 1.47343 -1.25
      vertex -0.373034 1.45287 -1.25
    endloop
  endfacet
  facet normal 0 0 -1
    outer loop
      vertex -1.50515 2.607 -1.25
      vertex -0.373034 1.45287 -1.25
      vertex -0.463525 1.42658 -1.25
    endloop
  endfacet
  facet normal 0 0 -1
    outer loop
      vertex -1.50515 2.607 -1.25
      vertex -0.463525 1.42658 -1.25
      vertex -0.552186 1.39466 -1.25
    endloop
  endfacet
  facet normal 0 0 -1
    outer loop
      vertex -1.50515 2.607 -1.25
      vertex -0.552186 1.39466 -1.25
      vertex -0.638668 1.35724 -1.25
    endloop
  endfacet
  facet normal 0 0 -1
    outer loop
      vertex -1.50515 2.607 -1.25
      vertex -0.638668 1.35724 -1.25
      vertex -0.722631 1.31446 -1.25
    endloop
  endfacet
  facet normal 0 0 -1
    outer loop
      vertex 0 1.5 -1.25
      vertex -1.50515 2.607 -1.25
      vertex 1.50515 2.607 -1.25
    endloop
  endfacet
  facet normal 0 0 -1
    outer loop
      vertex -0.80374 1.26649 -1.25
      vertex -1.50515 2.607 -1.25
      vertex -0.722631 1.31446 -1.25
    endloop
  endfacet
  facet normal 0 0 -1
    outer loop
      vertex -0.881678 1.21352 -1.25
      vertex -1.50515 2.607 -1.25
      vertex -0.80374 1.26649 -1.25
    endloop
  endfacet
  facet normal 0 0 -1
    outer loop
      vertex -0.956136 1.15577 -1.25
      vertex -1.50515 2.607 -1.25
      vertex -0.881678 1.21352 -1.25
    endloop
  endfacet
  facet normal 0 0 -1
    outer loop
      vertex -1.02682 1.09345 -1.25
      vertex -1.50515 2.607 -1.25
      vertex -0.956136 1.15577 -1.25
    endloop
  endfacet
  facet normal 0 0 -1
    outer loop
      vertex -1.09345 1.02682 -1.25
      vertex -1.50515 2.607 -1.25
      vertex -1.02682 1.09345 -1.25
    endloop
  endfacet
  facet normal 0 0 -1
    outer loop
      vertex -1.15577 0.956136 -1.25
      vertex -1.50515 2.607 -1.25
      vertex -1.09345 1.02682 -1.25
    endloop
  endfacet
  facet normal 0 0 -1
    outer loop
      vertex -1.21352 0.881678 -1.25
      vertex -1.50515 2.607 -1.25
      vertex -1.15577 0.956136 -1.25
    endloop
  endfacet
  facet normal 0 0 -1
    outer loop
      vertex -1.26649 0.80374 -1.25
      vertex -1.50515 2.607 -1.25
      vertex -1.21352 0.881678 -1.25
    endloop
  endfacet
  facet normal 0 0 -1
    outer loop
      vertex -1.31446 0.722631 -1.25
      vertex -1.50515 2.607 -1.25
      vertex -1.26649 0.80374 -1.25
    endloop
  endfacet
  facet normal 0 0 -1
    outer loop
      vertex -3.0103 0 -1.25
      vertex -1.31446 0.722631 -1.25
      vertex -1.35724 0.638668 -1.25
    endloop
  endfacet
  facet normal 0 0 -1
    outer loop
      vertex -3.0103 0 -1.25
      vertex -1.35724 0.638668 -1.25
      vertex -1.39466 0.552186 -1.25
    endloop
  endfacet
  facet normal 0 0 -1
    outer loop
      vertex -3.0103 0 -1.25
      vertex -1.39466 0.552186 -1.25
      vertex -1.42658 0.463525 -1.25
    endloop
  endfacet
  facet normal 0 0 -1
    outer loop
      vertex -3.0103 0 -1.25
      vertex -1.42658 0.463525 -1.25
      vertex -1.45287 0.373034 -1.25
    endloop
  endfacet
  facet normal 0 0 -1
    outer loop
      vertex -3.0103 0 -1.25
      vertex -1.45287 0.373034 -1.25
      vertex -1.47343 0.281072 -1.25
    endloop
  endfacet
  facet normal 0 0 -1
    outer loop
      vertex -3.0103 0 -1.25
      vertex -1.47343 0.281072 -1.25
      vertex -1.48817 0.188 -1.25
    endloop
  endfacet
  facet normal 0 0 -1
    outer loop
      vertex -3.0103 0 -1.25
      vertex -1.48817 0.188 -1.25
      vertex -1.49704 0.0941849 -1.25
    endloop
  endfacet
  facet normal 0 0 -1
    outer loop
      vertex -3.0103 0 -1.25
      vertex -1.49704 0.0941849 -1.25
      vertex -1.5 0 -1.25
    endloop
  endfacet
  facet normal 0 0 -1
    outer loop
      vertex -1.49704 -0.0941849 -1.25
      vertex -3.0103 0 -1.25
      vertex -1.5 0 -1.25
    endloop
  endfacet
  facet normal -0 0 -1
    outer loop
      vertex -1.31446 0.722631 -1.25
      vertex -3.0103 0 -1.25
      vertex -1.50515 2.607 -1.25
    endloop
  endfacet
  facet normal 0 -1 0
    outer loop
      vertex -1.50515 -2.607 -1.25
      vertex 1.50515 -2.607 1.25
      vertex -1.50515 -2.607 1.25
    endloop
  endfacet
  facet normal 0 -1 -0
    outer loop
      vertex 1.50515 -2.607 1.25
      vertex -1.50515 -2.607 -1.25
      vertex 1.50515 -2.607 -1.25
    endloop
  endfacet
  facet normal 0 1 -0
    outer loop
      vertex 1.50515 2.607 -1.25
      vertex -1.50515 2.607 1.25
      vertex 1.50515 2.607 1.25
    endloop
  endfacet
  facet normal 0 1 0
    outer loop
      vertex -1.50515 2.607 1.25
      vertex 1.50515 2.607 -1.25
      vertex -1.50515 2.607 -1.25
    endloop
  endfacet
  facet normal 0.866025 0.5 0
    outer loop
      vertex 3.0103 0 1.25
      vertex 1.50515 2.607 -1.25
      vertex 1.50515 2.607 1.25
    endloop
  endfacet
  facet normal 0.866025 0.5 0
    outer loop
      vertex 1.50515 2.607 -1.25
      vertex 3.0103 0 1.25
      vertex 3.0103 0 -1.25
    endloop
  endfacet
  facet normal -0.866025 -0.5 0
    outer loop
      vertex -1.50515 -2.607 -1.25
      vertex -3.0103 0 1.25
      vertex -3.0103 0 -1.25
    endloop
  endfacet
  facet normal -0.866025 -0.5 0
    outer loop
      vertex -3.0103 0 1.25
      vertex -1.50515 -2.607 -1.25
      vertex -1.50515 -2.607 1.25
    endloop
  endfacet
  facet normal -0.866025 0.5 0
    outer loop
      vertex -3.0103 0 -1.25
      vertex -1.50515 2.607 1.25
      vertex -1.50515 2.607 -1.25
    endloop
  endfacet
  facet normal -0.866025 0.5 0
    outer loop
      vertex -1.50515 2.607 1.25
      vertex -3.0103 0 -1.25
      vertex -3.0103 0 1.25
    endloop
  endfacet
  facet normal 0.866025 -0.5 0
    outer loop
      vertex 1.50515 -2.607 1.25
      vertex 3.0103 0 -1.25
      vertex 3.0103 0 1.25
    endloop
  endfacet
  facet normal 0.866025 -0.5 0
    outer loop
      vertex 3.0103 0 -1.25
      vertex 1.50515 -2.607 1.25
      vertex 1.50515 -2.607 -1.25
    endloop
  endfacet
  facet normal -0.999506 -0.0314142 0
    outer loop
      vertex 1.5 0 -1.25
      vertex 1.49704 0.0941849 1.25
      vertex 1.49704 0.0941849 -1.25
    endloop
  endfacet
  facet normal -0.999506 -0.0314142 0
    outer loop
      vertex 1.49704 0.0941849 1.25
      vertex 1.5 0 -1.25
      vertex 1.5 0 1.25
    endloop
  endfacet
  facet normal 0.999506 -0.0314142 0
    outer loop
      vertex -1.5 0 1.25
      vertex -1.49704 0.0941849 -1.25
      vertex -1.49704 0.0941849 1.25
    endloop
  endfacet
  facet normal 0.999506 -0.0314142 0
    outer loop
      vertex -1.49704 0.0941849 -1.25
      vertex -1.5 0 1.25
      vertex -1.5 0 -1.25
    endloop
  endfacet
  facet normal -0.0314142 -0.999506 0
    outer loop
      vertex 0 1.5 -1.25
      vertex 0.0941849 1.49704 1.25
      vertex 0 1.5 1.25
    endloop
  endfacet
  facet normal -0.0314142 -0.999506 -0
    outer loop
      vertex 0.0941849 1.49704 1.25
      vertex 0 1.5 -1.25
      vertex 0.0941849 1.49704 -1.25
    endloop
  endfacet
  facet normal 0.75011 0.661313 0
    outer loop
      vertex -1.09345 -1.02682 1.25
      vertex -1.15577 -0.956136 -1.25
      vertex -1.15577 -0.956136 1.25
    endloop
  endfacet
  facet normal 0.75011 0.661313 0
    outer loop
      vertex -1.15577 -0.956136 -1.25
      vertex -1.09345 -1.02682 1.25
      vertex -1.09345 -1.02682 -1.25
    endloop
  endfacet
  facet normal -0.707107 -0.707107 0
    outer loop
      vertex 1.09345 1.02682 -1.25
      vertex 1.02682 1.09345 1.25
      vertex 1.02682 1.09345 -1.25
    endloop
  endfacet
  facet normal -0.707107 -0.707107 0
    outer loop
      vertex 1.02682 1.09345 1.25
      vertex 1.09345 1.02682 -1.25
      vertex 1.09345 1.02682 1.25
    endloop
  endfacet
  facet normal 0.661313 -0.75011 0
    outer loop
      vertex -1.02682 1.09345 -1.25
      vertex -0.956136 1.15577 1.25
      vertex -1.02682 1.09345 1.25
    endloop
  endfacet
  facet normal 0.661313 -0.75011 0
    outer loop
      vertex -0.956136 1.15577 1.25
      vertex -1.02682 1.09345 -1.25
      vertex -0.956136 1.15577 -1.25
    endloop
  endfacet
  facet normal 0.338742 -0.940879 0
    outer loop
      vertex -0.552186 1.39466 -1.25
      vertex -0.463525 1.42658 1.25
      vertex -0.552186 1.39466 1.25
    endloop
  endfacet
  facet normal 0.338742 -0.940879 0
    outer loop
      vertex -0.463525 1.42658 1.25
      vertex -0.552186 1.39466 -1.25
      vertex -0.463525 1.42658 -1.25
    endloop
  endfacet
  facet normal -0.917755 -0.397148 0
    outer loop
      vertex 1.39466 0.552186 -1.25
      vertex 1.35724 0.638668 1.25
      vertex 1.35724 0.638668 -1.25
    endloop
  endfacet
  facet normal -0.917755 -0.397148 0
    outer loop
      vertex 1.35724 0.638668 1.25
      vertex 1.39466 0.552186 -1.25
      vertex 1.39466 0.552186 1.25
    endloop
  endfacet
  facet normal -0.397148 -0.917755 0
    outer loop
      vertex 0.552186 1.39466 -1.25
      vertex 0.638668 1.35724 1.25
      vertex 0.552186 1.39466 1.25
    endloop
  endfacet
  facet normal -0.397148 -0.917755 -0
    outer loop
      vertex 0.638668 1.35724 1.25
      vertex 0.552186 1.39466 -1.25
      vertex 0.638668 1.35724 -1.25
    endloop
  endfacet
  facet normal -0.562079 -0.827083 0
    outer loop
      vertex 0.80374 1.26649 -1.25
      vertex 0.881678 1.21352 1.25
      vertex 0.80374 1.26649 1.25
    endloop
  endfacet
  facet normal -0.562079 -0.827083 -0
    outer loop
      vertex 0.881678 1.21352 1.25
      vertex 0.80374 1.26649 -1.25
      vertex 0.881678 1.21352 -1.25
    endloop
  endfacet
  facet normal 0.891011 -0.453981 0
    outer loop
      vertex -1.35724 0.638668 1.25
      vertex -1.31446 0.722631 -1.25
      vertex -1.31446 0.722631 1.25
    endloop
  endfacet
  facet normal 0.891011 -0.453981 0
    outer loop
      vertex -1.31446 0.722631 -1.25
      vertex -1.35724 0.638668 1.25
      vertex -1.35724 0.638668 -1.25
    endloop
  endfacet
  facet normal 0.75011 -0.661313 0
    outer loop
      vertex -1.15577 0.956136 1.25
      vertex -1.09345 1.02682 -1.25
      vertex -1.09345 1.02682 1.25
    endloop
  endfacet
  facet normal 0.75011 -0.661313 0
    outer loop
      vertex -1.09345 1.02682 -1.25
      vertex -1.15577 0.956136 1.25
      vertex -1.15577 0.956136 -1.25
    endloop
  endfacet
  facet normal 0.156432 -0.987689 0
    outer loop
      vertex -0.281072 1.47343 -1.25
      vertex -0.188 1.48817 1.25
      vertex -0.281072 1.47343 1.25
    endloop
  endfacet
  facet normal 0.156432 -0.987689 0
    outer loop
      vertex -0.188 1.48817 1.25
      vertex -0.281072 1.47343 -1.25
      vertex -0.188 1.48817 -1.25
    endloop
  endfacet
  facet normal 0.790156 0.612906 0
    outer loop
      vertex -1.15577 -0.956136 1.25
      vertex -1.21352 -0.881678 -1.25
      vertex -1.21352 -0.881678 1.25
    endloop
  endfacet
  facet normal 0.790156 0.612906 0
    outer loop
      vertex -1.21352 -0.881678 -1.25
      vertex -1.15577 -0.956136 1.25
      vertex -1.15577 -0.956136 -1.25
    endloop
  endfacet
  facet normal 0.995562 0.0941094 0
    outer loop
      vertex -1.48817 -0.188 1.25
      vertex -1.49704 -0.0941849 -1.25
      vertex -1.49704 -0.0941849 1.25
    endloop
  endfacet
  facet normal 0.995562 0.0941094 0
    outer loop
      vertex -1.49704 -0.0941849 -1.25
      vertex -1.48817 -0.188 1.25
      vertex -1.48817 -0.188 -1.25
    endloop
  endfacet
  facet normal -0.975916 -0.218147 0
    outer loop
      vertex 1.47343 0.281072 -1.25
      vertex 1.45287 0.373034 1.25
      vertex 1.45287 0.373034 -1.25
    endloop
  endfacet
  facet normal -0.975916 -0.218147 0
    outer loop
      vertex 1.45287 0.373034 1.25
      vertex 1.47343 0.281072 -1.25
      vertex 1.47343 0.281072 1.25
    endloop
  endfacet
  facet normal -0.960293 -0.278992 0
    outer loop
      vertex 1.45287 0.373034 -1.25
      vertex 1.42658 0.463525 1.25
      vertex 1.42658 0.463525 -1.25
    endloop
  endfacet
  facet normal -0.960293 -0.278992 0
    outer loop
      vertex 1.42658 0.463525 1.25
      vertex 1.45287 0.373034 -1.25
      vertex 1.45287 0.373034 1.25
    endloop
  endfacet
  facet normal -0.827083 -0.562079 0
    outer loop
      vertex 1.26649 0.80374 -1.25
      vertex 1.21352 0.881678 1.25
      vertex 1.21352 0.881678 -1.25
    endloop
  endfacet
  facet normal -0.827083 -0.562079 0
    outer loop
      vertex 1.21352 0.881678 1.25
      vertex 1.26649 0.80374 -1.25
      vertex 1.26649 0.80374 1.25
    endloop
  endfacet
  facet normal -0.790156 -0.612906 0
    outer loop
      vertex 1.21352 0.881678 -1.25
      vertex 1.15577 0.956136 1.25
      vertex 1.15577 0.956136 -1.25
    endloop
  endfacet
  facet normal -0.790156 -0.612906 0
    outer loop
      vertex 1.15577 0.956136 1.25
      vertex 1.21352 0.881678 -1.25
      vertex 1.21352 0.881678 1.25
    endloop
  endfacet
  facet normal -0.891011 -0.453981 0
    outer loop
      vertex 1.35724 0.638668 -1.25
      vertex 1.31446 0.722631 1.25
      vertex 1.31446 0.722631 -1.25
    endloop
  endfacet
  facet normal -0.891011 -0.453981 0
    outer loop
      vertex 1.31446 0.722631 1.25
      vertex 1.35724 0.638668 -1.25
      vertex 1.35724 0.638668 1.25
    endloop
  endfacet
  facet normal -0.278992 -0.960293 0
    outer loop
      vertex 0.373034 1.45287 -1.25
      vertex 0.463525 1.42658 1.25
      vertex 0.373034 1.45287 1.25
    endloop
  endfacet
  facet normal -0.278992 -0.960293 -0
    outer loop
      vertex 0.463525 1.42658 1.25
      vertex 0.373034 1.45287 -1.25
      vertex 0.463525 1.42658 -1.25
    endloop
  endfacet
  facet normal -0.338742 -0.940879 0
    outer loop
      vertex 0.463525 1.42658 -1.25
      vertex 0.552186 1.39466 1.25
      vertex 0.463525 1.42658 1.25
    endloop
  endfacet
  facet normal -0.338742 -0.940879 -0
    outer loop
      vertex 0.552186 1.39466 1.25
      vertex 0.463525 1.42658 -1.25
      vertex 0.552186 1.39466 -1.25
    endloop
  endfacet
  facet normal -0.50905 -0.860737 0
    outer loop
      vertex 0.722631 1.31446 -1.25
      vertex 0.80374 1.26649 1.25
      vertex 0.722631 1.31446 1.25
    endloop
  endfacet
  facet normal -0.50905 -0.860737 -0
    outer loop
      vertex 0.80374 1.26649 1.25
      vertex 0.722631 1.31446 -1.25
      vertex 0.80374 1.26649 -1.25
    endloop
  endfacet
  facet normal -0.612906 -0.790156 0
    outer loop
      vertex 0.881678 1.21352 -1.25
      vertex 0.956136 1.15577 1.25
      vertex 0.881678 1.21352 1.25
    endloop
  endfacet
  facet normal -0.612906 -0.790156 -0
    outer loop
      vertex 0.956136 1.15577 1.25
      vertex 0.881678 1.21352 -1.25
      vertex 0.956136 1.15577 -1.25
    endloop
  endfacet
  facet normal 0.960293 -0.278992 0
    outer loop
      vertex -1.45287 0.373034 1.25
      vertex -1.42658 0.463525 -1.25
      vertex -1.42658 0.463525 1.25
    endloop
  endfacet
  facet normal 0.960293 -0.278992 0
    outer loop
      vertex -1.42658 0.463525 -1.25
      vertex -1.45287 0.373034 1.25
      vertex -1.45287 0.373034 -1.25
    endloop
  endfacet
  facet normal 0.790156 -0.612906 0
    outer loop
      vertex -1.21352 0.881678 1.25
      vertex -1.15577 0.956136 -1.25
      vertex -1.15577 0.956136 1.25
    endloop
  endfacet
  facet normal 0.790156 -0.612906 0
    outer loop
      vertex -1.15577 0.956136 -1.25
      vertex -1.21352 0.881678 1.25
      vertex -1.21352 0.881678 -1.25
    endloop
  endfacet
  facet normal 0.940879 -0.338742 0
    outer loop
      vertex -1.42658 0.463525 1.25
      vertex -1.39466 0.552186 -1.25
      vertex -1.39466 0.552186 1.25
    endloop
  endfacet
  facet normal 0.940879 -0.338742 0
    outer loop
      vertex -1.39466 0.552186 -1.25
      vertex -1.42658 0.463525 1.25
      vertex -1.42658 0.463525 -1.25
    endloop
  endfacet
  facet normal 0.50905 -0.860737 0
    outer loop
      vertex -0.80374 1.26649 -1.25
      vertex -0.722631 1.31446 1.25
      vertex -0.80374 1.26649 1.25
    endloop
  endfacet
  facet normal 0.50905 -0.860737 0
    outer loop
      vertex -0.722631 1.31446 1.25
      vertex -0.80374 1.26649 -1.25
      vertex -0.722631 1.31446 -1.25
    endloop
  endfacet
  facet normal 0.453981 -0.891011 0
    outer loop
      vertex -0.722631 1.31446 -1.25
      vertex -0.638668 1.35724 1.25
      vertex -0.722631 1.31446 1.25
    endloop
  endfacet
  facet normal 0.453981 -0.891011 0
    outer loop
      vertex -0.638668 1.35724 1.25
      vertex -0.722631 1.31446 -1.25
      vertex -0.638668 1.35724 -1.25
    endloop
  endfacet
  facet normal 0.562079 -0.827083 0
    outer loop
      vertex -0.881678 1.21352 -1.25
      vertex -0.80374 1.26649 1.25
      vertex -0.881678 1.21352 1.25
    endloop
  endfacet
  facet normal 0.562079 -0.827083 0
    outer loop
      vertex -0.80374 1.26649 1.25
      vertex -0.881678 1.21352 -1.25
      vertex -0.80374 1.26649 -1.25
    endloop
  endfacet
  facet normal 0.278992 -0.960293 0
    outer loop
      vertex -0.463525 1.42658 -1.25
      vertex -0.373034 1.45287 1.25
      vertex -0.463525 1.42658 1.25
    endloop
  endfacet
  facet normal 0.278992 -0.960293 0
    outer loop
      vertex -0.373034 1.45287 1.25
      vertex -0.463525 1.42658 -1.25
      vertex -0.373034 1.45287 -1.25
    endloop
  endfacet
  facet normal 0.0314142 -0.999506 0
    outer loop
      vertex -0.0941849 1.49704 -1.25
      vertex 0 1.5 1.25
      vertex -0.0941849 1.49704 1.25
    endloop
  endfacet
  facet normal 0.0314142 -0.999506 0
    outer loop
      vertex 0 1.5 1.25
      vertex -0.0941849 1.49704 -1.25
      vertex 0 1.5 -1.25
    endloop
  endfacet
  facet normal -0.987689 0.156432 0
    outer loop
      vertex 1.47343 -0.281072 -1.25
      vertex 1.48817 -0.188 1.25
      vertex 1.48817 -0.188 -1.25
    endloop
  endfacet
  facet normal -0.987689 0.156432 0
    outer loop
      vertex 1.48817 -0.188 1.25
      vertex 1.47343 -0.281072 -1.25
      vertex 1.47343 -0.281072 1.25
    endloop
  endfacet
  facet normal -0.0941094 0.995562 0
    outer loop
      vertex 0.188 -1.48817 -1.25
      vertex 0.0941849 -1.49704 1.25
      vertex 0.188 -1.48817 1.25
    endloop
  endfacet
  facet normal -0.0941094 0.995562 0
    outer loop
      vertex 0.0941849 -1.49704 1.25
      vertex 0.188 -1.48817 -1.25
      vertex 0.0941849 -1.49704 -1.25
    endloop
  endfacet
  facet normal -0.0314142 0.999506 0
    outer loop
      vertex 0.0941849 -1.49704 -1.25
      vertex 0 -1.5 1.25
      vertex 0.0941849 -1.49704 1.25
    endloop
  endfacet
  facet normal -0.0314142 0.999506 0
    outer loop
      vertex 0 -1.5 1.25
      vertex 0.0941849 -1.49704 -1.25
      vertex 0 -1.5 -1.25
    endloop
  endfacet
  facet normal -0.397148 0.917755 0
    outer loop
      vertex 0.638668 -1.35724 -1.25
      vertex 0.552186 -1.39466 1.25
      vertex 0.638668 -1.35724 1.25
    endloop
  endfacet
  facet normal -0.397148 0.917755 0
    outer loop
      vertex 0.552186 -1.39466 1.25
      vertex 0.638668 -1.35724 -1.25
      vertex 0.552186 -1.39466 -1.25
    endloop
  endfacet
  facet normal -0.612906 0.790156 0
    outer loop
      vertex 0.956136 -1.15577 -1.25
      vertex 0.881678 -1.21352 1.25
      vertex 0.956136 -1.15577 1.25
    endloop
  endfacet
  facet normal -0.612906 0.790156 0
    outer loop
      vertex 0.881678 -1.21352 1.25
      vertex 0.956136 -1.15577 -1.25
      vertex 0.881678 -1.21352 -1.25
    endloop
  endfacet
  facet normal -0.707107 0.707107 0
    outer loop
      vertex 1.02682 -1.09345 -1.25
      vertex 1.09345 -1.02682 1.25
      vertex 1.09345 -1.02682 -1.25
    endloop
  endfacet
  facet normal -0.707107 0.707107 0
    outer loop
      vertex 1.09345 -1.02682 1.25
      vertex 1.02682 -1.09345 -1.25
      vertex 1.02682 -1.09345 1.25
    endloop
  endfacet
  facet normal -0.562079 0.827083 0
    outer loop
      vertex 0.881678 -1.21352 -1.25
      vertex 0.80374 -1.26649 1.25
      vertex 0.881678 -1.21352 1.25
    endloop
  endfacet
  facet normal -0.562079 0.827083 0
    outer loop
      vertex 0.80374 -1.26649 1.25
      vertex 0.881678 -1.21352 -1.25
      vertex 0.80374 -1.26649 -1.25
    endloop
  endfacet
  facet normal -0.453981 0.891011 0
    outer loop
      vertex 0.722631 -1.31446 -1.25
      vertex 0.638668 -1.35724 1.25
      vertex 0.722631 -1.31446 1.25
    endloop
  endfacet
  facet normal -0.453981 0.891011 0
    outer loop
      vertex 0.638668 -1.35724 1.25
      vertex 0.722631 -1.31446 -1.25
      vertex 0.638668 -1.35724 -1.25
    endloop
  endfacet
  facet normal -0.827083 0.562079 0
    outer loop
      vertex 1.21352 -0.881678 -1.25
      vertex 1.26649 -0.80374 1.25
      vertex 1.26649 -0.80374 -1.25
    endloop
  endfacet
  facet normal -0.827083 0.562079 0
    outer loop
      vertex 1.26649 -0.80374 1.25
      vertex 1.21352 -0.881678 -1.25
      vertex 1.21352 -0.881678 1.25
    endloop
  endfacet
  facet normal -0.960293 0.278992 0
    outer loop
      vertex 1.42658 -0.463525 -1.25
      vertex 1.45287 -0.373034 1.25
      vertex 1.45287 -0.373034 -1.25
    endloop
  endfacet
  facet normal -0.960293 0.278992 0
    outer loop
      vertex 1.45287 -0.373034 1.25
      vertex 1.42658 -0.463525 -1.25
      vertex 1.42658 -0.463525 1.25
    endloop
  endfacet
  facet normal 0.278992 0.960293 -0
    outer loop
      vertex -0.373034 -1.45287 -1.25
      vertex -0.463525 -1.42658 1.25
      vertex -0.373034 -1.45287 1.25
    endloop
  endfacet
  facet normal 0.278992 0.960293 0
    outer loop
      vertex -0.463525 -1.42658 1.25
      vertex -0.373034 -1.45287 -1.25
      vertex -0.463525 -1.42658 -1.25
    endloop
  endfacet
  facet normal 0.860737 0.50905 0
    outer loop
      vertex -1.26649 -0.80374 1.25
      vertex -1.31446 -0.722631 -1.25
      vertex -1.31446 -0.722631 1.25
    endloop
  endfacet
  facet normal 0.860737 0.50905 0
    outer loop
      vertex -1.31446 -0.722631 -1.25
      vertex -1.26649 -0.80374 1.25
      vertex -1.26649 -0.80374 -1.25
    endloop
  endfacet
  facet normal 0.827083 0.562079 0
    outer loop
      vertex -1.21352 -0.881678 1.25
      vertex -1.26649 -0.80374 -1.25
      vertex -1.26649 -0.80374 1.25
    endloop
  endfacet
  facet normal 0.827083 0.562079 0
    outer loop
      vertex -1.26649 -0.80374 -1.25
      vertex -1.21352 -0.881678 1.25
      vertex -1.21352 -0.881678 -1.25
    endloop
  endfacet
  facet normal 0.940879 0.338742 0
    outer loop
      vertex -1.39466 -0.552186 1.25
      vertex -1.42658 -0.463525 -1.25
      vertex -1.42658 -0.463525 1.25
    endloop
  endfacet
  facet normal 0.940879 0.338742 0
    outer loop
      vertex -1.42658 -0.463525 -1.25
      vertex -1.39466 -0.552186 1.25
      vertex -1.39466 -0.552186 -1.25
    endloop
  endfacet
  facet normal 0.999506 0.0314142 0
    outer loop
      vertex -1.49704 -0.0941849 1.25
      vertex -1.5 0 -1.25
      vertex -1.5 0 1.25
    endloop
  endfacet
  facet normal 0.999506 0.0314142 0
    outer loop
      vertex -1.5 0 -1.25
      vertex -1.49704 -0.0941849 1.25
      vertex -1.49704 -0.0941849 -1.25
    endloop
  endfacet
  facet normal -0.987689 -0.156432 0
    outer loop
      vertex 1.48817 0.188 -1.25
      vertex 1.47343 0.281072 1.25
      vertex 1.47343 0.281072 -1.25
    endloop
  endfacet
  facet normal -0.987689 -0.156432 0
    outer loop
      vertex 1.47343 0.281072 1.25
      vertex 1.48817 0.188 -1.25
      vertex 1.48817 0.188 1.25
    endloop
  endfacet
  facet normal -0.995562 -0.0941094 0
    outer loop
      vertex 1.49704 0.0941849 -1.25
      vertex 1.48817 0.188 1.25
      vertex 1.48817 0.188 -1.25
    endloop
  endfacet
  facet normal -0.995562 -0.0941094 0
    outer loop
      vertex 1.48817 0.188 1.25
      vertex 1.49704 0.0941849 -1.25
      vertex 1.49704 0.0941849 1.25
    endloop
  endfacet
  facet normal -0.218147 -0.975916 0
    outer loop
      vertex 0.281072 1.47343 -1.25
      vertex 0.373034 1.45287 1.25
      vertex 0.281072 1.47343 1.25
    endloop
  endfacet
  facet normal -0.218147 -0.975916 -0
    outer loop
      vertex 0.373034 1.45287 1.25
      vertex 0.281072 1.47343 -1.25
      vertex 0.373034 1.45287 -1.25
    endloop
  endfacet
  facet normal -0.156432 -0.987689 0
    outer loop
      vertex 0.188 1.48817 -1.25
      vertex 0.281072 1.47343 1.25
      vertex 0.188 1.48817 1.25
    endloop
  endfacet
  facet normal -0.156432 -0.987689 -0
    outer loop
      vertex 0.281072 1.47343 1.25
      vertex 0.188 1.48817 -1.25
      vertex 0.281072 1.47343 -1.25
    endloop
  endfacet
  facet normal -0.0941094 -0.995562 0
    outer loop
      vertex 0.0941849 1.49704 -1.25
      vertex 0.188 1.48817 1.25
      vertex 0.0941849 1.49704 1.25
    endloop
  endfacet
  facet normal -0.0941094 -0.995562 -0
    outer loop
      vertex 0.188 1.48817 1.25
      vertex 0.0941849 1.49704 -1.25
      vertex 0.188 1.48817 -1.25
    endloop
  endfacet
  facet normal -0.661313 -0.75011 0
    outer loop
      vertex 0.956136 1.15577 -1.25
      vertex 1.02682 1.09345 1.25
      vertex 0.956136 1.15577 1.25
    endloop
  endfacet
  facet normal -0.661313 -0.75011 -0
    outer loop
      vertex 1.02682 1.09345 1.25
      vertex 0.956136 1.15577 -1.25
      vertex 1.02682 1.09345 -1.25
    endloop
  endfacet
  facet normal 0.707107 -0.707107 0
    outer loop
      vertex -1.09345 1.02682 1.25
      vertex -1.02682 1.09345 -1.25
      vertex -1.02682 1.09345 1.25
    endloop
  endfacet
  facet normal 0.707107 -0.707107 0
    outer loop
      vertex -1.02682 1.09345 -1.25
      vertex -1.09345 1.02682 1.25
      vertex -1.09345 1.02682 -1.25
    endloop
  endfacet
  facet normal 0.827083 -0.562079 0
    outer loop
      vertex -1.26649 0.80374 1.25
      vertex -1.21352 0.881678 -1.25
      vertex -1.21352 0.881678 1.25
    endloop
  endfacet
  facet normal 0.827083 -0.562079 0
    outer loop
      vertex -1.21352 0.881678 -1.25
      vertex -1.26649 0.80374 1.25
      vertex -1.26649 0.80374 -1.25
    endloop
  endfacet
  facet normal 0.860737 -0.50905 0
    outer loop
      vertex -1.31446 0.722631 1.25
      vertex -1.26649 0.80374 -1.25
      vertex -1.26649 0.80374 1.25
    endloop
  endfacet
  facet normal 0.860737 -0.50905 0
    outer loop
      vertex -1.26649 0.80374 -1.25
      vertex -1.31446 0.722631 1.25
      vertex -1.31446 0.722631 -1.25
    endloop
  endfacet
  facet normal 0.917755 -0.397148 0
    outer loop
      vertex -1.39466 0.552186 1.25
      vertex -1.35724 0.638668 -1.25
      vertex -1.35724 0.638668 1.25
    endloop
  endfacet
  facet normal 0.917755 -0.397148 0
    outer loop
      vertex -1.35724 0.638668 -1.25
      vertex -1.39466 0.552186 1.25
      vertex -1.39466 0.552186 -1.25
    endloop
  endfacet
  facet normal 0.975916 -0.218147 0
    outer loop
      vertex -1.47343 0.281072 1.25
      vertex -1.45287 0.373034 -1.25
      vertex -1.45287 0.373034 1.25
    endloop
  endfacet
  facet normal 0.975916 -0.218147 0
    outer loop
      vertex -1.45287 0.373034 -1.25
      vertex -1.47343 0.281072 1.25
      vertex -1.47343 0.281072 -1.25
    endloop
  endfacet
  facet normal 0.995562 -0.0941094 0
    outer loop
      vertex -1.49704 0.0941849 1.25
      vertex -1.48817 0.188 -1.25
      vertex -1.48817 0.188 1.25
    endloop
  endfacet
  facet normal 0.995562 -0.0941094 0
    outer loop
      vertex -1.48817 0.188 -1.25
      vertex -1.49704 0.0941849 1.25
      vertex -1.49704 0.0941849 -1.25
    endloop
  endfacet
  facet normal 0.612906 -0.790156 0
    outer loop
      vertex -0.956136 1.15577 -1.25
      vertex -0.881678 1.21352 1.25
      vertex -0.956136 1.15577 1.25
    endloop
  endfacet
  facet normal 0.612906 -0.790156 0
    outer loop
      vertex -0.881678 1.21352 1.25
      vertex -0.956136 1.15577 -1.25
      vertex -0.881678 1.21352 -1.25
    endloop
  endfacet
  facet normal 0.218147 -0.975916 0
    outer loop
      vertex -0.373034 1.45287 -1.25
      vertex -0.281072 1.47343 1.25
      vertex -0.373034 1.45287 1.25
    endloop
  endfacet
  facet normal 0.218147 -0.975916 0
    outer loop
      vertex -0.281072 1.47343 1.25
      vertex -0.373034 1.45287 -1.25
      vertex -0.281072 1.47343 -1.25
    endloop
  endfacet
  facet normal 0.0941094 -0.995562 0
    outer loop
      vertex -0.188 1.48817 -1.25
      vertex -0.0941849 1.49704 1.25
      vertex -0.188 1.48817 1.25
    endloop
  endfacet
  facet normal 0.0941094 -0.995562 0
    outer loop
      vertex -0.0941849 1.49704 1.25
      vertex -0.188 1.48817 -1.25
      vertex -0.0941849 1.49704 -1.25
    endloop
  endfacet
  facet normal -0.999506 0.0314142 0
    outer loop
      vertex 1.49704 -0.0941849 -1.25
      vertex 1.5 0 1.25
      vertex 1.5 0 -1.25
    endloop
  endfacet
  facet normal -0.999506 0.0314142 0
    outer loop
      vertex 1.5 0 1.25
      vertex 1.49704 -0.0941849 -1.25
      vertex 1.49704 -0.0941849 1.25
    endloop
  endfacet
  facet normal -0.218147 0.975916 0
    outer loop
      vertex 0.373034 -1.45287 -1.25
      vertex 0.281072 -1.47343 1.25
      vertex 0.373034 -1.45287 1.25
    endloop
  endfacet
  facet normal -0.218147 0.975916 0
    outer loop
      vertex 0.281072 -1.47343 1.25
      vertex 0.373034 -1.45287 -1.25
      vertex 0.281072 -1.47343 -1.25
    endloop
  endfacet
  facet normal -0.338742 0.940879 0
    outer loop
      vertex 0.552186 -1.39466 -1.25
      vertex 0.463525 -1.42658 1.25
      vertex 0.552186 -1.39466 1.25
    endloop
  endfacet
  facet normal -0.338742 0.940879 0
    outer loop
      vertex 0.463525 -1.42658 1.25
      vertex 0.552186 -1.39466 -1.25
      vertex 0.463525 -1.42658 -1.25
    endloop
  endfacet
  facet normal -0.278992 0.960293 0
    outer loop
      vertex 0.463525 -1.42658 -1.25
      vertex 0.373034 -1.45287 1.25
      vertex 0.463525 -1.42658 1.25
    endloop
  endfacet
  facet normal -0.278992 0.960293 0
    outer loop
      vertex 0.373034 -1.45287 1.25
      vertex 0.463525 -1.42658 -1.25
      vertex 0.373034 -1.45287 -1.25
    endloop
  endfacet
  facet normal -0.661313 0.75011 0
    outer loop
      vertex 1.02682 -1.09345 -1.25
      vertex 0.956136 -1.15577 1.25
      vertex 1.02682 -1.09345 1.25
    endloop
  endfacet
  facet normal -0.661313 0.75011 0
    outer loop
      vertex 0.956136 -1.15577 1.25
      vertex 1.02682 -1.09345 -1.25
      vertex 0.956136 -1.15577 -1.25
    endloop
  endfacet
  facet normal -0.50905 0.860737 0
    outer loop
      vertex 0.80374 -1.26649 -1.25
      vertex 0.722631 -1.31446 1.25
      vertex 0.80374 -1.26649 1.25
    endloop
  endfacet
  facet normal -0.50905 0.860737 0
    outer loop
      vertex 0.722631 -1.31446 1.25
      vertex 0.80374 -1.26649 -1.25
      vertex 0.722631 -1.31446 -1.25
    endloop
  endfacet
  facet normal -0.75011 0.661313 0
    outer loop
      vertex 1.09345 -1.02682 -1.25
      vertex 1.15577 -0.956136 1.25
      vertex 1.15577 -0.956136 -1.25
    endloop
  endfacet
  facet normal -0.75011 0.661313 0
    outer loop
      vertex 1.15577 -0.956136 1.25
      vertex 1.09345 -1.02682 -1.25
      vertex 1.09345 -1.02682 1.25
    endloop
  endfacet
  facet normal -0.790156 0.612906 0
    outer loop
      vertex 1.15577 -0.956136 -1.25
      vertex 1.21352 -0.881678 1.25
      vertex 1.21352 -0.881678 -1.25
    endloop
  endfacet
  facet normal -0.790156 0.612906 0
    outer loop
      vertex 1.21352 -0.881678 1.25
      vertex 1.15577 -0.956136 -1.25
      vertex 1.15577 -0.956136 1.25
    endloop
  endfacet
  facet normal -0.891011 0.453981 0
    outer loop
      vertex 1.31446 -0.722631 -1.25
      vertex 1.35724 -0.638668 1.25
      vertex 1.35724 -0.638668 -1.25
    endloop
  endfacet
  facet normal -0.891011 0.453981 0
    outer loop
      vertex 1.35724 -0.638668 1.25
      vertex 1.31446 -0.722631 -1.25
      vertex 1.31446 -0.722631 1.25
    endloop
  endfacet
  facet normal -0.940879 0.338742 0
    outer loop
      vertex 1.39466 -0.552186 -1.25
      vertex 1.42658 -0.463525 1.25
      vertex 1.42658 -0.463525 -1.25
    endloop
  endfacet
  facet normal -0.940879 0.338742 0
    outer loop
      vertex 1.42658 -0.463525 1.25
      vertex 1.39466 -0.552186 -1.25
      vertex 1.39466 -0.552186 1.25
    endloop
  endfacet
  facet normal -0.917755 0.397148 0
    outer loop
      vertex 1.35724 -0.638668 -1.25
      vertex 1.39466 -0.552186 1.25
      vertex 1.39466 -0.552186 -1.25
    endloop
  endfacet
  facet normal -0.917755 0.397148 0
    outer loop
      vertex 1.39466 -0.552186 1.25
      vertex 1.35724 -0.638668 -1.25
      vertex 1.35724 -0.638668 1.25
    endloop
  endfacet
  facet normal -0.975916 0.218147 0
    outer loop
      vertex 1.45287 -0.373034 -1.25
      vertex 1.47343 -0.281072 1.25
      vertex 1.47343 -0.281072 -1.25
    endloop
  endfacet
  facet normal -0.975916 0.218147 0
    outer loop
      vertex 1.47343 -0.281072 1.25
      vertex 1.45287 -0.373034 -1.25
      vertex 1.45287 -0.373034 1.25
    endloop
  endfacet
  facet normal 0.612906 0.790156 -0
    outer loop
      vertex -0.881678 -1.21352 -1.25
      vertex -0.956136 -1.15577 1.25
      vertex -0.881678 -1.21352 1.25
    endloop
  endfacet
  facet normal 0.612906 0.790156 0
    outer loop
      vertex -0.956136 -1.15577 1.25
      vertex -0.881678 -1.21352 -1.25
      vertex -0.956136 -1.15577 -1.25
    endloop
  endfacet
  facet normal 0.707107 0.707107 0
    outer loop
      vertex -1.02682 -1.09345 1.25
      vertex -1.09345 -1.02682 -1.25
      vertex -1.09345 -1.02682 1.25
    endloop
  endfacet
  facet normal 0.707107 0.707107 0
    outer loop
      vertex -1.09345 -1.02682 -1.25
      vertex -1.02682 -1.09345 1.25
      vertex -1.02682 -1.09345 -1.25
    endloop
  endfacet
  facet normal 0.661313 0.75011 -0
    outer loop
      vertex -0.956136 -1.15577 -1.25
      vertex -1.02682 -1.09345 1.25
      vertex -0.956136 -1.15577 1.25
    endloop
  endfacet
  facet normal 0.661313 0.75011 0
    outer loop
      vertex -1.02682 -1.09345 1.25
      vertex -0.956136 -1.15577 -1.25
      vertex -1.02682 -1.09345 -1.25
    endloop
  endfacet
  facet normal 0.562079 0.827083 -0
    outer loop
      vertex -0.80374 -1.26649 -1.25
      vertex -0.881678 -1.21352 1.25
      vertex -0.80374 -1.26649 1.25
    endloop
  endfacet
  facet normal 0.562079 0.827083 0
    outer loop
      vertex -0.881678 -1.21352 1.25
      vertex -0.80374 -1.26649 -1.25
      vertex -0.881678 -1.21352 -1.25
    endloop
  endfacet
  facet normal 0.453981 0.891011 -0
    outer loop
      vertex -0.638668 -1.35724 -1.25
      vertex -0.722631 -1.31446 1.25
      vertex -0.638668 -1.35724 1.25
    endloop
  endfacet
  facet normal 0.453981 0.891011 0
    outer loop
      vertex -0.722631 -1.31446 1.25
      vertex -0.638668 -1.35724 -1.25
      vertex -0.722631 -1.31446 -1.25
    endloop
  endfacet
  facet normal 0.397148 0.917755 -0
    outer loop
      vertex -0.552186 -1.39466 -1.25
      vertex -0.638668 -1.35724 1.25
      vertex -0.552186 -1.39466 1.25
    endloop
  endfacet
  facet normal 0.397148 0.917755 0
    outer loop
      vertex -0.638668 -1.35724 1.25
      vertex -0.552186 -1.39466 -1.25
      vertex -0.638668 -1.35724 -1.25
    endloop
  endfacet
  facet normal 0.338742 0.940879 -0
    outer loop
      vertex -0.463525 -1.42658 -1.25
      vertex -0.552186 -1.39466 1.25
      vertex -0.463525 -1.42658 1.25
    endloop
  endfacet
  facet normal 0.338742 0.940879 0
    outer loop
      vertex -0.552186 -1.39466 1.25
      vertex -0.463525 -1.42658 -1.25
      vertex -0.552186 -1.39466 -1.25
    endloop
  endfacet
  facet normal 0.156432 0.987689 -0
    outer loop
      vertex -0.188 -1.48817 -1.25
      vertex -0.281072 -1.47343 1.25
      vertex -0.188 -1.48817 1.25
    endloop
  endfacet
  facet normal 0.156432 0.987689 0
    outer loop
      vertex -0.281072 -1.47343 1.25
      vertex -0.188 -1.48817 -1.25
      vertex -0.281072 -1.47343 -1.25
    endloop
  endfacet
  facet normal 0.0314142 0.999506 -0
    outer loop
      vertex 0 -1.5 -1.25
      vertex -0.0941849 -1.49704 1.25
      vertex 0 -1.5 1.25
    endloop
  endfacet
  facet normal 0.0314142 0.999506 0
    outer loop
      vertex -0.0941849 -1.49704 1.25
      vertex 0 -1.5 -1.25
      vertex -0.0941849 -1.49704 -1.25
    endloop
  endfacet
  facet normal 0.917755 0.397148 0
    outer loop
      vertex -1.35724 -0.638668 1.25
      vertex -1.39466 -0.552186 -1.25
      vertex -1.39466 -0.552186 1.25
    endloop
  endfacet
  facet normal 0.917755 0.397148 0
    outer loop
      vertex -1.39466 -0.552186 -1.25
      vertex -1.35724 -0.638668 1.25
      vertex -1.35724 -0.638668 -1.25
    endloop
  endfacet
  facet normal 0.975916 0.218147 0
    outer loop
      vertex -1.45287 -0.373034 1.25
      vertex -1.47343 -0.281072 -1.25
      vertex -1.47343 -0.281072 1.25
    endloop
  endfacet
  facet normal 0.975916 0.218147 0
    outer loop
      vertex -1.47343 -0.281072 -1.25
      vertex -1.45287 -0.373034 1.25
      vertex -1.45287 -0.373034 -1.25
    endloop
  endfacet
  facet normal 0.987689 0.156432 0
    outer loop
      vertex -1.47343 -0.281072 1.25
      vertex -1.48817 -0.188 -1.25
      vertex -1.48817 -0.188 1.25
    endloop
  endfacet
  facet normal 0.987689 0.156432 0
    outer loop
      vertex -1.48817 -0.188 -1.25
      vertex -1.47343 -0.281072 1.25
      vertex -1.47343 -0.281072 -1.25
    endloop
  endfacet
  facet normal -0.940879 -0.338742 0
    outer loop
      vertex 1.42658 0.463525 -1.25
      vertex 1.39466 0.552186 1.25
      vertex 1.39466 0.552186 -1.25
    endloop
  endfacet
  facet normal -0.940879 -0.338742 0
    outer loop
      vertex 1.39466 0.552186 1.25
      vertex 1.42658 0.463525 -1.25
      vertex 1.42658 0.463525 1.25
    endloop
  endfacet
  facet normal -0.75011 -0.661313 0
    outer loop
      vertex 1.15577 0.956136 -1.25
      vertex 1.09345 1.02682 1.25
      vertex 1.09345 1.02682 -1.25
    endloop
  endfacet
  facet normal -0.75011 -0.661313 0
    outer loop
      vertex 1.09345 1.02682 1.25
      vertex 1.15577 0.956136 -1.25
      vertex 1.15577 0.956136 1.25
    endloop
  endfacet
  facet normal -0.860737 -0.50905 0
    outer loop
      vertex 1.31446 0.722631 -1.25
      vertex 1.26649 0.80374 1.25
      vertex 1.26649 0.80374 -1.25
    endloop
  endfacet
  facet normal -0.860737 -0.50905 0
    outer loop
      vertex 1.26649 0.80374 1.25
      vertex 1.31446 0.722631 -1.25
      vertex 1.31446 0.722631 1.25
    endloop
  endfacet
  facet normal -0.453981 -0.891011 0
    outer loop
      vertex 0.638668 1.35724 -1.25
      vertex 0.722631 1.31446 1.25
      vertex 0.638668 1.35724 1.25
    endloop
  endfacet
  facet normal -0.453981 -0.891011 -0
    outer loop
      vertex 0.722631 1.31446 1.25
      vertex 0.638668 1.35724 -1.25
      vertex 0.722631 1.31446 -1.25
    endloop
  endfacet
  facet normal 0.987689 -0.156432 0
    outer loop
      vertex -1.48817 0.188 1.25
      vertex -1.47343 0.281072 -1.25
      vertex -1.47343 0.281072 1.25
    endloop
  endfacet
  facet normal 0.987689 -0.156432 0
    outer loop
      vertex -1.47343 0.281072 -1.25
      vertex -1.48817 0.188 1.25
      vertex -1.48817 0.188 -1.25
    endloop
  endfacet
  facet normal 0.397148 -0.917755 0
    outer loop
      vertex -0.638668 1.35724 -1.25
      vertex -0.552186 1.39466 1.25
      vertex -0.638668 1.35724 1.25
    endloop
  endfacet
  facet normal 0.397148 -0.917755 0
    outer loop
      vertex -0.552186 1.39466 1.25
      vertex -0.638668 1.35724 -1.25
      vertex -0.552186 1.39466 -1.25
    endloop
  endfacet
  facet normal -0.156432 0.987689 0
    outer loop
      vertex 0.281072 -1.47343 -1.25
      vertex 0.188 -1.48817 1.25
      vertex 0.281072 -1.47343 1.25
    endloop
  endfacet
  facet normal -0.156432 0.987689 0
    outer loop
      vertex 0.188 -1.48817 1.25
      vertex 0.281072 -1.47343 -1.25
      vertex 0.188 -1.48817 -1.25
    endloop
  endfacet
  facet normal -0.860737 0.50905 0
    outer loop
      vertex 1.26649 -0.80374 -1.25
      vertex 1.31446 -0.722631 1.25
      vertex 1.31446 -0.722631 -1.25
    endloop
  endfacet
  facet normal -0.860737 0.50905 0
    outer loop
      vertex 1.31446 -0.722631 1.25
      vertex 1.26649 -0.80374 -1.25
      vertex 1.26649 -0.80374 1.25
    endloop
  endfacet
  facet normal -0.995562 0.0941094 0
    outer loop
      vertex 1.48817 -0.188 -1.25
      vertex 1.49704 -0.0941849 1.25
      vertex 1.49704 -0.0941849 -1.25
    endloop
  endfacet
  facet normal -0.995562 0.0941094 0
    outer loop
      vertex 1.49704 -0.0941849 1.25
      vertex 1.48817 -0.188 -1.25
      vertex 1.48817 -0.188 1.25
    endloop
  endfacet
  facet normal 0.50905 0.860737 -0
    outer loop
      vertex -0.722631 -1.31446 -1.25
      vertex -0.80374 -1.26649 1.25
      vertex -0.722631 -1.31446 1.25
    endloop
  endfacet
  facet normal 0.50905 0.860737 0
    outer loop
      vertex -0.80374 -1.26649 1.25
      vertex -0.722631 -1.31446 -1.25
      vertex -0.80374 -1.26649 -1.25
    endloop
  endfacet
  facet normal 0.218147 0.975916 -0
    outer loop
      vertex -0.281072 -1.47343 -1.25
      vertex -0.373034 -1.45287 1.25
      vertex -0.281072 -1.47343 1.25
    endloop
  endfacet
  facet normal 0.218147 0.975916 0
    outer loop
      vertex -0.373034 -1.45287 1.25
      vertex -0.281072 -1.47343 -1.25
      vertex -0.373034 -1.45287 -1.25
    endloop
  endfacet
  facet normal 0.0941094 0.995562 -0
    outer loop
      vertex -0.0941849 -1.49704 -1.25
      vertex -0.188 -1.48817 1.25
      vertex -0.0941849 -1.49704 1.25
    endloop
  endfacet
  facet normal 0.0941094 0.995562 0
    outer loop
      vertex -0.188 -1.48817 1.25
      vertex -0.0941849 -1.49704 -1.25
      vertex -0.188 -1.48817 -1.25
    endloop
  endfacet
  facet normal 0.891011 0.453981 0
    outer loop
      vertex -1.31446 -0.722631 1.25
      vertex -1.35724 -0.638668 -1.25
      vertex -1.35724 -0.638668 1.25
    endloop
  endfacet
  facet normal 0.891011 0.453981 0
    outer loop
      vertex -1.35724 -0.638668 -1.25
      vertex -1.31446 -0.722631 1.25
      vertex -1.31446 -0.722631 -1.25
    endloop
  endfacet
  facet normal 0.960293 0.278992 0
    outer loop
      vertex -1.42658 -0.463525 1.25
      vertex -1.45287 -0.373034 -1.25
      vertex -1.45287 -0.373034 1.25
    endloop
  endfacet
  facet normal 0.960293 0.278992 0
    outer loop
      vertex -1.45287 -0.373034 -1.25
      vertex -1.42658 -0.463525 1.25
      vertex -1.42658 -0.463525 -1.25
    endloop
  endfacet
endsolid OpenSCAD_Model
