999
dxfrw 0.5.10
0
SECTION
2
HEADER
9
$ACADVER
1
AC1021
9
$HANDSEED
5
20000
9
$DWGCODEPAGE
3
ANSI_1252
9
$INSBASE
10
0
20
0
30
0
9
$EXTMIN
10
25.7
20
80.3
30
0
9
$EXTMAX
10
29.9
20
84.5
30
0
9
$LIMMIN
10
0
20
0
9
$LIMMAX
10
420
20
297
9
$ORTHOMODE
70
0
9
$LTSCALE
40
1
9
$TEXTSTYLE
7
STANDARD
9
$CLAYER
8
cot
9
$DIMASZ
40
0.1
9
$DIMLFAC
40
1
9
$DIMSCALE
40
1
9
$DIMEXO
40
0.025
9
$DIMEXE
40
0.05
9
$DIMTXT
40
0.1
9
$DIMTSZ
40
0
9
$DIMAUNIT
70
0
9
$DIMADEC
70
2
9
$DIMLUNIT
70
2
9
$DIMSTYLE
2
STANDARD
9
$DIMGAP
40
0.025
9
$DIMTIH
70
0
9
$LUNITS
70
2
9
$LUPREC
70
3
9
$AUNITS
70
0
9
$AUPREC
70
2
9
$SPLINESEGS
70
8
9
$GRIDMODE
70
1
9
$SNAPSTYLE
70
0
9
$GRIDUNIT
10
0.1
20
0.1
9
$PINSBASE
10
-42.3631421072
20
-138.760779902
30
0
9
$PLIMMIN
10
0
20
0
9
$PLIMMAX
10
11.6929133858
20
8.26771653543
9
$INSUNITS
70
1
9
$PSVPSCALE
40
1.73415823022
0
ENDSEC
0
SECTION
2
CLASSES
0
ENDSEC
0
SECTION
2
TABLES
0
TABLE
2
VPORT
5
8
330
0
100
AcDbSymbolTable
70
1
0
VPORT
5
31
330
2
100
AcDbSymbolTableRecord
100
AcDbViewportTableRecord
2
*ACTIVE
70
0
10
0
20
0
11
1
21
1
12
15.4197851179
22
42.2896441282
13
0
23
0
14
10
24
10
15
0.1
25
0.1
16
0
26
0
36
1
17
0
27
0
37
0
40
4.59059783976
41
1.33956834532
42
50
43
0
44
0
50
0
51
0
71
0
72
100
73
1
74
3
75
0
76
1
77
0
78
0
281
0
65
1
110
0
120
0
130
0
111
1
121
0
131
0
112
0
122
1
132
0
79
0
146
0
348
10020
60
3
61
5
292
1
282
1
141
0
142
0
63
250
421
3358443
0
ENDTAB
0
TABLE
2
LTYPE
5
5
330
0
100
AcDbSymbolTable
70
4
0
LTYPE
5
14
330
5
100
AcDbSymbolTableRecord
100
AcDbLinetypeTableRecord
2
ByBlock
70
0
3

72
65
73
0
40
0
0
LTYPE
5
15
330
5
100
AcDbSymbolTableRecord
100
AcDbLinetypeTableRecord
2
ByLayer
70
0
3

72
65
73
0
40
0
0
LTYPE
5
16
330
5
100
AcDbSymbolTableRecord
100
AcDbLinetypeTableRecord
2
Continuous
70
0
3
Solid line
72
65
73
0
40
0
0
LTYPE
5
32
330
5
100
AcDbSymbolTableRecord
100
AcDbLinetypeTableRecord
2
DOT
70
0
3
Dot . . . . . . . . . . . . . . . . . . . . . .
72
65
73
2
40
6.35
49
0
74
0
49
-6.35
74
0
0
LTYPE
5
33
330
5
100
AcDbSymbolTableRecord
100
AcDbLinetypeTableRecord
2
DOT2
70
0
3
Dot (.5x) .....................................
72
65
73
2
40
3.175
49
0
74
0
49
-3.175
74
0
0
LTYPE
5
34
330
5
100
AcDbSymbolTableRecord
100
AcDbLinetypeTableRecord
2
DOTX2
70
0
3
Dot (2x) .  .  .  .  .  .  .  .  .  .  .  .  .
72
65
73
2
40
12.7
49
0
74
0
49
-12.7
74
0
0
LTYPE
5
35
330
5
100
AcDbSymbolTableRecord
100
AcDbLinetypeTableRecord
2
DASHED
70
0
3
Dot . . . . . . . . . . . . . . . . . . . . . .
72
65
73
2
40
19.05
49
12.7
74
0
49
-6.35
74
0
0
LTYPE
5
36
330
5
100
AcDbSymbolTableRecord
100
AcDbLinetypeTableRecord
2
DASHED2
70
0
3
Dashed (.5x) _ _ _ _ _ _ _ _ _ _ _ _ _ _ _ _ _
72
65
73
2
40
9.525
49
6.35
74
0
49
-3.175
74
0
0
LTYPE
5
37
330
5
100
AcDbSymbolTableRecord
100
AcDbLinetypeTableRecord
2
DASHEDX2
70
0
3
Dashed (2x) ____  ____  ____  ____  ____  ___
72
65
73
2
40
38.1
49
25.4
74
0
49
-12.7
74
0
0
LTYPE
5
38
330
5
100
AcDbSymbolTableRecord
100
AcDbLinetypeTableRecord
2
DASHDOT
70
0
3
Dash dot __ . __ . __ . __ . __ . __ . __ . __
72
65
73
4
40
25.4
49
12.7
74
0
49
-6.35
74
0
49
0
74
0
49
-6.35
74
0
0
LTYPE
5
39
330
5
100
AcDbSymbolTableRecord
100
AcDbLinetypeTableRecord
2
DASHDOT2
70
0
3
Dash dot (.5x) _._._._._._._._._._._._._._._.
72
65
73
4
40
12.7
49
6.35
74
0
49
-3.175
74
0
49
0
74
0
49
-3.175
74
0
0
LTYPE
5
3A
330
5
100
AcDbSymbolTableRecord
100
AcDbLinetypeTableRecord
2
DASHDOTX2
70
0
3
Dash dot (2x) ____  .  ____  .  ____  .  ___
72
65
73
4
40
50.8
49
25.4
74
0
49
-12.7
74
0
49
0
74
0
49
-12.7
74
0
0
LTYPE
5
3B
330
5
100
AcDbSymbolTableRecord
100
AcDbLinetypeTableRecord
2
DIVIDE
70
0
3
Divide ____ . . ____ . . ____ . . ____ . . ____
72
65
73
6
40
31.75
49
12.7
74
0
49
-6.35
74
0
49
0
74
0
49
-6.35
74
0
49
0
74
0
49
-6.35
74
0
0
LTYPE
5
3C
330
5
100
AcDbSymbolTableRecord
100
AcDbLinetypeTableRecord
2
DIVIDE2
70
0
3
Divide (.5x) __..__..__..__..__..__..__..__.._
72
65
73
6
40
15.875
49
6.35
74
0
49
-3.175
74
0
49
0
74
0
49
-3.175
74
0
49
0
74
0
49
-3.175
74
0
0
LTYPE
5
3D
330
5
100
AcDbSymbolTableRecord
100
AcDbLinetypeTableRecord
2
DIVIDEX2
70
0
3
Divide (2x) ________  .  .  ________  .  .  _
72
65
73
6
40
63.5
49
25.4
74
0
49
-12.7
74
0
49
0
74
0
49
-12.7
74
0
49
0
74
0
49
-12.7
74
0
0
LTYPE
5
3E
330
5
100
AcDbSymbolTableRecord
100
AcDbLinetypeTableRecord
2
BORDER
70
0
3
Border __ __ . __ __ . __ __ . __ __ . __ __ .
72
65
73
6
40
44.45
49
12.7
74
0
49
-6.35
74
0
49
12.7
74
0
49
-6.35
74
0
49
0
74
0
49
-6.35
74
0
0
LTYPE
5
3F
330
5
100
AcDbSymbolTableRecord
100
AcDbLinetypeTableRecord
2
BORDER2
70
0
3
Border (.5x) __.__.__.__.__.__.__.__.__.__.__.
72
65
73
6
40
22.225
49
6.35
74
0
49
-3.175
74
0
49
6.35
74
0
49
-3.175
74
0
49
0
74
0
49
-3.175
74
0
0
LTYPE
5
40
330
5
100
AcDbSymbolTableRecord
100
AcDbLinetypeTableRecord
2
BORDERX2
70
0
3
Border (2x) ____  ____  .  ____  ____  .  ___
72
65
73
6
40
88.9
49
25.4
74
0
49
-12.7
74
0
49
25.4
74
0
49
-12.7
74
0
49
0
74
0
49
-12.7
74
0
0
LTYPE
5
41
330
5
100
AcDbSymbolTableRecord
100
AcDbLinetypeTableRecord
2
CENTER
70
0
3
Center ____ _ ____ _ ____ _ ____ _ ____ _ ____
72
65
73
4
40
50.8
49
31.75
74
0
49
-6.35
74
0
49
6.35
74
0
49
-6.35
74
0
0
LTYPE
5
42
330
5
100
AcDbSymbolTableRecord
100
AcDbLinetypeTableRecord
2
CENTER2
70
0
3
Center (.5x) ___ _ ___ _ ___ _ ___ _ ___ _ ___
72
65
73
4
40
28.575
49
19.05
74
0
49
-3.175
74
0
49
3.175
74
0
49
-3.175
74
0
0
LTYPE
5
43
330
5
100
AcDbSymbolTableRecord
100
AcDbLinetypeTableRecord
2
CENTERX2
70
0
3
Center (2x) ________  __  ________  __  _____
72
65
73
4
40
101.6
49
63.5
74
0
49
-12.7
74
0
49
12.7
74
0
49
-12.7
74
0
0
ENDTAB
0
TABLE
2
LAYER
5
2
330
0
100
AcDbSymbolTable
70
1
0
LAYER
5
10
330
2
100
AcDbSymbolTableRecord
100
AcDbLayerTableRecord
2
0
70
0
62
62
420
9944845
6
CONTINUOUS
370
90
390
F
0
LAYER
5
44
330
2
100
AcDbSymbolTableRecord
100
AcDbLayerTableRecord
2
cot
70
0
62
7
6
CONTINUOUS
370
50
390
F
0
LAYER
5
45
330
2
100
AcDbSymbolTableRecord
100
AcDbLayerTableRecord
2
axes
70
0
62
9
420
12500670
6
DASHDOT2
370
20
390
F
0
LAYER
5
46
330
2
100
AcDbSymbolTableRecord
100
AcDbLayerTableRecord
2
construction
70
0
62
7
6
CONTINUOUS
370
5
390
F
0
LAYER
5
47
330
2
100
AcDbSymbolTableRecord
100
AcDbLayerTableRecord
2
texte
70
0
62
7
6
CONTINUOUS
370
50
390
F
0
LAYER
5
48
330
2
100
AcDbSymbolTableRecord
100
AcDbLayerTableRecord
2
pointillé
70
0
62
7
6
DOT2
370
50
390
F
0
LAYER
5
49
330
2
100
AcDbSymbolTableRecord
100
AcDbLayerTableRecord
2
ligne
70
0
62
62
420
9944845
6
CONTINUOUS
370
70
390
F
0
LAYER
5
4A
330
2
100
AcDbSymbolTableRecord
100
AcDbLayerTableRecord
2
fond
70
0
62
255
420
16445670
6
CONTINUOUS
370
0
390
F
0
ENDTAB
0
TABLE
2
STYLE
5
3
330
0
100
AcDbSymbolTable
70
3
0
STYLE
5
4B
330
2
100
AcDbSymbolTableRecord
100
AcDbTextStyleTableRecord
2
standard
70
0
40
0
41
1
50
0
71
0
42
1
3
standard
4

0
ENDTAB
0
TABLE
2
VIEW
5
6
330
0
100
AcDbSymbolTable
70
0
0
ENDTAB
0
TABLE
2
UCS
5
7
330
0
100
AcDbSymbolTable
70
0
0
ENDTAB
0
TABLE
2
APPID
5
9
330
0
100
AcDbSymbolTable
70
1
0
APPID
5
12
330
9
100
AcDbSymbolTableRecord
100
AcDbRegAppTableRecord
2
ACAD
70
0
0
ENDTAB
0
TABLE
2
DIMSTYLE
5
A
330
0
100
AcDbSymbolTable
70
1
100
AcDbDimStyleTable
71
1
0
DIMSTYLE
105
4C
330
A
100
AcDbSymbolTableRecord
100
AcDbDimStyleTableRecord
2
Standard
70
0
40
1
41
0.1
42
0.025
43
0.38
44
0.05
45
0
46
0
47
0
48
0
140
0.1
141
0.09
142
0
143
25.4
144
1
145
0
146
1
147
0.025
148
0
71
0
72
0
73
0
74
1
75
0
76
0
77
0
78
0
79
0
170
0
171
2
172
0
173
0
174
0
175
0
176
0
177
0
178
0
179
0
271
4
272
4
273
2
274
2
275
0
276
0
277
2
278
46
279
0
280
0
281
0
282
0
283
1
284
0
285
0
286
0
288
0
289
3
340
Standard
341

371
-2
372
-2
0
ENDTAB
0
TABLE
2
BLOCK_RECORD
5
1
330
0
100
AcDbSymbolTable
70
2
0
BLOCK_RECORD
5
1F
330
1
100
AcDbSymbolTableRecord
100
AcDbBlockTableRecord
2
*Model_Space
70
0
280
1
281
0
0
BLOCK_RECORD
5
1E
330
1
100
AcDbSymbolTableRecord
100
AcDbBlockTableRecord
2
*Paper_Space
70
0
280
1
281
0
0
BLOCK_RECORD
5
4D
330
1
100
AcDbSymbolTableRecord
100
AcDbBlockTableRecord
2
*D1
70
0
280
1
281
0
0
BLOCK_RECORD
5
50
330
1
100
AcDbSymbolTableRecord
100
AcDbBlockTableRecord
2
*D2
70
0
280
1
281
0
0
BLOCK_RECORD
5
53
330
1
100
AcDbSymbolTableRecord
100
AcDbBlockTableRecord
2
*D3
70
0
280
1
281
0
0
BLOCK_RECORD
5
56
330
1
100
AcDbSymbolTableRecord
100
AcDbBlockTableRecord
2
*D4
70
0
280
1
281
0
0
BLOCK_RECORD
5
59
330
1
100
AcDbSymbolTableRecord
100
AcDbBlockTableRecord
2
ch
70
0
280
1
281
0
0
BLOCK_RECORD
5
5C
330
1
100
AcDbSymbolTableRecord
100
AcDbBlockTableRecord
2
ch1
70
0
280
1
281
0
0
ENDTAB
0
ENDSEC
0
SECTION
2
BLOCKS
0
BLOCK
5
20
330
1F
100
AcDbEntity
8
0
100
AcDbBlockBegin
2
*Model_Space
70
0
10
0
20
0
30
0
3
*Model_Space
1

0
ENDBLK
5
21
330
1F
100
AcDbEntity
8
0
100
AcDbBlockEnd
0
BLOCK
5
1C
330
1B
100
AcDbEntity
8
0
100
AcDbBlockBegin
2
*Paper_Space
70
0
10
0
20
0
30
0
3
*Paper_Space
1

0
ENDBLK
5
1D
330
1F
100
AcDbEntity
8
0
100
AcDbBlockEnd
0
BLOCK
5
4E
330
4D
100
AcDbEntity
8
0
100
AcDbBlockBegin
2
*D1
70
1
10
0
20
0
3
*D1
1

0
LINE
5
5F
100
AcDbEntity
8
cot
6
CONTINUOUS
62
7
370
0
100
AcDbLine
10
27.15
20
83.3
11
28.45
21
83.3
0
SOLID
5
60
100
AcDbEntity
8
cot
6
CONTINUOUS
62
7
370
0
100
AcDbTrace
10
27.15
20
83.3
30
0
11
27.25
21
83.3166513863
31
0
12
27.25
22
83.2833486137
32
0
13
27.25
23
83.2833486137
33
0
0
SOLID
5
61
100
AcDbEntity
8
cot
6
CONTINUOUS
62
7
370
0
100
AcDbTrace
10
28.45
20
83.3
30
0
11
28.35
21
83.2833486137
31
0
12
28.35
22
83.3166513863
32
0
13
28.35
23
83.3166513863
33
0
0
MTEXT
5
62
100
AcDbEntity
8
cot
6
CONTINUOUS
62
7
370
0
100
AcDbMText
10
27.8
20
83.375
30
0
40
0.1
41
0.133333333333
71
5
72
1
1
1.3
7
standard
210
0
220
0
230
1
50
0
73
2
44
1
0
LINE
5
63
100
AcDbEntity
8
cot
6
CONTINUOUS
62
7
370
0
100
AcDbLine
10
27.15
20
82.875
11
27.15
21
83.35
0
LINE
5
64
100
AcDbEntity
8
cot
6
CONTINUOUS
62
7
370
0
100
AcDbLine
10
28.45
20
82.875
11
28.45
21
83.35
0
ENDBLK
5
4F
330
4D
100
AcDbEntity
8
0
100
AcDbBlockEnd
0
BLOCK
5
51
330
50
100
AcDbEntity
8
0
100
AcDbBlockBegin
2
*D2
70
1
10
0
20
0
3
*D2
1

0
SOLID
5
65
100
AcDbEntity
8
cot
6
CONTINUOUS
62
7
370
0
100
AcDbTrace
10
26.3521014545
20
82.1931573506
30
0
11
26.4487415422
21
82.2237835177
31
0
12
26.4534512655
22
82.1908154548
32
0
13
26.4534512655
23
82.1908154548
33
0
0
LINE
5
66
100
AcDbEntity
8
cot
6
CONTINUOUS
62
7
370
0
100
AcDbLine
10
27.8
20
82.4
11
26.3521014545
21
82.1931573506
0
MTEXT
5
67
100
AcDbEntity
8
cot
6
CONTINUOUS
62
7
370
0
100
AcDbMText
10
27.0654441255
20
82.3708248873
30
0
40
0.1
41
0.3
71
5
72
1
1
1.463
7
standard
210
0
220
0
230
1
50
8.13010235582
73
2
44
1
0
ENDBLK
5
52
330
50
100
AcDbEntity
8
0
100
AcDbBlockEnd
0
BLOCK
5
54
330
53
100
AcDbEntity
8
0
100
AcDbBlockBegin
2
*D3
70
1
10
0
20
0
3
*D3
1

0
LINE
5
68
100
AcDbEntity
8
cot
6
CONTINUOUS
62
7
370
0
100
AcDbLine
10
25.9
20
82.85
11
25.9
21
81.95
0
SOLID
5
69
100
AcDbEntity
8
cot
6
CONTINUOUS
62
7
370
0
100
AcDbTrace
10
25.9
20
82.85
30
0
11
25.9166513863
21
82.75
31
0
12
25.8833486137
22
82.75
32
0
13
25.8833486137
23
82.75
33
0
0
SOLID
5
6A
100
AcDbEntity
8
cot
6
CONTINUOUS
62
7
370
0
100
AcDbTrace
10
25.9
20
81.95
30
0
11
25.8833486137
21
82.05
31
0
12
25.9166513863
22
82.05
32
0
13
25.9166513863
23
82.05
33
0
0
MTEXT
5
6B
100
AcDbEntity
8
cot
6
CONTINUOUS
62
7
370
0
100
AcDbMText
10
25.825
20
82.4
30
0
40
0.1
41
0.155555555556
71
5
72
1
1
0.9
7
standard
210
0
220
0
230
1
50
90
73
2
44
1
0
LINE
5
6C
100
AcDbEntity
8
cot
6
CONTINUOUS
62
7
370
0
100
AcDbLine
10
27.125
20
82.85
11
25.85
21
82.85
0
LINE
5
6D
100
AcDbEntity
8
cot
6
CONTINUOUS
62
7
370
0
100
AcDbLine
10
27.125
20
81.95
11
25.85
21
81.95
0
ENDBLK
5
55
330
53
100
AcDbEntity
8
0
100
AcDbBlockEnd
0
BLOCK
5
57
330
56
100
AcDbEntity
8
0
100
AcDbBlockBegin
2
*D4
70
1
10
0
20
0
3
*D4
1

0
LINE
5
6E
100
AcDbEntity
8
cot
6
CONTINUOUS
62
7
370
0
100
AcDbLine
10
29.048859579
20
82.4
11
29.6671803497
21
82.4
0
SOLID
5
6F
100
AcDbEntity
8
cot
6
CONTINUOUS
62
7
370
0
100
AcDbTrace
10
29.248859579
20
82.4
30
0
11
29.148859579
21
82.3833486137
31
0
12
29.148859579
22
82.4166513863
32
0
13
29.148859579
23
82.4166513863
33
0
0
SOLID
5
70
100
AcDbEntity
8
cot
6
CONTINUOUS
62
7
370
0
100
AcDbTrace
10
29.4671803497
20
82.4
30
0
11
29.5671803497
21
82.4166513863
31
0
12
29.5671803497
22
82.3833486137
32
0
13
29.5671803497
23
82.3833486137
33
0
0
MTEXT
5
71
100
AcDbEntity
8
cot
6
CONTINUOUS
62
7
370
0
100
AcDbMText
10
29.6366247941
20
82.475
30
0
40
0.1
41
0.288888888889
71
5
72
1
1
0.218
7
standard
210
0
220
0
230
1
50
0
73
2
44
1
0
LINE
5
72
100
AcDbEntity
8
cot
6
CONTINUOUS
62
7
370
0
100
AcDbLine
10
29.248859579
20
82.575
11
29.248859579
21
82.35
0
LINE
5
73
100
AcDbEntity
8
cot
6
CONTINUOUS
62
7
370
0
100
AcDbLine
10
29.4671803497
20
82.575
11
29.4671803497
21
82.35
0
ENDBLK
5
58
330
56
100
AcDbEntity
8
0
100
AcDbBlockEnd
0
BLOCK
5
5A
330
59
100
AcDbEntity
8
0
100
AcDbBlockBegin
2
ch
70
0
10
0
20
0
3
ch
1

0
ENDBLK
5
5B
330
59
100
AcDbEntity
8
0
100
AcDbBlockEnd
0
BLOCK
5
5D
330
5C
100
AcDbEntity
8
0
100
AcDbBlockBegin
2
ch1
70
0
10
0
20
0
3
ch1
1

0
LINE
5
74
100
AcDbEntity
8
0
6
ByLayer
62
256
370
-1
100
AcDbLine
10
-0.2
20
0.2
11
0.2
21
0.2
0
LINE
5
75
100
AcDbEntity
8
0
6
ByLayer
62
256
370
-1
100
AcDbLine
10
0.2
20
0.2
11
0.2
21
-0.2
0
LINE
5
76
100
AcDbEntity
8
0
6
ByLayer
62
256
370
-1
100
AcDbLine
10
0.2
20
-0.2
11
-0.2
21
-0.2
0
LINE
5
77
100
AcDbEntity
8
0
6
ByLayer
62
256
370
-1
100
AcDbLine
10
-0.2
20
-0.2
11
-0.2
21
0.2
0
ENDBLK
5
5E
330
5C
100
AcDbEntity
8
0
100
AcDbBlockEnd
0
ENDSEC
0
SECTION
2
ENTITIES
0
HATCH
5
78
100
AcDbEntity
8
fond
6
ByLayer
62
256
370
-1
100
AcDbHatch
10
0
20
0
30
0
210
0
220
0
230
1
2
SOLID
70
1
71
0
91
1
92
0
93
2
72
2
10
27.15
20
82.85
40
0.0625
50
0
51
360
73
1
72
2
10
27.15
20
82.85
40
0.1952755
50
0
51
360
73
1
97
0
75
0
76
1
98
0
0
HATCH
5
79
100
AcDbEntity
8
fond
6
ByLayer
62
256
370
-1
100
AcDbHatch
10
0
20
0
30
0
210
0
220
0
230
1
2
SOLID
70
1
71
0
91
1
92
0
93
2
72
2
10
28.45
20
82.85
40
0.0625
50
0
51
360
73
1
72
2
10
28.45
20
82.85
40
0.1952755
50
0
51
360
73
1
97
0
75
0
76
1
98
0
0
HATCH
5
7A
100
AcDbEntity
8
fond
6
ByLayer
62
256
370
-1
100
AcDbHatch
10
0
20
0
30
0
210
0
220
0
230
1
2
SOLID
70
1
71
0
91
1
92
0
93
2
72
2
10
28.45
20
81.95
40
0.0625
50
0
51
360
73
1
72
2
10
28.45
20
81.95
40
0.1952755
50
0
51
360
73
1
97
0
75
0
76
1
98
0
0
HATCH
5
7B
100
AcDbEntity
8
fond
6
ByLayer
62
256
370
-1
100
AcDbHatch
10
0
20
0
30
0
210
0
220
0
230
1
2
SOLID
70
1
71
0
91
1
92
0
93
2
72
2
10
27.15
20
81.95
40
0.0625
50
0
51
360
73
1
72
2
10
27.15
20
81.95
40
0.1952755
50
0
51
360
73
1
97
0
75
0
76
1
98
0
0
HATCH
5
7C
100
AcDbEntity
8
fond
6
ByLayer
62
256
370
-1
100
AcDbHatch
10
0
20
0
30
0
210
0
220
0
230
1
2
SOLID
70
1
71
0
91
1
92
0
93
5
72
2
10
27.8
20
82.4
40
1.6671803497
50
0
51
360
73
1
72
1
10
25.7
20
84.5
11
29.9
21
84.5
72
1
10
29.9
20
84.5
11
29.9
21
80.3
72
1
10
29.9
20
80.3
11
25.7
21
80.3
72
1
10
25.7
20
80.3
11
25.7
21
84.5
97
0
75
0
76
1
98
0
0
HATCH
5
7D
100
AcDbEntity
8
0
6
ByLayer
62
256
370
-1
100
AcDbHatch
10
0
20
0
30
0
210
0
220
0
230
1
2
SOLID
70
1
71
0
91
1
92
0
93
2
72
2
10
28.45
20
81.95
40
0.2952755
50
0
51
360
73
1
72
2
10
28.45
20
81.95
40
0.1952755
50
0
51
360
73
1
97
0
75
0
76
1
98
0
0
HATCH
5
7E
100
AcDbEntity
8
0
6
ByLayer
62
256
370
-1
100
AcDbHatch
10
0
20
0
30
0
210
0
220
0
230
1
2
SOLID
70
1
71
0
91
1
92
0
93
4
72
1
10
28.729489678
20
82.0106878062
11
29.0583671647
21
81.783004696
72
1
10
29.0583671647
20
81.783004696
11
28.8306840545
21
81.4541272092
72
1
10
28.8306840545
20
81.4541272092
11
28.5018065677
21
81.6818103195
72
1
10
28.5018065677
20
81.6818103195
11
28.729489678
21
82.0106878062
97
0
75
0
76
1
98
0
0
HATCH
5
7F
100
AcDbEntity
8
0
6
ByLayer
62
256
370
-1
100
AcDbHatch
10
0
20
0
30
0
210
0
220
0
230
1
2
SOLID
70
1
71
0
91
1
92
0
93
2
72
2
10
27.15
20
82.85
40
0.2952755
50
0
51
360
73
1
72
2
10
27.15
20
82.85
40
0.1952755
50
0
51
360
73
1
97
0
75
0
76
1
98
0
0
HATCH
5
80
100
AcDbEntity
8
0
6
ByLayer
62
256
370
-1
100
AcDbHatch
10
0
20
0
30
0
210
0
220
0
230
1
2
SOLID
70
1
71
0
91
1
92
0
93
4
72
1
10
26.7682132142
20
83.3442509996
11
27.097090701
21
83.1165678894
72
1
10
27.097090701
20
83.1165678894
11
26.8694075907
21
82.7876904026
72
1
10
26.8694075907
20
82.7876904026
11
26.540530104
21
83.0153735129
72
1
10
26.540530104
20
83.0153735129
11
26.7682132142
21
83.3442509996
97
0
75
0
76
1
98
0
0
HATCH
5
81
100
AcDbEntity
8
0
6
ByLayer
62
256
370
-1
100
AcDbHatch
10
0
20
0
30
0
210
0
220
0
230
1
2
SOLID
70
1
71
0
91
1
92
0
93
2
72
2
10
27.15
20
81.95
40
0.2952755
50
0
51
360
73
1
72
2
10
27.15
20
81.95
40
0.1952755
50
0
51
360
73
1
97
0
75
0
76
1
98
0
0
HATCH
5
82
100
AcDbEntity
8
0
6
ByLayer
62
256
370
-1
100
AcDbHatch
10
0
20
0
30
0
210
0
220
0
230
1
2
SOLID
70
1
71
0
91
1
92
0
93
4
72
1
10
26.5430173584
20
81.7809766056
11
26.8718948452
21
82.0086597159
72
1
10
26.8718948452
20
82.0086597159
11
27.0995779554
21
81.6797822291
72
1
10
27.0995779554
20
81.6797822291
11
26.7707004687
21
81.4520991188
72
1
10
26.7707004687
20
81.4520991188
11
26.5430173584
21
81.7809766056
97
0
75
0
76
1
98
0
0
HATCH
5
83
100
AcDbEntity
8
0
6
ByLayer
62
256
370
-1
100
AcDbHatch
10
0
20
0
30
0
210
0
220
0
230
1
2
SOLID
70
1
71
0
91
1
92
0
93
4
72
1
10
29.0299076188
20
82.6
11
29.4671803497
21
82.6
72
2
10
27.8
20
82.4
40
1.6791338
50
6.84068503449
51
353.159314966
73
1
72
1
10
29.4671803497
20
82.2
11
29.0299076188
21
82.2
72
2
10
27.8
20
82.4
40
1.2460629
50
9.236240842
51
350.763759158
73
0
97
0
75
0
76
1
98
0
0
HATCH
5
84
100
AcDbEntity
8
0
6
ByLayer
62
256
370
-1
100
AcDbHatch
10
0
20
0
30
0
210
0
220
0
230
1
2
SOLID
70
1
71
0
91
1
92
0
93
2
72
2
10
28.45
20
82.85
40
0.2952755
50
0
51
360
73
1
72
2
10
28.45
20
82.85
40
0.1952755
50
0
51
360
73
1
97
0
75
0
76
1
98
0
0
HATCH
5
85
100
AcDbEntity
8
0
6
ByLayer
62
256
370
-1
100
AcDbHatch
10
0
20
0
30
0
210
0
220
0
230
1
2
SOLID
70
1
71
0
91
1
92
0
93
4
72
1
10
28.5029886882
20
83.1164509085
11
28.831866175
21
83.3441340187
72
1
10
28.831866175
20
83.3441340187
11
29.0595492852
21
83.015256532
72
1
10
29.0595492852
20
83.015256532
11
28.7306717985
21
82.7875734217
72
1
10
28.7306717985
20
82.7875734217
11
28.5029886882
21
83.1164509085
97
0
75
0
76
1
98
0
0
LINE
5
86
100
AcDbEntity
8
0
6
ByLayer
62
256
370
-1
100
AcDbLine
10
28.7
20
83.1
11
28.7
21
83.1
0
LINE
5
87
100
AcDbEntity
8
0
6
ByLayer
62
256
370
-1
100
AcDbLine
10
26.9
20
83.1
11
26.9
21
83.1
0
LINE
5
88
100
AcDbEntity
8
0
6
ByLayer
62
256
370
-1
100
AcDbLine
10
28.7
20
81.7
11
28.7
21
81.7
0
LINE
5
89
100
AcDbEntity
8
0
6
ByLayer
62
256
370
-1
100
AcDbLine
10
28.7
20
81.7
11
28.7
21
81.7
0
LINE
5
8A
100
AcDbEntity
8
0
6
ByLayer
62
256
370
-1
100
AcDbLine
10
28.7
20
81.7
11
28.7
21
81.7
0
LINE
5
8B
100
AcDbEntity
8
0
6
ByLayer
62
256
370
-1
100
AcDbLine
10
28.7
20
81.7
11
28.7
21
81.7
0
LINE
5
8C
100
AcDbEntity
8
0
6
ByLayer
62
256
370
-1
100
AcDbLine
10
28.7
20
83.1
11
28.7
21
83.1
0
LINE
5
8D
100
AcDbEntity
8
0
6
ByLayer
62
256
370
-1
100
AcDbLine
10
26.9
20
83.1
11
26.9
21
83.1
0
LINE
5
8E
100
AcDbEntity
8
axes
6
ByLayer
62
256
370
-1
100
AcDbLine
10
27.15
20
82.85
11
28.45
21
82.85
0
LINE
5
8F
100
AcDbEntity
8
axes
6
ByLayer
62
256
370
-1
100
AcDbLine
10
28.45
20
82.85
11
28.45
21
81.95
0
LINE
5
90
100
AcDbEntity
8
axes
6
ByLayer
62
256
370
-1
100
AcDbLine
10
27.15
20
81.95
11
27.15
21
82.85
0
LINE
5
91
100
AcDbEntity
8
axes
6
ByLayer
62
256
370
-1
100
AcDbLine
10
27.15
20
83.05
11
27.15
21
82.85
0
LINE
5
92
100
AcDbEntity
8
axes
6
ByLayer
62
256
370
-1
100
AcDbLine
10
27.15
20
82.85
11
26.95
21
82.85
0
CIRCLE
5
93
100
AcDbEntity
8
0
6
ByLayer
62
256
370
-1
100
AcDbCircle
10
27.15
20
82.85
40
0.0625
0
LINE
5
94
100
AcDbEntity
8
axes
6
ByLayer
62
256
370
-1
100
AcDbLine
10
28.45
20
83.05
11
28.45
21
82.85
0
LINE
5
95
100
AcDbEntity
8
axes
6
ByLayer
62
256
370
-1
100
AcDbLine
10
28.45
20
82.85
11
28.65
21
82.85
0
LINE
5
96
100
AcDbEntity
8
axes
6
ByLayer
62
256
370
-1
100
AcDbLine
10
28.65
20
81.95
11
28.45
21
81.95
0
LINE
5
97
100
AcDbEntity
8
axes
6
ByLayer
62
256
370
-1
100
AcDbLine
10
28.45
20
81.95
11
28.45
21
81.75
0
LINE
5
98
100
AcDbEntity
8
axes
6
ByLayer
62
256
370
-1
100
AcDbLine
10
27.15
20
81.95
11
27.15
21
81.75
0
LINE
5
99
100
AcDbEntity
8
axes
6
ByLayer
62
256
370
-1
100
AcDbLine
10
26.95
20
81.95
11
27.15
21
81.95
0
CIRCLE
5
9A
100
AcDbEntity
8
0
6
ByLayer
62
256
370
-1
100
AcDbCircle
10
28.45
20
82.85
40
0.0625
0
CIRCLE
5
9B
100
AcDbEntity
8
0
6
ByLayer
62
256
370
-1
100
AcDbCircle
10
28.45
20
81.95
40
0.0625
0
CIRCLE
5
9C
100
AcDbEntity
8
0
6
ByLayer
62
256
370
-1
100
AcDbCircle
10
27.15
20
81.95
40
0.0625
0
CIRCLE
5
9D
100
AcDbEntity
8
0
6
ByLayer
62
256
370
-1
100
AcDbCircle
10
27.15
20
82.85
40
0.2952755
0
CIRCLE
5
9E
100
AcDbEntity
8
0
6
ByLayer
62
256
370
-1
100
AcDbCircle
10
28.45
20
82.85
40
0.2952755
0
CIRCLE
5
9F
100
AcDbEntity
8
0
6
ByLayer
62
256
370
-1
100
AcDbCircle
10
28.45
20
81.95
40
0.2952755
0
CIRCLE
5
A0
100
AcDbEntity
8
0
6
ByLayer
62
256
370
-1
100
AcDbCircle
10
27.15
20
81.95
40
0.2952755
0
CIRCLE
5
A1
100
AcDbEntity
8
0
6
ByLayer
62
256
370
-1
100
AcDbCircle
10
27.15
20
82.85
40
0.1952755
0
CIRCLE
5
A2
100
AcDbEntity
8
0
6
ByLayer
62
256
370
-1
100
AcDbCircle
10
28.45
20
82.85
40
0.1952755
0
CIRCLE
5
A3
100
AcDbEntity
8
0
6
ByLayer
62
256
370
-1
100
AcDbCircle
10
28.45
20
81.95
40
0.1952755
0
CIRCLE
5
A4
100
AcDbEntity
8
0
6
ByLayer
62
256
370
-1
100
AcDbCircle
10
27.15
20
81.95
40
0.1952755
0
CIRCLE
5
A5
100
AcDbEntity
8
axes
6
ByLayer
62
256
370
-1
100
AcDbCircle
10
27.8
20
82.4
40
1.4625984
0
LINE
5
A6
100
AcDbEntity
8
axes
6
ByLayer
62
256
370
-1
100
AcDbLine
10
27.15
20
82.85
11
28.45
21
81.95
0
LINE
5
A7
100
AcDbEntity
8
axes
6
ByLayer
62
256
370
-1
100
AcDbLine
10
28.45
20
81.95
11
28.45
21
82.85
0
LINE
5
A8
100
AcDbEntity
8
axes
6
ByLayer
62
256
370
-1
100
AcDbLine
10
28.45
20
82.85
11
27.15
21
81.95
0
CIRCLE
5
A9
100
AcDbEntity
8
axes
6
ByLayer
62
256
370
-1
100
AcDbCircle
10
27.8
20
82.4
40
1.185854123
0
LINE
5
AA
100
AcDbEntity
8
axes
6
ByLayer
62
256
370
-1
100
AcDbLine
10
27.15
20
81.95
11
28.45
21
81.95
0
DIMENSION
5
AB
100
AcDbEntity
8
cot
6
ByLayer
62
256
370
-1
100
AcDbDimension
2
*D1
10
28.45
20
83.3
30
0
11
27.8
21
83.375
31
0
70
32
71
5
72
0
3
Standard
53
0
210
0
220
0
230
1
100
AcDbAlignedDimension
13
27.15
23
82.85
33
0
14
28.45
24
82.85
34
0
100
AcDbRotatedDimension
0
DIMENSION
5
AC
100
AcDbEntity
8
cot
6
ByLayer
62
256
370
-1
100
AcDbDimension
2
*D2
10
27.8
20
82.4
30
0
11
27.0654441255
21
82.3708248873
31
0
70
36
71
5
72
0
3
Standard
53
0
210
0
220
0
230
1
100
AcDbRadialDimension
15
26.3521014545
25
82.1931573506
35
0
40
0
0
MTEXT
5
AD
100
AcDbEntity
8
texte
6
ByLayer
62
256
370
-1
100
AcDbMText
10
27.8
20
84.3
30
0
40
0.1
41
1.28333338476
71
5
72
1
1
Cotation en pouces
7
standard
210
0
220
0
230
1
50
0
73
2
44
1
0
LINE
5
AE
100
AcDbEntity
8
0
6
ByLayer
62
256
370
-1
100
AcDbLine
10
29.0299076188
20
82.6
11
29.4671803497
21
82.6
0
LINE
5
AF
100
AcDbEntity
8
0
6
ByLayer
62
256
370
-1
100
AcDbLine
10
29.0299076188
20
82.2
11
29.4671803497
21
82.2
0
ARC
5
B0
100
AcDbEntity
8
0
6
ByLayer
62
256
370
-1
100
AcDbCircle
10
27.8
20
82.4
40
1.2460629
100
AcDbArc
50
9.23624084231
51
350.763759158
0
ARC
5
B1
100
AcDbEntity
8
0
6
ByLayer
62
256
370
-1
100
AcDbCircle
10
27.8
20
82.4
40
1.6791338
100
AcDbArc
50
6.84068503449
51
353.159314966
0
LINE
5
B2
100
AcDbEntity
8
axes
6
ByLayer
62
256
370
-1
100
AcDbLine
10
26.1405049396
20
83.5257958288
11
26.5883644347
21
83.2162458837
0
LINE
5
B3
100
AcDbEntity
8
axes
6
ByLayer
62
256
370
-1
100
AcDbLine
10
26.5883644347
20
83.2162458837
11
27.15
21
82.85
0
LINE
5
B4
100
AcDbEntity
8
axes
6
ByLayer
62
256
370
-1
100
AcDbLine
10
29.0186608123
20
83.2096597146
11
29.4599341383
21
83.5126234907
0
LINE
5
B5
100
AcDbEntity
8
axes
6
ByLayer
62
256
370
-1
100
AcDbLine
10
29.0120746433
20
83.2162458837
11
28.45
21
82.85
0
LINE
5
B6
100
AcDbEntity
8
axes
6
ByLayer
62
256
370
-1
100
AcDbLine
10
28.45
20
81.95
11
29.4665203074
21
81.2799121844
0
LINE
5
B7
100
AcDbEntity
8
axes
6
ByLayer
62
256
370
-1
100
AcDbLine
10
27.15
20
81.95
11
26.1470911087
21
81.2799121844
0
DIMENSION
5
B8
100
AcDbEntity
8
cot
6
ByLayer
62
256
370
-1
100
AcDbDimension
2
*D3
10
25.9
20
81.95
30
0
11
25.825
21
82.4
31
0
70
32
71
5
3
Standard
53
0
210
0
220
0
230
1
100
AcDbAlignedDimension
13
27.15
23
82.85
33
0
14
27.15
24
81.95
34
0
50
90
100
AcDbRotatedDimension
0
LINE
5
B9
100
AcDbEntity
8
axes
6
ByLayer
62
256
370
-1
100
AcDbLine
10
25.8
20
82.4
11
29.8
21
82.4
0
LINE
5
BA
100
AcDbEntity
8
fond
6
ByLayer
62
256
370
-1
100
AcDbLine
10
25.7
20
84.5
11
29.9
21
84.5
0
LINE
5
BB
100
AcDbEntity
8
fond
6
ByLayer
62
256
370
-1
100
AcDbLine
10
29.9
20
84.5
11
29.9
21
80.3
0
LINE
5
BC
100
AcDbEntity
8
fond
6
ByLayer
62
256
370
-1
100
AcDbLine
10
29.9
20
80.3
11
25.7
21
80.3
0
LINE
5
BD
100
AcDbEntity
8
fond
6
ByLayer
62
256
370
-1
100
AcDbLine
10
25.7
20
80.3
11
25.7
21
84.5
0
DIMENSION
5
BE
100
AcDbEntity
8
cot
6
ByLayer
62
256
370
-1
100
AcDbDimension
2
*D4
10
29.4671803497
20
82.4
30
0
11
29.3580199643
21
82.475
31
0
70
32
71
5
3
Standard
53
0
210
0
220
0
230
1
100
AcDbAlignedDimension
13
29.248859579
23
82.6
33
0
14
29.4671803497
24
82.6
34
0
100
AcDbRotatedDimension
0
MTEXT
5
BF
100
AcDbEntity
8
texte
6
ByLayer
62
256
370
-1
100
AcDbMText
10
27.8
20
80.5
30
0
40
0.08
41
3.2644446913
71
5
72
1
1
Fig 6 : Vue de dessus modélisée sous LibreCAD du top [4]\Pde la e-poignée
7
standard
210
0
220
0
230
1
50
0
73
2
44
1
0
INSERT
5
C0
100
AcDbEntity
8
0
6
ByLayer
62
256
370
-1
100
AcDbBlockReference
2
ch1
10
28.7812689867
20
83.0658537202
30
0
41
1
42
1
43
0
50
34.695
70
1
71
1
44
1
45
1
0
INSERT
5
C1
100
AcDbEntity
8
0
6
ByLayer
62
256
370
-1
100
AcDbBlockReference
2
ch1
10
28.7812689867
20
83.0658537202
30
0
41
1
42
1
43
0
50
34.695
70
1
71
1
44
1
45
1
0
INSERT
5
C2
100
AcDbEntity
8
0
6
ByLayer
62
256
370
-1
100
AcDbBlockReference
2
ch1
10
26.8212976569
20
81.7303794174
30
0
41
1
42
1
43
0
50
34.695
70
1
71
1
44
1
45
1
0
INSERT
5
C3
100
AcDbEntity
8
0
6
ByLayer
62
256
370
-1
100
AcDbBlockReference
2
ch1
10
26.8188104025
20
83.0659707011
30
0
41
1
42
1
43
0
50
-34.695
70
1
71
1
44
1
45
1
0
CIRCLE
5
C4
100
AcDbEntity
8
fond
6
ByLayer
62
256
370
-1
100
AcDbCircle
10
27.8
20
82.4
40
1.6671803497
0
ENDSEC
0
SECTION
2
OBJECTS
0
DICTIONARY
5
C
330
0
100
AcDbDictionary
281
1
3
ACAD_GROUP
350
D
0
DICTIONARY
5
D
330
C
100
AcDbDictionary
281
1
0
ENDSEC
0
EOF
