%TF.GenerationSoftware,KiCad,Pcbnew,5.1.6-c6e7f7d~87~ubuntu18.04.1*%
%TF.CreationDate,2022-01-03T17:35:28+01:00*%
%TF.ProjectId,e-r-wifi-lf,652d722d-7769-4666-992d-6c662e6b6963,rev?*%
%TF.SameCoordinates,Original*%
%TF.FileFunction,Copper,L2,Bot*%
%TF.FilePolarity,Positive*%
%FSLAX46Y46*%
G04 Gerber Fmt 4.6, Leading zero omitted, Abs format (unit mm)*
G04 Created by KiCad (PCBNEW 5.1.6-c6e7f7d~87~ubuntu18.04.1) date 2022-01-03 17:35:28*
%MOMM*%
%LPD*%
G01*
G04 APERTURE LIST*
%TA.AperFunction,ComponentPad*%
%ADD10R,1.700000X1.700000*%
%TD*%
%TA.AperFunction,ComponentPad*%
%ADD11C,1.500000*%
%TD*%
%TA.AperFunction,ComponentPad*%
%ADD12R,1.500000X1.500000*%
%TD*%
%TA.AperFunction,ComponentPad*%
%ADD13C,3.200001*%
%TD*%
%TA.AperFunction,ComponentPad*%
%ADD14C,3.200000*%
%TD*%
%TA.AperFunction,ComponentPad*%
%ADD15O,1.700000X1.700000*%
%TD*%
%TA.AperFunction,ComponentPad*%
%ADD16C,2.000000*%
%TD*%
%TA.AperFunction,Conductor*%
%ADD17C,0.500000*%
%TD*%
%TA.AperFunction,Conductor*%
%ADD18C,0.254000*%
%TD*%
G04 APERTURE END LIST*
D10*
%TO.P,J1,10*%
%TO.N,GND*%
X138049000Y-119888000D03*
%TO.P,J1,9*%
X122809000Y-119888000D03*
D11*
%TO.P,J1,8*%
%TO.N,Net-(J1-Pad8)*%
X125984000Y-125730000D03*
%TO.P,J1,7*%
%TO.N,Net-(J1-Pad7)*%
X127254000Y-123190000D03*
%TO.P,J1,6*%
%TO.N,Net-(J1-Pad6)*%
X128524000Y-125730000D03*
%TO.P,J1,5*%
%TO.N,Net-(J1-Pad5)*%
X129794000Y-123190000D03*
%TO.P,J1,4*%
%TO.N,Net-(J1-Pad4)*%
X131064000Y-125730000D03*
%TO.P,J1,3*%
%TO.N,GND*%
X132334000Y-123190000D03*
%TO.P,J1,2*%
%TO.N,Net-(J1-Pad2)*%
X133604000Y-125730000D03*
D12*
%TO.P,J1,1*%
%TO.N,GND*%
X134874000Y-123190000D03*
D13*
%TO.P,J1,*%
%TO.N,*%
X136144000Y-116840000D03*
D14*
X124714000Y-116840000D03*
%TD*%
D10*
%TO.P,J2,1*%
%TO.N,Net-(J1-Pad8)*%
X105664000Y-138430000D03*
D15*
%TO.P,J2,2*%
%TO.N,GND*%
X103124000Y-138430000D03*
%TD*%
%TO.P,J3,2*%
%TO.N,GND*%
X113284000Y-138430000D03*
D10*
%TO.P,J3,1*%
%TO.N,Net-(J1-Pad7)*%
X115824000Y-138430000D03*
%TD*%
%TO.P,J4,1*%
%TO.N,Net-(J1-Pad6)*%
X125984000Y-138430000D03*
D15*
%TO.P,J4,2*%
%TO.N,GND*%
X123444000Y-138430000D03*
%TD*%
%TO.P,J6,2*%
%TO.N,GND*%
X133604000Y-138430000D03*
D10*
%TO.P,J6,1*%
%TO.N,Net-(J1-Pad4)*%
X136144000Y-138430000D03*
%TD*%
%TO.P,J7,1*%
%TO.N,Net-(J1-Pad2)*%
X156464000Y-138430000D03*
D15*
%TO.P,J7,2*%
%TO.N,GND*%
X153924000Y-138430000D03*
%TD*%
D16*
%TO.P,SW1,2*%
%TO.N,GND*%
X107514000Y-123190000D03*
%TO.P,SW1,1*%
%TO.N,Net-(J1-Pad4)*%
X112014000Y-123190000D03*
%TO.P,SW1,2*%
%TO.N,GND*%
X107514000Y-129690000D03*
%TO.P,SW1,1*%
%TO.N,Net-(J1-Pad4)*%
X112014000Y-129690000D03*
%TD*%
D10*
%TO.P,J5,1*%
%TO.N,Net-(J1-Pad5)*%
X146304000Y-138430000D03*
D15*
%TO.P,J5,2*%
%TO.N,GND*%
X143764000Y-138430000D03*
%TD*%
D17*
%TO.N,GND*%
X138557000Y-119888000D02*
X138201400Y-119888000D01*
X107514000Y-129722000D02*
X107505500Y-129730500D01*
X122301000Y-119888000D02*
X110109000Y-119888000D01*
X110109000Y-119888000D02*
X108839000Y-119888000D01*
X108839000Y-119888000D02*
X107569000Y-121158000D01*
X107569000Y-121158000D02*
X107569000Y-123190000D01*
X107514000Y-123190000D02*
X107514000Y-129612000D01*
X107514000Y-129690000D02*
X105133000Y-129690000D01*
X105133000Y-129690000D02*
X103124000Y-131699000D01*
X103124000Y-131699000D02*
X103124000Y-138430000D01*
X153924000Y-138430000D02*
X153924000Y-140462000D01*
X153924000Y-140462000D02*
X152273000Y-142113000D01*
X144018000Y-140843000D02*
X145288000Y-142113000D01*
X152273000Y-142113000D02*
X145288000Y-142113000D01*
X144018000Y-140843000D02*
X144018000Y-138684000D01*
X144018000Y-138684000D02*
X143764000Y-138430000D01*
X145288000Y-142113000D02*
X135128000Y-142113000D01*
X135128000Y-142113000D02*
X133604000Y-140589000D01*
X133604000Y-140589000D02*
X133604000Y-138430000D01*
X135128000Y-142113000D02*
X124841000Y-142113000D01*
X124841000Y-142113000D02*
X123444000Y-140716000D01*
X123444000Y-140716000D02*
X123444000Y-138430000D01*
X124841000Y-142113000D02*
X114808000Y-142113000D01*
X114808000Y-142113000D02*
X113284000Y-140589000D01*
X113284000Y-140589000D02*
X113284000Y-138430000D01*
X114808000Y-142113000D02*
X104775000Y-142113000D01*
X104775000Y-142113000D02*
X103124000Y-140462000D01*
X103124000Y-140462000D02*
X103124000Y-138430000D01*
X122301000Y-119888000D02*
X131064000Y-119888000D01*
X131064000Y-119888000D02*
X132334000Y-121158000D01*
X132334000Y-121158000D02*
X132334000Y-123190000D01*
X132334000Y-123190000D02*
X134874000Y-123190000D01*
X134874000Y-123190000D02*
X134874000Y-120904000D01*
X134874000Y-120904000D02*
X135890000Y-119888000D01*
X135890000Y-119888000D02*
X138557000Y-119888000D01*
%TO.N,Net-(J1-Pad2)*%
X156464000Y-138430000D02*
X156464000Y-129540000D01*
X156464000Y-129540000D02*
X152654000Y-125730000D01*
X152654000Y-125730000D02*
X133604000Y-125730000D01*
%TO.N,Net-(J1-Pad4)*%
X136144000Y-138430000D02*
X136144000Y-134620000D01*
X136144000Y-134620000D02*
X136144000Y-134493000D01*
X136144000Y-134493000D02*
X131064000Y-129413000D01*
X131064000Y-129413000D02*
X131064000Y-125730000D01*
X131064000Y-125730000D02*
X129794000Y-124460000D01*
X129794000Y-124460000D02*
X129159000Y-124460000D01*
X129159000Y-124460000D02*
X128524000Y-123825000D01*
X128524000Y-123825000D02*
X128524000Y-122047000D01*
X128466999Y-121989999D02*
X128466999Y-121735999D01*
X128524000Y-122047000D02*
X128466999Y-121989999D01*
X128466999Y-121735999D02*
X127762000Y-121031000D01*
X127762000Y-121031000D02*
X125603000Y-121031000D01*
X125603000Y-121031000D02*
X123444000Y-123190000D01*
X123444000Y-123190000D02*
X112014000Y-123190000D01*
X112014000Y-123190000D02*
X111887000Y-123317000D01*
X111887000Y-123317000D02*
X112014000Y-123444000D01*
X112014000Y-123444000D02*
X112014000Y-129667000D01*
%TO.N,Net-(J1-Pad5)*%
X146304000Y-138430000D02*
X146304000Y-132461000D01*
X146304000Y-132461000D02*
X144272000Y-130429000D01*
X144272000Y-130429000D02*
X142621000Y-128778000D01*
X142621000Y-128778000D02*
X133604000Y-128778000D01*
X133604000Y-128778000D02*
X132334000Y-127508000D01*
X132334000Y-124966002D02*
X130557998Y-123190000D01*
X132334000Y-127508000D02*
X132334000Y-124966002D01*
X130557998Y-123190000D02*
X129794000Y-123190000D01*
%TO.N,Net-(J1-Pad6)*%
X128524000Y-125730000D02*
X128524000Y-133096000D01*
X128524000Y-133096000D02*
X125984000Y-135636000D01*
X125984000Y-135636000D02*
X125984000Y-138430000D01*
%TO.N,Net-(J1-Pad7)*%
X127254000Y-123190000D02*
X127254000Y-132842000D01*
X127254000Y-132842000D02*
X125095000Y-135001000D01*
X125095000Y-135001000D02*
X117221000Y-135001000D01*
X117221000Y-135001000D02*
X115824000Y-136398000D01*
X115824000Y-136398000D02*
X115824000Y-138430000D01*
%TO.N,Net-(J1-Pad8)*%
X125984000Y-125730000D02*
X125984000Y-132080000D01*
X125984000Y-132080000D02*
X125984000Y-132334000D01*
X125984000Y-132334000D02*
X124587000Y-133731000D01*
X124587000Y-133731000D02*
X107315000Y-133731000D01*
X107315000Y-133731000D02*
X105664000Y-135382000D01*
X105664000Y-135382000D02*
X105664000Y-138430000D01*
%TD*%
D18*
%TO.N,GND*%
G36*
X165329000Y-145390000D02*
G01*
X94894000Y-145390000D01*
X94894000Y-142016521D01*
X95774979Y-142016521D01*
X95774979Y-142463479D01*
X95862176Y-142901849D01*
X96033220Y-143314785D01*
X96281536Y-143686417D01*
X96597583Y-144002464D01*
X96969215Y-144250780D01*
X97382151Y-144421824D01*
X97820521Y-144509021D01*
X98267479Y-144509021D01*
X98705849Y-144421824D01*
X99118785Y-144250780D01*
X99490417Y-144002464D01*
X99806464Y-143686417D01*
X100054780Y-143314785D01*
X100225824Y-142901849D01*
X100313021Y-142463479D01*
X100313021Y-142016521D01*
X159909979Y-142016521D01*
X159909979Y-142463479D01*
X159997176Y-142901849D01*
X160168220Y-143314785D01*
X160416536Y-143686417D01*
X160732583Y-144002464D01*
X161104215Y-144250780D01*
X161517151Y-144421824D01*
X161955521Y-144509021D01*
X162402479Y-144509021D01*
X162840849Y-144421824D01*
X163253785Y-144250780D01*
X163625417Y-144002464D01*
X163941464Y-143686417D01*
X164189780Y-143314785D01*
X164360824Y-142901849D01*
X164448021Y-142463479D01*
X164448021Y-142016521D01*
X164360824Y-141578151D01*
X164189780Y-141165215D01*
X163941464Y-140793583D01*
X163625417Y-140477536D01*
X163253785Y-140229220D01*
X162840849Y-140058176D01*
X162402479Y-139970979D01*
X161955521Y-139970979D01*
X161517151Y-140058176D01*
X161104215Y-140229220D01*
X160732583Y-140477536D01*
X160416536Y-140793583D01*
X160168220Y-141165215D01*
X159997176Y-141578151D01*
X159909979Y-142016521D01*
X100313021Y-142016521D01*
X100225824Y-141578151D01*
X100054780Y-141165215D01*
X99806464Y-140793583D01*
X99490417Y-140477536D01*
X99118785Y-140229220D01*
X98705849Y-140058176D01*
X98267479Y-139970979D01*
X97820521Y-139970979D01*
X97382151Y-140058176D01*
X96969215Y-140229220D01*
X96597583Y-140477536D01*
X96281536Y-140793583D01*
X96033220Y-141165215D01*
X95862176Y-141578151D01*
X95774979Y-142016521D01*
X94894000Y-142016521D01*
X94894000Y-138786891D01*
X101682519Y-138786891D01*
X101779843Y-139061252D01*
X101928822Y-139311355D01*
X102123731Y-139527588D01*
X102357080Y-139701641D01*
X102619901Y-139826825D01*
X102767110Y-139871476D01*
X102997000Y-139750155D01*
X102997000Y-138557000D01*
X101803186Y-138557000D01*
X101682519Y-138786891D01*
X94894000Y-138786891D01*
X94894000Y-138073109D01*
X101682519Y-138073109D01*
X101803186Y-138303000D01*
X102997000Y-138303000D01*
X102997000Y-137109845D01*
X103251000Y-137109845D01*
X103251000Y-138303000D01*
X103271000Y-138303000D01*
X103271000Y-138557000D01*
X103251000Y-138557000D01*
X103251000Y-139750155D01*
X103480890Y-139871476D01*
X103628099Y-139826825D01*
X103890920Y-139701641D01*
X104124269Y-139527588D01*
X104200034Y-139443534D01*
X104224498Y-139524180D01*
X104283463Y-139634494D01*
X104362815Y-139731185D01*
X104459506Y-139810537D01*
X104569820Y-139869502D01*
X104689518Y-139905812D01*
X104814000Y-139918072D01*
X106514000Y-139918072D01*
X106638482Y-139905812D01*
X106758180Y-139869502D01*
X106868494Y-139810537D01*
X106965185Y-139731185D01*
X107044537Y-139634494D01*
X107103502Y-139524180D01*
X107139812Y-139404482D01*
X107152072Y-139280000D01*
X107152072Y-138786891D01*
X111842519Y-138786891D01*
X111939843Y-139061252D01*
X112088822Y-139311355D01*
X112283731Y-139527588D01*
X112517080Y-139701641D01*
X112779901Y-139826825D01*
X112927110Y-139871476D01*
X113157000Y-139750155D01*
X113157000Y-138557000D01*
X111963186Y-138557000D01*
X111842519Y-138786891D01*
X107152072Y-138786891D01*
X107152072Y-138073109D01*
X111842519Y-138073109D01*
X111963186Y-138303000D01*
X113157000Y-138303000D01*
X113157000Y-137109845D01*
X112927110Y-136988524D01*
X112779901Y-137033175D01*
X112517080Y-137158359D01*
X112283731Y-137332412D01*
X112088822Y-137548645D01*
X111939843Y-137798748D01*
X111842519Y-138073109D01*
X107152072Y-138073109D01*
X107152072Y-137580000D01*
X107139812Y-137455518D01*
X107103502Y-137335820D01*
X107044537Y-137225506D01*
X106965185Y-137128815D01*
X106868494Y-137049463D01*
X106758180Y-136990498D01*
X106638482Y-136954188D01*
X106549000Y-136945375D01*
X106549000Y-135748578D01*
X107681579Y-134616000D01*
X116354421Y-134616000D01*
X115228956Y-135741466D01*
X115195183Y-135769183D01*
X115084589Y-135903942D01*
X115002411Y-136057688D01*
X114951805Y-136224511D01*
X114939000Y-136354524D01*
X114939000Y-136354531D01*
X114934719Y-136398000D01*
X114939000Y-136441469D01*
X114939000Y-136945375D01*
X114849518Y-136954188D01*
X114729820Y-136990498D01*
X114619506Y-137049463D01*
X114522815Y-137128815D01*
X114443463Y-137225506D01*
X114384498Y-137335820D01*
X114360034Y-137416466D01*
X114284269Y-137332412D01*
X114050920Y-137158359D01*
X113788099Y-137033175D01*
X113640890Y-136988524D01*
X113411000Y-137109845D01*
X113411000Y-138303000D01*
X113431000Y-138303000D01*
X113431000Y-138557000D01*
X113411000Y-138557000D01*
X113411000Y-139750155D01*
X113640890Y-139871476D01*
X113788099Y-139826825D01*
X114050920Y-139701641D01*
X114284269Y-139527588D01*
X114360034Y-139443534D01*
X114384498Y-139524180D01*
X114443463Y-139634494D01*
X114522815Y-139731185D01*
X114619506Y-139810537D01*
X114729820Y-139869502D01*
X114849518Y-139905812D01*
X114974000Y-139918072D01*
X116674000Y-139918072D01*
X116798482Y-139905812D01*
X116918180Y-139869502D01*
X117028494Y-139810537D01*
X117125185Y-139731185D01*
X117204537Y-139634494D01*
X117263502Y-139524180D01*
X117299812Y-139404482D01*
X117312072Y-139280000D01*
X117312072Y-138786891D01*
X122002519Y-138786891D01*
X122099843Y-139061252D01*
X122248822Y-139311355D01*
X122443731Y-139527588D01*
X122677080Y-139701641D01*
X122939901Y-139826825D01*
X123087110Y-139871476D01*
X123317000Y-139750155D01*
X123317000Y-138557000D01*
X122123186Y-138557000D01*
X122002519Y-138786891D01*
X117312072Y-138786891D01*
X117312072Y-138073109D01*
X122002519Y-138073109D01*
X122123186Y-138303000D01*
X123317000Y-138303000D01*
X123317000Y-137109845D01*
X123087110Y-136988524D01*
X122939901Y-137033175D01*
X122677080Y-137158359D01*
X122443731Y-137332412D01*
X122248822Y-137548645D01*
X122099843Y-137798748D01*
X122002519Y-138073109D01*
X117312072Y-138073109D01*
X117312072Y-137580000D01*
X117299812Y-137455518D01*
X117263502Y-137335820D01*
X117204537Y-137225506D01*
X117125185Y-137128815D01*
X117028494Y-137049463D01*
X116918180Y-136990498D01*
X116798482Y-136954188D01*
X116709000Y-136945375D01*
X116709000Y-136764578D01*
X117587579Y-135886000D01*
X125051531Y-135886000D01*
X125095000Y-135890281D01*
X125099000Y-135889887D01*
X125099000Y-136945375D01*
X125009518Y-136954188D01*
X124889820Y-136990498D01*
X124779506Y-137049463D01*
X124682815Y-137128815D01*
X124603463Y-137225506D01*
X124544498Y-137335820D01*
X124520034Y-137416466D01*
X124444269Y-137332412D01*
X124210920Y-137158359D01*
X123948099Y-137033175D01*
X123800890Y-136988524D01*
X123571000Y-137109845D01*
X123571000Y-138303000D01*
X123591000Y-138303000D01*
X123591000Y-138557000D01*
X123571000Y-138557000D01*
X123571000Y-139750155D01*
X123800890Y-139871476D01*
X123948099Y-139826825D01*
X124210920Y-139701641D01*
X124444269Y-139527588D01*
X124520034Y-139443534D01*
X124544498Y-139524180D01*
X124603463Y-139634494D01*
X124682815Y-139731185D01*
X124779506Y-139810537D01*
X124889820Y-139869502D01*
X125009518Y-139905812D01*
X125134000Y-139918072D01*
X126834000Y-139918072D01*
X126958482Y-139905812D01*
X127078180Y-139869502D01*
X127188494Y-139810537D01*
X127285185Y-139731185D01*
X127364537Y-139634494D01*
X127423502Y-139524180D01*
X127459812Y-139404482D01*
X127472072Y-139280000D01*
X127472072Y-138786891D01*
X132162519Y-138786891D01*
X132259843Y-139061252D01*
X132408822Y-139311355D01*
X132603731Y-139527588D01*
X132837080Y-139701641D01*
X133099901Y-139826825D01*
X133247110Y-139871476D01*
X133477000Y-139750155D01*
X133477000Y-138557000D01*
X132283186Y-138557000D01*
X132162519Y-138786891D01*
X127472072Y-138786891D01*
X127472072Y-138073109D01*
X132162519Y-138073109D01*
X132283186Y-138303000D01*
X133477000Y-138303000D01*
X133477000Y-137109845D01*
X133247110Y-136988524D01*
X133099901Y-137033175D01*
X132837080Y-137158359D01*
X132603731Y-137332412D01*
X132408822Y-137548645D01*
X132259843Y-137798748D01*
X132162519Y-138073109D01*
X127472072Y-138073109D01*
X127472072Y-137580000D01*
X127459812Y-137455518D01*
X127423502Y-137335820D01*
X127364537Y-137225506D01*
X127285185Y-137128815D01*
X127188494Y-137049463D01*
X127078180Y-136990498D01*
X126958482Y-136954188D01*
X126869000Y-136945375D01*
X126869000Y-136002578D01*
X129119049Y-133752530D01*
X129152817Y-133724817D01*
X129263411Y-133590059D01*
X129345589Y-133436313D01*
X129396195Y-133269490D01*
X129409000Y-133139477D01*
X129409000Y-133139467D01*
X129413281Y-133096001D01*
X129409000Y-133052535D01*
X129409000Y-126803685D01*
X129599799Y-126612886D01*
X129751371Y-126386043D01*
X129794000Y-126283127D01*
X129836629Y-126386043D01*
X129988201Y-126612886D01*
X130179001Y-126803686D01*
X130179000Y-129369531D01*
X130174719Y-129413000D01*
X130179000Y-129456469D01*
X130179000Y-129456476D01*
X130190212Y-129570314D01*
X130191805Y-129586490D01*
X130195779Y-129599589D01*
X130242411Y-129753312D01*
X130324589Y-129907058D01*
X130435183Y-130041817D01*
X130468956Y-130069534D01*
X135259001Y-134859580D01*
X135259000Y-136945375D01*
X135169518Y-136954188D01*
X135049820Y-136990498D01*
X134939506Y-137049463D01*
X134842815Y-137128815D01*
X134763463Y-137225506D01*
X134704498Y-137335820D01*
X134680034Y-137416466D01*
X134604269Y-137332412D01*
X134370920Y-137158359D01*
X134108099Y-137033175D01*
X133960890Y-136988524D01*
X133731000Y-137109845D01*
X133731000Y-138303000D01*
X133751000Y-138303000D01*
X133751000Y-138557000D01*
X133731000Y-138557000D01*
X133731000Y-139750155D01*
X133960890Y-139871476D01*
X134108099Y-139826825D01*
X134370920Y-139701641D01*
X134604269Y-139527588D01*
X134680034Y-139443534D01*
X134704498Y-139524180D01*
X134763463Y-139634494D01*
X134842815Y-139731185D01*
X134939506Y-139810537D01*
X135049820Y-139869502D01*
X135169518Y-139905812D01*
X135294000Y-139918072D01*
X136994000Y-139918072D01*
X137118482Y-139905812D01*
X137238180Y-139869502D01*
X137348494Y-139810537D01*
X137445185Y-139731185D01*
X137524537Y-139634494D01*
X137583502Y-139524180D01*
X137619812Y-139404482D01*
X137632072Y-139280000D01*
X137632072Y-138786891D01*
X142322519Y-138786891D01*
X142419843Y-139061252D01*
X142568822Y-139311355D01*
X142763731Y-139527588D01*
X142997080Y-139701641D01*
X143259901Y-139826825D01*
X143407110Y-139871476D01*
X143637000Y-139750155D01*
X143637000Y-138557000D01*
X142443186Y-138557000D01*
X142322519Y-138786891D01*
X137632072Y-138786891D01*
X137632072Y-138073109D01*
X142322519Y-138073109D01*
X142443186Y-138303000D01*
X143637000Y-138303000D01*
X143637000Y-137109845D01*
X143407110Y-136988524D01*
X143259901Y-137033175D01*
X142997080Y-137158359D01*
X142763731Y-137332412D01*
X142568822Y-137548645D01*
X142419843Y-137798748D01*
X142322519Y-138073109D01*
X137632072Y-138073109D01*
X137632072Y-137580000D01*
X137619812Y-137455518D01*
X137583502Y-137335820D01*
X137524537Y-137225506D01*
X137445185Y-137128815D01*
X137348494Y-137049463D01*
X137238180Y-136990498D01*
X137118482Y-136954188D01*
X137029000Y-136945375D01*
X137029000Y-134536469D01*
X137033281Y-134493000D01*
X137029000Y-134449531D01*
X137029000Y-134449524D01*
X137016195Y-134319511D01*
X136965589Y-134152688D01*
X136922095Y-134071314D01*
X136883411Y-133998941D01*
X136800532Y-133897953D01*
X136800530Y-133897951D01*
X136772817Y-133864183D01*
X136739049Y-133836470D01*
X131949000Y-129046422D01*
X131949000Y-128374578D01*
X132947470Y-129373049D01*
X132975183Y-129406817D01*
X133008951Y-129434530D01*
X133008953Y-129434532D01*
X133035692Y-129456476D01*
X133109941Y-129517411D01*
X133263687Y-129599589D01*
X133430510Y-129650195D01*
X133560523Y-129663000D01*
X133560533Y-129663000D01*
X133603999Y-129667281D01*
X133647465Y-129663000D01*
X142254422Y-129663000D01*
X143676953Y-131085532D01*
X143676958Y-131085536D01*
X145419001Y-132827580D01*
X145419000Y-136945375D01*
X145329518Y-136954188D01*
X145209820Y-136990498D01*
X145099506Y-137049463D01*
X145002815Y-137128815D01*
X144923463Y-137225506D01*
X144864498Y-137335820D01*
X144840034Y-137416466D01*
X144764269Y-137332412D01*
X144530920Y-137158359D01*
X144268099Y-137033175D01*
X144120890Y-136988524D01*
X143891000Y-137109845D01*
X143891000Y-138303000D01*
X143911000Y-138303000D01*
X143911000Y-138557000D01*
X143891000Y-138557000D01*
X143891000Y-139750155D01*
X144120890Y-139871476D01*
X144268099Y-139826825D01*
X144530920Y-139701641D01*
X144764269Y-139527588D01*
X144840034Y-139443534D01*
X144864498Y-139524180D01*
X144923463Y-139634494D01*
X145002815Y-139731185D01*
X145099506Y-139810537D01*
X145209820Y-139869502D01*
X145329518Y-139905812D01*
X145454000Y-139918072D01*
X147154000Y-139918072D01*
X147278482Y-139905812D01*
X147398180Y-139869502D01*
X147508494Y-139810537D01*
X147605185Y-139731185D01*
X147684537Y-139634494D01*
X147743502Y-139524180D01*
X147779812Y-139404482D01*
X147792072Y-139280000D01*
X147792072Y-138786891D01*
X152482519Y-138786891D01*
X152579843Y-139061252D01*
X152728822Y-139311355D01*
X152923731Y-139527588D01*
X153157080Y-139701641D01*
X153419901Y-139826825D01*
X153567110Y-139871476D01*
X153797000Y-139750155D01*
X153797000Y-138557000D01*
X152603186Y-138557000D01*
X152482519Y-138786891D01*
X147792072Y-138786891D01*
X147792072Y-138073109D01*
X152482519Y-138073109D01*
X152603186Y-138303000D01*
X153797000Y-138303000D01*
X153797000Y-137109845D01*
X153567110Y-136988524D01*
X153419901Y-137033175D01*
X153157080Y-137158359D01*
X152923731Y-137332412D01*
X152728822Y-137548645D01*
X152579843Y-137798748D01*
X152482519Y-138073109D01*
X147792072Y-138073109D01*
X147792072Y-137580000D01*
X147779812Y-137455518D01*
X147743502Y-137335820D01*
X147684537Y-137225506D01*
X147605185Y-137128815D01*
X147508494Y-137049463D01*
X147398180Y-136990498D01*
X147278482Y-136954188D01*
X147189000Y-136945375D01*
X147189000Y-132504469D01*
X147193281Y-132461000D01*
X147189000Y-132417531D01*
X147189000Y-132417523D01*
X147176195Y-132287510D01*
X147125589Y-132120687D01*
X147043411Y-131966941D01*
X146932817Y-131832183D01*
X146899049Y-131804470D01*
X144928536Y-129833958D01*
X144928532Y-129833953D01*
X143277534Y-128182956D01*
X143249817Y-128149183D01*
X143115059Y-128038589D01*
X142961313Y-127956411D01*
X142794490Y-127905805D01*
X142664477Y-127893000D01*
X142664469Y-127893000D01*
X142621000Y-127888719D01*
X142577531Y-127893000D01*
X133970579Y-127893000D01*
X133219000Y-127141422D01*
X133219000Y-127065552D01*
X133467589Y-127115000D01*
X133740411Y-127115000D01*
X134007989Y-127061775D01*
X134260043Y-126957371D01*
X134486886Y-126805799D01*
X134677685Y-126615000D01*
X152287422Y-126615000D01*
X155579001Y-129906580D01*
X155579000Y-136945375D01*
X155489518Y-136954188D01*
X155369820Y-136990498D01*
X155259506Y-137049463D01*
X155162815Y-137128815D01*
X155083463Y-137225506D01*
X155024498Y-137335820D01*
X155000034Y-137416466D01*
X154924269Y-137332412D01*
X154690920Y-137158359D01*
X154428099Y-137033175D01*
X154280890Y-136988524D01*
X154051000Y-137109845D01*
X154051000Y-138303000D01*
X154071000Y-138303000D01*
X154071000Y-138557000D01*
X154051000Y-138557000D01*
X154051000Y-139750155D01*
X154280890Y-139871476D01*
X154428099Y-139826825D01*
X154690920Y-139701641D01*
X154924269Y-139527588D01*
X155000034Y-139443534D01*
X155024498Y-139524180D01*
X155083463Y-139634494D01*
X155162815Y-139731185D01*
X155259506Y-139810537D01*
X155369820Y-139869502D01*
X155489518Y-139905812D01*
X155614000Y-139918072D01*
X157314000Y-139918072D01*
X157438482Y-139905812D01*
X157558180Y-139869502D01*
X157668494Y-139810537D01*
X157765185Y-139731185D01*
X157844537Y-139634494D01*
X157903502Y-139524180D01*
X157939812Y-139404482D01*
X157952072Y-139280000D01*
X157952072Y-137580000D01*
X157939812Y-137455518D01*
X157903502Y-137335820D01*
X157844537Y-137225506D01*
X157765185Y-137128815D01*
X157668494Y-137049463D01*
X157558180Y-136990498D01*
X157438482Y-136954188D01*
X157349000Y-136945375D01*
X157349000Y-129583469D01*
X157353281Y-129540000D01*
X157349000Y-129496531D01*
X157349000Y-129496523D01*
X157336195Y-129366510D01*
X157285589Y-129199686D01*
X157203411Y-129045941D01*
X157120532Y-128944953D01*
X157120530Y-128944951D01*
X157092817Y-128911183D01*
X157059049Y-128883470D01*
X153310534Y-125134956D01*
X153282817Y-125101183D01*
X153148059Y-124990589D01*
X152994313Y-124908411D01*
X152827490Y-124857805D01*
X152697477Y-124845000D01*
X152697469Y-124845000D01*
X152654000Y-124840719D01*
X152610531Y-124845000D01*
X134677685Y-124845000D01*
X134486886Y-124654201D01*
X134370510Y-124576441D01*
X134588250Y-124575000D01*
X134747000Y-124416250D01*
X134747000Y-123317000D01*
X135001000Y-123317000D01*
X135001000Y-124416250D01*
X135159750Y-124575000D01*
X135624000Y-124578072D01*
X135748482Y-124565812D01*
X135868180Y-124529502D01*
X135978494Y-124470537D01*
X136075185Y-124391185D01*
X136154537Y-124294494D01*
X136213502Y-124184180D01*
X136249812Y-124064482D01*
X136262072Y-123940000D01*
X136259000Y-123475750D01*
X136100250Y-123317000D01*
X135001000Y-123317000D01*
X134747000Y-123317000D01*
X134727000Y-123317000D01*
X134727000Y-123063000D01*
X134747000Y-123063000D01*
X134747000Y-121963750D01*
X135001000Y-121963750D01*
X135001000Y-123063000D01*
X136100250Y-123063000D01*
X136259000Y-122904250D01*
X136262072Y-122440000D01*
X136249812Y-122315518D01*
X136213502Y-122195820D01*
X136154537Y-122085506D01*
X136075185Y-121988815D01*
X135978494Y-121909463D01*
X135868180Y-121850498D01*
X135748482Y-121814188D01*
X135624000Y-121801928D01*
X135159750Y-121805000D01*
X135001000Y-121963750D01*
X134747000Y-121963750D01*
X134588250Y-121805000D01*
X134124000Y-121801928D01*
X133999518Y-121814188D01*
X133879820Y-121850498D01*
X133769506Y-121909463D01*
X133672815Y-121988815D01*
X133593463Y-122085506D01*
X133534498Y-122195820D01*
X133498188Y-122315518D01*
X133485928Y-122440000D01*
X133486101Y-122466133D01*
X133290993Y-122412612D01*
X132513605Y-123190000D01*
X133290993Y-123967388D01*
X133486101Y-123913867D01*
X133485928Y-123940000D01*
X133498188Y-124064482D01*
X133534498Y-124184180D01*
X133593463Y-124294494D01*
X133634912Y-124345000D01*
X133467589Y-124345000D01*
X133200011Y-124398225D01*
X133060378Y-124456063D01*
X133015905Y-124401873D01*
X133045863Y-124385860D01*
X133111388Y-124146993D01*
X132334000Y-123369605D01*
X132319858Y-123383748D01*
X132140253Y-123204143D01*
X132154395Y-123190000D01*
X131377007Y-122412612D01*
X131138140Y-122478137D01*
X131123538Y-122509253D01*
X131052057Y-122450589D01*
X130917671Y-122378759D01*
X130869799Y-122307114D01*
X130795692Y-122233007D01*
X131556612Y-122233007D01*
X132334000Y-123010395D01*
X133111388Y-122233007D01*
X133045863Y-121994140D01*
X132798884Y-121878240D01*
X132534040Y-121812750D01*
X132261508Y-121800188D01*
X131991762Y-121841035D01*
X131735168Y-121933723D01*
X131622137Y-121994140D01*
X131556612Y-122233007D01*
X130795692Y-122233007D01*
X130676886Y-122114201D01*
X130450043Y-121962629D01*
X130197989Y-121858225D01*
X129930411Y-121805000D01*
X129657589Y-121805000D01*
X129391470Y-121857935D01*
X129355839Y-121740476D01*
X129356280Y-121735998D01*
X129351999Y-121692532D01*
X129351999Y-121692523D01*
X129339194Y-121562510D01*
X129288588Y-121395686D01*
X129206410Y-121241940D01*
X129146066Y-121168411D01*
X129123531Y-121140952D01*
X129123529Y-121140950D01*
X129095816Y-121107182D01*
X129062048Y-121079469D01*
X128720579Y-120738000D01*
X136560928Y-120738000D01*
X136573188Y-120862482D01*
X136609498Y-120982180D01*
X136668463Y-121092494D01*
X136747815Y-121189185D01*
X136844506Y-121268537D01*
X136954820Y-121327502D01*
X137074518Y-121363812D01*
X137199000Y-121376072D01*
X137763250Y-121373000D01*
X137922000Y-121214250D01*
X137922000Y-120015000D01*
X138176000Y-120015000D01*
X138176000Y-121214250D01*
X138334750Y-121373000D01*
X138899000Y-121376072D01*
X139023482Y-121363812D01*
X139143180Y-121327502D01*
X139253494Y-121268537D01*
X139350185Y-121189185D01*
X139429537Y-121092494D01*
X139488502Y-120982180D01*
X139524812Y-120862482D01*
X139537072Y-120738000D01*
X139534000Y-120173750D01*
X139375250Y-120015000D01*
X138176000Y-120015000D01*
X137922000Y-120015000D01*
X136722750Y-120015000D01*
X136564000Y-120173750D01*
X136560928Y-120738000D01*
X128720579Y-120738000D01*
X128418534Y-120435956D01*
X128390817Y-120402183D01*
X128256059Y-120291589D01*
X128102313Y-120209411D01*
X127935490Y-120158805D01*
X127805477Y-120146000D01*
X127805469Y-120146000D01*
X127762000Y-120141719D01*
X127718531Y-120146000D01*
X125646466Y-120146000D01*
X125602999Y-120141719D01*
X125559533Y-120146000D01*
X125559523Y-120146000D01*
X125429510Y-120158805D01*
X125262687Y-120209411D01*
X125108941Y-120291589D01*
X125108939Y-120291590D01*
X125108940Y-120291590D01*
X125007953Y-120374468D01*
X125007951Y-120374470D01*
X124974183Y-120402183D01*
X124946470Y-120435951D01*
X123077422Y-122305000D01*
X113389059Y-122305000D01*
X113283987Y-122147748D01*
X113056252Y-121920013D01*
X112788463Y-121741082D01*
X112490912Y-121617832D01*
X112175033Y-121555000D01*
X111852967Y-121555000D01*
X111537088Y-121617832D01*
X111239537Y-121741082D01*
X110971748Y-121920013D01*
X110744013Y-122147748D01*
X110565082Y-122415537D01*
X110441832Y-122713088D01*
X110379000Y-123028967D01*
X110379000Y-123351033D01*
X110441832Y-123666912D01*
X110565082Y-123964463D01*
X110744013Y-124232252D01*
X110971748Y-124459987D01*
X111129000Y-124565060D01*
X111129001Y-128314940D01*
X110971748Y-128420013D01*
X110744013Y-128647748D01*
X110565082Y-128915537D01*
X110441832Y-129213088D01*
X110379000Y-129528967D01*
X110379000Y-129851033D01*
X110441832Y-130166912D01*
X110565082Y-130464463D01*
X110744013Y-130732252D01*
X110971748Y-130959987D01*
X111239537Y-131138918D01*
X111537088Y-131262168D01*
X111852967Y-131325000D01*
X112175033Y-131325000D01*
X112490912Y-131262168D01*
X112788463Y-131138918D01*
X113056252Y-130959987D01*
X113283987Y-130732252D01*
X113462918Y-130464463D01*
X113586168Y-130166912D01*
X113649000Y-129851033D01*
X113649000Y-129528967D01*
X113586168Y-129213088D01*
X113462918Y-128915537D01*
X113283987Y-128647748D01*
X113056252Y-128420013D01*
X112899000Y-128314941D01*
X112899000Y-124565059D01*
X113056252Y-124459987D01*
X113283987Y-124232252D01*
X113389059Y-124075000D01*
X123400531Y-124075000D01*
X123444000Y-124079281D01*
X123487469Y-124075000D01*
X123487477Y-124075000D01*
X123617490Y-124062195D01*
X123784313Y-124011589D01*
X123938059Y-123929411D01*
X124072817Y-123818817D01*
X124100534Y-123785044D01*
X125969579Y-121916000D01*
X126710530Y-121916000D01*
X126597957Y-121962629D01*
X126371114Y-122114201D01*
X126178201Y-122307114D01*
X126026629Y-122533957D01*
X125922225Y-122786011D01*
X125869000Y-123053589D01*
X125869000Y-123326411D01*
X125922225Y-123593989D01*
X126026629Y-123846043D01*
X126178201Y-124072886D01*
X126369000Y-124263685D01*
X126369000Y-124394448D01*
X126120411Y-124345000D01*
X125847589Y-124345000D01*
X125580011Y-124398225D01*
X125327957Y-124502629D01*
X125101114Y-124654201D01*
X124908201Y-124847114D01*
X124756629Y-125073957D01*
X124652225Y-125326011D01*
X124599000Y-125593589D01*
X124599000Y-125866411D01*
X124652225Y-126133989D01*
X124756629Y-126386043D01*
X124908201Y-126612886D01*
X125099000Y-126803685D01*
X125099001Y-131967420D01*
X124220422Y-132846000D01*
X107358469Y-132846000D01*
X107315000Y-132841719D01*
X107271531Y-132846000D01*
X107271523Y-132846000D01*
X107141510Y-132858805D01*
X106974686Y-132909411D01*
X106820941Y-132991589D01*
X106719953Y-133074468D01*
X106719951Y-133074470D01*
X106686183Y-133102183D01*
X106658470Y-133135951D01*
X105068956Y-134725466D01*
X105035183Y-134753183D01*
X104924589Y-134887942D01*
X104842411Y-135041688D01*
X104791805Y-135208511D01*
X104779000Y-135338524D01*
X104779000Y-135338531D01*
X104774719Y-135382000D01*
X104779000Y-135425469D01*
X104779001Y-136945375D01*
X104689518Y-136954188D01*
X104569820Y-136990498D01*
X104459506Y-137049463D01*
X104362815Y-137128815D01*
X104283463Y-137225506D01*
X104224498Y-137335820D01*
X104200034Y-137416466D01*
X104124269Y-137332412D01*
X103890920Y-137158359D01*
X103628099Y-137033175D01*
X103480890Y-136988524D01*
X103251000Y-137109845D01*
X102997000Y-137109845D01*
X102767110Y-136988524D01*
X102619901Y-137033175D01*
X102357080Y-137158359D01*
X102123731Y-137332412D01*
X101928822Y-137548645D01*
X101779843Y-137798748D01*
X101682519Y-138073109D01*
X94894000Y-138073109D01*
X94894000Y-130825413D01*
X106558192Y-130825413D01*
X106653956Y-131089814D01*
X106943571Y-131230704D01*
X107255108Y-131312384D01*
X107576595Y-131331718D01*
X107895675Y-131287961D01*
X108200088Y-131182795D01*
X108374044Y-131089814D01*
X108469808Y-130825413D01*
X107514000Y-129869605D01*
X106558192Y-130825413D01*
X94894000Y-130825413D01*
X94894000Y-129752595D01*
X105872282Y-129752595D01*
X105916039Y-130071675D01*
X106021205Y-130376088D01*
X106114186Y-130550044D01*
X106378587Y-130645808D01*
X107334395Y-129690000D01*
X107693605Y-129690000D01*
X108649413Y-130645808D01*
X108913814Y-130550044D01*
X109054704Y-130260429D01*
X109136384Y-129948892D01*
X109155718Y-129627405D01*
X109111961Y-129308325D01*
X109006795Y-129003912D01*
X108913814Y-128829956D01*
X108649413Y-128734192D01*
X107693605Y-129690000D01*
X107334395Y-129690000D01*
X106378587Y-128734192D01*
X106114186Y-128829956D01*
X105973296Y-129119571D01*
X105891616Y-129431108D01*
X105872282Y-129752595D01*
X94894000Y-129752595D01*
X94894000Y-128554587D01*
X106558192Y-128554587D01*
X107514000Y-129510395D01*
X108469808Y-128554587D01*
X108374044Y-128290186D01*
X108084429Y-128149296D01*
X107772892Y-128067616D01*
X107451405Y-128048282D01*
X107132325Y-128092039D01*
X106827912Y-128197205D01*
X106653956Y-128290186D01*
X106558192Y-128554587D01*
X94894000Y-128554587D01*
X94894000Y-124325413D01*
X106558192Y-124325413D01*
X106653956Y-124589814D01*
X106943571Y-124730704D01*
X107255108Y-124812384D01*
X107576595Y-124831718D01*
X107895675Y-124787961D01*
X108200088Y-124682795D01*
X108374044Y-124589814D01*
X108469808Y-124325413D01*
X107514000Y-123369605D01*
X106558192Y-124325413D01*
X94894000Y-124325413D01*
X94894000Y-123252595D01*
X105872282Y-123252595D01*
X105916039Y-123571675D01*
X106021205Y-123876088D01*
X106114186Y-124050044D01*
X106378587Y-124145808D01*
X107334395Y-123190000D01*
X107693605Y-123190000D01*
X108649413Y-124145808D01*
X108913814Y-124050044D01*
X109054704Y-123760429D01*
X109136384Y-123448892D01*
X109155718Y-123127405D01*
X109111961Y-122808325D01*
X109006795Y-122503912D01*
X108913814Y-122329956D01*
X108649413Y-122234192D01*
X107693605Y-123190000D01*
X107334395Y-123190000D01*
X106378587Y-122234192D01*
X106114186Y-122329956D01*
X105973296Y-122619571D01*
X105891616Y-122931108D01*
X105872282Y-123252595D01*
X94894000Y-123252595D01*
X94894000Y-122054587D01*
X106558192Y-122054587D01*
X107514000Y-123010395D01*
X108469808Y-122054587D01*
X108374044Y-121790186D01*
X108084429Y-121649296D01*
X107772892Y-121567616D01*
X107451405Y-121548282D01*
X107132325Y-121592039D01*
X106827912Y-121697205D01*
X106653956Y-121790186D01*
X106558192Y-122054587D01*
X94894000Y-122054587D01*
X94894000Y-120738000D01*
X121320928Y-120738000D01*
X121333188Y-120862482D01*
X121369498Y-120982180D01*
X121428463Y-121092494D01*
X121507815Y-121189185D01*
X121604506Y-121268537D01*
X121714820Y-121327502D01*
X121834518Y-121363812D01*
X121959000Y-121376072D01*
X122523250Y-121373000D01*
X122682000Y-121214250D01*
X122682000Y-120015000D01*
X122936000Y-120015000D01*
X122936000Y-121214250D01*
X123094750Y-121373000D01*
X123659000Y-121376072D01*
X123783482Y-121363812D01*
X123903180Y-121327502D01*
X124013494Y-121268537D01*
X124110185Y-121189185D01*
X124189537Y-121092494D01*
X124248502Y-120982180D01*
X124284812Y-120862482D01*
X124297072Y-120738000D01*
X124294000Y-120173750D01*
X124135250Y-120015000D01*
X122936000Y-120015000D01*
X122682000Y-120015000D01*
X121482750Y-120015000D01*
X121324000Y-120173750D01*
X121320928Y-120738000D01*
X94894000Y-120738000D01*
X94894000Y-119038000D01*
X121320928Y-119038000D01*
X121324000Y-119602250D01*
X121482750Y-119761000D01*
X122682000Y-119761000D01*
X122682000Y-118561750D01*
X122523250Y-118403000D01*
X121959000Y-118399928D01*
X121834518Y-118412188D01*
X121714820Y-118448498D01*
X121604506Y-118507463D01*
X121507815Y-118586815D01*
X121428463Y-118683506D01*
X121369498Y-118793820D01*
X121333188Y-118913518D01*
X121320928Y-119038000D01*
X94894000Y-119038000D01*
X94894000Y-116619872D01*
X122479000Y-116619872D01*
X122479000Y-117060128D01*
X122564890Y-117491925D01*
X122733369Y-117898669D01*
X122977962Y-118264729D01*
X123116117Y-118402884D01*
X123094750Y-118403000D01*
X122936000Y-118561750D01*
X122936000Y-119761000D01*
X124135250Y-119761000D01*
X124294000Y-119602250D01*
X124297072Y-119038000D01*
X124296856Y-119035811D01*
X124493872Y-119075000D01*
X124934128Y-119075000D01*
X125365925Y-118989110D01*
X125772669Y-118820631D01*
X126138729Y-118576038D01*
X126450038Y-118264729D01*
X126694631Y-117898669D01*
X126863110Y-117491925D01*
X126949000Y-117060128D01*
X126949000Y-116619872D01*
X133909000Y-116619872D01*
X133909000Y-117060128D01*
X133994890Y-117491925D01*
X134163369Y-117898669D01*
X134407962Y-118264729D01*
X134719271Y-118576038D01*
X135085331Y-118820631D01*
X135492075Y-118989110D01*
X135923872Y-119075000D01*
X136364128Y-119075000D01*
X136561144Y-119035811D01*
X136560928Y-119038000D01*
X136564000Y-119602250D01*
X136722750Y-119761000D01*
X137922000Y-119761000D01*
X137922000Y-118561750D01*
X138176000Y-118561750D01*
X138176000Y-119761000D01*
X139375250Y-119761000D01*
X139534000Y-119602250D01*
X139537072Y-119038000D01*
X139524812Y-118913518D01*
X139488502Y-118793820D01*
X139429537Y-118683506D01*
X139350185Y-118586815D01*
X139253494Y-118507463D01*
X139143180Y-118448498D01*
X139023482Y-118412188D01*
X138899000Y-118399928D01*
X138334750Y-118403000D01*
X138176000Y-118561750D01*
X137922000Y-118561750D01*
X137763250Y-118403000D01*
X137741883Y-118402884D01*
X137880038Y-118264729D01*
X138124631Y-117898669D01*
X138293110Y-117491925D01*
X138379000Y-117060128D01*
X138379000Y-116619872D01*
X138293110Y-116188075D01*
X138124631Y-115781331D01*
X137880038Y-115415271D01*
X137568729Y-115103962D01*
X137202669Y-114859369D01*
X136795925Y-114690890D01*
X136364128Y-114605000D01*
X135923872Y-114605000D01*
X135492075Y-114690890D01*
X135085331Y-114859369D01*
X134719271Y-115103962D01*
X134407962Y-115415271D01*
X134163369Y-115781331D01*
X133994890Y-116188075D01*
X133909000Y-116619872D01*
X126949000Y-116619872D01*
X126863110Y-116188075D01*
X126694631Y-115781331D01*
X126450038Y-115415271D01*
X126138729Y-115103962D01*
X125772669Y-114859369D01*
X125365925Y-114690890D01*
X124934128Y-114605000D01*
X124493872Y-114605000D01*
X124062075Y-114690890D01*
X123655331Y-114859369D01*
X123289271Y-115103962D01*
X122977962Y-115415271D01*
X122733369Y-115781331D01*
X122564890Y-116188075D01*
X122479000Y-116619872D01*
X94894000Y-116619872D01*
X94894000Y-114076521D01*
X95774979Y-114076521D01*
X95774979Y-114523479D01*
X95862176Y-114961849D01*
X96033220Y-115374785D01*
X96281536Y-115746417D01*
X96597583Y-116062464D01*
X96969215Y-116310780D01*
X97382151Y-116481824D01*
X97820521Y-116569021D01*
X98267479Y-116569021D01*
X98705849Y-116481824D01*
X99118785Y-116310780D01*
X99490417Y-116062464D01*
X99806464Y-115746417D01*
X100054780Y-115374785D01*
X100225824Y-114961849D01*
X100313021Y-114523479D01*
X100313021Y-114076521D01*
X159909979Y-114076521D01*
X159909979Y-114523479D01*
X159997176Y-114961849D01*
X160168220Y-115374785D01*
X160416536Y-115746417D01*
X160732583Y-116062464D01*
X161104215Y-116310780D01*
X161517151Y-116481824D01*
X161955521Y-116569021D01*
X162402479Y-116569021D01*
X162840849Y-116481824D01*
X163253785Y-116310780D01*
X163625417Y-116062464D01*
X163941464Y-115746417D01*
X164189780Y-115374785D01*
X164360824Y-114961849D01*
X164448021Y-114523479D01*
X164448021Y-114076521D01*
X164360824Y-113638151D01*
X164189780Y-113225215D01*
X163941464Y-112853583D01*
X163625417Y-112537536D01*
X163253785Y-112289220D01*
X162840849Y-112118176D01*
X162402479Y-112030979D01*
X161955521Y-112030979D01*
X161517151Y-112118176D01*
X161104215Y-112289220D01*
X160732583Y-112537536D01*
X160416536Y-112853583D01*
X160168220Y-113225215D01*
X159997176Y-113638151D01*
X159909979Y-114076521D01*
X100313021Y-114076521D01*
X100225824Y-113638151D01*
X100054780Y-113225215D01*
X99806464Y-112853583D01*
X99490417Y-112537536D01*
X99118785Y-112289220D01*
X98705849Y-112118176D01*
X98267479Y-112030979D01*
X97820521Y-112030979D01*
X97382151Y-112118176D01*
X96969215Y-112289220D01*
X96597583Y-112537536D01*
X96281536Y-112853583D01*
X96033220Y-113225215D01*
X95862176Y-113638151D01*
X95774979Y-114076521D01*
X94894000Y-114076521D01*
X94894000Y-111150000D01*
X165329001Y-111150000D01*
X165329000Y-145390000D01*
G37*
X165329000Y-145390000D02*
X94894000Y-145390000D01*
X94894000Y-142016521D01*
X95774979Y-142016521D01*
X95774979Y-142463479D01*
X95862176Y-142901849D01*
X96033220Y-143314785D01*
X96281536Y-143686417D01*
X96597583Y-144002464D01*
X96969215Y-144250780D01*
X97382151Y-144421824D01*
X97820521Y-144509021D01*
X98267479Y-144509021D01*
X98705849Y-144421824D01*
X99118785Y-144250780D01*
X99490417Y-144002464D01*
X99806464Y-143686417D01*
X100054780Y-143314785D01*
X100225824Y-142901849D01*
X100313021Y-142463479D01*
X100313021Y-142016521D01*
X159909979Y-142016521D01*
X159909979Y-142463479D01*
X159997176Y-142901849D01*
X160168220Y-143314785D01*
X160416536Y-143686417D01*
X160732583Y-144002464D01*
X161104215Y-144250780D01*
X161517151Y-144421824D01*
X161955521Y-144509021D01*
X162402479Y-144509021D01*
X162840849Y-144421824D01*
X163253785Y-144250780D01*
X163625417Y-144002464D01*
X163941464Y-143686417D01*
X164189780Y-143314785D01*
X164360824Y-142901849D01*
X164448021Y-142463479D01*
X164448021Y-142016521D01*
X164360824Y-141578151D01*
X164189780Y-141165215D01*
X163941464Y-140793583D01*
X163625417Y-140477536D01*
X163253785Y-140229220D01*
X162840849Y-140058176D01*
X162402479Y-139970979D01*
X161955521Y-139970979D01*
X161517151Y-140058176D01*
X161104215Y-140229220D01*
X160732583Y-140477536D01*
X160416536Y-140793583D01*
X160168220Y-141165215D01*
X159997176Y-141578151D01*
X159909979Y-142016521D01*
X100313021Y-142016521D01*
X100225824Y-141578151D01*
X100054780Y-141165215D01*
X99806464Y-140793583D01*
X99490417Y-140477536D01*
X99118785Y-140229220D01*
X98705849Y-140058176D01*
X98267479Y-139970979D01*
X97820521Y-139970979D01*
X97382151Y-140058176D01*
X96969215Y-140229220D01*
X96597583Y-140477536D01*
X96281536Y-140793583D01*
X96033220Y-141165215D01*
X95862176Y-141578151D01*
X95774979Y-142016521D01*
X94894000Y-142016521D01*
X94894000Y-138786891D01*
X101682519Y-138786891D01*
X101779843Y-139061252D01*
X101928822Y-139311355D01*
X102123731Y-139527588D01*
X102357080Y-139701641D01*
X102619901Y-139826825D01*
X102767110Y-139871476D01*
X102997000Y-139750155D01*
X102997000Y-138557000D01*
X101803186Y-138557000D01*
X101682519Y-138786891D01*
X94894000Y-138786891D01*
X94894000Y-138073109D01*
X101682519Y-138073109D01*
X101803186Y-138303000D01*
X102997000Y-138303000D01*
X102997000Y-137109845D01*
X103251000Y-137109845D01*
X103251000Y-138303000D01*
X103271000Y-138303000D01*
X103271000Y-138557000D01*
X103251000Y-138557000D01*
X103251000Y-139750155D01*
X103480890Y-139871476D01*
X103628099Y-139826825D01*
X103890920Y-139701641D01*
X104124269Y-139527588D01*
X104200034Y-139443534D01*
X104224498Y-139524180D01*
X104283463Y-139634494D01*
X104362815Y-139731185D01*
X104459506Y-139810537D01*
X104569820Y-139869502D01*
X104689518Y-139905812D01*
X104814000Y-139918072D01*
X106514000Y-139918072D01*
X106638482Y-139905812D01*
X106758180Y-139869502D01*
X106868494Y-139810537D01*
X106965185Y-139731185D01*
X107044537Y-139634494D01*
X107103502Y-139524180D01*
X107139812Y-139404482D01*
X107152072Y-139280000D01*
X107152072Y-138786891D01*
X111842519Y-138786891D01*
X111939843Y-139061252D01*
X112088822Y-139311355D01*
X112283731Y-139527588D01*
X112517080Y-139701641D01*
X112779901Y-139826825D01*
X112927110Y-139871476D01*
X113157000Y-139750155D01*
X113157000Y-138557000D01*
X111963186Y-138557000D01*
X111842519Y-138786891D01*
X107152072Y-138786891D01*
X107152072Y-138073109D01*
X111842519Y-138073109D01*
X111963186Y-138303000D01*
X113157000Y-138303000D01*
X113157000Y-137109845D01*
X112927110Y-136988524D01*
X112779901Y-137033175D01*
X112517080Y-137158359D01*
X112283731Y-137332412D01*
X112088822Y-137548645D01*
X111939843Y-137798748D01*
X111842519Y-138073109D01*
X107152072Y-138073109D01*
X107152072Y-137580000D01*
X107139812Y-137455518D01*
X107103502Y-137335820D01*
X107044537Y-137225506D01*
X106965185Y-137128815D01*
X106868494Y-137049463D01*
X106758180Y-136990498D01*
X106638482Y-136954188D01*
X106549000Y-136945375D01*
X106549000Y-135748578D01*
X107681579Y-134616000D01*
X116354421Y-134616000D01*
X115228956Y-135741466D01*
X115195183Y-135769183D01*
X115084589Y-135903942D01*
X115002411Y-136057688D01*
X114951805Y-136224511D01*
X114939000Y-136354524D01*
X114939000Y-136354531D01*
X114934719Y-136398000D01*
X114939000Y-136441469D01*
X114939000Y-136945375D01*
X114849518Y-136954188D01*
X114729820Y-136990498D01*
X114619506Y-137049463D01*
X114522815Y-137128815D01*
X114443463Y-137225506D01*
X114384498Y-137335820D01*
X114360034Y-137416466D01*
X114284269Y-137332412D01*
X114050920Y-137158359D01*
X113788099Y-137033175D01*
X113640890Y-136988524D01*
X113411000Y-137109845D01*
X113411000Y-138303000D01*
X113431000Y-138303000D01*
X113431000Y-138557000D01*
X113411000Y-138557000D01*
X113411000Y-139750155D01*
X113640890Y-139871476D01*
X113788099Y-139826825D01*
X114050920Y-139701641D01*
X114284269Y-139527588D01*
X114360034Y-139443534D01*
X114384498Y-139524180D01*
X114443463Y-139634494D01*
X114522815Y-139731185D01*
X114619506Y-139810537D01*
X114729820Y-139869502D01*
X114849518Y-139905812D01*
X114974000Y-139918072D01*
X116674000Y-139918072D01*
X116798482Y-139905812D01*
X116918180Y-139869502D01*
X117028494Y-139810537D01*
X117125185Y-139731185D01*
X117204537Y-139634494D01*
X117263502Y-139524180D01*
X117299812Y-139404482D01*
X117312072Y-139280000D01*
X117312072Y-138786891D01*
X122002519Y-138786891D01*
X122099843Y-139061252D01*
X122248822Y-139311355D01*
X122443731Y-139527588D01*
X122677080Y-139701641D01*
X122939901Y-139826825D01*
X123087110Y-139871476D01*
X123317000Y-139750155D01*
X123317000Y-138557000D01*
X122123186Y-138557000D01*
X122002519Y-138786891D01*
X117312072Y-138786891D01*
X117312072Y-138073109D01*
X122002519Y-138073109D01*
X122123186Y-138303000D01*
X123317000Y-138303000D01*
X123317000Y-137109845D01*
X123087110Y-136988524D01*
X122939901Y-137033175D01*
X122677080Y-137158359D01*
X122443731Y-137332412D01*
X122248822Y-137548645D01*
X122099843Y-137798748D01*
X122002519Y-138073109D01*
X117312072Y-138073109D01*
X117312072Y-137580000D01*
X117299812Y-137455518D01*
X117263502Y-137335820D01*
X117204537Y-137225506D01*
X117125185Y-137128815D01*
X117028494Y-137049463D01*
X116918180Y-136990498D01*
X116798482Y-136954188D01*
X116709000Y-136945375D01*
X116709000Y-136764578D01*
X117587579Y-135886000D01*
X125051531Y-135886000D01*
X125095000Y-135890281D01*
X125099000Y-135889887D01*
X125099000Y-136945375D01*
X125009518Y-136954188D01*
X124889820Y-136990498D01*
X124779506Y-137049463D01*
X124682815Y-137128815D01*
X124603463Y-137225506D01*
X124544498Y-137335820D01*
X124520034Y-137416466D01*
X124444269Y-137332412D01*
X124210920Y-137158359D01*
X123948099Y-137033175D01*
X123800890Y-136988524D01*
X123571000Y-137109845D01*
X123571000Y-138303000D01*
X123591000Y-138303000D01*
X123591000Y-138557000D01*
X123571000Y-138557000D01*
X123571000Y-139750155D01*
X123800890Y-139871476D01*
X123948099Y-139826825D01*
X124210920Y-139701641D01*
X124444269Y-139527588D01*
X124520034Y-139443534D01*
X124544498Y-139524180D01*
X124603463Y-139634494D01*
X124682815Y-139731185D01*
X124779506Y-139810537D01*
X124889820Y-139869502D01*
X125009518Y-139905812D01*
X125134000Y-139918072D01*
X126834000Y-139918072D01*
X126958482Y-139905812D01*
X127078180Y-139869502D01*
X127188494Y-139810537D01*
X127285185Y-139731185D01*
X127364537Y-139634494D01*
X127423502Y-139524180D01*
X127459812Y-139404482D01*
X127472072Y-139280000D01*
X127472072Y-138786891D01*
X132162519Y-138786891D01*
X132259843Y-139061252D01*
X132408822Y-139311355D01*
X132603731Y-139527588D01*
X132837080Y-139701641D01*
X133099901Y-139826825D01*
X133247110Y-139871476D01*
X133477000Y-139750155D01*
X133477000Y-138557000D01*
X132283186Y-138557000D01*
X132162519Y-138786891D01*
X127472072Y-138786891D01*
X127472072Y-138073109D01*
X132162519Y-138073109D01*
X132283186Y-138303000D01*
X133477000Y-138303000D01*
X133477000Y-137109845D01*
X133247110Y-136988524D01*
X133099901Y-137033175D01*
X132837080Y-137158359D01*
X132603731Y-137332412D01*
X132408822Y-137548645D01*
X132259843Y-137798748D01*
X132162519Y-138073109D01*
X127472072Y-138073109D01*
X127472072Y-137580000D01*
X127459812Y-137455518D01*
X127423502Y-137335820D01*
X127364537Y-137225506D01*
X127285185Y-137128815D01*
X127188494Y-137049463D01*
X127078180Y-136990498D01*
X126958482Y-136954188D01*
X126869000Y-136945375D01*
X126869000Y-136002578D01*
X129119049Y-133752530D01*
X129152817Y-133724817D01*
X129263411Y-133590059D01*
X129345589Y-133436313D01*
X129396195Y-133269490D01*
X129409000Y-133139477D01*
X129409000Y-133139467D01*
X129413281Y-133096001D01*
X129409000Y-133052535D01*
X129409000Y-126803685D01*
X129599799Y-126612886D01*
X129751371Y-126386043D01*
X129794000Y-126283127D01*
X129836629Y-126386043D01*
X129988201Y-126612886D01*
X130179001Y-126803686D01*
X130179000Y-129369531D01*
X130174719Y-129413000D01*
X130179000Y-129456469D01*
X130179000Y-129456476D01*
X130190212Y-129570314D01*
X130191805Y-129586490D01*
X130195779Y-129599589D01*
X130242411Y-129753312D01*
X130324589Y-129907058D01*
X130435183Y-130041817D01*
X130468956Y-130069534D01*
X135259001Y-134859580D01*
X135259000Y-136945375D01*
X135169518Y-136954188D01*
X135049820Y-136990498D01*
X134939506Y-137049463D01*
X134842815Y-137128815D01*
X134763463Y-137225506D01*
X134704498Y-137335820D01*
X134680034Y-137416466D01*
X134604269Y-137332412D01*
X134370920Y-137158359D01*
X134108099Y-137033175D01*
X133960890Y-136988524D01*
X133731000Y-137109845D01*
X133731000Y-138303000D01*
X133751000Y-138303000D01*
X133751000Y-138557000D01*
X133731000Y-138557000D01*
X133731000Y-139750155D01*
X133960890Y-139871476D01*
X134108099Y-139826825D01*
X134370920Y-139701641D01*
X134604269Y-139527588D01*
X134680034Y-139443534D01*
X134704498Y-139524180D01*
X134763463Y-139634494D01*
X134842815Y-139731185D01*
X134939506Y-139810537D01*
X135049820Y-139869502D01*
X135169518Y-139905812D01*
X135294000Y-139918072D01*
X136994000Y-139918072D01*
X137118482Y-139905812D01*
X137238180Y-139869502D01*
X137348494Y-139810537D01*
X137445185Y-139731185D01*
X137524537Y-139634494D01*
X137583502Y-139524180D01*
X137619812Y-139404482D01*
X137632072Y-139280000D01*
X137632072Y-138786891D01*
X142322519Y-138786891D01*
X142419843Y-139061252D01*
X142568822Y-139311355D01*
X142763731Y-139527588D01*
X142997080Y-139701641D01*
X143259901Y-139826825D01*
X143407110Y-139871476D01*
X143637000Y-139750155D01*
X143637000Y-138557000D01*
X142443186Y-138557000D01*
X142322519Y-138786891D01*
X137632072Y-138786891D01*
X137632072Y-138073109D01*
X142322519Y-138073109D01*
X142443186Y-138303000D01*
X143637000Y-138303000D01*
X143637000Y-137109845D01*
X143407110Y-136988524D01*
X143259901Y-137033175D01*
X142997080Y-137158359D01*
X142763731Y-137332412D01*
X142568822Y-137548645D01*
X142419843Y-137798748D01*
X142322519Y-138073109D01*
X137632072Y-138073109D01*
X137632072Y-137580000D01*
X137619812Y-137455518D01*
X137583502Y-137335820D01*
X137524537Y-137225506D01*
X137445185Y-137128815D01*
X137348494Y-137049463D01*
X137238180Y-136990498D01*
X137118482Y-136954188D01*
X137029000Y-136945375D01*
X137029000Y-134536469D01*
X137033281Y-134493000D01*
X137029000Y-134449531D01*
X137029000Y-134449524D01*
X137016195Y-134319511D01*
X136965589Y-134152688D01*
X136922095Y-134071314D01*
X136883411Y-133998941D01*
X136800532Y-133897953D01*
X136800530Y-133897951D01*
X136772817Y-133864183D01*
X136739049Y-133836470D01*
X131949000Y-129046422D01*
X131949000Y-128374578D01*
X132947470Y-129373049D01*
X132975183Y-129406817D01*
X133008951Y-129434530D01*
X133008953Y-129434532D01*
X133035692Y-129456476D01*
X133109941Y-129517411D01*
X133263687Y-129599589D01*
X133430510Y-129650195D01*
X133560523Y-129663000D01*
X133560533Y-129663000D01*
X133603999Y-129667281D01*
X133647465Y-129663000D01*
X142254422Y-129663000D01*
X143676953Y-131085532D01*
X143676958Y-131085536D01*
X145419001Y-132827580D01*
X145419000Y-136945375D01*
X145329518Y-136954188D01*
X145209820Y-136990498D01*
X145099506Y-137049463D01*
X145002815Y-137128815D01*
X144923463Y-137225506D01*
X144864498Y-137335820D01*
X144840034Y-137416466D01*
X144764269Y-137332412D01*
X144530920Y-137158359D01*
X144268099Y-137033175D01*
X144120890Y-136988524D01*
X143891000Y-137109845D01*
X143891000Y-138303000D01*
X143911000Y-138303000D01*
X143911000Y-138557000D01*
X143891000Y-138557000D01*
X143891000Y-139750155D01*
X144120890Y-139871476D01*
X144268099Y-139826825D01*
X144530920Y-139701641D01*
X144764269Y-139527588D01*
X144840034Y-139443534D01*
X144864498Y-139524180D01*
X144923463Y-139634494D01*
X145002815Y-139731185D01*
X145099506Y-139810537D01*
X145209820Y-139869502D01*
X145329518Y-139905812D01*
X145454000Y-139918072D01*
X147154000Y-139918072D01*
X147278482Y-139905812D01*
X147398180Y-139869502D01*
X147508494Y-139810537D01*
X147605185Y-139731185D01*
X147684537Y-139634494D01*
X147743502Y-139524180D01*
X147779812Y-139404482D01*
X147792072Y-139280000D01*
X147792072Y-138786891D01*
X152482519Y-138786891D01*
X152579843Y-139061252D01*
X152728822Y-139311355D01*
X152923731Y-139527588D01*
X153157080Y-139701641D01*
X153419901Y-139826825D01*
X153567110Y-139871476D01*
X153797000Y-139750155D01*
X153797000Y-138557000D01*
X152603186Y-138557000D01*
X152482519Y-138786891D01*
X147792072Y-138786891D01*
X147792072Y-138073109D01*
X152482519Y-138073109D01*
X152603186Y-138303000D01*
X153797000Y-138303000D01*
X153797000Y-137109845D01*
X153567110Y-136988524D01*
X153419901Y-137033175D01*
X153157080Y-137158359D01*
X152923731Y-137332412D01*
X152728822Y-137548645D01*
X152579843Y-137798748D01*
X152482519Y-138073109D01*
X147792072Y-138073109D01*
X147792072Y-137580000D01*
X147779812Y-137455518D01*
X147743502Y-137335820D01*
X147684537Y-137225506D01*
X147605185Y-137128815D01*
X147508494Y-137049463D01*
X147398180Y-136990498D01*
X147278482Y-136954188D01*
X147189000Y-136945375D01*
X147189000Y-132504469D01*
X147193281Y-132461000D01*
X147189000Y-132417531D01*
X147189000Y-132417523D01*
X147176195Y-132287510D01*
X147125589Y-132120687D01*
X147043411Y-131966941D01*
X146932817Y-131832183D01*
X146899049Y-131804470D01*
X144928536Y-129833958D01*
X144928532Y-129833953D01*
X143277534Y-128182956D01*
X143249817Y-128149183D01*
X143115059Y-128038589D01*
X142961313Y-127956411D01*
X142794490Y-127905805D01*
X142664477Y-127893000D01*
X142664469Y-127893000D01*
X142621000Y-127888719D01*
X142577531Y-127893000D01*
X133970579Y-127893000D01*
X133219000Y-127141422D01*
X133219000Y-127065552D01*
X133467589Y-127115000D01*
X133740411Y-127115000D01*
X134007989Y-127061775D01*
X134260043Y-126957371D01*
X134486886Y-126805799D01*
X134677685Y-126615000D01*
X152287422Y-126615000D01*
X155579001Y-129906580D01*
X155579000Y-136945375D01*
X155489518Y-136954188D01*
X155369820Y-136990498D01*
X155259506Y-137049463D01*
X155162815Y-137128815D01*
X155083463Y-137225506D01*
X155024498Y-137335820D01*
X155000034Y-137416466D01*
X154924269Y-137332412D01*
X154690920Y-137158359D01*
X154428099Y-137033175D01*
X154280890Y-136988524D01*
X154051000Y-137109845D01*
X154051000Y-138303000D01*
X154071000Y-138303000D01*
X154071000Y-138557000D01*
X154051000Y-138557000D01*
X154051000Y-139750155D01*
X154280890Y-139871476D01*
X154428099Y-139826825D01*
X154690920Y-139701641D01*
X154924269Y-139527588D01*
X155000034Y-139443534D01*
X155024498Y-139524180D01*
X155083463Y-139634494D01*
X155162815Y-139731185D01*
X155259506Y-139810537D01*
X155369820Y-139869502D01*
X155489518Y-139905812D01*
X155614000Y-139918072D01*
X157314000Y-139918072D01*
X157438482Y-139905812D01*
X157558180Y-139869502D01*
X157668494Y-139810537D01*
X157765185Y-139731185D01*
X157844537Y-139634494D01*
X157903502Y-139524180D01*
X157939812Y-139404482D01*
X157952072Y-139280000D01*
X157952072Y-137580000D01*
X157939812Y-137455518D01*
X157903502Y-137335820D01*
X157844537Y-137225506D01*
X157765185Y-137128815D01*
X157668494Y-137049463D01*
X157558180Y-136990498D01*
X157438482Y-136954188D01*
X157349000Y-136945375D01*
X157349000Y-129583469D01*
X157353281Y-129540000D01*
X157349000Y-129496531D01*
X157349000Y-129496523D01*
X157336195Y-129366510D01*
X157285589Y-129199686D01*
X157203411Y-129045941D01*
X157120532Y-128944953D01*
X157120530Y-128944951D01*
X157092817Y-128911183D01*
X157059049Y-128883470D01*
X153310534Y-125134956D01*
X153282817Y-125101183D01*
X153148059Y-124990589D01*
X152994313Y-124908411D01*
X152827490Y-124857805D01*
X152697477Y-124845000D01*
X152697469Y-124845000D01*
X152654000Y-124840719D01*
X152610531Y-124845000D01*
X134677685Y-124845000D01*
X134486886Y-124654201D01*
X134370510Y-124576441D01*
X134588250Y-124575000D01*
X134747000Y-124416250D01*
X134747000Y-123317000D01*
X135001000Y-123317000D01*
X135001000Y-124416250D01*
X135159750Y-124575000D01*
X135624000Y-124578072D01*
X135748482Y-124565812D01*
X135868180Y-124529502D01*
X135978494Y-124470537D01*
X136075185Y-124391185D01*
X136154537Y-124294494D01*
X136213502Y-124184180D01*
X136249812Y-124064482D01*
X136262072Y-123940000D01*
X136259000Y-123475750D01*
X136100250Y-123317000D01*
X135001000Y-123317000D01*
X134747000Y-123317000D01*
X134727000Y-123317000D01*
X134727000Y-123063000D01*
X134747000Y-123063000D01*
X134747000Y-121963750D01*
X135001000Y-121963750D01*
X135001000Y-123063000D01*
X136100250Y-123063000D01*
X136259000Y-122904250D01*
X136262072Y-122440000D01*
X136249812Y-122315518D01*
X136213502Y-122195820D01*
X136154537Y-122085506D01*
X136075185Y-121988815D01*
X135978494Y-121909463D01*
X135868180Y-121850498D01*
X135748482Y-121814188D01*
X135624000Y-121801928D01*
X135159750Y-121805000D01*
X135001000Y-121963750D01*
X134747000Y-121963750D01*
X134588250Y-121805000D01*
X134124000Y-121801928D01*
X133999518Y-121814188D01*
X133879820Y-121850498D01*
X133769506Y-121909463D01*
X133672815Y-121988815D01*
X133593463Y-122085506D01*
X133534498Y-122195820D01*
X133498188Y-122315518D01*
X133485928Y-122440000D01*
X133486101Y-122466133D01*
X133290993Y-122412612D01*
X132513605Y-123190000D01*
X133290993Y-123967388D01*
X133486101Y-123913867D01*
X133485928Y-123940000D01*
X133498188Y-124064482D01*
X133534498Y-124184180D01*
X133593463Y-124294494D01*
X133634912Y-124345000D01*
X133467589Y-124345000D01*
X133200011Y-124398225D01*
X133060378Y-124456063D01*
X133015905Y-124401873D01*
X133045863Y-124385860D01*
X133111388Y-124146993D01*
X132334000Y-123369605D01*
X132319858Y-123383748D01*
X132140253Y-123204143D01*
X132154395Y-123190000D01*
X131377007Y-122412612D01*
X131138140Y-122478137D01*
X131123538Y-122509253D01*
X131052057Y-122450589D01*
X130917671Y-122378759D01*
X130869799Y-122307114D01*
X130795692Y-122233007D01*
X131556612Y-122233007D01*
X132334000Y-123010395D01*
X133111388Y-122233007D01*
X133045863Y-121994140D01*
X132798884Y-121878240D01*
X132534040Y-121812750D01*
X132261508Y-121800188D01*
X131991762Y-121841035D01*
X131735168Y-121933723D01*
X131622137Y-121994140D01*
X131556612Y-122233007D01*
X130795692Y-122233007D01*
X130676886Y-122114201D01*
X130450043Y-121962629D01*
X130197989Y-121858225D01*
X129930411Y-121805000D01*
X129657589Y-121805000D01*
X129391470Y-121857935D01*
X129355839Y-121740476D01*
X129356280Y-121735998D01*
X129351999Y-121692532D01*
X129351999Y-121692523D01*
X129339194Y-121562510D01*
X129288588Y-121395686D01*
X129206410Y-121241940D01*
X129146066Y-121168411D01*
X129123531Y-121140952D01*
X129123529Y-121140950D01*
X129095816Y-121107182D01*
X129062048Y-121079469D01*
X128720579Y-120738000D01*
X136560928Y-120738000D01*
X136573188Y-120862482D01*
X136609498Y-120982180D01*
X136668463Y-121092494D01*
X136747815Y-121189185D01*
X136844506Y-121268537D01*
X136954820Y-121327502D01*
X137074518Y-121363812D01*
X137199000Y-121376072D01*
X137763250Y-121373000D01*
X137922000Y-121214250D01*
X137922000Y-120015000D01*
X138176000Y-120015000D01*
X138176000Y-121214250D01*
X138334750Y-121373000D01*
X138899000Y-121376072D01*
X139023482Y-121363812D01*
X139143180Y-121327502D01*
X139253494Y-121268537D01*
X139350185Y-121189185D01*
X139429537Y-121092494D01*
X139488502Y-120982180D01*
X139524812Y-120862482D01*
X139537072Y-120738000D01*
X139534000Y-120173750D01*
X139375250Y-120015000D01*
X138176000Y-120015000D01*
X137922000Y-120015000D01*
X136722750Y-120015000D01*
X136564000Y-120173750D01*
X136560928Y-120738000D01*
X128720579Y-120738000D01*
X128418534Y-120435956D01*
X128390817Y-120402183D01*
X128256059Y-120291589D01*
X128102313Y-120209411D01*
X127935490Y-120158805D01*
X127805477Y-120146000D01*
X127805469Y-120146000D01*
X127762000Y-120141719D01*
X127718531Y-120146000D01*
X125646466Y-120146000D01*
X125602999Y-120141719D01*
X125559533Y-120146000D01*
X125559523Y-120146000D01*
X125429510Y-120158805D01*
X125262687Y-120209411D01*
X125108941Y-120291589D01*
X125108939Y-120291590D01*
X125108940Y-120291590D01*
X125007953Y-120374468D01*
X125007951Y-120374470D01*
X124974183Y-120402183D01*
X124946470Y-120435951D01*
X123077422Y-122305000D01*
X113389059Y-122305000D01*
X113283987Y-122147748D01*
X113056252Y-121920013D01*
X112788463Y-121741082D01*
X112490912Y-121617832D01*
X112175033Y-121555000D01*
X111852967Y-121555000D01*
X111537088Y-121617832D01*
X111239537Y-121741082D01*
X110971748Y-121920013D01*
X110744013Y-122147748D01*
X110565082Y-122415537D01*
X110441832Y-122713088D01*
X110379000Y-123028967D01*
X110379000Y-123351033D01*
X110441832Y-123666912D01*
X110565082Y-123964463D01*
X110744013Y-124232252D01*
X110971748Y-124459987D01*
X111129000Y-124565060D01*
X111129001Y-128314940D01*
X110971748Y-128420013D01*
X110744013Y-128647748D01*
X110565082Y-128915537D01*
X110441832Y-129213088D01*
X110379000Y-129528967D01*
X110379000Y-129851033D01*
X110441832Y-130166912D01*
X110565082Y-130464463D01*
X110744013Y-130732252D01*
X110971748Y-130959987D01*
X111239537Y-131138918D01*
X111537088Y-131262168D01*
X111852967Y-131325000D01*
X112175033Y-131325000D01*
X112490912Y-131262168D01*
X112788463Y-131138918D01*
X113056252Y-130959987D01*
X113283987Y-130732252D01*
X113462918Y-130464463D01*
X113586168Y-130166912D01*
X113649000Y-129851033D01*
X113649000Y-129528967D01*
X113586168Y-129213088D01*
X113462918Y-128915537D01*
X113283987Y-128647748D01*
X113056252Y-128420013D01*
X112899000Y-128314941D01*
X112899000Y-124565059D01*
X113056252Y-124459987D01*
X113283987Y-124232252D01*
X113389059Y-124075000D01*
X123400531Y-124075000D01*
X123444000Y-124079281D01*
X123487469Y-124075000D01*
X123487477Y-124075000D01*
X123617490Y-124062195D01*
X123784313Y-124011589D01*
X123938059Y-123929411D01*
X124072817Y-123818817D01*
X124100534Y-123785044D01*
X125969579Y-121916000D01*
X126710530Y-121916000D01*
X126597957Y-121962629D01*
X126371114Y-122114201D01*
X126178201Y-122307114D01*
X126026629Y-122533957D01*
X125922225Y-122786011D01*
X125869000Y-123053589D01*
X125869000Y-123326411D01*
X125922225Y-123593989D01*
X126026629Y-123846043D01*
X126178201Y-124072886D01*
X126369000Y-124263685D01*
X126369000Y-124394448D01*
X126120411Y-124345000D01*
X125847589Y-124345000D01*
X125580011Y-124398225D01*
X125327957Y-124502629D01*
X125101114Y-124654201D01*
X124908201Y-124847114D01*
X124756629Y-125073957D01*
X124652225Y-125326011D01*
X124599000Y-125593589D01*
X124599000Y-125866411D01*
X124652225Y-126133989D01*
X124756629Y-126386043D01*
X124908201Y-126612886D01*
X125099000Y-126803685D01*
X125099001Y-131967420D01*
X124220422Y-132846000D01*
X107358469Y-132846000D01*
X107315000Y-132841719D01*
X107271531Y-132846000D01*
X107271523Y-132846000D01*
X107141510Y-132858805D01*
X106974686Y-132909411D01*
X106820941Y-132991589D01*
X106719953Y-133074468D01*
X106719951Y-133074470D01*
X106686183Y-133102183D01*
X106658470Y-133135951D01*
X105068956Y-134725466D01*
X105035183Y-134753183D01*
X104924589Y-134887942D01*
X104842411Y-135041688D01*
X104791805Y-135208511D01*
X104779000Y-135338524D01*
X104779000Y-135338531D01*
X104774719Y-135382000D01*
X104779000Y-135425469D01*
X104779001Y-136945375D01*
X104689518Y-136954188D01*
X104569820Y-136990498D01*
X104459506Y-137049463D01*
X104362815Y-137128815D01*
X104283463Y-137225506D01*
X104224498Y-137335820D01*
X104200034Y-137416466D01*
X104124269Y-137332412D01*
X103890920Y-137158359D01*
X103628099Y-137033175D01*
X103480890Y-136988524D01*
X103251000Y-137109845D01*
X102997000Y-137109845D01*
X102767110Y-136988524D01*
X102619901Y-137033175D01*
X102357080Y-137158359D01*
X102123731Y-137332412D01*
X101928822Y-137548645D01*
X101779843Y-137798748D01*
X101682519Y-138073109D01*
X94894000Y-138073109D01*
X94894000Y-130825413D01*
X106558192Y-130825413D01*
X106653956Y-131089814D01*
X106943571Y-131230704D01*
X107255108Y-131312384D01*
X107576595Y-131331718D01*
X107895675Y-131287961D01*
X108200088Y-131182795D01*
X108374044Y-131089814D01*
X108469808Y-130825413D01*
X107514000Y-129869605D01*
X106558192Y-130825413D01*
X94894000Y-130825413D01*
X94894000Y-129752595D01*
X105872282Y-129752595D01*
X105916039Y-130071675D01*
X106021205Y-130376088D01*
X106114186Y-130550044D01*
X106378587Y-130645808D01*
X107334395Y-129690000D01*
X107693605Y-129690000D01*
X108649413Y-130645808D01*
X108913814Y-130550044D01*
X109054704Y-130260429D01*
X109136384Y-129948892D01*
X109155718Y-129627405D01*
X109111961Y-129308325D01*
X109006795Y-129003912D01*
X108913814Y-128829956D01*
X108649413Y-128734192D01*
X107693605Y-129690000D01*
X107334395Y-129690000D01*
X106378587Y-128734192D01*
X106114186Y-128829956D01*
X105973296Y-129119571D01*
X105891616Y-129431108D01*
X105872282Y-129752595D01*
X94894000Y-129752595D01*
X94894000Y-128554587D01*
X106558192Y-128554587D01*
X107514000Y-129510395D01*
X108469808Y-128554587D01*
X108374044Y-128290186D01*
X108084429Y-128149296D01*
X107772892Y-128067616D01*
X107451405Y-128048282D01*
X107132325Y-128092039D01*
X106827912Y-128197205D01*
X106653956Y-128290186D01*
X106558192Y-128554587D01*
X94894000Y-128554587D01*
X94894000Y-124325413D01*
X106558192Y-124325413D01*
X106653956Y-124589814D01*
X106943571Y-124730704D01*
X107255108Y-124812384D01*
X107576595Y-124831718D01*
X107895675Y-124787961D01*
X108200088Y-124682795D01*
X108374044Y-124589814D01*
X108469808Y-124325413D01*
X107514000Y-123369605D01*
X106558192Y-124325413D01*
X94894000Y-124325413D01*
X94894000Y-123252595D01*
X105872282Y-123252595D01*
X105916039Y-123571675D01*
X106021205Y-123876088D01*
X106114186Y-124050044D01*
X106378587Y-124145808D01*
X107334395Y-123190000D01*
X107693605Y-123190000D01*
X108649413Y-124145808D01*
X108913814Y-124050044D01*
X109054704Y-123760429D01*
X109136384Y-123448892D01*
X109155718Y-123127405D01*
X109111961Y-122808325D01*
X109006795Y-122503912D01*
X108913814Y-122329956D01*
X108649413Y-122234192D01*
X107693605Y-123190000D01*
X107334395Y-123190000D01*
X106378587Y-122234192D01*
X106114186Y-122329956D01*
X105973296Y-122619571D01*
X105891616Y-122931108D01*
X105872282Y-123252595D01*
X94894000Y-123252595D01*
X94894000Y-122054587D01*
X106558192Y-122054587D01*
X107514000Y-123010395D01*
X108469808Y-122054587D01*
X108374044Y-121790186D01*
X108084429Y-121649296D01*
X107772892Y-121567616D01*
X107451405Y-121548282D01*
X107132325Y-121592039D01*
X106827912Y-121697205D01*
X106653956Y-121790186D01*
X106558192Y-122054587D01*
X94894000Y-122054587D01*
X94894000Y-120738000D01*
X121320928Y-120738000D01*
X121333188Y-120862482D01*
X121369498Y-120982180D01*
X121428463Y-121092494D01*
X121507815Y-121189185D01*
X121604506Y-121268537D01*
X121714820Y-121327502D01*
X121834518Y-121363812D01*
X121959000Y-121376072D01*
X122523250Y-121373000D01*
X122682000Y-121214250D01*
X122682000Y-120015000D01*
X122936000Y-120015000D01*
X122936000Y-121214250D01*
X123094750Y-121373000D01*
X123659000Y-121376072D01*
X123783482Y-121363812D01*
X123903180Y-121327502D01*
X124013494Y-121268537D01*
X124110185Y-121189185D01*
X124189537Y-121092494D01*
X124248502Y-120982180D01*
X124284812Y-120862482D01*
X124297072Y-120738000D01*
X124294000Y-120173750D01*
X124135250Y-120015000D01*
X122936000Y-120015000D01*
X122682000Y-120015000D01*
X121482750Y-120015000D01*
X121324000Y-120173750D01*
X121320928Y-120738000D01*
X94894000Y-120738000D01*
X94894000Y-119038000D01*
X121320928Y-119038000D01*
X121324000Y-119602250D01*
X121482750Y-119761000D01*
X122682000Y-119761000D01*
X122682000Y-118561750D01*
X122523250Y-118403000D01*
X121959000Y-118399928D01*
X121834518Y-118412188D01*
X121714820Y-118448498D01*
X121604506Y-118507463D01*
X121507815Y-118586815D01*
X121428463Y-118683506D01*
X121369498Y-118793820D01*
X121333188Y-118913518D01*
X121320928Y-119038000D01*
X94894000Y-119038000D01*
X94894000Y-116619872D01*
X122479000Y-116619872D01*
X122479000Y-117060128D01*
X122564890Y-117491925D01*
X122733369Y-117898669D01*
X122977962Y-118264729D01*
X123116117Y-118402884D01*
X123094750Y-118403000D01*
X122936000Y-118561750D01*
X122936000Y-119761000D01*
X124135250Y-119761000D01*
X124294000Y-119602250D01*
X124297072Y-119038000D01*
X124296856Y-119035811D01*
X124493872Y-119075000D01*
X124934128Y-119075000D01*
X125365925Y-118989110D01*
X125772669Y-118820631D01*
X126138729Y-118576038D01*
X126450038Y-118264729D01*
X126694631Y-117898669D01*
X126863110Y-117491925D01*
X126949000Y-117060128D01*
X126949000Y-116619872D01*
X133909000Y-116619872D01*
X133909000Y-117060128D01*
X133994890Y-117491925D01*
X134163369Y-117898669D01*
X134407962Y-118264729D01*
X134719271Y-118576038D01*
X135085331Y-118820631D01*
X135492075Y-118989110D01*
X135923872Y-119075000D01*
X136364128Y-119075000D01*
X136561144Y-119035811D01*
X136560928Y-119038000D01*
X136564000Y-119602250D01*
X136722750Y-119761000D01*
X137922000Y-119761000D01*
X137922000Y-118561750D01*
X138176000Y-118561750D01*
X138176000Y-119761000D01*
X139375250Y-119761000D01*
X139534000Y-119602250D01*
X139537072Y-119038000D01*
X139524812Y-118913518D01*
X139488502Y-118793820D01*
X139429537Y-118683506D01*
X139350185Y-118586815D01*
X139253494Y-118507463D01*
X139143180Y-118448498D01*
X139023482Y-118412188D01*
X138899000Y-118399928D01*
X138334750Y-118403000D01*
X138176000Y-118561750D01*
X137922000Y-118561750D01*
X137763250Y-118403000D01*
X137741883Y-118402884D01*
X137880038Y-118264729D01*
X138124631Y-117898669D01*
X138293110Y-117491925D01*
X138379000Y-117060128D01*
X138379000Y-116619872D01*
X138293110Y-116188075D01*
X138124631Y-115781331D01*
X137880038Y-115415271D01*
X137568729Y-115103962D01*
X137202669Y-114859369D01*
X136795925Y-114690890D01*
X136364128Y-114605000D01*
X135923872Y-114605000D01*
X135492075Y-114690890D01*
X135085331Y-114859369D01*
X134719271Y-115103962D01*
X134407962Y-115415271D01*
X134163369Y-115781331D01*
X133994890Y-116188075D01*
X133909000Y-116619872D01*
X126949000Y-116619872D01*
X126863110Y-116188075D01*
X126694631Y-115781331D01*
X126450038Y-115415271D01*
X126138729Y-115103962D01*
X125772669Y-114859369D01*
X125365925Y-114690890D01*
X124934128Y-114605000D01*
X124493872Y-114605000D01*
X124062075Y-114690890D01*
X123655331Y-114859369D01*
X123289271Y-115103962D01*
X122977962Y-115415271D01*
X122733369Y-115781331D01*
X122564890Y-116188075D01*
X122479000Y-116619872D01*
X94894000Y-116619872D01*
X94894000Y-114076521D01*
X95774979Y-114076521D01*
X95774979Y-114523479D01*
X95862176Y-114961849D01*
X96033220Y-115374785D01*
X96281536Y-115746417D01*
X96597583Y-116062464D01*
X96969215Y-116310780D01*
X97382151Y-116481824D01*
X97820521Y-116569021D01*
X98267479Y-116569021D01*
X98705849Y-116481824D01*
X99118785Y-116310780D01*
X99490417Y-116062464D01*
X99806464Y-115746417D01*
X100054780Y-115374785D01*
X100225824Y-114961849D01*
X100313021Y-114523479D01*
X100313021Y-114076521D01*
X159909979Y-114076521D01*
X159909979Y-114523479D01*
X159997176Y-114961849D01*
X160168220Y-115374785D01*
X160416536Y-115746417D01*
X160732583Y-116062464D01*
X161104215Y-116310780D01*
X161517151Y-116481824D01*
X161955521Y-116569021D01*
X162402479Y-116569021D01*
X162840849Y-116481824D01*
X163253785Y-116310780D01*
X163625417Y-116062464D01*
X163941464Y-115746417D01*
X164189780Y-115374785D01*
X164360824Y-114961849D01*
X164448021Y-114523479D01*
X164448021Y-114076521D01*
X164360824Y-113638151D01*
X164189780Y-113225215D01*
X163941464Y-112853583D01*
X163625417Y-112537536D01*
X163253785Y-112289220D01*
X162840849Y-112118176D01*
X162402479Y-112030979D01*
X161955521Y-112030979D01*
X161517151Y-112118176D01*
X161104215Y-112289220D01*
X160732583Y-112537536D01*
X160416536Y-112853583D01*
X160168220Y-113225215D01*
X159997176Y-113638151D01*
X159909979Y-114076521D01*
X100313021Y-114076521D01*
X100225824Y-113638151D01*
X100054780Y-113225215D01*
X99806464Y-112853583D01*
X99490417Y-112537536D01*
X99118785Y-112289220D01*
X98705849Y-112118176D01*
X98267479Y-112030979D01*
X97820521Y-112030979D01*
X97382151Y-112118176D01*
X96969215Y-112289220D01*
X96597583Y-112537536D01*
X96281536Y-112853583D01*
X96033220Y-113225215D01*
X95862176Y-113638151D01*
X95774979Y-114076521D01*
X94894000Y-114076521D01*
X94894000Y-111150000D01*
X165329001Y-111150000D01*
X165329000Y-145390000D01*
%TD*%
M02*
