<?xml version="1.0" standalone="no"?>
 <!DOCTYPE svg PUBLIC "-//W3C//DTD SVG 1.1//EN" 
 "http://www.w3.org/Graphics/SVG/1.1/DTD/svg11.dtd"> 
<svg
  xmlns:svg="http://www.w3.org/2000/svg"
  xmlns="http://www.w3.org/2000/svg"
  xmlns:xlink="http://www.w3.org/1999/xlink"
  version="1.1"
  width="29.700220cm" height="21.000720cm" viewBox="0 0 116930 82680">
<title>SVG Picture created as e-r-wifi-lf.svg date 2021/12/16 15:42:32 </title>
  <desc>Picture generated by Eeschema-SVG </desc>
<g style="fill:#000000; fill-opacity:1;stroke:#000000; stroke-opacity:1;
stroke-linecap:round; stroke-linejoin:round;"
 transform="translate(0 0) scale(1 1)">
</g>
<g style="fill:#000000; fill-opacity:0.0; 
stroke:#000000; stroke-width:-10; stroke-opacity:1; 
stroke-linecap:round; stroke-linejoin:round;">
</g>
<g style="fill:#840000; fill-opacity:0.0; 
stroke:#840000; stroke-width:-10; stroke-opacity:1; 
stroke-linecap:round; stroke-linejoin:round;">
</g>
<g style="fill:#840000; fill-opacity:0.0; 
stroke:#840000; stroke-width:100; stroke-opacity:1; 
stroke-linecap:round; stroke-linejoin:round;">
</g>
<g style="fill:#840000; fill-opacity:0.0; 
stroke:#840000; stroke-width:60; stroke-opacity:1; 
stroke-linecap:round; stroke-linejoin:round;">
<rect x="69690" y="65360" width="42520" height="12600" rx="0" />
</g>
<g style="fill:#840000; fill-opacity:0.0; 
stroke:#840000; stroke-width:100; stroke-opacity:1; 
stroke-linecap:round; stroke-linejoin:round;">
</g>
<g style="fill:#840000; fill-opacity:0.0; 
stroke:#840000; stroke-width:60; stroke-opacity:1; 
stroke-linecap:round; stroke-linejoin:round;">
<rect x="3940" y="3940" width="109050" height="74800" rx="0" />
</g>
<g style="fill:#840000; fill-opacity:0.0; 
stroke:#840000; stroke-width:100; stroke-opacity:1; 
stroke-linecap:round; stroke-linejoin:round;">
</g>
<g style="fill:#840000; fill-opacity:0.0; 
stroke:#840000; stroke-width:60; stroke-opacity:1; 
stroke-linecap:round; stroke-linejoin:round;">
<rect x="4720" y="4720" width="107490" height="73240" rx="0" />
</g>
<g style="fill:#840000; fill-opacity:0.0; 
stroke:#840000; stroke-width:100; stroke-opacity:1; 
stroke-linecap:round; stroke-linejoin:round;">
</g>
<g style="fill:#840000; fill-opacity:0.0; 
stroke:#840000; stroke-width:60; stroke-opacity:1; 
stroke-linecap:round; stroke-linejoin:round;">
<path d="M23620 4720
L23620 3940
" />
</g>
<g style="fill:#840000; fill-opacity:0.0; 
stroke:#840000; stroke-width:100; stroke-opacity:1; 
stroke-linecap:round; stroke-linejoin:round;">
</g>
<g style="fill:#840000; fill-opacity:0.0; 
stroke:#840000; stroke-width:60; stroke-opacity:1; 
stroke-linecap:round; stroke-linejoin:round;">
<path d="M43310 4720
L43310 3940
" />
</g>
<g style="fill:#840000; fill-opacity:0.0; 
stroke:#840000; stroke-width:100; stroke-opacity:1; 
stroke-linecap:round; stroke-linejoin:round;">
</g>
<g style="fill:#840000; fill-opacity:0.0; 
stroke:#840000; stroke-width:60; stroke-opacity:1; 
stroke-linecap:round; stroke-linejoin:round;">
<path d="M62990 4720
L62990 3940
" />
</g>
<g style="fill:#840000; fill-opacity:0.0; 
stroke:#840000; stroke-width:100; stroke-opacity:1; 
stroke-linecap:round; stroke-linejoin:round;">
</g>
<g style="fill:#840000; fill-opacity:0.0; 
stroke:#840000; stroke-width:60; stroke-opacity:1; 
stroke-linecap:round; stroke-linejoin:round;">
<path d="M82680 4720
L82680 3940
" />
</g>
<g style="fill:#840000; fill-opacity:0.0; 
stroke:#840000; stroke-width:100; stroke-opacity:1; 
stroke-linecap:round; stroke-linejoin:round;">
</g>
<g style="fill:#840000; fill-opacity:0.0; 
stroke:#840000; stroke-width:60; stroke-opacity:1; 
stroke-linecap:round; stroke-linejoin:round;">
<path d="M102360 4720
L102360 3940
" />
</g>
<g style="fill:#840000; fill-opacity:0.0; 
stroke:#840000; stroke-width:100; stroke-opacity:1; 
stroke-linecap:round; stroke-linejoin:round;">
</g>
<g style="fill:#840000; fill-opacity:0.0; 
stroke:#840000; stroke-width:60; stroke-opacity:1; 
stroke-linecap:round; stroke-linejoin:round;">
<text x="13780" y="4580"
textLength="800" font-size="680" lengthAdjust="spacingAndGlyphs"
text-anchor="start" opacity="0">1</text>
<path d="M14190 4560
L13900 4560
" />
<path d="M14050 4560
L14050 4050
L14000 4120
L13950 4170
L13900 4190
" />
</g>
<g style="fill:#840000; fill-opacity:0.0; 
stroke:#840000; stroke-width:100; stroke-opacity:1; 
stroke-linecap:round; stroke-linejoin:round;">
</g>
<g style="fill:#840000; fill-opacity:0.0; 
stroke:#840000; stroke-width:60; stroke-opacity:1; 
stroke-linecap:round; stroke-linejoin:round;">
<text x="33460" y="4580"
textLength="550" font-size="680" lengthAdjust="spacingAndGlyphs"
text-anchor="start" opacity="0">2</text>
<path d="M33580 4090
L33610 4070
L33660 4050
L33780 4050
L33830 4070
L33850 4090
L33870 4140
L33870 4190
L33850 4260
L33560 4560
L33870 4560
" />
</g>
<g style="fill:#840000; fill-opacity:0.0; 
stroke:#840000; stroke-width:100; stroke-opacity:1; 
stroke-linecap:round; stroke-linejoin:round;">
</g>
<g style="fill:#840000; fill-opacity:0.0; 
stroke:#840000; stroke-width:60; stroke-opacity:1; 
stroke-linecap:round; stroke-linejoin:round;">
<text x="53150" y="4580"
textLength="550" font-size="680" lengthAdjust="spacingAndGlyphs"
text-anchor="start" opacity="0">3</text>
<path d="M53250 4050
L53560 4050
L53390 4240
L53470 4240
L53520 4260
L53540 4290
L53560 4340
L53560 4460
L53540 4510
L53520 4530
L53470 4560
L53320 4560
L53270 4530
L53250 4510
" />
</g>
<g style="fill:#840000; fill-opacity:0.0; 
stroke:#840000; stroke-width:100; stroke-opacity:1; 
stroke-linecap:round; stroke-linejoin:round;">
</g>
<g style="fill:#840000; fill-opacity:0.0; 
stroke:#840000; stroke-width:60; stroke-opacity:1; 
stroke-linecap:round; stroke-linejoin:round;">
<text x="72830" y="4580"
textLength="550" font-size="680" lengthAdjust="spacingAndGlyphs"
text-anchor="start" opacity="0">4</text>
<path d="M73200 4220
L73200 4560
" />
<path d="M73070 4020
L72950 4390
L73270 4390
" />
</g>
<g style="fill:#840000; fill-opacity:0.0; 
stroke:#840000; stroke-width:100; stroke-opacity:1; 
stroke-linecap:round; stroke-linejoin:round;">
</g>
<g style="fill:#840000; fill-opacity:0.0; 
stroke:#840000; stroke-width:60; stroke-opacity:1; 
stroke-linecap:round; stroke-linejoin:round;">
<text x="92520" y="4580"
textLength="550" font-size="680" lengthAdjust="spacingAndGlyphs"
text-anchor="start" opacity="0">5</text>
<path d="M92910 4050
L92670 4050
L92640 4290
L92670 4260
L92720 4240
L92840 4240
L92890 4260
L92910 4290
L92930 4340
L92930 4460
L92910 4510
L92890 4530
L92840 4560
L92720 4560
L92670 4530
L92640 4510
" />
</g>
<g style="fill:#840000; fill-opacity:0.0; 
stroke:#840000; stroke-width:100; stroke-opacity:1; 
stroke-linecap:round; stroke-linejoin:round;">
</g>
<g style="fill:#840000; fill-opacity:0.0; 
stroke:#840000; stroke-width:60; stroke-opacity:1; 
stroke-linecap:round; stroke-linejoin:round;">
<text x="112200" y="4580"
textLength="550" font-size="680" lengthAdjust="spacingAndGlyphs"
text-anchor="start" opacity="0">6</text>
<path d="M112570 4050
L112470 4050
L112420 4070
L112400 4090
L112350 4170
L112320 4260
L112320 4460
L112350 4510
L112370 4530
L112420 4560
L112520 4560
L112570 4530
L112590 4510
L112610 4460
L112610 4340
L112590 4290
L112570 4260
L112520 4240
L112420 4240
L112370 4260
L112350 4290
L112320 4340
" />
</g>
<g style="fill:#840000; fill-opacity:0.0; 
stroke:#840000; stroke-width:100; stroke-opacity:1; 
stroke-linecap:round; stroke-linejoin:round;">
</g>
<g style="fill:#840000; fill-opacity:0.0; 
stroke:#840000; stroke-width:60; stroke-opacity:1; 
stroke-linecap:round; stroke-linejoin:round;">
<path d="M23620 77960
L23620 78740
" />
</g>
<g style="fill:#840000; fill-opacity:0.0; 
stroke:#840000; stroke-width:100; stroke-opacity:1; 
stroke-linecap:round; stroke-linejoin:round;">
</g>
<g style="fill:#840000; fill-opacity:0.0; 
stroke:#840000; stroke-width:60; stroke-opacity:1; 
stroke-linecap:round; stroke-linejoin:round;">
<path d="M43310 77960
L43310 78740
" />
</g>
<g style="fill:#840000; fill-opacity:0.0; 
stroke:#840000; stroke-width:100; stroke-opacity:1; 
stroke-linecap:round; stroke-linejoin:round;">
</g>
<g style="fill:#840000; fill-opacity:0.0; 
stroke:#840000; stroke-width:60; stroke-opacity:1; 
stroke-linecap:round; stroke-linejoin:round;">
<path d="M62990 77960
L62990 78740
" />
</g>
<g style="fill:#840000; fill-opacity:0.0; 
stroke:#840000; stroke-width:100; stroke-opacity:1; 
stroke-linecap:round; stroke-linejoin:round;">
</g>
<g style="fill:#840000; fill-opacity:0.0; 
stroke:#840000; stroke-width:60; stroke-opacity:1; 
stroke-linecap:round; stroke-linejoin:round;">
<path d="M82680 77960
L82680 78740
" />
</g>
<g style="fill:#840000; fill-opacity:0.0; 
stroke:#840000; stroke-width:100; stroke-opacity:1; 
stroke-linecap:round; stroke-linejoin:round;">
</g>
<g style="fill:#840000; fill-opacity:0.0; 
stroke:#840000; stroke-width:60; stroke-opacity:1; 
stroke-linecap:round; stroke-linejoin:round;">
<path d="M102360 77960
L102360 78740
" />
</g>
<g style="fill:#840000; fill-opacity:0.0; 
stroke:#840000; stroke-width:100; stroke-opacity:1; 
stroke-linecap:round; stroke-linejoin:round;">
</g>
<g style="fill:#840000; fill-opacity:0.0; 
stroke:#840000; stroke-width:60; stroke-opacity:1; 
stroke-linecap:round; stroke-linejoin:round;">
<text x="13780" y="78600"
textLength="550" font-size="680" lengthAdjust="spacingAndGlyphs"
text-anchor="start" opacity="0">1</text>
<path d="M14190 78580
L13900 78580
" />
<path d="M14050 78580
L14050 78070
L14000 78140
L13950 78190
L13900 78210
" />
</g>
<g style="fill:#840000; fill-opacity:0.0; 
stroke:#840000; stroke-width:100; stroke-opacity:1; 
stroke-linecap:round; stroke-linejoin:round;">
</g>
<g style="fill:#840000; fill-opacity:0.0; 
stroke:#840000; stroke-width:60; stroke-opacity:1; 
stroke-linecap:round; stroke-linejoin:round;">
<text x="33460" y="78600"
textLength="550" font-size="680" lengthAdjust="spacingAndGlyphs"
text-anchor="start" opacity="0">2</text>
<path d="M33580 78110
L33610 78090
L33660 78070
L33780 78070
L33830 78090
L33850 78110
L33870 78160
L33870 78210
L33850 78280
L33560 78580
L33870 78580
" />
</g>
<g style="fill:#840000; fill-opacity:0.0; 
stroke:#840000; stroke-width:100; stroke-opacity:1; 
stroke-linecap:round; stroke-linejoin:round;">
</g>
<g style="fill:#840000; fill-opacity:0.0; 
stroke:#840000; stroke-width:60; stroke-opacity:1; 
stroke-linecap:round; stroke-linejoin:round;">
<text x="53150" y="78600"
textLength="550" font-size="680" lengthAdjust="spacingAndGlyphs"
text-anchor="start" opacity="0">3</text>
<path d="M53250 78070
L53560 78070
L53390 78260
L53470 78260
L53520 78280
L53540 78310
L53560 78360
L53560 78480
L53540 78530
L53520 78550
L53470 78580
L53320 78580
L53270 78550
L53250 78530
" />
</g>
<g style="fill:#840000; fill-opacity:0.0; 
stroke:#840000; stroke-width:100; stroke-opacity:1; 
stroke-linecap:round; stroke-linejoin:round;">
</g>
<g style="fill:#840000; fill-opacity:0.0; 
stroke:#840000; stroke-width:60; stroke-opacity:1; 
stroke-linecap:round; stroke-linejoin:round;">
<text x="72830" y="78600"
textLength="550" font-size="680" lengthAdjust="spacingAndGlyphs"
text-anchor="start" opacity="0">4</text>
<path d="M73200 78240
L73200 78580
" />
<path d="M73070 78040
L72950 78410
L73270 78410
" />
</g>
<g style="fill:#840000; fill-opacity:0.0; 
stroke:#840000; stroke-width:100; stroke-opacity:1; 
stroke-linecap:round; stroke-linejoin:round;">
</g>
<g style="fill:#840000; fill-opacity:0.0; 
stroke:#840000; stroke-width:60; stroke-opacity:1; 
stroke-linecap:round; stroke-linejoin:round;">
<text x="92520" y="78600"
textLength="550" font-size="680" lengthAdjust="spacingAndGlyphs"
text-anchor="start" opacity="0">5</text>
<path d="M92910 78070
L92670 78070
L92640 78310
L92670 78280
L92720 78260
L92840 78260
L92890 78280
L92910 78310
L92930 78360
L92930 78480
L92910 78530
L92890 78550
L92840 78580
L92720 78580
L92670 78550
L92640 78530
" />
</g>
<g style="fill:#840000; fill-opacity:0.0; 
stroke:#840000; stroke-width:100; stroke-opacity:1; 
stroke-linecap:round; stroke-linejoin:round;">
</g>
<g style="fill:#840000; fill-opacity:0.0; 
stroke:#840000; stroke-width:60; stroke-opacity:1; 
stroke-linecap:round; stroke-linejoin:round;">
<text x="112200" y="78600"
textLength="550" font-size="680" lengthAdjust="spacingAndGlyphs"
text-anchor="start" opacity="0">6</text>
<path d="M112570 78070
L112470 78070
L112420 78090
L112400 78110
L112350 78190
L112320 78280
L112320 78480
L112350 78530
L112370 78550
L112420 78580
L112520 78580
L112570 78550
L112590 78530
L112610 78480
L112610 78360
L112590 78310
L112570 78280
L112520 78260
L112420 78260
L112370 78280
L112350 78310
L112320 78360
" />
</g>
<g style="fill:#840000; fill-opacity:0.0; 
stroke:#840000; stroke-width:100; stroke-opacity:1; 
stroke-linecap:round; stroke-linejoin:round;">
</g>
<g style="fill:#840000; fill-opacity:0.0; 
stroke:#840000; stroke-width:60; stroke-opacity:1; 
stroke-linecap:round; stroke-linejoin:round;">
<path d="M3940 23620
L4720 23620
" />
</g>
<g style="fill:#840000; fill-opacity:0.0; 
stroke:#840000; stroke-width:100; stroke-opacity:1; 
stroke-linecap:round; stroke-linejoin:round;">
</g>
<g style="fill:#840000; fill-opacity:0.0; 
stroke:#840000; stroke-width:60; stroke-opacity:1; 
stroke-linecap:round; stroke-linejoin:round;">
<path d="M3940 43310
L4720 43310
" />
</g>
<g style="fill:#840000; fill-opacity:0.0; 
stroke:#840000; stroke-width:100; stroke-opacity:1; 
stroke-linecap:round; stroke-linejoin:round;">
</g>
<g style="fill:#840000; fill-opacity:0.0; 
stroke:#840000; stroke-width:60; stroke-opacity:1; 
stroke-linecap:round; stroke-linejoin:round;">
<path d="M3940 62990
L4720 62990
" />
</g>
<g style="fill:#840000; fill-opacity:0.0; 
stroke:#840000; stroke-width:100; stroke-opacity:1; 
stroke-linecap:round; stroke-linejoin:round;">
</g>
<g style="fill:#840000; fill-opacity:0.0; 
stroke:#840000; stroke-width:60; stroke-opacity:1; 
stroke-linecap:round; stroke-linejoin:round;">
<text x="4330" y="14030"
textLength="500" font-size="680" lengthAdjust="spacingAndGlyphs"
text-anchor="middle" opacity="0">A</text>
<path d="M4200 13860
L4450 13860
" />
<path d="M4160 14010
L4330 13500
L4500 14010
" />
</g>
<g style="fill:#840000; fill-opacity:0.0; 
stroke:#840000; stroke-width:100; stroke-opacity:1; 
stroke-linecap:round; stroke-linejoin:round;">
</g>
<g style="fill:#840000; fill-opacity:0.0; 
stroke:#840000; stroke-width:60; stroke-opacity:1; 
stroke-linecap:round; stroke-linejoin:round;">
<text x="4330" y="33710"
textLength="570" font-size="680" lengthAdjust="spacingAndGlyphs"
text-anchor="middle" opacity="0">B</text>
<path d="M4360 33420
L4430 33440
L4460 33470
L4480 33520
L4480 33590
L4460 33640
L4430 33660
L4390 33690
L4190 33690
L4190 33180
L4360 33180
L4410 33200
L4430 33220
L4460 33270
L4460 33320
L4430 33370
L4410 33390
L4360 33420
L4190 33420
" />
</g>
<g style="fill:#840000; fill-opacity:0.0; 
stroke:#840000; stroke-width:100; stroke-opacity:1; 
stroke-linecap:round; stroke-linejoin:round;">
</g>
<g style="fill:#840000; fill-opacity:0.0; 
stroke:#840000; stroke-width:60; stroke-opacity:1; 
stroke-linecap:round; stroke-linejoin:round;">
<text x="4330" y="53400"
textLength="570" font-size="680" lengthAdjust="spacingAndGlyphs"
text-anchor="middle" opacity="0">C</text>
<path d="M4480 53330
L4460 53350
L4390 53380
L4340 53380
L4260 53350
L4220 53300
L4190 53250
L4170 53160
L4170 53080
L4190 52990
L4220 52940
L4260 52890
L4340 52870
L4390 52870
L4460 52890
L4480 52910
" />
</g>
<g style="fill:#840000; fill-opacity:0.0; 
stroke:#840000; stroke-width:100; stroke-opacity:1; 
stroke-linecap:round; stroke-linejoin:round;">
</g>
<g style="fill:#840000; fill-opacity:0.0; 
stroke:#840000; stroke-width:60; stroke-opacity:1; 
stroke-linecap:round; stroke-linejoin:round;">
<text x="4330" y="73080"
textLength="570" font-size="680" lengthAdjust="spacingAndGlyphs"
text-anchor="middle" opacity="0">D</text>
<path d="M4190 73060
L4190 72550
L4310 72550
L4390 72570
L4430 72620
L4460 72670
L4480 72760
L4480 72840
L4460 72930
L4430 72980
L4390 73030
L4310 73060
L4190 73060
" />
</g>
<g style="fill:#840000; fill-opacity:0.0; 
stroke:#840000; stroke-width:100; stroke-opacity:1; 
stroke-linecap:round; stroke-linejoin:round;">
</g>
<g style="fill:#840000; fill-opacity:0.0; 
stroke:#840000; stroke-width:60; stroke-opacity:1; 
stroke-linecap:round; stroke-linejoin:round;">
<path d="M112990 23620
L112210 23620
" />
</g>
<g style="fill:#840000; fill-opacity:0.0; 
stroke:#840000; stroke-width:100; stroke-opacity:1; 
stroke-linecap:round; stroke-linejoin:round;">
</g>
<g style="fill:#840000; fill-opacity:0.0; 
stroke:#840000; stroke-width:60; stroke-opacity:1; 
stroke-linecap:round; stroke-linejoin:round;">
<path d="M112990 43310
L112210 43310
" />
</g>
<g style="fill:#840000; fill-opacity:0.0; 
stroke:#840000; stroke-width:100; stroke-opacity:1; 
stroke-linecap:round; stroke-linejoin:round;">
</g>
<g style="fill:#840000; fill-opacity:0.0; 
stroke:#840000; stroke-width:60; stroke-opacity:1; 
stroke-linecap:round; stroke-linejoin:round;">
<path d="M112990 62990
L112210 62990
" />
</g>
<g style="fill:#840000; fill-opacity:0.0; 
stroke:#840000; stroke-width:100; stroke-opacity:1; 
stroke-linecap:round; stroke-linejoin:round;">
</g>
<g style="fill:#840000; fill-opacity:0.0; 
stroke:#840000; stroke-width:60; stroke-opacity:1; 
stroke-linecap:round; stroke-linejoin:round;">
<text x="112600" y="14030"
textLength="500" font-size="680" lengthAdjust="spacingAndGlyphs"
text-anchor="middle" opacity="0">A</text>
<path d="M112470 13860
L112720 13860
" />
<path d="M112430 14010
L112600 13500
L112770 14010
" />
</g>
<g style="fill:#840000; fill-opacity:0.0; 
stroke:#840000; stroke-width:100; stroke-opacity:1; 
stroke-linecap:round; stroke-linejoin:round;">
</g>
<g style="fill:#840000; fill-opacity:0.0; 
stroke:#840000; stroke-width:60; stroke-opacity:1; 
stroke-linecap:round; stroke-linejoin:round;">
<text x="112600" y="33710"
textLength="570" font-size="680" lengthAdjust="spacingAndGlyphs"
text-anchor="middle" opacity="0">B</text>
<path d="M112630 33420
L112700 33440
L112730 33470
L112750 33520
L112750 33590
L112730 33640
L112700 33660
L112660 33690
L112460 33690
L112460 33180
L112630 33180
L112680 33200
L112700 33220
L112730 33270
L112730 33320
L112700 33370
L112680 33390
L112630 33420
L112460 33420
" />
</g>
<g style="fill:#840000; fill-opacity:0.0; 
stroke:#840000; stroke-width:100; stroke-opacity:1; 
stroke-linecap:round; stroke-linejoin:round;">
</g>
<g style="fill:#840000; fill-opacity:0.0; 
stroke:#840000; stroke-width:60; stroke-opacity:1; 
stroke-linecap:round; stroke-linejoin:round;">
<text x="112600" y="53400"
textLength="570" font-size="680" lengthAdjust="spacingAndGlyphs"
text-anchor="middle" opacity="0">C</text>
<path d="M112750 53330
L112730 53350
L112660 53380
L112610 53380
L112530 53350
L112490 53300
L112460 53250
L112440 53160
L112440 53080
L112460 52990
L112490 52940
L112530 52890
L112610 52870
L112660 52870
L112730 52890
L112750 52910
" />
</g>
<g style="fill:#840000; fill-opacity:0.0; 
stroke:#840000; stroke-width:100; stroke-opacity:1; 
stroke-linecap:round; stroke-linejoin:round;">
</g>
<g style="fill:#840000; fill-opacity:0.0; 
stroke:#840000; stroke-width:60; stroke-opacity:1; 
stroke-linecap:round; stroke-linejoin:round;">
<text x="112600" y="73080"
textLength="570" font-size="680" lengthAdjust="spacingAndGlyphs"
text-anchor="middle" opacity="0">D</text>
<path d="M112460 73060
L112460 72550
L112580 72550
L112660 72570
L112700 72620
L112730 72670
L112750 72760
L112750 72840
L112730 72930
L112700 72980
L112660 73030
L112580 73060
L112460 73060
" />
</g>
<g style="fill:#840000; fill-opacity:0.0; 
stroke:#840000; stroke-width:100; stroke-opacity:1; 
stroke-linecap:round; stroke-linejoin:round;">
</g>
<g style="fill:#840000; fill-opacity:0.0; 
stroke:#840000; stroke-width:60; stroke-opacity:1; 
stroke-linecap:round; stroke-linejoin:round;">
<text x="78740" y="76320"
textLength="8710" font-size="780" lengthAdjust="spacingAndGlyphs"
text-anchor="start" opacity="0">Date: 2021-11-25</text>
<path d="M78910 76290
L78910 75700
L79050 75700
L79130 75730
L79190 75790
L79210 75840
L79240 75950
L79240 76040
L79210 76150
L79190 76210
L79130 76260
L79050 76290
L78910 76290
" />
<path d="M79750 76290
L79750 75980
L79720 75930
L79660 75900
L79550 75900
L79500 75930
" />
<path d="M79750 76260
L79690 76290
L79550 76290
L79500 76260
L79470 76210
L79470 76150
L79500 76100
L79550 76070
L79690 76070
L79750 76040
" />
<path d="M79950 75900
L80170 75900
" />
<path d="M80030 75700
L80030 76210
L80060 76260
L80110 76290
L80170 76290
" />
<path d="M80590 76260
L80540 76290
L80420 76290
L80370 76260
L80340 76210
L80340 75980
L80370 75930
L80420 75900
L80540 75900
L80590 75930
L80620 75980
L80620 76040
L80340 76100
" />
<path d="M80870 76240
L80900 76260
L80870 76290
L80840 76260
L80870 76240
L80870 76290
" />
<path d="M80870 75930
L80900 75950
L80870 75980
L80840 75950
L80870 75930
L80870 75980
" />
<path d="M81570 75760
L81600 75730
L81660 75700
L81800 75700
L81860 75730
L81880 75760
L81910 75810
L81910 75870
L81880 75950
L81550 76290
L81910 76290
" />
<path d="M82280 75700
L82330 75700
L82390 75730
L82420 75760
L82450 75810
L82470 75930
L82470 76070
L82450 76180
L82420 76240
L82390 76260
L82330 76290
L82280 76290
L82220 76260
L82190 76240
L82160 76180
L82140 76070
L82140 75930
L82160 75810
L82190 75760
L82220 75730
L82280 75700
" />
<path d="M82700 75760
L82730 75730
L82780 75700
L82920 75700
L82980 75730
L83010 75760
L83040 75810
L83040 75870
L83010 75950
L82670 76290
L83040 76290
" />
<path d="M83600 76290
L83260 76290
" />
<path d="M83430 76290
L83430 75700
L83370 75790
L83320 75840
L83260 75870
" />
<path d="M83850 76070
L84300 76070
" />
<path d="M84890 76290
L84550 76290
" />
<path d="M84720 76290
L84720 75700
L84670 75790
L84610 75840
L84550 75870
" />
<path d="M85450 76290
L85110 76290
" />
<path d="M85280 76290
L85280 75700
L85230 75790
L85170 75840
L85110 75870
" />
<path d="M85700 76070
L86150 76070
" />
<path d="M86410 75760
L86440 75730
L86490 75700
L86630 75700
L86690 75730
L86720 75760
L86740 75810
L86740 75870
L86720 75950
L86380 76290
L86740 76290
" />
<path d="M87280 75700
L87000 75700
L86970 75980
L87000 75950
L87050 75930
L87190 75930
L87250 75950
L87280 75980
L87310 76040
L87310 76180
L87280 76240
L87250 76260
L87190 76290
L87050 76290
L87000 76260
L86970 76240
" />
</g>
<g style="fill:#840000; fill-opacity:0.0; 
stroke:#840000; stroke-width:100; stroke-opacity:1; 
stroke-linecap:round; stroke-linejoin:round;">
</g>
<g style="fill:#840000; fill-opacity:0.0; 
stroke:#840000; stroke-width:60; stroke-opacity:1; 
stroke-linecap:round; stroke-linejoin:round;">
<path d="M69690 76580
L112210 76580
" />
</g>
<g style="fill:#840000; fill-opacity:0.0; 
stroke:#840000; stroke-width:100; stroke-opacity:1; 
stroke-linecap:round; stroke-linejoin:round;">
</g>
<g style="fill:#840000; fill-opacity:0.0; 
stroke:#840000; stroke-width:60; stroke-opacity:1; 
stroke-linecap:round; stroke-linejoin:round;">
<text x="70080" y="77420"
textLength="23240" font-size="780" lengthAdjust="spacingAndGlyphs"
text-anchor="start" opacity="0">KiCad E.D.A.  kicad 5.1.6-c6e7f7d~87~ubuntu18.04.1</text>
<path d="M70250 77390
L70250 76800
" />
<path d="M70580 77390
L70330 77050
" />
<path d="M70580 76800
L70250 77140
" />
<path d="M70840 77390
L70840 77000
" />
<path d="M70840 76800
L70810 76830
L70840 76860
L70860 76830
L70840 76800
L70840 76860
" />
<path d="M71450 77340
L71430 77360
L71340 77390
L71290 77390
L71200 77360
L71140 77310
L71120 77250
L71090 77140
L71090 77050
L71120 76940
L71140 76890
L71200 76830
L71290 76800
L71340 76800
L71430 76830
L71450 76860
" />
<path d="M71960 77390
L71960 77080
L71930 77030
L71880 77000
L71760 77000
L71710 77030
" />
<path d="M71960 77360
L71900 77390
L71760 77390
L71710 77360
L71680 77310
L71680 77250
L71710 77200
L71760 77170
L71900 77170
L71960 77140
" />
<path d="M72490 77390
L72490 76800
" />
<path d="M72490 77360
L72440 77390
L72320 77390
L72270 77360
L72240 77340
L72210 77280
L72210 77110
L72240 77050
L72270 77030
L72320 77000
L72440 77000
L72490 77030
" />
<path d="M73220 77080
L73420 77080
" />
<path d="M73500 77390
L73220 77390
L73220 76800
L73500 76800
" />
<path d="M73760 77340
L73790 77360
L73760 77390
L73730 77360
L73760 77340
L73760 77390
" />
<path d="M74040 77390
L74040 76800
L74180 76800
L74260 76830
L74320 76890
L74350 76940
L74380 77050
L74380 77140
L74350 77250
L74320 77310
L74260 77360
L74180 77390
L74040 77390
" />
<path d="M74630 77340
L74660 77360
L74630 77390
L74600 77360
L74630 77340
L74630 77390
" />
<path d="M74880 77220
L75160 77220
" />
<path d="M74830 77390
L75020 76800
L75220 77390
" />
<path d="M75420 77340
L75440 77360
L75420 77390
L75390 77360
L75420 77340
L75420 77390
" />
<path d="M76600 77390
L76600 76800
" />
<path d="M76650 77170
L76820 77390
" />
<path d="M76820 77000
L76600 77220
" />
<path d="M77070 77390
L77070 77000
" />
<path d="M77070 76800
L77040 76830
L77070 76860
L77100 76830
L77070 76800
L77070 76860
" />
<path d="M77610 77360
L77550 77390
L77440 77390
L77380 77360
L77350 77340
L77330 77280
L77330 77110
L77350 77050
L77380 77030
L77440 77000
L77550 77000
L77610 77030
" />
<path d="M78110 77390
L78110 77080
L78080 77030
L78030 77000
L77920 77000
L77860 77030
" />
<path d="M78110 77360
L78060 77390
L77920 77390
L77860 77360
L77830 77310
L77830 77250
L77860 77200
L77920 77170
L78060 77170
L78110 77140
" />
<path d="M78650 77390
L78650 76800
" />
<path d="M78650 77360
L78590 77390
L78480 77390
L78420 77360
L78390 77340
L78370 77280
L78370 77110
L78390 77050
L78420 77030
L78480 77000
L78590 77000
L78650 77030
" />
<path d="M79660 76800
L79380 76800
L79350 77080
L79380 77050
L79430 77030
L79570 77030
L79630 77050
L79660 77080
L79690 77140
L79690 77280
L79660 77340
L79630 77360
L79570 77390
L79430 77390
L79380 77360
L79350 77340
" />
<path d="M79940 77340
L79970 77360
L79940 77390
L79910 77360
L79940 77340
L79940 77390
" />
<path d="M80530 77390
L80190 77390
" />
<path d="M80360 77390
L80360 76800
L80300 76890
L80250 76940
L80190 76970
" />
<path d="M80780 77340
L80810 77360
L80780 77390
L80750 77360
L80780 77340
L80780 77390
" />
<path d="M81320 76800
L81200 76800
L81150 76830
L81120 76860
L81060 76940
L81030 77050
L81030 77280
L81060 77340
L81090 77360
L81150 77390
L81260 77390
L81320 77360
L81340 77340
L81370 77280
L81370 77140
L81340 77080
L81320 77050
L81260 77030
L81150 77030
L81090 77050
L81060 77080
L81030 77140
" />
<path d="M81620 77170
L82070 77170
" />
<path d="M82610 77360
L82550 77390
L82440 77390
L82380 77360
L82350 77340
L82330 77280
L82330 77110
L82350 77050
L82380 77030
L82440 77000
L82550 77000
L82610 77030
" />
<path d="M83110 76800
L83000 76800
L82940 76830
L82920 76860
L82860 76940
L82830 77050
L82830 77280
L82860 77340
L82890 77360
L82940 77390
L83060 77390
L83110 77360
L83140 77340
L83170 77280
L83170 77140
L83140 77080
L83110 77050
L83060 77030
L82940 77030
L82890 77050
L82860 77080
L82830 77140
" />
<path d="M83650 77360
L83590 77390
L83480 77390
L83420 77360
L83390 77310
L83390 77080
L83420 77030
L83480 77000
L83590 77000
L83650 77030
L83680 77080
L83680 77140
L83390 77200
" />
<path d="M83870 76800
L84270 76800
L84010 77390
" />
<path d="M84410 77000
L84630 77000
" />
<path d="M84490 77390
L84490 76890
L84520 76830
L84570 76800
L84630 76800
" />
<path d="M84770 76800
L85160 76800
L84910 77390
" />
<path d="M85640 77390
L85640 76800
" />
<path d="M85640 77360
L85590 77390
L85470 77390
L85420 77360
L85390 77340
L85360 77280
L85360 77110
L85390 77050
L85420 77030
L85470 77000
L85590 77000
L85640 77030
" />
<path d="M85780 76640
L86340 76640
" />
<path d="M86010 77050
L85950 77030
L85920 77000
L85890 76940
L85890 76910
L85920 76860
L85950 76830
L86010 76800
L86120 76800
L86180 76830
L86200 76860
L86230 76910
L86230 76940
L86200 77000
L86180 77030
L86120 77050
L86010 77050
L85950 77080
L85920 77110
L85890 77170
L85890 77280
L85920 77340
L85950 77360
L86010 77390
L86120 77390
L86180 77360
L86200 77340
L86230 77280
L86230 77170
L86200 77110
L86180 77080
L86120 77050
" />
<path d="M86340 76640
L86910 76640
" />
<path d="M86430 76800
L86820 76800
L86570 77390
" />
<path d="M87300 77000
L87300 77390
" />
<path d="M87050 77000
L87050 77310
L87070 77360
L87130 77390
L87220 77390
L87270 77360
L87300 77340
" />
<path d="M87580 77390
L87580 76800
" />
<path d="M87580 77030
L87640 77000
L87750 77000
L87810 77030
L87830 77050
L87860 77110
L87860 77280
L87830 77340
L87810 77360
L87750 77390
L87640 77390
L87580 77360
" />
<path d="M88370 77000
L88370 77390
" />
<path d="M88110 77000
L88110 77310
L88140 77360
L88200 77390
L88280 77390
L88340 77360
L88370 77340
" />
<path d="M88650 77000
L88650 77390
" />
<path d="M88650 77050
L88680 77030
L88730 77000
L88820 77000
L88870 77030
L88900 77080
L88900 77390
" />
<path d="M89100 77000
L89320 77000
" />
<path d="M89180 76800
L89180 77310
L89210 77360
L89270 77390
L89320 77390
" />
<path d="M89770 77000
L89770 77390
" />
<path d="M89520 77000
L89520 77310
L89550 77360
L89600 77390
L89690 77390
L89740 77360
L89770 77340
" />
<path d="M90360 77390
L90020 77390
" />
<path d="M90190 77390
L90190 76800
L90140 76890
L90080 76940
L90020 76970
" />
<path d="M90700 77050
L90640 77030
L90610 77000
L90590 76940
L90590 76910
L90610 76860
L90640 76830
L90700 76800
L90810 76800
L90870 76830
L90900 76860
L90920 76910
L90920 76940
L90900 77000
L90870 77030
L90810 77050
L90700 77050
L90640 77080
L90610 77110
L90590 77170
L90590 77280
L90610 77340
L90640 77360
L90700 77390
L90810 77390
L90870 77360
L90900 77340
L90920 77280
L90920 77170
L90900 77110
L90870 77080
L90810 77050
" />
<path d="M91180 77340
L91200 77360
L91180 77390
L91150 77360
L91180 77340
L91180 77390
" />
<path d="M91570 76800
L91630 76800
L91680 76830
L91710 76860
L91740 76910
L91770 77030
L91770 77170
L91740 77280
L91710 77340
L91680 77360
L91630 77390
L91570 77390
L91510 77360
L91490 77340
L91460 77280
L91430 77170
L91430 77030
L91460 76910
L91490 76860
L91510 76830
L91570 76800
" />
<path d="M92270 77000
L92270 77390
" />
<path d="M92130 76770
L91990 77200
L92360 77200
" />
<path d="M92580 77340
L92610 77360
L92580 77390
L92550 77360
L92580 77340
L92580 77390
" />
<path d="M93170 77390
L92830 77390
" />
<path d="M93000 77390
L93000 76800
L92950 76890
L92890 76940
L92830 76970
" />
</g>
<g style="fill:#840000; fill-opacity:0.0; 
stroke:#840000; stroke-width:100; stroke-opacity:1; 
stroke-linecap:round; stroke-linejoin:round;">
</g>
<g style="fill:#840000; fill-opacity:0.0; 
stroke:#840000; stroke-width:60; stroke-opacity:1; 
stroke-linecap:round; stroke-linejoin:round;">
<path d="M69690 75400
L112210 75400
" />
</g>
<g style="fill:#840000; fill-opacity:0.0; 
stroke:#840000; stroke-width:100; stroke-opacity:1; 
stroke-linecap:round; stroke-linejoin:round;">
</g>
<g style="fill:#840000; fill-opacity:0.0; 
stroke:#840000; stroke-width:120; stroke-opacity:1; 
stroke-linecap:round; stroke-linejoin:round;">
<text x="103540" y="76320"
textLength="2840" font-size="780" lengthAdjust="spacingAndGlyphs"
text-anchor="start" opacity="0">Rev: A</text>
<path d="M104090 76290
L103890 76010
" />
<path d="M103750 76290
L103750 75700
L103980 75700
L104030 75730
L104060 75760
L104090 75810
L104090 75900
L104060 75950
L104030 75980
L103980 76010
L103750 76010
" />
<path d="M104570 76260
L104510 76290
L104400 76290
L104340 76260
L104320 76210
L104320 75980
L104340 75930
L104400 75900
L104510 75900
L104570 75930
L104600 75980
L104600 76040
L104320 76100
" />
<path d="M104790 75900
L104930 76290
L105070 75900
" />
<path d="M105300 76240
L105330 76260
L105300 76290
L105270 76260
L105300 76240
L105300 76290
" />
<path d="M105300 75930
L105330 75950
L105300 75980
L105270 75950
L105300 75930
L105300 75980
" />
<path d="M106000 76120
L106280 76120
" />
<path d="M105940 76290
L106140 75700
L106340 76290
" />
</g>
<g style="fill:#840000; fill-opacity:0.0; 
stroke:#840000; stroke-width:100; stroke-opacity:1; 
stroke-linecap:round; stroke-linejoin:round;">
</g>
<g style="fill:#840000; fill-opacity:0.0; 
stroke:#840000; stroke-width:60; stroke-opacity:1; 
stroke-linecap:round; stroke-linejoin:round;">
<text x="70080" y="76320"
textLength="3780" font-size="780" lengthAdjust="spacingAndGlyphs"
text-anchor="start" opacity="0">Size: A4</text>
<path d="M70220 76260
L70300 76290
L70440 76290
L70500 76260
L70530 76240
L70550 76180
L70550 76120
L70530 76070
L70500 76040
L70440 76010
L70330 75980
L70270 75950
L70250 75930
L70220 75870
L70220 75810
L70250 75760
L70270 75730
L70330 75700
L70470 75700
L70550 75730
" />
<path d="M70810 76290
L70810 75900
" />
<path d="M70810 75700
L70780 75730
L70810 75760
L70840 75730
L70810 75700
L70810 75760
" />
<path d="M71030 75900
L71340 75900
L71030 76290
L71340 76290
" />
<path d="M71790 76260
L71730 76290
L71620 76290
L71570 76260
L71540 76210
L71540 75980
L71570 75930
L71620 75900
L71730 75900
L71790 75930
L71820 75980
L71820 76040
L71540 76100
" />
<path d="M72070 76240
L72100 76260
L72070 76290
L72040 76260
L72070 76240
L72070 76290
" />
<path d="M72070 75930
L72100 75950
L72070 75980
L72040 75950
L72070 75930
L72070 75980
" />
<path d="M72770 76120
L73060 76120
" />
<path d="M72720 76290
L72910 75700
L73110 76290
" />
<path d="M73560 75900
L73560 76290
" />
<path d="M73420 75670
L73280 76100
L73650 76100
" />
</g>
<g style="fill:#840000; fill-opacity:0.0; 
stroke:#840000; stroke-width:100; stroke-opacity:1; 
stroke-linecap:round; stroke-linejoin:round;">
</g>
<g style="fill:#840000; fill-opacity:0.0; 
stroke:#840000; stroke-width:60; stroke-opacity:1; 
stroke-linecap:round; stroke-linejoin:round;">
<text x="103540" y="77420"
textLength="3350" font-size="780" lengthAdjust="spacingAndGlyphs"
text-anchor="start" opacity="0">Id: 1/1</text>
<path d="M103710 77390
L103710 76800
" />
<path d="M104240 77390
L104240 76800
" />
<path d="M104240 77360
L104180 77390
L104070 77390
L104010 77360
L103990 77340
L103960 77280
L103960 77110
L103990 77050
L104010 77030
L104070 77000
L104180 77000
L104240 77030
" />
<path d="M104520 77340
L104550 77360
L104520 77390
L104490 77360
L104520 77340
L104520 77390
" />
<path d="M104520 77030
L104550 77050
L104520 77080
L104490 77050
L104520 77030
L104520 77080
" />
<path d="M105560 77390
L105220 77390
" />
<path d="M105390 77390
L105390 76800
L105340 76890
L105280 76940
L105220 76970
" />
<path d="M106230 76770
L105730 77530
" />
<path d="M106740 77390
L106400 77390
" />
<path d="M106570 77390
L106570 76800
L106520 76890
L106460 76940
L106400 76970
" />
</g>
<g style="fill:#840000; fill-opacity:0.0; 
stroke:#840000; stroke-width:100; stroke-opacity:1; 
stroke-linecap:round; stroke-linejoin:round;">
</g>
<g style="fill:#840000; fill-opacity:0.0; 
stroke:#840000; stroke-width:60; stroke-opacity:1; 
stroke-linecap:round; stroke-linejoin:round;">
<path d="M69690 73820
L112210 73820
" />
</g>
<g style="fill:#840000; fill-opacity:0.0; 
stroke:#840000; stroke-width:100; stroke-opacity:1; 
stroke-linecap:round; stroke-linejoin:round;">
</g>
<g style="fill:#840000; fill-opacity:0.0; 
stroke:#840000; stroke-width:160; stroke-opacity:1; 
stroke-linecap:round; stroke-linejoin:round;">
<text x="70080" y="74920"
textLength="21170" font-size="1050" lengthAdjust="spacingAndGlyphs"
text-anchor="start" opacity="0">Title: e-r-wifi-lf - Liaison filaire</text>
<path d="M70360 74090
L70810 74090
" />
<path d="M70480 74880
L70580 74090
" />
<path d="M70970 74880
L71040 74360
" />
<path d="M71070 74090
L71030 74130
L71060 74170
L71110 74130
L71070 74090
L71060 74170
" />
<path d="M71300 74360
L71600 74360
" />
<path d="M71450 74090
L71360 74770
L71390 74840
L71460 74880
L71540 74880
" />
<path d="M71910 74880
L71840 74840
L71820 74770
L71900 74090
" />
<path d="M72520 74840
L72440 74880
L72290 74880
L72220 74840
L72190 74770
L72230 74470
L72280 74390
L72360 74360
L72510 74360
L72580 74390
L72610 74470
L72600 74540
L72210 74620
" />
<path d="M72900 74810
L72930 74840
L72890 74880
L72860 74840
L72900 74810
L72890 74880
" />
<path d="M72950 74390
L72990 74430
L72940 74470
L72910 74430
L72950 74390
L72940 74470
" />
<path d="M74180 74840
L74100 74880
L73950 74880
L73880 74840
L73850 74770
L73880 74470
L73930 74390
L74010 74360
L74160 74360
L74230 74390
L74260 74470
L74250 74540
L73870 74620
" />
<path d="M74590 74580
L75190 74580
" />
<path d="M75530 74880
L75590 74360
" />
<path d="M75570 74510
L75620 74430
L75660 74390
L75740 74360
L75820 74360
" />
<path d="M76050 74580
L76650 74580
" />
<path d="M76980 74360
L77070 74880
L77270 74510
L77370 74880
L77590 74360
" />
<path d="M77820 74880
L77890 74360
" />
<path d="M77920 74090
L77880 74130
L77910 74170
L77950 74130
L77920 74090
L77910 74170
" />
<path d="M78150 74360
L78450 74360
" />
<path d="M78200 74880
L78280 74210
L78330 74130
L78410 74090
L78480 74090
" />
<path d="M78650 74880
L78710 74360
" />
<path d="M78750 74090
L78700 74130
L78740 74170
L78780 74130
L78750 74090
L78740 74170
" />
<path d="M79060 74580
L79660 74580
" />
<path d="M80120 74880
L80040 74840
L80020 74770
L80100 74090
" />
<path d="M80370 74360
L80670 74360
" />
<path d="M80420 74880
L80500 74210
L80550 74130
L80630 74090
L80700 74090
" />
<path d="M81510 74580
L82110 74580
" />
<path d="M83430 74880
L83050 74880
L83150 74090
" />
<path d="M83690 74880
L83750 74360
" />
<path d="M83790 74090
L83750 74130
L83780 74170
L83820 74130
L83790 74090
L83780 74170
" />
<path d="M84400 74880
L84460 74470
L84430 74390
L84360 74360
L84210 74360
L84130 74390
" />
<path d="M84410 74840
L84330 74880
L84140 74880
L84070 74840
L84040 74770
L84050 74690
L84100 74620
L84180 74580
L84370 74580
L84450 74540
" />
<path d="M84780 74880
L84850 74360
" />
<path d="M84880 74090
L84840 74130
L84870 74170
L84910 74130
L84880 74090
L84870 74170
" />
<path d="M85120 74840
L85190 74880
L85340 74880
L85420 74840
L85470 74770
L85480 74730
L85450 74660
L85380 74620
L85260 74620
L85190 74580
L85170 74510
L85170 74470
L85220 74390
L85300 74360
L85410 74360
L85480 74390
" />
<path d="M85910 74880
L85840 74840
L85810 74810
L85780 74730
L85810 74510
L85850 74430
L85890 74390
L85970 74360
L86090 74360
L86160 74390
L86190 74430
L86220 74510
L86190 74730
L86140 74810
L86100 74840
L86020 74880
L85910 74880
" />
<path d="M86580 74360
L86510 74880
" />
<path d="M86570 74430
L86610 74390
L86690 74360
L86800 74360
L86870 74390
L86900 74470
L86850 74880
" />
<path d="M87780 74360
L88080 74360
" />
<path d="M87830 74880
L87910 74210
L87960 74130
L88040 74090
L88110 74090
" />
<path d="M88280 74880
L88340 74360
" />
<path d="M88380 74090
L88330 74130
L88370 74170
L88410 74130
L88380 74090
L88370 74170
" />
<path d="M88770 74880
L88700 74840
L88670 74770
L88750 74090
" />
<path d="M89410 74880
L89460 74470
L89430 74390
L89360 74360
L89210 74360
L89130 74390
" />
<path d="M89410 74840
L89330 74880
L89140 74880
L89070 74840
L89040 74770
L89050 74690
L89100 74620
L89180 74580
L89370 74580
L89450 74540
" />
<path d="M89780 74880
L89850 74360
" />
<path d="M89880 74090
L89840 74130
L89870 74170
L89910 74130
L89880 74090
L89870 74170
" />
<path d="M90160 74880
L90230 74360
" />
<path d="M90210 74510
L90250 74430
L90300 74390
L90380 74360
L90450 74360
" />
<path d="M90950 74840
L90870 74880
L90720 74880
L90650 74840
L90620 74770
L90660 74470
L90710 74390
L90790 74360
L90940 74360
L91010 74390
L91040 74470
L91030 74540
L90640 74620
" />
</g>
<g style="fill:#840000; fill-opacity:0.0; 
stroke:#840000; stroke-width:100; stroke-opacity:1; 
stroke-linecap:round; stroke-linejoin:round;">
</g>
<g style="fill:#840000; fill-opacity:0.0; 
stroke:#840000; stroke-width:60; stroke-opacity:1; 
stroke-linecap:round; stroke-linejoin:round;">
<text x="70080" y="73400"
textLength="9560" font-size="780" lengthAdjust="spacingAndGlyphs"
text-anchor="start" opacity="0">File: e-r-wifi-lf.sch</text>
<path d="M70440 73060
L70250 73060
" />
<path d="M70250 73370
L70250 72780
L70530 72780
" />
<path d="M70750 73370
L70750 72980
" />
<path d="M70750 72780
L70720 72810
L70750 72840
L70780 72810
L70750 72780
L70750 72840
" />
<path d="M71120 73370
L71060 73340
L71030 73290
L71030 72780
" />
<path d="M71570 73340
L71510 73370
L71400 73370
L71340 73340
L71310 73290
L71310 73060
L71340 73010
L71400 72980
L71510 72980
L71570 73010
L71590 73060
L71590 73120
L71310 73180
" />
<path d="M71850 73320
L71880 73340
L71850 73370
L71820 73340
L71850 73320
L71850 73370
" />
<path d="M71850 73010
L71880 73030
L71850 73060
L71820 73030
L71850 73010
L71850 73060
" />
<path d="M72800 73340
L72750 73370
L72630 73370
L72580 73340
L72550 73290
L72550 73060
L72580 73010
L72630 72980
L72750 72980
L72800 73010
L72830 73060
L72830 73120
L72550 73180
" />
<path d="M73080 73150
L73530 73150
" />
<path d="M73810 73370
L73810 72980
" />
<path d="M73810 73090
L73840 73030
L73870 73010
L73930 72980
L73980 72980
" />
<path d="M74180 73150
L74630 73150
" />
<path d="M74850 72980
L74970 73370
L75080 73090
L75190 73370
L75300 72980
" />
<path d="M75530 73370
L75530 72980
" />
<path d="M75530 72780
L75500 72810
L75530 72840
L75560 72810
L75530 72780
L75530 72840
" />
<path d="M75720 72980
L75950 72980
" />
<path d="M75810 73370
L75810 72870
L75840 72810
L75890 72780
L75950 72780
" />
<path d="M76150 73370
L76150 72980
" />
<path d="M76150 72780
L76120 72810
L76150 72840
L76170 72810
L76150 72780
L76150 72840
" />
<path d="M76430 73150
L76880 73150
" />
<path d="M77240 73370
L77190 73340
L77160 73290
L77160 72780
" />
<path d="M77380 72980
L77610 72980
" />
<path d="M77470 73370
L77470 72870
L77490 72810
L77550 72780
L77610 72780
" />
<path d="M77800 73320
L77830 73340
L77800 73370
L77780 73340
L77800 73320
L77800 73370
" />
<path d="M78060 73340
L78110 73370
L78220 73370
L78280 73340
L78310 73290
L78310 73260
L78280 73200
L78220 73180
L78140 73180
L78080 73150
L78060 73090
L78060 73060
L78080 73010
L78140 72980
L78220 72980
L78280 73010
" />
<path d="M78810 73340
L78760 73370
L78650 73370
L78590 73340
L78560 73320
L78530 73260
L78530 73090
L78560 73030
L78590 73010
L78650 72980
L78760 72980
L78810 73010
" />
<path d="M79070 73370
L79070 72780
" />
<path d="M79320 73370
L79320 73060
L79290 73010
L79240 72980
L79150 72980
L79100 73010
L79070 73030
" />
</g>
<g style="fill:#840000; fill-opacity:0.0; 
stroke:#840000; stroke-width:100; stroke-opacity:1; 
stroke-linecap:round; stroke-linejoin:round;">
</g>
<g style="fill:#840000; fill-opacity:0.0; 
stroke:#840000; stroke-width:60; stroke-opacity:1; 
stroke-linecap:round; stroke-linejoin:round;">
<path d="M69690 71460
L112210 71460
" />
</g>
<g style="fill:#840000; fill-opacity:0.0; 
stroke:#840000; stroke-width:100; stroke-opacity:1; 
stroke-linecap:round; stroke-linejoin:round;">
</g>
<g style="fill:#840000; fill-opacity:0.0; 
stroke:#840000; stroke-width:60; stroke-opacity:1; 
stroke-linecap:round; stroke-linejoin:round;">
<text x="70080" y="72340"
textLength="3850" font-size="780" lengthAdjust="spacingAndGlyphs"
text-anchor="start" opacity="0">Sheet: /</text>
<path d="M70220 72280
L70300 72310
L70440 72310
L70500 72280
L70530 72260
L70550 72200
L70550 72140
L70530 72090
L70500 72060
L70440 72030
L70330 72000
L70270 71970
L70250 71950
L70220 71890
L70220 71830
L70250 71780
L70270 71750
L70330 71720
L70470 71720
L70550 71750
" />
<path d="M70810 72310
L70810 71720
" />
<path d="M71060 72310
L71060 72000
L71030 71950
L70980 71920
L70890 71920
L70840 71950
L70810 71970
" />
<path d="M71570 72280
L71510 72310
L71400 72310
L71340 72280
L71310 72230
L71310 72000
L71340 71950
L71400 71920
L71510 71920
L71570 71950
L71590 72000
L71590 72060
L71310 72120
" />
<path d="M72070 72280
L72020 72310
L71900 72310
L71850 72280
L71820 72230
L71820 72000
L71850 71950
L71900 71920
L72020 71920
L72070 71950
L72100 72000
L72100 72060
L71820 72120
" />
<path d="M72270 71920
L72490 71920
" />
<path d="M72350 71720
L72350 72230
L72380 72280
L72440 72310
L72490 72310
" />
<path d="M72690 72260
L72720 72280
L72690 72310
L72660 72280
L72690 72260
L72690 72310
" />
<path d="M72690 71950
L72720 71970
L72690 72000
L72660 71970
L72690 71950
L72690 72000
" />
<path d="M73840 71690
L73340 72450
" />
</g>
<g style="fill:#840000; fill-opacity:0.0; 
stroke:#840000; stroke-width:100; stroke-opacity:1; 
stroke-linecap:round; stroke-linejoin:round;">
</g>
<g style="fill:#840000; fill-opacity:0.0; 
stroke:#840000; stroke-width:120; stroke-opacity:1; 
stroke-linecap:round; stroke-linejoin:round;">
<text x="70080" y="71160"
textLength="6610" font-size="780" lengthAdjust="spacingAndGlyphs"
text-anchor="start" opacity="0">A3C Presqu'île</text>
<path d="M70270 70960
L70550 70960
" />
<path d="M70210 71130
L70410 70540
L70600 71130
" />
<path d="M70740 70540
L71110 70540
L70910 70770
L71000 70770
L71050 70790
L71080 70820
L71110 70880
L71110 71020
L71080 71080
L71050 71100
L71000 71130
L70830 71130
L70770 71100
L70740 71080
" />
<path d="M71700 71080
L71670 71100
L71590 71130
L71530 71130
L71450 71100
L71390 71050
L71360 70990
L71330 70880
L71330 70790
L71360 70680
L71390 70630
L71450 70570
L71530 70540
L71590 70540
L71670 70570
L71700 70600
" />
<path d="M72400 71130
L72400 70540
L72630 70540
L72680 70570
L72710 70600
L72740 70650
L72740 70740
L72710 70790
L72680 70820
L72630 70850
L72400 70850
" />
<path d="M72990 71130
L72990 70740
" />
<path d="M72990 70850
L73020 70790
L73050 70770
L73100 70740
L73160 70740
" />
<path d="M73580 71100
L73520 71130
L73410 71130
L73360 71100
L73330 71050
L73330 70820
L73360 70770
L73410 70740
L73520 70740
L73580 70770
L73610 70820
L73610 70880
L73330 70940
" />
<path d="M73830 71100
L73890 71130
L74000 71130
L74060 71100
L74090 71050
L74090 71020
L74060 70960
L74000 70940
L73920 70940
L73860 70910
L73830 70850
L73830 70820
L73860 70770
L73920 70740
L74000 70740
L74060 70770
" />
<path d="M74590 70740
L74590 71330
" />
<path d="M74590 71100
L74540 71130
L74420 71130
L74370 71100
L74340 71080
L74310 71020
L74310 70850
L74340 70790
L74370 70770
L74420 70740
L74540 70740
L74590 70770
" />
<path d="M75130 70740
L75130 71130
" />
<path d="M74870 70740
L74870 71050
L74900 71100
L74960 71130
L75040 71130
L75100 71100
L75130 71080
" />
<path d="M75430 70540
L75380 70650
" />
<path d="M75600 70600
L75720 70510
L75830 70600
" />
<path d="M75720 71130
L75720 70740
" />
<path d="M76110 71130
L76050 71100
L76020 71050
L76020 70540
" />
<path d="M76560 71100
L76500 71130
L76390 71130
L76330 71100
L76310 71050
L76310 70820
L76330 70770
L76390 70740
L76500 70740
L76560 70770
L76590 70820
L76590 70880
L76310 70940
" />
</g>
<g style="fill:#840000; fill-opacity:0.0; 
stroke:#840000; stroke-width:100; stroke-opacity:1; 
stroke-linecap:round; stroke-linejoin:round;">
</g>
<g style="fill:#840000; fill-opacity:0.0; 
stroke:#840000; stroke-width:60; stroke-opacity:1; 
stroke-linecap:round; stroke-linejoin:round;">
<path d="M77560 75400
L77560 76580
" />
</g>
<g style="fill:#840000; fill-opacity:0.0; 
stroke:#840000; stroke-width:100; stroke-opacity:1; 
stroke-linecap:round; stroke-linejoin:round;">
</g>
<g style="fill:#840000; fill-opacity:0.0; 
stroke:#840000; stroke-width:60; stroke-opacity:1; 
stroke-linecap:round; stroke-linejoin:round;">
<path d="M102760 75400
L102760 77960
" />
</g>
<g style="fill:#840000; fill-opacity:0.0; 
stroke:#840000; stroke-width:0; stroke-opacity:1; 
stroke-linecap:round; stroke-linejoin:round;">
<g >
</g>
<g style="fill:#FFFFC2; fill-opacity:0.0; 
stroke:#FFFFC2; stroke-width:0; stroke-opacity:1; 
stroke-linecap:round; stroke-linejoin:round;">
</g>
<g style="fill:#FFFFC2; fill-opacity:0.6; 
stroke:#FFFFC2; stroke-width:0; stroke-opacity:1; 
stroke-linecap:round; stroke-linejoin:round;">
<rect x="34500" y="28000" width="1000" height="2000" rx="0" />
</g>
<g style="fill:#840000; fill-opacity:0.6; 
stroke:#840000; stroke-width:0; stroke-opacity:1; 
stroke-linecap:round; stroke-linejoin:round;">
</g>
<g style="fill:#840000; fill-opacity:0.0; 
stroke:#840000; stroke-width:100; stroke-opacity:1; 
stroke-linecap:round; stroke-linejoin:round;">
<rect x="34500" y="28000" width="1000" height="2000" rx="0" />
</g>
<g style="fill:#840000; fill-opacity:0.0; 
stroke:#840000; stroke-width:60; stroke-opacity:1; 
stroke-linecap:round; stroke-linejoin:round;">
<rect x="34500" y="29450" width="500" height="100" rx="0" />
<rect x="34500" y="28450" width="500" height="100" rx="0" />
</g>
<g style="fill:#840000; fill-opacity:0.0; 
stroke:#840000; stroke-width:100; stroke-opacity:1; 
stroke-linecap:round; stroke-linejoin:round;">
<rect x="34500" y="28000" width="1000" height="2000" rx="0" />
</g>
<g style="fill:#840000; fill-opacity:0.0; 
stroke:#840000; stroke-width:60; stroke-opacity:1; 
stroke-linecap:round; stroke-linejoin:round;">
<path d="M34500 28500
L33000 28500
" />
<text x="33750" y="28400"
textLength="630" font-size="660" lengthAdjust="spacingAndGlyphs"
text-anchor="middle" opacity="0">1</text>
<path d="M33890 28370
L33600 28370
" />
<path d="M33750 28370
L33750 27870
L33700 27940
L33650 27990
L33600 28010
" />
<path d="M34500 29500
L33000 29500
" />
<text x="33750" y="29400"
textLength="540" font-size="660" lengthAdjust="spacingAndGlyphs"
text-anchor="middle" opacity="0">2</text>
<path d="M33600 28920
L33630 28900
L33670 28870
L33790 28870
L33840 28900
L33860 28920
L33890 28970
L33890 29010
L33860 29090
L33580 29370
L33890 29370
" />
</g>
<g style="fill:#008484; fill-opacity:0.0; 
stroke:#008484; stroke-width:60; stroke-opacity:1; 
stroke-linecap:round; stroke-linejoin:round;">
<text x="34960" y="27770"
textLength="920" font-size="660" lengthAdjust="spacingAndGlyphs"
text-anchor="middle" opacity="0">J7</text>
<path d="M34790 27240
L34790 27600
L34760 27670
L34720 27720
L34650 27740
L34600 27740
" />
<path d="M34980 27240
L35310 27240
L35100 27740
" />
</g>
<g style="fill:#008484; fill-opacity:0.0; 
stroke:#008484; stroke-width:240; stroke-opacity:1; 
stroke-linecap:round; stroke-linejoin:round;">
<text x="37940" y="29630"
textLength="3880" font-size="1570" lengthAdjust="spacingAndGlyphs"
text-anchor="middle" opacity="0">3.3V</text>
<path d="M36190 28390
L36920 28390
L36530 28840
L36700 28840
L36810 28890
L36870 28950
L36920 29060
L36920 29340
L36870 29460
L36810 29510
L36700 29570
L36360 29570
L36250 29510
L36190 29460
" />
<path d="M37430 29460
L37490 29510
L37430 29570
L37370 29510
L37430 29460
L37430 29570
" />
<path d="M37880 28390
L38610 28390
L38220 28840
L38380 28840
L38500 28890
L38550 28950
L38610 29060
L38610 29340
L38550 29460
L38500 29510
L38380 29570
L38050 29570
L37940 29510
L37880 29460
" />
<path d="M38950 28390
L39340 29570
L39730 28390
" />
</g>
</g>
<g style="fill:#008484; fill-opacity:0.0; 
stroke:#008484; stroke-width:0; stroke-opacity:1; 
stroke-linecap:round; stroke-linejoin:round;">
<g >
</g>
<g style="fill:#840000; fill-opacity:0.0; 
stroke:#840000; stroke-width:0; stroke-opacity:1; 
stroke-linecap:round; stroke-linejoin:round;">
</g>
<g style="fill:#840000; fill-opacity:0.0; 
stroke:#840000; stroke-width:60; stroke-opacity:1; 
stroke-linecap:round; stroke-linejoin:round;">
<path style="fill:#840000; fill-opacity:0.0; 
stroke:#840000; stroke-width:60; stroke-opacity:1; 
stroke-linecap:round; stroke-linejoin:round;fill:none"
d="M 25500,28500
26000,28500
26000,28000
26500,28500
26000,29000
26000,28500
" /> 
</g>
<g style="fill:#008484; fill-opacity:0.0; 
stroke:#008484; stroke-width:60; stroke-opacity:1; 
stroke-linecap:round; stroke-linejoin:round;">
<g transform="rotate(-90 27250 28450)">
<text x="27250" y="28700"
textLength="1840" font-size="660" lengthAdjust="spacingAndGlyphs"
text-anchor="middle" opacity="0">GND</text>
</g>
<path d="M27000 28830
L26970 28870
L26970 28950
L27000 29020
L27040 29060
L27090 29090
L27190 29110
L27260 29110
L27350 29090
L27400 29060
L27450 29020
L27470 28950
L27470 28900
L27450 28830
L27420 28800
L27260 28800
L27260 28900
" />
<path d="M27470 28590
L26970 28590
L27470 28300
L26970 28300
" />
<path d="M27470 28060
L26970 28060
L26970 27950
L27000 27870
L27040 27830
L27090 27800
L27190 27780
L27260 27780
L27350 27800
L27400 27830
L27450 27870
L27470 27950
L27470 28060
" />
</g>
</g>
<g style="fill:#008484; fill-opacity:0.0; 
stroke:#008484; stroke-width:0; stroke-opacity:1; 
stroke-linecap:round; stroke-linejoin:round;">
<g >
</g>
<g style="fill:#840000; fill-opacity:0.0; 
stroke:#840000; stroke-width:0; stroke-opacity:1; 
stroke-linecap:round; stroke-linejoin:round;">
</g>
<g style="fill:#FFFFC2; fill-opacity:0.0; 
stroke:#FFFFC2; stroke-width:0; stroke-opacity:1; 
stroke-linecap:round; stroke-linejoin:round;">
</g>
<g style="fill:#FFFFC2; fill-opacity:0.6; 
stroke:#FFFFC2; stroke-width:0; stroke-opacity:1; 
stroke-linecap:round; stroke-linejoin:round;">
<rect x="34500" y="25000" width="1000" height="2000" rx="0" />
</g>
<g style="fill:#840000; fill-opacity:0.6; 
stroke:#840000; stroke-width:0; stroke-opacity:1; 
stroke-linecap:round; stroke-linejoin:round;">
</g>
<g style="fill:#840000; fill-opacity:0.0; 
stroke:#840000; stroke-width:100; stroke-opacity:1; 
stroke-linecap:round; stroke-linejoin:round;">
<rect x="34500" y="25000" width="1000" height="2000" rx="0" />
</g>
<g style="fill:#840000; fill-opacity:0.0; 
stroke:#840000; stroke-width:60; stroke-opacity:1; 
stroke-linecap:round; stroke-linejoin:round;">
<rect x="34500" y="26450" width="500" height="100" rx="0" />
<rect x="34500" y="25450" width="500" height="100" rx="0" />
</g>
<g style="fill:#840000; fill-opacity:0.0; 
stroke:#840000; stroke-width:100; stroke-opacity:1; 
stroke-linecap:round; stroke-linejoin:round;">
<rect x="34500" y="25000" width="1000" height="2000" rx="0" />
</g>
<g style="fill:#840000; fill-opacity:0.0; 
stroke:#840000; stroke-width:60; stroke-opacity:1; 
stroke-linecap:round; stroke-linejoin:round;">
<path d="M34500 25500
L33000 25500
" />
<text x="33750" y="25400"
textLength="540" font-size="660" lengthAdjust="spacingAndGlyphs"
text-anchor="middle" opacity="0">1</text>
<path d="M33890 25370
L33600 25370
" />
<path d="M33750 25370
L33750 24870
L33700 24940
L33650 24990
L33600 25010
" />
<path d="M34500 26500
L33000 26500
" />
<text x="33750" y="26400"
textLength="540" font-size="660" lengthAdjust="spacingAndGlyphs"
text-anchor="middle" opacity="0">2</text>
<path d="M33600 25920
L33630 25900
L33670 25870
L33790 25870
L33840 25900
L33860 25920
L33890 25970
L33890 26010
L33860 26090
L33580 26370
L33890 26370
" />
</g>
<g style="fill:#008484; fill-opacity:0.0; 
stroke:#008484; stroke-width:60; stroke-opacity:1; 
stroke-linecap:round; stroke-linejoin:round;">
<text x="34960" y="24770"
textLength="920" font-size="660" lengthAdjust="spacingAndGlyphs"
text-anchor="middle" opacity="0">J6</text>
<path d="M34790 24240
L34790 24600
L34760 24670
L34720 24720
L34650 24740
L34600 24740
" />
<path d="M35240 24240
L35150 24240
L35100 24270
L35070 24290
L35030 24360
L35000 24460
L35000 24650
L35030 24690
L35050 24720
L35100 24740
L35190 24740
L35240 24720
L35260 24690
L35290 24650
L35290 24530
L35260 24480
L35240 24460
L35190 24430
L35100 24430
L35050 24460
L35030 24480
L35000 24530
" />
</g>
<g style="fill:#008484; fill-opacity:0.0; 
stroke:#008484; stroke-width:240; stroke-opacity:1; 
stroke-linecap:round; stroke-linejoin:round;">
<text x="38440" y="26630"
textLength="4890" font-size="1570" lengthAdjust="spacingAndGlyphs"
text-anchor="middle" opacity="0">Reset</text>
<path d="M36970 26570
L36580 26010
" />
<path d="M36300 26570
L36300 25390
L36750 25390
L36860 25450
L36920 25500
L36970 25610
L36970 25780
L36920 25890
L36860 25950
L36750 26010
L36300 26010
" />
<path d="M37930 26510
L37820 26570
L37590 26570
L37480 26510
L37420 26400
L37420 25950
L37480 25840
L37590 25780
L37820 25780
L37930 25840
L37990 25950
L37990 26060
L37420 26180
" />
<path d="M38440 26510
L38550 26570
L38770 26570
L38880 26510
L38940 26400
L38940 26340
L38880 26230
L38770 26180
L38600 26180
L38490 26120
L38440 26010
L38440 25950
L38490 25840
L38600 25780
L38770 25780
L38880 25840
" />
<path d="M39900 26510
L39780 26570
L39560 26570
L39450 26510
L39390 26400
L39390 25950
L39450 25840
L39560 25780
L39780 25780
L39900 25840
L39950 25950
L39950 26060
L39390 26180
" />
<path d="M40290 25780
L40740 25780
" />
<path d="M40460 25390
L40460 26400
L40510 26510
L40630 26570
L40740 26570
" />
</g>
</g>
<g style="fill:#008484; fill-opacity:0.0; 
stroke:#008484; stroke-width:0; stroke-opacity:1; 
stroke-linecap:round; stroke-linejoin:round;">
<g >
</g>
<g style="fill:#840000; fill-opacity:0.0; 
stroke:#840000; stroke-width:0; stroke-opacity:1; 
stroke-linecap:round; stroke-linejoin:round;">
</g>
<g style="fill:#FFFFC2; fill-opacity:0.0; 
stroke:#FFFFC2; stroke-width:0; stroke-opacity:1; 
stroke-linecap:round; stroke-linejoin:round;">
</g>
<g style="fill:#FFFFC2; fill-opacity:0.6; 
stroke:#FFFFC2; stroke-width:0; stroke-opacity:1; 
stroke-linecap:round; stroke-linejoin:round;">
<rect x="21000" y="18500" width="6000" height="9000" rx="0" />
</g>
<g style="fill:#840000; fill-opacity:0.6; 
stroke:#840000; stroke-width:0; stroke-opacity:1; 
stroke-linecap:round; stroke-linejoin:round;">
</g>
<g style="fill:#840000; fill-opacity:0.0; 
stroke:#840000; stroke-width:100; stroke-opacity:1; 
stroke-linecap:round; stroke-linejoin:round;">
<rect x="21000" y="18500" width="6000" height="9000" rx="0" />
<rect x="21000" y="18500" width="6000" height="9000" rx="0" />
</g>
<g style="fill:#840000; fill-opacity:0.0; 
stroke:#840000; stroke-width:60; stroke-opacity:1; 
stroke-linecap:round; stroke-linejoin:round;">
<path style="fill:#840000; fill-opacity:0.0; 
stroke:#840000; stroke-width:60; stroke-opacity:1; 
stroke-linecap:round; stroke-linejoin:round;fill:none"
d="M 22000,21750
21500,21750
" /> 
<path style="fill:#840000; fill-opacity:0.0; 
stroke:#840000; stroke-width:60; stroke-opacity:1; 
stroke-linecap:round; stroke-linejoin:round;fill:none"
d="M 22000,21250
21500,21250
" /> 
<path style="fill:#840000; fill-opacity:0.0; 
stroke:#840000; stroke-width:60; stroke-opacity:1; 
stroke-linecap:round; stroke-linejoin:round;fill:none"
d="M 21500,24750
22000,24750
22000,24750
" /> 
<path style="fill:#840000; fill-opacity:0.0; 
stroke:#840000; stroke-width:60; stroke-opacity:1; 
stroke-linecap:round; stroke-linejoin:round;fill:none"
d="M 21500,24250
22000,24250
22000,24250
" /> 
<path style="fill:#840000; fill-opacity:0.0; 
stroke:#840000; stroke-width:60; stroke-opacity:1; 
stroke-linecap:round; stroke-linejoin:round;fill:none"
d="M 21500,23750
22000,23750
22000,23750
" /> 
<path style="fill:#840000; fill-opacity:0.0; 
stroke:#840000; stroke-width:60; stroke-opacity:1; 
stroke-linecap:round; stroke-linejoin:round;fill:none"
d="M 21500,23250
22000,23250
22000,23250
" /> 
<path style="fill:#840000; fill-opacity:0.0; 
stroke:#840000; stroke-width:60; stroke-opacity:1; 
stroke-linecap:round; stroke-linejoin:round;fill:none"
d="M 21500,22750
22000,22750
22000,22750
" /> 
<path style="fill:#840000; fill-opacity:0.0; 
stroke:#840000; stroke-width:60; stroke-opacity:1; 
stroke-linecap:round; stroke-linejoin:round;fill:none"
d="M 22000,22250
21500,22250
21500,22250
" /> 
<path style="fill:#840000; fill-opacity:0.0; 
stroke:#840000; stroke-width:60; stroke-opacity:1; 
stroke-linecap:round; stroke-linejoin:round;fill:none"
d="M 21500,25250
21500,20750
25500,20750
25500,21750
26000,21750
26000,22250
26500,22250
26500,23750
26000,23750
26000,24250
25500,24250
25500,25250
21500,25250
Z" /> 
<path d="M27000 26500
L28000 26500
" />
<text x="27500" y="26400"
textLength="790" font-size="660" lengthAdjust="spacingAndGlyphs"
text-anchor="middle" opacity="0">1</text>
<path d="M27640 26370
L27350 26370
" />
<path d="M27500 26370
L27500 25870
L27450 25940
L27400 25990
L27350 26010
" />
<path d="M24000 18500
L24000 17500
" />
</g>
<g style="fill:#008484; fill-opacity:0.0; 
stroke:#008484; stroke-width:60; stroke-opacity:1; 
stroke-linecap:round; stroke-linejoin:round;">
<g transform="rotate(-90 24000 18900)">
<text x="24000" y="19150"
textLength="1580" font-size="660" lengthAdjust="spacingAndGlyphs"
text-anchor="end" opacity="0">GND</text>
</g>
<path d="M23750 20070
L23720 20120
L23720 20190
L23750 20260
L23790 20310
L23840 20330
L23940 20350
L24010 20350
L24100 20330
L24150 20310
L24200 20260
L24220 20190
L24220 20140
L24200 20070
L24170 20040
L24010 20040
L24010 20140
" />
<path d="M24220 19830
L23720 19830
L24220 19540
L23720 19540
" />
<path d="M24220 19310
L23720 19310
L23720 19190
L23750 19120
L23790 19070
L23840 19040
L23940 19020
L24010 19020
L24100 19040
L24150 19070
L24200 19120
L24220 19190
L24220 19310
" />
</g>
<g style="fill:#840000; fill-opacity:0.0; 
stroke:#840000; stroke-width:60; stroke-opacity:1; 
stroke-linecap:round; stroke-linejoin:round;">
<g transform="rotate(-90 23900 18000)">
<text x="23900" y="18000"
textLength="1010" font-size="660" lengthAdjust="spacingAndGlyphs"
text-anchor="middle" opacity="0">10</text>
</g>
<path d="M23870 18090
L23870 18380
" />
<path d="M23870 18230
L23370 18230
L23440 18280
L23490 18330
L23510 18380
" />
<path d="M23370 17780
L23370 17730
L23400 17690
L23420 17660
L23470 17640
L23560 17610
L23680 17610
L23780 17640
L23820 17660
L23850 17690
L23870 17730
L23870 17780
L23850 17830
L23820 17850
L23780 17880
L23680 17900
L23560 17900
L23470 17880
L23420 17850
L23400 17830
L23370 17780
" />
<path d="M27000 25500
L28000 25500
" />
<text x="27500" y="25400"
textLength="540" font-size="660" lengthAdjust="spacingAndGlyphs"
text-anchor="middle" opacity="0">2</text>
<path d="M27350 24920
L27380 24900
L27420 24870
L27540 24870
L27590 24900
L27610 24920
L27640 24970
L27640 25010
L27610 25090
L27330 25370
L27640 25370
" />
<path d="M27000 24500
L28000 24500
" />
<text x="27500" y="24400"
textLength="540" font-size="660" lengthAdjust="spacingAndGlyphs"
text-anchor="middle" opacity="0">3</text>
<path d="M27330 23870
L27640 23870
L27470 24060
L27540 24060
L27590 24090
L27610 24110
L27640 24160
L27640 24280
L27610 24320
L27590 24350
L27540 24370
L27400 24370
L27350 24350
L27330 24320
" />
<path d="M27000 23500
L28000 23500
" />
<text x="27500" y="23400"
textLength="540" font-size="660" lengthAdjust="spacingAndGlyphs"
text-anchor="middle" opacity="0">4</text>
<path d="M27590 23040
L27590 23370
" />
<path d="M27470 22850
L27350 23200
L27660 23200
" />
<path d="M27000 22500
L28000 22500
" />
<text x="27500" y="22400"
textLength="540" font-size="660" lengthAdjust="spacingAndGlyphs"
text-anchor="middle" opacity="0">5</text>
<path d="M27610 21870
L27380 21870
L27350 22110
L27380 22090
L27420 22060
L27540 22060
L27590 22090
L27610 22110
L27640 22160
L27640 22280
L27610 22320
L27590 22350
L27540 22370
L27420 22370
L27380 22350
L27350 22320
" />
<path d="M27000 21500
L28000 21500
" />
<text x="27500" y="21400"
textLength="540" font-size="660" lengthAdjust="spacingAndGlyphs"
text-anchor="middle" opacity="0">6</text>
<path d="M27590 20870
L27500 20870
L27450 20900
L27420 20920
L27380 20990
L27350 21090
L27350 21280
L27380 21320
L27400 21350
L27450 21370
L27540 21370
L27590 21350
L27610 21320
L27640 21280
L27640 21160
L27610 21110
L27590 21090
L27540 21060
L27450 21060
L27400 21090
L27380 21110
L27350 21160
" />
<path d="M27000 20500
L28000 20500
" />
<text x="27500" y="20400"
textLength="540" font-size="660" lengthAdjust="spacingAndGlyphs"
text-anchor="middle" opacity="0">7</text>
<path d="M27330 19870
L27660 19870
L27450 20370
" />
<path d="M27000 19500
L28000 19500
" />
<text x="27500" y="19400"
textLength="540" font-size="660" lengthAdjust="spacingAndGlyphs"
text-anchor="middle" opacity="0">8</text>
<path d="M27450 19090
L27400 19060
L27380 19040
L27350 18990
L27350 18970
L27380 18920
L27400 18900
L27450 18870
L27540 18870
L27590 18900
L27610 18920
L27640 18970
L27640 18990
L27610 19040
L27590 19060
L27540 19090
L27450 19090
L27400 19110
L27380 19130
L27350 19180
L27350 19280
L27380 19320
L27400 19350
L27450 19370
L27540 19370
L27590 19350
L27610 19320
L27640 19280
L27640 19180
L27610 19130
L27590 19110
L27540 19090
" />
<path d="M24000 27500
L24000 28500
" />
</g>
<g style="fill:#008484; fill-opacity:0.0; 
stroke:#008484; stroke-width:60; stroke-opacity:1; 
stroke-linecap:round; stroke-linejoin:round;">
<g transform="rotate(-90 24000 27100)">
<text x="24000" y="27350"
textLength="1580" font-size="660" lengthAdjust="spacingAndGlyphs"
text-anchor="start" opacity="0">GND</text>
</g>
<path d="M23750 26680
L23720 26730
L23720 26800
L23750 26870
L23790 26920
L23840 26950
L23940 26970
L24010 26970
L24100 26950
L24150 26920
L24200 26870
L24220 26800
L24220 26760
L24200 26680
L24170 26660
L24010 26660
L24010 26760
" />
<path d="M24220 26450
L23720 26450
L24220 26160
L23720 26160
" />
<path d="M24220 25920
L23720 25920
L23720 25800
L23750 25730
L23790 25680
L23840 25660
L23940 25640
L24010 25640
L24100 25660
L24150 25680
L24200 25730
L24220 25800
L24220 25920
" />
</g>
<g style="fill:#840000; fill-opacity:0.0; 
stroke:#840000; stroke-width:60; stroke-opacity:1; 
stroke-linecap:round; stroke-linejoin:round;">
<g transform="rotate(-90 23900 28000)">
<text x="23900" y="28000"
textLength="540" font-size="660" lengthAdjust="spacingAndGlyphs"
text-anchor="middle" opacity="0">9</text>
</g>
<path d="M23870 28090
L23870 28000
L23850 27950
L23820 27920
L23750 27880
L23660 27850
L23470 27850
L23420 27880
L23400 27900
L23370 27950
L23370 28040
L23400 28090
L23420 28110
L23470 28140
L23590 28140
L23630 28110
L23660 28090
L23680 28040
L23680 27950
L23660 27900
L23630 27880
L23590 27850
" />
</g>
<g style="fill:#008484; fill-opacity:0.0; 
stroke:#008484; stroke-width:60; stroke-opacity:1; 
stroke-linecap:round; stroke-linejoin:round;">
<text x="23540" y="23270"
textLength="920" font-size="660" lengthAdjust="spacingAndGlyphs"
text-anchor="middle" opacity="0">J1</text>
<path d="M23370 22740
L23370 23100
L23340 23170
L23300 23220
L23230 23240
L23180 23240
" />
<path d="M23870 23240
L23580 23240
" />
<path d="M23730 23240
L23730 22740
L23680 22810
L23630 22860
L23580 22880
" />
<g transform="rotate(-90 20520 23030)">
<text x="20520" y="23280"
textLength="8060" font-size="660" lengthAdjust="spacingAndGlyphs"
text-anchor="middle" opacity="0">RJ45_conrad_922647</text>
</g>
<path d="M20740 26620
L20500 26790
" />
<path d="M20740 26910
L20240 26910
L20240 26720
L20270 26670
L20290 26640
L20340 26620
L20410 26620
L20460 26640
L20480 26670
L20500 26720
L20500 26910
" />
<path d="M20240 26260
L20600 26260
L20670 26290
L20720 26330
L20740 26410
L20740 26450
" />
<path d="M20410 25810
L20740 25810
" />
<path d="M20220 25930
L20570 26050
L20570 25740
" />
<path d="M20240 25310
L20240 25550
L20480 25570
L20460 25550
L20430 25500
L20430 25380
L20460 25330
L20480 25310
L20530 25290
L20650 25290
L20690 25310
L20720 25330
L20740 25380
L20740 25500
L20720 25550
L20690 25570
" />
<path d="M20790 25190
L20790 24810
" />
<path d="M20720 24480
L20740 24530
L20740 24620
L20720 24670
L20690 24690
L20650 24720
L20500 24720
L20460 24690
L20430 24670
L20410 24620
L20410 24530
L20430 24480
" />
<path d="M20740 24190
L20720 24240
L20690 24260
L20650 24290
L20500 24290
L20460 24260
L20430 24240
L20410 24190
L20410 24120
L20430 24070
L20460 24050
L20500 24030
L20650 24030
L20690 24050
L20720 24070
L20740 24120
L20740 24190
" />
<path d="M20410 23810
L20740 23810
" />
<path d="M20460 23810
L20430 23790
L20410 23740
L20410 23670
L20430 23620
L20480 23600
L20740 23600
" />
<path d="M20740 23360
L20410 23360
" />
<path d="M20500 23360
L20460 23330
L20430 23310
L20410 23260
L20410 23220
" />
<path d="M20740 22830
L20480 22830
L20430 22860
L20410 22910
L20410 23000
L20430 23050
" />
<path d="M20720 22830
L20740 22880
L20740 23000
L20720 23050
L20670 23070
L20620 23070
L20570 23050
L20550 23000
L20550 22880
L20530 22830
" />
<path d="M20740 22380
L20240 22380
" />
<path d="M20720 22380
L20740 22430
L20740 22530
L20720 22570
L20690 22600
L20650 22620
L20500 22620
L20460 22600
L20430 22570
L20410 22530
L20410 22430
L20430 22380
" />
<path d="M20790 22260
L20790 21880
" />
<path d="M20740 21740
L20740 21640
L20720 21600
L20690 21570
L20620 21530
L20530 21500
L20340 21500
L20290 21530
L20270 21550
L20240 21600
L20240 21690
L20270 21740
L20290 21760
L20340 21790
L20460 21790
L20500 21760
L20530 21740
L20550 21690
L20550 21600
L20530 21550
L20500 21530
L20460 21500
" />
<path d="M20290 21310
L20270 21290
L20240 21240
L20240 21120
L20270 21070
L20290 21050
L20340 21030
L20380 21030
L20460 21050
L20740 21330
L20740 21030
" />
<path d="M20290 20830
L20270 20810
L20240 20760
L20240 20640
L20270 20600
L20290 20570
L20340 20550
L20380 20550
L20460 20570
L20740 20860
L20740 20550
" />
<path d="M20240 20120
L20240 20220
L20270 20260
L20290 20290
L20360 20330
L20460 20360
L20650 20360
L20690 20330
L20720 20310
L20740 20260
L20740 20170
L20720 20120
L20690 20100
L20650 20070
L20530 20070
L20480 20100
L20460 20120
L20430 20170
L20430 20260
L20460 20310
L20480 20330
L20530 20360
" />
<path d="M20410 19640
L20740 19640
" />
<path d="M20220 19760
L20570 19880
L20570 19570
" />
<path d="M20240 19430
L20240 19100
L20740 19310
" />
</g>
</g>
<g style="fill:#008484; fill-opacity:0.0; 
stroke:#008484; stroke-width:0; stroke-opacity:1; 
stroke-linecap:round; stroke-linejoin:round;">
<g >
</g>
<g style="fill:#840000; fill-opacity:0.0; 
stroke:#840000; stroke-width:0; stroke-opacity:1; 
stroke-linecap:round; stroke-linejoin:round;">
</g>
<g style="fill:#FFFFC2; fill-opacity:0.0; 
stroke:#FFFFC2; stroke-width:0; stroke-opacity:1; 
stroke-linecap:round; stroke-linejoin:round;">
</g>
<g style="fill:#FFFFC2; fill-opacity:0.6; 
stroke:#FFFFC2; stroke-width:0; stroke-opacity:1; 
stroke-linecap:round; stroke-linejoin:round;">
<rect x="34500" y="19000" width="1000" height="2000" rx="0" />
</g>
<g style="fill:#840000; fill-opacity:0.6; 
stroke:#840000; stroke-width:0; stroke-opacity:1; 
stroke-linecap:round; stroke-linejoin:round;">
</g>
<g style="fill:#840000; fill-opacity:0.0; 
stroke:#840000; stroke-width:100; stroke-opacity:1; 
stroke-linecap:round; stroke-linejoin:round;">
<rect x="34500" y="19000" width="1000" height="2000" rx="0" />
</g>
<g style="fill:#840000; fill-opacity:0.0; 
stroke:#840000; stroke-width:60; stroke-opacity:1; 
stroke-linecap:round; stroke-linejoin:round;">
<rect x="34500" y="20450" width="500" height="100" rx="0" />
<rect x="34500" y="19450" width="500" height="100" rx="0" />
</g>
<g style="fill:#840000; fill-opacity:0.0; 
stroke:#840000; stroke-width:100; stroke-opacity:1; 
stroke-linecap:round; stroke-linejoin:round;">
<rect x="34500" y="19000" width="1000" height="2000" rx="0" />
</g>
<g style="fill:#840000; fill-opacity:0.0; 
stroke:#840000; stroke-width:60; stroke-opacity:1; 
stroke-linecap:round; stroke-linejoin:round;">
<path d="M34500 19500
L33000 19500
" />
<text x="33750" y="19400"
textLength="540" font-size="660" lengthAdjust="spacingAndGlyphs"
text-anchor="middle" opacity="0">1</text>
<path d="M33890 19370
L33600 19370
" />
<path d="M33750 19370
L33750 18870
L33700 18940
L33650 18990
L33600 19010
" />
<path d="M34500 20500
L33000 20500
" />
<text x="33750" y="20400"
textLength="540" font-size="660" lengthAdjust="spacingAndGlyphs"
text-anchor="middle" opacity="0">2</text>
<path d="M33600 19920
L33630 19900
L33670 19870
L33790 19870
L33840 19900
L33860 19920
L33890 19970
L33890 20010
L33860 20090
L33580 20370
L33890 20370
" />
</g>
<g style="fill:#008484; fill-opacity:0.0; 
stroke:#008484; stroke-width:60; stroke-opacity:1; 
stroke-linecap:round; stroke-linejoin:round;">
<text x="34960" y="18770"
textLength="920" font-size="660" lengthAdjust="spacingAndGlyphs"
text-anchor="middle" opacity="0">J4</text>
<path d="M34790 18240
L34790 18600
L34760 18670
L34720 18720
L34650 18740
L34600 18740
" />
<path d="M35240 18410
L35240 18740
" />
<path d="M35120 18220
L35000 18570
L35310 18570
" />
</g>
<g style="fill:#008484; fill-opacity:0.0; 
stroke:#008484; stroke-width:240; stroke-opacity:1; 
stroke-linecap:round; stroke-linejoin:round;">
<text x="38810" y="20630"
textLength="5620" font-size="1570" lengthAdjust="spacingAndGlyphs"
text-anchor="middle" opacity="0">P230V</text>
<path d="M36300 20570
L36300 19390
L36750 19390
L36870 19450
L36920 19500
L36980 19610
L36980 19780
L36920 19890
L36870 19950
L36750 20010
L36300 20010
" />
<path d="M37430 19500
L37480 19450
L37600 19390
L37880 19390
L37990 19450
L38050 19500
L38100 19610
L38100 19730
L38050 19890
L37370 20570
L38100 20570
" />
<path d="M38500 19390
L39230 19390
L38830 19840
L39000 19840
L39110 19890
L39170 19950
L39230 20060
L39230 20340
L39170 20460
L39110 20510
L39000 20570
L38660 20570
L38550 20510
L38500 20460
" />
<path d="M39960 19390
L40070 19390
L40180 19450
L40240 19500
L40290 19610
L40350 19840
L40350 20120
L40290 20340
L40240 20460
L40180 20510
L40070 20570
L39960 20570
L39840 20510
L39790 20460
L39730 20340
L39680 20120
L39680 19840
L39730 19610
L39790 19500
L39840 19450
L39960 19390
" />
<path d="M40690 19390
L41080 20570
L41470 19390
" />
</g>
</g>
<g style="fill:#008484; fill-opacity:0.0; 
stroke:#008484; stroke-width:0; stroke-opacity:1; 
stroke-linecap:round; stroke-linejoin:round;">
<g >
</g>
<g style="fill:#840000; fill-opacity:0.0; 
stroke:#840000; stroke-width:0; stroke-opacity:1; 
stroke-linecap:round; stroke-linejoin:round;">
</g>
<g style="fill:#FFFFC2; fill-opacity:0.0; 
stroke:#FFFFC2; stroke-width:0; stroke-opacity:1; 
stroke-linecap:round; stroke-linejoin:round;">
</g>
<g style="fill:#FFFFC2; fill-opacity:0.6; 
stroke:#FFFFC2; stroke-width:0; stroke-opacity:1; 
stroke-linecap:round; stroke-linejoin:round;">
<rect x="34500" y="16000" width="1000" height="2000" rx="0" />
</g>
<g style="fill:#840000; fill-opacity:0.6; 
stroke:#840000; stroke-width:0; stroke-opacity:1; 
stroke-linecap:round; stroke-linejoin:round;">
</g>
<g style="fill:#840000; fill-opacity:0.0; 
stroke:#840000; stroke-width:100; stroke-opacity:1; 
stroke-linecap:round; stroke-linejoin:round;">
<rect x="34500" y="16000" width="1000" height="2000" rx="0" />
</g>
<g style="fill:#840000; fill-opacity:0.0; 
stroke:#840000; stroke-width:60; stroke-opacity:1; 
stroke-linecap:round; stroke-linejoin:round;">
<rect x="34500" y="17450" width="500" height="100" rx="0" />
<rect x="34500" y="16450" width="500" height="100" rx="0" />
</g>
<g style="fill:#840000; fill-opacity:0.0; 
stroke:#840000; stroke-width:100; stroke-opacity:1; 
stroke-linecap:round; stroke-linejoin:round;">
<rect x="34500" y="16000" width="1000" height="2000" rx="0" />
</g>
<g style="fill:#840000; fill-opacity:0.0; 
stroke:#840000; stroke-width:60; stroke-opacity:1; 
stroke-linecap:round; stroke-linejoin:round;">
<path d="M34500 16500
L33000 16500
" />
<text x="33750" y="16400"
textLength="790" font-size="660" lengthAdjust="spacingAndGlyphs"
text-anchor="middle" opacity="0">1</text>
<path d="M33890 16370
L33600 16370
" />
<path d="M33750 16370
L33750 15870
L33700 15940
L33650 15990
L33600 16010
" />
<path d="M34500 17500
L33000 17500
" />
<text x="33750" y="17400"
textLength="540" font-size="660" lengthAdjust="spacingAndGlyphs"
text-anchor="middle" opacity="0">2</text>
<path d="M33600 16920
L33630 16900
L33670 16870
L33790 16870
L33840 16900
L33860 16920
L33890 16970
L33890 17010
L33860 17090
L33580 17370
L33890 17370
" />
</g>
<g style="fill:#008484; fill-opacity:0.0; 
stroke:#008484; stroke-width:60; stroke-opacity:1; 
stroke-linecap:round; stroke-linejoin:round;">
<text x="34960" y="15770"
textLength="920" font-size="660" lengthAdjust="spacingAndGlyphs"
text-anchor="middle" opacity="0">J3</text>
<path d="M34790 15240
L34790 15600
L34760 15670
L34720 15720
L34650 15740
L34600 15740
" />
<path d="M34980 15240
L35290 15240
L35120 15430
L35190 15430
L35240 15460
L35260 15480
L35290 15530
L35290 15650
L35260 15690
L35240 15720
L35190 15740
L35050 15740
L35000 15720
L34980 15690
" />
</g>
<g style="fill:#008484; fill-opacity:0.0; 
stroke:#008484; stroke-width:240; stroke-opacity:1; 
stroke-linecap:round; stroke-linejoin:round;">
<text x="37150" y="17630"
textLength="2310" font-size="1570" lengthAdjust="spacingAndGlyphs"
text-anchor="middle" opacity="0">itc</text>
<path d="M36300 17570
L36300 16780
" />
<path d="M36300 16390
L36250 16450
L36300 16500
L36360 16450
L36300 16390
L36300 16500
" />
<path d="M36700 16780
L37150 16780
" />
<path d="M36860 16390
L36860 17400
L36920 17510
L37030 17570
L37150 17570
" />
<path d="M38040 17510
L37930 17570
L37710 17570
L37590 17510
L37540 17460
L37480 17340
L37480 17010
L37540 16890
L37590 16840
L37710 16780
L37930 16780
L38040 16840
" />
</g>
</g>
<g style="fill:#008484; fill-opacity:0.0; 
stroke:#008484; stroke-width:0; stroke-opacity:1; 
stroke-linecap:round; stroke-linejoin:round;">
<g >
</g>
<g style="fill:#840000; fill-opacity:0.0; 
stroke:#840000; stroke-width:0; stroke-opacity:1; 
stroke-linecap:round; stroke-linejoin:round;">
</g>
<g style="fill:#FFFFC2; fill-opacity:0.0; 
stroke:#FFFFC2; stroke-width:0; stroke-opacity:1; 
stroke-linecap:round; stroke-linejoin:round;">
</g>
<g style="fill:#FFFFC2; fill-opacity:0.6; 
stroke:#FFFFC2; stroke-width:0; stroke-opacity:1; 
stroke-linecap:round; stroke-linejoin:round;">
<rect x="34500" y="13000" width="1000" height="2000" rx="0" />
</g>
<g style="fill:#840000; fill-opacity:0.6; 
stroke:#840000; stroke-width:0; stroke-opacity:1; 
stroke-linecap:round; stroke-linejoin:round;">
</g>
<g style="fill:#840000; fill-opacity:0.0; 
stroke:#840000; stroke-width:100; stroke-opacity:1; 
stroke-linecap:round; stroke-linejoin:round;">
<rect x="34500" y="13000" width="1000" height="2000" rx="0" />
</g>
<g style="fill:#840000; fill-opacity:0.0; 
stroke:#840000; stroke-width:60; stroke-opacity:1; 
stroke-linecap:round; stroke-linejoin:round;">
<rect x="34500" y="14450" width="500" height="100" rx="0" />
<rect x="34500" y="13450" width="500" height="100" rx="0" />
</g>
<g style="fill:#840000; fill-opacity:0.0; 
stroke:#840000; stroke-width:100; stroke-opacity:1; 
stroke-linecap:round; stroke-linejoin:round;">
<rect x="34500" y="13000" width="1000" height="2000" rx="0" />
</g>
<g style="fill:#840000; fill-opacity:0.0; 
stroke:#840000; stroke-width:60; stroke-opacity:1; 
stroke-linecap:round; stroke-linejoin:round;">
<path d="M34500 13500
L33000 13500
" />
<text x="33750" y="13400"
textLength="790" font-size="660" lengthAdjust="spacingAndGlyphs"
text-anchor="middle" opacity="0">1</text>
<path d="M33890 13370
L33600 13370
" />
<path d="M33750 13370
L33750 12870
L33700 12940
L33650 12990
L33600 13010
" />
<path d="M34500 14500
L33000 14500
" />
<text x="33750" y="14400"
textLength="540" font-size="660" lengthAdjust="spacingAndGlyphs"
text-anchor="middle" opacity="0">2</text>
<path d="M33600 13920
L33630 13900
L33670 13870
L33790 13870
L33840 13900
L33860 13920
L33890 13970
L33890 14010
L33860 14090
L33580 14370
L33890 14370
" />
</g>
<g style="fill:#008484; fill-opacity:0.0; 
stroke:#008484; stroke-width:60; stroke-opacity:1; 
stroke-linecap:round; stroke-linejoin:round;">
<text x="34960" y="12770"
textLength="920" font-size="660" lengthAdjust="spacingAndGlyphs"
text-anchor="middle" opacity="0">J2</text>
<path d="M34790 12240
L34790 12600
L34760 12670
L34720 12720
L34650 12740
L34600 12740
" />
<path d="M35000 12290
L35030 12270
L35070 12240
L35190 12240
L35240 12270
L35260 12290
L35290 12340
L35290 12380
L35260 12460
L34980 12740
L35290 12740
" />
</g>
<g style="fill:#008484; fill-opacity:0.0; 
stroke:#008484; stroke-width:240; stroke-opacity:1; 
stroke-linecap:round; stroke-linejoin:round;">
<text x="40580" y="14630"
textLength="9160" font-size="1570" lengthAdjust="spacingAndGlyphs"
text-anchor="middle" opacity="0">Cde relais</text>
<path d="M36980 14460
L36920 14510
L36750 14570
L36640 14570
L36470 14510
L36360 14400
L36300 14290
L36250 14060
L36250 13890
L36300 13670
L36360 13560
L36470 13450
L36640 13390
L36750 13390
L36920 13450
L36980 13500
" />
<path d="M37990 14570
L37990 13390
" />
<path d="M37990 14510
L37880 14570
L37650 14570
L37540 14510
L37480 14460
L37430 14340
L37430 14010
L37480 13890
L37540 13840
L37650 13780
L37880 13780
L37990 13840
" />
<path d="M39000 14510
L38890 14570
L38660 14570
L38550 14510
L38500 14400
L38500 13950
L38550 13840
L38660 13780
L38890 13780
L39000 13840
L39060 13950
L39060 14060
L38500 14180
" />
<path d="M40460 14570
L40460 13780
" />
<path d="M40460 14010
L40520 13890
L40580 13840
L40690 13780
L40800 13780
" />
<path d="M41640 14510
L41530 14570
L41310 14570
L41190 14510
L41140 14400
L41140 13950
L41190 13840
L41310 13780
L41530 13780
L41640 13840
L41700 13950
L41700 14060
L41140 14180
" />
<path d="M42370 14570
L42260 14510
L42200 14400
L42200 13390
" />
<path d="M43330 14570
L43330 13950
L43270 13840
L43160 13780
L42940 13780
L42820 13840
" />
<path d="M43330 14510
L43220 14570
L42940 14570
L42820 14510
L42770 14400
L42770 14290
L42820 14180
L42940 14120
L43220 14120
L43330 14060
" />
<path d="M43890 14570
L43890 13780
" />
<path d="M43890 13390
L43830 13450
L43890 13500
L43950 13450
L43890 13390
L43890 13500
" />
<path d="M44400 14510
L44510 14570
L44730 14570
L44850 14510
L44900 14400
L44900 14340
L44850 14230
L44730 14180
L44560 14180
L44450 14120
L44400 14010
L44400 13950
L44450 13840
L44560 13780
L44730 13780
L44850 13840
" />
</g>
</g>
<g style="fill:#008484; fill-opacity:0.0; 
stroke:#008484; stroke-width:0; stroke-opacity:1; 
stroke-linecap:round; stroke-linejoin:round;">
<g >
</g>
<g style="fill:#840000; fill-opacity:0.0; 
stroke:#840000; stroke-width:0; stroke-opacity:1; 
stroke-linecap:round; stroke-linejoin:round;">
</g>
<g style="fill:#840000; fill-opacity:0.0; 
stroke:#840000; stroke-width:60; stroke-opacity:1; 
stroke-linecap:round; stroke-linejoin:round;">
<circle cx="29700" cy="23500" r="200" /> 
<circle cx="31300" cy="23500" r="200" /> 
<path style="fill:#840000; fill-opacity:0.0; 
stroke:#840000; stroke-width:60; stroke-opacity:1; 
stroke-linecap:round; stroke-linejoin:round;fill:none"
d="M 30500,23000
30500,22300
" /> 
<path style="fill:#840000; fill-opacity:0.0; 
stroke:#840000; stroke-width:60; stroke-opacity:1; 
stroke-linecap:round; stroke-linejoin:round;fill:none"
d="M 31500,23000
29500,23000
" /> 
<path d="M29500 23500
L28500 23500
" />
<path d="M31500 23500
L32500 23500
" />
</g>
<g style="fill:#008484; fill-opacity:0.0; 
stroke:#008484; stroke-width:60; stroke-opacity:1; 
stroke-linecap:round; stroke-linejoin:round;">
<text x="28500" y="23270"
textLength="1840" font-size="660" lengthAdjust="spacingAndGlyphs"
text-anchor="middle" opacity="0">SW1</text>
<path d="M27830 23220
L27900 23240
L28020 23240
L28070 23220
L28090 23190
L28110 23150
L28110 23100
L28090 23050
L28070 23030
L28020 23000
L27920 22980
L27880 22960
L27850 22930
L27830 22880
L27830 22840
L27850 22790
L27880 22770
L27920 22740
L28040 22740
L28110 22770
" />
<path d="M28280 22740
L28400 23240
L28500 22880
L28590 23240
L28710 22740
" />
<path d="M29160 23240
L28880 23240
" />
<path d="M29020 23240
L29020 22740
L28970 22810
L28920 22860
L28880 22880
" />
<text x="30500" y="24270"
textLength="2110" font-size="660" lengthAdjust="spacingAndGlyphs"
text-anchor="middle" opacity="0">Reset</text>
<path d="M29880 24240
L29710 24000
" />
<path d="M29590 24240
L29590 23740
L29780 23740
L29830 23770
L29850 23790
L29880 23840
L29880 23910
L29850 23960
L29830 23980
L29780 24000
L29590 24000
" />
<path d="M30280 24220
L30230 24240
L30140 24240
L30090 24220
L30070 24170
L30070 23980
L30090 23930
L30140 23910
L30230 23910
L30280 23930
L30300 23980
L30300 24030
L30070 24070
" />
<path d="M30500 24220
L30540 24240
L30640 24240
L30690 24220
L30710 24170
L30710 24150
L30690 24100
L30640 24070
L30570 24070
L30520 24050
L30500 24000
L30500 23980
L30520 23930
L30570 23910
L30640 23910
L30690 23930
" />
<path d="M31110 24220
L31070 24240
L30970 24240
L30920 24220
L30900 24170
L30900 23980
L30920 23930
L30970 23910
L31070 23910
L31110 23930
L31140 23980
L31140 24030
L30900 24070
" />
<path d="M31280 23910
L31470 23910
" />
<path d="M31350 23740
L31350 24170
L31380 24220
L31420 24240
L31470 24240
" />
</g>
</g>
<g style="fill:#008484; fill-opacity:0.0; 
stroke:#008484; stroke-width:0; stroke-opacity:1; 
stroke-linecap:round; stroke-linejoin:round;">
<g >
</g>
<g style="fill:#840000; fill-opacity:0.0; 
stroke:#840000; stroke-width:0; stroke-opacity:1; 
stroke-linecap:round; stroke-linejoin:round;">
</g>
<g style="fill:#FFFFC2; fill-opacity:0.0; 
stroke:#FFFFC2; stroke-width:0; stroke-opacity:1; 
stroke-linecap:round; stroke-linejoin:round;">
</g>
<g style="fill:#FFFFC2; fill-opacity:0.6; 
stroke:#FFFFC2; stroke-width:0; stroke-opacity:1; 
stroke-linecap:round; stroke-linejoin:round;">
<rect x="34500" y="22000" width="1000" height="2000" rx="0" />
</g>
<g style="fill:#840000; fill-opacity:0.6; 
stroke:#840000; stroke-width:0; stroke-opacity:1; 
stroke-linecap:round; stroke-linejoin:round;">
</g>
<g style="fill:#840000; fill-opacity:0.0; 
stroke:#840000; stroke-width:100; stroke-opacity:1; 
stroke-linecap:round; stroke-linejoin:round;">
<rect x="34500" y="22000" width="1000" height="2000" rx="0" />
</g>
<g style="fill:#840000; fill-opacity:0.0; 
stroke:#840000; stroke-width:60; stroke-opacity:1; 
stroke-linecap:round; stroke-linejoin:round;">
<rect x="34500" y="23450" width="500" height="100" rx="0" />
<rect x="34500" y="22450" width="500" height="100" rx="0" />
</g>
<g style="fill:#840000; fill-opacity:0.0; 
stroke:#840000; stroke-width:100; stroke-opacity:1; 
stroke-linecap:round; stroke-linejoin:round;">
<rect x="34500" y="22000" width="1000" height="2000" rx="0" />
</g>
<g style="fill:#840000; fill-opacity:0.0; 
stroke:#840000; stroke-width:60; stroke-opacity:1; 
stroke-linecap:round; stroke-linejoin:round;">
<path d="M34500 22500
L33000 22500
" />
<text x="33750" y="22400"
textLength="540" font-size="660" lengthAdjust="spacingAndGlyphs"
text-anchor="middle" opacity="0">1</text>
<path d="M33890 22370
L33600 22370
" />
<path d="M33750 22370
L33750 21870
L33700 21940
L33650 21990
L33600 22010
" />
<path d="M34500 23500
L33000 23500
" />
<text x="33750" y="23400"
textLength="540" font-size="660" lengthAdjust="spacingAndGlyphs"
text-anchor="middle" opacity="0">2</text>
<path d="M33600 22920
L33630 22900
L33670 22870
L33790 22870
L33840 22900
L33860 22920
L33890 22970
L33890 23010
L33860 23090
L33580 23370
L33890 23370
" />
</g>
<g style="fill:#008484; fill-opacity:0.0; 
stroke:#008484; stroke-width:60; stroke-opacity:1; 
stroke-linecap:round; stroke-linejoin:round;">
<text x="34960" y="21770"
textLength="920" font-size="660" lengthAdjust="spacingAndGlyphs"
text-anchor="middle" opacity="0">J5</text>
<path d="M34790 21240
L34790 21600
L34760 21670
L34720 21720
L34650 21740
L34600 21740
" />
<path d="M35260 21240
L35030 21240
L35000 21480
L35030 21460
L35070 21430
L35190 21430
L35240 21460
L35260 21480
L35290 21530
L35290 21650
L35260 21690
L35240 21720
L35190 21740
L35070 21740
L35030 21720
L35000 21690
" />
</g>
<g style="fill:#008484; fill-opacity:0.0; 
stroke:#008484; stroke-width:240; stroke-opacity:1; 
stroke-linecap:round; stroke-linejoin:round;">
<text x="37830" y="23630"
textLength="3660" font-size="1570" lengthAdjust="spacingAndGlyphs"
text-anchor="middle" opacity="0">+5V</text>
<path d="M36310 23120
L37210 23120
" />
<path d="M36760 23570
L36760 22670
" />
<path d="M38330 22390
L37770 22390
L37710 22950
L37770 22890
L37880 22840
L38160 22840
L38270 22890
L38330 22950
L38390 23060
L38390 23340
L38330 23460
L38270 23510
L38160 23570
L37880 23570
L37770 23510
L37710 23460
" />
<path d="M38720 22390
L39120 23570
L39510 22390
" />
</g>
</g>
<g style="fill:#008484; fill-opacity:0.0; 
stroke:#008484; stroke-width:60; stroke-opacity:1; 
stroke-linecap:round; stroke-linejoin:round;">
</g>
<g style="fill:#008400; fill-opacity:0.0; 
stroke:#008400; stroke-width:60; stroke-opacity:1; 
stroke-linecap:round; stroke-linejoin:round;">
<path d="M33000 29500
L32500 29500
" />
<path d="M32500 26500
L33000 26500
" />
<path d="M28000 25500
L28500 25500
" />
<path d="M28000 23500
L28500 23500
" />
<path d="M32500 24500
L32500 26500
" />
<path d="M28000 24500
L32500 24500
" />
<path d="M28000 26500
L32500 26500
" />
<path d="M24000 17500
L32500 17500
" />
<path d="M32500 23500
L32500 24500
" />
<path d="M32500 26500
L32500 29500
" />
<path d="M32500 29500
L25500 29500
" />
<path d="M28500 24000
L28500 23500
" />
<path d="M28500 25500
L28500 28500
" />
<path d="M28500 28500
L33000 28500
" />
<path d="M29000 25500
L29000 24000
" />
<path d="M29000 24000
L28500 24000
" />
<path d="M29000 25500
L33000 25500
" />
<path d="M24000 28500
L24000 29500
" />
<path d="M25500 29500
L25500 28500
" />
<path d="M25500 29500
L24000 29500
" />
<path d="M29000 19500
L29000 21500
" />
<path d="M28000 13500
L28000 19500
" />
<path d="M33000 14500
L32500 14500
" />
<path d="M33000 20500
L32500 20500
" />
<path d="M33000 13500
L28000 13500
" />
<path d="M33000 16500
L28500 16500
" />
<path d="M28500 16500
L28500 20500
" />
<path d="M28000 21500
L29000 21500
" />
<path d="M33000 19500
L29000 19500
" />
<path d="M33000 17500
L32500 17500
" />
<path d="M32500 14500
L32500 17500
" />
<path d="M28000 20500
L28500 20500
" />
<path d="M32500 17500
L32500 20500
" />
<path d="M33000 23500
L32500 23500
" />
<path d="M28000 22500
L33000 22500
" />
<path d="M32500 20500
L32500 23500
" />
</g>
<g style="fill:#008400; fill-opacity:0.0; 
stroke:#008400; stroke-width:240; stroke-opacity:1; 
stroke-linecap:round; stroke-linejoin:round;">
</g>
<g style="fill:#0000C2; fill-opacity:0.0; 
stroke:#0000C2; stroke-width:240; stroke-opacity:1; 
stroke-linecap:round; stroke-linejoin:round;">
<text x="15500" y="15810"
textLength="12670" font-size="1570" lengthAdjust="spacingAndGlyphs"
text-anchor="start" opacity="0">Liaison filaire</text>
<path d="M16490 15750
L15930 15750
L15930 14570
" />
<path d="M16890 15750
L16890 14960
" />
<path d="M16890 14570
L16830 14630
L16890 14680
L16940 14630
L16890 14570
L16890 14680
" />
<path d="M17950 15750
L17950 15130
L17900 15020
L17790 14960
L17560 14960
L17450 15020
" />
<path d="M17950 15690
L17840 15750
L17560 15750
L17450 15690
L17390 15580
L17390 15470
L17450 15360
L17560 15300
L17840 15300
L17950 15240
" />
<path d="M18520 15750
L18520 14960
" />
<path d="M18520 14570
L18460 14630
L18520 14680
L18570 14630
L18520 14570
L18520 14680
" />
<path d="M19020 15690
L19130 15750
L19360 15750
L19470 15690
L19530 15580
L19530 15520
L19470 15410
L19360 15360
L19190 15360
L19080 15300
L19020 15190
L19020 15130
L19080 15020
L19190 14960
L19360 14960
L19470 15020
" />
<path d="M20200 15750
L20090 15690
L20030 15640
L19980 15520
L19980 15190
L20030 15070
L20090 15020
L20200 14960
L20370 14960
L20480 15020
L20540 15070
L20600 15190
L20600 15520
L20540 15640
L20480 15690
L20370 15750
L20200 15750
" />
<path d="M21100 14960
L21100 15750
" />
<path d="M21100 15070
L21160 15020
L21270 14960
L21440 14960
L21550 15020
L21610 15130
L21610 15750
" />
<path d="M22900 14960
L23350 14960
" />
<path d="M23070 15750
L23070 14740
L23120 14630
L23240 14570
L23350 14570
" />
<path d="M23740 15750
L23740 14960
" />
<path d="M23740 14570
L23690 14630
L23740 14680
L23800 14630
L23740 14570
L23740 14680
" />
<path d="M24470 15750
L24360 15690
L24300 15580
L24300 14570
" />
<path d="M25430 15750
L25430 15130
L25370 15020
L25260 14960
L25030 14960
L24920 15020
" />
<path d="M25430 15690
L25320 15750
L25030 15750
L24920 15690
L24870 15580
L24870 15470
L24920 15360
L25030 15300
L25320 15300
L25430 15240
" />
<path d="M25990 15750
L25990 14960
" />
<path d="M25990 14570
L25930 14630
L25990 14680
L26050 14630
L25990 14570
L25990 14680
" />
<path d="M26550 15750
L26550 14960
" />
<path d="M26550 15190
L26610 15070
L26660 15020
L26780 14960
L26890 14960
" />
<path d="M27730 15690
L27620 15750
L27390 15750
L27280 15690
L27230 15580
L27230 15130
L27280 15020
L27390 14960
L27620 14960
L27730 15020
L27790 15130
L27790 15240
L27230 15360
" />
<text x="15500" y="23310"
textLength="4640" font-size="1570" lengthAdjust="spacingAndGlyphs"
text-anchor="start" opacity="0">RJ45</text>
<path d="M16610 23250
L16210 22690
" />
<path d="M15930 23250
L15930 22070
L16380 22070
L16490 22130
L16550 22180
L16610 22290
L16610 22460
L16550 22570
L16490 22630
L16380 22690
L15930 22690
" />
<path d="M17450 22070
L17450 22910
L17390 23080
L17280 23190
L17110 23250
L17000 23250
" />
<path d="M18520 22460
L18520 23250
" />
<path d="M18240 22010
L17950 22860
L18690 22860
" />
<path d="M19700 22070
L19130 22070
L19080 22630
L19130 22570
L19250 22520
L19530 22520
L19640 22570
L19700 22630
L19750 22740
L19750 23020
L19700 23140
L19640 23190
L19530 23250
L19250 23250
L19130 23190
L19080 23140
" />
</g>
<g style="fill:#0000C2; fill-opacity:0.0; 
stroke:#0000C2; stroke-width:0; stroke-opacity:1; 
stroke-linecap:round; stroke-linejoin:round;">
</g>
<g style="fill:#008400; fill-opacity:0.0; 
stroke:#008400; stroke-width:0; stroke-opacity:1; 
stroke-linecap:round; stroke-linejoin:round;">
</g>
<g style="fill:#008400; fill-opacity:1.0; 
stroke:#008400; stroke-width:100; stroke-opacity:1; 
stroke-linecap:round; stroke-linejoin:round;">
<circle cx="28500" cy="23500" r="200" /> 
</g>
<g style="fill:#008400; fill-opacity:1.0; 
stroke:#008400; stroke-width:0; stroke-opacity:1; 
stroke-linecap:round; stroke-linejoin:round;">
</g>
<g style="fill:#008400; fill-opacity:1.0; 
stroke:#008400; stroke-width:100; stroke-opacity:1; 
stroke-linecap:round; stroke-linejoin:round;">
<circle cx="32500" cy="29500" r="200" /> 
</g>
<g style="fill:#008400; fill-opacity:1.0; 
stroke:#008400; stroke-width:0; stroke-opacity:1; 
stroke-linecap:round; stroke-linejoin:round;">
</g>
<g style="fill:#008400; fill-opacity:1.0; 
stroke:#008400; stroke-width:100; stroke-opacity:1; 
stroke-linecap:round; stroke-linejoin:round;">
<circle cx="32500" cy="17500" r="200" /> 
</g>
<g style="fill:#008400; fill-opacity:1.0; 
stroke:#008400; stroke-width:0; stroke-opacity:1; 
stroke-linecap:round; stroke-linejoin:round;">
</g>
<g style="fill:#008400; fill-opacity:1.0; 
stroke:#008400; stroke-width:100; stroke-opacity:1; 
stroke-linecap:round; stroke-linejoin:round;">
<circle cx="32500" cy="24500" r="200" /> 
</g>
<g style="fill:#008400; fill-opacity:1.0; 
stroke:#008400; stroke-width:0; stroke-opacity:1; 
stroke-linecap:round; stroke-linejoin:round;">
</g>
<g style="fill:#008400; fill-opacity:1.0; 
stroke:#008400; stroke-width:100; stroke-opacity:1; 
stroke-linecap:round; stroke-linejoin:round;">
<circle cx="25500" cy="29500" r="200" /> 
</g>
<g style="fill:#008400; fill-opacity:1.0; 
stroke:#008400; stroke-width:0; stroke-opacity:1; 
stroke-linecap:round; stroke-linejoin:round;">
</g>
<g style="fill:#008400; fill-opacity:1.0; 
stroke:#008400; stroke-width:100; stroke-opacity:1; 
stroke-linecap:round; stroke-linejoin:round;">
<circle cx="32500" cy="20500" r="200" /> 
</g>
<g style="fill:#008400; fill-opacity:1.0; 
stroke:#008400; stroke-width:0; stroke-opacity:1; 
stroke-linecap:round; stroke-linejoin:round;">
</g>
<g style="fill:#008400; fill-opacity:1.0; 
stroke:#008400; stroke-width:100; stroke-opacity:1; 
stroke-linecap:round; stroke-linejoin:round;">
<circle cx="32500" cy="23500" r="200" /> 
</g>
<g style="fill:#008400; fill-opacity:1.0; 
stroke:#008400; stroke-width:0; stroke-opacity:1; 
stroke-linecap:round; stroke-linejoin:round;">
</g>
<g style="fill:#008400; fill-opacity:1.0; 
stroke:#008400; stroke-width:100; stroke-opacity:1; 
stroke-linecap:round; stroke-linejoin:round;">
<circle cx="32500" cy="26500" r="200" /> 
</g> 
</svg>
