  0
SECTION
  2
HEADER
  9
$ANGBASE
  50
0.0
  9
$ANGDIR
  70
1
  9
$MEASUREMENT
  70
0
  0
ENDSEC
  0
SECTION
  2
TABLES
  0
TABLE
  2
LTYPE
  70
4
  0
LTYPE
  5
40F
  2
CONTINUOUS
  70
0
  3
Solid line
  72
65
  73
0
  40
0.0
  0
LTYPE
  5
410
  2
DASHDOT
 70
0
  3
Dash Dot ____ _ ____ _
 72
65
 73
4
 40
2.0
 49
1.25
 49
-0.25
 49
0.25
 49
-0.25
  0
LTYPE
  5
411
  2
DASHED
 70
0
  3
Dashed __ __ __ __ __
 72
65
 73
2
 40
0.75
 49
0.5
 49
-0.25
  0
LTYPE
  5
43B
  2
DOTTED
 70
0
  3
Dotted .  .  .  .
 72
65
 73
2
 40
0.2
 49
0.0
 49
-0.2
  0
ENDTAB
  0
TABLE
  2
STYLE
  70
4
  0
STYLE
  2
KICAD
  70
0
  40
0
  41
1
  42
1
  50
0
  71
0
  3
isocp.shx
  0
STYLE
  2
KICADB
  70
0
  40
0
  41
1
  42
1
  50
0
  71
0
  3
isocp.shx
  0
STYLE
  2
KICADI
  70
0
  40
0
  41
1
  42
1
  50
15
  71
0
  3
isocp.shx
  0
STYLE
  2
KICADBI
  70
0
  40
0
  41
1
  42
1
  50
15
  71
0
  3
isocp.shx
  0
ENDTAB
  0
TABLE
  2
LAYER
  70
1
  0
LAYER
  2
BLACK
  70
0
  62
7
  6
CONTINUOUS
  0
ENDTAB
  0
ENDSEC
  0
SECTION
  2
ENTITIES
0
LINE
8
BLACK
6
CONTINUOUS
10
2.9
20
-5.80099
11
2.89981
21
-5.80097
0
LINE
8
BLACK
6
CONTINUOUS
10
2.89981
20
-5.80097
11
2.89962
21
-5.80091
0
LINE
8
BLACK
6
CONTINUOUS
10
2.89962
20
-5.80091
11
2.89945
21
-5.80082
0
LINE
8
BLACK
6
CONTINUOUS
10
2.89945
20
-5.80082
11
2.8993
21
-5.8007
0
LINE
8
BLACK
6
CONTINUOUS
10
2.8993
20
-5.8007
11
2.89918
21
-5.80055
0
LINE
8
BLACK
6
CONTINUOUS
10
2.89918
20
-5.80055
11
2.89909
21
-5.80038
0
LINE
8
BLACK
6
CONTINUOUS
10
2.89909
20
-5.80038
11
2.89903
21
-5.80019
0
LINE
8
BLACK
6
CONTINUOUS
10
2.89903
20
-5.80019
11
2.89901
21
-5.8
0
LINE
8
BLACK
6
CONTINUOUS
10
2.89901
20
-5.8
11
2.89902
21
-5.79995
0
LINE
8
BLACK
6
CONTINUOUS
10
2.89902
20
-5.79995
11
2.89902
21
-5.70005
0
LINE
8
BLACK
6
CONTINUOUS
10
2.89902
20
-5.70005
11
2.89902
21
-5.70005
0
LINE
8
BLACK
6
CONTINUOUS
10
2.89902
20
-5.70005
11
2.89902
21
-3.40005
0
LINE
8
BLACK
6
CONTINUOUS
10
2.89902
20
-3.40005
11
2.89902
21
-3.40005
0
LINE
8
BLACK
6
CONTINUOUS
10
2.89902
20
-3.40005
11
2.89902
21
-3.30005
0
LINE
8
BLACK
6
CONTINUOUS
10
2.89902
20
-3.30005
11
2.89901
21
-3.3
0
LINE
8
BLACK
6
CONTINUOUS
10
2.89901
20
-3.3
11
2.89903
21
-3.29981
0
LINE
8
BLACK
6
CONTINUOUS
10
2.89903
20
-3.29981
11
2.89909
21
-3.29962
0
LINE
8
BLACK
6
CONTINUOUS
10
2.89909
20
-3.29962
11
2.89918
21
-3.29945
0
LINE
8
BLACK
6
CONTINUOUS
10
2.89918
20
-3.29945
11
2.8993
21
-3.2993
0
LINE
8
BLACK
6
CONTINUOUS
10
2.8993
20
-3.2993
11
2.89945
21
-3.29918
0
LINE
8
BLACK
6
CONTINUOUS
10
2.89945
20
-3.29918
11
2.89962
21
-3.29909
0
LINE
8
BLACK
6
CONTINUOUS
10
2.89962
20
-3.29909
11
2.89981
21
-3.29903
0
LINE
8
BLACK
6
CONTINUOUS
10
2.89981
20
-3.29903
11
2.89995
21
-3.29902
0
LINE
8
BLACK
6
CONTINUOUS
10
2.89995
20
-3.29902
11
2.89995
21
-3.29902
0
LINE
8
BLACK
6
CONTINUOUS
10
2.89995
20
-3.29902
11
2.9
21
-3.29901
0
LINE
8
BLACK
6
CONTINUOUS
10
2.9
20
-3.29901
11
2.90005
21
-3.29902
0
LINE
8
BLACK
6
CONTINUOUS
10
2.90005
20
-3.29902
11
4.29995
21
-3.29902
0
LINE
8
BLACK
6
CONTINUOUS
10
4.29995
20
-3.29902
11
4.3
21
-3.29901
0
LINE
8
BLACK
6
CONTINUOUS
10
4.3
20
-3.29901
11
4.30005
21
-3.29902
0
LINE
8
BLACK
6
CONTINUOUS
10
4.30005
20
-3.29902
11
4.30005
21
-3.29902
0
LINE
8
BLACK
6
CONTINUOUS
10
4.30005
20
-3.29902
11
4.30019
21
-3.29903
0
LINE
8
BLACK
6
CONTINUOUS
10
4.30019
20
-3.29903
11
4.30038
21
-3.29909
0
LINE
8
BLACK
6
CONTINUOUS
10
4.30038
20
-3.29909
11
4.30055
21
-3.29918
0
LINE
8
BLACK
6
CONTINUOUS
10
4.30055
20
-3.29918
11
4.3007
21
-3.2993
0
LINE
8
BLACK
6
CONTINUOUS
10
4.3007
20
-3.2993
11
4.30082
21
-3.29945
0
LINE
8
BLACK
6
CONTINUOUS
10
4.30082
20
-3.29945
11
4.30091
21
-3.29962
0
LINE
8
BLACK
6
CONTINUOUS
10
4.30091
20
-3.29962
11
4.30097
21
-3.29981
0
LINE
8
BLACK
6
CONTINUOUS
10
4.30097
20
-3.29981
11
4.30099
21
-3.3
0
LINE
8
BLACK
6
CONTINUOUS
10
4.30099
20
-3.3
11
4.30098
21
-3.30005
0
LINE
8
BLACK
6
CONTINUOUS
10
4.30098
20
-3.30005
11
4.30098
21
-5.79995
0
LINE
8
BLACK
6
CONTINUOUS
10
4.30098
20
-5.79995
11
4.30099
21
-5.8
0
LINE
8
BLACK
6
CONTINUOUS
10
4.30099
20
-5.8
11
4.30098
21
-5.80005
0
LINE
8
BLACK
6
CONTINUOUS
10
4.30098
20
-5.80005
11
4.30098
21
-5.80005
0
LINE
8
BLACK
6
CONTINUOUS
10
4.30098
20
-5.80005
11
4.30097
21
-5.80019
0
LINE
8
BLACK
6
CONTINUOUS
10
4.30097
20
-5.80019
11
4.30091
21
-5.80038
0
LINE
8
BLACK
6
CONTINUOUS
10
4.30091
20
-5.80038
11
4.30082
21
-5.80055
0
LINE
8
BLACK
6
CONTINUOUS
10
4.30082
20
-5.80055
11
4.3007
21
-5.8007
0
LINE
8
BLACK
6
CONTINUOUS
10
4.3007
20
-5.8007
11
4.30055
21
-5.80082
0
LINE
8
BLACK
6
CONTINUOUS
10
4.30055
20
-5.80082
11
4.30038
21
-5.80091
0
LINE
8
BLACK
6
CONTINUOUS
10
4.30038
20
-5.80091
11
4.30019
21
-5.80097
0
LINE
8
BLACK
6
CONTINUOUS
10
4.30019
20
-5.80097
11
4.3
21
-5.80099
0
LINE
8
BLACK
6
CONTINUOUS
10
4.3
20
-5.80099
11
4.29995
21
-5.80098
0
LINE
8
BLACK
6
CONTINUOUS
10
4.29995
20
-5.80098
11
2.90005
21
-5.80098
0
LINE
8
BLACK
6
CONTINUOUS
10
2.90005
20
-5.80098
11
2.9
21
-5.80099
0
LINE
8
BLACK
6
CONTINUOUS
10
4.29902
20
-5.79902
11
4.29902
21
-3.30098
0
LINE
8
BLACK
6
CONTINUOUS
10
4.29902
20
-3.30098
11
2.90098
21
-3.30098
0
LINE
8
BLACK
6
CONTINUOUS
10
2.90098
20
-3.30098
11
2.90098
21
-5.79902
0
LINE
8
BLACK
6
CONTINUOUS
10
2.90098
20
-5.79902
11
4.29902
21
-5.79902
0
LINE
8
BLACK
6
CONTINUOUS
10
4.08802
20
-5.6312
11
4.09288
21
-5.61947
0
LINE
8
BLACK
6
CONTINUOUS
10
4.09288
20
-5.61947
11
4.09994
21
-5.60891
0
LINE
8
BLACK
6
CONTINUOUS
10
4.09994
20
-5.60891
11
4.10891
21
-5.59994
0
LINE
8
BLACK
6
CONTINUOUS
10
4.10891
20
-5.59994
11
4.11947
21
-5.59288
0
LINE
8
BLACK
6
CONTINUOUS
10
4.11947
20
-5.59288
11
4.1312
21
-5.58802
0
LINE
8
BLACK
6
CONTINUOUS
10
4.1312
20
-5.58802
11
4.14365
21
-5.58555
0
LINE
8
BLACK
6
CONTINUOUS
10
4.14365
20
-5.58555
11
4.15635
21
-5.58555
0
LINE
8
BLACK
6
CONTINUOUS
10
4.15635
20
-5.58555
11
4.1688
21
-5.58802
0
LINE
8
BLACK
6
CONTINUOUS
10
4.1688
20
-5.58802
11
4.18053
21
-5.59288
0
LINE
8
BLACK
6
CONTINUOUS
10
4.18053
20
-5.59288
11
4.19109
21
-5.59994
0
LINE
8
BLACK
6
CONTINUOUS
10
4.19109
20
-5.59994
11
4.20006
21
-5.60891
0
LINE
8
BLACK
6
CONTINUOUS
10
4.20006
20
-5.60891
11
4.20712
21
-5.61947
0
LINE
8
BLACK
6
CONTINUOUS
10
4.20712
20
-5.61947
11
4.21198
21
-5.6312
0
LINE
8
BLACK
6
CONTINUOUS
10
4.21198
20
-5.6312
11
4.21445
21
-5.64365
0
LINE
8
BLACK
6
CONTINUOUS
10
4.21445
20
-5.64365
11
4.21445
21
-5.65635
0
LINE
8
BLACK
6
CONTINUOUS
10
4.21445
20
-5.65635
11
4.21198
21
-5.6688
0
LINE
8
BLACK
6
CONTINUOUS
10
4.21198
20
-5.6688
11
4.20712
21
-5.68053
0
LINE
8
BLACK
6
CONTINUOUS
10
4.20712
20
-5.68053
11
4.20006
21
-5.69109
0
LINE
8
BLACK
6
CONTINUOUS
10
4.20006
20
-5.69109
11
4.19109
21
-5.70006
0
LINE
8
BLACK
6
CONTINUOUS
10
4.19109
20
-5.70006
11
4.18053
21
-5.70712
0
LINE
8
BLACK
6
CONTINUOUS
10
4.18053
20
-5.70712
11
4.1688
21
-5.71198
0
LINE
8
BLACK
6
CONTINUOUS
10
4.1688
20
-5.71198
11
4.15635
21
-5.71445
0
LINE
8
BLACK
6
CONTINUOUS
10
4.15635
20
-5.71445
11
4.14365
21
-5.71445
0
LINE
8
BLACK
6
CONTINUOUS
10
4.14365
20
-5.71445
11
4.1312
21
-5.71198
0
LINE
8
BLACK
6
CONTINUOUS
10
4.1312
20
-5.71198
11
4.11947
21
-5.70712
0
LINE
8
BLACK
6
CONTINUOUS
10
4.11947
20
-5.70712
11
4.10891
21
-5.70006
0
LINE
8
BLACK
6
CONTINUOUS
10
4.10891
20
-5.70006
11
4.09994
21
-5.69109
0
LINE
8
BLACK
6
CONTINUOUS
10
4.09994
20
-5.69109
11
4.09288
21
-5.68053
0
LINE
8
BLACK
6
CONTINUOUS
10
4.09288
20
-5.68053
11
4.08802
21
-5.6688
0
LINE
8
BLACK
6
CONTINUOUS
10
4.08802
20
-5.6688
11
4.08555
21
-5.65635
0
LINE
8
BLACK
6
CONTINUOUS
10
4.08555
20
-5.65635
11
4.08555
21
-5.64365
0
LINE
8
BLACK
6
CONTINUOUS
10
4.08555
20
-5.64365
11
4.08802
21
-5.6312
0
LINE
8
BLACK
6
CONTINUOUS
10
4.09066
20
-5.668
11
4.09531
21
-5.67923
0
LINE
8
BLACK
6
CONTINUOUS
10
4.09531
20
-5.67923
11
4.10207
21
-5.68934
0
LINE
8
BLACK
6
CONTINUOUS
10
4.10207
20
-5.68934
11
4.11066
21
-5.69793
0
LINE
8
BLACK
6
CONTINUOUS
10
4.11066
20
-5.69793
11
4.12077
21
-5.70469
0
LINE
8
BLACK
6
CONTINUOUS
10
4.12077
20
-5.70469
11
4.132
21
-5.70934
0
LINE
8
BLACK
6
CONTINUOUS
10
4.132
20
-5.70934
11
4.14392
21
-5.71171
0
LINE
8
BLACK
6
CONTINUOUS
10
4.14392
20
-5.71171
11
4.15608
21
-5.71171
0
LINE
8
BLACK
6
CONTINUOUS
10
4.15608
20
-5.71171
11
4.168
21
-5.70934
0
LINE
8
BLACK
6
CONTINUOUS
10
4.168
20
-5.70934
11
4.17923
21
-5.70469
0
LINE
8
BLACK
6
CONTINUOUS
10
4.17923
20
-5.70469
11
4.18934
21
-5.69793
0
LINE
8
BLACK
6
CONTINUOUS
10
4.18934
20
-5.69793
11
4.19793
21
-5.68934
0
LINE
8
BLACK
6
CONTINUOUS
10
4.19793
20
-5.68934
11
4.20469
21
-5.67923
0
LINE
8
BLACK
6
CONTINUOUS
10
4.20469
20
-5.67923
11
4.20934
21
-5.668
0
LINE
8
BLACK
6
CONTINUOUS
10
4.20934
20
-5.668
11
4.21171
21
-5.65608
0
LINE
8
BLACK
6
CONTINUOUS
10
4.21171
20
-5.65608
11
4.21171
21
-5.64392
0
LINE
8
BLACK
6
CONTINUOUS
10
4.21171
20
-5.64392
11
4.20934
21
-5.632
0
LINE
8
BLACK
6
CONTINUOUS
10
4.20934
20
-5.632
11
4.20469
21
-5.62077
0
LINE
8
BLACK
6
CONTINUOUS
10
4.20469
20
-5.62077
11
4.19793
21
-5.61066
0
LINE
8
BLACK
6
CONTINUOUS
10
4.19793
20
-5.61066
11
4.18934
21
-5.60207
0
LINE
8
BLACK
6
CONTINUOUS
10
4.18934
20
-5.60207
11
4.17923
21
-5.59531
0
LINE
8
BLACK
6
CONTINUOUS
10
4.17923
20
-5.59531
11
4.168
21
-5.59066
0
LINE
8
BLACK
6
CONTINUOUS
10
4.168
20
-5.59066
11
4.15608
21
-5.58829
0
LINE
8
BLACK
6
CONTINUOUS
10
4.15608
20
-5.58829
11
4.14392
21
-5.58829
0
LINE
8
BLACK
6
CONTINUOUS
10
4.14392
20
-5.58829
11
4.132
21
-5.59066
0
LINE
8
BLACK
6
CONTINUOUS
10
4.132
20
-5.59066
11
4.12077
21
-5.59531
0
LINE
8
BLACK
6
CONTINUOUS
10
4.12077
20
-5.59531
11
4.11066
21
-5.60207
0
LINE
8
BLACK
6
CONTINUOUS
10
4.11066
20
-5.60207
11
4.10207
21
-5.61066
0
LINE
8
BLACK
6
CONTINUOUS
10
4.10207
20
-5.61066
11
4.09531
21
-5.62077
0
LINE
8
BLACK
6
CONTINUOUS
10
4.09531
20
-5.62077
11
4.09066
21
-5.632
0
LINE
8
BLACK
6
CONTINUOUS
10
4.09066
20
-5.632
11
4.08829
21
-5.64392
0
LINE
8
BLACK
6
CONTINUOUS
10
4.08829
20
-5.64392
11
4.08829
21
-5.65608
0
LINE
8
BLACK
6
CONTINUOUS
10
4.08829
20
-5.65608
11
4.09066
21
-5.668
0
LINE
8
BLACK
6
CONTINUOUS
10
2.98802
20
-5.6312
11
2.99288
21
-5.61947
0
LINE
8
BLACK
6
CONTINUOUS
10
2.99288
20
-5.61947
11
2.99994
21
-5.60891
0
LINE
8
BLACK
6
CONTINUOUS
10
2.99994
20
-5.60891
11
3.00891
21
-5.59994
0
LINE
8
BLACK
6
CONTINUOUS
10
3.00891
20
-5.59994
11
3.01947
21
-5.59288
0
LINE
8
BLACK
6
CONTINUOUS
10
3.01947
20
-5.59288
11
3.0312
21
-5.58802
0
LINE
8
BLACK
6
CONTINUOUS
10
3.0312
20
-5.58802
11
3.04365
21
-5.58555
0
LINE
8
BLACK
6
CONTINUOUS
10
3.04365
20
-5.58555
11
3.05635
21
-5.58555
0
LINE
8
BLACK
6
CONTINUOUS
10
3.05635
20
-5.58555
11
3.0688
21
-5.58802
0
LINE
8
BLACK
6
CONTINUOUS
10
3.0688
20
-5.58802
11
3.08053
21
-5.59288
0
LINE
8
BLACK
6
CONTINUOUS
10
3.08053
20
-5.59288
11
3.09109
21
-5.59994
0
LINE
8
BLACK
6
CONTINUOUS
10
3.09109
20
-5.59994
11
3.10006
21
-5.60891
0
LINE
8
BLACK
6
CONTINUOUS
10
3.10006
20
-5.60891
11
3.10712
21
-5.61947
0
LINE
8
BLACK
6
CONTINUOUS
10
3.10712
20
-5.61947
11
3.11198
21
-5.6312
0
LINE
8
BLACK
6
CONTINUOUS
10
3.11198
20
-5.6312
11
3.11445
21
-5.64365
0
LINE
8
BLACK
6
CONTINUOUS
10
3.11445
20
-5.64365
11
3.11445
21
-5.65635
0
LINE
8
BLACK
6
CONTINUOUS
10
3.11445
20
-5.65635
11
3.11198
21
-5.6688
0
LINE
8
BLACK
6
CONTINUOUS
10
3.11198
20
-5.6688
11
3.10712
21
-5.68053
0
LINE
8
BLACK
6
CONTINUOUS
10
3.10712
20
-5.68053
11
3.10006
21
-5.69109
0
LINE
8
BLACK
6
CONTINUOUS
10
3.10006
20
-5.69109
11
3.09109
21
-5.70006
0
LINE
8
BLACK
6
CONTINUOUS
10
3.09109
20
-5.70006
11
3.08053
21
-5.70712
0
LINE
8
BLACK
6
CONTINUOUS
10
3.08053
20
-5.70712
11
3.0688
21
-5.71198
0
LINE
8
BLACK
6
CONTINUOUS
10
3.0688
20
-5.71198
11
3.05635
21
-5.71445
0
LINE
8
BLACK
6
CONTINUOUS
10
3.05635
20
-5.71445
11
3.04365
21
-5.71445
0
LINE
8
BLACK
6
CONTINUOUS
10
3.04365
20
-5.71445
11
3.0312
21
-5.71198
0
LINE
8
BLACK
6
CONTINUOUS
10
3.0312
20
-5.71198
11
3.01947
21
-5.70712
0
LINE
8
BLACK
6
CONTINUOUS
10
3.01947
20
-5.70712
11
3.00891
21
-5.70006
0
LINE
8
BLACK
6
CONTINUOUS
10
3.00891
20
-5.70006
11
2.99994
21
-5.69109
0
LINE
8
BLACK
6
CONTINUOUS
10
2.99994
20
-5.69109
11
2.99288
21
-5.68053
0
LINE
8
BLACK
6
CONTINUOUS
10
2.99288
20
-5.68053
11
2.98802
21
-5.6688
0
LINE
8
BLACK
6
CONTINUOUS
10
2.98802
20
-5.6688
11
2.98555
21
-5.65635
0
LINE
8
BLACK
6
CONTINUOUS
10
2.98555
20
-5.65635
11
2.98555
21
-5.64365
0
LINE
8
BLACK
6
CONTINUOUS
10
2.98555
20
-5.64365
11
2.98802
21
-5.6312
0
LINE
8
BLACK
6
CONTINUOUS
10
2.99066
20
-5.668
11
2.99531
21
-5.67923
0
LINE
8
BLACK
6
CONTINUOUS
10
2.99531
20
-5.67923
11
3.00207
21
-5.68934
0
LINE
8
BLACK
6
CONTINUOUS
10
3.00207
20
-5.68934
11
3.01066
21
-5.69793
0
LINE
8
BLACK
6
CONTINUOUS
10
3.01066
20
-5.69793
11
3.02077
21
-5.70469
0
LINE
8
BLACK
6
CONTINUOUS
10
3.02077
20
-5.70469
11
3.032
21
-5.70934
0
LINE
8
BLACK
6
CONTINUOUS
10
3.032
20
-5.70934
11
3.04392
21
-5.71171
0
LINE
8
BLACK
6
CONTINUOUS
10
3.04392
20
-5.71171
11
3.05608
21
-5.71171
0
LINE
8
BLACK
6
CONTINUOUS
10
3.05608
20
-5.71171
11
3.068
21
-5.70934
0
LINE
8
BLACK
6
CONTINUOUS
10
3.068
20
-5.70934
11
3.07923
21
-5.70469
0
LINE
8
BLACK
6
CONTINUOUS
10
3.07923
20
-5.70469
11
3.08934
21
-5.69793
0
LINE
8
BLACK
6
CONTINUOUS
10
3.08934
20
-5.69793
11
3.09793
21
-5.68934
0
LINE
8
BLACK
6
CONTINUOUS
10
3.09793
20
-5.68934
11
3.10469
21
-5.67923
0
LINE
8
BLACK
6
CONTINUOUS
10
3.10469
20
-5.67923
11
3.10934
21
-5.668
0
LINE
8
BLACK
6
CONTINUOUS
10
3.10934
20
-5.668
11
3.11171
21
-5.65608
0
LINE
8
BLACK
6
CONTINUOUS
10
3.11171
20
-5.65608
11
3.11171
21
-5.64392
0
LINE
8
BLACK
6
CONTINUOUS
10
3.11171
20
-5.64392
11
3.10934
21
-5.632
0
LINE
8
BLACK
6
CONTINUOUS
10
3.10934
20
-5.632
11
3.10469
21
-5.62077
0
LINE
8
BLACK
6
CONTINUOUS
10
3.10469
20
-5.62077
11
3.09793
21
-5.61066
0
LINE
8
BLACK
6
CONTINUOUS
10
3.09793
20
-5.61066
11
3.08934
21
-5.60207
0
LINE
8
BLACK
6
CONTINUOUS
10
3.08934
20
-5.60207
11
3.07923
21
-5.59531
0
LINE
8
BLACK
6
CONTINUOUS
10
3.07923
20
-5.59531
11
3.068
21
-5.59066
0
LINE
8
BLACK
6
CONTINUOUS
10
3.068
20
-5.59066
11
3.05608
21
-5.58829
0
LINE
8
BLACK
6
CONTINUOUS
10
3.05608
20
-5.58829
11
3.04392
21
-5.58829
0
LINE
8
BLACK
6
CONTINUOUS
10
3.04392
20
-5.58829
11
3.032
21
-5.59066
0
LINE
8
BLACK
6
CONTINUOUS
10
3.032
20
-5.59066
11
3.02077
21
-5.59531
0
LINE
8
BLACK
6
CONTINUOUS
10
3.02077
20
-5.59531
11
3.01066
21
-5.60207
0
LINE
8
BLACK
6
CONTINUOUS
10
3.01066
20
-5.60207
11
3.00207
21
-5.61066
0
LINE
8
BLACK
6
CONTINUOUS
10
3.00207
20
-5.61066
11
2.99531
21
-5.62077
0
LINE
8
BLACK
6
CONTINUOUS
10
2.99531
20
-5.62077
11
2.99066
21
-5.632
0
LINE
8
BLACK
6
CONTINUOUS
10
2.99066
20
-5.632
11
2.98829
21
-5.64392
0
LINE
8
BLACK
6
CONTINUOUS
10
2.98829
20
-5.64392
11
2.98829
21
-5.65608
0
LINE
8
BLACK
6
CONTINUOUS
10
2.98829
20
-5.65608
11
2.99066
21
-5.668
0
LINE
8
BLACK
6
CONTINUOUS
10
4.08802
20
-3.4312
11
4.09288
21
-3.41947
0
LINE
8
BLACK
6
CONTINUOUS
10
4.09288
20
-3.41947
11
4.09994
21
-3.40891
0
LINE
8
BLACK
6
CONTINUOUS
10
4.09994
20
-3.40891
11
4.10891
21
-3.39994
0
LINE
8
BLACK
6
CONTINUOUS
10
4.10891
20
-3.39994
11
4.11947
21
-3.39288
0
LINE
8
BLACK
6
CONTINUOUS
10
4.11947
20
-3.39288
11
4.1312
21
-3.38802
0
LINE
8
BLACK
6
CONTINUOUS
10
4.1312
20
-3.38802
11
4.14365
21
-3.38555
0
LINE
8
BLACK
6
CONTINUOUS
10
4.14365
20
-3.38555
11
4.15635
21
-3.38555
0
LINE
8
BLACK
6
CONTINUOUS
10
4.15635
20
-3.38555
11
4.1688
21
-3.38802
0
LINE
8
BLACK
6
CONTINUOUS
10
4.1688
20
-3.38802
11
4.18053
21
-3.39288
0
LINE
8
BLACK
6
CONTINUOUS
10
4.18053
20
-3.39288
11
4.19109
21
-3.39994
0
LINE
8
BLACK
6
CONTINUOUS
10
4.19109
20
-3.39994
11
4.20006
21
-3.40891
0
LINE
8
BLACK
6
CONTINUOUS
10
4.20006
20
-3.40891
11
4.20712
21
-3.41947
0
LINE
8
BLACK
6
CONTINUOUS
10
4.20712
20
-3.41947
11
4.21198
21
-3.4312
0
LINE
8
BLACK
6
CONTINUOUS
10
4.21198
20
-3.4312
11
4.21445
21
-3.44365
0
LINE
8
BLACK
6
CONTINUOUS
10
4.21445
20
-3.44365
11
4.21445
21
-3.45635
0
LINE
8
BLACK
6
CONTINUOUS
10
4.21445
20
-3.45635
11
4.21198
21
-3.4688
0
LINE
8
BLACK
6
CONTINUOUS
10
4.21198
20
-3.4688
11
4.20712
21
-3.48053
0
LINE
8
BLACK
6
CONTINUOUS
10
4.20712
20
-3.48053
11
4.20006
21
-3.49109
0
LINE
8
BLACK
6
CONTINUOUS
10
4.20006
20
-3.49109
11
4.19109
21
-3.50006
0
LINE
8
BLACK
6
CONTINUOUS
10
4.19109
20
-3.50006
11
4.18053
21
-3.50712
0
LINE
8
BLACK
6
CONTINUOUS
10
4.18053
20
-3.50712
11
4.1688
21
-3.51198
0
LINE
8
BLACK
6
CONTINUOUS
10
4.1688
20
-3.51198
11
4.15635
21
-3.51445
0
LINE
8
BLACK
6
CONTINUOUS
10
4.15635
20
-3.51445
11
4.14365
21
-3.51445
0
LINE
8
BLACK
6
CONTINUOUS
10
4.14365
20
-3.51445
11
4.1312
21
-3.51198
0
LINE
8
BLACK
6
CONTINUOUS
10
4.1312
20
-3.51198
11
4.11947
21
-3.50712
0
LINE
8
BLACK
6
CONTINUOUS
10
4.11947
20
-3.50712
11
4.10891
21
-3.50006
0
LINE
8
BLACK
6
CONTINUOUS
10
4.10891
20
-3.50006
11
4.09994
21
-3.49109
0
LINE
8
BLACK
6
CONTINUOUS
10
4.09994
20
-3.49109
11
4.09288
21
-3.48053
0
LINE
8
BLACK
6
CONTINUOUS
10
4.09288
20
-3.48053
11
4.08802
21
-3.4688
0
LINE
8
BLACK
6
CONTINUOUS
10
4.08802
20
-3.4688
11
4.08555
21
-3.45635
0
LINE
8
BLACK
6
CONTINUOUS
10
4.08555
20
-3.45635
11
4.08555
21
-3.44365
0
LINE
8
BLACK
6
CONTINUOUS
10
4.08555
20
-3.44365
11
4.08802
21
-3.4312
0
LINE
8
BLACK
6
CONTINUOUS
10
4.09066
20
-3.468
11
4.09531
21
-3.47923
0
LINE
8
BLACK
6
CONTINUOUS
10
4.09531
20
-3.47923
11
4.10207
21
-3.48934
0
LINE
8
BLACK
6
CONTINUOUS
10
4.10207
20
-3.48934
11
4.11066
21
-3.49793
0
LINE
8
BLACK
6
CONTINUOUS
10
4.11066
20
-3.49793
11
4.12077
21
-3.50469
0
LINE
8
BLACK
6
CONTINUOUS
10
4.12077
20
-3.50469
11
4.132
21
-3.50934
0
LINE
8
BLACK
6
CONTINUOUS
10
4.132
20
-3.50934
11
4.14392
21
-3.51171
0
LINE
8
BLACK
6
CONTINUOUS
10
4.14392
20
-3.51171
11
4.15608
21
-3.51171
0
LINE
8
BLACK
6
CONTINUOUS
10
4.15608
20
-3.51171
11
4.168
21
-3.50934
0
LINE
8
BLACK
6
CONTINUOUS
10
4.168
20
-3.50934
11
4.17923
21
-3.50469
0
LINE
8
BLACK
6
CONTINUOUS
10
4.17923
20
-3.50469
11
4.18934
21
-3.49793
0
LINE
8
BLACK
6
CONTINUOUS
10
4.18934
20
-3.49793
11
4.19793
21
-3.48934
0
LINE
8
BLACK
6
CONTINUOUS
10
4.19793
20
-3.48934
11
4.20469
21
-3.47923
0
LINE
8
BLACK
6
CONTINUOUS
10
4.20469
20
-3.47923
11
4.20934
21
-3.468
0
LINE
8
BLACK
6
CONTINUOUS
10
4.20934
20
-3.468
11
4.21171
21
-3.45608
0
LINE
8
BLACK
6
CONTINUOUS
10
4.21171
20
-3.45608
11
4.21171
21
-3.44392
0
LINE
8
BLACK
6
CONTINUOUS
10
4.21171
20
-3.44392
11
4.20934
21
-3.432
0
LINE
8
BLACK
6
CONTINUOUS
10
4.20934
20
-3.432
11
4.20469
21
-3.42077
0
LINE
8
BLACK
6
CONTINUOUS
10
4.20469
20
-3.42077
11
4.19793
21
-3.41066
0
LINE
8
BLACK
6
CONTINUOUS
10
4.19793
20
-3.41066
11
4.18934
21
-3.40207
0
LINE
8
BLACK
6
CONTINUOUS
10
4.18934
20
-3.40207
11
4.17923
21
-3.39531
0
LINE
8
BLACK
6
CONTINUOUS
10
4.17923
20
-3.39531
11
4.168
21
-3.39066
0
LINE
8
BLACK
6
CONTINUOUS
10
4.168
20
-3.39066
11
4.15608
21
-3.38829
0
LINE
8
BLACK
6
CONTINUOUS
10
4.15608
20
-3.38829
11
4.14392
21
-3.38829
0
LINE
8
BLACK
6
CONTINUOUS
10
4.14392
20
-3.38829
11
4.132
21
-3.39066
0
LINE
8
BLACK
6
CONTINUOUS
10
4.132
20
-3.39066
11
4.12077
21
-3.39531
0
LINE
8
BLACK
6
CONTINUOUS
10
4.12077
20
-3.39531
11
4.11066
21
-3.40207
0
LINE
8
BLACK
6
CONTINUOUS
10
4.11066
20
-3.40207
11
4.10207
21
-3.41066
0
LINE
8
BLACK
6
CONTINUOUS
10
4.10207
20
-3.41066
11
4.09531
21
-3.42077
0
LINE
8
BLACK
6
CONTINUOUS
10
4.09531
20
-3.42077
11
4.09066
21
-3.432
0
LINE
8
BLACK
6
CONTINUOUS
10
4.09066
20
-3.432
11
4.08829
21
-3.44392
0
LINE
8
BLACK
6
CONTINUOUS
10
4.08829
20
-3.44392
11
4.08829
21
-3.45608
0
LINE
8
BLACK
6
CONTINUOUS
10
4.08829
20
-3.45608
11
4.09066
21
-3.468
0
LINE
8
BLACK
6
CONTINUOUS
10
2.98802
20
-3.41821
11
2.99288
21
-3.40648
0
LINE
8
BLACK
6
CONTINUOUS
10
2.99288
20
-3.40648
11
2.99994
21
-3.39592
0
LINE
8
BLACK
6
CONTINUOUS
10
2.99994
20
-3.39592
11
3.00891
21
-3.38694
0
LINE
8
BLACK
6
CONTINUOUS
10
3.00891
20
-3.38694
11
3.01947
21
-3.37989
0
LINE
8
BLACK
6
CONTINUOUS
10
3.01947
20
-3.37989
11
3.0312
21
-3.37503
0
LINE
8
BLACK
6
CONTINUOUS
10
3.0312
20
-3.37503
11
3.04365
21
-3.37256
0
LINE
8
BLACK
6
CONTINUOUS
10
3.04365
20
-3.37256
11
3.05635
21
-3.37256
0
LINE
8
BLACK
6
CONTINUOUS
10
3.05635
20
-3.37256
11
3.0688
21
-3.37503
0
LINE
8
BLACK
6
CONTINUOUS
10
3.0688
20
-3.37503
11
3.08053
21
-3.37989
0
LINE
8
BLACK
6
CONTINUOUS
10
3.08053
20
-3.37989
11
3.09109
21
-3.38694
0
LINE
8
BLACK
6
CONTINUOUS
10
3.09109
20
-3.38694
11
3.10006
21
-3.39592
0
LINE
8
BLACK
6
CONTINUOUS
10
3.10006
20
-3.39592
11
3.10712
21
-3.40648
0
LINE
8
BLACK
6
CONTINUOUS
10
3.10712
20
-3.40648
11
3.11198
21
-3.41821
0
LINE
8
BLACK
6
CONTINUOUS
10
3.11198
20
-3.41821
11
3.11445
21
-3.43066
0
LINE
8
BLACK
6
CONTINUOUS
10
3.11445
20
-3.43066
11
3.11445
21
-3.44336
0
LINE
8
BLACK
6
CONTINUOUS
10
3.11445
20
-3.44336
11
3.11198
21
-3.45581
0
LINE
8
BLACK
6
CONTINUOUS
10
3.11198
20
-3.45581
11
3.10712
21
-3.46754
0
LINE
8
BLACK
6
CONTINUOUS
10
3.10712
20
-3.46754
11
3.10006
21
-3.47809
0
LINE
8
BLACK
6
CONTINUOUS
10
3.10006
20
-3.47809
11
3.09109
21
-3.48707
0
LINE
8
BLACK
6
CONTINUOUS
10
3.09109
20
-3.48707
11
3.08053
21
-3.49412
0
LINE
8
BLACK
6
CONTINUOUS
10
3.08053
20
-3.49412
11
3.0688
21
-3.49898
0
LINE
8
BLACK
6
CONTINUOUS
10
3.0688
20
-3.49898
11
3.05635
21
-3.50146
0
LINE
8
BLACK
6
CONTINUOUS
10
3.05635
20
-3.50146
11
3.04365
21
-3.50146
0
LINE
8
BLACK
6
CONTINUOUS
10
3.04365
20
-3.50146
11
3.0312
21
-3.49898
0
LINE
8
BLACK
6
CONTINUOUS
10
3.0312
20
-3.49898
11
3.01947
21
-3.49412
0
LINE
8
BLACK
6
CONTINUOUS
10
3.01947
20
-3.49412
11
3.00891
21
-3.48707
0
LINE
8
BLACK
6
CONTINUOUS
10
3.00891
20
-3.48707
11
2.99994
21
-3.47809
0
LINE
8
BLACK
6
CONTINUOUS
10
2.99994
20
-3.47809
11
2.99288
21
-3.46754
0
LINE
8
BLACK
6
CONTINUOUS
10
2.99288
20
-3.46754
11
2.98802
21
-3.45581
0
LINE
8
BLACK
6
CONTINUOUS
10
2.98802
20
-3.45581
11
2.98555
21
-3.44336
0
LINE
8
BLACK
6
CONTINUOUS
10
2.98555
20
-3.44336
11
2.98555
21
-3.43066
0
LINE
8
BLACK
6
CONTINUOUS
10
2.98555
20
-3.43066
11
2.98802
21
-3.41821
0
LINE
8
BLACK
6
CONTINUOUS
10
2.99066
20
-3.45501
11
2.99531
21
-3.46624
0
LINE
8
BLACK
6
CONTINUOUS
10
2.99531
20
-3.46624
11
3.00207
21
-3.47635
0
LINE
8
BLACK
6
CONTINUOUS
10
3.00207
20
-3.47635
11
3.01066
21
-3.48494
0
LINE
8
BLACK
6
CONTINUOUS
10
3.01066
20
-3.48494
11
3.02077
21
-3.49169
0
LINE
8
BLACK
6
CONTINUOUS
10
3.02077
20
-3.49169
11
3.032
21
-3.49635
0
LINE
8
BLACK
6
CONTINUOUS
10
3.032
20
-3.49635
11
3.04392
21
-3.49872
0
LINE
8
BLACK
6
CONTINUOUS
10
3.04392
20
-3.49872
11
3.05608
21
-3.49872
0
LINE
8
BLACK
6
CONTINUOUS
10
3.05608
20
-3.49872
11
3.068
21
-3.49635
0
LINE
8
BLACK
6
CONTINUOUS
10
3.068
20
-3.49635
11
3.07923
21
-3.49169
0
LINE
8
BLACK
6
CONTINUOUS
10
3.07923
20
-3.49169
11
3.08934
21
-3.48494
0
LINE
8
BLACK
6
CONTINUOUS
10
3.08934
20
-3.48494
11
3.09793
21
-3.47635
0
LINE
8
BLACK
6
CONTINUOUS
10
3.09793
20
-3.47635
11
3.10469
21
-3.46624
0
LINE
8
BLACK
6
CONTINUOUS
10
3.10469
20
-3.46624
11
3.10934
21
-3.45501
0
LINE
8
BLACK
6
CONTINUOUS
10
3.10934
20
-3.45501
11
3.11171
21
-3.44309
0
LINE
8
BLACK
6
CONTINUOUS
10
3.11171
20
-3.44309
11
3.11171
21
-3.43093
0
LINE
8
BLACK
6
CONTINUOUS
10
3.11171
20
-3.43093
11
3.10934
21
-3.41901
0
LINE
8
BLACK
6
CONTINUOUS
10
3.10934
20
-3.41901
11
3.10469
21
-3.40778
0
LINE
8
BLACK
6
CONTINUOUS
10
3.10469
20
-3.40778
11
3.09793
21
-3.39767
0
LINE
8
BLACK
6
CONTINUOUS
10
3.09793
20
-3.39767
11
3.08934
21
-3.38908
0
LINE
8
BLACK
6
CONTINUOUS
10
3.08934
20
-3.38908
11
3.07923
21
-3.38232
0
LINE
8
BLACK
6
CONTINUOUS
10
3.07923
20
-3.38232
11
3.068
21
-3.37767
0
LINE
8
BLACK
6
CONTINUOUS
10
3.068
20
-3.37767
11
3.05608
21
-3.3753
0
LINE
8
BLACK
6
CONTINUOUS
10
3.05608
20
-3.3753
11
3.04392
21
-3.3753
0
LINE
8
BLACK
6
CONTINUOUS
10
3.04392
20
-3.3753
11
3.032
21
-3.37767
0
LINE
8
BLACK
6
CONTINUOUS
10
3.032
20
-3.37767
11
3.02077
21
-3.38232
0
LINE
8
BLACK
6
CONTINUOUS
10
3.02077
20
-3.38232
11
3.01066
21
-3.38908
0
LINE
8
BLACK
6
CONTINUOUS
10
3.01066
20
-3.38908
11
3.00207
21
-3.39767
0
LINE
8
BLACK
6
CONTINUOUS
10
3.00207
20
-3.39767
11
2.99531
21
-3.40778
0
LINE
8
BLACK
6
CONTINUOUS
10
2.99531
20
-3.40778
11
2.99066
21
-3.41901
0
LINE
8
BLACK
6
CONTINUOUS
10
2.99066
20
-3.41901
11
2.98829
21
-3.43093
0
LINE
8
BLACK
6
CONTINUOUS
10
2.98829
20
-3.43093
11
2.98829
21
-3.44309
0
LINE
8
BLACK
6
CONTINUOUS
10
2.98829
20
-3.44309
11
2.99066
21
-3.45501
  0
ENDSEC
  0
EOF
