<?xml version="1.0" encoding="UTF-8" standalone="no"?>
<svg
   xmlns:dc="http://purl.org/dc/elements/1.1/"
   xmlns:cc="http://creativecommons.org/ns#"
   xmlns:rdf="http://www.w3.org/1999/02/22-rdf-syntax-ns#"
   xmlns:svg="http://www.w3.org/2000/svg"
   xmlns="http://www.w3.org/2000/svg"
   xmlns:sodipodi="http://sodipodi.sourceforge.net/DTD/sodipodi-0.dtd"
   xmlns:inkscape="http://www.inkscape.org/namespaces/inkscape"
   version="1.1"
   width="29.700220cm"
   height="21.000720cm"
   viewBox="0 0 116930 82680"
   id="svg468"
   sodipodi:docname="e-r-wifi-lf-PTH-drl_map.svg"
   inkscape:version="0.92.3 (2405546, 2018-03-11)">
  <metadata
     id="metadata474">
    <rdf:RDF>
      <cc:Work
         rdf:about="">
        <dc:format>image/svg+xml</dc:format>
        <dc:type
           rdf:resource="http://purl.org/dc/dcmitype/StillImage" />
      </cc:Work>
    </rdf:RDF>
  </metadata>
  <defs
     id="defs472" />
  <sodipodi:namedview
     pagecolor="#ffffff"
     bordercolor="#666666"
     borderopacity="1"
     objecttolerance="10"
     gridtolerance="10"
     guidetolerance="10"
     inkscape:pageopacity="0"
     inkscape:pageshadow="2"
     inkscape:window-width="1853"
     inkscape:window-height="1025"
     id="namedview470"
     showgrid="false"
     inkscape:zoom="1.0230205"
     inkscape:cx="561.264"
     inkscape:cy="396.86398"
     inkscape:window-x="67"
     inkscape:window-y="27"
     inkscape:window-maximized="1"
     inkscape:current-layer="svg468" />
  <title
     id="title2">SVG Picture created as e-r-wifi-lf-PTH-drl_map.svg date 2021/12/09 14:27:03 </title>
  <desc
     id="desc4">Picture generated by PCBNEW </desc>
  <g
     style="fill:#000000; fill-opacity:1;stroke:#000000; stroke-opacity:1; stroke-linecap:round; stroke-linejoin:round;"
     transform="translate(0 0) scale(1 1)"
     id="g6" />
  <g
     style="fill:#000000; fill-opacity:0.0;  stroke:#000000; stroke-width:-0.000393701; stroke-opacity:1;  stroke-linecap:round; stroke-linejoin:round;"
     id="g8" />
  <g
     style="fill:#000000;fill-opacity:0;stroke:#000000;stroke-width:196.85040283;stroke-linecap:round;stroke-linejoin:round;stroke-miterlimit:4;stroke-dasharray:none;stroke-opacity:1"
     id="g38"
     inkscape:export-xdpi="163"
     inkscape:export-ydpi="163">
    <path
       d="M 65350,57500 H 64100"
       id="path10"
       inkscape:connector-curvature="0"
       style="stroke-width:196.85040283;stroke-miterlimit:4;stroke-dasharray:none" />
    <path
       d="M 65350,43500 H 64100"
       id="path12"
       inkscape:connector-curvature="0"
       style="stroke-width:196.85040283;stroke-miterlimit:4;stroke-dasharray:none" />
    <circle
       cx="63850"
       cy="45000"
       r="629.92102"
       id="circle14"
       style="stroke-width:196.85040283;stroke-miterlimit:4;stroke-dasharray:none" />
    <circle
       cx="63850"
       cy="56000"
       r="629.92102"
       id="circle16"
       style="stroke-width:196.85040283;stroke-miterlimit:4;stroke-dasharray:none" />
    <path
       d="M 65350,57500 V 43500"
       id="path18"
       inkscape:connector-curvature="0"
       style="stroke-width:196.85040283;stroke-miterlimit:4;stroke-dasharray:none" />
    <path
       d="m 37100,43500 h 2000"
       id="path20"
       inkscape:connector-curvature="0"
       style="stroke-width:196.85040283;stroke-miterlimit:4;stroke-dasharray:none" />
    <path
       d="M 37100,57500 V 43500"
       id="path22"
       inkscape:connector-curvature="0"
       style="stroke-width:196.85040283;stroke-miterlimit:4;stroke-dasharray:none" />
    <path
       d="M 39100,57500 H 37100"
       id="path24"
       inkscape:connector-curvature="0"
       style="stroke-width:196.85040283;stroke-miterlimit:4;stroke-dasharray:none" />
    <path
       d="M 64100,57500 H 39100"
       id="path26"
       inkscape:connector-curvature="0"
       style="stroke-width:196.85040283;stroke-miterlimit:4;stroke-dasharray:none" />
    <path
       d="m 63100,43500 h 1000"
       id="path28"
       inkscape:connector-curvature="0"
       style="stroke-width:196.85040283;stroke-miterlimit:4;stroke-dasharray:none" />
    <path
       d="m 39100,43500 h 1000"
       id="path30"
       inkscape:connector-curvature="0"
       style="stroke-width:196.85040283;stroke-miterlimit:4;stroke-dasharray:none" />
    <circle
       cx="38600"
       cy="56000"
       r="629.92102"
       id="circle32"
       style="stroke-width:196.85040283;stroke-miterlimit:4;stroke-dasharray:none" />
    <circle
       cx="38600"
       cy="45000"
       r="629.92102"
       id="circle34"
       style="stroke-width:196.85040283;stroke-miterlimit:4;stroke-dasharray:none" />
    <path
       d="M 40100,43500 H 63100"
       id="path36"
       inkscape:connector-curvature="0"
       style="stroke-width:196.85040283;stroke-miterlimit:4;stroke-dasharray:none" />
  </g>
  <g
     style="fill:#000000;fill-opacity:0;stroke:#000000;stroke-width:78.74019623;stroke-linecap:round;stroke-linejoin:round;stroke-opacity:1"
     id="g120"
     inkscape:export-xdpi="163"
     inkscape:export-ydpi="163">
    <path
       d="m 49450,49350 299,299"
       id="path40"
       inkscape:connector-curvature="0" />
    <path
       d="m 49749,49350 -299,299"
       id="path42"
       inkscape:connector-curvature="0" />
    <path
       d="m 49950,48350 299,299"
       id="path44"
       inkscape:connector-curvature="0" />
    <path
       d="m 50249,48350 -299,299"
       id="path46"
       inkscape:connector-curvature="0" />
    <path
       d="m 50450,49350 299,299"
       id="path48"
       inkscape:connector-curvature="0" />
    <path
       d="m 50749,49350 -299,299"
       id="path50"
       inkscape:connector-curvature="0" />
    <path
       d="m 50950,48350 299,299"
       id="path52"
       inkscape:connector-curvature="0" />
    <path
       d="m 51249,48350 -299,299"
       id="path54"
       inkscape:connector-curvature="0" />
    <path
       d="m 51450,49350 299,299"
       id="path56"
       inkscape:connector-curvature="0" />
    <path
       d="m 51749,49350 -299,299"
       id="path58"
       inkscape:connector-curvature="0" />
    <path
       d="m 51950,48350 299,299"
       id="path60"
       inkscape:connector-curvature="0" />
    <path
       d="m 52249,48350 -299,299"
       id="path62"
       inkscape:connector-curvature="0" />
    <path
       d="m 52450,49350 299,299"
       id="path64"
       inkscape:connector-curvature="0" />
    <path
       d="m 52749,49350 -299,299"
       id="path66"
       inkscape:connector-curvature="0" />
    <path
       d="m 52950,48350 299,299"
       id="path68"
       inkscape:connector-curvature="0" />
    <path
       d="m 53249,48350 -299,299"
       id="path70"
       inkscape:connector-curvature="0" />
    <circle
       cx="52600"
       cy="54500"
       r="196.85001"
       id="circle72" />
    <circle
       cx="53600"
       cy="54500"
       r="196.85001"
       id="circle74" />
    <circle
       cx="60600"
       cy="54500"
       r="196.85001"
       id="circle76" />
    <circle
       cx="61600"
       cy="54500"
       r="196.85001"
       id="circle78" />
    <circle
       cx="56600"
       cy="54500"
       r="196.85001"
       id="circle80" />
    <circle
       cx="57600"
       cy="54500"
       r="196.85001"
       id="circle82" />
    <circle
       cx="44600"
       cy="54500"
       r="196.85001"
       id="circle84" />
    <circle
       cx="45600"
       cy="54500"
       r="196.85001"
       id="circle86" />
    <circle
       cx="48600"
       cy="54500"
       r="196.85001"
       id="circle88" />
    <circle
       cx="49600"
       cy="54500"
       r="196.85001"
       id="circle90" />
    <circle
       cx="40600"
       cy="54500"
       r="196.85001"
       id="circle92" />
    <circle
       cx="41600"
       cy="54500"
       r="196.85001"
       id="circle94" />
    <circle
       cx="48350"
       cy="47200"
       r="196.85001"
       id="circle96" />
    <circle
       cx="54350"
       cy="47200"
       r="196.85001"
       id="circle98" />
    <path
       d="m 42328,48283 v 433"
       id="path100"
       inkscape:connector-curvature="0" />
    <path
       d="m 42111,48500 h 433"
       id="path102"
       inkscape:connector-curvature="0" />
    <path
       d="m 42328,50842 v 433"
       id="path104"
       inkscape:connector-curvature="0" />
    <path
       d="m 42111,51059 h 433"
       id="path106"
       inkscape:connector-curvature="0" />
    <path
       d="m 44100,48283 v 433"
       id="path108"
       inkscape:connector-curvature="0" />
    <path
       d="m 43883,48500 h 433"
       id="path110"
       inkscape:connector-curvature="0" />
    <path
       d="m 44100,50842 v 433"
       id="path112"
       inkscape:connector-curvature="0" />
    <path
       d="m 43883,51059 h 433"
       id="path114"
       inkscape:connector-curvature="0" />
    <path
       style="fill:none;fill-opacity:0;stroke:#000000;stroke-width:78.74019623;stroke-linecap:round;stroke-linejoin:round;stroke-opacity:1"
       d="m 49545.4,46445.4 v -890.8 h -890.8 v 890.8 z"
       id="path116"
       inkscape:connector-curvature="0" />
    <path
       style="fill:none;fill-opacity:0;stroke:#000000;stroke-width:78.74019623;stroke-linecap:round;stroke-linejoin:round;stroke-opacity:1"
       d="m 53600,46629.9 629.9,-629.9 -629.9,-629.9 -629.9,629.9 z"
       id="path118"
       inkscape:connector-curvature="0" />
  </g>
  <g
     style="fill:#000000;fill-opacity:0;stroke:#000000;stroke-width:118.11000061;stroke-linecap:round;stroke-linejoin:round;stroke-opacity:1"
     id="g466"
     inkscape:export-xdpi="163"
     inkscape:export-ydpi="163">
    <text
       x="37877.602"
       y="59399.602"
       textLength="8701.0898"
       font-size="1574.8"
       lengthAdjust="spacingAndGlyphs"
       id="text122"
       style="font-size:1574.80004883px;text-anchor:start;opacity:0">Drill Map:</text>
    <path
       d="m 38217,59343 v -1181 h 282 l 168,56 113,112 56,113 56,225 v 169 l -56,225 -56,112 -113,113 -168,56 h -282"
       id="path124"
       inkscape:connector-curvature="0" />
    <path
       d="m 39398,59343 v -788"
       id="path126"
       inkscape:connector-curvature="0" />
    <path
       d="m 39398,58780 57,-112 56,-56 112,-57 h 113"
       id="path128"
       inkscape:connector-curvature="0" />
    <path
       d="m 40130,59343 v -788"
       id="path130"
       inkscape:connector-curvature="0" />
    <path
       d="m 40130,58162 -57,56 57,56 56,-56 -56,-56 v 112"
       id="path132"
       inkscape:connector-curvature="0" />
    <path
       d="m 40861,59343 -113,-56 -56,-113 v -1012"
       id="path134"
       inkscape:connector-curvature="0" />
    <path
       d="m 41479,59343 -112,-56 -56,-113 v -1012"
       id="path136"
       inkscape:connector-curvature="0" />
    <path
       d="m 42829,59343 v -1181 l 394,843 394,-843 v 1181"
       id="path138"
       inkscape:connector-curvature="0" />
    <path
       d="m 44685,59343 v -619 l -56,-112 -112,-57 h -225 l -113,57"
       id="path140"
       inkscape:connector-curvature="0" />
    <path
       d="m 44685,59287 -112,56 h -281 l -113,-56 -56,-113 v -112 l 56,-113 113,-56 h 281 l 112,-56"
       id="path142"
       inkscape:connector-curvature="0" />
    <path
       d="m 45248,58555 v 1182"
       id="path144"
       inkscape:connector-curvature="0" />
    <path
       d="m 45248,58612 112,-57 h 225 l 113,57 56,56 56,112 v 338 l -56,112 -56,57 -113,56 h -225 l -112,-56"
       id="path146"
       inkscape:connector-curvature="0" />
    <path
       d="m 46316,59230 57,57 -57,56 -56,-56 56,-57 v 113"
       id="path148"
       inkscape:connector-curvature="0" />
    <path
       d="m 46316,58612 57,56 -57,56 -56,-56 56,-56 v 112"
       id="path150"
       inkscape:connector-curvature="0" />
    <path
       d="m 36790,61139 300,299"
       id="path152"
       inkscape:connector-curvature="0" />
    <path
       d="m 37090,61139 -300,299"
       id="path154"
       inkscape:connector-curvature="0" />
    <text
       x="37877.602"
       y="61879.898"
       textLength="25427.4"
       font-size="1574.8"
       lengthAdjust="spacingAndGlyphs"
       id="text156"
       style="font-size:1574.80004883px;text-anchor:start;opacity:0">0.76mm / 0.030&quot; (8 holes)</text>
    <path
       d="m 38442,60642 h 113 l 112,56 57,57 56,112 56,225 v 281 l -56,225 -56,113 -57,56 -112,56 h -113 l -112,-56 -56,-56 -57,-113 -56,-225 v -281 l 56,-225 57,-112 56,-57 112,-56"
       id="path158"
       inkscape:connector-curvature="0" />
    <path
       d="m 39342,61711 56,56 -56,56 -56,-56 56,-56 v 112"
       id="path160"
       inkscape:connector-curvature="0" />
    <path
       d="m 39792,60642 h 788 l -507,1181"
       id="path162"
       inkscape:connector-curvature="0" />
    <path
       d="m 41536,60642 h -225 l -113,56 -56,57 -113,168 -56,225 v 450 l 56,113 57,56 112,56 h 225 l 113,-56 56,-56 56,-113 v -281 l -56,-112 -56,-57 -113,-56 h -225 l -112,56 -57,57 -56,112"
       id="path164"
       inkscape:connector-curvature="0" />
    <path
       d="m 42154,61823 v -787"
       id="path166"
       inkscape:connector-curvature="0" />
    <path
       d="m 42154,61148 57,-56 112,-56 h 169 l 112,56 57,113 v 618"
       id="path168"
       inkscape:connector-curvature="0" />
    <path
       d="m 42661,61205 56,-113 112,-56 h 169 l 112,56 57,113 v 618"
       id="path170"
       inkscape:connector-curvature="0" />
    <path
       d="m 43729,61823 v -787"
       id="path172"
       inkscape:connector-curvature="0" />
    <path
       d="m 43729,61148 56,-56 113,-56 h 169 l 112,56 56,113 v 618"
       id="path174"
       inkscape:connector-curvature="0" />
    <path
       d="m 44235,61205 57,-113 112,-56 h 169 l 112,56 57,113 v 618"
       id="path176"
       inkscape:connector-curvature="0" />
    <path
       d="m 47047,60586 -1012,1518"
       id="path178"
       inkscape:connector-curvature="0" />
    <path
       d="m 48566,60642 h 113 l 112,56 56,57 56,112 57,225 v 281 l -57,225 -56,113 -56,56 -112,56 h -113 l -112,-56 -57,-56 -56,-113 -56,-225 v -281 l 56,-225 56,-112 57,-57 112,-56"
       id="path180"
       inkscape:connector-curvature="0" />
    <path
       d="m 49466,61711 56,56 -56,56 -56,-56 56,-56 v 112"
       id="path182"
       inkscape:connector-curvature="0" />
    <path
       d="m 50253,60642 h 113 l 112,56 57,57 56,112 56,225 v 281 l -56,225 -56,113 -57,56 -112,56 h -113 l -112,-56 -56,-56 -57,-113 -56,-225 v -281 l 56,-225 57,-112 56,-57 112,-56"
       id="path184"
       inkscape:connector-curvature="0" />
    <path
       d="m 51041,60642 h 731 l -394,450 h 169 l 112,56 57,57 56,112 v 281 l -56,113 -57,56 -112,56 h -338 l -112,-56 -56,-56"
       id="path186"
       inkscape:connector-curvature="0" />
    <path
       d="m 52503,60642 h 113 l 112,56 56,57 57,112 56,225 v 281 l -56,225 -57,113 -56,56 -112,56 h -113 l -112,-56 -57,-56 -56,-113 -56,-225 v -281 l 56,-225 56,-112 57,-57 112,-56"
       id="path188"
       inkscape:connector-curvature="0" />
    <path
       d="m 53347,60642 v 225"
       id="path190"
       inkscape:connector-curvature="0" />
    <path
       d="m 53797,60642 v 225"
       id="path192"
       inkscape:connector-curvature="0" />
    <path
       d="m 55540,62273 -56,-56 -113,-169 -56,-112 -56,-169 -56,-281 v -225 l 56,-281 56,-169 56,-113 113,-168 56,-57"
       id="path194"
       inkscape:connector-curvature="0" />
    <path
       d="m 56159,61148 -113,-56 -56,-56 -56,-113 v -56 l 56,-112 56,-57 113,-56 h 225 l 112,56 57,57 56,112 v 56 l -56,113 -57,56 -112,56 h -225 l -113,57 -56,56 -56,112 v 225 l 56,113 56,56 113,56 h 225 l 112,-56 57,-56 56,-113 v -225 l -56,-112 -57,-56 -112,-57"
       id="path196"
       inkscape:connector-curvature="0" />
    <path
       d="M 58015,61823 V 60642"
       id="path198"
       inkscape:connector-curvature="0" />
    <path
       d="m 58521,61823 v -618 l -56,-113 -113,-56 h -168 l -113,56 -56,56"
       id="path200"
       inkscape:connector-curvature="0" />
    <path
       d="m 59252,61823 -112,-56 -57,-56 -56,-113 v -337 l 56,-113 57,-56 112,-56 h 169 l 112,56 57,56 56,113 v 337 l -56,113 -57,56 -112,56 h -169"
       id="path202"
       inkscape:connector-curvature="0" />
    <path
       d="m 60321,61823 -113,-56 -56,-113 v -1012"
       id="path204"
       inkscape:connector-curvature="0" />
    <path
       d="m 61221,61767 -113,56 h -225 l -112,-56 -56,-113 v -449 l 56,-113 112,-56 h 225 l 113,56 56,113 v 112 l -562,112"
       id="path206"
       inkscape:connector-curvature="0" />
    <path
       d="m 61727,61767 112,56 h 225 l 113,-56 56,-113 v -56 l -56,-112 -113,-57 h -168 l -113,-56 -56,-112 v -56 l 56,-113 113,-56 h 168 l 113,56"
       id="path208"
       inkscape:connector-curvature="0" />
    <path
       d="m 62627,62273 56,-56 113,-169 56,-112 56,-169 56,-281 v -225 l -56,-281 -56,-169 -56,-113 -113,-168 -56,-57"
       id="path210"
       inkscape:connector-curvature="0" />
    <circle
       cx="36893.301"
       cy="62848.398"
       r="196.85001"
       id="circle212" />
    <text
       x="37877.602"
       y="63439"
       textLength="26552.301"
       font-size="1574.8"
       lengthAdjust="spacingAndGlyphs"
       id="text214"
       style="font-size:1574.80004883px;text-anchor:start;opacity:0">1.00mm / 0.039&quot; (14 holes)</text>
    <path
       d="m 38836,63382 h -675"
       id="path216"
       inkscape:connector-curvature="0" />
    <path
       d="m 38499,63382 v -1181 l -113,169 -112,112 -113,57"
       id="path218"
       inkscape:connector-curvature="0" />
    <path
       d="m 39342,63270 56,56 -56,56 -56,-56 56,-56 v 112"
       id="path220"
       inkscape:connector-curvature="0" />
    <path
       d="m 40130,62201 h 112 l 113,56 56,57 56,112 56,225 v 281 l -56,225 -56,113 -56,56 -113,56 h -112 l -113,-56 -56,-56 -56,-113 -57,-225 v -281 l 57,-225 56,-112 56,-57 113,-56"
       id="path222"
       inkscape:connector-curvature="0" />
    <path
       d="m 41254,62201 h 113 l 112,56 57,57 56,112 56,225 v 281 l -56,225 -56,113 -57,56 -112,56 h -113 l -112,-56 -56,-56 -57,-113 -56,-225 v -281 l 56,-225 57,-112 56,-57 112,-56"
       id="path224"
       inkscape:connector-curvature="0" />
    <path
       d="m 42154,63382 v -787"
       id="path226"
       inkscape:connector-curvature="0" />
    <path
       d="m 42154,62707 57,-56 112,-56 h 169 l 112,56 57,113 v 618"
       id="path228"
       inkscape:connector-curvature="0" />
    <path
       d="m 42661,62764 56,-113 112,-56 h 169 l 112,56 57,113 v 618"
       id="path230"
       inkscape:connector-curvature="0" />
    <path
       d="m 43729,63382 v -787"
       id="path232"
       inkscape:connector-curvature="0" />
    <path
       d="m 43729,62707 56,-56 113,-56 h 169 l 112,56 56,113 v 618"
       id="path234"
       inkscape:connector-curvature="0" />
    <path
       d="m 44235,62764 57,-113 112,-56 h 169 l 112,56 57,113 v 618"
       id="path236"
       inkscape:connector-curvature="0" />
    <path
       d="m 47047,62145 -1012,1518"
       id="path238"
       inkscape:connector-curvature="0" />
    <path
       d="m 48566,62201 h 113 l 112,56 56,57 56,112 57,225 v 281 l -57,225 -56,113 -56,56 -112,56 h -113 l -112,-56 -57,-56 -56,-113 -56,-225 v -281 l 56,-225 56,-112 57,-57 112,-56"
       id="path240"
       inkscape:connector-curvature="0" />
    <path
       d="m 49466,63270 56,56 -56,56 -56,-56 56,-56 v 112"
       id="path242"
       inkscape:connector-curvature="0" />
    <path
       d="m 50253,62201 h 113 l 112,56 57,57 56,112 56,225 v 281 l -56,225 -56,113 -57,56 -112,56 h -113 l -112,-56 -56,-56 -57,-113 -56,-225 v -281 l 56,-225 57,-112 56,-57 112,-56"
       id="path244"
       inkscape:connector-curvature="0" />
    <path
       d="m 51041,62201 h 731 l -394,450 h 169 l 112,56 57,57 56,112 v 281 l -56,113 -57,56 -112,56 h -338 l -112,-56 -56,-56"
       id="path246"
       inkscape:connector-curvature="0" />
    <path
       d="m 52334,63382 h 225 l 113,-56 56,-56 113,-169 56,-225 v -450 l -56,-112 -57,-57 -112,-56 h -225 l -113,56 -56,57 -56,112 v 281 l 56,113 56,56 113,56 h 225 l 112,-56 57,-56 56,-113"
       id="path248"
       inkscape:connector-curvature="0" />
    <path
       d="m 53347,62201 v 225"
       id="path250"
       inkscape:connector-curvature="0" />
    <path
       d="m 53797,62201 v 225"
       id="path252"
       inkscape:connector-curvature="0" />
    <path
       d="m 55540,63832 -56,-56 -113,-169 -56,-112 -56,-169 -56,-281 v -225 l 56,-281 56,-169 56,-113 113,-168 56,-57"
       id="path254"
       inkscape:connector-curvature="0" />
    <path
       d="m 56609,63382 h -675"
       id="path256"
       inkscape:connector-curvature="0" />
    <path
       d="m 56271,63382 v -1181 l -112,169 -113,112 -112,57"
       id="path258"
       inkscape:connector-curvature="0" />
    <path
       d="m 57621,62595 v 787"
       id="path260"
       inkscape:connector-curvature="0" />
    <path
       d="m 57340,62145 -281,844 h 731"
       id="path262"
       inkscape:connector-curvature="0" />
    <path
       d="M 59140,63382 V 62201"
       id="path264"
       inkscape:connector-curvature="0" />
    <path
       d="m 59646,63382 v -618 l -56,-113 -113,-56 h -169 l -112,56 -56,56"
       id="path266"
       inkscape:connector-curvature="0" />
    <path
       d="m 60377,63382 -112,-56 -57,-56 -56,-113 v -337 l 56,-113 57,-56 112,-56 h 169 l 112,56 57,56 56,113 v 337 l -56,113 -57,56 -112,56 h -169"
       id="path268"
       inkscape:connector-curvature="0" />
    <path
       d="m 61446,63382 -113,-56 -56,-112 v -1013"
       id="path270"
       inkscape:connector-curvature="0" />
    <path
       d="m 62346,63326 -113,56 h -225 l -112,-56 -57,-112 v -450 l 57,-113 112,-56 h 225 l 113,56 56,113 v 112 l -563,113"
       id="path272"
       inkscape:connector-curvature="0" />
    <path
       d="m 62852,63326 112,56 h 225 l 113,-56 56,-112 v -57 l -56,-112 -113,-56 h -169 l -112,-57 -56,-112 v -56 l 56,-113 112,-56 h 169 l 113,56"
       id="path274"
       inkscape:connector-curvature="0" />
    <path
       d="m 63752,63832 56,-56 112,-169 57,-112 56,-169 56,-281 v -225 l -56,-281 -56,-169 -57,-113 -112,-168 -56,-57"
       id="path276"
       inkscape:connector-curvature="0" />
    <path
       d="m 36873,64190 v 434"
       id="path278"
       inkscape:connector-curvature="0" />
    <path
       d="m 36657,64407 h 433"
       id="path280"
       inkscape:connector-curvature="0" />
    <text
       x="37877.602"
       y="64998"
       textLength="25427.4"
       font-size="1574.8"
       lengthAdjust="spacingAndGlyphs"
       id="text282"
       style="font-size:1574.80004883px;text-anchor:start;opacity:0">1.10mm / 0.043&quot; (4 holes)</text>
    <path
       d="m 38836,64941 h -675"
       id="path284"
       inkscape:connector-curvature="0" />
    <path
       d="m 38499,64941 v -1181 l -113,169 -112,112 -113,57"
       id="path286"
       inkscape:connector-curvature="0" />
    <path
       d="m 39342,64829 56,56 -56,56 -56,-56 56,-56 v 112"
       id="path288"
       inkscape:connector-curvature="0" />
    <path
       d="m 40523,64941 h -675"
       id="path290"
       inkscape:connector-curvature="0" />
    <path
       d="m 40186,64941 v -1181 l -113,169 -112,112 -113,57"
       id="path292"
       inkscape:connector-curvature="0" />
    <path
       d="m 41254,63760 h 113 l 112,56 57,57 56,112 56,225 v 281 l -56,225 -56,113 -57,56 -112,56 h -113 l -112,-56 -56,-56 -57,-113 -56,-225 v -281 l 56,-225 57,-112 56,-57 112,-56"
       id="path294"
       inkscape:connector-curvature="0" />
    <path
       d="m 42154,64941 v -787"
       id="path296"
       inkscape:connector-curvature="0" />
    <path
       d="m 42154,64266 57,-56 112,-56 h 169 l 112,56 57,113 v 618"
       id="path298"
       inkscape:connector-curvature="0" />
    <path
       d="m 42661,64323 56,-113 112,-56 h 169 l 112,56 57,113 v 618"
       id="path300"
       inkscape:connector-curvature="0" />
    <path
       d="m 43729,64941 v -787"
       id="path302"
       inkscape:connector-curvature="0" />
    <path
       d="m 43729,64266 56,-56 113,-56 h 169 l 112,56 56,113 v 618"
       id="path304"
       inkscape:connector-curvature="0" />
    <path
       d="m 44235,64323 57,-113 112,-56 h 169 l 112,56 57,113 v 618"
       id="path306"
       inkscape:connector-curvature="0" />
    <path
       d="m 47047,63704 -1012,1519"
       id="path308"
       inkscape:connector-curvature="0" />
    <path
       d="m 48566,63760 h 113 l 112,56 56,57 56,112 57,225 v 281 l -57,225 -56,113 -56,56 -112,56 h -113 l -112,-56 -57,-56 -56,-113 -56,-225 v -281 l 56,-225 56,-112 57,-57 112,-56"
       id="path310"
       inkscape:connector-curvature="0" />
    <path
       d="m 49466,64829 56,56 -56,56 -56,-56 56,-56 v 112"
       id="path312"
       inkscape:connector-curvature="0" />
    <path
       d="m 50253,63760 h 113 l 112,56 57,57 56,112 56,225 v 281 l -56,225 -56,113 -57,56 -112,56 h -113 l -112,-56 -56,-56 -57,-113 -56,-225 v -281 l 56,-225 57,-112 56,-57 112,-56"
       id="path314"
       inkscape:connector-curvature="0" />
    <path
       d="m 51659,64154 v 787"
       id="path316"
       inkscape:connector-curvature="0" />
    <path
       d="m 51378,63704 -281,844 h 731"
       id="path318"
       inkscape:connector-curvature="0" />
    <path
       d="m 52166,63760 h 731 l -394,450 h 169 l 112,56 57,57 56,112 v 281 l -56,113 -57,56 -112,56 h -338 l -112,-56 -56,-56"
       id="path320"
       inkscape:connector-curvature="0" />
    <path
       d="m 53347,63760 v 225"
       id="path322"
       inkscape:connector-curvature="0" />
    <path
       d="m 53797,63760 v 225"
       id="path324"
       inkscape:connector-curvature="0" />
    <path
       d="m 55540,65391 -56,-56 -113,-169 -56,-112 -56,-169 -56,-281 v -225 l 56,-281 56,-169 56,-113 113,-168 56,-57"
       id="path326"
       inkscape:connector-curvature="0" />
    <path
       d="m 56496,64154 v 787"
       id="path328"
       inkscape:connector-curvature="0" />
    <path
       d="m 56215,63704 -281,844 h 731"
       id="path330"
       inkscape:connector-curvature="0" />
    <path
       d="M 58015,64941 V 63760"
       id="path332"
       inkscape:connector-curvature="0" />
    <path
       d="m 58521,64941 v -618 l -56,-113 -113,-56 h -168 l -113,56 -56,56"
       id="path334"
       inkscape:connector-curvature="0" />
    <path
       d="m 59252,64941 -112,-56 -57,-56 -56,-113 v -337 l 56,-113 57,-56 112,-56 h 169 l 112,56 57,56 56,113 v 337 l -56,113 -57,56 -112,56 h -169"
       id="path336"
       inkscape:connector-curvature="0" />
    <path
       d="m 60321,64941 -113,-56 -56,-112 v -1013"
       id="path338"
       inkscape:connector-curvature="0" />
    <path
       d="m 61221,64885 -113,56 h -225 l -112,-56 -56,-112 v -450 l 56,-113 112,-56 h 225 l 113,56 56,113 v 112 l -562,113"
       id="path340"
       inkscape:connector-curvature="0" />
    <path
       d="m 61727,64885 112,56 h 225 l 113,-56 56,-112 v -57 l -56,-112 -113,-56 h -168 l -113,-57 -56,-112 v -56 l 56,-113 113,-56 h 168 l 113,56"
       id="path342"
       inkscape:connector-curvature="0" />
    <path
       d="m 62627,65391 56,-56 113,-169 56,-112 56,-169 56,-281 v -225 l -56,-281 -56,-169 -56,-113 -113,-168 -56,-57"
       id="path344"
       inkscape:connector-curvature="0" />
    <path
       style="fill:none;fill-opacity:0;stroke:#000000;stroke-width:118.11000061;stroke-linecap:round;stroke-linejoin:round;stroke-opacity:1"
       d="m 36905.7,66412 v -890.9 h -890.9 v 890.9 z"
       id="path346"
       inkscape:connector-curvature="0" />
    <text
       x="37877.602"
       y="66557.102"
       textLength="24471.301"
       font-size="1574.8"
       lengthAdjust="spacingAndGlyphs"
       id="text348"
       style="font-size:1574.80004883px;text-anchor:start;opacity:0">3.20mm / 0.126&quot; (1 hole)</text>
    <path
       d="m 38105,65319 h 731 l -394,450 h 169 l 113,56 56,57 56,112 v 281 l -56,113 -56,56 -113,56 h -337 l -113,-56 -56,-56"
       id="path350"
       inkscape:connector-curvature="0" />
    <path
       d="m 39342,66388 56,56 -56,56 -56,-56 56,-56 v 112"
       id="path352"
       inkscape:connector-curvature="0" />
    <path
       d="m 39848,65432 57,-57 112,-56 h 281 l 113,56 56,57 56,112 v 113 l -56,168 -675,675 h 731"
       id="path354"
       inkscape:connector-curvature="0" />
    <path
       d="m 41254,65319 h 113 l 112,56 57,57 56,112 56,225 v 281 l -56,225 -56,113 -57,56 -112,56 h -113 l -112,-56 -56,-56 -57,-113 -56,-225 v -281 l 56,-225 57,-112 56,-57 112,-56"
       id="path356"
       inkscape:connector-curvature="0" />
    <path
       d="m 42154,66500 v -787"
       id="path358"
       inkscape:connector-curvature="0" />
    <path
       d="m 42154,65825 57,-56 112,-56 h 169 l 112,56 57,113 v 618"
       id="path360"
       inkscape:connector-curvature="0" />
    <path
       d="m 42661,65882 56,-113 112,-56 h 169 l 112,56 57,113 v 618"
       id="path362"
       inkscape:connector-curvature="0" />
    <path
       d="m 43729,66500 v -787"
       id="path364"
       inkscape:connector-curvature="0" />
    <path
       d="m 43729,65825 56,-56 113,-56 h 169 l 112,56 56,113 v 618"
       id="path366"
       inkscape:connector-curvature="0" />
    <path
       d="m 44235,65882 57,-113 112,-56 h 169 l 112,56 57,113 v 618"
       id="path368"
       inkscape:connector-curvature="0" />
    <path
       d="m 47047,65263 -1012,1519"
       id="path370"
       inkscape:connector-curvature="0" />
    <path
       d="m 48566,65319 h 113 l 112,56 56,57 56,112 57,225 v 281 l -57,225 -56,113 -56,56 -112,56 h -113 l -112,-56 -57,-56 -56,-113 -56,-225 v -281 l 56,-225 56,-112 57,-57 112,-56"
       id="path372"
       inkscape:connector-curvature="0" />
    <path
       d="m 49466,66388 56,56 -56,56 -56,-56 56,-56 v 112"
       id="path374"
       inkscape:connector-curvature="0" />
    <path
       d="m 50647,66500 h -675"
       id="path376"
       inkscape:connector-curvature="0" />
    <path
       d="m 50310,66500 v -1181 l -113,169 -112,112 -113,57"
       id="path378"
       inkscape:connector-curvature="0" />
    <path
       d="m 51097,65432 56,-57 113,-56 h 281 l 112,56 57,57 56,112 v 113 l -56,168 -675,675 h 731"
       id="path380"
       inkscape:connector-curvature="0" />
    <path
       d="m 52784,65319 h -225 l -112,56 -56,57 -113,168 -56,225 v 450 l 56,113 56,56 113,56 h 225 l 112,-56 57,-56 56,-113 v -281 l -56,-112 -57,-57 -112,-56 h -225 l -113,56 -56,57 -56,112"
       id="path382"
       inkscape:connector-curvature="0" />
    <path
       d="m 53347,65319 v 225"
       id="path384"
       inkscape:connector-curvature="0" />
    <path
       d="m 53797,65319 v 225"
       id="path386"
       inkscape:connector-curvature="0" />
    <path
       d="m 55540,66950 -56,-56 -113,-169 -56,-112 -56,-169 -56,-281 v -225 l 56,-281 56,-169 56,-113 113,-168 56,-56"
       id="path388"
       inkscape:connector-curvature="0" />
    <path
       d="m 56609,66500 h -675"
       id="path390"
       inkscape:connector-curvature="0" />
    <path
       d="m 56271,66500 v -1181 l -112,169 -113,112 -112,57"
       id="path392"
       inkscape:connector-curvature="0" />
    <path
       d="M 58015,66500 V 65319"
       id="path394"
       inkscape:connector-curvature="0" />
    <path
       d="m 58521,66500 v -618 l -56,-113 -113,-56 h -168 l -113,56 -56,56"
       id="path396"
       inkscape:connector-curvature="0" />
    <path
       d="m 59252,66500 -112,-56 -57,-56 -56,-113 v -337 l 56,-113 57,-56 112,-56 h 169 l 112,56 57,56 56,113 v 337 l -56,113 -57,56 -112,56 h -169"
       id="path398"
       inkscape:connector-curvature="0" />
    <path
       d="m 60321,66500 -113,-56 -56,-112 v -1013"
       id="path400"
       inkscape:connector-curvature="0" />
    <path
       d="m 61221,66444 -113,56 h -225 l -112,-56 -56,-112 v -450 l 56,-113 112,-56 h 225 l 113,56 56,113 v 112 l -562,113"
       id="path402"
       inkscape:connector-curvature="0" />
    <path
       d="m 61671,66950 56,-56 112,-169 57,-112 56,-169 56,-281 v -225 l -56,-281 -56,-169 -57,-113 -112,-168 -56,-56"
       id="path404"
       inkscape:connector-curvature="0" />
    <path
       style="fill:none;fill-opacity:0;stroke:#000000;stroke-width:118.11000061;stroke-linecap:round;stroke-linejoin:round;stroke-opacity:1"
       d="m 36460.2,68368.1 630,-629.9 -630,-629.9 -629.9,629.9 z"
       id="path406"
       inkscape:connector-curvature="0" />
    <text
       x="37877.602"
       y="68328.703"
       textLength="24471.301"
       font-size="1574.8"
       lengthAdjust="spacingAndGlyphs"
       id="text408"
       style="font-size:1574.80004883px;text-anchor:start;opacity:0">3.20mm / 0.126&quot; (1 hole)</text>
    <path
       d="m 38105,67091 h 731 l -394,450 h 169 l 113,56 56,56 56,113 v 281 l -56,113 -56,56 -113,56 h -337 l -113,-56 -56,-56"
       id="path410"
       inkscape:connector-curvature="0" />
    <path
       d="m 39342,68160 56,56 -56,56 -56,-56 56,-56 v 112"
       id="path412"
       inkscape:connector-curvature="0" />
    <path
       d="m 39848,67203 57,-56 112,-56 h 281 l 113,56 56,56 56,113 v 112 l -56,169 -675,675 h 731"
       id="path414"
       inkscape:connector-curvature="0" />
    <path
       d="m 41254,67091 h 113 l 112,56 57,56 56,113 56,225 v 281 l -56,225 -56,113 -57,56 -112,56 h -113 l -112,-56 -56,-56 -57,-113 -56,-225 v -281 l 56,-225 57,-113 56,-56 112,-56"
       id="path416"
       inkscape:connector-curvature="0" />
    <path
       d="m 42154,68272 v -787"
       id="path418"
       inkscape:connector-curvature="0" />
    <path
       d="m 42154,67597 57,-56 112,-56 h 169 l 112,56 57,112 v 619"
       id="path420"
       inkscape:connector-curvature="0" />
    <path
       d="m 42661,67653 56,-112 112,-56 h 169 l 112,56 57,112 v 619"
       id="path422"
       inkscape:connector-curvature="0" />
    <path
       d="m 43729,68272 v -787"
       id="path424"
       inkscape:connector-curvature="0" />
    <path
       d="m 43729,67597 56,-56 113,-56 h 169 l 112,56 56,112 v 619"
       id="path426"
       inkscape:connector-curvature="0" />
    <path
       d="m 44235,67653 57,-112 112,-56 h 169 l 112,56 57,112 v 619"
       id="path428"
       inkscape:connector-curvature="0" />
    <path
       d="m 47047,67035 -1012,1518"
       id="path430"
       inkscape:connector-curvature="0" />
    <path
       d="m 48566,67091 h 113 l 112,56 56,56 56,113 57,225 v 281 l -57,225 -56,113 -56,56 -112,56 h -113 l -112,-56 -57,-56 -56,-113 -56,-225 v -281 l 56,-225 56,-113 57,-56 112,-56"
       id="path432"
       inkscape:connector-curvature="0" />
    <path
       d="m 49466,68160 56,56 -56,56 -56,-56 56,-56 v 112"
       id="path434"
       inkscape:connector-curvature="0" />
    <path
       d="m 50647,68272 h -675"
       id="path436"
       inkscape:connector-curvature="0" />
    <path
       d="m 50310,68272 v -1181 l -113,169 -112,112 -113,56"
       id="path438"
       inkscape:connector-curvature="0" />
    <path
       d="m 51097,67203 56,-56 113,-56 h 281 l 112,56 57,56 56,113 v 112 l -56,169 -675,675 h 731"
       id="path440"
       inkscape:connector-curvature="0" />
    <path
       d="m 52784,67091 h -225 l -112,56 -56,56 -113,169 -56,225 v 450 l 56,113 56,56 113,56 h 225 l 112,-56 57,-56 56,-113 v -281 l -56,-113 -57,-56 -112,-56 h -225 l -113,56 -56,56 -56,113"
       id="path442"
       inkscape:connector-curvature="0" />
    <path
       d="m 53347,67091 v 225"
       id="path444"
       inkscape:connector-curvature="0" />
    <path
       d="m 53797,67091 v 225"
       id="path446"
       inkscape:connector-curvature="0" />
    <path
       d="m 55540,68722 -56,-56 -113,-169 -56,-113 -56,-168 -56,-281 v -225 l 56,-282 56,-168 56,-113 113,-169 56,-56"
       id="path448"
       inkscape:connector-curvature="0" />
    <path
       d="m 56609,68272 h -675"
       id="path450"
       inkscape:connector-curvature="0" />
    <path
       d="m 56271,68272 v -1181 l -112,169 -113,112 -112,56"
       id="path452"
       inkscape:connector-curvature="0" />
    <path
       d="M 58015,68272 V 67091"
       id="path454"
       inkscape:connector-curvature="0" />
    <path
       d="m 58521,68272 v -619 l -56,-112 -113,-56 h -168 l -113,56 -56,56"
       id="path456"
       inkscape:connector-curvature="0" />
    <path
       d="m 59252,68272 -112,-56 -57,-56 -56,-113 v -337 l 56,-113 57,-56 112,-56 h 169 l 112,56 57,56 56,113 v 337 l -56,113 -57,56 -112,56 h -169"
       id="path458"
       inkscape:connector-curvature="0" />
    <path
       d="m 60321,68272 -113,-56 -56,-113 v -1012"
       id="path460"
       inkscape:connector-curvature="0" />
    <path
       d="m 61221,68216 -113,56 h -225 l -112,-56 -56,-113 v -450 l 56,-112 112,-56 h 225 l 113,56 56,112 v 113 l -562,112"
       id="path462"
       inkscape:connector-curvature="0" />
    <path
       d="m 61671,68722 56,-56 112,-169 57,-113 56,-168 56,-281 v -225 l -56,-282 -56,-168 -57,-113 -112,-169 -56,-56"
       id="path464"
       inkscape:connector-curvature="0" />
  </g>
</svg>
