<?xml version="1.0" standalone="no"?>
 <!DOCTYPE svg PUBLIC "-//W3C//DTD SVG 1.1//EN" 
 "http://www.w3.org/Graphics/SVG/1.1/DTD/svg11.dtd"> 
<svg
  xmlns:svg="http://www.w3.org/2000/svg"
  xmlns="http://www.w3.org/2000/svg"
  xmlns:xlink="http://www.w3.org/1999/xlink"
  version="1.1"
  width="29.700220cm" height="21.000720cm" viewBox="0 0 116930 82680">
<title>SVG Picture created as e-r-wifi-lf-NPTH-drl_map.svg date 2021/12/14 19:09:06 </title>
  <desc>Picture generated by PCBNEW </desc>
<g style="fill:#000000; fill-opacity:1;stroke:#000000; stroke-opacity:1;
stroke-linecap:round; stroke-linejoin:round;"
 transform="translate(0 0) scale(1 1)">
</g>
<g style="fill:#000000; fill-opacity:0.0; 
stroke:#000000; stroke-width:-0.000393701; stroke-opacity:1; 
stroke-linecap:round; stroke-linejoin:round;">
</g>
<g style="fill:#000000; fill-opacity:0.0; 
stroke:#000000; stroke-width:19.685; stroke-opacity:1; 
stroke-linecap:round; stroke-linejoin:round;">
<path d="M65350 57500
L64100 57500
" />
<path d="M65350 43500
L64100 43500
" />
<circle cx="63850" cy="45000" r="629.921" /> 
<circle cx="63850" cy="56000" r="629.921" /> 
<path d="M65350 57500
L65350 43500
" />
<path d="M37100 43500
L39100 43500
" />
<path d="M37100 57500
L37100 43500
" />
<path d="M39100 57500
L37100 57500
" />
<path d="M64100 57500
L39100 57500
" />
<path d="M63100 43500
L64100 43500
" />
<path d="M39100 43500
L40100 43500
" />
<circle cx="38600" cy="56000" r="629.921" /> 
<circle cx="38600" cy="45000" r="629.921" /> 
<path d="M40100 43500
L63100 43500
" />
</g>
<g style="fill:#000000; fill-opacity:0.0; 
stroke:#000000; stroke-width:78.7402; stroke-opacity:1; 
stroke-linecap:round; stroke-linejoin:round;">
</g>
<g style="fill:#000000; fill-opacity:0.0; 
stroke:#000000; stroke-width:118.11; stroke-opacity:1; 
stroke-linecap:round; stroke-linejoin:round;">
<text x="37877.6" y="59399.6"
textLength="8779.53" font-size="1574.8" lengthAdjust="spacingAndGlyphs"
text-anchor="start" opacity="0">Drill Map:</text>
<path d="M38217 59343
L38217 58162
L38499 58162
L38667 58218
L38780 58330
L38836 58443
L38892 58668
L38892 58837
L38836 59062
L38780 59174
L38667 59287
L38499 59343
L38217 59343
" />
<path d="M39398 59343
L39398 58555
" />
<path d="M39398 58780
L39455 58668
L39511 58612
L39623 58555
L39736 58555
" />
<path d="M40130 59343
L40130 58555
" />
<path d="M40130 58162
L40073 58218
L40130 58274
L40186 58218
L40130 58162
L40130 58274
" />
<path d="M40861 59343
L40748 59287
L40692 59174
L40692 58162
" />
<path d="M41479 59343
L41367 59287
L41311 59174
L41311 58162
" />
<path d="M42829 59343
L42829 58162
L43223 59005
L43617 58162
L43617 59343
" />
<path d="M44685 59343
L44685 58724
L44629 58612
L44517 58555
L44292 58555
L44179 58612
" />
<path d="M44685 59287
L44573 59343
L44292 59343
L44179 59287
L44123 59174
L44123 59062
L44179 58949
L44292 58893
L44573 58893
L44685 58837
" />
<path d="M45248 58555
L45248 59737
" />
<path d="M45248 58612
L45360 58555
L45585 58555
L45698 58612
L45754 58668
L45810 58780
L45810 59118
L45754 59230
L45698 59287
L45585 59343
L45360 59343
L45248 59287
" />
<path d="M46316 59230
L46373 59287
L46316 59343
L46260 59287
L46316 59230
L46316 59343
" />
<path d="M46316 58612
L46373 58668
L46316 58724
L46260 58668
L46316 58612
L46316 58724
" />
</g> 
</svg>
