%FSLAX45Y45*%
G04 Gerber Fmt 4.5, Leading zero omitted, Abs format (unit mm)*
G04 Created by KiCad (PCBNEW (5.1.4)-1) date 2019-12-13 15:42:25*
%MOMM*%
%LPD*%
G04 APERTURE LIST*
%ADD10C,0.100000*%
%ADD11C,0.200000*%
%ADD12C,0.300000*%
G04 APERTURE END LIST*
D10*
X4475460Y-6858000D02*
G75*
G03X4475460Y-6858000I-160000J0D01*
G01*
X3236500Y-5842000D02*
G75*
G03X3236500Y-5842000I-125000J0D01*
G01*
X3236500Y-7874000D02*
G75*
G03X3236500Y-7874000I-125000J0D01*
G01*
X8951500Y-5842000D02*
G75*
G03X8951500Y-5842000I-125000J0D01*
G01*
X7777460Y-5715000D02*
G75*
G03X7777460Y-5715000I-160000J0D01*
G01*
X7777460Y-8001000D02*
G75*
G03X7777460Y-8001000I-160000J0D01*
G01*
X8951500Y-7874000D02*
G75*
G03X8951500Y-7874000I-125000J0D01*
G01*
X4572600Y-5207000D02*
X4572600Y-5461000D01*
X3302600Y-5207000D02*
X3302600Y-5461000D01*
X3302600Y-5207000D02*
X4572600Y-5207000D01*
X3302600Y-5461000D02*
X4572600Y-5461000D01*
X5334000Y-5461000D02*
X5334000Y-5207000D01*
X6604000Y-5207000D02*
X6604000Y-5461000D01*
X5334000Y-5207000D02*
X6604000Y-5207000D01*
X5334000Y-5461000D02*
X6604000Y-5461000D01*
X2870200Y-6985000D02*
X3886200Y-6985000D01*
X3886200Y-6731000D02*
X2870200Y-6731000D01*
X2870200Y-6731000D02*
X2870200Y-6985000D01*
X2540000Y-11176000D02*
X9398000Y-11176000D01*
X9398000Y-2540000D02*
X9398000Y-11176000D01*
X2540000Y-2540000D02*
X2540000Y-11176000D01*
X3886200Y-6731000D02*
X3886200Y-6985000D01*
X2540000Y-2540000D02*
X9398000Y-2540000D01*
D11*
D12*
X2821428Y-11646714D02*
X2821428Y-11346714D01*
X2892857Y-11346714D01*
X2935714Y-11361000D01*
X2964286Y-11389571D01*
X2978571Y-11418143D01*
X2992857Y-11475286D01*
X2992857Y-11518143D01*
X2978571Y-11575286D01*
X2964286Y-11603857D01*
X2935714Y-11632429D01*
X2892857Y-11646714D01*
X2821428Y-11646714D01*
X3121428Y-11646714D02*
X3121428Y-11446714D01*
X3121428Y-11503857D02*
X3135714Y-11475286D01*
X3150000Y-11461000D01*
X3178571Y-11446714D01*
X3207143Y-11446714D01*
X3307143Y-11646714D02*
X3307143Y-11446714D01*
X3307143Y-11346714D02*
X3292857Y-11361000D01*
X3307143Y-11375286D01*
X3321428Y-11361000D01*
X3307143Y-11346714D01*
X3307143Y-11375286D01*
X3492857Y-11646714D02*
X3464286Y-11632429D01*
X3450000Y-11603857D01*
X3450000Y-11346714D01*
X3650000Y-11646714D02*
X3621428Y-11632429D01*
X3607143Y-11603857D01*
X3607143Y-11346714D01*
X3992857Y-11646714D02*
X3992857Y-11346714D01*
X4092857Y-11561000D01*
X4192857Y-11346714D01*
X4192857Y-11646714D01*
X4464286Y-11646714D02*
X4464286Y-11489571D01*
X4450000Y-11461000D01*
X4421428Y-11446714D01*
X4364286Y-11446714D01*
X4335714Y-11461000D01*
X4464286Y-11632429D02*
X4435714Y-11646714D01*
X4364286Y-11646714D01*
X4335714Y-11632429D01*
X4321428Y-11603857D01*
X4321428Y-11575286D01*
X4335714Y-11546714D01*
X4364286Y-11532429D01*
X4435714Y-11532429D01*
X4464286Y-11518143D01*
X4607143Y-11446714D02*
X4607143Y-11746714D01*
X4607143Y-11461000D02*
X4635714Y-11446714D01*
X4692857Y-11446714D01*
X4721428Y-11461000D01*
X4735714Y-11475286D01*
X4750000Y-11503857D01*
X4750000Y-11589571D01*
X4735714Y-11618143D01*
X4721428Y-11632429D01*
X4692857Y-11646714D01*
X4635714Y-11646714D01*
X4607143Y-11632429D01*
X4878571Y-11618143D02*
X4892857Y-11632429D01*
X4878571Y-11646714D01*
X4864286Y-11632429D01*
X4878571Y-11618143D01*
X4878571Y-11646714D01*
X4878571Y-11461000D02*
X4892857Y-11475286D01*
X4878571Y-11489571D01*
X4864286Y-11475286D01*
X4878571Y-11461000D01*
X4878571Y-11489571D01*
M02*
