G04 #@! TF.GenerationSoftware,KiCad,Pcbnew,(5.1.4)-1*
G04 #@! TF.CreationDate,2019-12-13T15:42:32+01:00*
G04 #@! TF.ProjectId,e-p-wifi,652d702d-7769-4666-992e-6b696361645f,1.0*
G04 #@! TF.SameCoordinates,Original*
G04 #@! TF.FileFunction,Legend,Top*
G04 #@! TF.FilePolarity,Positive*
%FSLAX46Y46*%
G04 Gerber Fmt 4.6, Leading zero omitted, Abs format (unit mm)*
G04 Created by KiCad (PCBNEW (5.1.4)-1) date 2019-12-13 15:42:32*
%MOMM*%
%LPD*%
G04 APERTURE LIST*
%ADD10C,0.100000*%
%ADD11C,0.120000*%
%ADD12C,0.010000*%
%ADD13C,0.150000*%
G04 APERTURE END LIST*
D10*
X44754600Y-68580000D02*
G75*
G03X44754600Y-68580000I-1600000J0D01*
G01*
X32365000Y-58420000D02*
G75*
G03X32365000Y-58420000I-1250000J0D01*
G01*
X32365000Y-78740000D02*
G75*
G03X32365000Y-78740000I-1250000J0D01*
G01*
X89515000Y-58420000D02*
G75*
G03X89515000Y-58420000I-1250000J0D01*
G01*
X77774600Y-57150000D02*
G75*
G03X77774600Y-57150000I-1600000J0D01*
G01*
X77774600Y-80010000D02*
G75*
G03X77774600Y-80010000I-1600000J0D01*
G01*
X89515000Y-78740000D02*
G75*
G03X89515000Y-78740000I-1250000J0D01*
G01*
X45726000Y-52070000D02*
X45726000Y-54610000D01*
X33026000Y-52070000D02*
X33026000Y-54610000D01*
X33026000Y-52070000D02*
X45726000Y-52070000D01*
X33026000Y-54610000D02*
X45726000Y-54610000D01*
X53340000Y-54610000D02*
X53340000Y-52070000D01*
X66040000Y-52070000D02*
X66040000Y-54610000D01*
X53340000Y-52070000D02*
X66040000Y-52070000D01*
X53340000Y-54610000D02*
X66040000Y-54610000D01*
X28702000Y-69850000D02*
X38862000Y-69850000D01*
X38862000Y-67310000D02*
X28702000Y-67310000D01*
X28702000Y-67310000D02*
X28702000Y-69850000D01*
X25400000Y-111760000D02*
X93980000Y-111760000D01*
X93980000Y-25400000D02*
X93980000Y-111760000D01*
X25400000Y-25400000D02*
X25400000Y-111760000D01*
X38862000Y-67310000D02*
X38862000Y-69850000D01*
X25400000Y-25400000D02*
X93980000Y-25400000D01*
D11*
X44301665Y-108266608D02*
G75*
G03X47534000Y-108423516I1672335J1078608D01*
G01*
X44301665Y-106109392D02*
G75*
G02X47534000Y-105952484I1672335J-1078608D01*
G01*
X44932870Y-108267837D02*
G75*
G03X47014961Y-108268000I1041130J1079837D01*
G01*
X44932870Y-106108163D02*
G75*
G02X47014961Y-106108000I1041130J-1079837D01*
G01*
X47534000Y-108424000D02*
X47534000Y-108268000D01*
X47534000Y-106108000D02*
X47534000Y-105952000D01*
X33125665Y-108266608D02*
G75*
G03X36358000Y-108423516I1672335J1078608D01*
G01*
X33125665Y-106109392D02*
G75*
G02X36358000Y-105952484I1672335J-1078608D01*
G01*
X33756870Y-108267837D02*
G75*
G03X35838961Y-108268000I1041130J1079837D01*
G01*
X33756870Y-106108163D02*
G75*
G02X35838961Y-106108000I1041130J-1079837D01*
G01*
X36358000Y-108424000D02*
X36358000Y-108268000D01*
X36358000Y-106108000D02*
X36358000Y-105952000D01*
X55720000Y-106670000D02*
X65880000Y-106670000D01*
X55720000Y-111750000D02*
X65880000Y-111750000D01*
X65880000Y-106670000D02*
X65880000Y-111750000D01*
X65880000Y-111750000D02*
X55720000Y-111750000D01*
X55720000Y-111750000D02*
X55720000Y-106670000D01*
X65880000Y-111724600D02*
X65880000Y-113045400D01*
X65880000Y-113045400D02*
X57015400Y-113045400D01*
X60825400Y-113045400D02*
X60825400Y-113502600D01*
X60825400Y-113502600D02*
X61841400Y-113502600D01*
X61841400Y-113502600D02*
X61841400Y-113096200D01*
X56990000Y-113045400D02*
X56990000Y-111750000D01*
X27500000Y-85030000D02*
X27500000Y-87690000D01*
X40260000Y-85030000D02*
X27500000Y-85030000D01*
X40260000Y-87690000D02*
X27500000Y-87690000D01*
X40260000Y-85030000D02*
X40260000Y-87690000D01*
X41530000Y-85030000D02*
X42860000Y-85030000D01*
X42860000Y-85030000D02*
X42860000Y-86360000D01*
X30770000Y-106108000D02*
X30770000Y-105952000D01*
X30770000Y-108424000D02*
X30770000Y-108268000D01*
X28168870Y-106108163D02*
G75*
G02X30250961Y-106108000I1041130J-1079837D01*
G01*
X28168870Y-108267837D02*
G75*
G03X30250961Y-108268000I1041130J1079837D01*
G01*
X27537665Y-106109392D02*
G75*
G02X30770000Y-105952484I1672335J-1078608D01*
G01*
X27537665Y-108266608D02*
G75*
G03X30770000Y-108423516I1672335J1078608D01*
G01*
X76270000Y-87181000D02*
X76270000Y-88439000D01*
X78110000Y-87181000D02*
X78110000Y-88439000D01*
X91730000Y-27530000D02*
X89070000Y-27530000D01*
X91730000Y-30130000D02*
X91730000Y-27530000D01*
X89070000Y-30130000D02*
X89070000Y-27530000D01*
X91730000Y-30130000D02*
X89070000Y-30130000D01*
X91730000Y-31400000D02*
X91730000Y-32730000D01*
X91730000Y-32730000D02*
X90400000Y-32730000D01*
X91730000Y-43530000D02*
X89070000Y-43530000D01*
X91730000Y-46130000D02*
X91730000Y-43530000D01*
X89070000Y-46130000D02*
X89070000Y-43530000D01*
X91730000Y-46130000D02*
X89070000Y-46130000D01*
X91730000Y-47400000D02*
X91730000Y-48730000D01*
X91730000Y-48730000D02*
X90400000Y-48730000D01*
X49060000Y-85030000D02*
X49060000Y-86360000D01*
X47730000Y-85030000D02*
X49060000Y-85030000D01*
X46460000Y-85030000D02*
X46460000Y-87690000D01*
X46460000Y-87690000D02*
X43860000Y-87690000D01*
X46460000Y-85030000D02*
X43860000Y-85030000D01*
X43860000Y-85030000D02*
X43860000Y-87690000D01*
X65120000Y-73150000D02*
G75*
G03X65120000Y-73150000I-2620000J0D01*
G01*
X59920000Y-73150000D02*
X65080000Y-73150000D01*
X59920000Y-73110000D02*
X65080000Y-73110000D01*
X59921000Y-73070000D02*
X65079000Y-73070000D01*
X59922000Y-73030000D02*
X65078000Y-73030000D01*
X59924000Y-72990000D02*
X65076000Y-72990000D01*
X59927000Y-72950000D02*
X65073000Y-72950000D01*
X59931000Y-72910000D02*
X61460000Y-72910000D01*
X63540000Y-72910000D02*
X65069000Y-72910000D01*
X59935000Y-72870000D02*
X61460000Y-72870000D01*
X63540000Y-72870000D02*
X65065000Y-72870000D01*
X59939000Y-72830000D02*
X61460000Y-72830000D01*
X63540000Y-72830000D02*
X65061000Y-72830000D01*
X59944000Y-72790000D02*
X61460000Y-72790000D01*
X63540000Y-72790000D02*
X65056000Y-72790000D01*
X59950000Y-72750000D02*
X61460000Y-72750000D01*
X63540000Y-72750000D02*
X65050000Y-72750000D01*
X59957000Y-72710000D02*
X61460000Y-72710000D01*
X63540000Y-72710000D02*
X65043000Y-72710000D01*
X59964000Y-72670000D02*
X61460000Y-72670000D01*
X63540000Y-72670000D02*
X65036000Y-72670000D01*
X59972000Y-72630000D02*
X61460000Y-72630000D01*
X63540000Y-72630000D02*
X65028000Y-72630000D01*
X59980000Y-72590000D02*
X61460000Y-72590000D01*
X63540000Y-72590000D02*
X65020000Y-72590000D01*
X59989000Y-72550000D02*
X61460000Y-72550000D01*
X63540000Y-72550000D02*
X65011000Y-72550000D01*
X59999000Y-72510000D02*
X61460000Y-72510000D01*
X63540000Y-72510000D02*
X65001000Y-72510000D01*
X60009000Y-72470000D02*
X61460000Y-72470000D01*
X63540000Y-72470000D02*
X64991000Y-72470000D01*
X60020000Y-72429000D02*
X61460000Y-72429000D01*
X63540000Y-72429000D02*
X64980000Y-72429000D01*
X60032000Y-72389000D02*
X61460000Y-72389000D01*
X63540000Y-72389000D02*
X64968000Y-72389000D01*
X60045000Y-72349000D02*
X61460000Y-72349000D01*
X63540000Y-72349000D02*
X64955000Y-72349000D01*
X60058000Y-72309000D02*
X61460000Y-72309000D01*
X63540000Y-72309000D02*
X64942000Y-72309000D01*
X60072000Y-72269000D02*
X61460000Y-72269000D01*
X63540000Y-72269000D02*
X64928000Y-72269000D01*
X60086000Y-72229000D02*
X61460000Y-72229000D01*
X63540000Y-72229000D02*
X64914000Y-72229000D01*
X60102000Y-72189000D02*
X61460000Y-72189000D01*
X63540000Y-72189000D02*
X64898000Y-72189000D01*
X60118000Y-72149000D02*
X61460000Y-72149000D01*
X63540000Y-72149000D02*
X64882000Y-72149000D01*
X60135000Y-72109000D02*
X61460000Y-72109000D01*
X63540000Y-72109000D02*
X64865000Y-72109000D01*
X60152000Y-72069000D02*
X61460000Y-72069000D01*
X63540000Y-72069000D02*
X64848000Y-72069000D01*
X60171000Y-72029000D02*
X61460000Y-72029000D01*
X63540000Y-72029000D02*
X64829000Y-72029000D01*
X60190000Y-71989000D02*
X61460000Y-71989000D01*
X63540000Y-71989000D02*
X64810000Y-71989000D01*
X60210000Y-71949000D02*
X61460000Y-71949000D01*
X63540000Y-71949000D02*
X64790000Y-71949000D01*
X60232000Y-71909000D02*
X61460000Y-71909000D01*
X63540000Y-71909000D02*
X64768000Y-71909000D01*
X60253000Y-71869000D02*
X61460000Y-71869000D01*
X63540000Y-71869000D02*
X64747000Y-71869000D01*
X60276000Y-71829000D02*
X61460000Y-71829000D01*
X63540000Y-71829000D02*
X64724000Y-71829000D01*
X60300000Y-71789000D02*
X61460000Y-71789000D01*
X63540000Y-71789000D02*
X64700000Y-71789000D01*
X60325000Y-71749000D02*
X61460000Y-71749000D01*
X63540000Y-71749000D02*
X64675000Y-71749000D01*
X60351000Y-71709000D02*
X61460000Y-71709000D01*
X63540000Y-71709000D02*
X64649000Y-71709000D01*
X60378000Y-71669000D02*
X61460000Y-71669000D01*
X63540000Y-71669000D02*
X64622000Y-71669000D01*
X60405000Y-71629000D02*
X61460000Y-71629000D01*
X63540000Y-71629000D02*
X64595000Y-71629000D01*
X60435000Y-71589000D02*
X61460000Y-71589000D01*
X63540000Y-71589000D02*
X64565000Y-71589000D01*
X60465000Y-71549000D02*
X61460000Y-71549000D01*
X63540000Y-71549000D02*
X64535000Y-71549000D01*
X60496000Y-71509000D02*
X61460000Y-71509000D01*
X63540000Y-71509000D02*
X64504000Y-71509000D01*
X60529000Y-71469000D02*
X61460000Y-71469000D01*
X63540000Y-71469000D02*
X64471000Y-71469000D01*
X60563000Y-71429000D02*
X61460000Y-71429000D01*
X63540000Y-71429000D02*
X64437000Y-71429000D01*
X60599000Y-71389000D02*
X61460000Y-71389000D01*
X63540000Y-71389000D02*
X64401000Y-71389000D01*
X60636000Y-71349000D02*
X61460000Y-71349000D01*
X63540000Y-71349000D02*
X64364000Y-71349000D01*
X60674000Y-71309000D02*
X61460000Y-71309000D01*
X63540000Y-71309000D02*
X64326000Y-71309000D01*
X60715000Y-71269000D02*
X61460000Y-71269000D01*
X63540000Y-71269000D02*
X64285000Y-71269000D01*
X60757000Y-71229000D02*
X61460000Y-71229000D01*
X63540000Y-71229000D02*
X64243000Y-71229000D01*
X60801000Y-71189000D02*
X61460000Y-71189000D01*
X63540000Y-71189000D02*
X64199000Y-71189000D01*
X60847000Y-71149000D02*
X61460000Y-71149000D01*
X63540000Y-71149000D02*
X64153000Y-71149000D01*
X60895000Y-71109000D02*
X61460000Y-71109000D01*
X63540000Y-71109000D02*
X64105000Y-71109000D01*
X60946000Y-71069000D02*
X61460000Y-71069000D01*
X63540000Y-71069000D02*
X64054000Y-71069000D01*
X61000000Y-71029000D02*
X61460000Y-71029000D01*
X63540000Y-71029000D02*
X64000000Y-71029000D01*
X61057000Y-70989000D02*
X61460000Y-70989000D01*
X63540000Y-70989000D02*
X63943000Y-70989000D01*
X61117000Y-70949000D02*
X61460000Y-70949000D01*
X63540000Y-70949000D02*
X63883000Y-70949000D01*
X61181000Y-70909000D02*
X61460000Y-70909000D01*
X63540000Y-70909000D02*
X63819000Y-70909000D01*
X61249000Y-70869000D02*
X61460000Y-70869000D01*
X63540000Y-70869000D02*
X63751000Y-70869000D01*
X61322000Y-70829000D02*
X63678000Y-70829000D01*
X61402000Y-70789000D02*
X63598000Y-70789000D01*
X61489000Y-70749000D02*
X63511000Y-70749000D01*
X61585000Y-70709000D02*
X63415000Y-70709000D01*
X61695000Y-70669000D02*
X63305000Y-70669000D01*
X61823000Y-70629000D02*
X63177000Y-70629000D01*
X61982000Y-70589000D02*
X63018000Y-70589000D01*
X62216000Y-70549000D02*
X62784000Y-70549000D01*
X61025000Y-75954775D02*
X61025000Y-75454775D01*
X60775000Y-75704775D02*
X61275000Y-75704775D01*
D12*
G36*
X66272833Y-31601833D02*
G01*
X65997667Y-31601833D01*
X65997667Y-31750000D01*
X66275153Y-31750000D01*
X66268701Y-31850014D01*
X66262250Y-31950028D01*
X66135250Y-31950555D01*
X66008250Y-31951083D01*
X66001617Y-32019875D01*
X65994984Y-32088666D01*
X66272833Y-32088666D01*
X66272833Y-32300333D01*
X65764833Y-32300333D01*
X65764833Y-31390166D01*
X66272833Y-31390166D01*
X66272833Y-31601833D01*
X66272833Y-31601833D01*
G37*
X66272833Y-31601833D02*
X65997667Y-31601833D01*
X65997667Y-31750000D01*
X66275153Y-31750000D01*
X66268701Y-31850014D01*
X66262250Y-31950028D01*
X66135250Y-31950555D01*
X66008250Y-31951083D01*
X66001617Y-32019875D01*
X65994984Y-32088666D01*
X66272833Y-32088666D01*
X66272833Y-32300333D01*
X65764833Y-32300333D01*
X65764833Y-31390166D01*
X66272833Y-31390166D01*
X66272833Y-31601833D01*
G36*
X65379061Y-31743711D02*
G01*
X65384872Y-32086673D01*
X65516644Y-32092961D01*
X65648417Y-32099250D01*
X65654868Y-32199791D01*
X65661319Y-32300333D01*
X65128991Y-32300333D01*
X65134704Y-31850541D01*
X65140417Y-31400750D01*
X65373250Y-31400750D01*
X65379061Y-31743711D01*
X65379061Y-31743711D01*
G37*
X65379061Y-31743711D02*
X65384872Y-32086673D01*
X65516644Y-32092961D01*
X65648417Y-32099250D01*
X65654868Y-32199791D01*
X65661319Y-32300333D01*
X65128991Y-32300333D01*
X65134704Y-31850541D01*
X65140417Y-31400750D01*
X65373250Y-31400750D01*
X65379061Y-31743711D01*
G36*
X64591228Y-31395920D02*
G01*
X64716875Y-31404245D01*
X64808497Y-31416996D01*
X64874383Y-31437327D01*
X64922823Y-31468391D01*
X64962105Y-31513340D01*
X64982598Y-31544775D01*
X65017686Y-31638197D01*
X65020849Y-31740087D01*
X64994692Y-31838335D01*
X64941823Y-31920832D01*
X64892982Y-31961124D01*
X64812489Y-31993217D01*
X64706381Y-32003901D01*
X64701208Y-32003920D01*
X64579500Y-32004000D01*
X64579500Y-32300333D01*
X64346667Y-32300333D01*
X64346667Y-31707666D01*
X64579500Y-31707666D01*
X64581165Y-31770440D01*
X64589873Y-31801754D01*
X64611190Y-31812457D01*
X64633808Y-31813500D01*
X64693117Y-31804853D01*
X64729058Y-31791588D01*
X64759876Y-31754231D01*
X64769973Y-31698768D01*
X64757477Y-31644996D01*
X64744600Y-31627233D01*
X64706844Y-31609482D01*
X64650916Y-31601839D01*
X64649350Y-31601833D01*
X64608012Y-31603697D01*
X64587400Y-31616578D01*
X64580300Y-31651406D01*
X64579500Y-31707666D01*
X64346667Y-31707666D01*
X64346667Y-31383875D01*
X64591228Y-31395920D01*
X64591228Y-31395920D01*
G37*
X64591228Y-31395920D02*
X64716875Y-31404245D01*
X64808497Y-31416996D01*
X64874383Y-31437327D01*
X64922823Y-31468391D01*
X64962105Y-31513340D01*
X64982598Y-31544775D01*
X65017686Y-31638197D01*
X65020849Y-31740087D01*
X64994692Y-31838335D01*
X64941823Y-31920832D01*
X64892982Y-31961124D01*
X64812489Y-31993217D01*
X64706381Y-32003901D01*
X64701208Y-32003920D01*
X64579500Y-32004000D01*
X64579500Y-32300333D01*
X64346667Y-32300333D01*
X64346667Y-31707666D01*
X64579500Y-31707666D01*
X64581165Y-31770440D01*
X64589873Y-31801754D01*
X64611190Y-31812457D01*
X64633808Y-31813500D01*
X64693117Y-31804853D01*
X64729058Y-31791588D01*
X64759876Y-31754231D01*
X64769973Y-31698768D01*
X64757477Y-31644996D01*
X64744600Y-31627233D01*
X64706844Y-31609482D01*
X64650916Y-31601839D01*
X64649350Y-31601833D01*
X64608012Y-31603697D01*
X64587400Y-31616578D01*
X64580300Y-31651406D01*
X64579500Y-31707666D01*
X64346667Y-31707666D01*
X64346667Y-31383875D01*
X64591228Y-31395920D01*
G36*
X63114868Y-31501291D02*
G01*
X63121319Y-31601833D01*
X62843833Y-31601833D01*
X62843833Y-31750000D01*
X63097833Y-31750000D01*
X63097833Y-31938387D01*
X62976125Y-31944735D01*
X62907566Y-31949429D01*
X62870565Y-31958475D01*
X62854385Y-31978075D01*
X62848291Y-32014431D01*
X62847862Y-32018832D01*
X62841307Y-32086581D01*
X62974862Y-32092915D01*
X63108417Y-32099250D01*
X63114868Y-32199791D01*
X63121319Y-32300333D01*
X62588991Y-32300333D01*
X62594704Y-31850541D01*
X62600417Y-31400750D01*
X63108417Y-31400750D01*
X63114868Y-31501291D01*
X63114868Y-31501291D01*
G37*
X63114868Y-31501291D02*
X63121319Y-31601833D01*
X62843833Y-31601833D01*
X62843833Y-31750000D01*
X63097833Y-31750000D01*
X63097833Y-31938387D01*
X62976125Y-31944735D01*
X62907566Y-31949429D01*
X62870565Y-31958475D01*
X62854385Y-31978075D01*
X62848291Y-32014431D01*
X62847862Y-32018832D01*
X62841307Y-32086581D01*
X62974862Y-32092915D01*
X63108417Y-32099250D01*
X63114868Y-32199791D01*
X63121319Y-32300333D01*
X62588991Y-32300333D01*
X62594704Y-31850541D01*
X62600417Y-31400750D01*
X63108417Y-31400750D01*
X63114868Y-31501291D01*
G36*
X62051228Y-31395920D02*
G01*
X62178208Y-31404455D01*
X62268423Y-31416139D01*
X62327380Y-31431833D01*
X62348572Y-31442549D01*
X62421794Y-31512658D01*
X62466483Y-31601810D01*
X62482835Y-31700346D01*
X62471046Y-31798607D01*
X62431313Y-31886933D01*
X62363833Y-31955666D01*
X62337820Y-31971222D01*
X62279681Y-31990117D01*
X62201656Y-32001958D01*
X62156968Y-32004000D01*
X62039500Y-32004000D01*
X62039500Y-32300333D01*
X61806667Y-32300333D01*
X61806667Y-31707666D01*
X62039500Y-31707666D01*
X62041165Y-31770440D01*
X62049873Y-31801754D01*
X62071190Y-31812457D01*
X62093808Y-31813500D01*
X62153117Y-31804853D01*
X62189058Y-31791588D01*
X62219876Y-31754231D01*
X62229973Y-31698768D01*
X62217477Y-31644996D01*
X62204600Y-31627233D01*
X62166844Y-31609482D01*
X62110916Y-31601839D01*
X62109350Y-31601833D01*
X62068012Y-31603697D01*
X62047400Y-31616578D01*
X62040300Y-31651406D01*
X62039500Y-31707666D01*
X61806667Y-31707666D01*
X61806667Y-31383875D01*
X62051228Y-31395920D01*
X62051228Y-31395920D01*
G37*
X62051228Y-31395920D02*
X62178208Y-31404455D01*
X62268423Y-31416139D01*
X62327380Y-31431833D01*
X62348572Y-31442549D01*
X62421794Y-31512658D01*
X62466483Y-31601810D01*
X62482835Y-31700346D01*
X62471046Y-31798607D01*
X62431313Y-31886933D01*
X62363833Y-31955666D01*
X62337820Y-31971222D01*
X62279681Y-31990117D01*
X62201656Y-32001958D01*
X62156968Y-32004000D01*
X62039500Y-32004000D01*
X62039500Y-32300333D01*
X61806667Y-32300333D01*
X61806667Y-31707666D01*
X62039500Y-31707666D01*
X62041165Y-31770440D01*
X62049873Y-31801754D01*
X62071190Y-31812457D01*
X62093808Y-31813500D01*
X62153117Y-31804853D01*
X62189058Y-31791588D01*
X62219876Y-31754231D01*
X62229973Y-31698768D01*
X62217477Y-31644996D01*
X62204600Y-31627233D01*
X62166844Y-31609482D01*
X62110916Y-31601839D01*
X62109350Y-31601833D01*
X62068012Y-31603697D01*
X62047400Y-31616578D01*
X62040300Y-31651406D01*
X62039500Y-31707666D01*
X61806667Y-31707666D01*
X61806667Y-31383875D01*
X62051228Y-31395920D01*
G36*
X63859082Y-31403548D02*
G01*
X63934098Y-31429642D01*
X64043791Y-31500973D01*
X64125281Y-31598118D01*
X64176472Y-31713564D01*
X64195267Y-31839802D01*
X64179572Y-31969318D01*
X64127290Y-32094603D01*
X64122054Y-32103266D01*
X64039132Y-32199247D01*
X63930495Y-32268777D01*
X63805306Y-32309399D01*
X63672725Y-32318657D01*
X63541913Y-32294097D01*
X63489262Y-32272895D01*
X63368429Y-32194547D01*
X63280839Y-32093916D01*
X63228069Y-31976811D01*
X63211694Y-31849042D01*
X63212156Y-31846202D01*
X63461189Y-31846202D01*
X63478500Y-31939614D01*
X63480016Y-31943356D01*
X63531586Y-32018406D01*
X63606171Y-32066091D01*
X63693175Y-32084779D01*
X63782003Y-32072841D01*
X63862057Y-32028646D01*
X63885605Y-32005747D01*
X63936651Y-31921958D01*
X63946482Y-31834502D01*
X63915310Y-31748421D01*
X63872533Y-31694966D01*
X63818664Y-31648453D01*
X63767532Y-31627534D01*
X63704824Y-31623000D01*
X63607809Y-31640806D01*
X63531256Y-31689084D01*
X63480578Y-31760121D01*
X63461189Y-31846202D01*
X63212156Y-31846202D01*
X63233287Y-31716418D01*
X63294424Y-31584747D01*
X63300247Y-31575682D01*
X63376566Y-31495229D01*
X63480833Y-31435433D01*
X63602825Y-31398651D01*
X63732316Y-31387237D01*
X63859082Y-31403548D01*
X63859082Y-31403548D01*
G37*
X63859082Y-31403548D02*
X63934098Y-31429642D01*
X64043791Y-31500973D01*
X64125281Y-31598118D01*
X64176472Y-31713564D01*
X64195267Y-31839802D01*
X64179572Y-31969318D01*
X64127290Y-32094603D01*
X64122054Y-32103266D01*
X64039132Y-32199247D01*
X63930495Y-32268777D01*
X63805306Y-32309399D01*
X63672725Y-32318657D01*
X63541913Y-32294097D01*
X63489262Y-32272895D01*
X63368429Y-32194547D01*
X63280839Y-32093916D01*
X63228069Y-31976811D01*
X63211694Y-31849042D01*
X63212156Y-31846202D01*
X63461189Y-31846202D01*
X63478500Y-31939614D01*
X63480016Y-31943356D01*
X63531586Y-32018406D01*
X63606171Y-32066091D01*
X63693175Y-32084779D01*
X63782003Y-32072841D01*
X63862057Y-32028646D01*
X63885605Y-32005747D01*
X63936651Y-31921958D01*
X63946482Y-31834502D01*
X63915310Y-31748421D01*
X63872533Y-31694966D01*
X63818664Y-31648453D01*
X63767532Y-31627534D01*
X63704824Y-31623000D01*
X63607809Y-31640806D01*
X63531256Y-31689084D01*
X63480578Y-31760121D01*
X63461189Y-31846202D01*
X63212156Y-31846202D01*
X63233287Y-31716418D01*
X63294424Y-31584747D01*
X63300247Y-31575682D01*
X63376566Y-31495229D01*
X63480833Y-31435433D01*
X63602825Y-31398651D01*
X63732316Y-31387237D01*
X63859082Y-31403548D01*
G36*
X65426167Y-32787166D02*
G01*
X65151000Y-32787166D01*
X65151000Y-32935333D01*
X65405000Y-32935333D01*
X65405000Y-33125833D01*
X65151000Y-33125833D01*
X65151000Y-33274000D01*
X65426167Y-33274000D01*
X65426167Y-33485666D01*
X64918167Y-33485666D01*
X64918167Y-32575500D01*
X65426167Y-32575500D01*
X65426167Y-32787166D01*
X65426167Y-32787166D01*
G37*
X65426167Y-32787166D02*
X65151000Y-32787166D01*
X65151000Y-32935333D01*
X65405000Y-32935333D01*
X65405000Y-33125833D01*
X65151000Y-33125833D01*
X65151000Y-33274000D01*
X65426167Y-33274000D01*
X65426167Y-33485666D01*
X64918167Y-33485666D01*
X64918167Y-32575500D01*
X65426167Y-32575500D01*
X65426167Y-32787166D01*
G36*
X64759259Y-32579050D02*
G01*
X64802486Y-32588418D01*
X64812333Y-32597546D01*
X64804368Y-32622680D01*
X64782065Y-32680806D01*
X64747808Y-32766028D01*
X64703985Y-32872447D01*
X64652980Y-32994168D01*
X64628208Y-33052629D01*
X64444082Y-33485666D01*
X64352587Y-33485666D01*
X64290817Y-33481317D01*
X64256925Y-33464319D01*
X64240707Y-33438041D01*
X64164710Y-33259455D01*
X64095177Y-33094032D01*
X64033772Y-32945872D01*
X63982160Y-32819076D01*
X63942006Y-32717743D01*
X63914972Y-32645975D01*
X63902724Y-32607870D01*
X63902167Y-32604002D01*
X63911778Y-32586437D01*
X63946052Y-32578738D01*
X64013145Y-32579263D01*
X64022562Y-32579735D01*
X64142958Y-32586083D01*
X64244432Y-32837938D01*
X64283114Y-32933121D01*
X64316223Y-33013043D01*
X64340543Y-33070055D01*
X64352860Y-33096503D01*
X64353458Y-33097346D01*
X64363465Y-33081667D01*
X64385631Y-33033425D01*
X64416940Y-32959575D01*
X64454374Y-32867075D01*
X64464963Y-32840253D01*
X64568917Y-32575608D01*
X64690625Y-32575554D01*
X64759259Y-32579050D01*
X64759259Y-32579050D01*
G37*
X64759259Y-32579050D02*
X64802486Y-32588418D01*
X64812333Y-32597546D01*
X64804368Y-32622680D01*
X64782065Y-32680806D01*
X64747808Y-32766028D01*
X64703985Y-32872447D01*
X64652980Y-32994168D01*
X64628208Y-33052629D01*
X64444082Y-33485666D01*
X64352587Y-33485666D01*
X64290817Y-33481317D01*
X64256925Y-33464319D01*
X64240707Y-33438041D01*
X64164710Y-33259455D01*
X64095177Y-33094032D01*
X64033772Y-32945872D01*
X63982160Y-32819076D01*
X63942006Y-32717743D01*
X63914972Y-32645975D01*
X63902724Y-32607870D01*
X63902167Y-32604002D01*
X63911778Y-32586437D01*
X63946052Y-32578738D01*
X64013145Y-32579263D01*
X64022562Y-32579735D01*
X64142958Y-32586083D01*
X64244432Y-32837938D01*
X64283114Y-32933121D01*
X64316223Y-33013043D01*
X64340543Y-33070055D01*
X64352860Y-33096503D01*
X64353458Y-33097346D01*
X64363465Y-33081667D01*
X64385631Y-33033425D01*
X64416940Y-32959575D01*
X64454374Y-32867075D01*
X64464963Y-32840253D01*
X64568917Y-32575608D01*
X64690625Y-32575554D01*
X64759259Y-32579050D01*
G36*
X63796333Y-33485666D02*
G01*
X63563500Y-33485666D01*
X63563500Y-32575500D01*
X63796333Y-32575500D01*
X63796333Y-33485666D01*
X63796333Y-33485666D01*
G37*
X63796333Y-33485666D02*
X63563500Y-33485666D01*
X63563500Y-32575500D01*
X63796333Y-32575500D01*
X63796333Y-33485666D01*
G36*
X63123422Y-32583523D02*
G01*
X63178935Y-32594230D01*
X63223329Y-32612196D01*
X63311631Y-32677547D01*
X63365801Y-32759678D01*
X63386084Y-32850667D01*
X63372726Y-32942591D01*
X63325973Y-33027527D01*
X63246070Y-33097554D01*
X63207626Y-33118346D01*
X63216828Y-33135197D01*
X63246939Y-33178134D01*
X63292760Y-33239918D01*
X63329219Y-33287679D01*
X63383589Y-33359663D01*
X63426547Y-33419377D01*
X63452480Y-33458858D01*
X63457552Y-33469791D01*
X63438303Y-33477864D01*
X63387814Y-33483580D01*
X63319656Y-33485666D01*
X63181645Y-33485666D01*
X63076239Y-33324200D01*
X62970833Y-33162735D01*
X62970833Y-33485666D01*
X62715991Y-33485666D01*
X62721704Y-33035875D01*
X62723787Y-32871833D01*
X62970833Y-32871833D01*
X62972607Y-32934693D01*
X62981423Y-32966054D01*
X63002526Y-32976714D01*
X63022238Y-32977666D01*
X63076698Y-32964315D01*
X63106905Y-32944404D01*
X63137327Y-32890130D01*
X63127563Y-32835397D01*
X63093123Y-32798950D01*
X63033736Y-32766405D01*
X62995514Y-32769283D01*
X62975571Y-32809303D01*
X62970833Y-32871833D01*
X62723787Y-32871833D01*
X62727417Y-32586083D01*
X62939083Y-32580446D01*
X63047010Y-32579324D01*
X63123422Y-32583523D01*
X63123422Y-32583523D01*
G37*
X63123422Y-32583523D02*
X63178935Y-32594230D01*
X63223329Y-32612196D01*
X63311631Y-32677547D01*
X63365801Y-32759678D01*
X63386084Y-32850667D01*
X63372726Y-32942591D01*
X63325973Y-33027527D01*
X63246070Y-33097554D01*
X63207626Y-33118346D01*
X63216828Y-33135197D01*
X63246939Y-33178134D01*
X63292760Y-33239918D01*
X63329219Y-33287679D01*
X63383589Y-33359663D01*
X63426547Y-33419377D01*
X63452480Y-33458858D01*
X63457552Y-33469791D01*
X63438303Y-33477864D01*
X63387814Y-33483580D01*
X63319656Y-33485666D01*
X63181645Y-33485666D01*
X63076239Y-33324200D01*
X62970833Y-33162735D01*
X62970833Y-33485666D01*
X62715991Y-33485666D01*
X62721704Y-33035875D01*
X62723787Y-32871833D01*
X62970833Y-32871833D01*
X62972607Y-32934693D01*
X62981423Y-32966054D01*
X63002526Y-32976714D01*
X63022238Y-32977666D01*
X63076698Y-32964315D01*
X63106905Y-32944404D01*
X63137327Y-32890130D01*
X63127563Y-32835397D01*
X63093123Y-32798950D01*
X63033736Y-32766405D01*
X62995514Y-32769283D01*
X62975571Y-32809303D01*
X62970833Y-32871833D01*
X62723787Y-32871833D01*
X62727417Y-32586083D01*
X62939083Y-32580446D01*
X63047010Y-32579324D01*
X63123422Y-32583523D01*
G36*
X62074241Y-32578727D02*
G01*
X62174308Y-32587198D01*
X62253879Y-32599099D01*
X62255416Y-32599424D01*
X62370804Y-32643750D01*
X62464328Y-32718189D01*
X62533548Y-32815241D01*
X62576025Y-32927403D01*
X62589319Y-33047177D01*
X62570992Y-33167060D01*
X62518604Y-33279553D01*
X62489343Y-33318700D01*
X62404997Y-33395401D01*
X62299154Y-33447453D01*
X62166229Y-33476810D01*
X62013042Y-33485459D01*
X61806667Y-33485666D01*
X61806667Y-32787166D01*
X62039500Y-32787166D01*
X62039500Y-33274000D01*
X62105026Y-33274000D01*
X62172006Y-33262735D01*
X62230222Y-33238751D01*
X62297135Y-33177092D01*
X62331001Y-33089949D01*
X62335833Y-33030583D01*
X62318720Y-32927865D01*
X62270045Y-32850284D01*
X62193804Y-32802038D01*
X62104051Y-32787166D01*
X62039500Y-32787166D01*
X61806667Y-32787166D01*
X61806667Y-32575500D01*
X61974958Y-32575500D01*
X62074241Y-32578727D01*
X62074241Y-32578727D01*
G37*
X62074241Y-32578727D02*
X62174308Y-32587198D01*
X62253879Y-32599099D01*
X62255416Y-32599424D01*
X62370804Y-32643750D01*
X62464328Y-32718189D01*
X62533548Y-32815241D01*
X62576025Y-32927403D01*
X62589319Y-33047177D01*
X62570992Y-33167060D01*
X62518604Y-33279553D01*
X62489343Y-33318700D01*
X62404997Y-33395401D01*
X62299154Y-33447453D01*
X62166229Y-33476810D01*
X62013042Y-33485459D01*
X61806667Y-33485666D01*
X61806667Y-32787166D01*
X62039500Y-32787166D01*
X62039500Y-33274000D01*
X62105026Y-33274000D01*
X62172006Y-33262735D01*
X62230222Y-33238751D01*
X62297135Y-33177092D01*
X62331001Y-33089949D01*
X62335833Y-33030583D01*
X62318720Y-32927865D01*
X62270045Y-32850284D01*
X62193804Y-32802038D01*
X62104051Y-32787166D01*
X62039500Y-32787166D01*
X61806667Y-32787166D01*
X61806667Y-32575500D01*
X61974958Y-32575500D01*
X62074241Y-32578727D01*
G36*
X69986373Y-33855989D02*
G01*
X70034210Y-33928521D01*
X70068449Y-33965496D01*
X70097004Y-33967819D01*
X70127788Y-33936393D01*
X70166063Y-33876504D01*
X70236167Y-33760833D01*
X70382999Y-33760833D01*
X70461938Y-33762675D01*
X70504442Y-33768978D01*
X70516284Y-33780909D01*
X70513867Y-33787291D01*
X70495354Y-33814818D01*
X70458066Y-33868106D01*
X70408021Y-33938603D01*
X70368583Y-33993666D01*
X70312974Y-34071454D01*
X70265706Y-34138354D01*
X70232885Y-34185677D01*
X70221815Y-34202443D01*
X70214291Y-34235788D01*
X70209335Y-34299708D01*
X70207703Y-34382484D01*
X70208085Y-34415103D01*
X70209137Y-34522676D01*
X70204874Y-34594954D01*
X70191907Y-34638927D01*
X70166848Y-34661589D01*
X70126309Y-34669932D01*
X70084096Y-34671000D01*
X70022088Y-34668240D01*
X69979214Y-34661246D01*
X69969944Y-34656888D01*
X69963924Y-34630922D01*
X69959183Y-34572519D01*
X69956353Y-34491567D01*
X69955833Y-34435370D01*
X69955833Y-34227962D01*
X69811545Y-34020856D01*
X69753704Y-33937517D01*
X69704101Y-33865463D01*
X69668157Y-33812606D01*
X69651546Y-33787291D01*
X69653252Y-33772793D01*
X69683550Y-33764442D01*
X69748204Y-33761061D01*
X69781030Y-33760833D01*
X69926225Y-33760833D01*
X69986373Y-33855989D01*
X69986373Y-33855989D01*
G37*
X69986373Y-33855989D02*
X70034210Y-33928521D01*
X70068449Y-33965496D01*
X70097004Y-33967819D01*
X70127788Y-33936393D01*
X70166063Y-33876504D01*
X70236167Y-33760833D01*
X70382999Y-33760833D01*
X70461938Y-33762675D01*
X70504442Y-33768978D01*
X70516284Y-33780909D01*
X70513867Y-33787291D01*
X70495354Y-33814818D01*
X70458066Y-33868106D01*
X70408021Y-33938603D01*
X70368583Y-33993666D01*
X70312974Y-34071454D01*
X70265706Y-34138354D01*
X70232885Y-34185677D01*
X70221815Y-34202443D01*
X70214291Y-34235788D01*
X70209335Y-34299708D01*
X70207703Y-34382484D01*
X70208085Y-34415103D01*
X70209137Y-34522676D01*
X70204874Y-34594954D01*
X70191907Y-34638927D01*
X70166848Y-34661589D01*
X70126309Y-34669932D01*
X70084096Y-34671000D01*
X70022088Y-34668240D01*
X69979214Y-34661246D01*
X69969944Y-34656888D01*
X69963924Y-34630922D01*
X69959183Y-34572519D01*
X69956353Y-34491567D01*
X69955833Y-34435370D01*
X69955833Y-34227962D01*
X69811545Y-34020856D01*
X69753704Y-33937517D01*
X69704101Y-33865463D01*
X69668157Y-33812606D01*
X69651546Y-33787291D01*
X69653252Y-33772793D01*
X69683550Y-33764442D01*
X69748204Y-33761061D01*
X69781030Y-33760833D01*
X69926225Y-33760833D01*
X69986373Y-33855989D01*
G36*
X69341232Y-33760585D02*
G01*
X69403073Y-33786540D01*
X69468429Y-33828252D01*
X69527911Y-33877573D01*
X69572133Y-33926359D01*
X69591706Y-33966461D01*
X69590897Y-33977246D01*
X69567362Y-34000688D01*
X69517798Y-34029606D01*
X69487039Y-34043584D01*
X69392174Y-34082918D01*
X69326382Y-34017125D01*
X69252324Y-33963202D01*
X69178789Y-33951293D01*
X69103982Y-33981440D01*
X69054133Y-34023300D01*
X69012080Y-34069980D01*
X68990575Y-34112830D01*
X68982912Y-34169760D01*
X68982167Y-34215428D01*
X68985217Y-34289584D01*
X68998229Y-34338650D01*
X69026994Y-34379664D01*
X69044038Y-34397461D01*
X69096234Y-34439485D01*
X69153249Y-34456968D01*
X69201252Y-34459333D01*
X69268073Y-34454170D01*
X69311845Y-34433584D01*
X69342544Y-34401125D01*
X69388494Y-34342916D01*
X69291164Y-34336465D01*
X69193833Y-34330013D01*
X69193833Y-34141833D01*
X69659500Y-34141833D01*
X69659500Y-34201491D01*
X69640578Y-34338448D01*
X69587581Y-34456931D01*
X69506163Y-34553084D01*
X69401979Y-34623051D01*
X69280683Y-34662978D01*
X69147929Y-34669009D01*
X69016557Y-34639903D01*
X68905653Y-34580222D01*
X68821289Y-34494453D01*
X68764002Y-34389918D01*
X68734333Y-34273937D01*
X68732821Y-34153830D01*
X68760003Y-34036919D01*
X68816419Y-33930523D01*
X68902608Y-33841964D01*
X68955289Y-33807621D01*
X69080713Y-33760149D01*
X69218278Y-33744592D01*
X69341232Y-33760585D01*
X69341232Y-33760585D01*
G37*
X69341232Y-33760585D02*
X69403073Y-33786540D01*
X69468429Y-33828252D01*
X69527911Y-33877573D01*
X69572133Y-33926359D01*
X69591706Y-33966461D01*
X69590897Y-33977246D01*
X69567362Y-34000688D01*
X69517798Y-34029606D01*
X69487039Y-34043584D01*
X69392174Y-34082918D01*
X69326382Y-34017125D01*
X69252324Y-33963202D01*
X69178789Y-33951293D01*
X69103982Y-33981440D01*
X69054133Y-34023300D01*
X69012080Y-34069980D01*
X68990575Y-34112830D01*
X68982912Y-34169760D01*
X68982167Y-34215428D01*
X68985217Y-34289584D01*
X68998229Y-34338650D01*
X69026994Y-34379664D01*
X69044038Y-34397461D01*
X69096234Y-34439485D01*
X69153249Y-34456968D01*
X69201252Y-34459333D01*
X69268073Y-34454170D01*
X69311845Y-34433584D01*
X69342544Y-34401125D01*
X69388494Y-34342916D01*
X69291164Y-34336465D01*
X69193833Y-34330013D01*
X69193833Y-34141833D01*
X69659500Y-34141833D01*
X69659500Y-34201491D01*
X69640578Y-34338448D01*
X69587581Y-34456931D01*
X69506163Y-34553084D01*
X69401979Y-34623051D01*
X69280683Y-34662978D01*
X69147929Y-34669009D01*
X69016557Y-34639903D01*
X68905653Y-34580222D01*
X68821289Y-34494453D01*
X68764002Y-34389918D01*
X68734333Y-34273937D01*
X68732821Y-34153830D01*
X68760003Y-34036919D01*
X68816419Y-33930523D01*
X68902608Y-33841964D01*
X68955289Y-33807621D01*
X69080713Y-33760149D01*
X69218278Y-33744592D01*
X69341232Y-33760585D01*
G36*
X67331167Y-34459333D02*
G01*
X67606333Y-34459333D01*
X67606333Y-34671000D01*
X67098333Y-34671000D01*
X67098333Y-33760833D01*
X67331167Y-33760833D01*
X67331167Y-34459333D01*
X67331167Y-34459333D01*
G37*
X67331167Y-34459333D02*
X67606333Y-34459333D01*
X67606333Y-34671000D01*
X67098333Y-34671000D01*
X67098333Y-33760833D01*
X67331167Y-33760833D01*
X67331167Y-34459333D01*
G36*
X65828333Y-34671000D02*
G01*
X65602252Y-34671000D01*
X65434834Y-34456195D01*
X65366837Y-34369351D01*
X65304042Y-34289873D01*
X65253261Y-34226335D01*
X65221307Y-34187315D01*
X65220460Y-34186320D01*
X65173504Y-34131250D01*
X65172835Y-34401125D01*
X65172167Y-34671000D01*
X65069861Y-34671000D01*
X65007157Y-34668299D01*
X64963489Y-34661440D01*
X64953444Y-34656888D01*
X64949223Y-34632396D01*
X64945506Y-34572047D01*
X64942494Y-34482317D01*
X64940388Y-34369683D01*
X64939388Y-34240621D01*
X64939333Y-34201805D01*
X64939333Y-33760833D01*
X65061042Y-33761765D01*
X65182750Y-33762697D01*
X65383833Y-34027413D01*
X65584917Y-34292128D01*
X65590841Y-34026481D01*
X65596765Y-33760833D01*
X65828333Y-33760833D01*
X65828333Y-34671000D01*
X65828333Y-34671000D01*
G37*
X65828333Y-34671000D02*
X65602252Y-34671000D01*
X65434834Y-34456195D01*
X65366837Y-34369351D01*
X65304042Y-34289873D01*
X65253261Y-34226335D01*
X65221307Y-34187315D01*
X65220460Y-34186320D01*
X65173504Y-34131250D01*
X65172835Y-34401125D01*
X65172167Y-34671000D01*
X65069861Y-34671000D01*
X65007157Y-34668299D01*
X64963489Y-34661440D01*
X64953444Y-34656888D01*
X64949223Y-34632396D01*
X64945506Y-34572047D01*
X64942494Y-34482317D01*
X64940388Y-34369683D01*
X64939388Y-34240621D01*
X64939333Y-34201805D01*
X64939333Y-33760833D01*
X65061042Y-33761765D01*
X65182750Y-33762697D01*
X65383833Y-34027413D01*
X65584917Y-34292128D01*
X65590841Y-34026481D01*
X65596765Y-33760833D01*
X65828333Y-33760833D01*
X65828333Y-34671000D01*
G36*
X64198500Y-34099500D02*
G01*
X64516000Y-34099500D01*
X64516000Y-33760833D01*
X64637708Y-33760848D01*
X64759417Y-33760863D01*
X64756856Y-34210640D01*
X64754295Y-34660416D01*
X64635986Y-34666739D01*
X64517678Y-34673062D01*
X64511547Y-34486822D01*
X64505417Y-34300583D01*
X64209083Y-34300583D01*
X64198500Y-34480500D01*
X64187917Y-34660416D01*
X64081270Y-34666659D01*
X64017127Y-34667488D01*
X63971525Y-34662694D01*
X63959562Y-34657839D01*
X63955055Y-34633052D01*
X63951087Y-34572426D01*
X63947872Y-34482456D01*
X63945624Y-34369637D01*
X63944557Y-34240463D01*
X63944500Y-34201805D01*
X63944500Y-33760833D01*
X64198500Y-33760833D01*
X64198500Y-34099500D01*
X64198500Y-34099500D01*
G37*
X64198500Y-34099500D02*
X64516000Y-34099500D01*
X64516000Y-33760833D01*
X64637708Y-33760848D01*
X64759417Y-33760863D01*
X64756856Y-34210640D01*
X64754295Y-34660416D01*
X64635986Y-34666739D01*
X64517678Y-34673062D01*
X64511547Y-34486822D01*
X64505417Y-34300583D01*
X64209083Y-34300583D01*
X64198500Y-34480500D01*
X64187917Y-34660416D01*
X64081270Y-34666659D01*
X64017127Y-34667488D01*
X63971525Y-34662694D01*
X63959562Y-34657839D01*
X63955055Y-34633052D01*
X63951087Y-34572426D01*
X63947872Y-34482456D01*
X63945624Y-34369637D01*
X63944557Y-34240463D01*
X63944500Y-34201805D01*
X63944500Y-33760833D01*
X64198500Y-33760833D01*
X64198500Y-34099500D01*
G36*
X63034333Y-33972500D02*
G01*
X62759167Y-33972500D01*
X62759167Y-34099500D01*
X63013167Y-34099500D01*
X63013167Y-34311166D01*
X62759167Y-34311166D01*
X62759167Y-34459333D01*
X63034333Y-34459333D01*
X63034333Y-34671000D01*
X62780333Y-34671000D01*
X62682116Y-34669760D01*
X62601326Y-34666385D01*
X62546201Y-34661385D01*
X62524979Y-34655272D01*
X62524955Y-34655125D01*
X62524656Y-34631200D01*
X62524459Y-34572757D01*
X62524356Y-34487614D01*
X62524340Y-34383584D01*
X62524402Y-34268484D01*
X62524535Y-34150131D01*
X62524733Y-34036339D01*
X62524986Y-33934924D01*
X62525287Y-33853703D01*
X62525629Y-33800490D01*
X62525804Y-33787291D01*
X62537998Y-33775319D01*
X62577209Y-33767257D01*
X62648222Y-33762608D01*
X62755826Y-33760874D01*
X62780333Y-33760833D01*
X63034333Y-33760833D01*
X63034333Y-33972500D01*
X63034333Y-33972500D01*
G37*
X63034333Y-33972500D02*
X62759167Y-33972500D01*
X62759167Y-34099500D01*
X63013167Y-34099500D01*
X63013167Y-34311166D01*
X62759167Y-34311166D01*
X62759167Y-34459333D01*
X63034333Y-34459333D01*
X63034333Y-34671000D01*
X62780333Y-34671000D01*
X62682116Y-34669760D01*
X62601326Y-34666385D01*
X62546201Y-34661385D01*
X62524979Y-34655272D01*
X62524955Y-34655125D01*
X62524656Y-34631200D01*
X62524459Y-34572757D01*
X62524356Y-34487614D01*
X62524340Y-34383584D01*
X62524402Y-34268484D01*
X62524535Y-34150131D01*
X62524733Y-34036339D01*
X62524986Y-33934924D01*
X62525287Y-33853703D01*
X62525629Y-33800490D01*
X62525804Y-33787291D01*
X62537998Y-33775319D01*
X62577209Y-33767257D01*
X62648222Y-33762608D01*
X62755826Y-33760874D01*
X62780333Y-33760833D01*
X63034333Y-33760833D01*
X63034333Y-33972500D01*
G36*
X62420500Y-33972500D02*
G01*
X62230000Y-33972500D01*
X62230000Y-34671000D01*
X61997167Y-34671000D01*
X61997167Y-33972500D01*
X61806667Y-33972500D01*
X61806667Y-33760833D01*
X62420500Y-33760833D01*
X62420500Y-33972500D01*
X62420500Y-33972500D01*
G37*
X62420500Y-33972500D02*
X62230000Y-33972500D01*
X62230000Y-34671000D01*
X61997167Y-34671000D01*
X61997167Y-33972500D01*
X61806667Y-33972500D01*
X61806667Y-33760833D01*
X62420500Y-33760833D01*
X62420500Y-33972500D01*
G36*
X59381318Y-31392630D02*
G01*
X59578332Y-31393639D01*
X59761410Y-31395339D01*
X59926224Y-31397746D01*
X60068444Y-31400878D01*
X60183744Y-31404750D01*
X60267795Y-31409381D01*
X60316268Y-31414786D01*
X60325000Y-31417303D01*
X60377917Y-31444309D01*
X60383571Y-31977792D01*
X60385166Y-32142077D01*
X60385814Y-32269304D01*
X60385176Y-32364742D01*
X60382913Y-32433661D01*
X60378686Y-32481331D01*
X60372157Y-32513023D01*
X60362986Y-32534006D01*
X60350834Y-32549551D01*
X60346529Y-32553970D01*
X60334524Y-32564642D01*
X60319217Y-32573370D01*
X60296545Y-32580350D01*
X60262445Y-32585777D01*
X60212853Y-32589846D01*
X60143707Y-32592752D01*
X60050944Y-32594690D01*
X59930500Y-32595855D01*
X59778313Y-32596442D01*
X59590319Y-32596646D01*
X59457167Y-32596666D01*
X58610500Y-32596666D01*
X58610500Y-33464500D01*
X59457167Y-33464500D01*
X59668891Y-33464570D01*
X59842343Y-33464909D01*
X59981585Y-33465710D01*
X60090675Y-33467168D01*
X60173677Y-33469475D01*
X60234650Y-33472824D01*
X60277656Y-33477410D01*
X60306755Y-33483425D01*
X60326009Y-33491062D01*
X60339479Y-33500516D01*
X60346167Y-33506833D01*
X60359373Y-33522163D01*
X60369509Y-33541970D01*
X60376981Y-33571606D01*
X60382192Y-33616423D01*
X60385545Y-33681774D01*
X60387444Y-33773011D01*
X60388295Y-33895485D01*
X60388499Y-34054549D01*
X60388500Y-34067750D01*
X60388326Y-34229696D01*
X60387537Y-34354663D01*
X60385728Y-34448000D01*
X60382494Y-34515061D01*
X60377433Y-34561198D01*
X60370141Y-34591762D01*
X60360212Y-34612106D01*
X60347244Y-34627581D01*
X60346167Y-34628666D01*
X60336745Y-34637130D01*
X60324594Y-34644383D01*
X60306589Y-34650520D01*
X60279604Y-34655633D01*
X60240514Y-34659816D01*
X60186191Y-34663162D01*
X60113511Y-34665764D01*
X60019348Y-34667716D01*
X59900575Y-34669111D01*
X59754068Y-34670043D01*
X59576700Y-34670604D01*
X59365346Y-34670888D01*
X59116879Y-34670989D01*
X58928000Y-34671000D01*
X58652940Y-34670972D01*
X58417086Y-34670826D01*
X58217312Y-34670469D01*
X58050491Y-34669805D01*
X57913496Y-34668741D01*
X57803200Y-34667182D01*
X57716477Y-34665034D01*
X57650199Y-34662203D01*
X57601240Y-34658595D01*
X57566472Y-34654115D01*
X57542770Y-34648670D01*
X57527006Y-34642165D01*
X57516053Y-34634506D01*
X57509434Y-34628267D01*
X57501392Y-34619478D01*
X57494441Y-34608383D01*
X57488514Y-34592060D01*
X57483543Y-34567590D01*
X57479461Y-34532051D01*
X57476201Y-34482522D01*
X57473696Y-34416083D01*
X57471878Y-34329812D01*
X57470680Y-34220788D01*
X57470034Y-34086091D01*
X57469874Y-33922799D01*
X57470131Y-33727991D01*
X57470740Y-33498748D01*
X57471632Y-33232147D01*
X57472393Y-33020652D01*
X57473638Y-32714659D01*
X57475034Y-32448496D01*
X57476632Y-32219662D01*
X57478484Y-32025655D01*
X57480643Y-31863971D01*
X57483160Y-31732109D01*
X57486088Y-31627566D01*
X57489479Y-31547841D01*
X57493385Y-31490430D01*
X57497859Y-31452832D01*
X57502952Y-31432543D01*
X57505591Y-31428259D01*
X57532239Y-31422294D01*
X57596889Y-31416817D01*
X57695214Y-31411846D01*
X57822884Y-31407397D01*
X57975573Y-31403487D01*
X58148951Y-31400134D01*
X58338690Y-31397353D01*
X58540462Y-31395162D01*
X58749939Y-31393577D01*
X58962793Y-31392615D01*
X59174695Y-31392294D01*
X59381318Y-31392630D01*
X59381318Y-31392630D01*
G37*
X59381318Y-31392630D02*
X59578332Y-31393639D01*
X59761410Y-31395339D01*
X59926224Y-31397746D01*
X60068444Y-31400878D01*
X60183744Y-31404750D01*
X60267795Y-31409381D01*
X60316268Y-31414786D01*
X60325000Y-31417303D01*
X60377917Y-31444309D01*
X60383571Y-31977792D01*
X60385166Y-32142077D01*
X60385814Y-32269304D01*
X60385176Y-32364742D01*
X60382913Y-32433661D01*
X60378686Y-32481331D01*
X60372157Y-32513023D01*
X60362986Y-32534006D01*
X60350834Y-32549551D01*
X60346529Y-32553970D01*
X60334524Y-32564642D01*
X60319217Y-32573370D01*
X60296545Y-32580350D01*
X60262445Y-32585777D01*
X60212853Y-32589846D01*
X60143707Y-32592752D01*
X60050944Y-32594690D01*
X59930500Y-32595855D01*
X59778313Y-32596442D01*
X59590319Y-32596646D01*
X59457167Y-32596666D01*
X58610500Y-32596666D01*
X58610500Y-33464500D01*
X59457167Y-33464500D01*
X59668891Y-33464570D01*
X59842343Y-33464909D01*
X59981585Y-33465710D01*
X60090675Y-33467168D01*
X60173677Y-33469475D01*
X60234650Y-33472824D01*
X60277656Y-33477410D01*
X60306755Y-33483425D01*
X60326009Y-33491062D01*
X60339479Y-33500516D01*
X60346167Y-33506833D01*
X60359373Y-33522163D01*
X60369509Y-33541970D01*
X60376981Y-33571606D01*
X60382192Y-33616423D01*
X60385545Y-33681774D01*
X60387444Y-33773011D01*
X60388295Y-33895485D01*
X60388499Y-34054549D01*
X60388500Y-34067750D01*
X60388326Y-34229696D01*
X60387537Y-34354663D01*
X60385728Y-34448000D01*
X60382494Y-34515061D01*
X60377433Y-34561198D01*
X60370141Y-34591762D01*
X60360212Y-34612106D01*
X60347244Y-34627581D01*
X60346167Y-34628666D01*
X60336745Y-34637130D01*
X60324594Y-34644383D01*
X60306589Y-34650520D01*
X60279604Y-34655633D01*
X60240514Y-34659816D01*
X60186191Y-34663162D01*
X60113511Y-34665764D01*
X60019348Y-34667716D01*
X59900575Y-34669111D01*
X59754068Y-34670043D01*
X59576700Y-34670604D01*
X59365346Y-34670888D01*
X59116879Y-34670989D01*
X58928000Y-34671000D01*
X58652940Y-34670972D01*
X58417086Y-34670826D01*
X58217312Y-34670469D01*
X58050491Y-34669805D01*
X57913496Y-34668741D01*
X57803200Y-34667182D01*
X57716477Y-34665034D01*
X57650199Y-34662203D01*
X57601240Y-34658595D01*
X57566472Y-34654115D01*
X57542770Y-34648670D01*
X57527006Y-34642165D01*
X57516053Y-34634506D01*
X57509434Y-34628267D01*
X57501392Y-34619478D01*
X57494441Y-34608383D01*
X57488514Y-34592060D01*
X57483543Y-34567590D01*
X57479461Y-34532051D01*
X57476201Y-34482522D01*
X57473696Y-34416083D01*
X57471878Y-34329812D01*
X57470680Y-34220788D01*
X57470034Y-34086091D01*
X57469874Y-33922799D01*
X57470131Y-33727991D01*
X57470740Y-33498748D01*
X57471632Y-33232147D01*
X57472393Y-33020652D01*
X57473638Y-32714659D01*
X57475034Y-32448496D01*
X57476632Y-32219662D01*
X57478484Y-32025655D01*
X57480643Y-31863971D01*
X57483160Y-31732109D01*
X57486088Y-31627566D01*
X57489479Y-31547841D01*
X57493385Y-31490430D01*
X57497859Y-31452832D01*
X57502952Y-31432543D01*
X57505591Y-31428259D01*
X57532239Y-31422294D01*
X57596889Y-31416817D01*
X57695214Y-31411846D01*
X57822884Y-31407397D01*
X57975573Y-31403487D01*
X58148951Y-31400134D01*
X58338690Y-31397353D01*
X58540462Y-31395162D01*
X58749939Y-31393577D01*
X58962793Y-31392615D01*
X59174695Y-31392294D01*
X59381318Y-31392630D01*
G36*
X55007255Y-31390178D02*
G01*
X55328109Y-31390244D01*
X55611416Y-31390406D01*
X55859566Y-31390708D01*
X56074953Y-31391194D01*
X56259969Y-31391906D01*
X56417007Y-31392889D01*
X56548459Y-31394185D01*
X56656717Y-31395838D01*
X56744174Y-31397892D01*
X56813224Y-31400389D01*
X56866257Y-31403374D01*
X56905666Y-31406889D01*
X56933845Y-31410978D01*
X56953185Y-31415684D01*
X56966080Y-31421051D01*
X56974921Y-31427122D01*
X56980667Y-31432499D01*
X56988659Y-31441366D01*
X56995577Y-31452807D01*
X57001498Y-31469751D01*
X57006499Y-31495127D01*
X57010658Y-31531865D01*
X57014052Y-31582893D01*
X57016760Y-31651140D01*
X57018857Y-31739537D01*
X57020424Y-31851012D01*
X57021536Y-31988494D01*
X57022271Y-32154912D01*
X57022708Y-32353196D01*
X57022923Y-32586274D01*
X57022994Y-32857077D01*
X57023000Y-33030583D01*
X57022981Y-33324274D01*
X57022870Y-33578564D01*
X57022588Y-33796382D01*
X57022055Y-33980661D01*
X57021192Y-34134331D01*
X57019920Y-34260323D01*
X57018158Y-34361570D01*
X57015827Y-34441001D01*
X57012848Y-34501549D01*
X57009141Y-34546144D01*
X57004627Y-34577718D01*
X56999225Y-34599201D01*
X56992857Y-34613526D01*
X56985443Y-34623623D01*
X56979604Y-34629728D01*
X56964238Y-34643348D01*
X56945289Y-34653680D01*
X56917327Y-34661089D01*
X56874921Y-34665941D01*
X56812639Y-34668599D01*
X56725051Y-34669429D01*
X56606726Y-34668796D01*
X56452232Y-34667066D01*
X56428471Y-34666770D01*
X56264704Y-34664343D01*
X56138430Y-34661438D01*
X56044806Y-34657704D01*
X55978993Y-34652793D01*
X55936149Y-34646355D01*
X55911434Y-34638040D01*
X55900691Y-34628666D01*
X55896172Y-34600563D01*
X55892091Y-34533343D01*
X55888513Y-34430221D01*
X55885500Y-34294413D01*
X55883117Y-34129134D01*
X55881427Y-33937598D01*
X55880492Y-33723021D01*
X55880324Y-33596791D01*
X55880000Y-32596666D01*
X55202667Y-32596666D01*
X55202667Y-34605099D01*
X55155623Y-34638049D01*
X55133823Y-34648975D01*
X55100116Y-34657269D01*
X55049142Y-34663266D01*
X54975541Y-34667301D01*
X54873951Y-34669706D01*
X54739011Y-34670815D01*
X54626457Y-34671000D01*
X54470871Y-34670800D01*
X54352034Y-34669903D01*
X54264361Y-34667856D01*
X54202268Y-34664209D01*
X54160172Y-34658510D01*
X54132487Y-34650311D01*
X54113629Y-34639159D01*
X54102000Y-34628666D01*
X54092170Y-34617604D01*
X54083991Y-34603352D01*
X54077313Y-34582191D01*
X54071984Y-34550401D01*
X54067850Y-34504265D01*
X54064762Y-34440062D01*
X54062566Y-34354074D01*
X54061112Y-34242582D01*
X54060247Y-34101867D01*
X54059819Y-33928210D01*
X54059678Y-33717892D01*
X54059667Y-33591500D01*
X54059667Y-32596666D01*
X53403500Y-32596666D01*
X53403500Y-33591500D01*
X53403447Y-33822561D01*
X53403189Y-34015008D01*
X53402573Y-34172560D01*
X53401447Y-34298936D01*
X53399659Y-34397854D01*
X53397059Y-34473035D01*
X53393493Y-34528195D01*
X53388811Y-34567056D01*
X53382860Y-34593335D01*
X53375488Y-34610752D01*
X53366544Y-34623026D01*
X53361167Y-34628666D01*
X53345256Y-34642310D01*
X53324676Y-34652666D01*
X53293844Y-34660184D01*
X53247176Y-34665316D01*
X53179086Y-34668512D01*
X53083991Y-34670223D01*
X52956308Y-34670900D01*
X52836710Y-34671000D01*
X52676247Y-34670576D01*
X52552750Y-34669081D01*
X52460858Y-34666183D01*
X52395209Y-34661546D01*
X52350444Y-34654838D01*
X52321201Y-34645724D01*
X52307543Y-34638049D01*
X52260500Y-34605099D01*
X52260500Y-31456067D01*
X52307543Y-31423116D01*
X52318389Y-31417881D01*
X52336683Y-31413223D01*
X52364768Y-31409110D01*
X52404984Y-31405508D01*
X52459674Y-31402384D01*
X52531180Y-31399706D01*
X52621842Y-31397441D01*
X52734003Y-31395554D01*
X52870004Y-31394015D01*
X53032188Y-31392788D01*
X53222895Y-31391843D01*
X53444467Y-31391144D01*
X53699247Y-31390661D01*
X53989575Y-31390358D01*
X54317794Y-31390205D01*
X54646460Y-31390166D01*
X55007255Y-31390178D01*
X55007255Y-31390178D01*
G37*
X55007255Y-31390178D02*
X55328109Y-31390244D01*
X55611416Y-31390406D01*
X55859566Y-31390708D01*
X56074953Y-31391194D01*
X56259969Y-31391906D01*
X56417007Y-31392889D01*
X56548459Y-31394185D01*
X56656717Y-31395838D01*
X56744174Y-31397892D01*
X56813224Y-31400389D01*
X56866257Y-31403374D01*
X56905666Y-31406889D01*
X56933845Y-31410978D01*
X56953185Y-31415684D01*
X56966080Y-31421051D01*
X56974921Y-31427122D01*
X56980667Y-31432499D01*
X56988659Y-31441366D01*
X56995577Y-31452807D01*
X57001498Y-31469751D01*
X57006499Y-31495127D01*
X57010658Y-31531865D01*
X57014052Y-31582893D01*
X57016760Y-31651140D01*
X57018857Y-31739537D01*
X57020424Y-31851012D01*
X57021536Y-31988494D01*
X57022271Y-32154912D01*
X57022708Y-32353196D01*
X57022923Y-32586274D01*
X57022994Y-32857077D01*
X57023000Y-33030583D01*
X57022981Y-33324274D01*
X57022870Y-33578564D01*
X57022588Y-33796382D01*
X57022055Y-33980661D01*
X57021192Y-34134331D01*
X57019920Y-34260323D01*
X57018158Y-34361570D01*
X57015827Y-34441001D01*
X57012848Y-34501549D01*
X57009141Y-34546144D01*
X57004627Y-34577718D01*
X56999225Y-34599201D01*
X56992857Y-34613526D01*
X56985443Y-34623623D01*
X56979604Y-34629728D01*
X56964238Y-34643348D01*
X56945289Y-34653680D01*
X56917327Y-34661089D01*
X56874921Y-34665941D01*
X56812639Y-34668599D01*
X56725051Y-34669429D01*
X56606726Y-34668796D01*
X56452232Y-34667066D01*
X56428471Y-34666770D01*
X56264704Y-34664343D01*
X56138430Y-34661438D01*
X56044806Y-34657704D01*
X55978993Y-34652793D01*
X55936149Y-34646355D01*
X55911434Y-34638040D01*
X55900691Y-34628666D01*
X55896172Y-34600563D01*
X55892091Y-34533343D01*
X55888513Y-34430221D01*
X55885500Y-34294413D01*
X55883117Y-34129134D01*
X55881427Y-33937598D01*
X55880492Y-33723021D01*
X55880324Y-33596791D01*
X55880000Y-32596666D01*
X55202667Y-32596666D01*
X55202667Y-34605099D01*
X55155623Y-34638049D01*
X55133823Y-34648975D01*
X55100116Y-34657269D01*
X55049142Y-34663266D01*
X54975541Y-34667301D01*
X54873951Y-34669706D01*
X54739011Y-34670815D01*
X54626457Y-34671000D01*
X54470871Y-34670800D01*
X54352034Y-34669903D01*
X54264361Y-34667856D01*
X54202268Y-34664209D01*
X54160172Y-34658510D01*
X54132487Y-34650311D01*
X54113629Y-34639159D01*
X54102000Y-34628666D01*
X54092170Y-34617604D01*
X54083991Y-34603352D01*
X54077313Y-34582191D01*
X54071984Y-34550401D01*
X54067850Y-34504265D01*
X54064762Y-34440062D01*
X54062566Y-34354074D01*
X54061112Y-34242582D01*
X54060247Y-34101867D01*
X54059819Y-33928210D01*
X54059678Y-33717892D01*
X54059667Y-33591500D01*
X54059667Y-32596666D01*
X53403500Y-32596666D01*
X53403500Y-33591500D01*
X53403447Y-33822561D01*
X53403189Y-34015008D01*
X53402573Y-34172560D01*
X53401447Y-34298936D01*
X53399659Y-34397854D01*
X53397059Y-34473035D01*
X53393493Y-34528195D01*
X53388811Y-34567056D01*
X53382860Y-34593335D01*
X53375488Y-34610752D01*
X53366544Y-34623026D01*
X53361167Y-34628666D01*
X53345256Y-34642310D01*
X53324676Y-34652666D01*
X53293844Y-34660184D01*
X53247176Y-34665316D01*
X53179086Y-34668512D01*
X53083991Y-34670223D01*
X52956308Y-34670900D01*
X52836710Y-34671000D01*
X52676247Y-34670576D01*
X52552750Y-34669081D01*
X52460858Y-34666183D01*
X52395209Y-34661546D01*
X52350444Y-34654838D01*
X52321201Y-34645724D01*
X52307543Y-34638049D01*
X52260500Y-34605099D01*
X52260500Y-31456067D01*
X52307543Y-31423116D01*
X52318389Y-31417881D01*
X52336683Y-31413223D01*
X52364768Y-31409110D01*
X52404984Y-31405508D01*
X52459674Y-31402384D01*
X52531180Y-31399706D01*
X52621842Y-31397441D01*
X52734003Y-31395554D01*
X52870004Y-31394015D01*
X53032188Y-31392788D01*
X53222895Y-31391843D01*
X53444467Y-31391144D01*
X53699247Y-31390661D01*
X53989575Y-31390358D01*
X54317794Y-31390205D01*
X54646460Y-31390166D01*
X55007255Y-31390178D01*
G36*
X50602376Y-31390258D02*
G01*
X50841722Y-31390581D01*
X51044839Y-31391206D01*
X51214780Y-31392203D01*
X51354595Y-31393643D01*
X51467339Y-31395597D01*
X51556063Y-31398135D01*
X51623818Y-31401327D01*
X51673658Y-31405245D01*
X51708634Y-31409960D01*
X51731798Y-31415540D01*
X51746203Y-31422058D01*
X51747790Y-31423116D01*
X51762189Y-31434256D01*
X51773302Y-31448441D01*
X51781555Y-31470826D01*
X51787373Y-31506565D01*
X51791182Y-31560813D01*
X51793407Y-31638724D01*
X51794474Y-31745452D01*
X51794808Y-31886153D01*
X51794833Y-31993104D01*
X51794518Y-32161251D01*
X51793379Y-32292033D01*
X51791126Y-32390419D01*
X51787471Y-32461373D01*
X51782122Y-32509863D01*
X51774792Y-32540855D01*
X51765189Y-32559315D01*
X51761571Y-32563404D01*
X51744101Y-32575031D01*
X51714444Y-32583672D01*
X51666955Y-32589738D01*
X51595987Y-32593643D01*
X51495897Y-32595799D01*
X51361037Y-32596619D01*
X51306488Y-32596666D01*
X50884667Y-32596666D01*
X50884667Y-34629714D01*
X50830372Y-34650357D01*
X50793806Y-34656396D01*
X50721876Y-34661738D01*
X50621549Y-34666109D01*
X50499791Y-34669236D01*
X50363570Y-34670843D01*
X50305251Y-34671000D01*
X50143604Y-34670457D01*
X50019299Y-34668633D01*
X49927353Y-34665237D01*
X49862787Y-34659976D01*
X49820620Y-34652557D01*
X49795870Y-34642690D01*
X49793337Y-34640969D01*
X49783837Y-34632569D01*
X49775891Y-34620039D01*
X49769331Y-34599734D01*
X49763992Y-34568006D01*
X49759708Y-34521209D01*
X49756315Y-34455697D01*
X49753644Y-34367822D01*
X49751532Y-34253939D01*
X49749811Y-34110401D01*
X49748317Y-33933561D01*
X49746883Y-33719773D01*
X49746173Y-33603803D01*
X49740096Y-32596666D01*
X49329643Y-32596666D01*
X49183843Y-32596185D01*
X49074640Y-32594453D01*
X48996308Y-32591043D01*
X48943119Y-32585525D01*
X48909344Y-32577469D01*
X48889257Y-32566446D01*
X48885928Y-32563404D01*
X48875534Y-32547918D01*
X48867504Y-32521497D01*
X48861550Y-32479174D01*
X48857382Y-32415984D01*
X48854710Y-32326959D01*
X48853244Y-32207134D01*
X48852696Y-32051542D01*
X48852667Y-31993104D01*
X48852759Y-31828667D01*
X48853320Y-31701409D01*
X48854774Y-31606175D01*
X48857548Y-31537812D01*
X48862066Y-31491163D01*
X48868754Y-31461076D01*
X48878038Y-31442396D01*
X48890342Y-31429967D01*
X48899710Y-31423116D01*
X48913069Y-31416452D01*
X48934731Y-31410736D01*
X48967750Y-31405897D01*
X49015177Y-31401864D01*
X49080063Y-31398568D01*
X49165463Y-31395937D01*
X49274426Y-31393901D01*
X49410006Y-31392388D01*
X49575255Y-31391330D01*
X49773225Y-31390654D01*
X50006968Y-31390290D01*
X50279536Y-31390168D01*
X50323750Y-31390166D01*
X50602376Y-31390258D01*
X50602376Y-31390258D01*
G37*
X50602376Y-31390258D02*
X50841722Y-31390581D01*
X51044839Y-31391206D01*
X51214780Y-31392203D01*
X51354595Y-31393643D01*
X51467339Y-31395597D01*
X51556063Y-31398135D01*
X51623818Y-31401327D01*
X51673658Y-31405245D01*
X51708634Y-31409960D01*
X51731798Y-31415540D01*
X51746203Y-31422058D01*
X51747790Y-31423116D01*
X51762189Y-31434256D01*
X51773302Y-31448441D01*
X51781555Y-31470826D01*
X51787373Y-31506565D01*
X51791182Y-31560813D01*
X51793407Y-31638724D01*
X51794474Y-31745452D01*
X51794808Y-31886153D01*
X51794833Y-31993104D01*
X51794518Y-32161251D01*
X51793379Y-32292033D01*
X51791126Y-32390419D01*
X51787471Y-32461373D01*
X51782122Y-32509863D01*
X51774792Y-32540855D01*
X51765189Y-32559315D01*
X51761571Y-32563404D01*
X51744101Y-32575031D01*
X51714444Y-32583672D01*
X51666955Y-32589738D01*
X51595987Y-32593643D01*
X51495897Y-32595799D01*
X51361037Y-32596619D01*
X51306488Y-32596666D01*
X50884667Y-32596666D01*
X50884667Y-34629714D01*
X50830372Y-34650357D01*
X50793806Y-34656396D01*
X50721876Y-34661738D01*
X50621549Y-34666109D01*
X50499791Y-34669236D01*
X50363570Y-34670843D01*
X50305251Y-34671000D01*
X50143604Y-34670457D01*
X50019299Y-34668633D01*
X49927353Y-34665237D01*
X49862787Y-34659976D01*
X49820620Y-34652557D01*
X49795870Y-34642690D01*
X49793337Y-34640969D01*
X49783837Y-34632569D01*
X49775891Y-34620039D01*
X49769331Y-34599734D01*
X49763992Y-34568006D01*
X49759708Y-34521209D01*
X49756315Y-34455697D01*
X49753644Y-34367822D01*
X49751532Y-34253939D01*
X49749811Y-34110401D01*
X49748317Y-33933561D01*
X49746883Y-33719773D01*
X49746173Y-33603803D01*
X49740096Y-32596666D01*
X49329643Y-32596666D01*
X49183843Y-32596185D01*
X49074640Y-32594453D01*
X48996308Y-32591043D01*
X48943119Y-32585525D01*
X48909344Y-32577469D01*
X48889257Y-32566446D01*
X48885928Y-32563404D01*
X48875534Y-32547918D01*
X48867504Y-32521497D01*
X48861550Y-32479174D01*
X48857382Y-32415984D01*
X48854710Y-32326959D01*
X48853244Y-32207134D01*
X48852696Y-32051542D01*
X48852667Y-31993104D01*
X48852759Y-31828667D01*
X48853320Y-31701409D01*
X48854774Y-31606175D01*
X48857548Y-31537812D01*
X48862066Y-31491163D01*
X48868754Y-31461076D01*
X48878038Y-31442396D01*
X48890342Y-31429967D01*
X48899710Y-31423116D01*
X48913069Y-31416452D01*
X48934731Y-31410736D01*
X48967750Y-31405897D01*
X49015177Y-31401864D01*
X49080063Y-31398568D01*
X49165463Y-31395937D01*
X49274426Y-31393901D01*
X49410006Y-31392388D01*
X49575255Y-31391330D01*
X49773225Y-31390654D01*
X50006968Y-31390290D01*
X50279536Y-31390168D01*
X50323750Y-31390166D01*
X50602376Y-31390258D01*
G36*
X68284117Y-33766018D02*
G01*
X68401966Y-33818111D01*
X68500189Y-33896749D01*
X68570368Y-33999364D01*
X68570815Y-34000320D01*
X68614104Y-34136369D01*
X68618874Y-34267179D01*
X68588936Y-34387960D01*
X68528102Y-34493922D01*
X68440183Y-34580276D01*
X68328991Y-34642232D01*
X68198338Y-34674999D01*
X68052034Y-34673787D01*
X68036652Y-34671606D01*
X67907390Y-34633297D01*
X67802423Y-34566119D01*
X67722781Y-34476553D01*
X67669499Y-34371083D01*
X67643607Y-34256189D01*
X67644761Y-34202442D01*
X67885195Y-34202442D01*
X67898873Y-34288609D01*
X67944313Y-34361734D01*
X68016268Y-34413995D01*
X68109492Y-34437572D01*
X68127932Y-34438166D01*
X68195962Y-34433401D01*
X68251482Y-34421478D01*
X68263672Y-34416372D01*
X68317283Y-34366015D01*
X68352545Y-34290775D01*
X68366315Y-34205278D01*
X68355454Y-34124149D01*
X68335298Y-34082922D01*
X68280222Y-34029618D01*
X68206969Y-33989074D01*
X68135943Y-33972509D01*
X68134458Y-33972500D01*
X68055245Y-33989364D01*
X67977741Y-34032745D01*
X67919589Y-34091824D01*
X67908523Y-34111055D01*
X67885195Y-34202442D01*
X67644761Y-34202442D01*
X67646139Y-34138356D01*
X67678126Y-34024064D01*
X67740601Y-33919797D01*
X67834596Y-33832037D01*
X67897010Y-33794704D01*
X68023220Y-33751746D01*
X68155062Y-33743040D01*
X68284117Y-33766018D01*
X68284117Y-33766018D01*
G37*
X68284117Y-33766018D02*
X68401966Y-33818111D01*
X68500189Y-33896749D01*
X68570368Y-33999364D01*
X68570815Y-34000320D01*
X68614104Y-34136369D01*
X68618874Y-34267179D01*
X68588936Y-34387960D01*
X68528102Y-34493922D01*
X68440183Y-34580276D01*
X68328991Y-34642232D01*
X68198338Y-34674999D01*
X68052034Y-34673787D01*
X68036652Y-34671606D01*
X67907390Y-34633297D01*
X67802423Y-34566119D01*
X67722781Y-34476553D01*
X67669499Y-34371083D01*
X67643607Y-34256189D01*
X67644761Y-34202442D01*
X67885195Y-34202442D01*
X67898873Y-34288609D01*
X67944313Y-34361734D01*
X68016268Y-34413995D01*
X68109492Y-34437572D01*
X68127932Y-34438166D01*
X68195962Y-34433401D01*
X68251482Y-34421478D01*
X68263672Y-34416372D01*
X68317283Y-34366015D01*
X68352545Y-34290775D01*
X68366315Y-34205278D01*
X68355454Y-34124149D01*
X68335298Y-34082922D01*
X68280222Y-34029618D01*
X68206969Y-33989074D01*
X68135943Y-33972509D01*
X68134458Y-33972500D01*
X68055245Y-33989364D01*
X67977741Y-34032745D01*
X67919589Y-34091824D01*
X67908523Y-34111055D01*
X67885195Y-34202442D01*
X67644761Y-34202442D01*
X67646139Y-34138356D01*
X67678126Y-34024064D01*
X67740601Y-33919797D01*
X67834596Y-33832037D01*
X67897010Y-33794704D01*
X68023220Y-33751746D01*
X68155062Y-33743040D01*
X68284117Y-33766018D01*
G36*
X66617815Y-33766140D02*
G01*
X66736672Y-33814264D01*
X66835170Y-33897138D01*
X66875143Y-33947865D01*
X66907538Y-33997701D01*
X66926805Y-34042292D01*
X66936304Y-34095504D01*
X66939391Y-34171205D01*
X66939583Y-34213994D01*
X66937875Y-34305912D01*
X66930796Y-34369260D01*
X66915413Y-34417732D01*
X66888794Y-34465022D01*
X66884385Y-34471751D01*
X66800240Y-34562531D01*
X66688741Y-34629289D01*
X66559674Y-34668321D01*
X66422824Y-34675919D01*
X66364409Y-34668670D01*
X66239458Y-34631340D01*
X66138159Y-34565851D01*
X66087716Y-34515146D01*
X66018750Y-34411973D01*
X65984089Y-34294900D01*
X65982733Y-34240611D01*
X66224598Y-34240611D01*
X66250361Y-34317885D01*
X66294473Y-34375173D01*
X66337893Y-34414375D01*
X66383736Y-34433005D01*
X66450659Y-34438124D01*
X66460908Y-34438166D01*
X66535594Y-34433137D01*
X66589531Y-34413181D01*
X66637624Y-34376402D01*
X66682647Y-34328960D01*
X66702560Y-34280806D01*
X66706750Y-34218059D01*
X66700908Y-34148523D01*
X66677047Y-34096952D01*
X66637551Y-34052282D01*
X66586663Y-34008334D01*
X66537121Y-33988099D01*
X66467707Y-33983087D01*
X66464631Y-33983083D01*
X66363727Y-34000271D01*
X66287836Y-34050329D01*
X66240059Y-34130995D01*
X66233983Y-34151248D01*
X66224598Y-34240611D01*
X65982733Y-34240611D01*
X65980743Y-34160999D01*
X66009275Y-34028754D01*
X66071956Y-33918817D01*
X66165319Y-33834075D01*
X66285898Y-33777412D01*
X66430227Y-33751715D01*
X66473917Y-33750460D01*
X66617815Y-33766140D01*
X66617815Y-33766140D01*
G37*
X66617815Y-33766140D02*
X66736672Y-33814264D01*
X66835170Y-33897138D01*
X66875143Y-33947865D01*
X66907538Y-33997701D01*
X66926805Y-34042292D01*
X66936304Y-34095504D01*
X66939391Y-34171205D01*
X66939583Y-34213994D01*
X66937875Y-34305912D01*
X66930796Y-34369260D01*
X66915413Y-34417732D01*
X66888794Y-34465022D01*
X66884385Y-34471751D01*
X66800240Y-34562531D01*
X66688741Y-34629289D01*
X66559674Y-34668321D01*
X66422824Y-34675919D01*
X66364409Y-34668670D01*
X66239458Y-34631340D01*
X66138159Y-34565851D01*
X66087716Y-34515146D01*
X66018750Y-34411973D01*
X65984089Y-34294900D01*
X65982733Y-34240611D01*
X66224598Y-34240611D01*
X66250361Y-34317885D01*
X66294473Y-34375173D01*
X66337893Y-34414375D01*
X66383736Y-34433005D01*
X66450659Y-34438124D01*
X66460908Y-34438166D01*
X66535594Y-34433137D01*
X66589531Y-34413181D01*
X66637624Y-34376402D01*
X66682647Y-34328960D01*
X66702560Y-34280806D01*
X66706750Y-34218059D01*
X66700908Y-34148523D01*
X66677047Y-34096952D01*
X66637551Y-34052282D01*
X66586663Y-34008334D01*
X66537121Y-33988099D01*
X66467707Y-33983087D01*
X66464631Y-33983083D01*
X66363727Y-34000271D01*
X66287836Y-34050329D01*
X66240059Y-34130995D01*
X66233983Y-34151248D01*
X66224598Y-34240611D01*
X65982733Y-34240611D01*
X65980743Y-34160999D01*
X66009275Y-34028754D01*
X66071956Y-33918817D01*
X66165319Y-33834075D01*
X66285898Y-33777412D01*
X66430227Y-33751715D01*
X66473917Y-33750460D01*
X66617815Y-33766140D01*
G36*
X63703686Y-33761373D02*
G01*
X63817500Y-33785001D01*
X63817500Y-33922847D01*
X63815304Y-33991458D01*
X63809550Y-34038071D01*
X63801625Y-34052522D01*
X63696849Y-34004351D01*
X63615818Y-33982987D01*
X63549544Y-33988394D01*
X63489038Y-34020532D01*
X63453403Y-34051067D01*
X63397048Y-34127640D01*
X63376719Y-34208373D01*
X63387504Y-34286650D01*
X63424491Y-34355852D01*
X63482767Y-34409361D01*
X63557421Y-34440560D01*
X63643540Y-34442830D01*
X63724256Y-34415977D01*
X63775105Y-34390707D01*
X63806979Y-34376103D01*
X63811392Y-34374666D01*
X63814521Y-34393967D01*
X63816723Y-34444414D01*
X63817500Y-34510496D01*
X63817500Y-34646325D01*
X63710625Y-34669246D01*
X63649528Y-34681780D01*
X63608861Y-34689046D01*
X63599500Y-34689847D01*
X63578176Y-34684796D01*
X63529064Y-34674667D01*
X63500000Y-34668918D01*
X63374716Y-34624152D01*
X63270262Y-34546581D01*
X63191991Y-34442803D01*
X63145255Y-34319417D01*
X63134119Y-34217942D01*
X63153254Y-34080927D01*
X63206976Y-33961874D01*
X63289760Y-33865211D01*
X63396082Y-33795368D01*
X63520415Y-33756773D01*
X63657236Y-33753856D01*
X63703686Y-33761373D01*
X63703686Y-33761373D01*
G37*
X63703686Y-33761373D02*
X63817500Y-33785001D01*
X63817500Y-33922847D01*
X63815304Y-33991458D01*
X63809550Y-34038071D01*
X63801625Y-34052522D01*
X63696849Y-34004351D01*
X63615818Y-33982987D01*
X63549544Y-33988394D01*
X63489038Y-34020532D01*
X63453403Y-34051067D01*
X63397048Y-34127640D01*
X63376719Y-34208373D01*
X63387504Y-34286650D01*
X63424491Y-34355852D01*
X63482767Y-34409361D01*
X63557421Y-34440560D01*
X63643540Y-34442830D01*
X63724256Y-34415977D01*
X63775105Y-34390707D01*
X63806979Y-34376103D01*
X63811392Y-34374666D01*
X63814521Y-34393967D01*
X63816723Y-34444414D01*
X63817500Y-34510496D01*
X63817500Y-34646325D01*
X63710625Y-34669246D01*
X63649528Y-34681780D01*
X63608861Y-34689046D01*
X63599500Y-34689847D01*
X63578176Y-34684796D01*
X63529064Y-34674667D01*
X63500000Y-34668918D01*
X63374716Y-34624152D01*
X63270262Y-34546581D01*
X63191991Y-34442803D01*
X63145255Y-34319417D01*
X63134119Y-34217942D01*
X63153254Y-34080927D01*
X63206976Y-33961874D01*
X63289760Y-33865211D01*
X63396082Y-33795368D01*
X63520415Y-33756773D01*
X63657236Y-33753856D01*
X63703686Y-33761373D01*
G36*
X61094249Y-31115586D02*
G01*
X61100620Y-31119058D01*
X61106169Y-31127984D01*
X61110952Y-31144934D01*
X61115027Y-31172476D01*
X61118451Y-31213180D01*
X61121279Y-31269614D01*
X61123570Y-31344348D01*
X61125379Y-31439950D01*
X61126763Y-31558989D01*
X61127779Y-31704035D01*
X61128485Y-31877656D01*
X61128936Y-32082421D01*
X61129190Y-32320899D01*
X61129303Y-32595660D01*
X61129332Y-32909272D01*
X61129333Y-33030583D01*
X61129320Y-33358623D01*
X61129243Y-33646898D01*
X61129046Y-33897978D01*
X61128672Y-34114431D01*
X61128063Y-34298828D01*
X61127163Y-34453736D01*
X61125916Y-34581724D01*
X61124265Y-34685362D01*
X61122152Y-34767218D01*
X61119521Y-34829862D01*
X61116316Y-34875863D01*
X61112479Y-34907789D01*
X61107954Y-34928209D01*
X61102683Y-34939693D01*
X61096611Y-34944809D01*
X61089681Y-34946127D01*
X61087000Y-34946166D01*
X61079750Y-34945580D01*
X61073380Y-34942108D01*
X61067831Y-34933181D01*
X61063047Y-34916232D01*
X61058972Y-34888689D01*
X61055549Y-34847986D01*
X61052720Y-34791551D01*
X61050430Y-34716818D01*
X61048621Y-34621216D01*
X61047237Y-34502177D01*
X61046220Y-34357131D01*
X61045515Y-34183510D01*
X61045063Y-33978745D01*
X61044810Y-33740266D01*
X61044696Y-33465506D01*
X61044667Y-33151893D01*
X61044667Y-33030583D01*
X61044679Y-32702543D01*
X61044756Y-32414268D01*
X61044953Y-32163188D01*
X61045328Y-31946734D01*
X61045937Y-31762338D01*
X61046836Y-31607430D01*
X61048083Y-31479442D01*
X61049735Y-31375804D01*
X61051848Y-31293947D01*
X61054478Y-31231303D01*
X61057684Y-31185303D01*
X61061521Y-31153377D01*
X61066046Y-31132957D01*
X61071316Y-31121473D01*
X61077388Y-31116356D01*
X61084319Y-31115039D01*
X61087000Y-31115000D01*
X61094249Y-31115586D01*
X61094249Y-31115586D01*
G37*
X61094249Y-31115586D02*
X61100620Y-31119058D01*
X61106169Y-31127984D01*
X61110952Y-31144934D01*
X61115027Y-31172476D01*
X61118451Y-31213180D01*
X61121279Y-31269614D01*
X61123570Y-31344348D01*
X61125379Y-31439950D01*
X61126763Y-31558989D01*
X61127779Y-31704035D01*
X61128485Y-31877656D01*
X61128936Y-32082421D01*
X61129190Y-32320899D01*
X61129303Y-32595660D01*
X61129332Y-32909272D01*
X61129333Y-33030583D01*
X61129320Y-33358623D01*
X61129243Y-33646898D01*
X61129046Y-33897978D01*
X61128672Y-34114431D01*
X61128063Y-34298828D01*
X61127163Y-34453736D01*
X61125916Y-34581724D01*
X61124265Y-34685362D01*
X61122152Y-34767218D01*
X61119521Y-34829862D01*
X61116316Y-34875863D01*
X61112479Y-34907789D01*
X61107954Y-34928209D01*
X61102683Y-34939693D01*
X61096611Y-34944809D01*
X61089681Y-34946127D01*
X61087000Y-34946166D01*
X61079750Y-34945580D01*
X61073380Y-34942108D01*
X61067831Y-34933181D01*
X61063047Y-34916232D01*
X61058972Y-34888689D01*
X61055549Y-34847986D01*
X61052720Y-34791551D01*
X61050430Y-34716818D01*
X61048621Y-34621216D01*
X61047237Y-34502177D01*
X61046220Y-34357131D01*
X61045515Y-34183510D01*
X61045063Y-33978745D01*
X61044810Y-33740266D01*
X61044696Y-33465506D01*
X61044667Y-33151893D01*
X61044667Y-33030583D01*
X61044679Y-32702543D01*
X61044756Y-32414268D01*
X61044953Y-32163188D01*
X61045328Y-31946734D01*
X61045937Y-31762338D01*
X61046836Y-31607430D01*
X61048083Y-31479442D01*
X61049735Y-31375804D01*
X61051848Y-31293947D01*
X61054478Y-31231303D01*
X61057684Y-31185303D01*
X61061521Y-31153377D01*
X61066046Y-31132957D01*
X61071316Y-31121473D01*
X61077388Y-31116356D01*
X61084319Y-31115039D01*
X61087000Y-31115000D01*
X61094249Y-31115586D01*
D11*
X87710000Y-87081000D02*
X87710000Y-88339000D01*
X85870000Y-87081000D02*
X85870000Y-88339000D01*
X68310000Y-87181000D02*
X68310000Y-88439000D01*
X66470000Y-87181000D02*
X66470000Y-88439000D01*
X38713665Y-108266608D02*
G75*
G03X41946000Y-108423516I1672335J1078608D01*
G01*
X38713665Y-106109392D02*
G75*
G02X41946000Y-105952484I1672335J-1078608D01*
G01*
X39344870Y-108267837D02*
G75*
G03X41426961Y-108268000I1041130J1079837D01*
G01*
X39344870Y-106108163D02*
G75*
G02X41426961Y-106108000I1041130J-1079837D01*
G01*
X41946000Y-108424000D02*
X41946000Y-108268000D01*
X41946000Y-106108000D02*
X41946000Y-105952000D01*
X56170000Y-87281000D02*
X56170000Y-88539000D01*
X58010000Y-87281000D02*
X58010000Y-88539000D01*
D12*
G36*
X62375391Y-35939377D02*
G01*
X62701253Y-36007497D01*
X62971851Y-36114242D01*
X63077302Y-36180679D01*
X63322951Y-36382059D01*
X63478063Y-36550527D01*
X63546544Y-36690622D01*
X63550800Y-36730491D01*
X63508167Y-36888326D01*
X63383307Y-36989999D01*
X63180775Y-37032181D01*
X63136555Y-37033199D01*
X62967038Y-37017905D01*
X62848919Y-36960062D01*
X62784955Y-36899498D01*
X62569944Y-36729571D01*
X62311368Y-36623220D01*
X62029631Y-36578422D01*
X61745138Y-36593152D01*
X61478294Y-36665386D01*
X61249504Y-36793102D01*
X61079174Y-36974273D01*
X61026527Y-37073913D01*
X60988518Y-37232057D01*
X60967594Y-37464620D01*
X60962477Y-37746093D01*
X60971892Y-38050968D01*
X60994562Y-38353736D01*
X61029210Y-38628890D01*
X61074560Y-38850921D01*
X61121997Y-38981533D01*
X61283652Y-39180230D01*
X61517871Y-39324764D01*
X61806075Y-39405867D01*
X62001400Y-39420233D01*
X62300440Y-39390305D01*
X62551299Y-39291287D01*
X62786625Y-39109332D01*
X62826265Y-39070338D01*
X63043252Y-38891399D01*
X63253195Y-38792884D01*
X63443872Y-38776222D01*
X63603064Y-38842844D01*
X63705274Y-38967475D01*
X63729236Y-39052045D01*
X63703540Y-39154480D01*
X63635072Y-39283811D01*
X63508823Y-39473315D01*
X63369199Y-39619503D01*
X63188665Y-39745473D01*
X62939683Y-39874322D01*
X62920122Y-39883512D01*
X62739963Y-39962431D01*
X62584566Y-40012937D01*
X62418321Y-40042485D01*
X62205619Y-40058529D01*
X62056522Y-40064278D01*
X61714314Y-40064268D01*
X61456689Y-40040144D01*
X61341000Y-40012591D01*
X60952957Y-39842766D01*
X60640928Y-39621458D01*
X60411990Y-39354637D01*
X60301922Y-39135945D01*
X60258839Y-38974352D01*
X60217218Y-38736650D01*
X60179367Y-38448327D01*
X60147597Y-38134869D01*
X60124216Y-37821764D01*
X60111535Y-37534501D01*
X60111863Y-37298565D01*
X60123155Y-37163190D01*
X60212373Y-36894713D01*
X60385244Y-36630475D01*
X60624571Y-36387034D01*
X60913156Y-36180949D01*
X61233802Y-36028778D01*
X61335932Y-35995458D01*
X61665758Y-35930489D01*
X62021235Y-35912752D01*
X62375391Y-35939377D01*
X62375391Y-35939377D01*
G37*
X62375391Y-35939377D02*
X62701253Y-36007497D01*
X62971851Y-36114242D01*
X63077302Y-36180679D01*
X63322951Y-36382059D01*
X63478063Y-36550527D01*
X63546544Y-36690622D01*
X63550800Y-36730491D01*
X63508167Y-36888326D01*
X63383307Y-36989999D01*
X63180775Y-37032181D01*
X63136555Y-37033199D01*
X62967038Y-37017905D01*
X62848919Y-36960062D01*
X62784955Y-36899498D01*
X62569944Y-36729571D01*
X62311368Y-36623220D01*
X62029631Y-36578422D01*
X61745138Y-36593152D01*
X61478294Y-36665386D01*
X61249504Y-36793102D01*
X61079174Y-36974273D01*
X61026527Y-37073913D01*
X60988518Y-37232057D01*
X60967594Y-37464620D01*
X60962477Y-37746093D01*
X60971892Y-38050968D01*
X60994562Y-38353736D01*
X61029210Y-38628890D01*
X61074560Y-38850921D01*
X61121997Y-38981533D01*
X61283652Y-39180230D01*
X61517871Y-39324764D01*
X61806075Y-39405867D01*
X62001400Y-39420233D01*
X62300440Y-39390305D01*
X62551299Y-39291287D01*
X62786625Y-39109332D01*
X62826265Y-39070338D01*
X63043252Y-38891399D01*
X63253195Y-38792884D01*
X63443872Y-38776222D01*
X63603064Y-38842844D01*
X63705274Y-38967475D01*
X63729236Y-39052045D01*
X63703540Y-39154480D01*
X63635072Y-39283811D01*
X63508823Y-39473315D01*
X63369199Y-39619503D01*
X63188665Y-39745473D01*
X62939683Y-39874322D01*
X62920122Y-39883512D01*
X62739963Y-39962431D01*
X62584566Y-40012937D01*
X62418321Y-40042485D01*
X62205619Y-40058529D01*
X62056522Y-40064278D01*
X61714314Y-40064268D01*
X61456689Y-40040144D01*
X61341000Y-40012591D01*
X60952957Y-39842766D01*
X60640928Y-39621458D01*
X60411990Y-39354637D01*
X60301922Y-39135945D01*
X60258839Y-38974352D01*
X60217218Y-38736650D01*
X60179367Y-38448327D01*
X60147597Y-38134869D01*
X60124216Y-37821764D01*
X60111535Y-37534501D01*
X60111863Y-37298565D01*
X60123155Y-37163190D01*
X60212373Y-36894713D01*
X60385244Y-36630475D01*
X60624571Y-36387034D01*
X60913156Y-36180949D01*
X61233802Y-36028778D01*
X61335932Y-35995458D01*
X61665758Y-35930489D01*
X62021235Y-35912752D01*
X62375391Y-35939377D01*
G36*
X58039719Y-36234604D02*
G01*
X58357294Y-36276199D01*
X58609558Y-36354784D01*
X58829852Y-36483048D01*
X58952369Y-36581909D01*
X59158706Y-36818222D01*
X59285103Y-37083440D01*
X59330165Y-37359540D01*
X59292501Y-37628499D01*
X59170717Y-37872297D01*
X59061547Y-37994555D01*
X58972860Y-38085939D01*
X58929005Y-38149950D01*
X58928000Y-38155511D01*
X58967175Y-38203566D01*
X59064845Y-38277024D01*
X59101749Y-38300696D01*
X59314386Y-38482422D01*
X59447463Y-38719230D01*
X59504904Y-39018998D01*
X59507970Y-39116000D01*
X59466276Y-39453036D01*
X59337881Y-39741279D01*
X59120466Y-39984031D01*
X58811717Y-40184594D01*
X58731187Y-40223438D01*
X58465783Y-40309767D01*
X58146521Y-40360975D01*
X57813564Y-40374539D01*
X57507073Y-40347936D01*
X57348364Y-40310296D01*
X57180726Y-40233224D01*
X57003959Y-40115571D01*
X56840898Y-39977466D01*
X56714381Y-39839039D01*
X56647244Y-39720421D01*
X56642000Y-39687636D01*
X56686027Y-39572564D01*
X56795486Y-39463644D01*
X56936446Y-39388221D01*
X57036145Y-39370000D01*
X57139953Y-39397558D01*
X57293397Y-39470018D01*
X57464289Y-39572051D01*
X57473794Y-39578377D01*
X57643607Y-39687198D01*
X57765640Y-39746571D01*
X57873700Y-39767596D01*
X58001594Y-39761373D01*
X58023568Y-39758894D01*
X58322102Y-39689760D01*
X58544209Y-39563424D01*
X58684965Y-39384078D01*
X58739448Y-39155916D01*
X58739683Y-39148880D01*
X58701971Y-38918502D01*
X58577104Y-38736592D01*
X58369037Y-38606656D01*
X58081725Y-38532201D01*
X58037991Y-38526694D01*
X57824444Y-38494424D01*
X57693896Y-38448298D01*
X57627758Y-38376263D01*
X57607445Y-38266269D01*
X57607200Y-38247350D01*
X57649145Y-38103663D01*
X57778098Y-37997708D01*
X57998736Y-37925918D01*
X58039000Y-37918063D01*
X58261295Y-37830124D01*
X58413728Y-37709757D01*
X58519320Y-37591922D01*
X58562111Y-37495158D01*
X58558940Y-37377451D01*
X58555599Y-37355751D01*
X58476028Y-37130124D01*
X58331577Y-36967257D01*
X58138862Y-36869236D01*
X57914496Y-36838144D01*
X57675092Y-36876069D01*
X57437266Y-36985093D01*
X57217631Y-37167304D01*
X57200800Y-37185713D01*
X57024882Y-37333428D01*
X56843034Y-37402821D01*
X56674171Y-37391757D01*
X56537204Y-37298102D01*
X56511434Y-37263487D01*
X56465702Y-37180787D01*
X56461959Y-37107063D01*
X56504294Y-37004607D01*
X56548363Y-36922959D01*
X56753472Y-36653726D01*
X57030503Y-36444776D01*
X57365100Y-36302734D01*
X57742910Y-36234226D01*
X58039719Y-36234604D01*
X58039719Y-36234604D01*
G37*
X58039719Y-36234604D02*
X58357294Y-36276199D01*
X58609558Y-36354784D01*
X58829852Y-36483048D01*
X58952369Y-36581909D01*
X59158706Y-36818222D01*
X59285103Y-37083440D01*
X59330165Y-37359540D01*
X59292501Y-37628499D01*
X59170717Y-37872297D01*
X59061547Y-37994555D01*
X58972860Y-38085939D01*
X58929005Y-38149950D01*
X58928000Y-38155511D01*
X58967175Y-38203566D01*
X59064845Y-38277024D01*
X59101749Y-38300696D01*
X59314386Y-38482422D01*
X59447463Y-38719230D01*
X59504904Y-39018998D01*
X59507970Y-39116000D01*
X59466276Y-39453036D01*
X59337881Y-39741279D01*
X59120466Y-39984031D01*
X58811717Y-40184594D01*
X58731187Y-40223438D01*
X58465783Y-40309767D01*
X58146521Y-40360975D01*
X57813564Y-40374539D01*
X57507073Y-40347936D01*
X57348364Y-40310296D01*
X57180726Y-40233224D01*
X57003959Y-40115571D01*
X56840898Y-39977466D01*
X56714381Y-39839039D01*
X56647244Y-39720421D01*
X56642000Y-39687636D01*
X56686027Y-39572564D01*
X56795486Y-39463644D01*
X56936446Y-39388221D01*
X57036145Y-39370000D01*
X57139953Y-39397558D01*
X57293397Y-39470018D01*
X57464289Y-39572051D01*
X57473794Y-39578377D01*
X57643607Y-39687198D01*
X57765640Y-39746571D01*
X57873700Y-39767596D01*
X58001594Y-39761373D01*
X58023568Y-39758894D01*
X58322102Y-39689760D01*
X58544209Y-39563424D01*
X58684965Y-39384078D01*
X58739448Y-39155916D01*
X58739683Y-39148880D01*
X58701971Y-38918502D01*
X58577104Y-38736592D01*
X58369037Y-38606656D01*
X58081725Y-38532201D01*
X58037991Y-38526694D01*
X57824444Y-38494424D01*
X57693896Y-38448298D01*
X57627758Y-38376263D01*
X57607445Y-38266269D01*
X57607200Y-38247350D01*
X57649145Y-38103663D01*
X57778098Y-37997708D01*
X57998736Y-37925918D01*
X58039000Y-37918063D01*
X58261295Y-37830124D01*
X58413728Y-37709757D01*
X58519320Y-37591922D01*
X58562111Y-37495158D01*
X58558940Y-37377451D01*
X58555599Y-37355751D01*
X58476028Y-37130124D01*
X58331577Y-36967257D01*
X58138862Y-36869236D01*
X57914496Y-36838144D01*
X57675092Y-36876069D01*
X57437266Y-36985093D01*
X57217631Y-37167304D01*
X57200800Y-37185713D01*
X57024882Y-37333428D01*
X56843034Y-37402821D01*
X56674171Y-37391757D01*
X56537204Y-37298102D01*
X56511434Y-37263487D01*
X56465702Y-37180787D01*
X56461959Y-37107063D01*
X56504294Y-37004607D01*
X56548363Y-36922959D01*
X56753472Y-36653726D01*
X57030503Y-36444776D01*
X57365100Y-36302734D01*
X57742910Y-36234226D01*
X58039719Y-36234604D01*
G36*
X65397555Y-39605968D02*
G01*
X65504827Y-39714611D01*
X65626821Y-39903059D01*
X65671181Y-39979600D01*
X65803475Y-40234910D01*
X65867275Y-40421779D01*
X65863089Y-40546340D01*
X65791424Y-40614724D01*
X65725108Y-40630422D01*
X65628368Y-40624136D01*
X65547423Y-40565173D01*
X65457771Y-40439922D01*
X65338351Y-40291279D01*
X65218809Y-40236568D01*
X65086726Y-40275722D01*
X64929684Y-40408669D01*
X64903112Y-40436800D01*
X64745328Y-40573402D01*
X64597842Y-40639718D01*
X64479093Y-40628884D01*
X64448266Y-40606133D01*
X64412680Y-40522545D01*
X64445770Y-40403856D01*
X64551647Y-40242514D01*
X64734423Y-40030969D01*
X64798083Y-39963647D01*
X65005267Y-39755970D01*
X65163655Y-39626938D01*
X65289124Y-39576841D01*
X65397555Y-39605968D01*
X65397555Y-39605968D01*
G37*
X65397555Y-39605968D02*
X65504827Y-39714611D01*
X65626821Y-39903059D01*
X65671181Y-39979600D01*
X65803475Y-40234910D01*
X65867275Y-40421779D01*
X65863089Y-40546340D01*
X65791424Y-40614724D01*
X65725108Y-40630422D01*
X65628368Y-40624136D01*
X65547423Y-40565173D01*
X65457771Y-40439922D01*
X65338351Y-40291279D01*
X65218809Y-40236568D01*
X65086726Y-40275722D01*
X64929684Y-40408669D01*
X64903112Y-40436800D01*
X64745328Y-40573402D01*
X64597842Y-40639718D01*
X64479093Y-40628884D01*
X64448266Y-40606133D01*
X64412680Y-40522545D01*
X64445770Y-40403856D01*
X64551647Y-40242514D01*
X64734423Y-40030969D01*
X64798083Y-39963647D01*
X65005267Y-39755970D01*
X65163655Y-39626938D01*
X65289124Y-39576841D01*
X65397555Y-39605968D01*
G36*
X54171160Y-36539458D02*
G01*
X54304446Y-36588018D01*
X54428913Y-36697044D01*
X54559173Y-36878861D01*
X54690483Y-37109400D01*
X54835490Y-37380056D01*
X54961743Y-37614763D01*
X55080295Y-37833781D01*
X55202197Y-38057368D01*
X55338501Y-38305784D01*
X55500259Y-38599290D01*
X55698524Y-38958145D01*
X55734132Y-39022544D01*
X55933092Y-39386302D01*
X56083636Y-39673879D01*
X56189102Y-39896524D01*
X56252826Y-40065490D01*
X56278145Y-40192025D01*
X56268398Y-40287379D01*
X56226920Y-40362803D01*
X56157050Y-40429548D01*
X56152549Y-40433112D01*
X55990667Y-40526648D01*
X55842306Y-40534809D01*
X55698901Y-40453622D01*
X55551887Y-40279115D01*
X55445508Y-40105159D01*
X55343870Y-39937338D01*
X55248729Y-39803894D01*
X55179271Y-39731494D01*
X55174715Y-39728765D01*
X55089268Y-39714569D01*
X54915336Y-39711490D01*
X54665397Y-39719322D01*
X54351933Y-39737855D01*
X54268676Y-39743869D01*
X53926494Y-39772061D01*
X53671416Y-39801615D01*
X53489006Y-39837389D01*
X53364826Y-39884239D01*
X53284442Y-39947023D01*
X53233417Y-40030600D01*
X53208481Y-40100599D01*
X53091854Y-40416556D01*
X52962101Y-40633330D01*
X52817516Y-40752695D01*
X52656395Y-40776425D01*
X52578000Y-40756360D01*
X52418904Y-40650556D01*
X52335145Y-40485731D01*
X52330698Y-40275184D01*
X52381025Y-40097207D01*
X52424610Y-39983564D01*
X52496954Y-39790002D01*
X52592347Y-39532174D01*
X52705076Y-39225735D01*
X52820397Y-38910988D01*
X53679108Y-38910988D01*
X53715191Y-39040285D01*
X53805794Y-39116036D01*
X53954404Y-39148142D01*
X54164508Y-39146502D01*
X54229000Y-39141822D01*
X54419548Y-39117623D01*
X54543692Y-39074546D01*
X54636460Y-38999503D01*
X54649943Y-38984556D01*
X54700439Y-38922735D01*
X54729786Y-38863446D01*
X54733910Y-38791572D01*
X54708734Y-38692000D01*
X54650185Y-38549615D01*
X54554185Y-38349301D01*
X54416659Y-38075944D01*
X54391648Y-38026623D01*
X54083863Y-37419846D01*
X53863117Y-38102823D01*
X53756557Y-38452157D01*
X53694058Y-38718246D01*
X53679108Y-38910988D01*
X52820397Y-38910988D01*
X52829429Y-38886338D01*
X52959696Y-38529638D01*
X53090163Y-38171288D01*
X53215120Y-37826942D01*
X53328855Y-37512255D01*
X53425656Y-37242881D01*
X53499811Y-37034472D01*
X53530176Y-36947752D01*
X53628798Y-36738787D01*
X53762086Y-36611757D01*
X53952463Y-36547734D01*
X54014443Y-36539033D01*
X54171160Y-36539458D01*
X54171160Y-36539458D01*
G37*
X54171160Y-36539458D02*
X54304446Y-36588018D01*
X54428913Y-36697044D01*
X54559173Y-36878861D01*
X54690483Y-37109400D01*
X54835490Y-37380056D01*
X54961743Y-37614763D01*
X55080295Y-37833781D01*
X55202197Y-38057368D01*
X55338501Y-38305784D01*
X55500259Y-38599290D01*
X55698524Y-38958145D01*
X55734132Y-39022544D01*
X55933092Y-39386302D01*
X56083636Y-39673879D01*
X56189102Y-39896524D01*
X56252826Y-40065490D01*
X56278145Y-40192025D01*
X56268398Y-40287379D01*
X56226920Y-40362803D01*
X56157050Y-40429548D01*
X56152549Y-40433112D01*
X55990667Y-40526648D01*
X55842306Y-40534809D01*
X55698901Y-40453622D01*
X55551887Y-40279115D01*
X55445508Y-40105159D01*
X55343870Y-39937338D01*
X55248729Y-39803894D01*
X55179271Y-39731494D01*
X55174715Y-39728765D01*
X55089268Y-39714569D01*
X54915336Y-39711490D01*
X54665397Y-39719322D01*
X54351933Y-39737855D01*
X54268676Y-39743869D01*
X53926494Y-39772061D01*
X53671416Y-39801615D01*
X53489006Y-39837389D01*
X53364826Y-39884239D01*
X53284442Y-39947023D01*
X53233417Y-40030600D01*
X53208481Y-40100599D01*
X53091854Y-40416556D01*
X52962101Y-40633330D01*
X52817516Y-40752695D01*
X52656395Y-40776425D01*
X52578000Y-40756360D01*
X52418904Y-40650556D01*
X52335145Y-40485731D01*
X52330698Y-40275184D01*
X52381025Y-40097207D01*
X52424610Y-39983564D01*
X52496954Y-39790002D01*
X52592347Y-39532174D01*
X52705076Y-39225735D01*
X52820397Y-38910988D01*
X53679108Y-38910988D01*
X53715191Y-39040285D01*
X53805794Y-39116036D01*
X53954404Y-39148142D01*
X54164508Y-39146502D01*
X54229000Y-39141822D01*
X54419548Y-39117623D01*
X54543692Y-39074546D01*
X54636460Y-38999503D01*
X54649943Y-38984556D01*
X54700439Y-38922735D01*
X54729786Y-38863446D01*
X54733910Y-38791572D01*
X54708734Y-38692000D01*
X54650185Y-38549615D01*
X54554185Y-38349301D01*
X54416659Y-38075944D01*
X54391648Y-38026623D01*
X54083863Y-37419846D01*
X53863117Y-38102823D01*
X53756557Y-38452157D01*
X53694058Y-38718246D01*
X53679108Y-38910988D01*
X52820397Y-38910988D01*
X52829429Y-38886338D01*
X52959696Y-38529638D01*
X53090163Y-38171288D01*
X53215120Y-37826942D01*
X53328855Y-37512255D01*
X53425656Y-37242881D01*
X53499811Y-37034472D01*
X53530176Y-36947752D01*
X53628798Y-36738787D01*
X53762086Y-36611757D01*
X53952463Y-36547734D01*
X54014443Y-36539033D01*
X54171160Y-36539458D01*
G36*
X64153812Y-39651319D02*
G01*
X64292939Y-39745639D01*
X64386068Y-39903578D01*
X64414400Y-40080522D01*
X64370883Y-40373433D01*
X64236897Y-40625473D01*
X64089999Y-40780493D01*
X63936390Y-40896102D01*
X63823901Y-40941149D01*
X63762469Y-40913009D01*
X63754000Y-40869329D01*
X63766578Y-40776690D01*
X63798296Y-40631253D01*
X63815466Y-40564043D01*
X63848911Y-40408421D01*
X63842719Y-40300562D01*
X63793718Y-40193398D01*
X63790066Y-40187176D01*
X63713489Y-39994087D01*
X63721294Y-39828323D01*
X63812637Y-39705547D01*
X63816103Y-39703080D01*
X63988323Y-39633004D01*
X64153812Y-39651319D01*
X64153812Y-39651319D01*
G37*
X64153812Y-39651319D02*
X64292939Y-39745639D01*
X64386068Y-39903578D01*
X64414400Y-40080522D01*
X64370883Y-40373433D01*
X64236897Y-40625473D01*
X64089999Y-40780493D01*
X63936390Y-40896102D01*
X63823901Y-40941149D01*
X63762469Y-40913009D01*
X63754000Y-40869329D01*
X63766578Y-40776690D01*
X63798296Y-40631253D01*
X63815466Y-40564043D01*
X63848911Y-40408421D01*
X63842719Y-40300562D01*
X63793718Y-40193398D01*
X63790066Y-40187176D01*
X63713489Y-39994087D01*
X63721294Y-39828323D01*
X63812637Y-39705547D01*
X63816103Y-39703080D01*
X63988323Y-39633004D01*
X64153812Y-39651319D01*
G36*
X68068050Y-40272890D02*
G01*
X68247691Y-40381672D01*
X68352380Y-40546312D01*
X68373851Y-40753174D01*
X68303835Y-40988625D01*
X68292845Y-41010594D01*
X68193596Y-41159593D01*
X68039750Y-41343306D01*
X67855742Y-41536982D01*
X67666001Y-41715868D01*
X67494961Y-41855212D01*
X67398900Y-41916250D01*
X67257839Y-42002188D01*
X67214311Y-42067336D01*
X67267040Y-42114562D01*
X67305227Y-42126671D01*
X67439256Y-42119223D01*
X67618952Y-42051312D01*
X67819047Y-41935215D01*
X68014274Y-41783208D01*
X68016802Y-41780929D01*
X68135792Y-41681883D01*
X68223637Y-41624351D01*
X68254418Y-41618284D01*
X68271630Y-41698341D01*
X68245735Y-41832335D01*
X68187487Y-41988056D01*
X68107640Y-42133293D01*
X68062864Y-42192043D01*
X67893808Y-42332244D01*
X67672191Y-42446219D01*
X67434057Y-42520803D01*
X67215452Y-42542836D01*
X67132200Y-42531896D01*
X66916338Y-42433176D01*
X66763070Y-42258590D01*
X66676105Y-42015068D01*
X66659152Y-41709539D01*
X66663169Y-41655532D01*
X66684263Y-41546108D01*
X67293367Y-41546108D01*
X67308262Y-41554400D01*
X67358964Y-41519616D01*
X67460032Y-41426561D01*
X67593528Y-41292180D01*
X67659775Y-41222341D01*
X67798576Y-41066078D01*
X67905377Y-40930832D01*
X67964016Y-40837748D01*
X67970400Y-40815941D01*
X67940048Y-40748782D01*
X67858599Y-40754060D01*
X67740460Y-40826549D01*
X67614630Y-40944983D01*
X67513974Y-41071175D01*
X67419869Y-41217559D01*
X67343966Y-41360958D01*
X67297915Y-41478200D01*
X67293367Y-41546108D01*
X66684263Y-41546108D01*
X66729255Y-41312716D01*
X66856165Y-40993105D01*
X67031966Y-40711346D01*
X67244721Y-40482089D01*
X67482496Y-40319982D01*
X67733354Y-40239672D01*
X67821724Y-40233600D01*
X68068050Y-40272890D01*
X68068050Y-40272890D01*
G37*
X68068050Y-40272890D02*
X68247691Y-40381672D01*
X68352380Y-40546312D01*
X68373851Y-40753174D01*
X68303835Y-40988625D01*
X68292845Y-41010594D01*
X68193596Y-41159593D01*
X68039750Y-41343306D01*
X67855742Y-41536982D01*
X67666001Y-41715868D01*
X67494961Y-41855212D01*
X67398900Y-41916250D01*
X67257839Y-42002188D01*
X67214311Y-42067336D01*
X67267040Y-42114562D01*
X67305227Y-42126671D01*
X67439256Y-42119223D01*
X67618952Y-42051312D01*
X67819047Y-41935215D01*
X68014274Y-41783208D01*
X68016802Y-41780929D01*
X68135792Y-41681883D01*
X68223637Y-41624351D01*
X68254418Y-41618284D01*
X68271630Y-41698341D01*
X68245735Y-41832335D01*
X68187487Y-41988056D01*
X68107640Y-42133293D01*
X68062864Y-42192043D01*
X67893808Y-42332244D01*
X67672191Y-42446219D01*
X67434057Y-42520803D01*
X67215452Y-42542836D01*
X67132200Y-42531896D01*
X66916338Y-42433176D01*
X66763070Y-42258590D01*
X66676105Y-42015068D01*
X66659152Y-41709539D01*
X66663169Y-41655532D01*
X66684263Y-41546108D01*
X67293367Y-41546108D01*
X67308262Y-41554400D01*
X67358964Y-41519616D01*
X67460032Y-41426561D01*
X67593528Y-41292180D01*
X67659775Y-41222341D01*
X67798576Y-41066078D01*
X67905377Y-40930832D01*
X67964016Y-40837748D01*
X67970400Y-40815941D01*
X67940048Y-40748782D01*
X67858599Y-40754060D01*
X67740460Y-40826549D01*
X67614630Y-40944983D01*
X67513974Y-41071175D01*
X67419869Y-41217559D01*
X67343966Y-41360958D01*
X67297915Y-41478200D01*
X67293367Y-41546108D01*
X66684263Y-41546108D01*
X66729255Y-41312716D01*
X66856165Y-40993105D01*
X67031966Y-40711346D01*
X67244721Y-40482089D01*
X67482496Y-40319982D01*
X67733354Y-40239672D01*
X67821724Y-40233600D01*
X68068050Y-40272890D01*
G36*
X66522836Y-38949097D02*
G01*
X66660887Y-38992723D01*
X66792058Y-39083012D01*
X66795384Y-39086293D01*
X66869596Y-39176819D01*
X66905980Y-39280091D01*
X66915184Y-39433677D01*
X66913994Y-39504766D01*
X66897757Y-39684651D01*
X66860639Y-39923271D01*
X66809180Y-40181534D01*
X66779731Y-40307370D01*
X66719962Y-40551036D01*
X66645693Y-40857752D01*
X66565566Y-41191635D01*
X66488221Y-41516806D01*
X66473336Y-41579800D01*
X66385604Y-41953051D01*
X66317653Y-42238255D01*
X66264467Y-42445890D01*
X66221027Y-42586436D01*
X66182316Y-42670372D01*
X66143319Y-42708178D01*
X66099017Y-42710332D01*
X66044394Y-42687315D01*
X65974433Y-42649605D01*
X65963800Y-42644093D01*
X65818615Y-42549064D01*
X65727496Y-42430824D01*
X65687481Y-42273423D01*
X65695608Y-42060910D01*
X65748913Y-41777334D01*
X65779438Y-41651426D01*
X65839328Y-41406822D01*
X65912248Y-41097621D01*
X65992727Y-40748179D01*
X66075297Y-40382849D01*
X66154487Y-40025987D01*
X66224829Y-39701947D01*
X66280852Y-39435083D01*
X66308913Y-39293800D01*
X66346070Y-39109366D01*
X66378305Y-39004000D01*
X66418612Y-38956761D01*
X66479987Y-38946708D01*
X66522836Y-38949097D01*
X66522836Y-38949097D01*
G37*
X66522836Y-38949097D02*
X66660887Y-38992723D01*
X66792058Y-39083012D01*
X66795384Y-39086293D01*
X66869596Y-39176819D01*
X66905980Y-39280091D01*
X66915184Y-39433677D01*
X66913994Y-39504766D01*
X66897757Y-39684651D01*
X66860639Y-39923271D01*
X66809180Y-40181534D01*
X66779731Y-40307370D01*
X66719962Y-40551036D01*
X66645693Y-40857752D01*
X66565566Y-41191635D01*
X66488221Y-41516806D01*
X66473336Y-41579800D01*
X66385604Y-41953051D01*
X66317653Y-42238255D01*
X66264467Y-42445890D01*
X66221027Y-42586436D01*
X66182316Y-42670372D01*
X66143319Y-42708178D01*
X66099017Y-42710332D01*
X66044394Y-42687315D01*
X65974433Y-42649605D01*
X65963800Y-42644093D01*
X65818615Y-42549064D01*
X65727496Y-42430824D01*
X65687481Y-42273423D01*
X65695608Y-42060910D01*
X65748913Y-41777334D01*
X65779438Y-41651426D01*
X65839328Y-41406822D01*
X65912248Y-41097621D01*
X65992727Y-40748179D01*
X66075297Y-40382849D01*
X66154487Y-40025987D01*
X66224829Y-39701947D01*
X66280852Y-39435083D01*
X66308913Y-39293800D01*
X66346070Y-39109366D01*
X66378305Y-39004000D01*
X66418612Y-38956761D01*
X66479987Y-38946708D01*
X66522836Y-38949097D01*
G36*
X65062100Y-40670975D02*
G01*
X65218625Y-40740290D01*
X65359665Y-40856175D01*
X65455955Y-40989743D01*
X65481200Y-41084646D01*
X65465678Y-41184040D01*
X65423429Y-41349267D01*
X65360921Y-41561358D01*
X65284625Y-41801345D01*
X65201012Y-42050258D01*
X65116551Y-42289130D01*
X65037713Y-42498992D01*
X64970968Y-42660874D01*
X64922787Y-42755809D01*
X64905382Y-42772744D01*
X64826852Y-42746549D01*
X64708002Y-42682908D01*
X64680762Y-42665941D01*
X64581068Y-42593468D01*
X64514116Y-42515106D01*
X64480559Y-42416876D01*
X64481051Y-42284799D01*
X64516248Y-42104895D01*
X64586803Y-41863187D01*
X64693372Y-41545695D01*
X64739381Y-41413850D01*
X64814987Y-41186972D01*
X64875389Y-40983982D01*
X64913236Y-40830931D01*
X64922400Y-40765183D01*
X64934543Y-40677017D01*
X64991787Y-40657827D01*
X65062100Y-40670975D01*
X65062100Y-40670975D01*
G37*
X65062100Y-40670975D02*
X65218625Y-40740290D01*
X65359665Y-40856175D01*
X65455955Y-40989743D01*
X65481200Y-41084646D01*
X65465678Y-41184040D01*
X65423429Y-41349267D01*
X65360921Y-41561358D01*
X65284625Y-41801345D01*
X65201012Y-42050258D01*
X65116551Y-42289130D01*
X65037713Y-42498992D01*
X64970968Y-42660874D01*
X64922787Y-42755809D01*
X64905382Y-42772744D01*
X64826852Y-42746549D01*
X64708002Y-42682908D01*
X64680762Y-42665941D01*
X64581068Y-42593468D01*
X64514116Y-42515106D01*
X64480559Y-42416876D01*
X64481051Y-42284799D01*
X64516248Y-42104895D01*
X64586803Y-41863187D01*
X64693372Y-41545695D01*
X64739381Y-41413850D01*
X64814987Y-41186972D01*
X64875389Y-40983982D01*
X64913236Y-40830931D01*
X64922400Y-40765183D01*
X64934543Y-40677017D01*
X64991787Y-40657827D01*
X65062100Y-40670975D01*
G36*
X63286274Y-40621048D02*
G01*
X63418887Y-40699739D01*
X63445302Y-40720715D01*
X63542603Y-40817366D01*
X63588642Y-40919728D01*
X63601434Y-41071896D01*
X63601600Y-41103268D01*
X63589012Y-41254483D01*
X63554880Y-41472660D01*
X63504644Y-41726812D01*
X63452932Y-41949652D01*
X63391837Y-42195871D01*
X63337429Y-42417998D01*
X63295881Y-42590648D01*
X63274164Y-42684700D01*
X63225920Y-42790797D01*
X63136794Y-42818396D01*
X62996029Y-42768508D01*
X62909547Y-42718935D01*
X62760073Y-42582132D01*
X62694821Y-42452235D01*
X62650741Y-42291000D01*
X62561474Y-42507851D01*
X62481040Y-42655644D01*
X62374890Y-42792080D01*
X62267248Y-42890380D01*
X62185049Y-42924011D01*
X62121388Y-42904190D01*
X62008014Y-42858536D01*
X61995217Y-42853004D01*
X61815441Y-42733870D01*
X61708638Y-42561135D01*
X61673531Y-42328876D01*
X61708845Y-42031169D01*
X61768567Y-41801051D01*
X61847191Y-41514812D01*
X61916706Y-41215201D01*
X61968231Y-40942923D01*
X61988639Y-40792400D01*
X62014166Y-40702375D01*
X62087090Y-40677190D01*
X62147306Y-40680995D01*
X62358527Y-40736005D01*
X62501264Y-40851232D01*
X62576616Y-41030800D01*
X62585680Y-41278836D01*
X62529553Y-41599463D01*
X62458267Y-41849903D01*
X62402593Y-42031251D01*
X62363529Y-42170279D01*
X62347666Y-42243123D01*
X62348234Y-42248368D01*
X62383108Y-42221398D01*
X62448192Y-42119439D01*
X62534504Y-41961240D01*
X62633061Y-41765546D01*
X62734880Y-41551106D01*
X62830979Y-41336666D01*
X62912374Y-41140974D01*
X62970082Y-40982777D01*
X62991105Y-40906700D01*
X63031576Y-40732173D01*
X63070139Y-40635964D01*
X63119516Y-40595848D01*
X63172843Y-40589200D01*
X63286274Y-40621048D01*
X63286274Y-40621048D01*
G37*
X63286274Y-40621048D02*
X63418887Y-40699739D01*
X63445302Y-40720715D01*
X63542603Y-40817366D01*
X63588642Y-40919728D01*
X63601434Y-41071896D01*
X63601600Y-41103268D01*
X63589012Y-41254483D01*
X63554880Y-41472660D01*
X63504644Y-41726812D01*
X63452932Y-41949652D01*
X63391837Y-42195871D01*
X63337429Y-42417998D01*
X63295881Y-42590648D01*
X63274164Y-42684700D01*
X63225920Y-42790797D01*
X63136794Y-42818396D01*
X62996029Y-42768508D01*
X62909547Y-42718935D01*
X62760073Y-42582132D01*
X62694821Y-42452235D01*
X62650741Y-42291000D01*
X62561474Y-42507851D01*
X62481040Y-42655644D01*
X62374890Y-42792080D01*
X62267248Y-42890380D01*
X62185049Y-42924011D01*
X62121388Y-42904190D01*
X62008014Y-42858536D01*
X61995217Y-42853004D01*
X61815441Y-42733870D01*
X61708638Y-42561135D01*
X61673531Y-42328876D01*
X61708845Y-42031169D01*
X61768567Y-41801051D01*
X61847191Y-41514812D01*
X61916706Y-41215201D01*
X61968231Y-40942923D01*
X61988639Y-40792400D01*
X62014166Y-40702375D01*
X62087090Y-40677190D01*
X62147306Y-40680995D01*
X62358527Y-40736005D01*
X62501264Y-40851232D01*
X62576616Y-41030800D01*
X62585680Y-41278836D01*
X62529553Y-41599463D01*
X62458267Y-41849903D01*
X62402593Y-42031251D01*
X62363529Y-42170279D01*
X62347666Y-42243123D01*
X62348234Y-42248368D01*
X62383108Y-42221398D01*
X62448192Y-42119439D01*
X62534504Y-41961240D01*
X62633061Y-41765546D01*
X62734880Y-41551106D01*
X62830979Y-41336666D01*
X62912374Y-41140974D01*
X62970082Y-40982777D01*
X62991105Y-40906700D01*
X63031576Y-40732173D01*
X63070139Y-40635964D01*
X63119516Y-40595848D01*
X63172843Y-40589200D01*
X63286274Y-40621048D01*
G36*
X58982207Y-40870536D02*
G01*
X59115460Y-40881894D01*
X59203599Y-40910995D01*
X59274864Y-40966161D01*
X59338567Y-41034501D01*
X59457287Y-41213139D01*
X59476438Y-41372282D01*
X59396038Y-41512560D01*
X59352949Y-41550712D01*
X59211643Y-41638607D01*
X59116234Y-41639099D01*
X59058995Y-41551086D01*
X59048091Y-41507158D01*
X58990013Y-41358063D01*
X58894555Y-41239370D01*
X58785594Y-41172523D01*
X58687008Y-41178967D01*
X58684416Y-41180544D01*
X58604912Y-41256786D01*
X58596907Y-41351490D01*
X58663836Y-41479192D01*
X58791884Y-41635362D01*
X59045854Y-41945854D01*
X59210489Y-42215347D01*
X59286776Y-42449367D01*
X59275700Y-42653440D01*
X59178249Y-42833092D01*
X59030076Y-42969378D01*
X58867507Y-43046757D01*
X58648231Y-43098778D01*
X58415374Y-43118949D01*
X58212063Y-43100778D01*
X58191400Y-43095631D01*
X58036846Y-43009447D01*
X57896245Y-42858064D01*
X57795730Y-42677148D01*
X57761215Y-42508531D01*
X57810107Y-42382208D01*
X57930234Y-42279692D01*
X58048961Y-42235667D01*
X58144908Y-42223987D01*
X58197331Y-42255097D01*
X58231411Y-42352566D01*
X58246689Y-42420706D01*
X58312872Y-42605304D01*
X58409758Y-42704339D01*
X58530022Y-42710662D01*
X58540095Y-42707079D01*
X58619843Y-42631258D01*
X58622061Y-42500855D01*
X58549039Y-42324146D01*
X58403069Y-42109407D01*
X58359941Y-42056137D01*
X58222108Y-41882283D01*
X58139196Y-41749195D01*
X58095386Y-41624708D01*
X58074861Y-41476660D01*
X58074845Y-41476475D01*
X58068412Y-41309858D01*
X58093152Y-41196978D01*
X58163140Y-41091421D01*
X58206937Y-41040875D01*
X58287285Y-40955879D01*
X58359986Y-40904765D01*
X58453467Y-40878923D01*
X58596154Y-40869739D01*
X58775600Y-40868600D01*
X58982207Y-40870536D01*
X58982207Y-40870536D01*
G37*
X58982207Y-40870536D02*
X59115460Y-40881894D01*
X59203599Y-40910995D01*
X59274864Y-40966161D01*
X59338567Y-41034501D01*
X59457287Y-41213139D01*
X59476438Y-41372282D01*
X59396038Y-41512560D01*
X59352949Y-41550712D01*
X59211643Y-41638607D01*
X59116234Y-41639099D01*
X59058995Y-41551086D01*
X59048091Y-41507158D01*
X58990013Y-41358063D01*
X58894555Y-41239370D01*
X58785594Y-41172523D01*
X58687008Y-41178967D01*
X58684416Y-41180544D01*
X58604912Y-41256786D01*
X58596907Y-41351490D01*
X58663836Y-41479192D01*
X58791884Y-41635362D01*
X59045854Y-41945854D01*
X59210489Y-42215347D01*
X59286776Y-42449367D01*
X59275700Y-42653440D01*
X59178249Y-42833092D01*
X59030076Y-42969378D01*
X58867507Y-43046757D01*
X58648231Y-43098778D01*
X58415374Y-43118949D01*
X58212063Y-43100778D01*
X58191400Y-43095631D01*
X58036846Y-43009447D01*
X57896245Y-42858064D01*
X57795730Y-42677148D01*
X57761215Y-42508531D01*
X57810107Y-42382208D01*
X57930234Y-42279692D01*
X58048961Y-42235667D01*
X58144908Y-42223987D01*
X58197331Y-42255097D01*
X58231411Y-42352566D01*
X58246689Y-42420706D01*
X58312872Y-42605304D01*
X58409758Y-42704339D01*
X58530022Y-42710662D01*
X58540095Y-42707079D01*
X58619843Y-42631258D01*
X58622061Y-42500855D01*
X58549039Y-42324146D01*
X58403069Y-42109407D01*
X58359941Y-42056137D01*
X58222108Y-41882283D01*
X58139196Y-41749195D01*
X58095386Y-41624708D01*
X58074861Y-41476660D01*
X58074845Y-41476475D01*
X58068412Y-41309858D01*
X58093152Y-41196978D01*
X58163140Y-41091421D01*
X58206937Y-41040875D01*
X58287285Y-40955879D01*
X58359986Y-40904765D01*
X58453467Y-40878923D01*
X58596154Y-40869739D01*
X58775600Y-40868600D01*
X58982207Y-40870536D01*
G36*
X57391300Y-40952263D02*
G01*
X57594750Y-41048040D01*
X57720058Y-41199226D01*
X57763259Y-41391803D01*
X57720390Y-41611753D01*
X57627798Y-41788611D01*
X57451039Y-42019916D01*
X57234744Y-42253330D01*
X57009213Y-42458725D01*
X56807089Y-42604595D01*
X56671891Y-42700839D01*
X56625333Y-42773382D01*
X56669110Y-42815884D01*
X56748229Y-42824400D01*
X56938966Y-42784219D01*
X57157728Y-42673058D01*
X57376961Y-42504984D01*
X57380900Y-42501380D01*
X57531580Y-42372705D01*
X57621938Y-42324196D01*
X57657601Y-42358733D01*
X57644198Y-42479197D01*
X57608200Y-42617711D01*
X57491212Y-42848323D01*
X57293734Y-43032318D01*
X57031789Y-43154821D01*
X57028531Y-43155794D01*
X56786071Y-43214621D01*
X56598350Y-43223426D01*
X56431138Y-43181255D01*
X56336407Y-43136463D01*
X56179299Y-42998973D01*
X56082029Y-42797840D01*
X56042356Y-42549850D01*
X56058039Y-42271789D01*
X56062069Y-42254720D01*
X56679265Y-42254720D01*
X56686309Y-42265600D01*
X56738072Y-42231594D01*
X56834989Y-42143522D01*
X56927874Y-42049700D01*
X57137398Y-41816629D01*
X57278667Y-41630837D01*
X57349030Y-41497015D01*
X57345836Y-41419858D01*
X57293692Y-41402000D01*
X57212649Y-41441329D01*
X57098564Y-41543649D01*
X56971700Y-41685457D01*
X56852322Y-41843251D01*
X56760693Y-41993528D01*
X56734752Y-42050281D01*
X56691831Y-42177414D01*
X56679265Y-42254720D01*
X56062069Y-42254720D01*
X56126836Y-41980444D01*
X56246507Y-41692599D01*
X56414809Y-41425041D01*
X56591070Y-41229237D01*
X56838795Y-41037888D01*
X57076228Y-40941573D01*
X57315257Y-40936179D01*
X57391300Y-40952263D01*
X57391300Y-40952263D01*
G37*
X57391300Y-40952263D02*
X57594750Y-41048040D01*
X57720058Y-41199226D01*
X57763259Y-41391803D01*
X57720390Y-41611753D01*
X57627798Y-41788611D01*
X57451039Y-42019916D01*
X57234744Y-42253330D01*
X57009213Y-42458725D01*
X56807089Y-42604595D01*
X56671891Y-42700839D01*
X56625333Y-42773382D01*
X56669110Y-42815884D01*
X56748229Y-42824400D01*
X56938966Y-42784219D01*
X57157728Y-42673058D01*
X57376961Y-42504984D01*
X57380900Y-42501380D01*
X57531580Y-42372705D01*
X57621938Y-42324196D01*
X57657601Y-42358733D01*
X57644198Y-42479197D01*
X57608200Y-42617711D01*
X57491212Y-42848323D01*
X57293734Y-43032318D01*
X57031789Y-43154821D01*
X57028531Y-43155794D01*
X56786071Y-43214621D01*
X56598350Y-43223426D01*
X56431138Y-43181255D01*
X56336407Y-43136463D01*
X56179299Y-42998973D01*
X56082029Y-42797840D01*
X56042356Y-42549850D01*
X56058039Y-42271789D01*
X56062069Y-42254720D01*
X56679265Y-42254720D01*
X56686309Y-42265600D01*
X56738072Y-42231594D01*
X56834989Y-42143522D01*
X56927874Y-42049700D01*
X57137398Y-41816629D01*
X57278667Y-41630837D01*
X57349030Y-41497015D01*
X57345836Y-41419858D01*
X57293692Y-41402000D01*
X57212649Y-41441329D01*
X57098564Y-41543649D01*
X56971700Y-41685457D01*
X56852322Y-41843251D01*
X56760693Y-41993528D01*
X56734752Y-42050281D01*
X56691831Y-42177414D01*
X56679265Y-42254720D01*
X56062069Y-42254720D01*
X56126836Y-41980444D01*
X56246507Y-41692599D01*
X56414809Y-41425041D01*
X56591070Y-41229237D01*
X56838795Y-41037888D01*
X57076228Y-40941573D01*
X57315257Y-40936179D01*
X57391300Y-40952263D01*
G36*
X55574421Y-41087301D02*
G01*
X55729547Y-41192143D01*
X55861243Y-41321610D01*
X55945421Y-41456034D01*
X55958080Y-41575445D01*
X55934367Y-41686731D01*
X55908602Y-41851832D01*
X55896430Y-41948100D01*
X55868203Y-42116772D01*
X55818543Y-42197998D01*
X55725310Y-42204443D01*
X55566362Y-42148773D01*
X55554369Y-42143783D01*
X55411763Y-42068873D01*
X55329839Y-41972513D01*
X55282941Y-41819751D01*
X55272132Y-41759325D01*
X55242626Y-41579800D01*
X54984588Y-42011600D01*
X54770178Y-42427095D01*
X54616658Y-42844609D01*
X54608056Y-42875200D01*
X54551886Y-43071864D01*
X54502907Y-43228903D01*
X54468855Y-43322082D01*
X54460881Y-43336327D01*
X54393647Y-43351158D01*
X54330600Y-43344190D01*
X54186385Y-43275337D01*
X54046976Y-43148709D01*
X53941445Y-42997410D01*
X53898864Y-42854547D01*
X53898853Y-42852534D01*
X53911803Y-42735132D01*
X53947425Y-42540913D01*
X54000958Y-42290885D01*
X54067637Y-42006055D01*
X54142701Y-41707431D01*
X54221385Y-41416022D01*
X54237204Y-41360224D01*
X54314546Y-41089848D01*
X54525773Y-41124454D01*
X54740022Y-41188289D01*
X54872726Y-41292937D01*
X54915765Y-41422573D01*
X54929499Y-41463423D01*
X54974136Y-41426571D01*
X55056936Y-41305751D01*
X55063843Y-41294793D01*
X55160605Y-41157510D01*
X55249533Y-41058918D01*
X55290233Y-41030165D01*
X55419953Y-41026753D01*
X55574421Y-41087301D01*
X55574421Y-41087301D01*
G37*
X55574421Y-41087301D02*
X55729547Y-41192143D01*
X55861243Y-41321610D01*
X55945421Y-41456034D01*
X55958080Y-41575445D01*
X55934367Y-41686731D01*
X55908602Y-41851832D01*
X55896430Y-41948100D01*
X55868203Y-42116772D01*
X55818543Y-42197998D01*
X55725310Y-42204443D01*
X55566362Y-42148773D01*
X55554369Y-42143783D01*
X55411763Y-42068873D01*
X55329839Y-41972513D01*
X55282941Y-41819751D01*
X55272132Y-41759325D01*
X55242626Y-41579800D01*
X54984588Y-42011600D01*
X54770178Y-42427095D01*
X54616658Y-42844609D01*
X54608056Y-42875200D01*
X54551886Y-43071864D01*
X54502907Y-43228903D01*
X54468855Y-43322082D01*
X54460881Y-43336327D01*
X54393647Y-43351158D01*
X54330600Y-43344190D01*
X54186385Y-43275337D01*
X54046976Y-43148709D01*
X53941445Y-42997410D01*
X53898864Y-42854547D01*
X53898853Y-42852534D01*
X53911803Y-42735132D01*
X53947425Y-42540913D01*
X54000958Y-42290885D01*
X54067637Y-42006055D01*
X54142701Y-41707431D01*
X54221385Y-41416022D01*
X54237204Y-41360224D01*
X54314546Y-41089848D01*
X54525773Y-41124454D01*
X54740022Y-41188289D01*
X54872726Y-41292937D01*
X54915765Y-41422573D01*
X54929499Y-41463423D01*
X54974136Y-41426571D01*
X55056936Y-41305751D01*
X55063843Y-41294793D01*
X55160605Y-41157510D01*
X55249533Y-41058918D01*
X55290233Y-41030165D01*
X55419953Y-41026753D01*
X55574421Y-41087301D01*
G36*
X60678685Y-40753050D02*
G01*
X60800785Y-40868600D01*
X60897999Y-40973837D01*
X60966203Y-41037620D01*
X60981546Y-41046400D01*
X61005904Y-41002085D01*
X61034735Y-40892606D01*
X61040495Y-40863569D01*
X61070202Y-40744146D01*
X61118182Y-40700545D01*
X61215941Y-40707850D01*
X61233297Y-40711115D01*
X61402200Y-40784667D01*
X61538583Y-40917038D01*
X61613804Y-41076763D01*
X61620400Y-41136340D01*
X61608398Y-41225095D01*
X61574884Y-41395329D01*
X61523589Y-41630109D01*
X61458246Y-41912502D01*
X61382589Y-42225573D01*
X61361676Y-42309959D01*
X61276889Y-42656257D01*
X61194727Y-43002635D01*
X61120744Y-43324873D01*
X61060496Y-43598751D01*
X61019534Y-43800050D01*
X61017615Y-43810351D01*
X60965205Y-44057086D01*
X60909791Y-44212279D01*
X60840159Y-44285654D01*
X60745092Y-44286937D01*
X60613375Y-44225853D01*
X60569056Y-44199303D01*
X60446633Y-44092215D01*
X60376065Y-43946342D01*
X60356725Y-43750088D01*
X60387985Y-43491858D01*
X60469220Y-43160054D01*
X60506122Y-43034948D01*
X60556063Y-42867262D01*
X60591443Y-42741544D01*
X60604400Y-42686137D01*
X60570779Y-42702258D01*
X60484099Y-42771138D01*
X60401053Y-42843888D01*
X60201423Y-42983714D01*
X60016874Y-43025297D01*
X59840453Y-42969575D01*
X59779927Y-42927721D01*
X59646419Y-42784213D01*
X59569419Y-42598430D01*
X59556147Y-42472682D01*
X60061657Y-42472682D01*
X60077008Y-42551083D01*
X60131174Y-42548791D01*
X60226415Y-42479509D01*
X60319225Y-42376411D01*
X60436695Y-42209785D01*
X60566213Y-42002218D01*
X60695167Y-41776297D01*
X60810947Y-41554608D01*
X60900939Y-41359738D01*
X60952533Y-41214275D01*
X60960000Y-41165708D01*
X60923695Y-41163878D01*
X60831412Y-41208188D01*
X60708099Y-41283345D01*
X60578703Y-41374060D01*
X60468171Y-41465040D01*
X60461613Y-41471187D01*
X60259703Y-41731590D01*
X60125506Y-42062842D01*
X60077374Y-42304491D01*
X60061657Y-42472682D01*
X59556147Y-42472682D01*
X59543342Y-42351364D01*
X59551052Y-42148912D01*
X59622995Y-41745039D01*
X59769373Y-41376133D01*
X59980429Y-41061465D01*
X60211027Y-40845374D01*
X60396561Y-40731095D01*
X60544975Y-40700026D01*
X60678685Y-40753050D01*
X60678685Y-40753050D01*
G37*
X60678685Y-40753050D02*
X60800785Y-40868600D01*
X60897999Y-40973837D01*
X60966203Y-41037620D01*
X60981546Y-41046400D01*
X61005904Y-41002085D01*
X61034735Y-40892606D01*
X61040495Y-40863569D01*
X61070202Y-40744146D01*
X61118182Y-40700545D01*
X61215941Y-40707850D01*
X61233297Y-40711115D01*
X61402200Y-40784667D01*
X61538583Y-40917038D01*
X61613804Y-41076763D01*
X61620400Y-41136340D01*
X61608398Y-41225095D01*
X61574884Y-41395329D01*
X61523589Y-41630109D01*
X61458246Y-41912502D01*
X61382589Y-42225573D01*
X61361676Y-42309959D01*
X61276889Y-42656257D01*
X61194727Y-43002635D01*
X61120744Y-43324873D01*
X61060496Y-43598751D01*
X61019534Y-43800050D01*
X61017615Y-43810351D01*
X60965205Y-44057086D01*
X60909791Y-44212279D01*
X60840159Y-44285654D01*
X60745092Y-44286937D01*
X60613375Y-44225853D01*
X60569056Y-44199303D01*
X60446633Y-44092215D01*
X60376065Y-43946342D01*
X60356725Y-43750088D01*
X60387985Y-43491858D01*
X60469220Y-43160054D01*
X60506122Y-43034948D01*
X60556063Y-42867262D01*
X60591443Y-42741544D01*
X60604400Y-42686137D01*
X60570779Y-42702258D01*
X60484099Y-42771138D01*
X60401053Y-42843888D01*
X60201423Y-42983714D01*
X60016874Y-43025297D01*
X59840453Y-42969575D01*
X59779927Y-42927721D01*
X59646419Y-42784213D01*
X59569419Y-42598430D01*
X59556147Y-42472682D01*
X60061657Y-42472682D01*
X60077008Y-42551083D01*
X60131174Y-42548791D01*
X60226415Y-42479509D01*
X60319225Y-42376411D01*
X60436695Y-42209785D01*
X60566213Y-42002218D01*
X60695167Y-41776297D01*
X60810947Y-41554608D01*
X60900939Y-41359738D01*
X60952533Y-41214275D01*
X60960000Y-41165708D01*
X60923695Y-41163878D01*
X60831412Y-41208188D01*
X60708099Y-41283345D01*
X60578703Y-41374060D01*
X60468171Y-41465040D01*
X60461613Y-41471187D01*
X60259703Y-41731590D01*
X60125506Y-42062842D01*
X60077374Y-42304491D01*
X60061657Y-42472682D01*
X59556147Y-42472682D01*
X59543342Y-42351364D01*
X59551052Y-42148912D01*
X59622995Y-41745039D01*
X59769373Y-41376133D01*
X59980429Y-41061465D01*
X60211027Y-40845374D01*
X60396561Y-40731095D01*
X60544975Y-40700026D01*
X60678685Y-40753050D01*
G36*
X53457180Y-41200394D02*
G01*
X53560989Y-41264368D01*
X53694630Y-41432223D01*
X53775468Y-41664535D01*
X53805342Y-41940104D01*
X53786090Y-42237734D01*
X53719551Y-42536224D01*
X53607564Y-42814377D01*
X53451966Y-43050993D01*
X53401216Y-43106530D01*
X53169672Y-43298799D01*
X52942766Y-43408357D01*
X52732002Y-43432455D01*
X52548883Y-43368343D01*
X52492574Y-43323733D01*
X52403923Y-43255766D01*
X52348310Y-43240691D01*
X52346582Y-43242084D01*
X52326911Y-43299396D01*
X52291687Y-43438347D01*
X52245129Y-43640920D01*
X52191458Y-43889094D01*
X52163109Y-44025451D01*
X52107158Y-44290268D01*
X52055768Y-44519016D01*
X52013262Y-44693519D01*
X51983963Y-44795599D01*
X51975627Y-44813790D01*
X51912305Y-44818007D01*
X51795496Y-44786748D01*
X51759439Y-44773024D01*
X51609104Y-44683880D01*
X51512868Y-44553144D01*
X51468675Y-44369468D01*
X51474472Y-44121504D01*
X51528206Y-43797903D01*
X51558444Y-43662600D01*
X51612530Y-43433154D01*
X51679774Y-43149151D01*
X51683755Y-43132392D01*
X52366026Y-43132392D01*
X52560913Y-43024242D01*
X52713088Y-42929992D01*
X52845410Y-42832268D01*
X52868450Y-42812141D01*
X52961861Y-42686341D01*
X53057948Y-42493468D01*
X53144260Y-42266920D01*
X53208343Y-42040089D01*
X53237745Y-41846373D01*
X53238400Y-41820022D01*
X53230375Y-41688583D01*
X53210207Y-41612800D01*
X53200300Y-41605453D01*
X53144816Y-41648012D01*
X53055088Y-41762670D01*
X52942184Y-41930591D01*
X52817169Y-42132936D01*
X52691111Y-42350869D01*
X52575075Y-42565550D01*
X52480129Y-42758144D01*
X52417340Y-42909811D01*
X52401188Y-42965696D01*
X52366026Y-43132392D01*
X51683755Y-43132392D01*
X51749687Y-42854845D01*
X51787199Y-42697400D01*
X51854292Y-42414113D01*
X51924946Y-42112413D01*
X51988480Y-41838036D01*
X52017068Y-41712931D01*
X52066630Y-41513284D01*
X52114879Y-41350825D01*
X52153661Y-41252029D01*
X52163585Y-41237294D01*
X52236815Y-41227864D01*
X52354752Y-41269493D01*
X52486883Y-41344944D01*
X52602693Y-41436980D01*
X52669290Y-41522962D01*
X52707577Y-41593746D01*
X52736052Y-41580998D01*
X52771886Y-41497571D01*
X52891096Y-41313285D01*
X53061576Y-41197443D01*
X53258533Y-41157371D01*
X53457180Y-41200394D01*
X53457180Y-41200394D01*
G37*
X53457180Y-41200394D02*
X53560989Y-41264368D01*
X53694630Y-41432223D01*
X53775468Y-41664535D01*
X53805342Y-41940104D01*
X53786090Y-42237734D01*
X53719551Y-42536224D01*
X53607564Y-42814377D01*
X53451966Y-43050993D01*
X53401216Y-43106530D01*
X53169672Y-43298799D01*
X52942766Y-43408357D01*
X52732002Y-43432455D01*
X52548883Y-43368343D01*
X52492574Y-43323733D01*
X52403923Y-43255766D01*
X52348310Y-43240691D01*
X52346582Y-43242084D01*
X52326911Y-43299396D01*
X52291687Y-43438347D01*
X52245129Y-43640920D01*
X52191458Y-43889094D01*
X52163109Y-44025451D01*
X52107158Y-44290268D01*
X52055768Y-44519016D01*
X52013262Y-44693519D01*
X51983963Y-44795599D01*
X51975627Y-44813790D01*
X51912305Y-44818007D01*
X51795496Y-44786748D01*
X51759439Y-44773024D01*
X51609104Y-44683880D01*
X51512868Y-44553144D01*
X51468675Y-44369468D01*
X51474472Y-44121504D01*
X51528206Y-43797903D01*
X51558444Y-43662600D01*
X51612530Y-43433154D01*
X51679774Y-43149151D01*
X51683755Y-43132392D01*
X52366026Y-43132392D01*
X52560913Y-43024242D01*
X52713088Y-42929992D01*
X52845410Y-42832268D01*
X52868450Y-42812141D01*
X52961861Y-42686341D01*
X53057948Y-42493468D01*
X53144260Y-42266920D01*
X53208343Y-42040089D01*
X53237745Y-41846373D01*
X53238400Y-41820022D01*
X53230375Y-41688583D01*
X53210207Y-41612800D01*
X53200300Y-41605453D01*
X53144816Y-41648012D01*
X53055088Y-41762670D01*
X52942184Y-41930591D01*
X52817169Y-42132936D01*
X52691111Y-42350869D01*
X52575075Y-42565550D01*
X52480129Y-42758144D01*
X52417340Y-42909811D01*
X52401188Y-42965696D01*
X52366026Y-43132392D01*
X51683755Y-43132392D01*
X51749687Y-42854845D01*
X51787199Y-42697400D01*
X51854292Y-42414113D01*
X51924946Y-42112413D01*
X51988480Y-41838036D01*
X52017068Y-41712931D01*
X52066630Y-41513284D01*
X52114879Y-41350825D01*
X52153661Y-41252029D01*
X52163585Y-41237294D01*
X52236815Y-41227864D01*
X52354752Y-41269493D01*
X52486883Y-41344944D01*
X52602693Y-41436980D01*
X52669290Y-41522962D01*
X52707577Y-41593746D01*
X52736052Y-41580998D01*
X52771886Y-41497571D01*
X52891096Y-41313285D01*
X53061576Y-41197443D01*
X53258533Y-41157371D01*
X53457180Y-41200394D01*
G36*
X68205303Y-43531463D02*
G01*
X68333490Y-43538933D01*
X68364100Y-43544434D01*
X68460863Y-43609850D01*
X68464610Y-43704441D01*
X68378703Y-43825234D01*
X68206507Y-43969254D01*
X67951382Y-44133529D01*
X67616694Y-44315084D01*
X67341367Y-44448766D01*
X66608031Y-44749319D01*
X65817169Y-44992167D01*
X64961221Y-45178957D01*
X64032627Y-45311337D01*
X63023827Y-45390954D01*
X63017400Y-45391282D01*
X62755064Y-45403185D01*
X62571908Y-45405988D01*
X62445746Y-45397507D01*
X62354392Y-45375553D01*
X62275661Y-45337941D01*
X62236905Y-45314357D01*
X62126638Y-45232992D01*
X62087506Y-45155619D01*
X62097256Y-45050217D01*
X62137789Y-44924264D01*
X62208899Y-44766804D01*
X62295671Y-44604360D01*
X62383188Y-44463452D01*
X62456534Y-44370604D01*
X62491961Y-44348400D01*
X62527205Y-44375500D01*
X62523768Y-44386500D01*
X62413807Y-44613341D01*
X62324114Y-44821160D01*
X62263314Y-44988072D01*
X62240027Y-45092195D01*
X62240809Y-45104576D01*
X62301845Y-45160436D01*
X62454220Y-45193164D01*
X62690292Y-45202552D01*
X63002423Y-45188395D01*
X63382969Y-45150485D01*
X63481563Y-45138099D01*
X64368069Y-45001745D01*
X65171886Y-44832811D01*
X65907850Y-44627198D01*
X66590798Y-44380808D01*
X67183000Y-44115596D01*
X67640200Y-43890827D01*
X64932182Y-43916187D01*
X64243124Y-43923682D01*
X63647994Y-43932366D01*
X63148015Y-43942204D01*
X62744412Y-43953161D01*
X62438411Y-43965203D01*
X62231236Y-43978294D01*
X62124112Y-43992400D01*
X62112782Y-43996239D01*
X62028775Y-44057404D01*
X61900252Y-44173671D01*
X61749950Y-44323986D01*
X61689927Y-44387739D01*
X61378454Y-44724548D01*
X60242127Y-44788276D01*
X59860557Y-44809665D01*
X59408471Y-44834990D01*
X58916793Y-44862521D01*
X58416448Y-44890525D01*
X57938361Y-44917272D01*
X57683400Y-44931530D01*
X57242577Y-44956833D01*
X56770907Y-44985049D01*
X56296883Y-45014394D01*
X55849002Y-45043086D01*
X55455759Y-45069340D01*
X55245000Y-45084107D01*
X54889473Y-45109184D01*
X54527038Y-45133894D01*
X54185514Y-45156401D01*
X53892721Y-45174867D01*
X53695600Y-45186418D01*
X53446278Y-45201526D01*
X53210609Y-45218303D01*
X53022447Y-45234224D01*
X52946998Y-45242247D01*
X52793929Y-45249398D01*
X52689023Y-45213356D01*
X52604098Y-45141116D01*
X52500111Y-45004626D01*
X52490230Y-44883146D01*
X52573843Y-44754931D01*
X52592686Y-44735495D01*
X52708973Y-44619208D01*
X56085186Y-44580900D01*
X56692075Y-44573651D01*
X57292242Y-44565794D01*
X57874098Y-44557524D01*
X58426055Y-44549036D01*
X58936524Y-44540525D01*
X59393917Y-44532185D01*
X59786645Y-44524211D01*
X60103120Y-44516797D01*
X60331753Y-44510140D01*
X60363786Y-44508996D01*
X61266173Y-44475400D01*
X61550255Y-44156428D01*
X61655511Y-44037516D01*
X61746419Y-43939900D01*
X61833932Y-43861247D01*
X61929004Y-43799226D01*
X62042586Y-43751505D01*
X62185631Y-43715753D01*
X62369092Y-43689638D01*
X62603921Y-43670828D01*
X62901071Y-43656992D01*
X63271495Y-43645798D01*
X63726145Y-43634914D01*
X64033400Y-43627810D01*
X64525779Y-43615905D01*
X65042577Y-43602764D01*
X65561142Y-43589009D01*
X66058821Y-43575259D01*
X66512960Y-43562135D01*
X66900908Y-43550258D01*
X67081400Y-43544361D01*
X67421910Y-43534718D01*
X67733444Y-43529354D01*
X67999931Y-43528270D01*
X68205303Y-43531463D01*
X68205303Y-43531463D01*
G37*
X68205303Y-43531463D02*
X68333490Y-43538933D01*
X68364100Y-43544434D01*
X68460863Y-43609850D01*
X68464610Y-43704441D01*
X68378703Y-43825234D01*
X68206507Y-43969254D01*
X67951382Y-44133529D01*
X67616694Y-44315084D01*
X67341367Y-44448766D01*
X66608031Y-44749319D01*
X65817169Y-44992167D01*
X64961221Y-45178957D01*
X64032627Y-45311337D01*
X63023827Y-45390954D01*
X63017400Y-45391282D01*
X62755064Y-45403185D01*
X62571908Y-45405988D01*
X62445746Y-45397507D01*
X62354392Y-45375553D01*
X62275661Y-45337941D01*
X62236905Y-45314357D01*
X62126638Y-45232992D01*
X62087506Y-45155619D01*
X62097256Y-45050217D01*
X62137789Y-44924264D01*
X62208899Y-44766804D01*
X62295671Y-44604360D01*
X62383188Y-44463452D01*
X62456534Y-44370604D01*
X62491961Y-44348400D01*
X62527205Y-44375500D01*
X62523768Y-44386500D01*
X62413807Y-44613341D01*
X62324114Y-44821160D01*
X62263314Y-44988072D01*
X62240027Y-45092195D01*
X62240809Y-45104576D01*
X62301845Y-45160436D01*
X62454220Y-45193164D01*
X62690292Y-45202552D01*
X63002423Y-45188395D01*
X63382969Y-45150485D01*
X63481563Y-45138099D01*
X64368069Y-45001745D01*
X65171886Y-44832811D01*
X65907850Y-44627198D01*
X66590798Y-44380808D01*
X67183000Y-44115596D01*
X67640200Y-43890827D01*
X64932182Y-43916187D01*
X64243124Y-43923682D01*
X63647994Y-43932366D01*
X63148015Y-43942204D01*
X62744412Y-43953161D01*
X62438411Y-43965203D01*
X62231236Y-43978294D01*
X62124112Y-43992400D01*
X62112782Y-43996239D01*
X62028775Y-44057404D01*
X61900252Y-44173671D01*
X61749950Y-44323986D01*
X61689927Y-44387739D01*
X61378454Y-44724548D01*
X60242127Y-44788276D01*
X59860557Y-44809665D01*
X59408471Y-44834990D01*
X58916793Y-44862521D01*
X58416448Y-44890525D01*
X57938361Y-44917272D01*
X57683400Y-44931530D01*
X57242577Y-44956833D01*
X56770907Y-44985049D01*
X56296883Y-45014394D01*
X55849002Y-45043086D01*
X55455759Y-45069340D01*
X55245000Y-45084107D01*
X54889473Y-45109184D01*
X54527038Y-45133894D01*
X54185514Y-45156401D01*
X53892721Y-45174867D01*
X53695600Y-45186418D01*
X53446278Y-45201526D01*
X53210609Y-45218303D01*
X53022447Y-45234224D01*
X52946998Y-45242247D01*
X52793929Y-45249398D01*
X52689023Y-45213356D01*
X52604098Y-45141116D01*
X52500111Y-45004626D01*
X52490230Y-44883146D01*
X52573843Y-44754931D01*
X52592686Y-44735495D01*
X52708973Y-44619208D01*
X56085186Y-44580900D01*
X56692075Y-44573651D01*
X57292242Y-44565794D01*
X57874098Y-44557524D01*
X58426055Y-44549036D01*
X58936524Y-44540525D01*
X59393917Y-44532185D01*
X59786645Y-44524211D01*
X60103120Y-44516797D01*
X60331753Y-44510140D01*
X60363786Y-44508996D01*
X61266173Y-44475400D01*
X61550255Y-44156428D01*
X61655511Y-44037516D01*
X61746419Y-43939900D01*
X61833932Y-43861247D01*
X61929004Y-43799226D01*
X62042586Y-43751505D01*
X62185631Y-43715753D01*
X62369092Y-43689638D01*
X62603921Y-43670828D01*
X62901071Y-43656992D01*
X63271495Y-43645798D01*
X63726145Y-43634914D01*
X64033400Y-43627810D01*
X64525779Y-43615905D01*
X65042577Y-43602764D01*
X65561142Y-43589009D01*
X66058821Y-43575259D01*
X66512960Y-43562135D01*
X66900908Y-43550258D01*
X67081400Y-43544361D01*
X67421910Y-43534718D01*
X67733444Y-43529354D01*
X67999931Y-43528270D01*
X68205303Y-43531463D01*
D11*
X53122000Y-106108000D02*
X53122000Y-105952000D01*
X53122000Y-108424000D02*
X53122000Y-108268000D01*
X50520870Y-106108163D02*
G75*
G02X52602961Y-106108000I1041130J-1079837D01*
G01*
X50520870Y-108267837D02*
G75*
G03X52602961Y-108268000I1041130J1079837D01*
G01*
X49889665Y-106109392D02*
G75*
G02X53122000Y-105952484I1672335J-1078608D01*
G01*
X49889665Y-108266608D02*
G75*
G03X53122000Y-108423516I1672335J1078608D01*
G01*
X91730000Y-40730000D02*
X90400000Y-40730000D01*
X91730000Y-39400000D02*
X91730000Y-40730000D01*
X91730000Y-38130000D02*
X89070000Y-38130000D01*
X89070000Y-38130000D02*
X89070000Y-35530000D01*
X91730000Y-38130000D02*
X91730000Y-35530000D01*
X91730000Y-35530000D02*
X89070000Y-35530000D01*
X49160000Y-71460000D02*
X48830000Y-71460000D01*
X48830000Y-71460000D02*
X48830000Y-64920000D01*
X48830000Y-64920000D02*
X49160000Y-64920000D01*
X51240000Y-71460000D02*
X51570000Y-71460000D01*
X51570000Y-71460000D02*
X51570000Y-64920000D01*
X51570000Y-64920000D02*
X51240000Y-64920000D01*
X88820000Y-93540000D02*
X89150000Y-93540000D01*
X88820000Y-87000000D02*
X88820000Y-93540000D01*
X89150000Y-87000000D02*
X88820000Y-87000000D01*
X91560000Y-93540000D02*
X91230000Y-93540000D01*
X91560000Y-87000000D02*
X91560000Y-93540000D01*
X91230000Y-87000000D02*
X91560000Y-87000000D01*
X62820000Y-93640000D02*
X63150000Y-93640000D01*
X62820000Y-87100000D02*
X62820000Y-93640000D01*
X63150000Y-87100000D02*
X62820000Y-87100000D01*
X65560000Y-93640000D02*
X65230000Y-93640000D01*
X65560000Y-87100000D02*
X65560000Y-93640000D01*
X65230000Y-87100000D02*
X65560000Y-87100000D01*
X54840000Y-64840000D02*
X55170000Y-64840000D01*
X55170000Y-64840000D02*
X55170000Y-71380000D01*
X55170000Y-71380000D02*
X54840000Y-71380000D01*
X52760000Y-64840000D02*
X52430000Y-64840000D01*
X52430000Y-64840000D02*
X52430000Y-71380000D01*
X52430000Y-71380000D02*
X52760000Y-71380000D01*
X36608000Y-97182000D02*
X36608000Y-97512000D01*
X43148000Y-97182000D02*
X36608000Y-97182000D01*
X43148000Y-97512000D02*
X43148000Y-97182000D01*
X36608000Y-99922000D02*
X36608000Y-99592000D01*
X43148000Y-99922000D02*
X36608000Y-99922000D01*
X43148000Y-99592000D02*
X43148000Y-99922000D01*
X61560000Y-87180000D02*
X61230000Y-87180000D01*
X61560000Y-93720000D02*
X61560000Y-87180000D01*
X61230000Y-93720000D02*
X61560000Y-93720000D01*
X58820000Y-87180000D02*
X59150000Y-87180000D01*
X58820000Y-93720000D02*
X58820000Y-87180000D01*
X59150000Y-93720000D02*
X58820000Y-93720000D01*
X69660000Y-93630000D02*
X69330000Y-93630000D01*
X69330000Y-93630000D02*
X69330000Y-87090000D01*
X69330000Y-87090000D02*
X69660000Y-87090000D01*
X71740000Y-93630000D02*
X72070000Y-93630000D01*
X72070000Y-93630000D02*
X72070000Y-87090000D01*
X72070000Y-87090000D02*
X71740000Y-87090000D01*
X59912000Y-103148000D02*
X59912000Y-103478000D01*
X59912000Y-103478000D02*
X53372000Y-103478000D01*
X53372000Y-103478000D02*
X53372000Y-103148000D01*
X59912000Y-101068000D02*
X59912000Y-100738000D01*
X59912000Y-100738000D02*
X53372000Y-100738000D01*
X53372000Y-100738000D02*
X53372000Y-101068000D01*
X75430000Y-87100000D02*
X75760000Y-87100000D01*
X75760000Y-87100000D02*
X75760000Y-93640000D01*
X75760000Y-93640000D02*
X75430000Y-93640000D01*
X73350000Y-87100000D02*
X73020000Y-87100000D01*
X73020000Y-87100000D02*
X73020000Y-93640000D01*
X73020000Y-93640000D02*
X73350000Y-93640000D01*
X47784000Y-97182000D02*
X47784000Y-97512000D01*
X54324000Y-97182000D02*
X47784000Y-97182000D01*
X54324000Y-97512000D02*
X54324000Y-97182000D01*
X47784000Y-99922000D02*
X47784000Y-99592000D01*
X54324000Y-99922000D02*
X47784000Y-99922000D01*
X54324000Y-99592000D02*
X54324000Y-99922000D01*
X48736000Y-103148000D02*
X48736000Y-103478000D01*
X48736000Y-103478000D02*
X42196000Y-103478000D01*
X42196000Y-103478000D02*
X42196000Y-103148000D01*
X48736000Y-101068000D02*
X48736000Y-100738000D01*
X48736000Y-100738000D02*
X42196000Y-100738000D01*
X42196000Y-100738000D02*
X42196000Y-101068000D01*
X89630000Y-101570000D02*
X89630000Y-101240000D01*
X83090000Y-101570000D02*
X89630000Y-101570000D01*
X83090000Y-101240000D02*
X83090000Y-101570000D01*
X89630000Y-98830000D02*
X89630000Y-99160000D01*
X83090000Y-98830000D02*
X89630000Y-98830000D01*
X83090000Y-99160000D02*
X83090000Y-98830000D01*
X81460000Y-87080000D02*
X81130000Y-87080000D01*
X81460000Y-93620000D02*
X81460000Y-87080000D01*
X81130000Y-93620000D02*
X81460000Y-93620000D01*
X78720000Y-87080000D02*
X79050000Y-87080000D01*
X78720000Y-93620000D02*
X78720000Y-87080000D01*
X79050000Y-93620000D02*
X78720000Y-93620000D01*
X56360000Y-71360000D02*
X56030000Y-71360000D01*
X56030000Y-71360000D02*
X56030000Y-64820000D01*
X56030000Y-64820000D02*
X56360000Y-64820000D01*
X58440000Y-71360000D02*
X58770000Y-71360000D01*
X58770000Y-71360000D02*
X58770000Y-64820000D01*
X58770000Y-64820000D02*
X58440000Y-64820000D01*
X31020000Y-100738000D02*
X31020000Y-101068000D01*
X37560000Y-100738000D02*
X31020000Y-100738000D01*
X37560000Y-101068000D02*
X37560000Y-100738000D01*
X31020000Y-103478000D02*
X31020000Y-103148000D01*
X37560000Y-103478000D02*
X31020000Y-103478000D01*
X37560000Y-103148000D02*
X37560000Y-103478000D01*
X68835000Y-77470000D02*
X68835000Y-80010000D01*
X68835000Y-80010000D02*
X48515000Y-80010000D01*
X48515000Y-80010000D02*
X48515000Y-77470000D01*
X48515000Y-77470000D02*
X68835000Y-77470000D01*
X48515000Y-77470000D02*
X48515000Y-80010000D01*
X48515000Y-80010000D02*
X33275000Y-80010000D01*
X33275000Y-80010000D02*
X33275000Y-77470000D01*
X33275000Y-77470000D02*
X48515000Y-77470000D01*
X68835000Y-57150000D02*
X68835000Y-59690000D01*
X68835000Y-59690000D02*
X48515000Y-59690000D01*
X48515000Y-59690000D02*
X48515000Y-57150000D01*
X48515000Y-57150000D02*
X68835000Y-57150000D01*
X48515000Y-57150000D02*
X48515000Y-59690000D01*
X48515000Y-59690000D02*
X33275000Y-59690000D01*
X33275000Y-59690000D02*
X33275000Y-57150000D01*
X33275000Y-57150000D02*
X48515000Y-57150000D01*
X37620000Y-61030000D02*
X37620000Y-61360000D01*
X44160000Y-61030000D02*
X37620000Y-61030000D01*
X44160000Y-61360000D02*
X44160000Y-61030000D01*
X37620000Y-63770000D02*
X37620000Y-63440000D01*
X44160000Y-63770000D02*
X37620000Y-63770000D01*
X44160000Y-63440000D02*
X44160000Y-63770000D01*
X82650000Y-93520000D02*
X82320000Y-93520000D01*
X82320000Y-93520000D02*
X82320000Y-86980000D01*
X82320000Y-86980000D02*
X82650000Y-86980000D01*
X84730000Y-93520000D02*
X85060000Y-93520000D01*
X85060000Y-93520000D02*
X85060000Y-86980000D01*
X85060000Y-86980000D02*
X84730000Y-86980000D01*
X55130000Y-87200000D02*
X55460000Y-87200000D01*
X55460000Y-87200000D02*
X55460000Y-93740000D01*
X55460000Y-93740000D02*
X55130000Y-93740000D01*
X53050000Y-87200000D02*
X52720000Y-87200000D01*
X52720000Y-87200000D02*
X52720000Y-93740000D01*
X52720000Y-93740000D02*
X53050000Y-93740000D01*
X85090000Y-104125000D02*
X92710000Y-104125000D01*
X92710000Y-104125000D02*
X92710000Y-111745000D01*
X92710000Y-111745000D02*
X85090000Y-111745000D01*
X85090000Y-111745000D02*
X85090000Y-104125000D01*
X87630000Y-111745000D02*
X87630000Y-113015000D01*
X87630000Y-113015000D02*
X90170000Y-113015000D01*
X90170000Y-113015000D02*
X90170000Y-111745000D01*
X88392000Y-113015000D02*
X88392000Y-113650000D01*
X88392000Y-113650000D02*
X89281000Y-113650000D01*
X89281000Y-113650000D02*
X89281000Y-113015000D01*
X89281000Y-113650000D02*
X90678000Y-113650000D01*
X90678000Y-113650000D02*
X90678000Y-114285000D01*
X90678000Y-114285000D02*
X87249000Y-114285000D01*
X87249000Y-114285000D02*
X87249000Y-113650000D01*
X87249000Y-113650000D02*
X88392000Y-113650000D01*
X82040000Y-110870000D02*
X76960000Y-110870000D01*
X76960000Y-110870000D02*
X76960000Y-108330000D01*
X76960000Y-108330000D02*
X82040000Y-108330000D01*
X82040000Y-108330000D02*
X82040000Y-110870000D01*
X74140000Y-108330000D02*
X74140000Y-110870000D01*
X69060000Y-108330000D02*
X74140000Y-108330000D01*
X69060000Y-110870000D02*
X69060000Y-108330000D01*
X74140000Y-110870000D02*
X69060000Y-110870000D01*
D13*
X45235904Y-110600380D02*
X45235904Y-109600380D01*
X45474000Y-109600380D01*
X45616857Y-109648000D01*
X45712095Y-109743238D01*
X45759714Y-109838476D01*
X45807333Y-110028952D01*
X45807333Y-110171809D01*
X45759714Y-110362285D01*
X45712095Y-110457523D01*
X45616857Y-110552761D01*
X45474000Y-110600380D01*
X45235904Y-110600380D01*
X46664476Y-109933714D02*
X46664476Y-110600380D01*
X46426380Y-109552761D02*
X46188285Y-110267047D01*
X46807333Y-110267047D01*
X34059904Y-110600380D02*
X34059904Y-109600380D01*
X34298000Y-109600380D01*
X34440857Y-109648000D01*
X34536095Y-109743238D01*
X34583714Y-109838476D01*
X34631333Y-110028952D01*
X34631333Y-110171809D01*
X34583714Y-110362285D01*
X34536095Y-110457523D01*
X34440857Y-110552761D01*
X34298000Y-110600380D01*
X34059904Y-110600380D01*
X35012285Y-109695619D02*
X35059904Y-109648000D01*
X35155142Y-109600380D01*
X35393238Y-109600380D01*
X35488476Y-109648000D01*
X35536095Y-109695619D01*
X35583714Y-109790857D01*
X35583714Y-109886095D01*
X35536095Y-110028952D01*
X34964666Y-110600380D01*
X35583714Y-110600380D01*
X59784000Y-109518428D02*
X59892857Y-109554714D01*
X60074285Y-109554714D01*
X60146857Y-109518428D01*
X60183142Y-109482142D01*
X60219428Y-109409571D01*
X60219428Y-109337000D01*
X60183142Y-109264428D01*
X60146857Y-109228142D01*
X60074285Y-109191857D01*
X59929142Y-109155571D01*
X59856571Y-109119285D01*
X59820285Y-109083000D01*
X59784000Y-109010428D01*
X59784000Y-108937857D01*
X59820285Y-108865285D01*
X59856571Y-108829000D01*
X59929142Y-108792714D01*
X60110571Y-108792714D01*
X60219428Y-108829000D01*
X60473428Y-108792714D02*
X60654857Y-109554714D01*
X60800000Y-109010428D01*
X60945142Y-109554714D01*
X61126571Y-108792714D01*
X61344285Y-108792714D02*
X61816000Y-108792714D01*
X61562000Y-109083000D01*
X61670857Y-109083000D01*
X61743428Y-109119285D01*
X61779714Y-109155571D01*
X61816000Y-109228142D01*
X61816000Y-109409571D01*
X61779714Y-109482142D01*
X61743428Y-109518428D01*
X61670857Y-109554714D01*
X61453142Y-109554714D01*
X61380571Y-109518428D01*
X61344285Y-109482142D01*
X37944466Y-83272380D02*
X37944466Y-83986666D01*
X37896847Y-84129523D01*
X37801609Y-84224761D01*
X37658752Y-84272380D01*
X37563514Y-84272380D01*
X38849228Y-83605714D02*
X38849228Y-84272380D01*
X38611133Y-83224761D02*
X38373038Y-83939047D01*
X38992085Y-83939047D01*
X28416904Y-110565380D02*
X28416904Y-109565380D01*
X28655000Y-109565380D01*
X28797857Y-109613000D01*
X28893095Y-109708238D01*
X28940714Y-109803476D01*
X28988333Y-109993952D01*
X28988333Y-110136809D01*
X28940714Y-110327285D01*
X28893095Y-110422523D01*
X28797857Y-110517761D01*
X28655000Y-110565380D01*
X28416904Y-110565380D01*
X29940714Y-110565380D02*
X29369285Y-110565380D01*
X29655000Y-110565380D02*
X29655000Y-109565380D01*
X29559761Y-109708238D01*
X29464523Y-109803476D01*
X29369285Y-109851095D01*
X77123333Y-91217142D02*
X77075714Y-91264761D01*
X76932857Y-91312380D01*
X76837619Y-91312380D01*
X76694761Y-91264761D01*
X76599523Y-91169523D01*
X76551904Y-91074285D01*
X76504285Y-90883809D01*
X76504285Y-90740952D01*
X76551904Y-90550476D01*
X76599523Y-90455238D01*
X76694761Y-90360000D01*
X76837619Y-90312380D01*
X76932857Y-90312380D01*
X77075714Y-90360000D01*
X77123333Y-90407619D01*
X77456666Y-90312380D02*
X78075714Y-90312380D01*
X77742380Y-90693333D01*
X77885238Y-90693333D01*
X77980476Y-90740952D01*
X78028095Y-90788571D01*
X78075714Y-90883809D01*
X78075714Y-91121904D01*
X78028095Y-91217142D01*
X77980476Y-91264761D01*
X77885238Y-91312380D01*
X77599523Y-91312380D01*
X77504285Y-91264761D01*
X77456666Y-91217142D01*
X87152380Y-30508333D02*
X87866666Y-30508333D01*
X88009523Y-30555952D01*
X88104761Y-30651190D01*
X88152380Y-30794047D01*
X88152380Y-30889285D01*
X88152380Y-29508333D02*
X88152380Y-30079761D01*
X88152380Y-29794047D02*
X87152380Y-29794047D01*
X87295238Y-29889285D01*
X87390476Y-29984523D01*
X87438095Y-30079761D01*
X87027380Y-46508333D02*
X87741666Y-46508333D01*
X87884523Y-46555952D01*
X87979761Y-46651190D01*
X88027380Y-46794047D01*
X88027380Y-46889285D01*
X87122619Y-46079761D02*
X87075000Y-46032142D01*
X87027380Y-45936904D01*
X87027380Y-45698809D01*
X87075000Y-45603571D01*
X87122619Y-45555952D01*
X87217857Y-45508333D01*
X87313095Y-45508333D01*
X87455952Y-45555952D01*
X88027380Y-46127380D01*
X88027380Y-45508333D01*
X46256666Y-83252380D02*
X46256666Y-83966666D01*
X46209047Y-84109523D01*
X46113809Y-84204761D01*
X45970952Y-84252380D01*
X45875714Y-84252380D01*
X46637619Y-83252380D02*
X47256666Y-83252380D01*
X46923333Y-83633333D01*
X47066190Y-83633333D01*
X47161428Y-83680952D01*
X47209047Y-83728571D01*
X47256666Y-83823809D01*
X47256666Y-84061904D01*
X47209047Y-84157142D01*
X47161428Y-84204761D01*
X47066190Y-84252380D01*
X46780476Y-84252380D01*
X46685238Y-84204761D01*
X46637619Y-84157142D01*
X62353333Y-70097142D02*
X62305714Y-70144761D01*
X62162857Y-70192380D01*
X62067619Y-70192380D01*
X61924761Y-70144761D01*
X61829523Y-70049523D01*
X61781904Y-69954285D01*
X61734285Y-69763809D01*
X61734285Y-69620952D01*
X61781904Y-69430476D01*
X61829523Y-69335238D01*
X61924761Y-69240000D01*
X62067619Y-69192380D01*
X62162857Y-69192380D01*
X62305714Y-69240000D01*
X62353333Y-69287619D01*
X63305714Y-70192380D02*
X62734285Y-70192380D01*
X63020000Y-70192380D02*
X63020000Y-69192380D01*
X62924761Y-69335238D01*
X62829523Y-69430476D01*
X62734285Y-69478095D01*
X86623333Y-91017142D02*
X86575714Y-91064761D01*
X86432857Y-91112380D01*
X86337619Y-91112380D01*
X86194761Y-91064761D01*
X86099523Y-90969523D01*
X86051904Y-90874285D01*
X86004285Y-90683809D01*
X86004285Y-90540952D01*
X86051904Y-90350476D01*
X86099523Y-90255238D01*
X86194761Y-90160000D01*
X86337619Y-90112380D01*
X86432857Y-90112380D01*
X86575714Y-90160000D01*
X86623333Y-90207619D01*
X87004285Y-90207619D02*
X87051904Y-90160000D01*
X87147142Y-90112380D01*
X87385238Y-90112380D01*
X87480476Y-90160000D01*
X87528095Y-90207619D01*
X87575714Y-90302857D01*
X87575714Y-90398095D01*
X87528095Y-90540952D01*
X86956666Y-91112380D01*
X87575714Y-91112380D01*
X67323333Y-91217142D02*
X67275714Y-91264761D01*
X67132857Y-91312380D01*
X67037619Y-91312380D01*
X66894761Y-91264761D01*
X66799523Y-91169523D01*
X66751904Y-91074285D01*
X66704285Y-90883809D01*
X66704285Y-90740952D01*
X66751904Y-90550476D01*
X66799523Y-90455238D01*
X66894761Y-90360000D01*
X67037619Y-90312380D01*
X67132857Y-90312380D01*
X67275714Y-90360000D01*
X67323333Y-90407619D01*
X68180476Y-90645714D02*
X68180476Y-91312380D01*
X67942380Y-90264761D02*
X67704285Y-90979047D01*
X68323333Y-90979047D01*
X39647904Y-110600380D02*
X39647904Y-109600380D01*
X39886000Y-109600380D01*
X40028857Y-109648000D01*
X40124095Y-109743238D01*
X40171714Y-109838476D01*
X40219333Y-110028952D01*
X40219333Y-110171809D01*
X40171714Y-110362285D01*
X40124095Y-110457523D01*
X40028857Y-110552761D01*
X39886000Y-110600380D01*
X39647904Y-110600380D01*
X41124095Y-109600380D02*
X40647904Y-109600380D01*
X40600285Y-110076571D01*
X40647904Y-110028952D01*
X40743142Y-109981333D01*
X40981238Y-109981333D01*
X41076476Y-110028952D01*
X41124095Y-110076571D01*
X41171714Y-110171809D01*
X41171714Y-110409904D01*
X41124095Y-110505142D01*
X41076476Y-110552761D01*
X40981238Y-110600380D01*
X40743142Y-110600380D01*
X40647904Y-110552761D01*
X40600285Y-110505142D01*
X57447142Y-91826666D02*
X57494761Y-91874285D01*
X57542380Y-92017142D01*
X57542380Y-92112380D01*
X57494761Y-92255238D01*
X57399523Y-92350476D01*
X57304285Y-92398095D01*
X57113809Y-92445714D01*
X56970952Y-92445714D01*
X56780476Y-92398095D01*
X56685238Y-92350476D01*
X56590000Y-92255238D01*
X56542380Y-92112380D01*
X56542380Y-92017142D01*
X56590000Y-91874285D01*
X56637619Y-91826666D01*
X56542380Y-90921904D02*
X56542380Y-91398095D01*
X57018571Y-91445714D01*
X56970952Y-91398095D01*
X56923333Y-91302857D01*
X56923333Y-91064761D01*
X56970952Y-90969523D01*
X57018571Y-90921904D01*
X57113809Y-90874285D01*
X57351904Y-90874285D01*
X57447142Y-90921904D01*
X57494761Y-90969523D01*
X57542380Y-91064761D01*
X57542380Y-91302857D01*
X57494761Y-91398095D01*
X57447142Y-91445714D01*
X50823904Y-110600380D02*
X50823904Y-109600380D01*
X51062000Y-109600380D01*
X51204857Y-109648000D01*
X51300095Y-109743238D01*
X51347714Y-109838476D01*
X51395333Y-110028952D01*
X51395333Y-110171809D01*
X51347714Y-110362285D01*
X51300095Y-110457523D01*
X51204857Y-110552761D01*
X51062000Y-110600380D01*
X50823904Y-110600380D01*
X51728666Y-109600380D02*
X52347714Y-109600380D01*
X52014380Y-109981333D01*
X52157238Y-109981333D01*
X52252476Y-110028952D01*
X52300095Y-110076571D01*
X52347714Y-110171809D01*
X52347714Y-110409904D01*
X52300095Y-110505142D01*
X52252476Y-110552761D01*
X52157238Y-110600380D01*
X51871523Y-110600380D01*
X51776285Y-110552761D01*
X51728666Y-110505142D01*
X87202380Y-38733333D02*
X87916666Y-38733333D01*
X88059523Y-38780952D01*
X88154761Y-38876190D01*
X88202380Y-39019047D01*
X88202380Y-39114285D01*
X87202380Y-37780952D02*
X87202380Y-38257142D01*
X87678571Y-38304761D01*
X87630952Y-38257142D01*
X87583333Y-38161904D01*
X87583333Y-37923809D01*
X87630952Y-37828571D01*
X87678571Y-37780952D01*
X87773809Y-37733333D01*
X88011904Y-37733333D01*
X88107142Y-37780952D01*
X88154761Y-37828571D01*
X88202380Y-37923809D01*
X88202380Y-38161904D01*
X88154761Y-38257142D01*
X88107142Y-38304761D01*
X50033333Y-63152380D02*
X49700000Y-62676190D01*
X49461904Y-63152380D02*
X49461904Y-62152380D01*
X49842857Y-62152380D01*
X49938095Y-62200000D01*
X49985714Y-62247619D01*
X50033333Y-62342857D01*
X50033333Y-62485714D01*
X49985714Y-62580952D01*
X49938095Y-62628571D01*
X49842857Y-62676190D01*
X49461904Y-62676190D01*
X50366666Y-62152380D02*
X50985714Y-62152380D01*
X50652380Y-62533333D01*
X50795238Y-62533333D01*
X50890476Y-62580952D01*
X50938095Y-62628571D01*
X50985714Y-62723809D01*
X50985714Y-62961904D01*
X50938095Y-63057142D01*
X50890476Y-63104761D01*
X50795238Y-63152380D01*
X50509523Y-63152380D01*
X50414285Y-63104761D01*
X50366666Y-63057142D01*
X89547142Y-96212380D02*
X89213809Y-95736190D01*
X88975714Y-96212380D02*
X88975714Y-95212380D01*
X89356666Y-95212380D01*
X89451904Y-95260000D01*
X89499523Y-95307619D01*
X89547142Y-95402857D01*
X89547142Y-95545714D01*
X89499523Y-95640952D01*
X89451904Y-95688571D01*
X89356666Y-95736190D01*
X88975714Y-95736190D01*
X90499523Y-96212380D02*
X89928095Y-96212380D01*
X90213809Y-96212380D02*
X90213809Y-95212380D01*
X90118571Y-95355238D01*
X90023333Y-95450476D01*
X89928095Y-95498095D01*
X91118571Y-95212380D02*
X91213809Y-95212380D01*
X91309047Y-95260000D01*
X91356666Y-95307619D01*
X91404285Y-95402857D01*
X91451904Y-95593333D01*
X91451904Y-95831428D01*
X91404285Y-96021904D01*
X91356666Y-96117142D01*
X91309047Y-96164761D01*
X91213809Y-96212380D01*
X91118571Y-96212380D01*
X91023333Y-96164761D01*
X90975714Y-96117142D01*
X90928095Y-96021904D01*
X90880476Y-95831428D01*
X90880476Y-95593333D01*
X90928095Y-95402857D01*
X90975714Y-95307619D01*
X91023333Y-95260000D01*
X91118571Y-95212380D01*
X63547142Y-96312380D02*
X63213809Y-95836190D01*
X62975714Y-96312380D02*
X62975714Y-95312380D01*
X63356666Y-95312380D01*
X63451904Y-95360000D01*
X63499523Y-95407619D01*
X63547142Y-95502857D01*
X63547142Y-95645714D01*
X63499523Y-95740952D01*
X63451904Y-95788571D01*
X63356666Y-95836190D01*
X62975714Y-95836190D01*
X64499523Y-96312380D02*
X63928095Y-96312380D01*
X64213809Y-96312380D02*
X64213809Y-95312380D01*
X64118571Y-95455238D01*
X64023333Y-95550476D01*
X63928095Y-95598095D01*
X64832857Y-95312380D02*
X65451904Y-95312380D01*
X65118571Y-95693333D01*
X65261428Y-95693333D01*
X65356666Y-95740952D01*
X65404285Y-95788571D01*
X65451904Y-95883809D01*
X65451904Y-96121904D01*
X65404285Y-96217142D01*
X65356666Y-96264761D01*
X65261428Y-96312380D01*
X64975714Y-96312380D01*
X64880476Y-96264761D01*
X64832857Y-96217142D01*
X53633333Y-63052380D02*
X53300000Y-62576190D01*
X53061904Y-63052380D02*
X53061904Y-62052380D01*
X53442857Y-62052380D01*
X53538095Y-62100000D01*
X53585714Y-62147619D01*
X53633333Y-62242857D01*
X53633333Y-62385714D01*
X53585714Y-62480952D01*
X53538095Y-62528571D01*
X53442857Y-62576190D01*
X53061904Y-62576190D01*
X54538095Y-62052380D02*
X54061904Y-62052380D01*
X54014285Y-62528571D01*
X54061904Y-62480952D01*
X54157142Y-62433333D01*
X54395238Y-62433333D01*
X54490476Y-62480952D01*
X54538095Y-62528571D01*
X54585714Y-62623809D01*
X54585714Y-62861904D01*
X54538095Y-62957142D01*
X54490476Y-63004761D01*
X54395238Y-63052380D01*
X54157142Y-63052380D01*
X54061904Y-63004761D01*
X54014285Y-62957142D01*
X34840380Y-99194857D02*
X34364190Y-99528190D01*
X34840380Y-99766285D02*
X33840380Y-99766285D01*
X33840380Y-99385333D01*
X33888000Y-99290095D01*
X33935619Y-99242476D01*
X34030857Y-99194857D01*
X34173714Y-99194857D01*
X34268952Y-99242476D01*
X34316571Y-99290095D01*
X34364190Y-99385333D01*
X34364190Y-99766285D01*
X34840380Y-98242476D02*
X34840380Y-98813904D01*
X34840380Y-98528190D02*
X33840380Y-98528190D01*
X33983238Y-98623428D01*
X34078476Y-98718666D01*
X34126095Y-98813904D01*
X34173714Y-97385333D02*
X34840380Y-97385333D01*
X33792761Y-97623428D02*
X34507047Y-97861523D01*
X34507047Y-97242476D01*
X60023333Y-96412380D02*
X59690000Y-95936190D01*
X59451904Y-96412380D02*
X59451904Y-95412380D01*
X59832857Y-95412380D01*
X59928095Y-95460000D01*
X59975714Y-95507619D01*
X60023333Y-95602857D01*
X60023333Y-95745714D01*
X59975714Y-95840952D01*
X59928095Y-95888571D01*
X59832857Y-95936190D01*
X59451904Y-95936190D01*
X60880476Y-95412380D02*
X60690000Y-95412380D01*
X60594761Y-95460000D01*
X60547142Y-95507619D01*
X60451904Y-95650476D01*
X60404285Y-95840952D01*
X60404285Y-96221904D01*
X60451904Y-96317142D01*
X60499523Y-96364761D01*
X60594761Y-96412380D01*
X60785238Y-96412380D01*
X60880476Y-96364761D01*
X60928095Y-96317142D01*
X60975714Y-96221904D01*
X60975714Y-95983809D01*
X60928095Y-95888571D01*
X60880476Y-95840952D01*
X60785238Y-95793333D01*
X60594761Y-95793333D01*
X60499523Y-95840952D01*
X60451904Y-95888571D01*
X60404285Y-95983809D01*
X70533333Y-96322380D02*
X70200000Y-95846190D01*
X69961904Y-96322380D02*
X69961904Y-95322380D01*
X70342857Y-95322380D01*
X70438095Y-95370000D01*
X70485714Y-95417619D01*
X70533333Y-95512857D01*
X70533333Y-95655714D01*
X70485714Y-95750952D01*
X70438095Y-95798571D01*
X70342857Y-95846190D01*
X69961904Y-95846190D01*
X70866666Y-95322380D02*
X71533333Y-95322380D01*
X71104761Y-96322380D01*
X51604380Y-102750857D02*
X51128190Y-103084190D01*
X51604380Y-103322285D02*
X50604380Y-103322285D01*
X50604380Y-102941333D01*
X50652000Y-102846095D01*
X50699619Y-102798476D01*
X50794857Y-102750857D01*
X50937714Y-102750857D01*
X51032952Y-102798476D01*
X51080571Y-102846095D01*
X51128190Y-102941333D01*
X51128190Y-103322285D01*
X51604380Y-101798476D02*
X51604380Y-102369904D01*
X51604380Y-102084190D02*
X50604380Y-102084190D01*
X50747238Y-102179428D01*
X50842476Y-102274666D01*
X50890095Y-102369904D01*
X50604380Y-100893714D02*
X50604380Y-101369904D01*
X51080571Y-101417523D01*
X51032952Y-101369904D01*
X50985333Y-101274666D01*
X50985333Y-101036571D01*
X51032952Y-100941333D01*
X51080571Y-100893714D01*
X51175809Y-100846095D01*
X51413904Y-100846095D01*
X51509142Y-100893714D01*
X51556761Y-100941333D01*
X51604380Y-101036571D01*
X51604380Y-101274666D01*
X51556761Y-101369904D01*
X51509142Y-101417523D01*
X73747142Y-96312380D02*
X73413809Y-95836190D01*
X73175714Y-96312380D02*
X73175714Y-95312380D01*
X73556666Y-95312380D01*
X73651904Y-95360000D01*
X73699523Y-95407619D01*
X73747142Y-95502857D01*
X73747142Y-95645714D01*
X73699523Y-95740952D01*
X73651904Y-95788571D01*
X73556666Y-95836190D01*
X73175714Y-95836190D01*
X74699523Y-96312380D02*
X74128095Y-96312380D01*
X74413809Y-96312380D02*
X74413809Y-95312380D01*
X74318571Y-95455238D01*
X74223333Y-95550476D01*
X74128095Y-95598095D01*
X75080476Y-95407619D02*
X75128095Y-95360000D01*
X75223333Y-95312380D01*
X75461428Y-95312380D01*
X75556666Y-95360000D01*
X75604285Y-95407619D01*
X75651904Y-95502857D01*
X75651904Y-95598095D01*
X75604285Y-95740952D01*
X75032857Y-96312380D01*
X75651904Y-96312380D01*
X46016380Y-99194857D02*
X45540190Y-99528190D01*
X46016380Y-99766285D02*
X45016380Y-99766285D01*
X45016380Y-99385333D01*
X45064000Y-99290095D01*
X45111619Y-99242476D01*
X45206857Y-99194857D01*
X45349714Y-99194857D01*
X45444952Y-99242476D01*
X45492571Y-99290095D01*
X45540190Y-99385333D01*
X45540190Y-99766285D01*
X46016380Y-98242476D02*
X46016380Y-98813904D01*
X46016380Y-98528190D02*
X45016380Y-98528190D01*
X45159238Y-98623428D01*
X45254476Y-98718666D01*
X45302095Y-98813904D01*
X45016380Y-97385333D02*
X45016380Y-97575809D01*
X45064000Y-97671047D01*
X45111619Y-97718666D01*
X45254476Y-97813904D01*
X45444952Y-97861523D01*
X45825904Y-97861523D01*
X45921142Y-97813904D01*
X45968761Y-97766285D01*
X46016380Y-97671047D01*
X46016380Y-97480571D01*
X45968761Y-97385333D01*
X45921142Y-97337714D01*
X45825904Y-97290095D01*
X45587809Y-97290095D01*
X45492571Y-97337714D01*
X45444952Y-97385333D01*
X45397333Y-97480571D01*
X45397333Y-97671047D01*
X45444952Y-97766285D01*
X45492571Y-97813904D01*
X45587809Y-97861523D01*
X40428380Y-102750857D02*
X39952190Y-103084190D01*
X40428380Y-103322285D02*
X39428380Y-103322285D01*
X39428380Y-102941333D01*
X39476000Y-102846095D01*
X39523619Y-102798476D01*
X39618857Y-102750857D01*
X39761714Y-102750857D01*
X39856952Y-102798476D01*
X39904571Y-102846095D01*
X39952190Y-102941333D01*
X39952190Y-103322285D01*
X40428380Y-101798476D02*
X40428380Y-102369904D01*
X40428380Y-102084190D02*
X39428380Y-102084190D01*
X39571238Y-102179428D01*
X39666476Y-102274666D01*
X39714095Y-102369904D01*
X39428380Y-101465142D02*
X39428380Y-100798476D01*
X40428380Y-101227047D01*
X85407142Y-102752380D02*
X85073809Y-102276190D01*
X84835714Y-102752380D02*
X84835714Y-101752380D01*
X85216666Y-101752380D01*
X85311904Y-101800000D01*
X85359523Y-101847619D01*
X85407142Y-101942857D01*
X85407142Y-102085714D01*
X85359523Y-102180952D01*
X85311904Y-102228571D01*
X85216666Y-102276190D01*
X84835714Y-102276190D01*
X86359523Y-102752380D02*
X85788095Y-102752380D01*
X86073809Y-102752380D02*
X86073809Y-101752380D01*
X85978571Y-101895238D01*
X85883333Y-101990476D01*
X85788095Y-102038095D01*
X87311904Y-102752380D02*
X86740476Y-102752380D01*
X87026190Y-102752380D02*
X87026190Y-101752380D01*
X86930952Y-101895238D01*
X86835714Y-101990476D01*
X86740476Y-102038095D01*
X79923333Y-96312380D02*
X79590000Y-95836190D01*
X79351904Y-96312380D02*
X79351904Y-95312380D01*
X79732857Y-95312380D01*
X79828095Y-95360000D01*
X79875714Y-95407619D01*
X79923333Y-95502857D01*
X79923333Y-95645714D01*
X79875714Y-95740952D01*
X79828095Y-95788571D01*
X79732857Y-95836190D01*
X79351904Y-95836190D01*
X80494761Y-95740952D02*
X80399523Y-95693333D01*
X80351904Y-95645714D01*
X80304285Y-95550476D01*
X80304285Y-95502857D01*
X80351904Y-95407619D01*
X80399523Y-95360000D01*
X80494761Y-95312380D01*
X80685238Y-95312380D01*
X80780476Y-95360000D01*
X80828095Y-95407619D01*
X80875714Y-95502857D01*
X80875714Y-95550476D01*
X80828095Y-95645714D01*
X80780476Y-95693333D01*
X80685238Y-95740952D01*
X80494761Y-95740952D01*
X80399523Y-95788571D01*
X80351904Y-95836190D01*
X80304285Y-95931428D01*
X80304285Y-96121904D01*
X80351904Y-96217142D01*
X80399523Y-96264761D01*
X80494761Y-96312380D01*
X80685238Y-96312380D01*
X80780476Y-96264761D01*
X80828095Y-96217142D01*
X80875714Y-96121904D01*
X80875714Y-95931428D01*
X80828095Y-95836190D01*
X80780476Y-95788571D01*
X80685238Y-95740952D01*
X57233333Y-63052380D02*
X56900000Y-62576190D01*
X56661904Y-63052380D02*
X56661904Y-62052380D01*
X57042857Y-62052380D01*
X57138095Y-62100000D01*
X57185714Y-62147619D01*
X57233333Y-62242857D01*
X57233333Y-62385714D01*
X57185714Y-62480952D01*
X57138095Y-62528571D01*
X57042857Y-62576190D01*
X56661904Y-62576190D01*
X58185714Y-63052380D02*
X57614285Y-63052380D01*
X57900000Y-63052380D02*
X57900000Y-62052380D01*
X57804761Y-62195238D01*
X57709523Y-62290476D01*
X57614285Y-62338095D01*
X29232380Y-102224666D02*
X28756190Y-102558000D01*
X29232380Y-102796095D02*
X28232380Y-102796095D01*
X28232380Y-102415142D01*
X28280000Y-102319904D01*
X28327619Y-102272285D01*
X28422857Y-102224666D01*
X28565714Y-102224666D01*
X28660952Y-102272285D01*
X28708571Y-102319904D01*
X28756190Y-102415142D01*
X28756190Y-102796095D01*
X28327619Y-101843714D02*
X28280000Y-101796095D01*
X28232380Y-101700857D01*
X28232380Y-101462761D01*
X28280000Y-101367523D01*
X28327619Y-101319904D01*
X28422857Y-101272285D01*
X28518095Y-101272285D01*
X28660952Y-101319904D01*
X29232380Y-101891333D01*
X29232380Y-101272285D01*
X50666666Y-76152380D02*
X50666666Y-76866666D01*
X50619047Y-77009523D01*
X50523809Y-77104761D01*
X50380952Y-77152380D01*
X50285714Y-77152380D01*
X51571428Y-76152380D02*
X51380952Y-76152380D01*
X51285714Y-76200000D01*
X51238095Y-76247619D01*
X51142857Y-76390476D01*
X51095238Y-76580952D01*
X51095238Y-76961904D01*
X51142857Y-77057142D01*
X51190476Y-77104761D01*
X51285714Y-77152380D01*
X51476190Y-77152380D01*
X51571428Y-77104761D01*
X51619047Y-77057142D01*
X51666666Y-76961904D01*
X51666666Y-76723809D01*
X51619047Y-76628571D01*
X51571428Y-76580952D01*
X51476190Y-76533333D01*
X51285714Y-76533333D01*
X51190476Y-76580952D01*
X51142857Y-76628571D01*
X51095238Y-76723809D01*
X52340285Y-80555285D02*
X52376571Y-80519000D01*
X52449142Y-80482714D01*
X52630571Y-80482714D01*
X52703142Y-80519000D01*
X52739428Y-80555285D01*
X52775714Y-80627857D01*
X52775714Y-80700428D01*
X52739428Y-80809285D01*
X52304000Y-81244714D01*
X52775714Y-81244714D01*
X53029714Y-80482714D02*
X53537714Y-81244714D01*
X53537714Y-80482714D02*
X53029714Y-81244714D01*
X53936857Y-80809285D02*
X53864285Y-80773000D01*
X53828000Y-80736714D01*
X53791714Y-80664142D01*
X53791714Y-80627857D01*
X53828000Y-80555285D01*
X53864285Y-80519000D01*
X53936857Y-80482714D01*
X54082000Y-80482714D01*
X54154571Y-80519000D01*
X54190857Y-80555285D01*
X54227142Y-80627857D01*
X54227142Y-80664142D01*
X54190857Y-80736714D01*
X54154571Y-80773000D01*
X54082000Y-80809285D01*
X53936857Y-80809285D01*
X53864285Y-80845571D01*
X53828000Y-80881857D01*
X53791714Y-80954428D01*
X53791714Y-81099571D01*
X53828000Y-81172142D01*
X53864285Y-81208428D01*
X53936857Y-81244714D01*
X54082000Y-81244714D01*
X54154571Y-81208428D01*
X54190857Y-81172142D01*
X54227142Y-81099571D01*
X54227142Y-80954428D01*
X54190857Y-80881857D01*
X54154571Y-80845571D01*
X54082000Y-80809285D01*
X55134285Y-80736714D02*
X55134285Y-81498714D01*
X55134285Y-80773000D02*
X55206857Y-80736714D01*
X55352000Y-80736714D01*
X55424571Y-80773000D01*
X55460857Y-80809285D01*
X55497142Y-80881857D01*
X55497142Y-81099571D01*
X55460857Y-81172142D01*
X55424571Y-81208428D01*
X55352000Y-81244714D01*
X55206857Y-81244714D01*
X55134285Y-81208428D01*
X55823714Y-81244714D02*
X55823714Y-80736714D01*
X55823714Y-80482714D02*
X55787428Y-80519000D01*
X55823714Y-80555285D01*
X55860000Y-80519000D01*
X55823714Y-80482714D01*
X55823714Y-80555285D01*
X56186571Y-80736714D02*
X56186571Y-81244714D01*
X56186571Y-80809285D02*
X56222857Y-80773000D01*
X56295428Y-80736714D01*
X56404285Y-80736714D01*
X56476857Y-80773000D01*
X56513142Y-80845571D01*
X56513142Y-81244714D01*
X57420285Y-81208428D02*
X57492857Y-81244714D01*
X57638000Y-81244714D01*
X57710571Y-81208428D01*
X57746857Y-81135857D01*
X57746857Y-81099571D01*
X57710571Y-81027000D01*
X57638000Y-80990714D01*
X57529142Y-80990714D01*
X57456571Y-80954428D01*
X57420285Y-80881857D01*
X57420285Y-80845571D01*
X57456571Y-80773000D01*
X57529142Y-80736714D01*
X57638000Y-80736714D01*
X57710571Y-80773000D01*
X57964571Y-80736714D02*
X58254857Y-80736714D01*
X58073428Y-80482714D02*
X58073428Y-81135857D01*
X58109714Y-81208428D01*
X58182285Y-81244714D01*
X58254857Y-81244714D01*
X58835428Y-81244714D02*
X58835428Y-80845571D01*
X58799142Y-80773000D01*
X58726571Y-80736714D01*
X58581428Y-80736714D01*
X58508857Y-80773000D01*
X58835428Y-81208428D02*
X58762857Y-81244714D01*
X58581428Y-81244714D01*
X58508857Y-81208428D01*
X58472571Y-81135857D01*
X58472571Y-81063285D01*
X58508857Y-80990714D01*
X58581428Y-80954428D01*
X58762857Y-80954428D01*
X58835428Y-80918142D01*
X59524857Y-81208428D02*
X59452285Y-81244714D01*
X59307142Y-81244714D01*
X59234571Y-81208428D01*
X59198285Y-81172142D01*
X59162000Y-81099571D01*
X59162000Y-80881857D01*
X59198285Y-80809285D01*
X59234571Y-80773000D01*
X59307142Y-80736714D01*
X59452285Y-80736714D01*
X59524857Y-80773000D01*
X59851428Y-81244714D02*
X59851428Y-80482714D01*
X59924000Y-80954428D02*
X60141714Y-81244714D01*
X60141714Y-80736714D02*
X59851428Y-81027000D01*
X60794857Y-81244714D02*
X60794857Y-80845571D01*
X60758571Y-80773000D01*
X60686000Y-80736714D01*
X60540857Y-80736714D01*
X60468285Y-80773000D01*
X60794857Y-81208428D02*
X60722285Y-81244714D01*
X60540857Y-81244714D01*
X60468285Y-81208428D01*
X60432000Y-81135857D01*
X60432000Y-81063285D01*
X60468285Y-80990714D01*
X60540857Y-80954428D01*
X60722285Y-80954428D01*
X60794857Y-80918142D01*
X61157714Y-81244714D02*
X61157714Y-80482714D01*
X61157714Y-80773000D02*
X61230285Y-80736714D01*
X61375428Y-80736714D01*
X61448000Y-80773000D01*
X61484285Y-80809285D01*
X61520571Y-80881857D01*
X61520571Y-81099571D01*
X61484285Y-81172142D01*
X61448000Y-81208428D01*
X61375428Y-81244714D01*
X61230285Y-81244714D01*
X61157714Y-81208428D01*
X61956000Y-81244714D02*
X61883428Y-81208428D01*
X61847142Y-81135857D01*
X61847142Y-80482714D01*
X62536571Y-81208428D02*
X62464000Y-81244714D01*
X62318857Y-81244714D01*
X62246285Y-81208428D01*
X62210000Y-81135857D01*
X62210000Y-80845571D01*
X62246285Y-80773000D01*
X62318857Y-80736714D01*
X62464000Y-80736714D01*
X62536571Y-80773000D01*
X62572857Y-80845571D01*
X62572857Y-80918142D01*
X62210000Y-80990714D01*
X63480000Y-81244714D02*
X63480000Y-80482714D01*
X63806571Y-81244714D02*
X63806571Y-80845571D01*
X63770285Y-80773000D01*
X63697714Y-80736714D01*
X63588857Y-80736714D01*
X63516285Y-80773000D01*
X63480000Y-80809285D01*
X64459714Y-81208428D02*
X64387142Y-81244714D01*
X64242000Y-81244714D01*
X64169428Y-81208428D01*
X64133142Y-81135857D01*
X64133142Y-80845571D01*
X64169428Y-80773000D01*
X64242000Y-80736714D01*
X64387142Y-80736714D01*
X64459714Y-80773000D01*
X64496000Y-80845571D01*
X64496000Y-80918142D01*
X64133142Y-80990714D01*
X65149142Y-81244714D02*
X65149142Y-80845571D01*
X65112857Y-80773000D01*
X65040285Y-80736714D01*
X64895142Y-80736714D01*
X64822571Y-80773000D01*
X65149142Y-81208428D02*
X65076571Y-81244714D01*
X64895142Y-81244714D01*
X64822571Y-81208428D01*
X64786285Y-81135857D01*
X64786285Y-81063285D01*
X64822571Y-80990714D01*
X64895142Y-80954428D01*
X65076571Y-80954428D01*
X65149142Y-80918142D01*
X65838571Y-81244714D02*
X65838571Y-80482714D01*
X65838571Y-81208428D02*
X65766000Y-81244714D01*
X65620857Y-81244714D01*
X65548285Y-81208428D01*
X65512000Y-81172142D01*
X65475714Y-81099571D01*
X65475714Y-80881857D01*
X65512000Y-80809285D01*
X65548285Y-80773000D01*
X65620857Y-80736714D01*
X65766000Y-80736714D01*
X65838571Y-80773000D01*
X66491714Y-81208428D02*
X66419142Y-81244714D01*
X66274000Y-81244714D01*
X66201428Y-81208428D01*
X66165142Y-81135857D01*
X66165142Y-80845571D01*
X66201428Y-80773000D01*
X66274000Y-80736714D01*
X66419142Y-80736714D01*
X66491714Y-80773000D01*
X66528000Y-80845571D01*
X66528000Y-80918142D01*
X66165142Y-80990714D01*
X66854571Y-81244714D02*
X66854571Y-80736714D01*
X66854571Y-80881857D02*
X66890857Y-80809285D01*
X66927142Y-80773000D01*
X66999714Y-80736714D01*
X67072285Y-80736714D01*
X33570285Y-80555285D02*
X33606571Y-80519000D01*
X33679142Y-80482714D01*
X33860571Y-80482714D01*
X33933142Y-80519000D01*
X33969428Y-80555285D01*
X34005714Y-80627857D01*
X34005714Y-80700428D01*
X33969428Y-80809285D01*
X33533999Y-81244714D01*
X34005714Y-81244714D01*
X34259714Y-80482714D02*
X34767714Y-81244714D01*
X34767714Y-80482714D02*
X34259714Y-81244714D01*
X35384571Y-80482714D02*
X35239428Y-80482714D01*
X35166857Y-80519000D01*
X35130571Y-80555285D01*
X35058000Y-80664142D01*
X35021714Y-80809285D01*
X35021714Y-81099571D01*
X35058000Y-81172142D01*
X35094285Y-81208428D01*
X35166857Y-81244714D01*
X35312000Y-81244714D01*
X35384571Y-81208428D01*
X35420857Y-81172142D01*
X35457142Y-81099571D01*
X35457142Y-80918142D01*
X35420857Y-80845571D01*
X35384571Y-80809285D01*
X35312000Y-80773000D01*
X35166857Y-80773000D01*
X35094285Y-80809285D01*
X35058000Y-80845571D01*
X35021714Y-80918142D01*
X36364285Y-80736714D02*
X36364285Y-81498714D01*
X36364285Y-80773000D02*
X36436857Y-80736714D01*
X36582000Y-80736714D01*
X36654571Y-80773000D01*
X36690857Y-80809285D01*
X36727142Y-80881857D01*
X36727142Y-81099571D01*
X36690857Y-81172142D01*
X36654571Y-81208428D01*
X36582000Y-81244714D01*
X36436857Y-81244714D01*
X36364285Y-81208428D01*
X37053714Y-81244714D02*
X37053714Y-80736714D01*
X37053714Y-80482714D02*
X37017428Y-80519000D01*
X37053714Y-80555285D01*
X37090000Y-80519000D01*
X37053714Y-80482714D01*
X37053714Y-80555285D01*
X37416571Y-80736714D02*
X37416571Y-81244714D01*
X37416571Y-80809285D02*
X37452857Y-80773000D01*
X37525428Y-80736714D01*
X37634285Y-80736714D01*
X37706857Y-80773000D01*
X37743142Y-80845571D01*
X37743142Y-81244714D01*
X38650285Y-81208428D02*
X38722857Y-81244714D01*
X38868000Y-81244714D01*
X38940571Y-81208428D01*
X38976857Y-81135857D01*
X38976857Y-81099571D01*
X38940571Y-81027000D01*
X38868000Y-80990714D01*
X38759142Y-80990714D01*
X38686571Y-80954428D01*
X38650285Y-80881857D01*
X38650285Y-80845571D01*
X38686571Y-80773000D01*
X38759142Y-80736714D01*
X38868000Y-80736714D01*
X38940571Y-80773000D01*
X39194571Y-80736714D02*
X39484857Y-80736714D01*
X39303428Y-80482714D02*
X39303428Y-81135857D01*
X39339714Y-81208428D01*
X39412285Y-81244714D01*
X39484857Y-81244714D01*
X40065428Y-81244714D02*
X40065428Y-80845571D01*
X40029142Y-80773000D01*
X39956571Y-80736714D01*
X39811428Y-80736714D01*
X39738857Y-80773000D01*
X40065428Y-81208428D02*
X39992857Y-81244714D01*
X39811428Y-81244714D01*
X39738857Y-81208428D01*
X39702571Y-81135857D01*
X39702571Y-81063285D01*
X39738857Y-80990714D01*
X39811428Y-80954428D01*
X39992857Y-80954428D01*
X40065428Y-80918142D01*
X40754857Y-81208428D02*
X40682285Y-81244714D01*
X40537142Y-81244714D01*
X40464571Y-81208428D01*
X40428285Y-81172142D01*
X40392000Y-81099571D01*
X40392000Y-80881857D01*
X40428285Y-80809285D01*
X40464571Y-80773000D01*
X40537142Y-80736714D01*
X40682285Y-80736714D01*
X40754857Y-80773000D01*
X41081428Y-81244714D02*
X41081428Y-80482714D01*
X41154000Y-80954428D02*
X41371714Y-81244714D01*
X41371714Y-80736714D02*
X41081428Y-81027000D01*
X42024857Y-81244714D02*
X42024857Y-80845571D01*
X41988571Y-80773000D01*
X41916000Y-80736714D01*
X41770857Y-80736714D01*
X41698285Y-80773000D01*
X42024857Y-81208428D02*
X41952285Y-81244714D01*
X41770857Y-81244714D01*
X41698285Y-81208428D01*
X41662000Y-81135857D01*
X41662000Y-81063285D01*
X41698285Y-80990714D01*
X41770857Y-80954428D01*
X41952285Y-80954428D01*
X42024857Y-80918142D01*
X42387714Y-81244714D02*
X42387714Y-80482714D01*
X42387714Y-80773000D02*
X42460285Y-80736714D01*
X42605428Y-80736714D01*
X42678000Y-80773000D01*
X42714285Y-80809285D01*
X42750571Y-80881857D01*
X42750571Y-81099571D01*
X42714285Y-81172142D01*
X42678000Y-81208428D01*
X42605428Y-81244714D01*
X42460285Y-81244714D01*
X42387714Y-81208428D01*
X43186000Y-81244714D02*
X43113428Y-81208428D01*
X43077142Y-81135857D01*
X43077142Y-80482714D01*
X43766571Y-81208428D02*
X43693999Y-81244714D01*
X43548857Y-81244714D01*
X43476285Y-81208428D01*
X43439999Y-81135857D01*
X43439999Y-80845571D01*
X43476285Y-80773000D01*
X43548857Y-80736714D01*
X43693999Y-80736714D01*
X43766571Y-80773000D01*
X43802857Y-80845571D01*
X43802857Y-80918142D01*
X43439999Y-80990714D01*
X44709999Y-81244714D02*
X44709999Y-80482714D01*
X45036571Y-81244714D02*
X45036571Y-80845571D01*
X45000285Y-80773000D01*
X44927714Y-80736714D01*
X44818857Y-80736714D01*
X44746285Y-80773000D01*
X44709999Y-80809285D01*
X45689714Y-81208428D02*
X45617142Y-81244714D01*
X45471999Y-81244714D01*
X45399428Y-81208428D01*
X45363142Y-81135857D01*
X45363142Y-80845571D01*
X45399428Y-80773000D01*
X45471999Y-80736714D01*
X45617142Y-80736714D01*
X45689714Y-80773000D01*
X45725999Y-80845571D01*
X45725999Y-80918142D01*
X45363142Y-80990714D01*
X46379142Y-81244714D02*
X46379142Y-80845571D01*
X46342857Y-80773000D01*
X46270285Y-80736714D01*
X46125142Y-80736714D01*
X46052571Y-80773000D01*
X46379142Y-81208428D02*
X46306571Y-81244714D01*
X46125142Y-81244714D01*
X46052571Y-81208428D01*
X46016285Y-81135857D01*
X46016285Y-81063285D01*
X46052571Y-80990714D01*
X46125142Y-80954428D01*
X46306571Y-80954428D01*
X46379142Y-80918142D01*
X47068571Y-81244714D02*
X47068571Y-80482714D01*
X47068571Y-81208428D02*
X46995999Y-81244714D01*
X46850857Y-81244714D01*
X46778285Y-81208428D01*
X46741999Y-81172142D01*
X46705714Y-81099571D01*
X46705714Y-80881857D01*
X46741999Y-80809285D01*
X46778285Y-80773000D01*
X46850857Y-80736714D01*
X46995999Y-80736714D01*
X47068571Y-80773000D01*
X47721714Y-81208428D02*
X47649142Y-81244714D01*
X47503999Y-81244714D01*
X47431428Y-81208428D01*
X47395142Y-81135857D01*
X47395142Y-80845571D01*
X47431428Y-80773000D01*
X47503999Y-80736714D01*
X47649142Y-80736714D01*
X47721714Y-80773000D01*
X47757999Y-80845571D01*
X47757999Y-80918142D01*
X47395142Y-80990714D01*
X48084571Y-81244714D02*
X48084571Y-80736714D01*
X48084571Y-80881857D02*
X48120857Y-80809285D01*
X48157142Y-80773000D01*
X48229714Y-80736714D01*
X48302285Y-80736714D01*
X40733333Y-65052380D02*
X40400000Y-64576190D01*
X40161904Y-65052380D02*
X40161904Y-64052380D01*
X40542857Y-64052380D01*
X40638095Y-64100000D01*
X40685714Y-64147619D01*
X40733333Y-64242857D01*
X40733333Y-64385714D01*
X40685714Y-64480952D01*
X40638095Y-64528571D01*
X40542857Y-64576190D01*
X40161904Y-64576190D01*
X41590476Y-64385714D02*
X41590476Y-65052380D01*
X41352380Y-64004761D02*
X41114285Y-64719047D01*
X41733333Y-64719047D01*
X83523333Y-96212380D02*
X83190000Y-95736190D01*
X82951904Y-96212380D02*
X82951904Y-95212380D01*
X83332857Y-95212380D01*
X83428095Y-95260000D01*
X83475714Y-95307619D01*
X83523333Y-95402857D01*
X83523333Y-95545714D01*
X83475714Y-95640952D01*
X83428095Y-95688571D01*
X83332857Y-95736190D01*
X82951904Y-95736190D01*
X83999523Y-96212380D02*
X84190000Y-96212380D01*
X84285238Y-96164761D01*
X84332857Y-96117142D01*
X84428095Y-95974285D01*
X84475714Y-95783809D01*
X84475714Y-95402857D01*
X84428095Y-95307619D01*
X84380476Y-95260000D01*
X84285238Y-95212380D01*
X84094761Y-95212380D01*
X83999523Y-95260000D01*
X83951904Y-95307619D01*
X83904285Y-95402857D01*
X83904285Y-95640952D01*
X83951904Y-95736190D01*
X83999523Y-95783809D01*
X84094761Y-95831428D01*
X84285238Y-95831428D01*
X84380476Y-95783809D01*
X84428095Y-95736190D01*
X84475714Y-95640952D01*
X53447142Y-96412380D02*
X53113809Y-95936190D01*
X52875714Y-96412380D02*
X52875714Y-95412380D01*
X53256666Y-95412380D01*
X53351904Y-95460000D01*
X53399523Y-95507619D01*
X53447142Y-95602857D01*
X53447142Y-95745714D01*
X53399523Y-95840952D01*
X53351904Y-95888571D01*
X53256666Y-95936190D01*
X52875714Y-95936190D01*
X54399523Y-96412380D02*
X53828095Y-96412380D01*
X54113809Y-96412380D02*
X54113809Y-95412380D01*
X54018571Y-95555238D01*
X53923333Y-95650476D01*
X53828095Y-95698095D01*
X54970952Y-95840952D02*
X54875714Y-95793333D01*
X54828095Y-95745714D01*
X54780476Y-95650476D01*
X54780476Y-95602857D01*
X54828095Y-95507619D01*
X54875714Y-95460000D01*
X54970952Y-95412380D01*
X55161428Y-95412380D01*
X55256666Y-95460000D01*
X55304285Y-95507619D01*
X55351904Y-95602857D01*
X55351904Y-95650476D01*
X55304285Y-95745714D01*
X55256666Y-95793333D01*
X55161428Y-95840952D01*
X54970952Y-95840952D01*
X54875714Y-95888571D01*
X54828095Y-95936190D01*
X54780476Y-96031428D01*
X54780476Y-96221904D01*
X54828095Y-96317142D01*
X54875714Y-96364761D01*
X54970952Y-96412380D01*
X55161428Y-96412380D01*
X55256666Y-96364761D01*
X55304285Y-96317142D01*
X55351904Y-96221904D01*
X55351904Y-96031428D01*
X55304285Y-95936190D01*
X55256666Y-95888571D01*
X55161428Y-95840952D01*
X87566666Y-107069761D02*
X87709523Y-107117380D01*
X87947619Y-107117380D01*
X88042857Y-107069761D01*
X88090476Y-107022142D01*
X88138095Y-106926904D01*
X88138095Y-106831666D01*
X88090476Y-106736428D01*
X88042857Y-106688809D01*
X87947619Y-106641190D01*
X87757142Y-106593571D01*
X87661904Y-106545952D01*
X87614285Y-106498333D01*
X87566666Y-106403095D01*
X87566666Y-106307857D01*
X87614285Y-106212619D01*
X87661904Y-106165000D01*
X87757142Y-106117380D01*
X87995238Y-106117380D01*
X88138095Y-106165000D01*
X88471428Y-106117380D02*
X88709523Y-107117380D01*
X88900000Y-106403095D01*
X89090476Y-107117380D01*
X89328571Y-106117380D01*
X90138095Y-106450714D02*
X90138095Y-107117380D01*
X89900000Y-106069761D02*
X89661904Y-106784047D01*
X90280952Y-106784047D01*
X78166666Y-108004761D02*
X78309523Y-108052380D01*
X78547619Y-108052380D01*
X78642857Y-108004761D01*
X78690476Y-107957142D01*
X78738095Y-107861904D01*
X78738095Y-107766666D01*
X78690476Y-107671428D01*
X78642857Y-107623809D01*
X78547619Y-107576190D01*
X78357142Y-107528571D01*
X78261904Y-107480952D01*
X78214285Y-107433333D01*
X78166666Y-107338095D01*
X78166666Y-107242857D01*
X78214285Y-107147619D01*
X78261904Y-107100000D01*
X78357142Y-107052380D01*
X78595238Y-107052380D01*
X78738095Y-107100000D01*
X79071428Y-107052380D02*
X79309523Y-108052380D01*
X79500000Y-107338095D01*
X79690476Y-108052380D01*
X79928571Y-107052380D01*
X80261904Y-107147619D02*
X80309523Y-107100000D01*
X80404761Y-107052380D01*
X80642857Y-107052380D01*
X80738095Y-107100000D01*
X80785714Y-107147619D01*
X80833333Y-107242857D01*
X80833333Y-107338095D01*
X80785714Y-107480952D01*
X80214285Y-108052380D01*
X80833333Y-108052380D01*
X70266666Y-108004761D02*
X70409523Y-108052380D01*
X70647619Y-108052380D01*
X70742857Y-108004761D01*
X70790476Y-107957142D01*
X70838095Y-107861904D01*
X70838095Y-107766666D01*
X70790476Y-107671428D01*
X70742857Y-107623809D01*
X70647619Y-107576190D01*
X70457142Y-107528571D01*
X70361904Y-107480952D01*
X70314285Y-107433333D01*
X70266666Y-107338095D01*
X70266666Y-107242857D01*
X70314285Y-107147619D01*
X70361904Y-107100000D01*
X70457142Y-107052380D01*
X70695238Y-107052380D01*
X70838095Y-107100000D01*
X71171428Y-107052380D02*
X71409523Y-108052380D01*
X71600000Y-107338095D01*
X71790476Y-108052380D01*
X72028571Y-107052380D01*
X72933333Y-108052380D02*
X72361904Y-108052380D01*
X72647619Y-108052380D02*
X72647619Y-107052380D01*
X72552380Y-107195238D01*
X72457142Y-107290476D01*
X72361904Y-107338095D01*
M02*
