M48
; DRILL file {KiCad (5.1.4)-1} date 13/12/2019 15:42:26
; FORMAT={-:-/ absolute / inch / decimal}
; #@! TF.CreationDate,2019-12-13T15:42:26+01:00
; #@! TF.GenerationSoftware,Kicad,Pcbnew,(5.1.4)-1
; #@! TF.FileFunction,Plated,1,2,PTH
FMAT,2
INCH
T1C0.0236
T2C0.0315
T3C0.0394
%
G90
G05
T1
X1.2774Y-3.2592
X1.2972Y-3.0355
X1.2973Y-2.9586
X2.3692Y-3.9139
X2.526Y-2.4799
X2.56Y-2.4075
X2.6598Y-3.2492
X2.6919Y-3.0118
X2.6984Y-2.3691
X2.7461Y-3.188
X2.762Y-4.0783
X2.7835Y-2.3894
X2.8399Y-4.1563
X2.911Y-2.5299
X2.95Y-2.59
X3.0799Y-3.7901
X3.0799Y-3.9001
X3.1Y-3.34
X3.13Y-3.48
X3.2937Y-2.4976
X3.31Y-2.15
X3.41Y-3.8
T2
X3.0799Y-4.315
X3.1799Y-4.315
X3.1531Y-3.4071
X3.1531Y-3.7071
X3.4169Y-3.4039
X3.4169Y-3.5024
X1.4598Y-2.4567
X1.7598Y-2.4567
X3.5508Y-3.4039
X3.5508Y-3.7039
X2.08Y-4.02
X2.38Y-4.02
X2.2476Y-3.4118
X2.2476Y-3.5102
X3.45Y-4.0994
X3.55Y-4.0994
X1.9764Y-2.5346
X1.9764Y-2.8346
X2.9287Y-3.4079
X2.9287Y-3.7079
X3.2949Y-3.4031
X3.2949Y-3.7031
X1.86Y-3.88
X2.16Y-3.88
X2.1295Y-3.4118
X2.1295Y-3.7118
X2.5272Y-3.4079
X2.5272Y-3.7079
X3.25Y-3.9449
X3.55Y-3.9449
X1.42Y-3.88
X1.72Y-3.88
X1.64Y-4.02
X1.94Y-4.02
X2.3697Y-3.411
X2.3697Y-3.711
X2.7835Y-3.4075
X2.7835Y-3.7075
X3.039Y-3.4079
X3.039Y-3.5063
X2.2598Y-2.5307
X2.2598Y-2.8307
X2.6531Y-3.4079
X2.6531Y-3.5063
X2.7689Y-4.315
X2.8689Y-4.315
X2.1181Y-2.5315
X2.1181Y-2.8315
X1.2Y-4.02
X1.5Y-4.02
X2.4606Y-2.8307
X2.4606Y-2.9291
X2.2937Y-4.1496
X2.3937Y-4.1496
X2.4937Y-4.1496
T3
X2.7934Y-3.8535
X2.941Y-3.8537
X1.98Y-4.22
X2.08Y-4.22
X1.76Y-4.22
X1.86Y-4.22
X1.54Y-4.22
X1.64Y-4.22
X1.7791Y-3.4
X1.8791Y-3.4
X1.36Y-2.3
X1.36Y-3.1
X1.46Y-2.3
X1.46Y-3.1
X1.56Y-2.3
X1.56Y-3.1
X1.66Y-2.3
X1.66Y-3.1
X1.76Y-2.3
X1.76Y-3.1
X1.86Y-2.3
X1.86Y-3.1
X1.96Y-2.3
X1.96Y-3.1
X2.06Y-2.3
X2.06Y-3.1
X2.16Y-2.3
X2.16Y-3.1
X2.26Y-2.3
X2.26Y-3.1
X2.36Y-2.3
X2.36Y-3.1
X2.46Y-2.3
X2.46Y-3.1
X2.56Y-2.3
X2.56Y-3.1
X2.66Y-2.3
X2.66Y-3.1
X3.5591Y-1.4512
X3.5591Y-1.5512
X1.135Y-3.4
X1.235Y-3.4
X1.335Y-3.4
X1.435Y-3.4
X1.535Y-3.4
X1.635Y-3.4
X1.32Y-4.22
X1.42Y-4.22
X3.5591Y-1.7661
X3.5591Y-1.8661
X1.1Y-4.22
X1.2Y-4.22
X3.5591Y-1.1362
X3.5591Y-1.2362
T0
M30
