G04 #@! TF.GenerationSoftware,KiCad,Pcbnew,(5.1.4)-1*
G04 #@! TF.CreationDate,2019-12-13T15:42:32+01:00*
G04 #@! TF.ProjectId,e-p-wifi,652d702d-7769-4666-992e-6b696361645f,1.0*
G04 #@! TF.SameCoordinates,Original*
G04 #@! TF.FileFunction,Copper,L2,Bot*
G04 #@! TF.FilePolarity,Positive*
%FSLAX46Y46*%
G04 Gerber Fmt 4.6, Leading zero omitted, Abs format (unit mm)*
G04 Created by KiCad (PCBNEW (5.1.4)-1) date 2019-12-13 15:42:32*
%MOMM*%
%LPD*%
G04 APERTURE LIST*
%ADD10C,0.100000*%
%ADD11R,1.800000X1.800000*%
%ADD12C,1.800000*%
%ADD13C,1.600000*%
%ADD14R,1.700000X1.700000*%
%ADD15O,1.700000X1.700000*%
%ADD16R,1.600000X1.600000*%
%ADD17O,1.600000X1.600000*%
%ADD18C,1.700000*%
%ADD19C,0.650000*%
%ADD20C,1.050000*%
%ADD21C,0.450000*%
%ADD22C,0.350000*%
%ADD23C,1.000000*%
G04 APERTURE END LIST*
D10*
X44754600Y-68580000D02*
G75*
G03X44754600Y-68580000I-1600000J0D01*
G01*
X32365000Y-58420000D02*
G75*
G03X32365000Y-58420000I-1250000J0D01*
G01*
X32365000Y-78740000D02*
G75*
G03X32365000Y-78740000I-1250000J0D01*
G01*
X89515000Y-58420000D02*
G75*
G03X89515000Y-58420000I-1250000J0D01*
G01*
X77774600Y-57150000D02*
G75*
G03X77774600Y-57150000I-1600000J0D01*
G01*
X77774600Y-80010000D02*
G75*
G03X77774600Y-80010000I-1600000J0D01*
G01*
X89515000Y-78740000D02*
G75*
G03X89515000Y-78740000I-1250000J0D01*
G01*
X45726000Y-52070000D02*
X45726000Y-54610000D01*
X33026000Y-52070000D02*
X33026000Y-54610000D01*
X33026000Y-52070000D02*
X45726000Y-52070000D01*
X33026000Y-54610000D02*
X45726000Y-54610000D01*
X53340000Y-54610000D02*
X53340000Y-52070000D01*
X66040000Y-52070000D02*
X66040000Y-54610000D01*
X53340000Y-52070000D02*
X66040000Y-52070000D01*
X53340000Y-54610000D02*
X66040000Y-54610000D01*
X28702000Y-69850000D02*
X38862000Y-69850000D01*
X38862000Y-67310000D02*
X28702000Y-67310000D01*
X28702000Y-67310000D02*
X28702000Y-69850000D01*
X25400000Y-111760000D02*
X93980000Y-111760000D01*
X93980000Y-25400000D02*
X93980000Y-111760000D01*
X25400000Y-25400000D02*
X25400000Y-111760000D01*
X38862000Y-67310000D02*
X38862000Y-69850000D01*
X25400000Y-25400000D02*
X93980000Y-25400000D01*
D11*
X47244000Y-107188000D03*
D12*
X44704000Y-107188000D03*
D11*
X36068000Y-107188000D03*
D12*
X33528000Y-107188000D03*
D13*
X60800000Y-105400000D03*
X58260000Y-105400000D03*
X63340000Y-105400000D03*
D14*
X41530000Y-86360000D03*
D15*
X38990000Y-86360000D03*
X36450000Y-86360000D03*
X33910000Y-86360000D03*
X31370000Y-86360000D03*
X28830000Y-86360000D03*
D12*
X27940000Y-107188000D03*
D11*
X30480000Y-107188000D03*
D13*
X77190000Y-89060000D03*
X77190000Y-86560000D03*
D14*
X90400000Y-31400000D03*
D15*
X90400000Y-28860000D03*
D14*
X90400000Y-47400000D03*
D15*
X90400000Y-44860000D03*
X45190000Y-86360000D03*
D14*
X47730000Y-86360000D03*
D16*
X62500000Y-74400000D03*
D13*
X62500000Y-71900000D03*
X86790000Y-86460000D03*
X86790000Y-88960000D03*
X67390000Y-86560000D03*
X67390000Y-89060000D03*
D11*
X41656000Y-107188000D03*
D12*
X39116000Y-107188000D03*
D13*
X57090000Y-89160000D03*
X57090000Y-86660000D03*
D12*
X50292000Y-107188000D03*
D11*
X52832000Y-107188000D03*
D15*
X90400000Y-36860000D03*
D14*
X90400000Y-39400000D03*
D13*
X50200000Y-72000000D03*
D17*
X50200000Y-64380000D03*
X90190000Y-94080000D03*
D13*
X90190000Y-86460000D03*
D17*
X64190000Y-94180000D03*
D13*
X64190000Y-86560000D03*
X53800000Y-64300000D03*
D17*
X53800000Y-71920000D03*
X36068000Y-98552000D03*
D13*
X43688000Y-98552000D03*
D17*
X60190000Y-86640000D03*
D13*
X60190000Y-94260000D03*
X70700000Y-94170000D03*
D17*
X70700000Y-86550000D03*
D13*
X60452000Y-102108000D03*
D17*
X52832000Y-102108000D03*
D13*
X74390000Y-86560000D03*
D17*
X74390000Y-94180000D03*
X47244000Y-98552000D03*
D13*
X54864000Y-98552000D03*
X49276000Y-102108000D03*
D17*
X41656000Y-102108000D03*
X90170000Y-100200000D03*
D13*
X82550000Y-100200000D03*
D17*
X80090000Y-86540000D03*
D13*
X80090000Y-94160000D03*
X57400000Y-71900000D03*
D17*
X57400000Y-64280000D03*
X30480000Y-102108000D03*
D13*
X38100000Y-102108000D03*
D15*
X67565000Y-58420000D03*
X65025000Y-78740000D03*
X65025000Y-58420000D03*
X62485000Y-78740000D03*
X62485000Y-58420000D03*
X59945000Y-78740000D03*
X59945000Y-58420000D03*
X57405000Y-78740000D03*
X57405000Y-58420000D03*
X54865000Y-78740000D03*
X54865000Y-58420000D03*
X52325000Y-78740000D03*
X52325000Y-58420000D03*
X49785000Y-78740000D03*
X49785000Y-58420000D03*
X47245000Y-78740000D03*
X47245000Y-58420000D03*
X44705000Y-78740000D03*
X44705000Y-58420000D03*
X42165000Y-78740000D03*
X42165000Y-58420000D03*
X39625000Y-78740000D03*
X39625000Y-58420000D03*
X37085000Y-78740000D03*
X37085000Y-58420000D03*
X34545000Y-78740000D03*
X34545000Y-58420000D03*
D18*
X67565000Y-78740000D03*
D17*
X37080000Y-62400000D03*
D13*
X44700000Y-62400000D03*
X83690000Y-94060000D03*
D17*
X83690000Y-86440000D03*
D13*
X54090000Y-86660000D03*
D17*
X54090000Y-94280000D03*
D13*
X87630000Y-104125000D03*
X90170000Y-104125000D03*
X80770000Y-109600000D03*
X78230000Y-109600000D03*
X70330000Y-109600000D03*
X72870000Y-109600000D03*
D19*
X70154180Y-103588200D03*
X72132810Y-105569370D03*
X60177030Y-99412410D03*
X32445000Y-82783680D03*
X83660000Y-63440000D03*
X64160001Y-62990001D03*
X73940000Y-64260000D03*
X70700000Y-60689860D03*
X68539720Y-60175000D03*
X69750000Y-80975000D03*
X65025000Y-61150000D03*
X68375000Y-76500000D03*
D20*
X74702560Y-97883980D03*
X70952360Y-97878900D03*
D19*
X32951420Y-75148800D03*
X32949566Y-77100654D03*
X86614000Y-96520000D03*
X84074000Y-54610000D03*
X78230000Y-96268000D03*
X78230000Y-99062000D03*
X79502000Y-88392000D03*
X78740000Y-84836000D03*
X74930000Y-65786000D03*
X67560000Y-82530000D03*
D21*
X87630000Y-108381800D02*
X87630000Y-104125000D01*
X80770000Y-109600000D02*
X86411800Y-109600000D01*
X86411800Y-109600000D02*
X87630000Y-108381800D01*
X72870000Y-110677630D02*
X72870000Y-109600000D01*
X73327360Y-111134990D02*
X72870000Y-110677630D01*
X80312640Y-111134990D02*
X73327360Y-111134990D01*
X80770000Y-110677630D02*
X80312640Y-111134990D01*
X80770000Y-109600000D02*
X80770000Y-110677630D01*
X72870000Y-109600000D02*
X72870000Y-106306560D01*
X72870000Y-106306560D02*
X72132810Y-105569370D01*
X61051440Y-100286820D02*
X60177030Y-99412410D01*
X64549020Y-100286820D02*
X61051440Y-100286820D01*
X70154180Y-103588200D02*
X67850400Y-103588200D01*
X67850400Y-103588200D02*
X64549020Y-100286820D01*
X28830000Y-87496380D02*
X28830000Y-86360000D01*
X29359150Y-88025530D02*
X28830000Y-87496380D01*
X35857890Y-88025530D02*
X29359150Y-88025530D01*
X36450000Y-86360000D02*
X36450000Y-87433420D01*
X36450000Y-87433420D02*
X35857890Y-88025530D01*
X62500000Y-78725000D02*
X62485000Y-78740000D01*
X62500000Y-74400000D02*
X62500000Y-78725000D01*
X57400000Y-73562020D02*
X57400000Y-71900000D01*
X62500000Y-74400000D02*
X58237980Y-74400000D01*
X58237980Y-74400000D02*
X57400000Y-73562020D01*
X50200000Y-73786440D02*
X50200000Y-72000000D01*
X58237980Y-74400000D02*
X50813560Y-74400000D01*
X50813560Y-74400000D02*
X50200000Y-73786440D01*
X35539680Y-82783680D02*
X32445000Y-82783680D01*
X36450000Y-86360000D02*
X36450000Y-83694000D01*
X36450000Y-83694000D02*
X35539680Y-82783680D01*
D22*
X90190000Y-86460000D02*
X86790000Y-86460000D01*
X83710000Y-86460000D02*
X83690000Y-86440000D01*
X86790000Y-86460000D02*
X83710000Y-86460000D01*
X83660000Y-85278630D02*
X83660000Y-63440000D01*
X83690000Y-85308630D02*
X83660000Y-85278630D01*
X83690000Y-86440000D02*
X83690000Y-85308630D01*
X57405000Y-61585000D02*
X57405000Y-58420000D01*
X58150000Y-62330000D02*
X57405000Y-61585000D01*
X60704400Y-62330000D02*
X58150000Y-62330000D01*
X64160001Y-62990001D02*
X61364401Y-62990001D01*
X61364401Y-62990001D02*
X60704400Y-62330000D01*
X77210000Y-86540000D02*
X77190000Y-86560000D01*
X80090000Y-86540000D02*
X77210000Y-86540000D01*
X77190000Y-86560000D02*
X74390000Y-86560000D01*
X73940000Y-84978630D02*
X73940000Y-64260000D01*
X74390000Y-86560000D02*
X74390000Y-85428630D01*
X74390000Y-85428630D02*
X73940000Y-84978630D01*
X67400000Y-86550000D02*
X67390000Y-86560000D01*
X70700000Y-86550000D02*
X67400000Y-86550000D01*
X67390000Y-86560000D02*
X64190000Y-86560000D01*
X70700000Y-86550000D02*
X70700000Y-60689860D01*
X62485000Y-59685000D02*
X62485000Y-58420000D01*
X68539720Y-60175000D02*
X62975000Y-60175000D01*
X62975000Y-60175000D02*
X62485000Y-59685000D01*
X57110000Y-86640000D02*
X57090000Y-86660000D01*
X60190000Y-86640000D02*
X57110000Y-86640000D01*
X57090000Y-86660000D02*
X54090000Y-86660000D01*
X65025000Y-61100000D02*
X65025000Y-61150000D01*
X65025000Y-63350000D02*
X65025000Y-61100000D01*
X66550000Y-64875000D02*
X65025000Y-63350000D01*
X66550000Y-76075000D02*
X66550000Y-64875000D01*
X68375000Y-76500000D02*
X66975000Y-76500000D01*
X66975000Y-76500000D02*
X66550000Y-76075000D01*
X69750000Y-80975000D02*
X69725000Y-80975000D01*
X69175000Y-81550000D02*
X69750000Y-80975000D01*
X60775000Y-81550000D02*
X69175000Y-81550000D01*
X60190000Y-86640000D02*
X60190000Y-82135000D01*
X60190000Y-82135000D02*
X60775000Y-81550000D01*
D23*
X91602081Y-36860000D02*
X90400000Y-36860000D01*
X93079990Y-38337909D02*
X91602081Y-36860000D01*
X93079990Y-96254150D02*
X93079990Y-38337909D01*
X91450160Y-97883980D02*
X93079990Y-96254150D01*
X74702560Y-97883980D02*
X81955640Y-97883980D01*
X81955640Y-97883980D02*
X91450160Y-97883980D01*
X81295240Y-97883980D02*
X81955640Y-97883980D01*
X80090000Y-94160000D02*
X80090000Y-96678740D01*
X80090000Y-96678740D02*
X81295240Y-97883980D01*
X58260000Y-108699280D02*
X58260000Y-105400000D01*
X56205120Y-110754160D02*
X58260000Y-108699280D01*
X29154120Y-110754160D02*
X56205120Y-110754160D01*
X27940000Y-107188000D02*
X27940000Y-109540040D01*
X27940000Y-109540040D02*
X29154120Y-110754160D01*
X58260000Y-104322370D02*
X58252360Y-104314730D01*
X58260000Y-105400000D02*
X58260000Y-104322370D01*
X58252360Y-104314730D02*
X58252360Y-99357180D01*
X58252360Y-99357180D02*
X59730640Y-97878900D01*
X59730640Y-97878900D02*
X70952360Y-97878900D01*
D22*
X30480000Y-105938000D02*
X30480000Y-102108000D01*
X30480000Y-107188000D02*
X30480000Y-105938000D01*
X36068000Y-105938000D02*
X36068000Y-98552000D01*
X36068000Y-107188000D02*
X36068000Y-105938000D01*
X34545000Y-56747140D02*
X34545000Y-58420000D01*
X33423860Y-55626000D02*
X34545000Y-56747140D01*
X27444700Y-55626000D02*
X33423860Y-55626000D01*
X26334720Y-89649300D02*
X26334720Y-56735980D01*
X33528000Y-105915208D02*
X33517840Y-105905048D01*
X33517840Y-90665300D02*
X33037780Y-90185240D01*
X26334720Y-56735980D02*
X27444700Y-55626000D01*
X33528000Y-107188000D02*
X33528000Y-105915208D01*
X33037780Y-90185240D02*
X26870660Y-90185240D01*
X33517840Y-105905048D02*
X33517840Y-90665300D01*
X26870660Y-90185240D02*
X26334720Y-89649300D01*
X55831740Y-55623460D02*
X54865000Y-56590200D01*
X68717160Y-55623460D02*
X55831740Y-55623460D01*
X69514720Y-56421020D02*
X68717160Y-55623460D01*
X50292000Y-105915208D02*
X51008280Y-105198928D01*
X50292000Y-107188000D02*
X50292000Y-105915208D01*
X54865000Y-56590200D02*
X54865000Y-58420000D01*
X51008280Y-105198928D02*
X51008280Y-81879440D01*
X51008280Y-81879440D02*
X52339240Y-80548480D01*
X52339240Y-80548480D02*
X68757800Y-80548480D01*
X69514720Y-79791560D02*
X69514720Y-56421020D01*
X68757800Y-80548480D02*
X69514720Y-79791560D01*
X52832000Y-105938000D02*
X52832000Y-102108000D01*
X52832000Y-107188000D02*
X52832000Y-105938000D01*
X47244000Y-107188000D02*
X47244000Y-98552000D01*
X44704000Y-105915208D02*
X44709080Y-105910128D01*
X44704000Y-107188000D02*
X44704000Y-105915208D01*
X44709080Y-101277420D02*
X45519340Y-100467160D01*
X44709080Y-105910128D02*
X44709080Y-101277420D01*
X45519340Y-100467160D02*
X45519340Y-91770200D01*
X45519340Y-91770200D02*
X43375580Y-89626440D01*
X43375580Y-89626440D02*
X43375580Y-83355180D01*
X43375580Y-83355180D02*
X42451020Y-82430620D01*
X42451020Y-82430620D02*
X38221920Y-82430620D01*
X37085000Y-81293700D02*
X37085000Y-78740000D01*
X38221920Y-82430620D02*
X37085000Y-81293700D01*
X41656000Y-105938000D02*
X41656000Y-102108000D01*
X41656000Y-107188000D02*
X41656000Y-105938000D01*
X34549080Y-78735920D02*
X34545000Y-78740000D01*
X27625040Y-76123800D02*
X34046160Y-76123800D01*
X27034730Y-76714110D02*
X27625040Y-76123800D01*
X27034730Y-88256350D02*
X27034730Y-76714110D01*
X34046160Y-76123800D02*
X34549080Y-76626720D01*
X39116000Y-107188000D02*
X39116000Y-104416860D01*
X39865300Y-103667560D02*
X39865300Y-89443560D01*
X39865300Y-89443560D02*
X39197280Y-88775540D01*
X34549080Y-76626720D02*
X34549080Y-78735920D01*
X39116000Y-104416860D02*
X39865300Y-103667560D01*
X39197280Y-88775540D02*
X27553920Y-88775540D01*
X27553920Y-88775540D02*
X27034730Y-88256350D01*
D23*
X82890001Y-93260001D02*
X82890001Y-93258281D01*
X83690000Y-94060000D02*
X82890001Y-93260001D01*
X82890001Y-93258281D02*
X81955640Y-92323920D01*
X89197919Y-44860000D02*
X89194319Y-44856400D01*
X90400000Y-44860000D02*
X89197919Y-44860000D01*
X83334860Y-44856400D02*
X81955640Y-43477180D01*
X89194319Y-44856400D02*
X83334860Y-44856400D01*
X81955640Y-92323920D02*
X81955640Y-43477180D01*
X83395300Y-31400000D02*
X90400000Y-31400000D01*
X81955640Y-43477180D02*
X81955640Y-32839660D01*
X81955640Y-32839660D02*
X83395300Y-31400000D01*
X62539880Y-108788200D02*
X60800000Y-107048320D01*
X66934080Y-108788200D02*
X62539880Y-108788200D01*
X72552560Y-103169720D02*
X66934080Y-108788200D01*
X72552560Y-30518100D02*
X72552560Y-103169720D01*
X90400000Y-28860000D02*
X74210660Y-28860000D01*
X74210660Y-28860000D02*
X72552560Y-30518100D01*
X60800000Y-107048320D02*
X60800000Y-105400000D01*
D22*
X47245000Y-59622081D02*
X47245000Y-58420000D01*
X47245000Y-63775320D02*
X47245000Y-59622081D01*
X50200000Y-64380000D02*
X47849680Y-64380000D01*
X47849680Y-64380000D02*
X47245000Y-63775320D01*
X39625000Y-65220580D02*
X39625000Y-58420000D01*
X40446960Y-66042540D02*
X39625000Y-65220580D01*
X39624000Y-66865500D02*
X40446960Y-66042540D01*
X39624000Y-70037960D02*
X39624000Y-66865500D01*
X39055040Y-70606920D02*
X39624000Y-70037960D01*
X33533080Y-70606920D02*
X39055040Y-70606920D01*
X32951420Y-75148800D02*
X32951420Y-71188580D01*
X32951420Y-71188580D02*
X33533080Y-70606920D01*
X41465500Y-65024000D02*
X40446960Y-66042540D01*
X44196000Y-65024000D02*
X41465500Y-65024000D01*
X45917090Y-66745090D02*
X44196000Y-65024000D01*
X56066280Y-66745090D02*
X45917090Y-66745090D01*
X57400000Y-64280000D02*
X57400000Y-65411370D01*
X57400000Y-65411370D02*
X56066280Y-66745090D01*
X32949566Y-80288714D02*
X32949566Y-77100654D01*
X31370000Y-81868280D02*
X32949566Y-80288714D01*
X31370000Y-86360000D02*
X31370000Y-81868280D01*
X90170000Y-103047370D02*
X90170000Y-100200000D01*
X90170000Y-104125000D02*
X90170000Y-103047370D01*
X92054980Y-89301020D02*
X92054980Y-83312000D01*
X90170000Y-91186000D02*
X92054980Y-89301020D01*
X87630000Y-91186000D02*
X90170000Y-91186000D01*
X86614000Y-96520000D02*
X86614000Y-92202000D01*
X86614000Y-92202000D02*
X87630000Y-91186000D01*
X92054980Y-83312000D02*
X92054980Y-63352980D01*
X92054980Y-63352980D02*
X92054980Y-56896000D01*
X92054980Y-56896000D02*
X92054980Y-56748980D01*
X92054980Y-56748980D02*
X89916000Y-54610000D01*
X89916000Y-54610000D02*
X84074000Y-54610000D01*
X42165000Y-59703700D02*
X42165000Y-58420000D01*
X45788580Y-60314840D02*
X42776140Y-60314840D01*
X53800000Y-65431370D02*
X53186290Y-66045080D01*
X42776140Y-60314840D02*
X42165000Y-59703700D01*
X53800000Y-64300000D02*
X53800000Y-65431370D01*
X53186290Y-66045080D02*
X47218600Y-66045080D01*
X47218600Y-66045080D02*
X46544990Y-65371470D01*
X46544990Y-65371470D02*
X46544990Y-61071250D01*
X46544990Y-61071250D02*
X45788580Y-60314840D01*
X78230000Y-109600000D02*
X78230000Y-99062000D01*
X78230000Y-95631604D02*
X78232000Y-95629604D01*
X78230000Y-96268000D02*
X78230000Y-95631604D01*
X78232000Y-95629604D02*
X78232000Y-91948000D01*
X78232000Y-91948000D02*
X79502000Y-90678000D01*
X79502000Y-90678000D02*
X79502000Y-88392000D01*
X77724000Y-65786000D02*
X74930000Y-65786000D01*
X80772000Y-68834000D02*
X77724000Y-65786000D01*
X78740000Y-84836000D02*
X80772000Y-82804000D01*
X80772000Y-82804000D02*
X80772000Y-68834000D01*
X67560000Y-82530000D02*
X67560000Y-82525000D01*
X63080000Y-82530000D02*
X67560000Y-82530000D01*
X62450000Y-83160000D02*
X63080000Y-82530000D01*
X62450000Y-88866000D02*
X62450000Y-83160000D01*
X70700000Y-94170000D02*
X67754000Y-94170000D01*
X67754000Y-94170000D02*
X62450000Y-88866000D01*
M02*
