G04 #@! TF.FileFunction,Soldermask,Bot*
%FSLAX46Y46*%
G04 Gerber Fmt 4.6, Leading zero omitted, Abs format (unit mm)*
G04 Created by KiCad (PCBNEW 4.0.2+dfsg1-stable) date mar. 31 janv. 2017 17:52:21 CET*
%MOMM*%
G01*
G04 APERTURE LIST*
%ADD10C,0.050000*%
%ADD11O,3.414980X1.906220*%
%ADD12O,1.500000X1.924000*%
%ADD13C,2.432000*%
%ADD14O,2.432000X2.127200*%
%ADD15O,2.127200X2.127200*%
%ADD16O,2.127200X2.432000*%
%ADD17C,2.127200*%
G04 APERTURE END LIST*
D10*
D11*
X-27305000Y6350000D03*
X-27305000Y8890000D03*
X-27400000Y-8695000D03*
X-27400000Y-6155000D03*
X24130000Y-8255000D03*
X24130000Y-10795000D03*
X24130000Y-13335000D03*
X24130000Y-15875000D03*
X24130000Y-18415000D03*
X24130000Y-20955000D03*
D12*
X25670000Y19050000D03*
X27670000Y19050000D03*
D13*
X-21590000Y-15240000D03*
X-21590000Y-20320000D03*
X-26670000Y-20320000D03*
X-26670000Y-15240000D03*
D14*
X33300000Y3470000D03*
X33300000Y6010000D03*
X33300000Y8550000D03*
D15*
X5080000Y3810000D03*
X5080000Y6350000D03*
X5080000Y8890000D03*
D16*
X0Y-16510000D03*
D14*
X-7620000Y16510000D03*
X-7620000Y13970000D03*
X-7620000Y11430000D03*
X-7620000Y8890000D03*
X-7620000Y6350000D03*
X-7620000Y3810000D03*
X-7620000Y1270000D03*
X-7620000Y-1270000D03*
X-7620000Y-3810000D03*
X-7620000Y-6350000D03*
X-7620000Y-8890000D03*
X-7620000Y-11430000D03*
X-7620000Y-13970000D03*
D17*
X-7727763Y-16617763D02*
X-7512237Y-16402237D01*
D16*
X-5080000Y-16510000D03*
X-2540000Y-16510000D03*
X2540000Y-16510000D03*
X5080000Y-16510000D03*
X5080000Y13970000D03*
D17*
X7512237Y-16402237D02*
X7727763Y-16617763D01*
D14*
X7620000Y-13970000D03*
X7620000Y-11430000D03*
X7620000Y-8890000D03*
X7620000Y-6350000D03*
X7620000Y-3810000D03*
X7620000Y-1270000D03*
X7620000Y1270000D03*
X7620000Y3810000D03*
X7620000Y6350000D03*
X7620000Y8890000D03*
X7620000Y11430000D03*
D15*
X7620000Y13970000D03*
D14*
X7620000Y16510000D03*
M02*
