G04 #@! TF.FileFunction,Profile,NP*
%FSLAX46Y46*%
G04 Gerber Fmt 4.6, Leading zero omitted, Abs format (unit mm)*
G04 Created by KiCad (PCBNEW 4.0.2+dfsg1-stable) date mar. 31 janv. 2017 17:52:21 CET*
%MOMM*%
G01*
G04 APERTURE LIST*
%ADD10C,0.050000*%
%ADD11C,0.150000*%
G04 APERTURE END LIST*
D10*
D11*
X38100000Y-25400000D02*
X-31750000Y-25400000D01*
X40640000Y20320000D02*
X40640000Y-22860000D01*
X-31750000Y22860000D02*
X38100000Y22860000D01*
X-34290000Y-22860000D02*
X-34290000Y20320000D01*
X38100000Y-25400000D02*
G75*
G03X40640000Y-22860000I0J2540000D01*
G01*
X40640000Y20320000D02*
G75*
G03X38100000Y22860000I-2540000J0D01*
G01*
X-31750000Y22860000D02*
G75*
G03X-34290000Y20320000I0J-2540000D01*
G01*
X-34290000Y-22860000D02*
G75*
G03X-31750000Y-25400000I2540000J0D01*
G01*
X-32623334Y-36830000D02*
G75*
G03X-32623334Y-36830000I-1666666J0D01*
G01*
X-36790000Y-36830000D02*
X-31790000Y-36830000D01*
X-34290000Y-34330000D02*
X-34290000Y-39330000D01*
X41036666Y-36830000D02*
G75*
G03X41036666Y-36830000I-1666666J0D01*
G01*
X36870000Y-36830000D02*
X41870000Y-36830000D01*
X39370000Y-34330000D02*
X39370000Y-39330000D01*
X41036666Y36830000D02*
G75*
G03X41036666Y36830000I-1666666J0D01*
G01*
X36870000Y36830000D02*
X41870000Y36830000D01*
X39370000Y39330000D02*
X39370000Y34330000D01*
X-25400000Y0D02*
G75*
G03X-25400000Y0I-1270000J0D01*
G01*
X-14900000Y15260000D02*
G75*
G03X-14900000Y15260000I-1600000J0D01*
G01*
X-14900000Y-15240000D02*
G75*
G03X-14900000Y-15240000I-1600000J0D01*
G01*
X18100000Y15260000D02*
G75*
G03X18100000Y15260000I-1600000J0D01*
G01*
X18100000Y-15240000D02*
G75*
G03X18100000Y-15240000I-1600000J0D01*
G01*
M02*
