M48
;DRILL file {KiCad 4.0.2+dfsg1-stable} date lun. 23 janv. 2017 18:06:15 CET
;FORMAT={-:-/ absolute / inch / decimal}
FMAT,2
INCH,TZ
T1C0.016
T2C0.028
T3C0.028
T4C0.039
T5C0.040
%
G90
G05
M72
T1
X-0.3Y0.35
X0.446Y0.242
X0.447Y0.158
X0.733Y0.4
X0.735Y0.029
X0.7362Y0.1677
X0.8425Y0.1559
X0.9626Y0.1461
X1.0472Y0.4236
T2
X1.0106Y0.75
X1.0894Y0.75
T3
X1.0106Y0.75
X1.0894Y0.75
T4
X-1.0787Y-0.2423
X-1.0787Y-0.3423
X-1.075Y0.35
X-1.075Y0.25
X0.95Y-0.325
X0.95Y-0.425
X0.95Y-0.525
X0.95Y-0.625
X0.95Y-0.725
X0.95Y-0.825
T5
X-1.0787Y-0.2423
X-1.0787Y-0.3423
X-1.075Y0.35
X-1.075Y0.25
X-1.05Y-0.6
X-1.05Y-0.6
X-1.05Y-0.8
X-1.05Y-0.8
X-0.85Y-0.6
X-0.85Y-0.6
X-0.85Y-0.8
X-0.85Y-0.8
X-0.3Y0.65
X-0.3Y0.6494
X-0.3Y0.55
X-0.3Y0.45
X-0.3Y0.35
X-0.3Y0.25
X-0.3Y0.15
X-0.3Y0.05
X-0.3Y-0.05
X-0.3Y-0.15
X-0.3Y-0.25
X-0.3Y-0.35
X-0.3Y-0.45
X-0.3Y-0.55
X-0.3Y-0.65
X-0.3Y-0.65
X-0.2Y-0.65
X-0.1Y-0.65
X0.Y-0.65
X0.1Y-0.65
X0.2Y0.55
X0.2Y0.55
X0.2Y0.35
X0.2Y0.25
X0.2Y0.15
X0.2Y-0.65
X0.3Y0.65
X0.3Y0.65
X0.3Y0.55
X0.3Y0.45
X0.3Y0.45
X0.3Y0.35
X0.3Y0.35
X0.3Y0.25
X0.3Y0.25
X0.3Y0.15
X0.3Y0.15
X0.3Y0.05
X0.3Y0.05
X0.3Y-0.05
X0.3Y-0.05
X0.3Y-0.15
X0.3Y-0.15
X0.3Y-0.25
X0.3Y-0.25
X0.3Y-0.35
X0.3Y-0.35
X0.3Y-0.45
X0.3Y-0.45
X0.3Y-0.55
X0.3Y-0.55
X0.3Y-0.65
X0.3Y-0.65
X0.95Y-0.325
X0.95Y-0.425
X0.95Y-0.525
X0.95Y-0.625
X1.311Y0.3366
X1.311Y0.3366
X1.311Y0.2366
X1.311Y0.2366
X1.311Y0.1366
T0
M30
