G04 #@! TF.FileFunction,Soldermask,Top*
%FSLAX46Y46*%
G04 Gerber Fmt 4.6, Leading zero omitted, Abs format (unit mm)*
G04 Created by KiCad (PCBNEW 4.0.2+dfsg1-stable) date mar. 31 janv. 2017 18:36:30 CET*
%MOMM*%
G01*
G04 APERTURE LIST*
%ADD10C,0.050000*%
%ADD11C,0.300000*%
%ADD12R,0.900000X1.300000*%
%ADD13R,1.200000X1.150000*%
%ADD14R,1.150000X1.200000*%
%ADD15R,1.197560X1.197560*%
%ADD16O,3.414980X1.906220*%
%ADD17O,1.500000X1.924000*%
%ADD18R,1.300000X0.900000*%
%ADD19R,1.800000X0.800000*%
%ADD20R,1.460000X1.050000*%
%ADD21R,4.057600X2.457400*%
%ADD22R,2.457400X4.057600*%
%ADD23C,2.432000*%
%ADD24O,2.432000X2.127200*%
%ADD25O,2.127200X2.127200*%
%ADD26O,2.127200X2.432000*%
%ADD27C,2.127200*%
%ADD28C,0.908000*%
G04 APERTURE END LIST*
D10*
D11*
X13617143Y24237143D02*
X13117143Y24237143D01*
X13117143Y23451429D02*
X13117143Y24951429D01*
X13831429Y24951429D01*
X14402857Y23594286D02*
X14474285Y23522857D01*
X14402857Y23451429D01*
X14331428Y23522857D01*
X14402857Y23594286D01*
X14402857Y23451429D01*
X15117143Y23451429D02*
X15117143Y24951429D01*
X15617143Y23880000D01*
X16117143Y24951429D01*
X16117143Y23451429D01*
X17474286Y23451429D02*
X17474286Y24237143D01*
X17402857Y24380000D01*
X17260000Y24451429D01*
X16974286Y24451429D01*
X16831429Y24380000D01*
X17474286Y23522857D02*
X17331429Y23451429D01*
X16974286Y23451429D01*
X16831429Y23522857D01*
X16760000Y23665714D01*
X16760000Y23808571D01*
X16831429Y23951429D01*
X16974286Y24022857D01*
X17331429Y24022857D01*
X17474286Y24094286D01*
X18117143Y23522857D02*
X18260000Y23451429D01*
X18545715Y23451429D01*
X18688572Y23522857D01*
X18760000Y23665714D01*
X18760000Y23737143D01*
X18688572Y23880000D01*
X18545715Y23951429D01*
X18331429Y23951429D01*
X18188572Y24022857D01*
X18117143Y24165714D01*
X18117143Y24237143D01*
X18188572Y24380000D01*
X18331429Y24451429D01*
X18545715Y24451429D01*
X18688572Y24380000D01*
X19402858Y23451429D02*
X19402858Y24951429D01*
X19545715Y24022857D02*
X19974286Y23451429D01*
X19974286Y24451429D02*
X19402858Y23880000D01*
D12*
X24450000Y3710000D03*
X22950000Y3710000D03*
D13*
X-13350000Y9710000D03*
X-11850000Y9710000D03*
D14*
X-18400000Y8360000D03*
X-18400000Y6860000D03*
D13*
X-12850000Y-5325000D03*
X-11350000Y-5325000D03*
D14*
X-18300000Y-6675000D03*
X-18300000Y-8175000D03*
X12827000Y11799000D03*
X12827000Y10299000D03*
X18700000Y4260000D03*
X18700000Y2760000D03*
X26600000Y10760000D03*
X26600000Y9260000D03*
D15*
X16600000Y-20240700D03*
X16600000Y-21739300D03*
X12200000Y-20240700D03*
X12200000Y-21739300D03*
X18650700Y810000D03*
X20149300Y810000D03*
X7700000Y-20240700D03*
X7700000Y-21739300D03*
D16*
X-27305000Y6350000D03*
X-27305000Y8890000D03*
X-27400000Y-8695000D03*
X-27400000Y-6155000D03*
X24130000Y-8255000D03*
X24130000Y-10795000D03*
X24130000Y-13335000D03*
X24130000Y-15875000D03*
X24130000Y-18415000D03*
X24130000Y-20955000D03*
D17*
X25670000Y19050000D03*
X27670000Y19050000D03*
D18*
X-22700000Y8360000D03*
X-22700000Y6860000D03*
X-22900000Y-6675000D03*
X-22900000Y-8175000D03*
D12*
X-11850000Y11910000D03*
X-13350000Y11910000D03*
X-19750000Y8210000D03*
X-21250000Y8210000D03*
X-11250000Y-3525000D03*
X-12750000Y-3525000D03*
X-19850000Y-6725000D03*
X-21350000Y-6725000D03*
X14450000Y8410000D03*
X12950000Y8410000D03*
X14450000Y6010000D03*
X12950000Y6010000D03*
X14550000Y4010000D03*
X13050000Y4010000D03*
X10050000Y8410000D03*
X11550000Y8410000D03*
X9850000Y6110000D03*
X11350000Y6110000D03*
X9850000Y4010000D03*
X11350000Y4010000D03*
X19550000Y-21690000D03*
X18050000Y-21690000D03*
X15150000Y-21690000D03*
X13650000Y-21690000D03*
X10650000Y-21690000D03*
X9150000Y-21690000D03*
D18*
X21400000Y2460000D03*
X21400000Y3960000D03*
D19*
X-16300000Y8135000D03*
X-16300000Y7535000D03*
X-16300000Y6885000D03*
X-16300000Y6285000D03*
X-11900000Y8185000D03*
X-11900000Y7535000D03*
X-11900000Y6885000D03*
X-11900000Y6235000D03*
X-16100000Y-6900000D03*
X-16100000Y-7500000D03*
X-16100000Y-8150000D03*
X-16100000Y-8750000D03*
X-11700000Y-6850000D03*
X-11700000Y-7500000D03*
X-11700000Y-8150000D03*
X-11700000Y-8800000D03*
D20*
X21400000Y5430000D03*
X23600000Y5430000D03*
X23600000Y6380000D03*
X23600000Y7330000D03*
X21400000Y7330000D03*
D21*
X-11900000Y4310000D03*
X-11700000Y-11225000D03*
D22*
X10515600Y11430000D03*
X18715400Y7319800D03*
X26310000Y6380000D03*
D21*
X23668400Y10190000D03*
X-12115800Y19634200D03*
D18*
X-19075400Y-20306600D03*
X-19075400Y-21806600D03*
D23*
X-21590000Y-15240000D03*
X-21590000Y-20320000D03*
X-26670000Y-20320000D03*
X-26670000Y-15240000D03*
D24*
X33300000Y3470000D03*
X33300000Y6010000D03*
X33300000Y8550000D03*
D25*
X5080000Y3810000D03*
X5080000Y6350000D03*
X5080000Y8890000D03*
D26*
X0Y-16510000D03*
D24*
X-7620000Y16510000D03*
X-7620000Y13970000D03*
X-7620000Y11430000D03*
X-7620000Y8890000D03*
X-7620000Y6350000D03*
X-7620000Y3810000D03*
X-7620000Y1270000D03*
X-7620000Y-1270000D03*
X-7620000Y-3810000D03*
X-7620000Y-6350000D03*
X-7620000Y-8890000D03*
X-7620000Y-11430000D03*
X-7620000Y-13970000D03*
D27*
X-7727763Y-16617763D02*
X-7512237Y-16402237D01*
D26*
X-5080000Y-16510000D03*
X-2540000Y-16510000D03*
X2540000Y-16510000D03*
X5080000Y-16510000D03*
X5080000Y13970000D03*
D27*
X7512237Y-16402237D02*
X7727763Y-16617763D01*
D24*
X7620000Y-13970000D03*
X7620000Y-11430000D03*
X7620000Y-8890000D03*
X7620000Y-6350000D03*
X7620000Y-3810000D03*
X7620000Y-1270000D03*
X7620000Y1270000D03*
X7620000Y3810000D03*
X7620000Y6350000D03*
X7620000Y8890000D03*
X7620000Y11430000D03*
D25*
X7620000Y13970000D03*
D24*
X7620000Y16510000D03*
D28*
X36830000Y-10160000D03*
X36830000Y-20320000D03*
X30480000Y-20320000D03*
X30480000Y-8890000D03*
X38100000Y-8890000D03*
X38100000Y-21590000D03*
X29210000Y-21590000D03*
X29210000Y-7620000D03*
X39370000Y-7620000D03*
X39370000Y-22860000D03*
X27940000Y-22860000D03*
X33020000Y-15240000D03*
X27940000Y-6350000D03*
X39370000Y-6350000D03*
M02*
