G04 #@! TF.FileFunction,Other,User*
%FSLAX46Y46*%
G04 Gerber Fmt 4.6, Leading zero omitted, Abs format (unit mm)*
G04 Created by KiCad (PCBNEW 4.0.2+dfsg1-stable) date mar. 31 janv. 2017 17:52:21 CET*
%MOMM*%
G01*
G04 APERTURE LIST*
%ADD10C,0.050000*%
G04 APERTURE END LIST*
D10*
X25000000Y2910000D02*
X22400000Y2910000D01*
X25000000Y4510000D02*
X22400000Y4510000D01*
X25000000Y2910000D02*
X25000000Y4510000D01*
X22400000Y2910000D02*
X22400000Y4510000D01*
X-14050000Y10460000D02*
X-11150000Y10460000D01*
X-14050000Y8960000D02*
X-11150000Y8960000D01*
X-14050000Y10460000D02*
X-14050000Y8960000D01*
X-11150000Y10460000D02*
X-11150000Y8960000D01*
X-17650000Y9060000D02*
X-17650000Y6160000D01*
X-19150000Y9060000D02*
X-19150000Y6160000D01*
X-17650000Y9060000D02*
X-19150000Y9060000D01*
X-17650000Y6160000D02*
X-19150000Y6160000D01*
X-13550000Y-4575000D02*
X-10650000Y-4575000D01*
X-13550000Y-6075000D02*
X-10650000Y-6075000D01*
X-13550000Y-4575000D02*
X-13550000Y-6075000D01*
X-10650000Y-4575000D02*
X-10650000Y-6075000D01*
X-17550000Y-5975000D02*
X-17550000Y-8875000D01*
X-19050000Y-5975000D02*
X-19050000Y-8875000D01*
X-17550000Y-5975000D02*
X-19050000Y-5975000D01*
X-17550000Y-8875000D02*
X-19050000Y-8875000D01*
X13577000Y12499000D02*
X13577000Y9599000D01*
X12077000Y12499000D02*
X12077000Y9599000D01*
X13577000Y12499000D02*
X12077000Y12499000D01*
X13577000Y9599000D02*
X12077000Y9599000D01*
X19450000Y4960000D02*
X19450000Y2060000D01*
X17950000Y4960000D02*
X17950000Y2060000D01*
X19450000Y4960000D02*
X17950000Y4960000D01*
X19450000Y2060000D02*
X17950000Y2060000D01*
X27350000Y11460000D02*
X27350000Y8560000D01*
X25850000Y11460000D02*
X25850000Y8560000D01*
X27350000Y11460000D02*
X25850000Y11460000D01*
X27350000Y8560000D02*
X25850000Y8560000D01*
X15850000Y-19590000D02*
X17350000Y-19590000D01*
X17350000Y-19590000D02*
X17350000Y-22390000D01*
X17350000Y-22390000D02*
X15850000Y-22390000D01*
X15850000Y-22390000D02*
X15850000Y-19590000D01*
X11450000Y-19590000D02*
X12950000Y-19590000D01*
X12950000Y-19590000D02*
X12950000Y-22390000D01*
X12950000Y-22390000D02*
X11450000Y-22390000D01*
X11450000Y-22390000D02*
X11450000Y-19590000D01*
X18000000Y60000D02*
X18000000Y1560000D01*
X18000000Y1560000D02*
X20800000Y1560000D01*
X20800000Y1560000D02*
X20800000Y60000D01*
X20800000Y60000D02*
X18000000Y60000D01*
X6950000Y-19590000D02*
X8450000Y-19590000D01*
X8450000Y-19590000D02*
X8450000Y-22390000D01*
X8450000Y-22390000D02*
X6950000Y-22390000D01*
X6950000Y-22390000D02*
X6950000Y-19590000D01*
X-21900000Y8910000D02*
X-21900000Y6310000D01*
X-23500000Y8910000D02*
X-23500000Y6310000D01*
X-21900000Y8910000D02*
X-23500000Y8910000D01*
X-21900000Y6310000D02*
X-23500000Y6310000D01*
X-22100000Y-6125000D02*
X-22100000Y-8725000D01*
X-23700000Y-6125000D02*
X-23700000Y-8725000D01*
X-22100000Y-6125000D02*
X-23700000Y-6125000D01*
X-22100000Y-8725000D02*
X-23700000Y-8725000D01*
X-11300000Y11110000D02*
X-13900000Y11110000D01*
X-11300000Y12710000D02*
X-13900000Y12710000D01*
X-11300000Y11110000D02*
X-11300000Y12710000D01*
X-13900000Y11110000D02*
X-13900000Y12710000D01*
X-19200000Y7410000D02*
X-21800000Y7410000D01*
X-19200000Y9010000D02*
X-21800000Y9010000D01*
X-19200000Y7410000D02*
X-19200000Y9010000D01*
X-21800000Y7410000D02*
X-21800000Y9010000D01*
X-10700000Y-4325000D02*
X-13300000Y-4325000D01*
X-10700000Y-2725000D02*
X-13300000Y-2725000D01*
X-10700000Y-4325000D02*
X-10700000Y-2725000D01*
X-13300000Y-4325000D02*
X-13300000Y-2725000D01*
X-19300000Y-7525000D02*
X-21900000Y-7525000D01*
X-19300000Y-5925000D02*
X-21900000Y-5925000D01*
X-19300000Y-7525000D02*
X-19300000Y-5925000D01*
X-21900000Y-7525000D02*
X-21900000Y-5925000D01*
X15000000Y7610000D02*
X12400000Y7610000D01*
X15000000Y9210000D02*
X12400000Y9210000D01*
X15000000Y7610000D02*
X15000000Y9210000D01*
X12400000Y7610000D02*
X12400000Y9210000D01*
X15000000Y5210000D02*
X12400000Y5210000D01*
X15000000Y6810000D02*
X12400000Y6810000D01*
X15000000Y5210000D02*
X15000000Y6810000D01*
X12400000Y5210000D02*
X12400000Y6810000D01*
X15100000Y3210000D02*
X12500000Y3210000D01*
X15100000Y4810000D02*
X12500000Y4810000D01*
X15100000Y3210000D02*
X15100000Y4810000D01*
X12500000Y3210000D02*
X12500000Y4810000D01*
X9500000Y9210000D02*
X12100000Y9210000D01*
X9500000Y7610000D02*
X12100000Y7610000D01*
X9500000Y9210000D02*
X9500000Y7610000D01*
X12100000Y9210000D02*
X12100000Y7610000D01*
X9300000Y6910000D02*
X11900000Y6910000D01*
X9300000Y5310000D02*
X11900000Y5310000D01*
X9300000Y6910000D02*
X9300000Y5310000D01*
X11900000Y6910000D02*
X11900000Y5310000D01*
X9300000Y4810000D02*
X11900000Y4810000D01*
X9300000Y3210000D02*
X11900000Y3210000D01*
X9300000Y4810000D02*
X9300000Y3210000D01*
X11900000Y4810000D02*
X11900000Y3210000D01*
X20100000Y-22490000D02*
X17500000Y-22490000D01*
X20100000Y-20890000D02*
X17500000Y-20890000D01*
X20100000Y-22490000D02*
X20100000Y-20890000D01*
X17500000Y-22490000D02*
X17500000Y-20890000D01*
X15700000Y-22490000D02*
X13100000Y-22490000D01*
X15700000Y-20890000D02*
X13100000Y-20890000D01*
X15700000Y-22490000D02*
X15700000Y-20890000D01*
X13100000Y-22490000D02*
X13100000Y-20890000D01*
X11200000Y-22490000D02*
X8600000Y-22490000D01*
X11200000Y-20890000D02*
X8600000Y-20890000D01*
X11200000Y-22490000D02*
X11200000Y-20890000D01*
X8600000Y-22490000D02*
X8600000Y-20890000D01*
X20600000Y1910000D02*
X20600000Y4510000D01*
X22200000Y1910000D02*
X22200000Y4510000D01*
X20600000Y1910000D02*
X22200000Y1910000D01*
X20600000Y4510000D02*
X22200000Y4510000D01*
X-18275400Y-19756600D02*
X-18275400Y-22356600D01*
X-19875400Y-19756600D02*
X-19875400Y-22356600D01*
X-18275400Y-19756600D02*
X-19875400Y-19756600D01*
X-18275400Y-22356600D02*
X-19875400Y-22356600D01*
M02*
