G04 #@! TF.FileFunction,Other,ECO1*
%FSLAX46Y46*%
G04 Gerber Fmt 4.6, Leading zero omitted, Abs format (unit mm)*
G04 Created by KiCad (PCBNEW 4.0.2+dfsg1-stable) date mar. 31 janv. 2017 17:52:21 CET*
%MOMM*%
G01*
G04 APERTURE LIST*
%ADD10C,0.050000*%
%ADD11C,0.300000*%
%ADD12C,0.200000*%
G04 APERTURE END LIST*
D10*
D11*
X-48661429Y-6769999D02*
X-47661429Y-6769999D01*
X-49232857Y-7127142D02*
X-48161429Y-7484285D01*
X-48161429Y-6555713D01*
X-48518571Y-5769999D02*
X-48590000Y-5912857D01*
X-48661429Y-5984285D01*
X-48804286Y-6055714D01*
X-48875714Y-6055714D01*
X-49018571Y-5984285D01*
X-49090000Y-5912857D01*
X-49161429Y-5769999D01*
X-49161429Y-5484285D01*
X-49090000Y-5341428D01*
X-49018571Y-5269999D01*
X-48875714Y-5198571D01*
X-48804286Y-5198571D01*
X-48661429Y-5269999D01*
X-48590000Y-5341428D01*
X-48518571Y-5484285D01*
X-48518571Y-5769999D01*
X-48447143Y-5912857D01*
X-48375714Y-5984285D01*
X-48232857Y-6055714D01*
X-47947143Y-6055714D01*
X-47804286Y-5984285D01*
X-47732857Y-5912857D01*
X-47661429Y-5769999D01*
X-47661429Y-5484285D01*
X-47732857Y-5341428D01*
X-47804286Y-5269999D01*
X-47947143Y-5198571D01*
X-48232857Y-5198571D01*
X-48375714Y-5269999D01*
X-48447143Y-5341428D01*
X-48518571Y-5484285D01*
X-47732857Y-4484286D02*
X-47661429Y-4484286D01*
X-47518571Y-4555714D01*
X-47447143Y-4627143D01*
X-49018571Y-3912857D02*
X-49090000Y-3841428D01*
X-49161429Y-3698571D01*
X-49161429Y-3341428D01*
X-49090000Y-3198571D01*
X-49018571Y-3127142D01*
X-48875714Y-3055714D01*
X-48732857Y-3055714D01*
X-48518571Y-3127142D01*
X-47661429Y-3984285D01*
X-47661429Y-3055714D01*
X-49161429Y-1770000D02*
X-49161429Y-2055714D01*
X-49090000Y-2198571D01*
X-49018571Y-2270000D01*
X-48804286Y-2412857D01*
X-48518571Y-2484286D01*
X-47947143Y-2484286D01*
X-47804286Y-2412857D01*
X-47732857Y-2341429D01*
X-47661429Y-2198571D01*
X-47661429Y-1912857D01*
X-47732857Y-1770000D01*
X-47804286Y-1698571D01*
X-47947143Y-1627143D01*
X-48304286Y-1627143D01*
X-48447143Y-1698571D01*
X-48518571Y-1770000D01*
X-48590000Y-1912857D01*
X-48590000Y-2198571D01*
X-48518571Y-2341429D01*
X-48447143Y-2412857D01*
X-48304286Y-2484286D01*
X-49161429Y-698572D02*
X-49161429Y-555715D01*
X-49090000Y-412858D01*
X-49018571Y-341429D01*
X-48875714Y-270000D01*
X-48590000Y-198572D01*
X-48232857Y-198572D01*
X-47947143Y-270000D01*
X-47804286Y-341429D01*
X-47732857Y-412858D01*
X-47661429Y-555715D01*
X-47661429Y-698572D01*
X-47732857Y-841429D01*
X-47804286Y-912858D01*
X-47947143Y-984286D01*
X-48232857Y-1055715D01*
X-48590000Y-1055715D01*
X-48875714Y-984286D01*
X-49018571Y-912858D01*
X-49090000Y-841429D01*
X-49161429Y-698572D01*
X-47661429Y1587142D02*
X-48661429Y1587142D01*
X-48518571Y1587142D02*
X-48590000Y1658570D01*
X-48661429Y1801428D01*
X-48661429Y2015713D01*
X-48590000Y2158570D01*
X-48447143Y2229999D01*
X-47661429Y2229999D01*
X-48447143Y2229999D02*
X-48590000Y2301428D01*
X-48661429Y2444285D01*
X-48661429Y2658570D01*
X-48590000Y2801428D01*
X-48447143Y2872856D01*
X-47661429Y2872856D01*
X-47661429Y3587142D02*
X-48661429Y3587142D01*
X-48518571Y3587142D02*
X-48590000Y3658570D01*
X-48661429Y3801428D01*
X-48661429Y4015713D01*
X-48590000Y4158570D01*
X-48447143Y4229999D01*
X-47661429Y4229999D01*
X-48447143Y4229999D02*
X-48590000Y4301428D01*
X-48661429Y4444285D01*
X-48661429Y4658570D01*
X-48590000Y4801428D01*
X-48447143Y4872856D01*
X-47661429Y4872856D01*
X-46990000Y-25400000D02*
X-46990000Y22860000D01*
X-31750000Y-25400000D02*
X-49690000Y-25400000D01*
X-31750000Y22860000D02*
X-49690000Y22860000D01*
X-46990000Y22860000D02*
X-46403579Y21733496D01*
X-46990000Y22860000D02*
X-47576421Y21733496D01*
X-46990000Y-25400000D02*
X-46403579Y-24273496D01*
X-46990000Y-25400000D02*
X-47576421Y-24273496D01*
X-56138571Y-5928570D02*
X-56210000Y-6071428D01*
X-56281429Y-6142856D01*
X-56424286Y-6214285D01*
X-56495714Y-6214285D01*
X-56638571Y-6142856D01*
X-56710000Y-6071428D01*
X-56781429Y-5928570D01*
X-56781429Y-5642856D01*
X-56710000Y-5499999D01*
X-56638571Y-5428570D01*
X-56495714Y-5357142D01*
X-56424286Y-5357142D01*
X-56281429Y-5428570D01*
X-56210000Y-5499999D01*
X-56138571Y-5642856D01*
X-56138571Y-5928570D01*
X-56067143Y-6071428D01*
X-55995714Y-6142856D01*
X-55852857Y-6214285D01*
X-55567143Y-6214285D01*
X-55424286Y-6142856D01*
X-55352857Y-6071428D01*
X-55281429Y-5928570D01*
X-55281429Y-5642856D01*
X-55352857Y-5499999D01*
X-55424286Y-5428570D01*
X-55567143Y-5357142D01*
X-55852857Y-5357142D01*
X-55995714Y-5428570D01*
X-56067143Y-5499999D01*
X-56138571Y-5642856D01*
X-55281429Y-3928571D02*
X-55281429Y-4785714D01*
X-55281429Y-4357142D02*
X-56781429Y-4357142D01*
X-56567143Y-4499999D01*
X-56424286Y-4642857D01*
X-56352857Y-4785714D01*
X-55352857Y-3214286D02*
X-55281429Y-3214286D01*
X-55138571Y-3285714D01*
X-55067143Y-3357143D01*
X-56638571Y-2642857D02*
X-56710000Y-2571428D01*
X-56781429Y-2428571D01*
X-56781429Y-2071428D01*
X-56710000Y-1928571D01*
X-56638571Y-1857142D01*
X-56495714Y-1785714D01*
X-56352857Y-1785714D01*
X-56138571Y-1857142D01*
X-55281429Y-2714285D01*
X-55281429Y-1785714D01*
X-56138571Y-928571D02*
X-56210000Y-1071429D01*
X-56281429Y-1142857D01*
X-56424286Y-1214286D01*
X-56495714Y-1214286D01*
X-56638571Y-1142857D01*
X-56710000Y-1071429D01*
X-56781429Y-928571D01*
X-56781429Y-642857D01*
X-56710000Y-500000D01*
X-56638571Y-428571D01*
X-56495714Y-357143D01*
X-56424286Y-357143D01*
X-56281429Y-428571D01*
X-56210000Y-500000D01*
X-56138571Y-642857D01*
X-56138571Y-928571D01*
X-56067143Y-1071429D01*
X-55995714Y-1142857D01*
X-55852857Y-1214286D01*
X-55567143Y-1214286D01*
X-55424286Y-1142857D01*
X-55352857Y-1071429D01*
X-55281429Y-928571D01*
X-55281429Y-642857D01*
X-55352857Y-500000D01*
X-55424286Y-428571D01*
X-55567143Y-357143D01*
X-55852857Y-357143D01*
X-55995714Y-428571D01*
X-56067143Y-500000D01*
X-56138571Y-642857D01*
X-56781429Y571428D02*
X-56781429Y714285D01*
X-56710000Y857142D01*
X-56638571Y928571D01*
X-56495714Y1000000D01*
X-56210000Y1071428D01*
X-55852857Y1071428D01*
X-55567143Y1000000D01*
X-55424286Y928571D01*
X-55352857Y857142D01*
X-55281429Y714285D01*
X-55281429Y571428D01*
X-55352857Y428571D01*
X-55424286Y357142D01*
X-55567143Y285714D01*
X-55852857Y214285D01*
X-56210000Y214285D01*
X-56495714Y285714D01*
X-56638571Y357142D01*
X-56710000Y428571D01*
X-56781429Y571428D01*
X-55281429Y2857142D02*
X-56281429Y2857142D01*
X-56138571Y2857142D02*
X-56210000Y2928570D01*
X-56281429Y3071428D01*
X-56281429Y3285713D01*
X-56210000Y3428570D01*
X-56067143Y3499999D01*
X-55281429Y3499999D01*
X-56067143Y3499999D02*
X-56210000Y3571428D01*
X-56281429Y3714285D01*
X-56281429Y3928570D01*
X-56210000Y4071428D01*
X-56067143Y4142856D01*
X-55281429Y4142856D01*
X-55281429Y4857142D02*
X-56281429Y4857142D01*
X-56138571Y4857142D02*
X-56210000Y4928570D01*
X-56281429Y5071428D01*
X-56281429Y5285713D01*
X-56210000Y5428570D01*
X-56067143Y5499999D01*
X-55281429Y5499999D01*
X-56067143Y5499999D02*
X-56210000Y5571428D01*
X-56281429Y5714285D01*
X-56281429Y5928570D01*
X-56210000Y6071428D01*
X-56067143Y6142856D01*
X-55281429Y6142856D01*
X-54610000Y-40640000D02*
X-54610000Y40640000D01*
X-35560000Y-40640000D02*
X-57310000Y-40640000D01*
X-35560000Y40640000D02*
X-57310000Y40640000D01*
X-54610000Y40640000D02*
X-54023579Y39513496D01*
X-54610000Y40640000D02*
X-55196421Y39513496D01*
X-54610000Y-40640000D02*
X-54023579Y-39513496D01*
X-54610000Y-40640000D02*
X-55196421Y-39513496D01*
X-19549285Y27428570D02*
X-19477856Y27499999D01*
X-19334999Y27571428D01*
X-18977856Y27571428D01*
X-18834999Y27499999D01*
X-18763570Y27428570D01*
X-18692142Y27285713D01*
X-18692142Y27142856D01*
X-18763570Y26928570D01*
X-19620713Y26071428D01*
X-18692142Y26071428D01*
X-17406428Y27571428D02*
X-17692142Y27571428D01*
X-17834999Y27499999D01*
X-17906428Y27428570D01*
X-18049285Y27214285D01*
X-18120714Y26928570D01*
X-18120714Y26357142D01*
X-18049285Y26214285D01*
X-17977857Y26142856D01*
X-17834999Y26071428D01*
X-17549285Y26071428D01*
X-17406428Y26142856D01*
X-17334999Y26214285D01*
X-17263571Y26357142D01*
X-17263571Y26714285D01*
X-17334999Y26857142D01*
X-17406428Y26928570D01*
X-17549285Y26999999D01*
X-17834999Y26999999D01*
X-17977857Y26928570D01*
X-18049285Y26857142D01*
X-18120714Y26714285D01*
X-16549286Y26142856D02*
X-16549286Y26071428D01*
X-16620714Y25928570D01*
X-16692143Y25857142D01*
X-15263571Y27571428D02*
X-15549285Y27571428D01*
X-15692142Y27499999D01*
X-15763571Y27428570D01*
X-15906428Y27214285D01*
X-15977857Y26928570D01*
X-15977857Y26357142D01*
X-15906428Y26214285D01*
X-15835000Y26142856D01*
X-15692142Y26071428D01*
X-15406428Y26071428D01*
X-15263571Y26142856D01*
X-15192142Y26214285D01*
X-15120714Y26357142D01*
X-15120714Y26714285D01*
X-15192142Y26857142D01*
X-15263571Y26928570D01*
X-15406428Y26999999D01*
X-15692142Y26999999D01*
X-15835000Y26928570D01*
X-15906428Y26857142D01*
X-15977857Y26714285D01*
X-14620714Y27571428D02*
X-13620714Y27571428D01*
X-14263571Y26071428D01*
X-12763572Y27571428D02*
X-12620715Y27571428D01*
X-12477858Y27499999D01*
X-12406429Y27428570D01*
X-12335000Y27285713D01*
X-12263572Y26999999D01*
X-12263572Y26642856D01*
X-12335000Y26357142D01*
X-12406429Y26214285D01*
X-12477858Y26142856D01*
X-12620715Y26071428D01*
X-12763572Y26071428D01*
X-12906429Y26142856D01*
X-12977858Y26214285D01*
X-13049286Y26357142D01*
X-13120715Y26642856D01*
X-13120715Y26999999D01*
X-13049286Y27285713D01*
X-12977858Y27428570D01*
X-12906429Y27499999D01*
X-12763572Y27571428D01*
X-10477858Y26071428D02*
X-10477858Y27071428D01*
X-10477858Y26928570D02*
X-10406430Y26999999D01*
X-10263572Y27071428D01*
X-10049287Y27071428D01*
X-9906430Y26999999D01*
X-9835001Y26857142D01*
X-9835001Y26071428D01*
X-9835001Y26857142D02*
X-9763572Y26999999D01*
X-9620715Y27071428D01*
X-9406430Y27071428D01*
X-9263572Y26999999D01*
X-9192144Y26857142D01*
X-9192144Y26071428D01*
X-8477858Y26071428D02*
X-8477858Y27071428D01*
X-8477858Y26928570D02*
X-8406430Y26999999D01*
X-8263572Y27071428D01*
X-8049287Y27071428D01*
X-7906430Y26999999D01*
X-7835001Y26857142D01*
X-7835001Y26071428D01*
X-7835001Y26857142D02*
X-7763572Y26999999D01*
X-7620715Y27071428D01*
X-7406430Y27071428D01*
X-7263572Y26999999D01*
X-7192144Y26857142D01*
X-7192144Y26071428D01*
X-26670000Y25399999D02*
X0Y25399999D01*
X-26670000Y0D02*
X-26670000Y28099999D01*
X0Y0D02*
X0Y28099999D01*
X0Y25399999D02*
X-1126504Y24813578D01*
X0Y25399999D02*
X-1126504Y25986420D01*
X-26670000Y25399999D02*
X-25543496Y24813578D01*
X-26670000Y25399999D02*
X-25543496Y25986420D01*
X-3110713Y30111428D02*
X-2110713Y30111428D01*
X-2753570Y28611428D01*
X-896428Y29611428D02*
X-896428Y28611428D01*
X-1253571Y30182856D02*
X-1610714Y29111428D01*
X-682142Y29111428D01*
X-39286Y28682856D02*
X-39286Y28611428D01*
X-110714Y28468570D01*
X-182143Y28397142D01*
X675000Y28611428D02*
X960715Y28611428D01*
X1103572Y28682856D01*
X1175000Y28754285D01*
X1317858Y28968570D01*
X1389286Y29254285D01*
X1389286Y29825713D01*
X1317858Y29968570D01*
X1246429Y30039999D01*
X1103572Y30111428D01*
X817858Y30111428D01*
X675000Y30039999D01*
X603572Y29968570D01*
X532143Y29825713D01*
X532143Y29468570D01*
X603572Y29325713D01*
X675000Y29254285D01*
X817858Y29182856D01*
X1103572Y29182856D01*
X1246429Y29254285D01*
X1317858Y29325713D01*
X1389286Y29468570D01*
X1889286Y30111428D02*
X2817857Y30111428D01*
X2317857Y29539999D01*
X2532143Y29539999D01*
X2675000Y29468570D01*
X2746429Y29397142D01*
X2817857Y29254285D01*
X2817857Y28897142D01*
X2746429Y28754285D01*
X2675000Y28682856D01*
X2532143Y28611428D01*
X2103571Y28611428D01*
X1960714Y28682856D01*
X1889286Y28754285D01*
X3746428Y30111428D02*
X3889285Y30111428D01*
X4032142Y30039999D01*
X4103571Y29968570D01*
X4175000Y29825713D01*
X4246428Y29539999D01*
X4246428Y29182856D01*
X4175000Y28897142D01*
X4103571Y28754285D01*
X4032142Y28682856D01*
X3889285Y28611428D01*
X3746428Y28611428D01*
X3603571Y28682856D01*
X3532142Y28754285D01*
X3460714Y28897142D01*
X3389285Y29182856D01*
X3389285Y29539999D01*
X3460714Y29825713D01*
X3532142Y29968570D01*
X3603571Y30039999D01*
X3746428Y30111428D01*
X6032142Y28611428D02*
X6032142Y29611428D01*
X6032142Y29468570D02*
X6103570Y29539999D01*
X6246428Y29611428D01*
X6460713Y29611428D01*
X6603570Y29539999D01*
X6674999Y29397142D01*
X6674999Y28611428D01*
X6674999Y29397142D02*
X6746428Y29539999D01*
X6889285Y29611428D01*
X7103570Y29611428D01*
X7246428Y29539999D01*
X7317856Y29397142D01*
X7317856Y28611428D01*
X8032142Y28611428D02*
X8032142Y29611428D01*
X8032142Y29468570D02*
X8103570Y29539999D01*
X8246428Y29611428D01*
X8460713Y29611428D01*
X8603570Y29539999D01*
X8674999Y29397142D01*
X8674999Y28611428D01*
X8674999Y29397142D02*
X8746428Y29539999D01*
X8889285Y29611428D01*
X9103570Y29611428D01*
X9246428Y29539999D01*
X9317856Y29397142D01*
X9317856Y28611428D01*
X40640000Y27939999D02*
X-34290000Y27939999D01*
X40640000Y20320000D02*
X40640000Y30639999D01*
X-34290000Y20320000D02*
X-34290000Y30639999D01*
X-34290000Y27939999D02*
X-33163496Y28526420D01*
X-34290000Y27939999D02*
X-33163496Y27353578D01*
X40640000Y27939999D02*
X39513496Y28526420D01*
X40640000Y27939999D02*
X39513496Y27353578D01*
X-3388570Y-50701429D02*
X-3531428Y-50630000D01*
X-3602856Y-50558571D01*
X-3674285Y-50415714D01*
X-3674285Y-50344286D01*
X-3602856Y-50201429D01*
X-3531428Y-50130000D01*
X-3388570Y-50058571D01*
X-3102856Y-50058571D01*
X-2959999Y-50130000D01*
X-2888570Y-50201429D01*
X-2817142Y-50344286D01*
X-2817142Y-50415714D01*
X-2888570Y-50558571D01*
X-2959999Y-50630000D01*
X-3102856Y-50701429D01*
X-3388570Y-50701429D01*
X-3531428Y-50772857D01*
X-3602856Y-50844286D01*
X-3674285Y-50987143D01*
X-3674285Y-51272857D01*
X-3602856Y-51415714D01*
X-3531428Y-51487143D01*
X-3388570Y-51558571D01*
X-3102856Y-51558571D01*
X-2959999Y-51487143D01*
X-2888570Y-51415714D01*
X-2817142Y-51272857D01*
X-2817142Y-50987143D01*
X-2888570Y-50844286D01*
X-2959999Y-50772857D01*
X-3102856Y-50701429D01*
X-1388571Y-51558571D02*
X-2245714Y-51558571D01*
X-1817142Y-51558571D02*
X-1817142Y-50058571D01*
X-1959999Y-50272857D01*
X-2102857Y-50415714D01*
X-2245714Y-50487143D01*
X-674286Y-51487143D02*
X-674286Y-51558571D01*
X-745714Y-51701429D01*
X-817143Y-51772857D01*
X-102857Y-50201429D02*
X-31428Y-50130000D01*
X111429Y-50058571D01*
X468572Y-50058571D01*
X611429Y-50130000D01*
X682858Y-50201429D01*
X754286Y-50344286D01*
X754286Y-50487143D01*
X682858Y-50701429D01*
X-174285Y-51558571D01*
X754286Y-51558571D01*
X1611429Y-50701429D02*
X1468571Y-50630000D01*
X1397143Y-50558571D01*
X1325714Y-50415714D01*
X1325714Y-50344286D01*
X1397143Y-50201429D01*
X1468571Y-50130000D01*
X1611429Y-50058571D01*
X1897143Y-50058571D01*
X2040000Y-50130000D01*
X2111429Y-50201429D01*
X2182857Y-50344286D01*
X2182857Y-50415714D01*
X2111429Y-50558571D01*
X2040000Y-50630000D01*
X1897143Y-50701429D01*
X1611429Y-50701429D01*
X1468571Y-50772857D01*
X1397143Y-50844286D01*
X1325714Y-50987143D01*
X1325714Y-51272857D01*
X1397143Y-51415714D01*
X1468571Y-51487143D01*
X1611429Y-51558571D01*
X1897143Y-51558571D01*
X2040000Y-51487143D01*
X2111429Y-51415714D01*
X2182857Y-51272857D01*
X2182857Y-50987143D01*
X2111429Y-50844286D01*
X2040000Y-50772857D01*
X1897143Y-50701429D01*
X3111428Y-50058571D02*
X3254285Y-50058571D01*
X3397142Y-50130000D01*
X3468571Y-50201429D01*
X3540000Y-50344286D01*
X3611428Y-50630000D01*
X3611428Y-50987143D01*
X3540000Y-51272857D01*
X3468571Y-51415714D01*
X3397142Y-51487143D01*
X3254285Y-51558571D01*
X3111428Y-51558571D01*
X2968571Y-51487143D01*
X2897142Y-51415714D01*
X2825714Y-51272857D01*
X2754285Y-50987143D01*
X2754285Y-50630000D01*
X2825714Y-50344286D01*
X2897142Y-50201429D01*
X2968571Y-50130000D01*
X3111428Y-50058571D01*
X5397142Y-51558571D02*
X5397142Y-50558571D01*
X5397142Y-50701429D02*
X5468570Y-50630000D01*
X5611428Y-50558571D01*
X5825713Y-50558571D01*
X5968570Y-50630000D01*
X6039999Y-50772857D01*
X6039999Y-51558571D01*
X6039999Y-50772857D02*
X6111428Y-50630000D01*
X6254285Y-50558571D01*
X6468570Y-50558571D01*
X6611428Y-50630000D01*
X6682856Y-50772857D01*
X6682856Y-51558571D01*
X7397142Y-51558571D02*
X7397142Y-50558571D01*
X7397142Y-50701429D02*
X7468570Y-50630000D01*
X7611428Y-50558571D01*
X7825713Y-50558571D01*
X7968570Y-50630000D01*
X8039999Y-50772857D01*
X8039999Y-51558571D01*
X8039999Y-50772857D02*
X8111428Y-50630000D01*
X8254285Y-50558571D01*
X8468570Y-50558571D01*
X8611428Y-50630000D01*
X8682856Y-50772857D01*
X8682856Y-51558571D01*
X43180000Y-49530000D02*
X-38100000Y-49530000D01*
X43180000Y-38100000D02*
X43180000Y-52230000D01*
X-38100000Y-38100000D02*
X-38100000Y-52230000D01*
X-38100000Y-49530000D02*
X-36973496Y-48943579D01*
X-38100000Y-49530000D02*
X-36973496Y-50116421D01*
X43180000Y-49530000D02*
X42053496Y-48943579D01*
X43180000Y-49530000D02*
X42053496Y-50116421D01*
X-6285713Y-29738571D02*
X-5357142Y-29738571D01*
X-5857142Y-30310000D01*
X-5642856Y-30310000D01*
X-5499999Y-30381429D01*
X-5428570Y-30452857D01*
X-5357142Y-30595714D01*
X-5357142Y-30952857D01*
X-5428570Y-31095714D01*
X-5499999Y-31167143D01*
X-5642856Y-31238571D01*
X-6071428Y-31238571D01*
X-6214285Y-31167143D01*
X-6285713Y-31095714D01*
X-4857142Y-29738571D02*
X-3928571Y-29738571D01*
X-4428571Y-30310000D01*
X-4214285Y-30310000D01*
X-4071428Y-30381429D01*
X-3999999Y-30452857D01*
X-3928571Y-30595714D01*
X-3928571Y-30952857D01*
X-3999999Y-31095714D01*
X-4071428Y-31167143D01*
X-4214285Y-31238571D01*
X-4642857Y-31238571D01*
X-4785714Y-31167143D01*
X-4857142Y-31095714D01*
X-3214286Y-31167143D02*
X-3214286Y-31238571D01*
X-3285714Y-31381429D01*
X-3357143Y-31452857D01*
X-2285714Y-29738571D02*
X-2142857Y-29738571D01*
X-2000000Y-29810000D01*
X-1928571Y-29881429D01*
X-1857142Y-30024286D01*
X-1785714Y-30310000D01*
X-1785714Y-30667143D01*
X-1857142Y-30952857D01*
X-1928571Y-31095714D01*
X-2000000Y-31167143D01*
X-2142857Y-31238571D01*
X-2285714Y-31238571D01*
X-2428571Y-31167143D01*
X-2500000Y-31095714D01*
X-2571428Y-30952857D01*
X-2642857Y-30667143D01*
X-2642857Y-30310000D01*
X-2571428Y-30024286D01*
X-2500000Y-29881429D01*
X-2428571Y-29810000D01*
X-2285714Y-29738571D01*
X-1214286Y-29881429D02*
X-1142857Y-29810000D01*
X-1000000Y-29738571D01*
X-642857Y-29738571D01*
X-500000Y-29810000D01*
X-428571Y-29881429D01*
X-357143Y-30024286D01*
X-357143Y-30167143D01*
X-428571Y-30381429D01*
X-1285714Y-31238571D01*
X-357143Y-31238571D01*
X571428Y-29738571D02*
X714285Y-29738571D01*
X857142Y-29810000D01*
X928571Y-29881429D01*
X1000000Y-30024286D01*
X1071428Y-30310000D01*
X1071428Y-30667143D01*
X1000000Y-30952857D01*
X928571Y-31095714D01*
X857142Y-31167143D01*
X714285Y-31238571D01*
X571428Y-31238571D01*
X428571Y-31167143D01*
X357142Y-31095714D01*
X285714Y-30952857D01*
X214285Y-30667143D01*
X214285Y-30310000D01*
X285714Y-30024286D01*
X357142Y-29881429D01*
X428571Y-29810000D01*
X571428Y-29738571D01*
X2857142Y-31238571D02*
X2857142Y-30238571D01*
X2857142Y-30381429D02*
X2928570Y-30310000D01*
X3071428Y-30238571D01*
X3285713Y-30238571D01*
X3428570Y-30310000D01*
X3499999Y-30452857D01*
X3499999Y-31238571D01*
X3499999Y-30452857D02*
X3571428Y-30310000D01*
X3714285Y-30238571D01*
X3928570Y-30238571D01*
X4071428Y-30310000D01*
X4142856Y-30452857D01*
X4142856Y-31238571D01*
X4857142Y-31238571D02*
X4857142Y-30238571D01*
X4857142Y-30381429D02*
X4928570Y-30310000D01*
X5071428Y-30238571D01*
X5285713Y-30238571D01*
X5428570Y-30310000D01*
X5499999Y-30452857D01*
X5499999Y-31238571D01*
X5499999Y-30452857D02*
X5571428Y-30310000D01*
X5714285Y-30238571D01*
X5928570Y-30238571D01*
X6071428Y-30310000D01*
X6142856Y-30452857D01*
X6142856Y-31238571D01*
X16510000Y-29210000D02*
X-16510000Y-29210000D01*
X16510000Y-15240000D02*
X16510000Y-31910000D01*
X-16510000Y-15240000D02*
X-16510000Y-31910000D01*
X-16510000Y-29210000D02*
X-15383496Y-28623579D01*
X-16510000Y-29210000D02*
X-15383496Y-29796421D01*
X16510000Y-29210000D02*
X15383496Y-28623579D01*
X16510000Y-29210000D02*
X15383496Y-29796421D01*
X45585715Y16617143D02*
X46085715Y16617143D01*
X46300001Y15831429D02*
X45585715Y15831429D01*
X45585715Y17331429D01*
X46300001Y17331429D01*
X47585715Y15902857D02*
X47442858Y15831429D01*
X47157144Y15831429D01*
X47014286Y15902857D01*
X46942858Y15974286D01*
X46871429Y16117143D01*
X46871429Y16545714D01*
X46942858Y16688571D01*
X47014286Y16760000D01*
X47157144Y16831429D01*
X47442858Y16831429D01*
X47585715Y16760000D01*
X48442858Y15831429D02*
X48300000Y15902857D01*
X48228572Y15974286D01*
X48157143Y16117143D01*
X48157143Y16545714D01*
X48228572Y16688571D01*
X48300000Y16760000D01*
X48442858Y16831429D01*
X48657143Y16831429D01*
X48800000Y16760000D01*
X48871429Y16688571D01*
X48942858Y16545714D01*
X48942858Y16117143D01*
X48871429Y15974286D01*
X48800000Y15902857D01*
X48657143Y15831429D01*
X48442858Y15831429D01*
X50371429Y15831429D02*
X49514286Y15831429D01*
X49942858Y15831429D02*
X49942858Y17331429D01*
X49800001Y17117143D01*
X49657143Y16974286D01*
X49514286Y16902857D01*
X51014286Y15974286D02*
X51085714Y15902857D01*
X51014286Y15831429D01*
X50942857Y15902857D01*
X51014286Y15974286D01*
X51014286Y15831429D01*
X51728572Y17331429D02*
X51728572Y16117143D01*
X51800000Y15974286D01*
X51871429Y15902857D01*
X52014286Y15831429D01*
X52300000Y15831429D01*
X52442858Y15902857D01*
X52514286Y15974286D01*
X52585715Y16117143D01*
X52585715Y17331429D01*
X53228572Y15902857D02*
X53371429Y15831429D01*
X53657144Y15831429D01*
X53800001Y15902857D01*
X53871429Y16045714D01*
X53871429Y16117143D01*
X53800001Y16260000D01*
X53657144Y16331429D01*
X53442858Y16331429D01*
X53300001Y16402857D01*
X53228572Y16545714D01*
X53228572Y16617143D01*
X53300001Y16760000D01*
X53442858Y16831429D01*
X53657144Y16831429D01*
X53800001Y16760000D01*
X55085715Y15902857D02*
X54942858Y15831429D01*
X54657144Y15831429D01*
X54514287Y15902857D01*
X54442858Y16045714D01*
X54442858Y16617143D01*
X54514287Y16760000D01*
X54657144Y16831429D01*
X54942858Y16831429D01*
X55085715Y16760000D01*
X55157144Y16617143D01*
X55157144Y16474286D01*
X54442858Y16331429D01*
X55800001Y15831429D02*
X55800001Y16831429D01*
X55800001Y16545714D02*
X55871429Y16688571D01*
X55942858Y16760000D01*
X56085715Y16831429D01*
X56228572Y16831429D01*
D12*
X-13335000Y15240000D02*
G75*
G03X-13335000Y15240000I-3175000J0D01*
G01*
X-13335000Y-15240000D02*
G75*
G03X-13335000Y-15240000I-3175000J0D01*
G01*
X19685000Y15240000D02*
G75*
G03X19685000Y15240000I-3175000J0D01*
G01*
X19685000Y-15240000D02*
G75*
G03X19685000Y-15240000I-3175000J0D01*
G01*
X-24130000Y-15240000D02*
X24130000Y-15240000D01*
X-24130000Y15240000D02*
X20320000Y15240000D01*
X16510000Y24130000D02*
X16510000Y-30480000D01*
X-16510000Y24130000D02*
X-16510000Y-33020000D01*
X0Y-21590000D02*
X0Y-55880000D01*
X0Y22860000D02*
X0Y44450000D01*
X12700000Y0D02*
X66040000Y0D01*
X-12700000Y0D02*
X-53340000Y0D01*
X-12700000Y0D02*
X12700000Y0D01*
X0Y22860000D02*
X0Y-21590000D01*
M02*
