M48
; DRILL file {KiCad 5.1.9-73d0e3b20d~88~ubuntu20.04.1} date Sat Jul 17 10:54:15 2021
; FORMAT={-:-/ absolute / metric / decimal}
; #@! TF.CreationDate,2021-07-17T10:54:15+02:00
; #@! TF.GenerationSoftware,Kicad,Pcbnew,5.1.9-73d0e3b20d~88~ubuntu20.04.1
; #@! TF.FileFunction,Plated,1,2,PTH
FMAT,2
METRIC
T1C0.800
T2C1.000
T3C1.200
T4C1.500
%
G90
G05
T1
X117.78Y-98.66
X117.78Y-106.28
X120.32Y-98.66
X120.32Y-106.28
T2
X112.7Y-93.58
X112.7Y-96.12
X112.7Y-102.47
X112.7Y-105.01
X117.78Y-93.58
X120.32Y-93.58
T3
X112.7Y-75.8
X112.7Y-80.88
X112.7Y-85.96
X160.94Y-75.82
X160.94Y-80.9
X160.94Y-85.98
T4
X133.185Y-106.305
X138.265Y-106.305
X150.965Y-106.305
X161.125Y-106.305
T0
M30
