999
dxfrw 0.6.3
  0
SECTION
  2
HEADER
  9
$ACADVER
  1
AC1021
  9
$DWGCODEPAGE
  3
ANSI_1252
  9
$INSBASE
 10
0
 20
0
 30
0
  9
$EXTMIN
 10
-174.3800000000003
 20
-66.09999999999999
 30
0
  9
$EXTMAX
 10
175
 20
86.11111111111111
 30
0
  9
$LIMMIN
 10
0
 20
0
  9
$LIMMAX
 10
420
 20
297
  9
$ORTHOMODE
 70
    0
  9
$REGENMODE
 70
    1
  9
$FILLMODE
 70
    1
  9
$QTEXTMODE
 70
    0
  9
$MIRRTEXT
 70
    0
  9
$LTSCALE
 40
1
  9
$ATTMODE
 70
    0
  9
$TEXTSIZE
 40
2.5
  9
$TRACEWID
 40
15.68
  9
$TEXTSTYLE
  7
STANDARD
  9
$CLAYER
  8
contour
  9
$CELTYPE
  6
BYLAYER
  9
$CECOLOR
 62
  256
  9
$CELTSCALE
 40
1
  9
$DISPSILH
 70
    0
  9
$DIMSCALE
 40
1
  9
$DIMASZ
 40
5
  9
$DIMEXO
 40
0.625
  9
$DIMDLI
 40
3.75
  9
$DIMRND
 40
0
  9
$DIMDLE
 40
0
  9
$DIMEXE
 40
1.25
  9
$DIMTP
 40
0
  9
$DIMTM
 40
0
  9
$DIMTXT
 40
5
  9
$DIMCEN
 40
2.5
  9
$DIMTSZ
 40
0
  9
$DIMTOL
 70
    0
  9
$DIMLIM
 70
    0
  9
$DIMTIH
 70
    0
  9
$DIMTOH
 70
    0
  9
$DIMSE1
 70
    0
  9
$DIMSE2
 70
    0
  9
$DIMTAD
 70
    1
  9
$DIMZIN
 70
    8
  9
$DIMBLK
  1

  9
$DIMASO
 70
    1
  9
$DIMSHO
 70
    1
  9
$DIMPOST
  1

  9
$DIMAPOST
  1

  9
$DIMALT
 70
    0
  9
$DIMALTD
 70
    3
  9
$DIMALTF
 40
0.03937
  9
$DIMLFAC
 40
1
  9
$DIMTOFL
 70
    1
  9
$DIMTVP
 40
0
  9
$DIMTIX
 70
    0
  9
$DIMSOXD
 70
    0
  9
$DIMSAH
 70
    0
  9
$DIMBLK1
  1

  9
$DIMBLK2
  1

  9
$DIMSTYLE
  2
STANDARD
  9
$DIMCLRD
 70
    0
  9
$DIMCLRE
 70
    0
  9
$DIMCLRT
 70
    0
  9
$DIMTFAC
 40
1
  9
$DIMGAP
 40
2
  9
$DIMJUST
 70
    0
  9
$DIMSD1
 70
    0
  9
$DIMSD2
 70
    0
  9
$DIMTOLJ
 70
    0
  9
$DIMTZIN
 70
    8
  9
$DIMALTZ
 70
    0
  9
$DIMALTTZ
 70
    0
  9
$DIMUPT
 70
    0
  9
$DIMDEC
 70
    2
  9
$DIMTDEC
 70
    2
  9
$DIMALTU
 70
    2
  9
$DIMALTTD
 70
    3
  9
$DIMTXSTY
  7
standard
  9
$DIMAUNIT
 70
    0
  9
$DIMADEC
 70
    0
  9
$DIMALTRND
 40
0
  9
$DIMAZIN
 70
    0
  9
$DIMDSEP
 70
   44
  9
$DIMATFIT
 70
    3
  9
$DIMFRAC
 70
    0
  9
$DIMLDRBLK
  1
STANDARD
  9
$DIMLUNIT
 70
    2
  9
$DIMLWD
 70
   -2
  9
$DIMLWE
 70
   -2
  9
$DIMTMOVE
 70
    0
  9
$DIMFXL
 40
1
  9
$DIMFXLON
 70
    0
  9
$DIMJOGANG
 40
0.7854
  9
$DIMTFILL
 70
    0
  9
$DIMTFILLCLR
 70
    0
  9
$DIMARCSYM
 70
    0
  9
$DIMLTYPE
  6

  9
$DIMLTEX1
  6

  9
$DIMLTEX2
  6

  9
$LUNITS
 70
    2
  9
$LUPREC
 70
    4
  9
$SKETCHINC
 40
1
  9
$FILLETRAD
 40
0
  9
$AUNITS
 70
    0
  9
$AUPREC
 70
    2
  9
$MENU
  1
.
  9
$ELEVATION
 40
0
  9
$PELEVATION
 40
0
  9
$THICKNESS
 40
0
  9
$LIMCHECK
 70
    0
  9
$CHAMFERA
 40
0
  9
$CHAMFERB
 40
0
  9
$CHAMFERC
 40
0
  9
$CHAMFERD
 40
0
  9
$SKPOLY
 70
    0
  9
$USRTIMER
 70
    1
  9
$ANGBASE
 50
0
  9
$ANGDIR
 70
    0
  9
$PDMODE
 70
   34
  9
$PDSIZE
 40
0
  9
$PLINEWID
 40
0
  9
$SPLFRAME
 70
    0
  9
$SPLINETYPE
 70
    2
  9
$SPLINESEGS
 70
    8
  9
$HANDSEED
  5
20000
  9
$SURFTAB1
 70
    6
  9
$SURFTAB2
 70
    6
  9
$SURFTYPE
 70
    6
  9
$SURFU
 70
    6
  9
$SURFV
 70
    6
  9
$UCSBASE
  2

  9
$UCSNAME
  2

  9
$UCSORG
 10
0
 20
0
 30
0
  9
$UCSXDIR
 10
1
 20
0
 30
0
  9
$UCSYDIR
 10
0
 20
1
 30
0
  9
$UCSORTHOREF
  2

  9
$UCSORTHOVIEW
 70
    0
  9
$UCSORGTOP
 10
0
 20
0
 30
0
  9
$UCSORGBOTTOM
 10
0
 20
0
 30
0
  9
$UCSORGLEFT
 10
0
 20
0
 30
0
  9
$UCSORGRIGHT
 10
0
 20
0
 30
0
  9
$UCSORGFRONT
 10
0
 20
0
 30
0
  9
$UCSORGBACK
 10
0
 20
0
 30
0
  9
$PUCSBASE
  2

  9
$PUCSNAME
  2

  9
$PUCSORG
 10
0
 20
0
 30
0
  9
$PUCSXDIR
 10
1
 20
0
 30
0
  9
$PUCSYDIR
 10
0
 20
1
 30
0
  9
$PUCSORTHOREF
  2

  9
$PUCSORTHOVIEW
 70
    0
  9
$PUCSORGTOP
 10
0
 20
0
 30
0
  9
$PUCSORGBOTTOM
 10
0
 20
0
 30
0
  9
$PUCSORGLEFT
 10
0
 20
0
 30
0
  9
$PUCSORGRIGHT
 10
0
 20
0
 30
0
  9
$PUCSORGFRONT
 10
0
 20
0
 30
0
  9
$PUCSORGBACK
 10
0
 20
0
 30
0
  9
$USERI1
 70
    0
  9
$USERI2
 70
    0
  9
$USERI3
 70
    0
  9
$USERI4
 70
    0
  9
$USERI5
 70
    0
  9
$USERR1
 40
0
  9
$USERR2
 40
0
  9
$USERR3
 40
0
  9
$USERR4
 40
0
  9
$USERR5
 40
0
  9
$WORLDVIEW
 70
    1
  9
$SHADEDGE
 70
    3
  9
$SHADEDIF
 70
   70
  9
$TILEMODE
 70
    1
  9
$MAXACTVP
 70
   64
  9
$PINSBASE
 10
148.2586581945161
 20
105
 30
0
  9
$PLIMCHECK
 70
    0
  9
$PEXTMIN
 10
0
 20
0
 30
0
  9
$PEXTMAX
 10
0
 20
0
 30
0
  9
$GRIDMODE
 70
    1
  9
$SNAPSTYLE
 70
    0
  9
$GRIDUNIT
 10
0
 20
0
  9
$PLIMMIN
 10
0
 20
0
  9
$PLIMMAX
 10
297
 20
210
  9
$UNITMODE
 70
    0
  9
$VISRETAIN
 70
    1
  9
$PLINEGEN
 70
    0
  9
$PSLTSCALE
 70
    1
  9
$TREEDEPTH
 70
 3020
  9
$CMLSTYLE
  2
Standard
  9
$CMLJUST
 70
    0
  9
$CMLSCALE
 40
20
  9
$PROXYGRAPHICS
 70
    1
  9
$MEASUREMENT
 70
    1
  9
$CELWEIGHT
370
   -1
  9
$ENDCAPS
280
    0
  9
$JOINSTYLE
280
    0
  9
$LWDISPLAY
290
    0
  9
$INSUNITS
 70
    4
  9
$HYPERLINKBASE
  1

  9
$STYLESHEET
  1

  9
$XEDIT
290
    1
  9
$CEPSNTYPE
380
    0
  9
$PSTYLEMODE
290
    1
  9
$EXTNAMES
290
    1
  9
$PSVPSCALE
 40
0.7785191009661423
  9
$OLESTARTUP
290
    0
  9
$SORTENTS
280
  127
  9
$INDEXCTL
280
    0
  9
$HIDETEXT
280
    1
  9
$XCLIPFRAME
290
    0
  9
$HALOGAP
280
    0
  9
$OBSCOLOR
 70
  257
  9
$OBSLTYPE
280
    0
  9
$INTERSECTIONDISPLAY
280
    0
  9
$INTERSECTIONCOLOR
 70
  257
  9
$DIMASSOC
280
    1
  9
$PROJECTNAME
  1

  9
$CAMERADISPLAY
290
    0
  9
$LENSLENGTH
 40
50
  9
$CAMERAHEIGHT
 40
0
  9
$STEPSPERSEC
 40
2
  9
$STEPSIZE
 40
50
  9
$3DDWFPREC
 40
2
  9
$PSOLWIDTH
 40
5
  9
$PSOLHEIGHT
 40
80
  9
$LOFTANG1
 40
1.570796326794897
  9
$LOFTANG2
 40
1.570796326794897
  9
$LOFTMAG1
 40
0
  9
$LOFTMAG2
 40
0
  9
$LOFTPARAM
 70
    7
  9
$LOFTNORMALS
280
    1
  9
$LATITUDE
 40
1
  9
$LONGITUDE
 40
1
  9
$NORTHDIRECTION
 40
0
  9
$TIMEZONE
 70
-8000
  9
$LIGHTGLYPHDISPLAY
280
    1
  9
$TILEMODELIGHTSYNCH
280
    1
  9
$SOLIDHIST
280
    1
  9
$SHOWHIST
280
    1
  9
$DWFFRAME
280
    2
  9
$DGNFRAME
280
    0
  9
$REALWORLDSCALE
290
    1
  9
$INTERFERECOLOR
 62
    1
  9
$CSHADOW
280
    0
  9
$SHADOWPLANELOCATION
 40
0
  0
ENDSEC
  0
SECTION
  2
CLASSES
  0
ENDSEC
  0
SECTION
  2
TABLES
  0
TABLE
  2
VPORT
  5
8
330
0
100
AcDbSymbolTable
 70
    1
  0
VPORT
  5
31
330
2
100
AcDbSymbolTableRecord
100
AcDbViewportTableRecord
  2
*ACTIVE
 70
    0
 10
0
 20
0
 11
1
 21
1
 12
92.22065080316875
 22
71.82161283749087
 13
0
 23
0
 14
10
 24
10
 15
10
 25
10
 16
0
 26
0
 36
1
 17
0
 27
0
 37
0
 40
232.605696803077
 41
1.713763702801462
 42
50
 43
0
 44
0
 50
0
 51
0
 71
    0
 72
  100
 73
    1
 74
    3
 75
    0
 76
    1
 77
    0
 78
    0
281
    0
 65
    1
110
0
120
0
130
0
111
1
121
0
131
0
112
0
122
1
132
0
 79
    0
146
0
348
10020
 60
    7
 61
    5
292
1
282
    1
141
0
142
0
 63
  250
421
3358443
  0
ENDTAB
  0
TABLE
  2
LTYPE
  5
5
330
0
100
AcDbSymbolTable
 70
    4
  0
LTYPE
  5
14
330
5
100
AcDbSymbolTableRecord
100
AcDbLinetypeTableRecord
  2
ByBlock
 70
    0
  3

 72
   65
 73
    0
 40
0
  0
LTYPE
  5
15
330
5
100
AcDbSymbolTableRecord
100
AcDbLinetypeTableRecord
  2
ByLayer
 70
    0
  3

 72
   65
 73
    0
 40
0
  0
LTYPE
  5
16
330
5
100
AcDbSymbolTableRecord
100
AcDbLinetypeTableRecord
  2
Continuous
 70
    0
  3
Solid line
 72
   65
 73
    0
 40
0
  0
LTYPE
  5
32
330
5
100
AcDbSymbolTableRecord
100
AcDbLinetypeTableRecord
  2
DOT
 70
    0
  3
Dot . . . . . . . . . . . . . . . . . . . . . .
 72
   65
 73
    2
 40
6.35
 49
0
 74
    0
 49
-6.35
 74
    0
  0
LTYPE
  5
33
330
5
100
AcDbSymbolTableRecord
100
AcDbLinetypeTableRecord
  2
DOTTINY
 70
    0
  3
Dot (.15x) .....................................
 72
   65
 73
    2
 40
0.9525
 49
0
 74
    0
 49
-0.9525
 74
    0
  0
LTYPE
  5
34
330
5
100
AcDbSymbolTableRecord
100
AcDbLinetypeTableRecord
  2
DOT2
 70
    0
  3
Dot (.5x) .....................................
 72
   65
 73
    2
 40
3.175
 49
0
 74
    0
 49
-3.175
 74
    0
  0
LTYPE
  5
35
330
5
100
AcDbSymbolTableRecord
100
AcDbLinetypeTableRecord
  2
DOTX2
 70
    0
  3
Dot (2x) .  .  .  .  .  .  .  .  .  .  .  .  .
 72
   65
 73
    2
 40
12.7
 49
0
 74
    0
 49
-12.7
 74
    0
  0
LTYPE
  5
36
330
5
100
AcDbSymbolTableRecord
100
AcDbLinetypeTableRecord
  2
DASHED
 70
    0
  3
Dashed _ _ _ _ _ _ _ _ _ _ _ _ _ _ _ _ _
 72
   65
 73
    2
 40
19.05
 49
12.7
 74
    0
 49
-6.35
 74
    0
  0
LTYPE
  5
37
330
5
100
AcDbSymbolTableRecord
100
AcDbLinetypeTableRecord
  2
DASHEDTINY
 70
    0
  3
Dashed (.15x) _ _ _ _ _ _ _ _ _ _ _ _ _ _ _ _ _
 72
   65
 73
    2
 40
2.8575
 49
1.905
 74
    0
 49
-0.9525
 74
    0
  0
LTYPE
  5
38
330
5
100
AcDbSymbolTableRecord
100
AcDbLinetypeTableRecord
  2
DASHED2
 70
    0
  3
Dashed (.5x) _ _ _ _ _ _ _ _ _ _ _ _ _ _ _ _ _
 72
   65
 73
    2
 40
9.524999999999999
 49
6.35
 74
    0
 49
-3.175
 74
    0
  0
LTYPE
  5
39
330
5
100
AcDbSymbolTableRecord
100
AcDbLinetypeTableRecord
  2
DASHEDX2
 70
    0
  3
Dashed (2x) ____  ____  ____  ____  ____  ___
 72
   65
 73
    2
 40
38.09999999999999
 49
25.4
 74
    0
 49
-12.7
 74
    0
  0
LTYPE
  5
3A
330
5
100
AcDbSymbolTableRecord
100
AcDbLinetypeTableRecord
  2
DASHDOT
 70
    0
  3
Dash dot __ . __ . __ . __ . __ . __ . __ . __
 72
   65
 73
    4
 40
25.4
 49
12.7
 74
    0
 49
-6.35
 74
    0
 49
0
 74
    0
 49
-6.35
 74
    0
  0
LTYPE
  5
3B
330
5
100
AcDbSymbolTableRecord
100
AcDbLinetypeTableRecord
  2
DASHDOTTINY
 70
    0
  3
Dash dot (.15x) _._._._._._._._._._._._._._._.
 72
   65
 73
    4
 40
3.81
 49
1.905
 74
    0
 49
-0.9525
 74
    0
 49
0
 74
    0
 49
-0.9525
 74
    0
  0
LTYPE
  5
3C
330
5
100
AcDbSymbolTableRecord
100
AcDbLinetypeTableRecord
  2
DASHDOT2
 70
    0
  3
Dash dot (.5x) _._._._._._._._._._._._._._._.
 72
   65
 73
    4
 40
12.7
 49
6.35
 74
    0
 49
-3.175
 74
    0
 49
0
 74
    0
 49
-3.175
 74
    0
  0
LTYPE
  5
3D
330
5
100
AcDbSymbolTableRecord
100
AcDbLinetypeTableRecord
  2
DASHDOTX2
 70
    0
  3
Dash dot (2x) ____  .  ____  .  ____  .  ___
 72
   65
 73
    4
 40
50.8
 49
25.4
 74
    0
 49
-12.7
 74
    0
 49
0
 74
    0
 49
-12.7
 74
    0
  0
LTYPE
  5
3E
330
5
100
AcDbSymbolTableRecord
100
AcDbLinetypeTableRecord
  2
DIVIDE
 70
    0
  3
Divide ____ . . ____ . . ____ . . ____ . . ____
 72
   65
 73
    6
 40
31.75
 49
12.7
 74
    0
 49
-6.35
 74
    0
 49
0
 74
    0
 49
-6.35
 74
    0
 49
0
 74
    0
 49
-6.35
 74
    0
  0
LTYPE
  5
3F
330
5
100
AcDbSymbolTableRecord
100
AcDbLinetypeTableRecord
  2
DIVIDETINY
 70
    0
  3
Divide (.15x) __..__..__..__..__..__..__..__.._
 72
   65
 73
    6
 40
4.7625
 49
1.905
 74
    0
 49
-0.9525
 74
    0
 49
0
 74
    0
 49
-0.9525
 74
    0
 49
0
 74
    0
 49
-0.9525
 74
    0
  0
LTYPE
  5
40
330
5
100
AcDbSymbolTableRecord
100
AcDbLinetypeTableRecord
  2
DIVIDE2
 70
    0
  3
Divide (.5x) __..__..__..__..__..__..__..__.._
 72
   65
 73
    6
 40
15.875
 49
6.35
 74
    0
 49
-3.175
 74
    0
 49
0
 74
    0
 49
-3.175
 74
    0
 49
0
 74
    0
 49
-3.175
 74
    0
  0
LTYPE
  5
41
330
5
100
AcDbSymbolTableRecord
100
AcDbLinetypeTableRecord
  2
DIVIDEX2
 70
    0
  3
Divide (2x) ________  .  .  ________  .  .  _
 72
   65
 73
    6
 40
63.5
 49
25.4
 74
    0
 49
-12.7
 74
    0
 49
0
 74
    0
 49
-12.7
 74
    0
 49
0
 74
    0
 49
-12.7
 74
    0
  0
LTYPE
  5
42
330
5
100
AcDbSymbolTableRecord
100
AcDbLinetypeTableRecord
  2
BORDER
 70
    0
  3
Border __ __ . __ __ . __ __ . __ __ . __ __ .
 72
   65
 73
    6
 40
44.45
 49
12.7
 74
    0
 49
-6.35
 74
    0
 49
12.7
 74
    0
 49
-6.35
 74
    0
 49
0
 74
    0
 49
-6.35
 74
    0
  0
LTYPE
  5
43
330
5
100
AcDbSymbolTableRecord
100
AcDbLinetypeTableRecord
  2
BORDERTINY
 70
    0
  3
Border (.15x) __.__.__.__.__.__.__.__.__.__.__.
 72
   65
 73
    6
 40
6.6675
 49
1.905
 74
    0
 49
-0.9525
 74
    0
 49
1.905
 74
    0
 49
-0.9525
 74
    0
 49
0
 74
    0
 49
-0.9525
 74
    0
  0
LTYPE
  5
44
330
5
100
AcDbSymbolTableRecord
100
AcDbLinetypeTableRecord
  2
BORDER2
 70
    0
  3
Border (.5x) __.__.__.__.__.__.__.__.__.__.__.
 72
   65
 73
    6
 40
22.225
 49
6.35
 74
    0
 49
-3.175
 74
    0
 49
6.35
 74
    0
 49
-3.175
 74
    0
 49
0
 74
    0
 49
-3.175
 74
    0
  0
LTYPE
  5
45
330
5
100
AcDbSymbolTableRecord
100
AcDbLinetypeTableRecord
  2
BORDERX2
 70
    0
  3
Border (2x) ____  ____  .  ____  ____  .  ___
 72
   65
 73
    6
 40
88.89999999999999
 49
25.4
 74
    0
 49
-12.7
 74
    0
 49
25.4
 74
    0
 49
-12.7
 74
    0
 49
0
 74
    0
 49
-12.7
 74
    0
  0
LTYPE
  5
46
330
5
100
AcDbSymbolTableRecord
100
AcDbLinetypeTableRecord
  2
CENTER
 70
    0
  3
Center ____ _ ____ _ ____ _ ____ _ ____ _ ____
 72
   65
 73
    4
 40
50.8
 49
31.75
 74
    0
 49
-6.35
 74
    0
 49
6.35
 74
    0
 49
-6.35
 74
    0
  0
LTYPE
  5
47
330
5
100
AcDbSymbolTableRecord
100
AcDbLinetypeTableRecord
  2
CENTERTINY
 70
    0
  3
Center (.15x) ___ _ ___ _ ___ _ ___ _ ___ _ ___
 72
   65
 73
    4
 40
7.619999999999999
 49
4.7625
 74
    0
 49
-0.9525
 74
    0
 49
0.9525
 74
    0
 49
-0.9525
 74
    0
  0
LTYPE
  5
48
330
5
100
AcDbSymbolTableRecord
100
AcDbLinetypeTableRecord
  2
CENTER2
 70
    0
  3
Center (.5x) ___ _ ___ _ ___ _ ___ _ ___ _ ___
 72
   65
 73
    4
 40
28.575
 49
19.05
 74
    0
 49
-3.175
 74
    0
 49
3.175
 74
    0
 49
-3.175
 74
    0
  0
LTYPE
  5
49
330
5
100
AcDbSymbolTableRecord
100
AcDbLinetypeTableRecord
  2
CENTERX2
 70
    0
  3
Center (2x) ________  __  ________  __  _____
 72
   65
 73
    4
 40
101.6
 49
63.5
 74
    0
 49
-12.7
 74
    0
 49
12.7
 74
    0
 49
-12.7
 74
    0
  0
ENDTAB
  0
TABLE
  2
LAYER
  5
2
330
0
100
AcDbSymbolTable
 70
    1
  0
LAYER
  5
10
330
2
100
AcDbSymbolTableRecord
100
AcDbLayerTableRecord
  2
0
 70
    0
 62
    7
  6
CONTINUOUS
370
    0
390
F
  0
LAYER
  5
4A
330
2
100
AcDbSymbolTableRecord
100
AcDbLayerTableRecord
  2
axe
 70
    1
 62
    7
  6
DASHDOTX2
370
   25
390
F
  0
LAYER
  5
4B
330
2
100
AcDbSymbolTableRecord
100
AcDbLayerTableRecord
  2
cadre
 70
    1
 62
    7
  6
CONTINUOUS
370
   13
390
F
  0
LAYER
  5
4C
330
2
100
AcDbSymbolTableRecord
100
AcDbLayerTableRecord
  2
construction
 70
    1
 62
    7
  6
CONTINUOUS
370
    0
390
F
  0
LAYER
  5
4D
330
2
100
AcDbSymbolTableRecord
100
AcDbLayerTableRecord
  2
contour
 70
    0
 62
    7
  6
CONTINUOUS
370
   70
390
F
  0
LAYER
  5
4E
330
2
100
AcDbSymbolTableRecord
100
AcDbLayerTableRecord
  2
cotation
 70
    1
 62
    7
  6
CONTINUOUS
370
   18
390
F
  0
LAYER
  5
4F
330
2
100
AcDbSymbolTableRecord
100
AcDbLayerTableRecord
  2
logo
 70
    0
 62
    7
  6
CONTINUOUS
370
    0
390
F
  0
LAYER
  5
50
330
2
100
AcDbSymbolTableRecord
100
AcDbLayerTableRecord
  2
marquage
 70
    0
 62
    7
  6
CONTINUOUS
370
   70
390
F
  0
ENDTAB
  0
TABLE
  2
STYLE
  5
3
330
0
100
AcDbSymbolTable
 70
    3
  0
STYLE
  5
51
330
2
100
AcDbSymbolTableRecord
100
AcDbTextStyleTableRecord
  2
standard
 70
    0
 40
0
 41
1
 50
0
 71
    0
 42
1
  3
standard
  4

  0
ENDTAB
  0
TABLE
  2
VIEW
  5
6
330
0
100
AcDbSymbolTable
 70
    0
  0
ENDTAB
  0
TABLE
  2
UCS
  5
7
330
0
100
AcDbSymbolTable
 70
    0
  0
ENDTAB
  0
TABLE
  2
APPID
  5
9
330
0
100
AcDbSymbolTable
 70
    1
  0
APPID
  5
12
330
9
100
AcDbSymbolTableRecord
100
AcDbRegAppTableRecord
  2
ACAD
 70
    0
  0
APPID
  5
52
330
9
100
AcDbSymbolTableRecord
100
AcDbRegAppTableRecord
  2
LibreCad
 70
    0
  0
ENDTAB
  0
TABLE
  2
DIMSTYLE
  5
A
330
0
100
AcDbSymbolTable
 70
    1
100
AcDbDimStyleTable
 71
    1
  0
DIMSTYLE
105
53
330
A
100
AcDbSymbolTableRecord
100
AcDbDimStyleTableRecord
  2
Standard
 70
    0
 40
1
 41
5
 42
0.625
 43
0.38
 44
1.25
 45
0
 46
0
 47
0
 48
0
 49
1
140
5
141
0.09
142
0
143
25.4
144
1
145
0
146
1
147
2
148
0
 71
    0
 72
    0
 73
    0
 74
    1
 75
    0
 76
    0
 77
    0
 78
    8
 79
    0
170
    0
171
    2
172
    0
173
    0
174
    0
175
    0
176
    0
177
    0
178
    0
179
    0
271
    2
272
    4
273
    2
274
    2
275
    0
276
    0
277
    2
278
   44
279
    0
280
    0
281
    0
282
    0
283
    1
284
    0
285
    0
286
    0
288
    0
289
    3
340
standard
341

371
   -2
372
   -2
  0
ENDTAB
  0
TABLE
  2
BLOCK_RECORD
  5
1
330
0
100
AcDbSymbolTable
 70
    2
  0
BLOCK_RECORD
  5
1F
330
1
100
AcDbSymbolTableRecord
100
AcDbBlockTableRecord
  2
*Model_Space
 70
    0
280
    1
281
    0
  0
BLOCK_RECORD
  5
1E
330
1
100
AcDbSymbolTableRecord
100
AcDbBlockTableRecord
  2
*Paper_Space
 70
    0
280
    1
281
    0
  0
BLOCK_RECORD
  5
54
330
1
100
AcDbSymbolTableRecord
100
AcDbBlockTableRecord
  2
*D14
 70
    0
280
    1
281
    0
  0
BLOCK_RECORD
  5
57
330
1
100
AcDbSymbolTableRecord
100
AcDbBlockTableRecord
  2
*D2
 70
    0
280
    1
281
    0
  0
BLOCK_RECORD
  5
5A
330
1
100
AcDbSymbolTableRecord
100
AcDbBlockTableRecord
  2
*D5
 70
    0
280
    1
281
    0
  0
BLOCK_RECORD
  5
5D
330
1
100
AcDbSymbolTableRecord
100
AcDbBlockTableRecord
  2
*D17
 70
    0
280
    1
281
    0
  0
BLOCK_RECORD
  5
60
330
1
100
AcDbSymbolTableRecord
100
AcDbBlockTableRecord
  2
*D20
 70
    0
280
    1
281
    0
  0
BLOCK_RECORD
  5
63
330
1
100
AcDbSymbolTableRecord
100
AcDbBlockTableRecord
  2
*D6
 70
    0
280
    1
281
    0
  0
BLOCK_RECORD
  5
66
330
1
100
AcDbSymbolTableRecord
100
AcDbBlockTableRecord
  2
*D8
 70
    0
280
    1
281
    0
  0
BLOCK_RECORD
  5
69
330
1
100
AcDbSymbolTableRecord
100
AcDbBlockTableRecord
  2
*D10
 70
    0
280
    1
281
    0
  0
BLOCK_RECORD
  5
6C
330
1
100
AcDbSymbolTableRecord
100
AcDbBlockTableRecord
  2
*D16
 70
    0
280
    1
281
    0
  0
BLOCK_RECORD
  5
6F
330
1
100
AcDbSymbolTableRecord
100
AcDbBlockTableRecord
  2
*D15
 70
    0
280
    1
281
    0
  0
BLOCK_RECORD
  5
72
330
1
100
AcDbSymbolTableRecord
100
AcDbBlockTableRecord
  2
*D13
 70
    0
280
    1
281
    0
  0
BLOCK_RECORD
  5
75
330
1
100
AcDbSymbolTableRecord
100
AcDbBlockTableRecord
  2
*D4
 70
    0
280
    1
281
    0
  0
BLOCK_RECORD
  5
78
330
1
100
AcDbSymbolTableRecord
100
AcDbBlockTableRecord
  2
*D9
 70
    0
280
    1
281
    0
  0
BLOCK_RECORD
  5
7B
330
1
100
AcDbSymbolTableRecord
100
AcDbBlockTableRecord
  2
*D12
 70
    0
280
    1
281
    0
  0
BLOCK_RECORD
  5
7E
330
1
100
AcDbSymbolTableRecord
100
AcDbBlockTableRecord
  2
*D7
 70
    0
280
    1
281
    0
  0
BLOCK_RECORD
  5
81
330
1
100
AcDbSymbolTableRecord
100
AcDbBlockTableRecord
  2
*D1
 70
    0
280
    1
281
    0
  0
BLOCK_RECORD
  5
84
330
1
100
AcDbSymbolTableRecord
100
AcDbBlockTableRecord
  2
*D19
 70
    0
280
    1
281
    0
  0
BLOCK_RECORD
  5
87
330
1
100
AcDbSymbolTableRecord
100
AcDbBlockTableRecord
  2
*D11
 70
    0
280
    1
281
    0
  0
BLOCK_RECORD
  5
8A
330
1
100
AcDbSymbolTableRecord
100
AcDbBlockTableRecord
  2
*D3
 70
    0
280
    1
281
    0
  0
BLOCK_RECORD
  5
8D
330
1
100
AcDbSymbolTableRecord
100
AcDbBlockTableRecord
  2
*D18
 70
    0
280
    1
281
    0
  0
ENDTAB
  0
ENDSEC
  0
SECTION
  2
BLOCKS
  0
BLOCK
  5
20
330
1F
100
AcDbEntity
  8
0
100
AcDbBlockBegin
  2
*Model_Space
 70
    0
 10
0
 20
0
 30
0
  3
*Model_Space
  1

  0
ENDBLK
  5
21
330
1F
100
AcDbEntity
  8
0
100
AcDbBlockEnd
  0
BLOCK
  5
1C
330
1B
100
AcDbEntity
  8
0
100
AcDbBlockBegin
  2
*Paper_Space
 70
    0
 10
0
 20
0
 30
0
  3
*Paper_Space
  1

  0
ENDBLK
  5
1D
330
1F
100
AcDbEntity
  8
0
100
AcDbBlockEnd
  0
BLOCK
  5
55
330
54
100
AcDbEntity
  8
0
100
AcDbBlockBegin
  2
*D14
 70
    1
 10
0
 20
0
  3
*D14
  1

  0
LINE
  5
90
100
AcDbEntity
  8
cotation
  6
ByBlock
 62
    0
370
   -2
100
AcDbLine
 10
-97.14999999999998
 20
30
 11
-71.14999999999992
 21
30
  0
SOLID
  5
91
100
AcDbEntity
  8
cotation
  6
ByBlock
 62
    0
370
   -2
100
AcDbTrace
 10
-97.14999999999998
 20
30
 30
0
 11
-92.14999999999998
 21
30.83256931554568
 31
0
 12
-92.14999999999998
 22
29.16743068445432
 32
0
 13
-92.14999999999998
 23
29.16743068445432
 33
0
  0
SOLID
  5
92
100
AcDbEntity
  8
cotation
  6
ByBlock
 62
    0
370
   -2
100
AcDbTrace
 10
-71.14999999999992
 20
30
 30
0
 11
-76.14999999999992
 21
29.16743068445432
 31
0
 12
-76.14999999999992
 22
30.83256931554568
 32
0
 13
-76.14999999999992
 23
30.83256931554568
 33
0
  0
MTEXT
  5
93
100
AcDbEntity
  8
cotation
  6
CONTINUOUS
 62
    0
370
   -2
100
AcDbMText
 10
-84.14999999999995
 20
34.5
 30
0
 40
5
 41
6.111111111111422
 71
    5
 72
    1
  1
26
  7
standard
210
0
220
0
230
1
 50
0
 73
    2
 44
1
  0
LINE
  5
94
100
AcDbEntity
  8
cotation
  6
ByBlock
 62
    0
370
   -2
100
AcDbLine
 10
-97.14999999999998
 20
0.6249999999999929
 11
-97.14999999999998
 21
31.25
  0
LINE
  5
95
100
AcDbEntity
  8
cotation
  6
ByBlock
 62
    0
370
   -2
100
AcDbLine
 10
-71.14999999999992
 20
0.6249999999999858
 11
-71.14999999999992
 21
31.25
  0
ENDBLK
  5
56
330
54
100
AcDbEntity
  8
0
100
AcDbBlockEnd
  0
BLOCK
  5
58
330
57
100
AcDbEntity
  8
0
100
AcDbBlockBegin
  2
*D2
 70
    1
 10
0
 20
0
  3
*D2
  1

  0
LINE
  5
96
100
AcDbEntity
  8
construction
  6
ByBlock
 62
    0
370
   -2
100
AcDbLine
 10
190
 20
50.84885482000277
 11
190
 21
1.4210854715202e-14
  0
SOLID
  5
97
100
AcDbEntity
  8
construction
  6
ByBlock
 62
    0
370
   -2
100
AcDbTrace
 10
190
 20
50.84885482000277
 30
0
 11
190.8325693155457
 21
45.84885482000277
 31
0
 12
189.1674306844543
 22
45.84885482000277
 32
0
 13
189.1674306844543
 23
45.84885482000277
 33
0
  0
SOLID
  5
98
100
AcDbEntity
  8
construction
  6
ByBlock
 62
    0
370
   -2
100
AcDbTrace
 10
190
 20
1.4210854715202e-14
 30
0
 11
189.1674306844543
 21
5.000000000000014
 31
0
 12
190.8325693155457
 22
5.000000000000014
 32
0
 13
190.8325693155457
 23
5.000000000000014
 33
0
  0
MTEXT
  5
99
100
AcDbEntity
  8
construction
  6
CONTINUOUS
 62
    0
370
   -2
100
AcDbMText
 10
185.5
 20
25.42442741000139
 30
0
 40
5
 41
15.83333333333395
 71
    5
 72
    1
  1
50,85
  7
standard
210
0
220
0
230
1
 50
90
 73
    2
 44
1
  0
LINE
  5
9A
100
AcDbEntity
  8
construction
  6
ByBlock
 62
    0
370
   -2
100
AcDbLine
 10
171.5031802336913
 20
50.84885482000277
 11
191.25
 21
50.84885482000277
  0
LINE
  5
9B
100
AcDbEntity
  8
construction
  6
ByBlock
 62
    0
370
   -2
100
AcDbLine
 10
171.1619127516778
 20
1.4210854715202e-14
 11
191.25
 21
1.4210854715202e-14
  0
ENDBLK
  5
59
330
57
100
AcDbEntity
  8
0
100
AcDbBlockEnd
  0
BLOCK
  5
5B
330
5A
100
AcDbEntity
  8
0
100
AcDbBlockBegin
  2
*D5
 70
    1
 10
0
 20
0
  3
*D5
  1

  0
LINE
  5
9C
100
AcDbEntity
  8
cotation
  6
ByBlock
 62
    0
370
   -2
100
AcDbLine
 10
200
 20
50.84887030133758
 11
200
 21
-50.84885931691205
  0
SOLID
  5
9D
100
AcDbEntity
  8
cotation
  6
ByBlock
 62
    0
370
   -2
100
AcDbTrace
 10
200
 20
50.84887030133758
 30
0
 11
200.8325693155457
 21
45.84887030133758
 31
0
 12
199.1674306844543
 22
45.84887030133758
 32
0
 13
199.1674306844543
 23
45.84887030133758
 33
0
  0
SOLID
  5
9E
100
AcDbEntity
  8
cotation
  6
ByBlock
 62
    0
370
   -2
100
AcDbTrace
 10
200
 20
-50.84885931691205
 30
0
 11
199.1674306844543
 21
-45.84885931691205
 31
0
 12
200.8325693155457
 22
-45.84885931691205
 32
0
 13
200.8325693155457
 23
-45.84885931691205
 33
0
  0
MTEXT
  5
9F
100
AcDbEntity
  8
cotation
  6
CONTINUOUS
 62
    0
370
   -2
100
AcDbMText
 10
195.5
 20
5.492212747367085e-06
 30
0
 40
5
 41
13.61111111111111
 71
    5
 72
    1
  1
101,7
  7
standard
210
0
220
0
230
1
 50
90
 73
    2
 44
1
  0
LINE
  5
A0
100
AcDbEntity
  8
cotation
  6
ByBlock
 62
    0
370
   -2
100
AcDbLine
 10
170.5449999999982
 20
50.84887030133756
 11
201.25
 21
50.84887030133758
  0
LINE
  5
A1
100
AcDbEntity
  8
cotation
  6
ByBlock
 62
    0
370
   -2
100
AcDbLine
 10
170.5450000000006
 20
-50.84885931691205
 11
201.25
 21
-50.84885931691205
  0
ENDBLK
  5
5C
330
5A
100
AcDbEntity
  8
0
100
AcDbBlockEnd
  0
BLOCK
  5
5E
330
5D
100
AcDbEntity
  8
0
100
AcDbBlockBegin
  2
*D17
 70
    1
 10
0
 20
0
  3
*D17
  1

  0
LINE
  5
A2
100
AcDbEntity
  8
cotation
  6
ByBlock
 62
    0
370
   -2
100
AcDbLine
 10
101.0000030493358
 20
12
 11
118.0000024534886
 21
12
  0
SOLID
  5
A3
100
AcDbEntity
  8
cotation
  6
ByBlock
 62
    0
370
   -2
100
AcDbTrace
 10
101.0000030493358
 20
12
 30
0
 11
106.0000030493358
 21
12.83256931554568
 31
0
 12
106.0000030493358
 22
11.16743068445432
 32
0
 13
106.0000030493358
 23
11.16743068445432
 33
0
  0
SOLID
  5
A4
100
AcDbEntity
  8
cotation
  6
ByBlock
 62
    0
370
   -2
100
AcDbTrace
 10
118.0000024534886
 20
12
 30
0
 11
113.0000024534886
 21
11.16743068445432
 31
0
 12
113.0000024534886
 22
12.83256931554568
 32
0
 13
113.0000024534886
 23
12.83256931554568
 33
0
  0
MTEXT
  5
A5
100
AcDbEntity
  8
cotation
  6
CONTINUOUS
 62
    0
370
   -2
100
AcDbMText
 10
109.5000027514122
 20
16.5
 30
0
 40
5
 41
5
 71
    5
 72
    1
  1
17
  7
standard
210
0
220
0
230
1
 50
0
 73
    2
 44
1
  0
LINE
  5
A6
100
AcDbEntity
  8
cotation
  6
ByBlock
 62
    0
370
   -2
100
AcDbLine
 10
101.0000030493358
 20
0.625
 11
101.0000030493358
 21
13.25
  0
LINE
  5
A7
100
AcDbEntity
  8
cotation
  6
ByBlock
 62
    0
370
   -2
100
AcDbLine
 10
118.0000024534886
 20
0.625
 11
118.0000024534886
 21
13.25
  0
ENDBLK
  5
5F
330
5D
100
AcDbEntity
  8
0
100
AcDbBlockEnd
  0
BLOCK
  5
61
330
60
100
AcDbEntity
  8
0
100
AcDbBlockBegin
  2
*D20
 70
    1
 10
0
 20
0
  3
*D20
  1

  0
LINE
  5
A8
100
AcDbEntity
  8
cotation
  6
ByBlock
 62
    0
370
   -2
100
AcDbLine
 10
60
 20
6.499999999999324
 11
60
 21
-6.499999999999317
  0
SOLID
  5
A9
100
AcDbEntity
  8
cotation
  6
ByBlock
 62
    0
370
   -2
100
AcDbTrace
 10
60
 20
6.499999999999324
 30
0
 11
60.83256931554568
 21
1.499999999999324
 31
0
 12
59.16743068445432
 22
1.499999999999324
 32
0
 13
59.16743068445432
 23
1.499999999999324
 33
0
  0
SOLID
  5
AA
100
AcDbEntity
  8
cotation
  6
ByBlock
 62
    0
370
   -2
100
AcDbTrace
 10
60
 20
-6.499999999999317
 30
0
 11
59.16743068445432
 21
-1.499999999999317
 31
0
 12
60.83256931554568
 22
-1.499999999999317
 32
0
 13
60.83256931554568
 23
-1.499999999999317
 33
0
  0
MTEXT
  5
AB
100
AcDbEntity
  8
cotation
  6
CONTINUOUS
 62
    0
370
   -2
100
AcDbMText
 10
55.5
 20
4.10380473841681e-15
 30
0
 40
5
 41
5.000000000000311
 71
    5
 72
    1
  1
13
  7
standard
210
0
220
0
230
1
 50
90
 73
    2
 44
1
  0
LINE
  5
AC
100
AcDbEntity
  8
cotation
  6
ByBlock
 62
    0
370
   -2
100
AcDbLine
 10
69.37500245348852
 20
6.499999999999321
 11
58.75
 21
6.499999999999324
  0
LINE
  5
AD
100
AcDbEntity
  8
cotation
  6
ByBlock
 62
    0
370
   -2
100
AcDbLine
 10
69.37500245348852
 20
-6.499999999999318
 11
58.75
 21
-6.499999999999317
  0
ENDBLK
  5
62
330
60
100
AcDbEntity
  8
0
100
AcDbBlockEnd
  0
BLOCK
  5
64
330
63
100
AcDbEntity
  8
0
100
AcDbBlockBegin
  2
*D6
 70
    1
 10
0
 20
0
  3
*D6
  1

  0
LINE
  5
AE
100
AcDbEntity
  8
cotation
  6
ByBlock
 62
    0
370
   -2
100
AcDbLine
 10
-184.3
 20
-44
 11
-159.2200000000013
 21
-44
  0
SOLID
  5
AF
100
AcDbEntity
  8
cotation
  6
ByBlock
 62
    0
370
   -2
100
AcDbTrace
 10
-174.3
 20
-44
 30
0
 11
-179.3
 21
-44.83256931554568
 31
0
 12
-179.3
 22
-43.16743068445432
 32
0
 13
-179.3
 23
-43.16743068445432
 33
0
  0
SOLID
  5
B0
100
AcDbEntity
  8
cotation
  6
ByBlock
 62
    0
370
   -2
100
AcDbTrace
 10
-169.2200000000013
 20
-44
 30
0
 11
-164.2200000000013
 21
-43.16743068445432
 31
0
 12
-164.2200000000013
 22
-44.83256931554568
 32
0
 13
-164.2200000000013
 23
-44.83256931554568
 33
0
  0
MTEXT
  5
B1
100
AcDbEntity
  8
cotation
  6
CONTINUOUS
 62
    0
370
   -2
100
AcDbMText
 10
-161.2477777777789
 20
-39.5
 30
0
 40
5
 41
11.94444444444476
 71
    5
 72
    1
  1
5,08
  7
standard
210
0
220
0
230
1
 50
0
 73
    2
 44
1
  0
LINE
  5
B2
100
AcDbEntity
  8
cotation
  6
ByBlock
 62
    0
370
   -2
100
AcDbLine
 10
-174.3
 20
-50.22411503654712
 11
-174.3
 21
-42.75
  0
LINE
  5
B3
100
AcDbEntity
  8
cotation
  6
ByBlock
 62
    0
370
   -2
100
AcDbLine
 10
-169.2200000000013
 20
-50.224111252121
 11
-169.2200000000013
 21
-42.75
  0
ENDBLK
  5
65
330
63
100
AcDbEntity
  8
0
100
AcDbBlockEnd
  0
BLOCK
  5
67
330
66
100
AcDbEntity
  8
0
100
AcDbBlockBegin
  2
*D8
 70
    1
 10
0
 20
0
  3
*D8
  1

  0
LINE
  5
B4
100
AcDbEntity
  8
cotation
  6
ByBlock
 62
    0
370
   -2
100
AcDbLine
 10
-179.911376453913
 20
45.39985464398799
 11
-158.5286235460905
 21
56.29838106194949
  0
SOLID
  5
B5
100
AcDbEntity
  8
cotation
  6
ByBlock
 62
    0
370
   -2
100
AcDbTrace
 10
-171.0018960756536
 20
49.94090731813863
 30
0
 11
-175.0785621531058
 21
46.9286049830238
 31
0
 12
-175.8347103764607
 22
48.41215697910283
 32
0
 13
-175.8347103764607
 23
48.41215697910283
 33
0
  0
SOLID
  5
B6
100
AcDbEntity
  8
cotation
  6
ByBlock
 62
    0
370
   -2
100
AcDbTrace
 10
-167.4381039243499
 20
51.75732838779886
 30
0
 11
-163.3614378468976
 21
54.76963072291368
 31
0
 12
-162.6052896235427
 22
53.28607872683466
 32
0
 13
-162.6052896235427
 23
53.28607872683466
 33
0
  0
MTEXT
  5
B7
100
AcDbEntity
  8
cotation
  6
CONTINUOUS
 62
    0
370
   -2
100
AcDbMText
 10
-171.2634737033695
 20
54.85838402318548
 30
0
 40
5
 41
2.777777777777778
 71
    5
 72
    1
  1
4
  7
standard
210
0
220
0
230
1
 50
27.00738032670719
 73
    2
 44
1
  0
ENDBLK
  5
68
330
66
100
AcDbEntity
  8
0
100
AcDbBlockEnd
  0
BLOCK
  5
6A
330
69
100
AcDbEntity
  8
0
100
AcDbBlockBegin
  2
*D10
 70
    1
 10
0
 20
0
  3
*D10
  1

  0
LINE
  5
B8
100
AcDbEntity
  8
cotation
  6
ByBlock
 62
    0
370
   -2
100
AcDbLine
 10
-160
 20
12.00000132935569
 11
-160
 21
-11.99999849572912
  0
SOLID
  5
B9
100
AcDbEntity
  8
cotation
  6
ByBlock
 62
    0
370
   -2
100
AcDbTrace
 10
-160
 20
12.00000132935569
 30
0
 11
-159.1674306844543
 21
7.000001329355689
 31
0
 12
-160.8325693155457
 22
7.000001329355689
 32
0
 13
-160.8325693155457
 23
7.000001329355689
 33
0
  0
SOLID
  5
BA
100
AcDbEntity
  8
cotation
  6
ByBlock
 62
    0
370
   -2
100
AcDbTrace
 10
-160
 20
-11.99999849572912
 30
0
 11
-160.8325693155457
 21
-6.99999849572912
 31
0
 12
-159.1674306844543
 22
-6.99999849572912
 32
0
 13
-159.1674306844543
 23
-6.99999849572912
 33
0
  0
MTEXT
  5
BB
100
AcDbEntity
  8
cotation
  6
CONTINUOUS
 62
    0
370
   -2
100
AcDbMText
 10
-164.5
 20
1.416813288575434e-06
 30
0
 40
5
 41
6.666666666666666
 71
    5
 72
    1
  1
24
  7
standard
210
0
220
0
230
1
 50
90
 73
    2
 44
1
  0
LINE
  5
BC
100
AcDbEntity
  8
cotation
  6
ByBlock
 62
    0
370
   -2
100
AcDbLine
 10
-131.1250000000006
 20
12.00000132935569
 11
-161.25
 21
12.00000132935569
  0
LINE
  5
BD
100
AcDbEntity
  8
cotation
  6
ByBlock
 62
    0
370
   -2
100
AcDbLine
 10
-150.1249999999995
 20
-11.99999849572912
 11
-161.25
 21
-11.99999849572912
  0
ENDBLK
  5
6B
330
69
100
AcDbEntity
  8
0
100
AcDbBlockEnd
  0
BLOCK
  5
6D
330
6C
100
AcDbEntity
  8
0
100
AcDbBlockBegin
  2
*D16
 70
    1
 10
0
 20
0
  3
*D16
  1

  0
LINE
  5
BE
100
AcDbEntity
  8
cotation
  6
ByBlock
 62
    0
370
   -2
100
AcDbLine
 10
90
 20
9.000000000000185
 11
90
 21
-9.000000000000187
  0
SOLID
  5
BF
100
AcDbEntity
  8
cotation
  6
ByBlock
 62
    0
370
   -2
100
AcDbTrace
 10
90
 20
9.000000000000185
 30
0
 11
90.83256931554568
 21
4.000000000000185
 31
0
 12
89.16743068445432
 22
4.000000000000185
 32
0
 13
89.16743068445432
 23
4.000000000000185
 33
0
  0
SOLID
  5
C0
100
AcDbEntity
  8
cotation
  6
ByBlock
 62
    0
370
   -2
100
AcDbTrace
 10
90
 20
-9.000000000000187
 30
0
 11
89.16743068445432
 21
-4.000000000000187
 31
0
 12
90.83256931554568
 22
-4.000000000000187
 32
0
 13
90.83256931554568
 23
-4.000000000000187
 33
0
  0
MTEXT
  5
C1
100
AcDbEntity
  8
cotation
  6
CONTINUOUS
 62
    0
370
   -2
100
AcDbMText
 10
85.5
 20
-3.370873600838163e-16
 30
0
 40
5
 41
5
 71
    5
 72
    1
  1
18
  7
standard
210
0
220
0
230
1
 50
90
 73
    2
 44
1
  0
LINE
  5
C2
100
AcDbEntity
  8
cotation
  6
ByBlock
 62
    0
370
   -2
100
AcDbLine
 10
109.3750027689371
 20
9.000000000000187
 11
88.75
 21
9.000000000000185
  0
LINE
  5
C3
100
AcDbEntity
  8
cotation
  6
ByBlock
 62
    0
370
   -2
100
AcDbLine
 10
109.37500213804
 20
-9.000000000000187
 11
88.75
 21
-9.000000000000187
  0
ENDBLK
  5
6E
330
6C
100
AcDbEntity
  8
0
100
AcDbBlockEnd
  0
BLOCK
  5
70
330
6F
100
AcDbEntity
  8
0
100
AcDbBlockBegin
  2
*D15
 70
    1
 10
0
 20
0
  3
*D15
  1

  0
LINE
  5
C4
100
AcDbEntity
  8
cotation
  6
ByBlock
 62
    0
370
   -2
100
AcDbLine
 10
-149.4999999999995
 20
20
 11
-130.5000000000006
 21
20
  0
SOLID
  5
C5
100
AcDbEntity
  8
cotation
  6
ByBlock
 62
    0
370
   -2
100
AcDbTrace
 10
-149.4999999999995
 20
20
 30
0
 11
-144.4999999999995
 21
20.83256931554568
 31
0
 12
-144.4999999999995
 22
19.16743068445432
 32
0
 13
-144.4999999999995
 23
19.16743068445432
 33
0
  0
SOLID
  5
C6
100
AcDbEntity
  8
cotation
  6
ByBlock
 62
    0
370
   -2
100
AcDbTrace
 10
-130.5000000000006
 20
20
 30
0
 11
-135.5000000000006
 21
19.16743068445432
 31
0
 12
-135.5000000000006
 22
20.83256931554568
 32
0
 13
-135.5000000000006
 23
20.83256931554568
 33
0
  0
MTEXT
  5
C7
100
AcDbEntity
  8
cotation
  6
CONTINUOUS
 62
    0
370
   -2
100
AcDbMText
 10
-140
 20
24.5
 30
0
 40
5
 41
5
 71
    5
 72
    1
  1
19
  7
standard
210
0
220
0
230
1
 50
0
 73
    2
 44
1
  0
LINE
  5
C8
100
AcDbEntity
  8
cotation
  6
ByBlock
 62
    0
370
   -2
100
AcDbLine
 10
-149.4999999999995
 20
12.625
 11
-149.4999999999995
 21
21.25
  0
LINE
  5
C9
100
AcDbEntity
  8
cotation
  6
ByBlock
 62
    0
370
   -2
100
AcDbLine
 10
-130.5000000000006
 20
12.62500132935569
 11
-130.5000000000006
 21
21.25
  0
ENDBLK
  5
71
330
6F
100
AcDbEntity
  8
0
100
AcDbBlockEnd
  0
BLOCK
  5
73
330
72
100
AcDbEntity
  8
0
100
AcDbBlockBegin
  2
*D13
 70
    1
 10
0
 20
0
  3
*D13
  1

  0
LINE
  5
CA
100
AcDbEntity
  8
cotation
  6
ByBlock
 62
    0
370
   -2
100
AcDbLine
 10
-140
 20
30
 11
-97.14999999999998
 21
30
  0
SOLID
  5
CB
100
AcDbEntity
  8
cotation
  6
ByBlock
 62
    0
370
   -2
100
AcDbTrace
 10
-140
 20
30
 30
0
 11
-135
 21
30.83256931554568
 31
0
 12
-135
 22
29.16743068445432
 32
0
 13
-135
 23
29.16743068445432
 33
0
  0
SOLID
  5
CC
100
AcDbEntity
  8
cotation
  6
ByBlock
 62
    0
370
   -2
100
AcDbTrace
 10
-97.14999999999998
 20
30
 30
0
 11
-102.15
 21
29.16743068445432
 31
0
 12
-102.15
 22
30.83256931554568
 32
0
 13
-102.15
 23
30.83256931554568
 33
0
  0
MTEXT
  5
CD
100
AcDbEntity
  8
cotation
  6
CONTINUOUS
 62
    0
370
   -2
100
AcDbMText
 10
-118.575
 20
34.5
 30
0
 40
5
 41
16.3888888888892
 71
    5
 72
    1
  1
42,85
  7
standard
210
0
220
0
230
1
 50
0
 73
    2
 44
1
  0
LINE
  5
CE
100
AcDbEntity
  8
cotation
  6
ByBlock
 62
    0
370
   -2
100
AcDbLine
 10
-140
 20
0.625
 11
-140
 21
31.25
  0
LINE
  5
CF
100
AcDbEntity
  8
cotation
  6
ByBlock
 62
    0
370
   -2
100
AcDbLine
 10
-97.14999999999998
 20
0.6249999999999929
 11
-97.14999999999998
 21
31.25
  0
ENDBLK
  5
74
330
72
100
AcDbEntity
  8
0
100
AcDbBlockEnd
  0
BLOCK
  5
76
330
75
100
AcDbEntity
  8
0
100
AcDbBlockBegin
  2
*D4
 70
    1
 10
0
 20
0
  3
*D4
  1

  0
LINE
  5
D0
100
AcDbEntity
  8
cotation
  6
ByBlock
 62
    0
370
   -2
100
AcDbLine
 10
185
 20
-80
 11
159.9200000000009
 21
-80
  0
SOLID
  5
D1
100
AcDbEntity
  8
cotation
  6
ByBlock
 62
    0
370
   -2
100
AcDbTrace
 10
175
 20
-80
 30
0
 11
180
 21
-79.16743068445432
 31
0
 12
180
 22
-80.83256931554568
 32
0
 13
180
 23
-80.83256931554568
 33
0
  0
SOLID
  5
D2
100
AcDbEntity
  8
cotation
  6
ByBlock
 62
    0
370
   -2
100
AcDbTrace
 10
169.9200000000009
 20
-80
 30
0
 11
164.9200000000009
 21
-80.83256931554568
 31
0
 12
164.9200000000009
 22
-79.16743068445432
 32
0
 13
164.9200000000009
 23
-79.16743068445432
 33
0
  0
MTEXT
  5
D3
100
AcDbEntity
  8
cotation
  6
CONTINUOUS
 62
    0
370
   -2
100
AcDbMText
 10
182.9722222222224
 20
-75.5
 30
0
 40
5
 41
11.94444444444476
 71
    5
 72
    1
  1
5,08
  7
standard
210
0
220
0
230
1
 50
360
 73
    2
 44
1
  0
LINE
  5
D4
100
AcDbEntity
  8
cotation
  6
ByBlock
 62
    0
370
   -2
100
AcDbLine
 10
175
 20
-66.72499999999998
 11
175
 21
-81.25
  0
LINE
  5
D5
100
AcDbEntity
  8
cotation
  6
ByBlock
 62
    0
370
   -2
100
AcDbLine
 10
169.9200000000009
 20
-66.72499999999998
 11
169.9200000000009
 21
-81.25
  0
ENDBLK
  5
77
330
75
100
AcDbEntity
  8
0
100
AcDbBlockEnd
  0
BLOCK
  5
79
330
78
100
AcDbEntity
  8
0
100
AcDbBlockBegin
  2
*D9
 70
    1
 10
0
 20
0
  3
*D9
  1

  0
LINE
  5
D6
100
AcDbEntity
  8
cotation
  6
ByBlock
 62
    0
370
   -2
100
AcDbLine
 10
-152.4999999999997
 20
-30
 11
-127.5000000000003
 21
-30
  0
SOLID
  5
D7
100
AcDbEntity
  8
cotation
  6
ByBlock
 62
    0
370
   -2
100
AcDbTrace
 10
-152.4999999999997
 20
-30
 30
0
 11
-147.4999999999997
 21
-29.16743068445432
 31
0
 12
-147.4999999999997
 22
-30.83256931554568
 32
0
 13
-147.4999999999997
 23
-30.83256931554568
 33
0
  0
SOLID
  5
D8
100
AcDbEntity
  8
cotation
  6
ByBlock
 62
    0
370
   -2
100
AcDbTrace
 10
-127.5000000000003
 20
-30
 30
0
 11
-132.5000000000003
 21
-30.83256931554568
 31
0
 12
-132.5000000000003
 22
-29.16743068445432
 32
0
 13
-132.5000000000003
 23
-29.16743068445432
 33
0
  0
MTEXT
  5
D9
100
AcDbEntity
  8
cotation
  6
CONTINUOUS
 62
    0
370
   -2
100
AcDbMText
 10
-140
 20
-25.5
 30
0
 40
5
 41
6.111111111111422
 71
    5
 72
    1
  1
25
  7
standard
210
0
220
0
230
1
 50
0
 73
    2
 44
1
  0
LINE
  5
DA
100
AcDbEntity
  8
cotation
  6
ByBlock
 62
    0
370
   -2
100
AcDbLine
 10
-152.4999999999997
 20
-0.625
 11
-152.4999999999997
 21
-31.25
  0
LINE
  5
DB
100
AcDbEntity
  8
cotation
  6
ByBlock
 62
    0
370
   -2
100
AcDbLine
 10
-127.5000000000003
 20
-0.625
 11
-127.5000000000003
 21
-31.25
  0
ENDBLK
  5
7A
330
78
100
AcDbEntity
  8
0
100
AcDbBlockEnd
  0
BLOCK
  5
7C
330
7B
100
AcDbEntity
  8
0
100
AcDbBlockBegin
  2
*D12
 70
    1
 10
0
 20
0
  3
*D12
  1

  0
LINE
  5
DC
100
AcDbEntity
  8
cotation
  6
ByBlock
 62
    0
370
   -2
100
AcDbLine
 10
-174.3
 20
30
 11
-140
 21
30
  0
SOLID
  5
DD
100
AcDbEntity
  8
cotation
  6
ByBlock
 62
    0
370
   -2
100
AcDbTrace
 10
-174.3
 20
30
 30
0
 11
-169.3
 21
30.83256931554568
 31
0
 12
-169.3
 22
29.16743068445432
 32
0
 13
-169.3
 23
29.16743068445432
 33
0
  0
SOLID
  5
DE
100
AcDbEntity
  8
cotation
  6
ByBlock
 62
    0
370
   -2
100
AcDbTrace
 10
-140
 20
30
 30
0
 11
-145
 21
29.16743068445432
 31
0
 12
-145
 22
30.83256931554568
 32
0
 13
-145
 23
30.83256931554568
 33
0
  0
MTEXT
  5
DF
100
AcDbEntity
  8
cotation
  6
CONTINUOUS
 62
    0
370
   -2
100
AcDbMText
 10
-157.15
 20
34.5
 30
0
 40
5
 41
12.50000000000062
 71
    5
 72
    1
  1
34,3
  7
standard
210
0
220
0
230
1
 50
0
 73
    2
 44
1
  0
LINE
  5
E0
100
AcDbEntity
  8
cotation
  6
ByBlock
 62
    0
370
   -2
100
AcDbLine
 10
-174.3
 20
0.625
 11
-174.3
 21
31.25
  0
LINE
  5
E1
100
AcDbEntity
  8
cotation
  6
ByBlock
 62
    0
370
   -2
100
AcDbLine
 10
-140
 20
0.625
 11
-140
 21
31.25
  0
ENDBLK
  5
7D
330
7B
100
AcDbEntity
  8
0
100
AcDbBlockEnd
  0
BLOCK
  5
7F
330
7E
100
AcDbEntity
  8
0
100
AcDbBlockBegin
  2
*D7
 70
    1
 10
0
 20
0
  3
*D7
  1

  0
LINE
  5
E2
100
AcDbEntity
  8
cotation
  6
ByBlock
 62
    0
370
   -2
100
AcDbLine
 10
175
 20
90
 11
-174.3
 21
90
  0
SOLID
  5
E3
100
AcDbEntity
  8
cotation
  6
ByBlock
 62
    0
370
   -2
100
AcDbTrace
 10
175
 20
90
 30
0
 11
170
 21
89.16743068445432
 31
0
 12
170
 22
90.83256931554568
 32
0
 13
170
 23
90.83256931554568
 33
0
  0
SOLID
  5
E4
100
AcDbEntity
  8
cotation
  6
ByBlock
 62
    0
370
   -2
100
AcDbTrace
 10
-174.3
 20
90
 30
0
 11
-169.3
 21
90.83256931554568
 31
0
 12
-169.3
 22
89.16743068445432
 32
0
 13
-169.3
 23
89.16743068445432
 33
0
  0
MTEXT
  5
E5
100
AcDbEntity
  8
cotation
  6
CONTINUOUS
 62
    0
370
   -2
100
AcDbMText
 10
0.3499999999999946
 20
94.5
 30
0
 40
5
 41
16.38888888888951
 71
    5
 72
    1
  1
349,3
  7
standard
210
0
220
0
230
1
 50
360
 73
    2
 44
1
  0
LINE
  5
E6
100
AcDbEntity
  8
cotation
  6
ByBlock
 62
    0
370
   -2
100
AcDbLine
 10
175
 20
51.625
 11
175
 21
91.25
  0
LINE
  5
E7
100
AcDbEntity
  8
cotation
  6
ByBlock
 62
    0
370
   -2
100
AcDbLine
 10
-174.3
 20
50.425
 11
-174.3
 21
91.25
  0
ENDBLK
  5
80
330
7E
100
AcDbEntity
  8
0
100
AcDbBlockEnd
  0
BLOCK
  5
82
330
81
100
AcDbEntity
  8
0
100
AcDbBlockBegin
  2
*D1
 70
    1
 10
0
 20
0
  3
*D1
  1

  0
LINE
  5
E8
100
AcDbEntity
  8
cotation
  6
ByBlock
 62
    0
370
   -2
100
AcDbLine
 10
221.3741681595091
 20
66.10000000000001
 11
221.3741681595091
 21
-66.09999999999998
  0
SOLID
  5
E9
100
AcDbEntity
  8
cotation
  6
ByBlock
 62
    0
370
   -2
100
AcDbTrace
 10
221.3741681595091
 20
66.10000000000001
 30
0
 11
222.2067374750548
 21
61.10000000000001
 31
0
 12
220.5415988439634
 22
61.10000000000001
 32
0
 13
220.5415988439634
 23
61.10000000000001
 33
0
  0
SOLID
  5
EA
100
AcDbEntity
  8
cotation
  6
ByBlock
 62
    0
370
   -2
100
AcDbTrace
 10
221.3741681595091
 20
-66.09999999999998
 30
0
 11
220.5415988439634
 21
-61.09999999999998
 31
0
 12
222.2067374750548
 22
-61.09999999999998
 32
0
 13
222.2067374750548
 23
-61.09999999999998
 33
0
  0
MTEXT
  5
EB
100
AcDbEntity
  8
cotation
  6
CONTINUOUS
 62
    0
370
   -2
100
AcDbMText
 10
216.8741681595091
 20
1.476194577481831e-14
 30
0
 40
5
 41
14.72222222222253
 71
    5
 72
    1
  1
132,2
  7
standard
210
0
220
0
230
1
 50
90
 73
    2
 44
1
  0
LINE
  5
EC
100
AcDbEntity
  8
cotation
  6
ByBlock
 62
    0
370
   -2
100
AcDbLine
 10
175.625
 20
66.09999999999999
 11
222.6241681595091
 21
66.10000000000001
  0
LINE
  5
ED
100
AcDbEntity
  8
cotation
  6
ByBlock
 62
    0
370
   -2
100
AcDbLine
 10
175.625
 20
-66.09999999999998
 11
222.6241681595091
 21
-66.09999999999998
  0
ENDBLK
  5
83
330
81
100
AcDbEntity
  8
0
100
AcDbBlockEnd
  0
BLOCK
  5
85
330
84
100
AcDbEntity
  8
0
100
AcDbBlockBegin
  2
*D19
 70
    1
 10
0
 20
0
  3
*D19
  1

  0
LINE
  5
EE
100
AcDbEntity
  8
cotation
  6
ByBlock
 62
    0
370
   -2
100
AcDbLine
 10
150
 20
-32.49999965126923
 11
110.0000035926082
 21
-32.49999965126923
  0
SOLID
  5
EF
100
AcDbEntity
  8
cotation
  6
ByBlock
 62
    0
370
   -2
100
AcDbTrace
 10
150
 20
-32.49999965126923
 30
0
 11
145
 21
-33.33256896681492
 31
0
 12
145
 22
-31.66743033572356
 32
0
 13
145
 23
-31.66743033572356
 33
0
  0
SOLID
  5
F0
100
AcDbEntity
  8
cotation
  6
ByBlock
 62
    0
370
   -2
100
AcDbTrace
 10
110.0000035926082
 20
-32.49999965126923
 30
0
 11
115.0000035926082
 21
-31.66743033572356
 31
0
 12
115.0000035926082
 22
-33.33256896681492
 32
0
 13
115.0000035926082
 23
-33.33256896681492
 33
0
  0
MTEXT
  5
F1
100
AcDbEntity
  8
cotation
  6
CONTINUOUS
 62
    0
370
   -2
100
AcDbMText
 10
130.0000017963041
 20
-27.99999965126923
 30
0
 40
5
 41
6.666666666666667
 71
    5
 72
    1
  1
40
  7
standard
210
0
220
0
230
1
 50
360
 73
    2
 44
1
  0
LINE
  5
F2
100
AcDbEntity
  8
cotation
  6
ByBlock
 62
    0
370
   -2
100
AcDbLine
 10
150
 20
-0.625
 11
150
 21
-33.74999965126923
  0
LINE
  5
F3
100
AcDbEntity
  8
cotation
  6
ByBlock
 62
    0
370
   -2
100
AcDbLine
 10
110.0000035926082
 20
-0.6249999999999858
 11
110.0000035926082
 21
-33.74999965126923
  0
ENDBLK
  5
86
330
84
100
AcDbEntity
  8
0
100
AcDbBlockEnd
  0
BLOCK
  5
88
330
87
100
AcDbEntity
  8
0
100
AcDbBlockBegin
  2
*D11
 70
    1
 10
0
 20
0
  3
*D11
  1

  0
LINE
  5
F4
100
AcDbEntity
  8
cotation
  6
ByBlock
 62
    0
370
   -2
100
AcDbLine
 10
-149.4999999999995
 20
20
 11
-130.5000000000006
 21
20
  0
SOLID
  5
F5
100
AcDbEntity
  8
cotation
  6
ByBlock
 62
    0
370
   -2
100
AcDbTrace
 10
-149.4999999999995
 20
20
 30
0
 11
-144.4999999999995
 21
20.83256931554568
 31
0
 12
-144.4999999999995
 22
19.16743068445432
 32
0
 13
-144.4999999999995
 23
19.16743068445432
 33
0
  0
SOLID
  5
F6
100
AcDbEntity
  8
cotation
  6
ByBlock
 62
    0
370
   -2
100
AcDbTrace
 10
-130.5000000000006
 20
20
 30
0
 11
-135.5000000000006
 21
19.16743068445432
 31
0
 12
-135.5000000000006
 22
20.83256931554568
 32
0
 13
-135.5000000000006
 23
20.83256931554568
 33
0
  0
MTEXT
  5
F7
100
AcDbEntity
  8
cotation
  6
CONTINUOUS
 62
    0
370
   -2
100
AcDbMText
 10
-140
 20
24.5
 30
0
 40
5
 41
5
 71
    5
 72
    1
  1
19
  7
standard
210
0
220
0
230
1
 50
0
 73
    2
 44
1
  0
LINE
  5
F8
100
AcDbEntity
  8
cotation
  6
ByBlock
 62
    0
370
   -2
100
AcDbLine
 10
-149.4999999999995
 20
12.625
 11
-149.4999999999995
 21
21.25
  0
LINE
  5
F9
100
AcDbEntity
  8
cotation
  6
ByBlock
 62
    0
370
   -2
100
AcDbLine
 10
-130.5000000000006
 20
12.62500132935569
 11
-130.5000000000006
 21
21.25
  0
ENDBLK
  5
89
330
87
100
AcDbEntity
  8
0
100
AcDbBlockEnd
  0
BLOCK
  5
8B
330
8A
100
AcDbEntity
  8
0
100
AcDbBlockBegin
  2
*D3
 70
    1
 10
0
 20
0
  3
*D3
  1

  0
LINE
  5
FA
100
AcDbEntity
  8
construction
  6
ByBlock
 62
    0
370
   -2
100
AcDbLine
 10
190
 20
0
 11
190
 21
-50.84885482000276
  0
SOLID
  5
FB
100
AcDbEntity
  8
construction
  6
ByBlock
 62
    0
370
   -2
100
AcDbTrace
 10
190
 20
0
 30
0
 11
190.8325693155457
 21
-5
 31
0
 12
189.1674306844543
 22
-5
 32
0
 13
189.1674306844543
 23
-5
 33
0
  0
SOLID
  5
FC
100
AcDbEntity
  8
construction
  6
ByBlock
 62
    0
370
   -2
100
AcDbTrace
 10
190
 20
-50.84885482000276
 30
0
 11
189.1674306844543
 21
-45.84885482000276
 31
0
 12
190.8325693155457
 22
-45.84885482000276
 32
0
 13
190.8325693155457
 23
-45.84885482000276
 33
0
  0
MTEXT
  5
FD
100
AcDbEntity
  8
construction
  6
CONTINUOUS
 62
    0
370
   -2
100
AcDbMText
 10
185.5
 20
-25.42442741000138
 30
0
 40
5
 41
15.83333333333395
 71
    5
 72
    1
  1
50,85
  7
standard
210
0
220
0
230
1
 50
90
 73
    2
 44
1
  0
LINE
  5
FE
100
AcDbEntity
  8
construction
  6
ByBlock
 62
    0
370
   -2
100
AcDbLine
 10
171.1619127516778
 20
0
 11
191.25
 21
0
  0
LINE
  5
FF
100
AcDbEntity
  8
construction
  6
ByBlock
 62
    0
370
   -2
100
AcDbLine
 10
170.8206452696644
 20
-50.84885482000276
 11
191.25
 21
-50.84885482000276
  0
ENDBLK
  5
8C
330
8A
100
AcDbEntity
  8
0
100
AcDbBlockEnd
  0
BLOCK
  5
8E
330
8D
100
AcDbEntity
  8
0
100
AcDbBlockBegin
  2
*D18
 70
    1
 10
0
 20
0
  3
*D18
  1

  0
LINE
  5
100
100
AcDbEntity
  8
cotation
  6
ByBlock
 62
    0
370
   -2
100
AcDbLine
 10
175
 20
1.4210854715202e-14
 11
150
 21
1.4210854715202e-14
  0
SOLID
  5
101
100
AcDbEntity
  8
cotation
  6
ByBlock
 62
    0
370
   -2
100
AcDbTrace
 10
175
 20
1.4210854715202e-14
 30
0
 11
170
 21
-0.8325693155456666
 31
0
 12
170
 22
0.832569315545695
 32
0
 13
170
 23
0.832569315545695
 33
0
  0
SOLID
  5
102
100
AcDbEntity
  8
cotation
  6
ByBlock
 62
    0
370
   -2
100
AcDbTrace
 10
150
 20
1.4210854715202e-14
 30
0
 11
155
 21
0.8325693155456947
 31
0
 12
155
 22
-0.8325693155456674
 32
0
 13
155
 23
-0.8325693155456674
 33
0
  0
MTEXT
  5
103
100
AcDbEntity
  8
cotation
  6
CONTINUOUS
 62
    0
370
   -2
100
AcDbMText
 10
162.5
 20
4.500000000000014
 30
0
 40
5
 41
6.111111111111422
 71
    5
 72
    1
  1
25
  7
standard
210
0
220
0
230
1
 50
360
 73
    2
 44
1
  0
LINE
  5
104
100
AcDbEntity
  8
cotation
  6
ByBlock
 62
    0
370
   -2
100
AcDbLine
 10
175
 20
0.625
 11
175
 21
1.250000000000014
  0
LINE
  5
105
100
AcDbEntity
  8
cotation
  6
ByBlock
 62
    0
370
   -2
100
AcDbLine
 10
150
 20
0.625
 11
150
 21
1.250000000000014
  0
ENDBLK
  5
8F
330
8D
100
AcDbEntity
  8
0
100
AcDbBlockEnd
  0
ENDSEC
  0
SECTION
  2
ENTITIES
  0
IMAGE
  5
108
100
AcDbEntity
  8
logo
  6
ByLayer
 62
  256
370
   -1
100
AcDbRasterImage
 10
-47.125
 20
-30.625
 30
0
 11
0.140625
 21
0
 31
0
 12
8.610797806504827e-18
 22
0.140625
 32
0
 13
660
 23
411
340
106
 70
    1
280
    0
281
   50
282
   50
283
    0
360
107
  0
CIRCLE
  5
109
100
AcDbEntity
  8
0
  6
ByLayer
 62
  256
370
   -1
100
AcDbCircle
 10
0
 20
0
 40
1
  0
LINE
  5
10A
100
AcDbEntity
  8
axe
  6
ByLayer
 62
  256
370
   -1
100
AcDbLine
 10
0
 20
200
 11
0
 21
-210
  0
LINE
  5
10B
100
AcDbEntity
  8
axe
  6
ByLayer
 62
  256
370
   -1
100
AcDbLine
 10
-250
 20
0
 11
240
 21
0
  0
LWPOLYLINE
  5
10C
100
AcDbEntity
  8
construction
  6
ByLayer
 62
  256
370
   -1
100
AcDbPolyline
 90
    4
 70
    1
 43
0
 10
-175
 20
-1.4210854715202e-14
 10
0
 20
-1.4210854715202e-14
 10
0
 20
66.09999999999999
 10
-175
 20
66.09999999999999
  0
LWPOLYLINE
  5
10D
100
AcDbEntity
  8
construction
  6
ByLayer
 62
  256
370
   -1
100
AcDbPolyline
 90
    4
 70
    1
 43
0
 10
175
 20
1.4210854715202e-14
 10
-8.543934555405031e-07
 20
1.4210854715202e-14
 10
-8.543934555405031e-07
 20
66.09999999999999
 10
175
 20
66.09999999999999
  0
LWPOLYLINE
  5
10E
100
AcDbEntity
  8
construction
  6
ByLayer
 62
  256
370
   -1
100
AcDbPolyline
 90
    4
 70
    1
 43
0
 10
-7.105427357601002e-15
 20
-66.09999999999998
 10
-175
 20
-66.09999999999998
 10
-175
 20
1.504271082808373e-06
 10
-7.105427357601002e-15
 20
1.504271082808373e-06
  0
LWPOLYLINE
  5
10F
100
AcDbEntity
  8
construction
  6
ByLayer
 62
  256
370
   -1
100
AcDbPolyline
 90
    4
 70
    1
 43
0
 10
-1.459546851378946e-06
 20
-66.09999999999998
 10
175
 20
-66.09999999999998
 10
175
 20
0
 10
-1.459546851378946e-06
 20
0
  0
DIMENSION
  5
110
100
AcDbEntity
  8
cotation
  6
ByLayer
 62
  256
370
   -1
100
AcDbDimension
  2
*D1
 10
221.3741681595091
 20
-66.09999999999998
 30
0
 11
216.8741681595091
 21
1.476194577481831e-14
 31
0
 70
   32
 71
    5
 72
    0
  3
Standard
 53
0
210
0
220
0
230
1
100
AcDbAlignedDimension
 13
175
 23
66.09999999999999
 33
0
 14
175
 24
-66.09999999999998
 34
0
 50
90
100
AcDbRotatedDimension
  0
LINE
  5
111
100
AcDbEntity
  8
construction
  6
ByLayer
 62
  256
370
   -1
100
AcDbLine
 10
100
 20
60
 11
100
 21
-60
  0
DIMENSION
  5
112
100
AcDbEntity
  8
construction
  6
ByLayer
 62
  256
370
   -1
100
AcDbDimension
  2
*D2
 10
190
 20
1.182731396518366e-14
 30
0
 11
185.5
 21
25.42442741000139
 31
0
 70
   32
 71
    5
 72
    0
  3
Standard
 53
0
210
0
220
0
230
1
100
AcDbAlignedDimension
 13
170.8781802336913
 23
50.84885482000277
 33
0
 14
170.5369127516778
 24
1.4210854715202e-14
 34
0
 50
90
100
AcDbRotatedDimension
  0
DIMENSION
  5
113
100
AcDbEntity
  8
construction
  6
ByLayer
 62
  256
370
   -1
100
AcDbDimension
  2
*D3
 10
190
 20
-50.84885482000276
 30
0
 11
185.5
 21
-25.42442741000138
 31
0
 70
   32
 71
    5
 72
    0
  3
Standard
 53
0
210
0
220
0
230
1
100
AcDbAlignedDimension
 13
170.5369127516778
 23
0
 33
0
 14
170.1956452696644
 24
-50.84885482000276
 34
0
 50
90
100
AcDbRotatedDimension
  0
CIRCLE
  5
114
100
AcDbEntity
  8
construction
  6
ByLayer
 62
  256
370
   -1
100
AcDbCircle
 10
175
 20
-66.09999999999998
 40
5.08
  0
CIRCLE
  5
115
100
AcDbEntity
  8
construction
  6
ByLayer
 62
  256
370
   -1
100
AcDbCircle
 10
175
 20
66.09999999999999
 40
5.08
  0
LINE
  5
116
100
AcDbEntity
  8
axe
  6
ByLayer
 62
  256
370
   -1
100
AcDbLine
 10
169.9199999999979
 20
66.09999999999998
 11
169.9200000000009
 21
-66.09999999999997
  0
CIRCLE
  5
117
100
AcDbEntity
  8
contour
  6
ByLayer
 62
  256
370
   -1
100
AcDbCircle
 10
169.9199999999982
 20
50.84887030133756
 40
2
  0
CIRCLE
  5
118
100
AcDbEntity
  8
contour
  6
ByLayer
 62
  256
370
   -1
100
AcDbCircle
 10
169.9200000000006
 20
-50.84885931691205
 40
2
  0
DIMENSION
  5
119
100
AcDbEntity
  8
cotation
  6
ByLayer
 62
  256
370
   -1
100
AcDbDimension
  2
*D4
 10
169.9200000000009
 20
-80
 30
0
 11
172.4600000000005
 21
-75.5
 31
0
 70
   32
 71
    5
 72
    0
  3
Standard
 53
0
210
0
220
0
230
1
100
AcDbAlignedDimension
 13
175
 23
-66.09999999999998
 33
0
 14
169.9200000000009
 24
-66.09999999999998
 34
0
100
AcDbRotatedDimension
  0
DIMENSION
  5
11A
100
AcDbEntity
  8
cotation
  6
ByLayer
 62
  256
370
   -1
100
AcDbDimension
  2
*D5
 10
200
 20
-50.84885931691206
 30
0
 11
195.5
 21
5.492212747367085e-06
 31
0
 70
   32
 71
    5
 72
    0
  3
Standard
 53
0
210
0
220
0
230
1
100
AcDbAlignedDimension
 13
169.9199999999982
 23
50.84887030133756
 33
0
 14
169.9200000000006
 24
-50.84885931691205
 34
0
 50
90
100
AcDbRotatedDimension
  0
LWPOLYLINE
  5
11B
100
AcDbEntity
  8
construction
  6
ByLayer
 62
  256
370
   -1
100
AcDbPolyline
 90
    4
 70
    1
 43
0
 10
-175
 20
66.09999999999999
 10
175
 20
66.09999999999999
 10
175
 20
-66.09999999999998
 10
-175
 20
-66.09999999999998
  0
LINE
  5
11C
100
AcDbEntity
  8
construction
  6
ByLayer
 62
  256
370
   -1
100
AcDbLine
 10
169.9199999999979
 20
66.09999999999998
 11
175
 21
61.02000000000015
  0
LINE
  5
11D
100
AcDbEntity
  8
construction
  6
ByLayer
 62
  256
370
   -1
100
AcDbLine
 10
175
 20
-61.01999999999853
 11
169.9200000000009
 21
-66.10000359024372
  0
LINE
  5
11E
100
AcDbEntity
  8
construction
  6
ByLayer
 62
  256
370
   -1
100
AcDbLine
 10
-169.9199999999997
 20
-66.09999999999998
 11
-175
 21
-61.02000000000131
  0
LINE
  5
11F
100
AcDbEntity
  8
construction
  6
ByLayer
 62
  256
370
   -1
100
AcDbLine
 10
-175
 20
61.01999999999897
 11
-169.9200000000001
 21
66.10000000000002
  0
LINE
  5
120
100
AcDbEntity
  8
contour
  6
ByLayer
 62
  256
370
   -1
100
AcDbLine
 10
169.9199999999979
 20
66.09999999999998
 11
175
 21
61.02000000000015
  0
LINE
  5
121
100
AcDbEntity
  8
contour
  6
ByLayer
 62
  256
370
   -1
100
AcDbLine
 10
175
 20
61.02000000000015
 11
175
 21
-61.01999999999851
  0
LINE
  5
122
100
AcDbEntity
  8
contour
  6
ByLayer
 62
  256
370
   -1
100
AcDbLine
 10
175
 20
-61.01999999999851
 11
169.9200035902421
 21
-66.09999999999998
  0
LWPOLYLINE
  5
123
100
AcDbEntity
  8
cadre
  6
ByLayer
 62
  256
370
   -1
100
AcDbPolyline
 90
    4
 70
    1
 43
0
 10
-260
 20
110
 10
250
 20
110
 10
250
 20
-100
 10
-260
 20
-100
  0
LINE
  5
124
100
AcDbEntity
  8
contour
  6
ByLayer
 62
  256
370
   -1
100
AcDbLine
 10
-174.3
 20
-61.02000000000128
 11
-174.3
 21
61.01999999999897
  0
LINE
  5
125
100
AcDbEntity
  8
contour
  6
ByLayer
 62
  256
370
   -1
100
AcDbLine
 10
-169.3
 20
-66.09999999999999
 11
-174.3800000000003
 21
-61.0200000000013
  0
LINE
  5
126
100
AcDbEntity
  8
contour
  6
ByLayer
 62
  256
370
   -1
100
AcDbLine
 10
-174.3
 20
61.01999999999897
 11
-169.2200000000001
 21
66.09999999999999
  0
LINE
  5
127
100
AcDbEntity
  8
contour
  6
ByLayer
 62
  256
370
   -1
100
AcDbLine
 10
-169.2
 20
66.09999999999999
 11
169.9199999999979
 21
66.09999999999998
  0
CIRCLE
  5
128
100
AcDbEntity
  8
construction
  6
ByLayer
 62
  256
370
   -1
100
AcDbCircle
 10
-175
 20
-1.4210854715202e-14
 40
5.08
  0
LINE
  5
129
100
AcDbEntity
  8
contour
  6
ByLayer
 62
  256
370
   -1
100
AcDbLine
 10
-169.3
 20
-66.09999999999999
 11
170
 21
-66
  0
CIRCLE
  5
12A
100
AcDbEntity
  8
construction
  6
ByLayer
 62
  256
370
   -1
100
AcDbCircle
 10
-174
 20
0
 40
50.85
  0
LINE
  5
12B
100
AcDbEntity
  8
axe
  6
ByLayer
 62
  256
370
   -1
100
AcDbLine
 10
-174.3
 20
50.84911503654708
 11
175
 21
50.84885482000277
  0
CIRCLE
  5
12C
100
AcDbEntity
  8
construction
  6
ByLayer
 62
  256
370
   -1
100
AcDbCircle
 10
-174.3
 20
50.84911503654708
 40
5.08
  0
LINE
  5
12D
100
AcDbEntity
  8
axe
  6
ByLayer
 62
  256
370
   -1
100
AcDbLine
 10
-174.3
 20
-50.84911503654712
 11
175
 21
-50.84885482000276
  0
CIRCLE
  5
12E
100
AcDbEntity
  8
construction
  6
ByLayer
 62
  256
370
   -1
100
AcDbCircle
 10
-174.3
 20
-50.84911503654712
 40
5.08
  0
LINE
  5
12F
100
AcDbEntity
  8
axe
  6
ByLayer
 62
  256
370
   -1
100
AcDbLine
 10
-169.2200000000013
 20
-50.849111252121
 11
-169.2200000000018
 21
50.84911125212096
  0
CIRCLE
  5
130
100
AcDbEntity
  8
contour
  6
ByLayer
 62
  256
370
   -1
100
AcDbCircle
 10
-169.2200000000018
 20
50.84911785296875
 40
2
  0
CIRCLE
  5
131
100
AcDbEntity
  8
contour
  6
ByLayer
 62
  256
370
   -1
100
AcDbCircle
 10
-169.2200000000013
 20
-50.849111252121
 40
2
  0
DIMENSION
  5
132
100
AcDbEntity
  8
cotation
  6
ByLayer
 62
  256
370
   -1
100
AcDbDimension
  2
*D6
 10
-169.2200000000013
 20
-44
 30
0
 11
-171.7600000000006
 21
-39.5
 31
0
 70
   32
 71
    5
  3
Standard
 53
0
210
0
220
0
230
1
100
AcDbAlignedDimension
 13
-174.3
 23
-50.84911503654712
 33
0
 14
-169.2200000000013
 24
-50.849111252121
 34
0
100
AcDbRotatedDimension
  0
DIMENSION
  5
133
100
AcDbEntity
  8
cotation
  6
ByLayer
 62
  256
370
   -1
100
AcDbDimension
  2
*D7
 10
-174.3
 20
90
 30
0
 11
0.3499999999999946
 21
94.5
 31
0
 70
   32
 71
    5
  3
Standard
 53
0
210
0
220
0
230
1
100
AcDbAlignedDimension
 13
175
 23
51
 33
0
 14
-174.3
 24
49.8
 34
0
100
AcDbRotatedDimension
  0
DIMENSION
  5
134
100
AcDbEntity
  8
cotation
  6
ByLayer
 62
  256
370
   -1
100
AcDbDimension
  2
*D8
 10
-171.0018960756536
 20
49.94090731813863
 30
0
 11
-171.2634737033695
 21
54.85838402318548
 31
0
 70
   35
 71
    5
  3
Standard
 53
0
210
0
220
0
230
1
100
AcDbDiametricDimension
 15
-167.4381039243499
 25
51.75732838779886
 35
0
 40
0
  0
LINE
  5
135
100
AcDbEntity
  8
axe
  6
ByLayer
 62
  256
370
   -1
100
AcDbLine
 10
-140
 20
30
 11
-140
 21
-30
  0
CIRCLE
  5
136
100
AcDbEntity
  8
contour
  6
ByLayer
 62
  256
370
   -1
100
AcDbCircle
 10
-140
 20
0
 40
12.5
  0
DIMENSION
  5
137
100
AcDbEntity
  8
cotation
  6
ByLayer
 62
  256
370
   -1
100
AcDbDimension
  2
*D9
 10
-127.5000000000003
 20
-30
 30
0
 11
-140
 21
-25.5
 31
0
 70
   32
 71
    5
 72
    0
  3
Standard
 53
0
210
0
220
0
230
1
100
AcDbAlignedDimension
 13
-152.4999999999997
 23
0
 33
0
 14
-127.5000000000003
 24
0
 34
0
100
AcDbRotatedDimension
  0
CIRCLE
  5
138
100
AcDbEntity
  8
construction
  6
ByLayer
 62
  256
370
   -1
100
AcDbCircle
 10
-140
 20
1.504271082808373e-06
 40
9.5
  0
CIRCLE
  5
139
100
AcDbEntity
  8
construction
  6
ByLayer
 62
  256
370
   -1
100
AcDbCircle
 10
-140
 20
1.504271082808373e-06
 40
12
  0
LWPOLYLINE
  5
13A
100
AcDbEntity
  8
construction
  6
ByLayer
 62
  256
370
   -1
100
AcDbPolyline
 90
    4
 70
    1
 43
0
 10
-128.0000000000004
 20
0
 10
-140
 20
0
 10
-140
 20
12.00000150427092
 10
-128.0000000000004
 20
12.00000150427092
  0
LWPOLYLINE
  5
13B
100
AcDbEntity
  8
construction
  6
ByLayer
 62
  256
370
   -1
100
AcDbPolyline
 90
    4
 70
    1
 43
0
 10
-140
 20
-12
 10
-151.9999999999996
 20
-12
 10
-151.9999999999996
 20
0
 10
-140
 20
0
  0
LWPOLYLINE
  5
13C
100
AcDbEntity
  8
construction
  6
ByLayer
 62
  256
370
   -1
100
AcDbPolyline
 90
    4
 70
    1
 43
0
 10
-149.4999999999995
 20
-1.4210854715202e-14
 10
-140
 20
-1.4210854715202e-14
 10
-140
 20
-11.99999849572912
 10
-149.4999999999995
 20
-11.99999849572912
  0
CIRCLE
  5
13D
100
AcDbEntity
  8
contour
  6
ByLayer
 62
  256
370
   -1
100
AcDbCircle
 10
-149.4999999999995
 20
-11.99999849572912
 40
1.6
  0
CIRCLE
  5
13E
100
AcDbEntity
  8
contour
  6
ByLayer
 62
  256
370
   -1
100
AcDbCircle
 10
-149.5
 20
-12
 40
1.6
  0
LWPOLYLINE
  5
13F
100
AcDbEntity
  8
construction
  6
ByLayer
 62
  256
370
   -1
100
AcDbPolyline
 90
    4
 70
    1
 43
0
 10
-130.5000000000006
 20
1.504271082808373e-06
 10
-140
 20
1.504271082808373e-06
 10
-140
 20
12
 10
-130.5000000000006
 20
12
  0
CIRCLE
  5
140
100
AcDbEntity
  8
contour
  6
ByLayer
 62
  256
370
   -1
100
AcDbCircle
 10
-130.5000000000006
 20
12
 40
1.6
  0
LWPOLYLINE
  5
141
100
AcDbEntity
  8
construction
  6
ByLayer
 62
  256
370
   -1
100
AcDbPolyline
 90
    4
 70
    1
 43
0
 10
-149.4999999999995
 20
-11.99999849572912
 10
-130.5000000000006
 20
-11.99999849572912
 10
-130.5000000000006
 20
12
 10
-149.4999999999995
 20
12
  0
LINE
  5
142
100
AcDbEntity
  8
axe
  6
ByLayer
 62
  256
370
   -1
100
AcDbLine
 10
-149.4999999999995
 20
12
 11
-128.0000000000004
 21
12.00000150427092
  0
LINE
  5
143
100
AcDbEntity
  8
axe
  6
ByLayer
 62
  256
370
   -1
100
AcDbLine
 10
-130.5000000000006
 20
-11.99999849572912
 11
-149.4999999999995
 21
-11.99999849572912
  0
LINE
  5
144
100
AcDbEntity
  8
axe
  6
ByLayer
 62
  256
370
   -1
100
AcDbLine
 10
-149.4999999999995
 20
-11.99999849572912
 11
-149.4999999999995
 21
12
  0
LINE
  5
145
100
AcDbEntity
  8
axe
  6
ByLayer
 62
  256
370
   -1
100
AcDbLine
 10
-130.5000000000006
 20
12
 11
-130.5000000000006
 21
-11.99999849572912
  0
DIMENSION
  5
146
100
AcDbEntity
  8
cotation
  6
ByLayer
 62
  256
370
   -1
100
AcDbDimension
  2
*D10
 10
-160
 20
-11.99999849572911
 30
0
 11
-164.5
 21
1.416813288575434e-06
 31
0
 70
   32
 71
    5
 72
    0
  3
Standard
 53
0
210
0
220
0
230
1
100
AcDbAlignedDimension
 13
-130.5000000000006
 23
12.00000132935569
 33
0
 14
-149.4999999999995
 24
-11.99999849572912
 34
0
 50
90
100
AcDbRotatedDimension
  0
DIMENSION
  5
147
100
AcDbEntity
  8
cotation
  6
ByLayer
 62
  256
370
   -1
100
AcDbDimension
  2
*D11
 10
-130.5000000000006
 20
20
 30
0
 11
-140
 21
24.5
 31
0
 70
   32
 71
    5
 72
    0
  3
Standard
 53
0
210
0
220
0
230
1
100
AcDbAlignedDimension
 13
-149.4999999999995
 23
12
 33
0
 14
-130.5000000000006
 24
12.00000132935569
 34
0
100
AcDbRotatedDimension
  0
CIRCLE
  5
148
100
AcDbEntity
  8
construction
  6
ByLayer
 62
  256
370
   -1
100
AcDbCircle
 10
-123.1499999999999
 20
-7.105427357601002e-15
 40
26
  0
CIRCLE
  5
149
100
AcDbEntity
  8
construction
  6
ByLayer
 62
  256
370
   -1
100
AcDbCircle
 10
-97.14999999999991
 20
0
 40
26
  0
CIRCLE
  5
14A
100
AcDbEntity
  8
contour
  6
ByLayer
 62
  256
370
   -1
100
AcDbCircle
 10
-97.14999999999991
 20
0
 40
6.5
  0
CIRCLE
  5
14B
100
AcDbEntity
  8
contour
  6
ByLayer
 62
  256
370
   -1
100
AcDbCircle
 10
-71.14999999999986
 20
-7.105427357601002e-15
 40
6.5
  0
DIMENSION
  5
14C
100
AcDbEntity
  8
cotation
  6
ByLayer
 62
  256
370
   -1
100
AcDbDimension
  2
*D12
 10
-140
 20
30
 30
0
 11
-157.15
 21
34.5
 31
0
 70
   32
 71
    5
 72
    0
  3
Standard
 53
0
210
0
220
0
230
1
100
AcDbAlignedDimension
 13
-174.3
 23
0
 33
0
 14
-140
 24
0
 34
0
100
AcDbRotatedDimension
  0
DIMENSION
  5
14D
100
AcDbEntity
  8
cotation
  6
ByLayer
 62
  256
370
   -1
100
AcDbDimension
  2
*D13
 10
-97.14999999999998
 20
30
 30
0
 11
-118.575
 21
34.5
 31
0
 70
   32
 71
    5
 72
    0
  3
Standard
 53
0
210
0
220
0
230
1
100
AcDbAlignedDimension
 13
-140
 23
0
 33
0
 14
-97.14999999999998
 24
-7.105427357601002e-15
 34
0
100
AcDbRotatedDimension
  0
DIMENSION
  5
14E
100
AcDbEntity
  8
cotation
  6
ByLayer
 62
  256
370
   -1
100
AcDbDimension
  2
*D14
 10
-71.14999999999992
 20
30
 30
0
 11
-84.14999999999995
 21
34.5
 31
0
 70
   32
 71
    5
 72
    0
  3
Standard
 53
0
210
0
220
0
230
1
100
AcDbAlignedDimension
 13
-97.14999999999998
 23
-7.105427357601002e-15
 33
0
 14
-71.14999999999992
 24
-1.4210854715202e-14
 34
0
100
AcDbRotatedDimension
  0
DIMENSION
  5
14F
100
AcDbEntity
  8
cotation
  6
ByLayer
 62
  256
370
   -1
100
AcDbDimension
  2
*D15
 10
-130.5000000000006
 20
20
 30
0
 11
-140
 21
24.5
 31
0
 70
   32
 71
    5
 72
    0
  3
Standard
 53
0
210
0
220
0
230
1
100
AcDbAlignedDimension
 13
-149.4999999999995
 23
12
 33
0
 14
-130.5000000000006
 24
12.00000132935569
 34
0
100
AcDbRotatedDimension
  0
MTEXT
  5
150
100
AcDbEntity
  8
marquage
  6
ByLayer
 62
  256
370
   -1
100
AcDbMText
 10
-91
 20
-10
 30
0
 40
5
 41
15.00000000000031
 71
    1
 72
    1
  1
230V
  7
standard
210
0
220
0
230
1
 50
0
 73
    2
 44
1
  0
LWPOLYLINE
  5
151
100
AcDbEntity
  8
construction
  6
ByLayer
 62
  256
370
   -1
100
AcDbPolyline
 90
    4
 70
    1
 43
0
 10
-115
 20
17
 10
-52
 20
17
 10
-52
 20
-19
 10
-115
 20
-19
  0
LWPOLYLINE
  5
152
100
AcDbEntity
  8
construction
  6
ByLayer
 62
  256
370
   -1
100
AcDbPolyline
 90
    4
 70
    1
 43
0
 10
-52
 20
17
 10
-55
 20
17
 10
-55
 20
14
 10
-52
 20
14
  0
LWPOLYLINE
  5
153
100
AcDbEntity
  8
construction
  6
ByLayer
 62
  256
370
   -1
100
AcDbPolyline
 90
    4
 70
    1
 43
0
 10
-115
 20
17
 10
-112
 20
17
 10
-112
 20
14
 10
-115
 20
14
  0
LWPOLYLINE
  5
154
100
AcDbEntity
  8
construction
  6
ByLayer
 62
  256
370
   -1
100
AcDbPolyline
 90
    4
 70
    1
 43
0
 10
-52
 20
-19
 10
-55
 20
-19
 10
-55
 20
-16
 10
-52
 20
-16
  0
LWPOLYLINE
  5
155
100
AcDbEntity
  8
construction
  6
ByLayer
 62
  256
370
   -1
100
AcDbPolyline
 90
    4
 70
    1
 43
0
 10
-115
 20
-18.90443069759036
 10
-112
 20
-18.90443069759036
 10
-112
 20
-16
 10
-115
 20
-16
  0
ARC
  5
156
100
AcDbEntity
  8
contour
  6
ByLayer
 62
  256
370
   -1
100
AcDbCircle
 10
-55
 20
-16
 40
3
100
AcDbArc
 50
270
 51
0
  0
ARC
  5
157
100
AcDbEntity
  8
contour
  6
ByLayer
 62
  256
370
   -1
100
AcDbCircle
 10
-112
 20
-16
 40
3
100
AcDbArc
 50
180
 51
270
  0
CIRCLE
  5
158
100
AcDbEntity
  8
construction
  6
ByLayer
 62
  256
370
   -1
100
AcDbCircle
 10
-97.14999999999998
 20
-7.105427357601002e-15
 40
8.5
  0
CIRCLE
  5
159
100
AcDbEntity
  8
construction
  6
ByLayer
 62
  256
370
   -1
100
AcDbCircle
 10
-71
 20
0
 40
8.5
  0
LINE
  5
15A
100
AcDbEntity
  8
contour
  6
ByLayer
 62
  256
370
   -1
100
AcDbLine
 10
-55
 20
-19
 11
-112
 21
-19
  0
MTEXT
  5
15B
100
AcDbEntity
  8
marquage
  6
ByLayer
 62
  256
370
   -1
100
AcDbMText
 10
-107
 20
15
 30
0
 40
5
 41
18.33333333333364
 71
    1
 72
    1
  1
Direct
  7
standard
210
0
220
0
230
1
 50
0
 73
    2
 44
1
  0
MTEXT
  5
15C
100
AcDbEntity
  8
marquage
  6
ByLayer
 62
  256
370
   -1
100
AcDbMText
 10
-84
 20
15
 30
0
 40
5
 41
24.99999893998925
 71
    1
 72
    1
  1
Secouru
  7
standard
210
0
220
0
230
1
 50
0
 73
    2
 44
1
  0
ARC
  5
15D
100
AcDbEntity
  8
contour
  6
ByLayer
 62
  256
370
   -1
100
AcDbCircle
 10
-112
 20
17
 40
3
100
AcDbArc
 50
90
 51
180
  0
ARC
  5
15E
100
AcDbEntity
  8
contour
  6
ByLayer
 62
  256
370
   -1
100
AcDbCircle
 10
-55
 20
17
 40
3
100
AcDbArc
 50
0
 51
90
  0
LINE
  5
15F
100
AcDbEntity
  8
contour
  6
ByLayer
 62
  256
370
   -1
100
AcDbLine
 10
-112.0000009205295
 20
20
 11
-55
 21
20
  0
LINE
  5
160
100
AcDbEntity
  8
contour
  6
ByLayer
 62
  256
370
   -1
100
AcDbLine
 10
-115
 20
17
 11
-115
 21
-16
  0
LINE
  5
161
100
AcDbEntity
  8
contour
  6
ByLayer
 62
  256
370
   -1
100
AcDbLine
 10
-52
 20
-16
 11
-52
 21
17
  0
LINE
  5
162
100
AcDbEntity
  8
axe
  6
ByLayer
 62
  256
370
   -1
100
AcDbLine
 10
110.0000047317279
 20
64.99999999999986
 11
110
 21
-70
  0
DIMENSION
  5
163
100
AcDbEntity
  8
cotation
  6
ByLayer
 62
  256
370
   -1
100
AcDbDimension
  2
*D16
 10
90
 20
-9.000000000000185
 30
0
 11
85.5
 21
-3.370873600838163e-16
 31
0
 70
   32
 71
    5
  3
Standard
 53
0
210
0
220
0
230
1
100
AcDbAlignedDimension
 13
110.0000027689371
 23
9.000000000000187
 33
0
 14
110.00000213804
 24
-9.000000000000187
 34
0
 50
90
100
AcDbRotatedDimension
  0
LINE
  5
164
100
AcDbEntity
  8
contour
  6
ByLayer
 62
  256
370
   -1
100
AcDbLine
 10
118.0000024534886
 20
4.123105625617889
 11
118.0000024534886
 21
-4.123105625617875
  0
ARC
  5
165
100
AcDbEntity
  8
contour
  6
ByLayer
 62
  256
370
   -1
100
AcDbCircle
 10
110.0000027689371
 20
1.4210854715202e-14
 40
8.999999719601224
100
AcDbArc
 50
27.26604537073629
 51
332.7339546292603
  0
DIMENSION
  5
166
100
AcDbEntity
  8
cotation
  6
ByLayer
 62
  256
370
   -1
100
AcDbDimension
  2
*D17
 10
118.0000024534886
 20
12
 30
0
 11
109.5000027514122
 21
16.5
 31
0
 70
   32
 71
    5
  3
Standard
 53
0
210
0
220
0
230
1
100
AcDbAlignedDimension
 13
101.0000030493358
 23
0
 33
0
 14
118.0000024534886
 24
0
 34
0
100
AcDbRotatedDimension
  0
LINE
  5
167
100
AcDbEntity
  8
axe
  6
ByLayer
 62
  256
370
   -1
100
AcDbLine
 10
150
 20
32.49999999999993
 11
150
 21
-32.49999999999996
  0
CIRCLE
  5
168
100
AcDbEntity
  8
contour
  6
ByLayer
 62
  256
370
   -1
100
AcDbCircle
 10
150
 20
19.99999999999977
 40
11.25
  0
CIRCLE
  5
169
100
AcDbEntity
  8
contour
  6
ByLayer
 62
  256
370
   -1
100
AcDbCircle
 10
150
 20
-19.99999999999981
 40
11.25
  0
DIMENSION
  5
16A
100
AcDbEntity
  8
cotation
  6
ByLayer
 62
  256
370
   -1
100
AcDbDimension
  2
*D18
 10
150
 20
1.4210854715202e-14
 30
0
 11
162.5
 21
4.500000000000014
 31
0
 70
   32
 71
    5
  3
Standard
 53
0
210
0
220
0
230
1
100
AcDbAlignedDimension
 13
175
 23
0
 33
0
 14
150
 24
-0
 34
0
100
AcDbRotatedDimension
  0
DIMENSION
  5
16B
100
AcDbEntity
  8
cotation
  6
ByLayer
 62
  256
370
   -1
100
AcDbDimension
  2
*D19
 10
110.0000035926082
 20
-32.49999965126923
 30
0
 11
130.0000017963041
 21
-27.99999965126923
 31
0
 70
   32
 71
    5
  3
Standard
 53
0
210
0
220
0
230
1
100
AcDbAlignedDimension
 13
150
 23
0
 33
0
 14
110.0000035926082
 24
1.4210854715202e-14
 34
0
100
AcDbRotatedDimension
  0
CIRCLE
  5
16C
100
AcDbEntity
  8
contour
  6
ByLayer
 62
  256
370
   -1
100
AcDbCircle
 10
69.99999999999994
 20
2.131628207280301e-14
 40
6.5
  0
LINE
  5
16D
100
AcDbEntity
  8
axe
  6
ByLayer
 62
  256
370
   -1
100
AcDbLine
 10
70.00000245348852
 20
32.50000000000004
 11
70.00000245348852
 21
-32.5
  0
DIMENSION
  5
16E
100
AcDbEntity
  8
cotation
  6
ByLayer
 62
  256
370
   -1
100
AcDbDimension
  2
*D20
 10
60
 20
-6.499999999999317
 30
0
 11
55.5
 21
4.10380473841681e-15
 31
0
 70
   32
 71
    5
  3
Standard
 53
0
210
0
220
0
230
1
100
AcDbAlignedDimension
 13
70.00000245348852
 23
6.499999999999321
 33
0
 14
70.00000245348852
 24
-6.499999999999318
 34
0
 50
90
100
AcDbRotatedDimension
  0
MTEXT
  5
16F
100
AcDbEntity
  8
cotation
  6
ByLayer
 62
  256
370
   -1
100
AcDbMText
 10
240
 20
-20
 30
0
 40
1
 41
3.555556069842753
 71
    1
 72
    1
  1
Reset
  7
standard
210
0
220
0
230
1
 50
0
 73
    2
 44
1
  0
MTEXT
  5
170
100
AcDbEntity
  8
contour
  6
ByLayer
 62
  256
370
   -1
100
AcDbMText
 10
141
 20
3
 30
0
 40
5
 41
17.77778034921377
 71
    1
 72
    1
  1
Reset
  7
standard
210
0
220
0
230
1
 50
0
 73
    2
 44
1
  0
MTEXT
  5
171
100
AcDbEntity
  8
contour
  6
ByLayer
 62
  256
370
   -1
100
AcDbMText
 10
150
 20
-40
 30
0
 40
5
 41
31.6666666666669
 71
    5
 72
    1
  1
e-rupteur
  7
standard
210
0
220
0
230
1
 50
0
 73
    2
 44
1
  0
MTEXT
  5
172
100
AcDbEntity
  8
contour
  6
ByLayer
 62
  256
370
   -1
100
AcDbMText
 10
150
 20
40
 30
0
 40
5
 41
31.1111111111118
 71
    5
 72
    1
  1
e-poigne
  7
standard
210
0
220
0
230
1
 50
0
 73
    2
 44
1
  0
MTEXT
  5
173
100
AcDbEntity
  8
contour
  6
ByLayer
 62
  256
370
   -1
100
AcDbMText
 10
110
 20
20
 30
0
 40
5
 41
21.11111262253658
 71
    5
 72
    1
  1
Status
  7
standard
210
0
220
0
230
1
 50
0
 73
    2
 44
1
  0
MTEXT
  5
174
100
AcDbEntity
  8
contour
  6
ByLayer
 62
  256
370
   -1
100
AcDbMText
 10
70
 20
20
 30
0
 40
5
 41
11.66666666666721
 71
    5
 72
    1
  1
Dich
  7
standard
210
0
220
0
230
1
 50
0
 73
    2
 44
1
  0
MTEXT
  5
175
100
AcDbEntity
  8
contour
  6
ByLayer
 62
  256
370
   -1
100
AcDbMText
 10
-140
 20
30
 30
0
 40
5
 41
11.66666560665592
 71
    5
 72
    1
  1
USB
  7
standard
210
0
220
0
230
1
 50
0
 73
    2
 44
1
  0
MTEXT
  5
176
100
AcDbEntity
  8
contour
  6
ByLayer
 62
  256
370
   -1
100
AcDbMText
 10
0
 20
50.84898518901295
 30
0
 40
10
 41
216.9444577530413
 71
    5
 72
    1
  1
Systme de Cuisson Intelligente
  7
standard
210
0
220
0
230
1
 50
0
 73
    2
 44
1
  0
MTEXT
  5
177
100
AcDbEntity
  8
contour
  6
ByLayer
 62
  256
370
   -1
100
AcDbMText
 10
0
 20
-50.84898518901296
 30
0
 40
10
 41
95.2777777777784
 71
    5
 72
    1
  1
Prototype N%%D3
  7
standard
210
0
220
0
230
1
 50
0
 73
    2
 44
1
  0
ENDSEC
  0
SECTION
  2
OBJECTS
  0
DICTIONARY
  5
C
330
0
100
AcDbDictionary
281
    1
  3
ACAD_GROUP
350
D
  3
ACAD_IMAGE_DICT
350
178
  0
DICTIONARY
  5
D
330
C
100
AcDbDictionary
281
    1
  0
IMAGEDEF_REACTOR
  5
107
330
108
100
AcDbRasterImageDefReactor
 90
    2
330
108
  0
DICTIONARY
  5
178
330
C
100
AcDbDictionary
281
    1
  3
a3c-hd
350
106
  0
IMAGEDEF
  5
106
102
{ACAD_REACTORS
330
107
102
}
100
AcDbRasterImageDef
 90
    0
  1
/home/airel/SCAO/Design/logo/a3c/a3c-hd.png
 10
660
 20
411
 11
1
 21
1
280
    1
281
    0
  0
ENDSEC
  0
EOF
