999
dxfrw 0.6.3
  0
SECTION
  2
HEADER
  9
$ACADVER
  1
AC1021
  9
$DWGCODEPAGE
  3
ANSI_1252
  9
$INSBASE
 10
0
 20
0
 30
0
  9
$EXTMIN
 10
10000000000
 20
10000000000
 30
0
  9
$EXTMAX
 10
-10000000000
 20
-10000000000
 30
0
  9
$LIMMIN
 10
0
 20
0
  9
$LIMMAX
 10
420
 20
297
  9
$ORTHOMODE
 70
    0
  9
$REGENMODE
 70
    1
  9
$FILLMODE
 70
    1
  9
$QTEXTMODE
 70
    0
  9
$MIRRTEXT
 70
    0
  9
$LTSCALE
 40
1
  9
$ATTMODE
 70
    0
  9
$TEXTSIZE
 40
2.5
  9
$TRACEWID
 40
15.68
  9
$TEXTSTYLE
  7
STANDARD
  9
$CLAYER
  8
contour_ext
  9
$CELTYPE
  6
BYLAYER
  9
$CECOLOR
 62
  256
  9
$CELTSCALE
 40
1
  9
$DISPSILH
 70
    0
  9
$DIMSCALE
 40
1
  9
$DIMASZ
 40
4
  9
$DIMEXO
 40
0.625
  9
$DIMDLI
 40
3.75
  9
$DIMRND
 40
0
  9
$DIMDLE
 40
0
  9
$DIMEXE
 40
1.25
  9
$DIMTP
 40
0
  9
$DIMTM
 40
0
  9
$DIMTXT
 40
5
  9
$DIMCEN
 40
2.5
  9
$DIMTSZ
 40
0
  9
$DIMTOL
 70
    0
  9
$DIMLIM
 70
    0
  9
$DIMTIH
 70
    0
  9
$DIMTOH
 70
    0
  9
$DIMSE1
 70
    0
  9
$DIMSE2
 70
    0
  9
$DIMTAD
 70
    1
  9
$DIMZIN
 70
    8
  9
$DIMBLK
  1

  9
$DIMASO
 70
    1
  9
$DIMSHO
 70
    1
  9
$DIMPOST
  1

  9
$DIMAPOST
  1

  9
$DIMALT
 70
    0
  9
$DIMALTD
 70
    3
  9
$DIMALTF
 40
0.03937
  9
$DIMLFAC
 40
1
  9
$DIMTOFL
 70
    1
  9
$DIMTVP
 40
0
  9
$DIMTIX
 70
    0
  9
$DIMSOXD
 70
    0
  9
$DIMSAH
 70
    0
  9
$DIMBLK1
  1

  9
$DIMBLK2
  1

  9
$DIMSTYLE
  2
STANDARD
  9
$DIMCLRD
 70
    0
  9
$DIMCLRE
 70
    0
  9
$DIMCLRT
 70
    0
  9
$DIMTFAC
 40
1
  9
$DIMGAP
 40
3
  9
$DIMJUST
 70
    0
  9
$DIMSD1
 70
    0
  9
$DIMSD2
 70
    0
  9
$DIMTOLJ
 70
    0
  9
$DIMTZIN
 70
    8
  9
$DIMALTZ
 70
    0
  9
$DIMALTTZ
 70
    0
  9
$DIMUPT
 70
    0
  9
$DIMDEC
 70
    2
  9
$DIMTDEC
 70
    2
  9
$DIMALTU
 70
    2
  9
$DIMALTTD
 70
    3
  9
$DIMTXSTY
  7
standard
  9
$DIMAUNIT
 70
    0
  9
$DIMADEC
 70
    0
  9
$DIMALTRND
 40
0
  9
$DIMAZIN
 70
    0
  9
$DIMDSEP
 70
   44
  9
$DIMATFIT
 70
    3
  9
$DIMFRAC
 70
    0
  9
$DIMLDRBLK
  1
STANDARD
  9
$DIMLUNIT
 70
    2
  9
$DIMLWD
 70
   -2
  9
$DIMLWE
 70
   -2
  9
$DIMTMOVE
 70
    0
  9
$DIMFXL
 40
1
  9
$DIMFXLON
 70
    0
  9
$DIMJOGANG
 40
0.7854
  9
$DIMTFILL
 70
    0
  9
$DIMTFILLCLR
 70
    0
  9
$DIMARCSYM
 70
    0
  9
$DIMLTYPE
  6

  9
$DIMLTEX1
  6

  9
$DIMLTEX2
  6

  9
$LUNITS
 70
    2
  9
$LUPREC
 70
    4
  9
$SKETCHINC
 40
1
  9
$FILLETRAD
 40
0
  9
$AUNITS
 70
    0
  9
$AUPREC
 70
    2
  9
$MENU
  1
.
  9
$ELEVATION
 40
0
  9
$PELEVATION
 40
0
  9
$THICKNESS
 40
0
  9
$LIMCHECK
 70
    0
  9
$CHAMFERA
 40
0
  9
$CHAMFERB
 40
0
  9
$CHAMFERC
 40
0
  9
$CHAMFERD
 40
0
  9
$SKPOLY
 70
    0
  9
$USRTIMER
 70
    1
  9
$ANGBASE
 50
0
  9
$ANGDIR
 70
    0
  9
$PDMODE
 70
   34
  9
$PDSIZE
 40
0
  9
$PLINEWID
 40
0
  9
$SPLFRAME
 70
    0
  9
$SPLINETYPE
 70
    2
  9
$SPLINESEGS
 70
    8
  9
$HANDSEED
  5
20000
  9
$SURFTAB1
 70
    6
  9
$SURFTAB2
 70
    6
  9
$SURFTYPE
 70
    6
  9
$SURFU
 70
    6
  9
$SURFV
 70
    6
  9
$UCSBASE
  2

  9
$UCSNAME
  2

  9
$UCSORG
 10
0
 20
0
 30
0
  9
$UCSXDIR
 10
1
 20
0
 30
0
  9
$UCSYDIR
 10
0
 20
1
 30
0
  9
$UCSORTHOREF
  2

  9
$UCSORTHOVIEW
 70
    0
  9
$UCSORGTOP
 10
0
 20
0
 30
0
  9
$UCSORGBOTTOM
 10
0
 20
0
 30
0
  9
$UCSORGLEFT
 10
0
 20
0
 30
0
  9
$UCSORGRIGHT
 10
0
 20
0
 30
0
  9
$UCSORGFRONT
 10
0
 20
0
 30
0
  9
$UCSORGBACK
 10
0
 20
0
 30
0
  9
$PUCSBASE
  2

  9
$PUCSNAME
  2

  9
$PUCSORG
 10
0
 20
0
 30
0
  9
$PUCSXDIR
 10
1
 20
0
 30
0
  9
$PUCSYDIR
 10
0
 20
1
 30
0
  9
$PUCSORTHOREF
  2

  9
$PUCSORTHOVIEW
 70
    0
  9
$PUCSORGTOP
 10
0
 20
0
 30
0
  9
$PUCSORGBOTTOM
 10
0
 20
0
 30
0
  9
$PUCSORGLEFT
 10
0
 20
0
 30
0
  9
$PUCSORGRIGHT
 10
0
 20
0
 30
0
  9
$PUCSORGFRONT
 10
0
 20
0
 30
0
  9
$PUCSORGBACK
 10
0
 20
0
 30
0
  9
$USERI1
 70
    0
  9
$USERI2
 70
    0
  9
$USERI3
 70
    0
  9
$USERI4
 70
    0
  9
$USERI5
 70
    0
  9
$USERR1
 40
0
  9
$USERR2
 40
0
  9
$USERR3
 40
0
  9
$USERR4
 40
0
  9
$USERR5
 40
0
  9
$WORLDVIEW
 70
    1
  9
$SHADEDGE
 70
    3
  9
$SHADEDIF
 70
   70
  9
$TILEMODE
 70
    1
  9
$MAXACTVP
 70
   64
  9
$PINSBASE
 10
192.6879159202454
 20
144.2717608955119
 30
0
  9
$PLIMCHECK
 70
    0
  9
$PEXTMIN
 10
0
 20
0
 30
0
  9
$PEXTMAX
 10
0
 20
0
 30
0
  9
$GRIDMODE
 70
    1
  9
$SNAPSTYLE
 70
    0
  9
$GRIDUNIT
 10
0
 20
0
  9
$PLIMMIN
 10
0
 20
0
  9
$PLIMMAX
 10
420
 20
297
  9
$UNITMODE
 70
    0
  9
$VISRETAIN
 70
    1
  9
$PLINEGEN
 70
    0
  9
$PSLTSCALE
 70
    1
  9
$TREEDEPTH
 70
 3020
  9
$CMLSTYLE
  2
Standard
  9
$CMLJUST
 70
    0
  9
$CMLSCALE
 40
20
  9
$PROXYGRAPHICS
 70
    1
  9
$MEASUREMENT
 70
    1
  9
$CELWEIGHT
370
   -1
  9
$ENDCAPS
280
    0
  9
$JOINSTYLE
280
    0
  9
$LWDISPLAY
290
    0
  9
$INSUNITS
 70
    4
  9
$HYPERLINKBASE
  1

  9
$STYLESHEET
  1

  9
$XEDIT
290
    1
  9
$CEPSNTYPE
380
    0
  9
$PSTYLEMODE
290
    1
  9
$EXTNAMES
290
    1
  9
$PSVPSCALE
 40
1
  9
$OLESTARTUP
290
    0
  9
$SORTENTS
280
  127
  9
$INDEXCTL
280
    0
  9
$HIDETEXT
280
    1
  9
$XCLIPFRAME
290
    0
  9
$HALOGAP
280
    0
  9
$OBSCOLOR
 70
  257
  9
$OBSLTYPE
280
    0
  9
$INTERSECTIONDISPLAY
280
    0
  9
$INTERSECTIONCOLOR
 70
  257
  9
$DIMASSOC
280
    1
  9
$PROJECTNAME
  1

  9
$CAMERADISPLAY
290
    0
  9
$LENSLENGTH
 40
50
  9
$CAMERAHEIGHT
 40
0
  9
$STEPSPERSEC
 40
2
  9
$STEPSIZE
 40
50
  9
$3DDWFPREC
 40
2
  9
$PSOLWIDTH
 40
5
  9
$PSOLHEIGHT
 40
80
  9
$LOFTANG1
 40
1.570796326794897
  9
$LOFTANG2
 40
1.570796326794897
  9
$LOFTMAG1
 40
0
  9
$LOFTMAG2
 40
0
  9
$LOFTPARAM
 70
    7
  9
$LOFTNORMALS
280
    1
  9
$LATITUDE
 40
1
  9
$LONGITUDE
 40
1
  9
$NORTHDIRECTION
 40
0
  9
$TIMEZONE
 70
-8000
  9
$LIGHTGLYPHDISPLAY
280
    1
  9
$TILEMODELIGHTSYNCH
280
    1
  9
$SOLIDHIST
280
    1
  9
$SHOWHIST
280
    1
  9
$DWFFRAME
280
    2
  9
$DGNFRAME
280
    0
  9
$REALWORLDSCALE
290
    1
  9
$INTERFERECOLOR
 62
    1
  9
$CSHADOW
280
    0
  9
$SHADOWPLANELOCATION
 40
0
  0
ENDSEC
  0
SECTION
  2
CLASSES
  0
ENDSEC
  0
SECTION
  2
TABLES
  0
TABLE
  2
VPORT
  5
8
330
0
100
AcDbSymbolTable
 70
    1
  0
VPORT
  5
31
330
2
100
AcDbSymbolTableRecord
100
AcDbViewportTableRecord
  2
*ACTIVE
 70
    0
 10
0
 20
0
 11
1
 21
1
 12
107.0839435485568
 22
53.70471332982331
 13
0
 23
0
 14
10
 24
10
 15
10
 25
10
 16
0
 26
0
 36
1
 17
0
 27
0
 37
0
 40
267.2216342047572
 41
1.713763702801462
 42
50
 43
0
 44
0
 50
0
 51
0
 71
    0
 72
  100
 73
    1
 74
    3
 75
    0
 76
    1
 77
    0
 78
    0
281
    0
 65
    1
110
0
120
0
130
0
111
1
121
0
131
0
112
0
122
1
132
0
 79
    0
146
0
348
10020
 60
    7
 61
    5
292
1
282
    1
141
0
142
0
 63
  250
421
3358443
  0
ENDTAB
  0
TABLE
  2
LTYPE
  5
5
330
0
100
AcDbSymbolTable
 70
    4
  0
LTYPE
  5
14
330
5
100
AcDbSymbolTableRecord
100
AcDbLinetypeTableRecord
  2
ByBlock
 70
    0
  3

 72
   65
 73
    0
 40
0
  0
LTYPE
  5
15
330
5
100
AcDbSymbolTableRecord
100
AcDbLinetypeTableRecord
  2
ByLayer
 70
    0
  3

 72
   65
 73
    0
 40
0
  0
LTYPE
  5
16
330
5
100
AcDbSymbolTableRecord
100
AcDbLinetypeTableRecord
  2
Continuous
 70
    0
  3
Solid line
 72
   65
 73
    0
 40
0
  0
LTYPE
  5
32
330
5
100
AcDbSymbolTableRecord
100
AcDbLinetypeTableRecord
  2
DOT
 70
    0
  3
Dot . . . . . . . . . . . . . . . . . . . . . .
 72
   65
 73
    2
 40
6.35
 49
0
 74
    0
 49
-6.35
 74
    0
  0
LTYPE
  5
33
330
5
100
AcDbSymbolTableRecord
100
AcDbLinetypeTableRecord
  2
DOTTINY
 70
    0
  3
Dot (.15x) .....................................
 72
   65
 73
    2
 40
0.9525
 49
0
 74
    0
 49
-0.9525
 74
    0
  0
LTYPE
  5
34
330
5
100
AcDbSymbolTableRecord
100
AcDbLinetypeTableRecord
  2
DOT2
 70
    0
  3
Dot (.5x) .....................................
 72
   65
 73
    2
 40
3.175
 49
0
 74
    0
 49
-3.175
 74
    0
  0
LTYPE
  5
35
330
5
100
AcDbSymbolTableRecord
100
AcDbLinetypeTableRecord
  2
DOTX2
 70
    0
  3
Dot (2x) .  .  .  .  .  .  .  .  .  .  .  .  .
 72
   65
 73
    2
 40
12.7
 49
0
 74
    0
 49
-12.7
 74
    0
  0
LTYPE
  5
36
330
5
100
AcDbSymbolTableRecord
100
AcDbLinetypeTableRecord
  2
DASHED
 70
    0
  3
Dashed _ _ _ _ _ _ _ _ _ _ _ _ _ _ _ _ _
 72
   65
 73
    2
 40
19.05
 49
12.7
 74
    0
 49
-6.35
 74
    0
  0
LTYPE
  5
37
330
5
100
AcDbSymbolTableRecord
100
AcDbLinetypeTableRecord
  2
DASHEDTINY
 70
    0
  3
Dashed (.15x) _ _ _ _ _ _ _ _ _ _ _ _ _ _ _ _ _
 72
   65
 73
    2
 40
2.8575
 49
1.905
 74
    0
 49
-0.9525
 74
    0
  0
LTYPE
  5
38
330
5
100
AcDbSymbolTableRecord
100
AcDbLinetypeTableRecord
  2
DASHED2
 70
    0
  3
Dashed (.5x) _ _ _ _ _ _ _ _ _ _ _ _ _ _ _ _ _
 72
   65
 73
    2
 40
9.524999999999999
 49
6.35
 74
    0
 49
-3.175
 74
    0
  0
LTYPE
  5
39
330
5
100
AcDbSymbolTableRecord
100
AcDbLinetypeTableRecord
  2
DASHEDX2
 70
    0
  3
Dashed (2x) ____  ____  ____  ____  ____  ___
 72
   65
 73
    2
 40
38.09999999999999
 49
25.4
 74
    0
 49
-12.7
 74
    0
  0
LTYPE
  5
3A
330
5
100
AcDbSymbolTableRecord
100
AcDbLinetypeTableRecord
  2
DASHDOT
 70
    0
  3
Dash dot __ . __ . __ . __ . __ . __ . __ . __
 72
   65
 73
    4
 40
25.4
 49
12.7
 74
    0
 49
-6.35
 74
    0
 49
0
 74
    0
 49
-6.35
 74
    0
  0
LTYPE
  5
3B
330
5
100
AcDbSymbolTableRecord
100
AcDbLinetypeTableRecord
  2
DASHDOTTINY
 70
    0
  3
Dash dot (.15x) _._._._._._._._._._._._._._._.
 72
   65
 73
    4
 40
3.81
 49
1.905
 74
    0
 49
-0.9525
 74
    0
 49
0
 74
    0
 49
-0.9525
 74
    0
  0
LTYPE
  5
3C
330
5
100
AcDbSymbolTableRecord
100
AcDbLinetypeTableRecord
  2
DASHDOT2
 70
    0
  3
Dash dot (.5x) _._._._._._._._._._._._._._._.
 72
   65
 73
    4
 40
12.7
 49
6.35
 74
    0
 49
-3.175
 74
    0
 49
0
 74
    0
 49
-3.175
 74
    0
  0
LTYPE
  5
3D
330
5
100
AcDbSymbolTableRecord
100
AcDbLinetypeTableRecord
  2
DASHDOTX2
 70
    0
  3
Dash dot (2x) ____  .  ____  .  ____  .  ___
 72
   65
 73
    4
 40
50.8
 49
25.4
 74
    0
 49
-12.7
 74
    0
 49
0
 74
    0
 49
-12.7
 74
    0
  0
LTYPE
  5
3E
330
5
100
AcDbSymbolTableRecord
100
AcDbLinetypeTableRecord
  2
DIVIDE
 70
    0
  3
Divide ____ . . ____ . . ____ . . ____ . . ____
 72
   65
 73
    6
 40
31.75
 49
12.7
 74
    0
 49
-6.35
 74
    0
 49
0
 74
    0
 49
-6.35
 74
    0
 49
0
 74
    0
 49
-6.35
 74
    0
  0
LTYPE
  5
3F
330
5
100
AcDbSymbolTableRecord
100
AcDbLinetypeTableRecord
  2
DIVIDETINY
 70
    0
  3
Divide (.15x) __..__..__..__..__..__..__..__.._
 72
   65
 73
    6
 40
4.7625
 49
1.905
 74
    0
 49
-0.9525
 74
    0
 49
0
 74
    0
 49
-0.9525
 74
    0
 49
0
 74
    0
 49
-0.9525
 74
    0
  0
LTYPE
  5
40
330
5
100
AcDbSymbolTableRecord
100
AcDbLinetypeTableRecord
  2
DIVIDE2
 70
    0
  3
Divide (.5x) __..__..__..__..__..__..__..__.._
 72
   65
 73
    6
 40
15.875
 49
6.35
 74
    0
 49
-3.175
 74
    0
 49
0
 74
    0
 49
-3.175
 74
    0
 49
0
 74
    0
 49
-3.175
 74
    0
  0
LTYPE
  5
41
330
5
100
AcDbSymbolTableRecord
100
AcDbLinetypeTableRecord
  2
DIVIDEX2
 70
    0
  3
Divide (2x) ________  .  .  ________  .  .  _
 72
   65
 73
    6
 40
63.5
 49
25.4
 74
    0
 49
-12.7
 74
    0
 49
0
 74
    0
 49
-12.7
 74
    0
 49
0
 74
    0
 49
-12.7
 74
    0
  0
LTYPE
  5
42
330
5
100
AcDbSymbolTableRecord
100
AcDbLinetypeTableRecord
  2
BORDER
 70
    0
  3
Border __ __ . __ __ . __ __ . __ __ . __ __ .
 72
   65
 73
    6
 40
44.45
 49
12.7
 74
    0
 49
-6.35
 74
    0
 49
12.7
 74
    0
 49
-6.35
 74
    0
 49
0
 74
    0
 49
-6.35
 74
    0
  0
LTYPE
  5
43
330
5
100
AcDbSymbolTableRecord
100
AcDbLinetypeTableRecord
  2
BORDERTINY
 70
    0
  3
Border (.15x) __.__.__.__.__.__.__.__.__.__.__.
 72
   65
 73
    6
 40
6.6675
 49
1.905
 74
    0
 49
-0.9525
 74
    0
 49
1.905
 74
    0
 49
-0.9525
 74
    0
 49
0
 74
    0
 49
-0.9525
 74
    0
  0
LTYPE
  5
44
330
5
100
AcDbSymbolTableRecord
100
AcDbLinetypeTableRecord
  2
BORDER2
 70
    0
  3
Border (.5x) __.__.__.__.__.__.__.__.__.__.__.
 72
   65
 73
    6
 40
22.225
 49
6.35
 74
    0
 49
-3.175
 74
    0
 49
6.35
 74
    0
 49
-3.175
 74
    0
 49
0
 74
    0
 49
-3.175
 74
    0
  0
LTYPE
  5
45
330
5
100
AcDbSymbolTableRecord
100
AcDbLinetypeTableRecord
  2
BORDERX2
 70
    0
  3
Border (2x) ____  ____  .  ____  ____  .  ___
 72
   65
 73
    6
 40
88.89999999999999
 49
25.4
 74
    0
 49
-12.7
 74
    0
 49
25.4
 74
    0
 49
-12.7
 74
    0
 49
0
 74
    0
 49
-12.7
 74
    0
  0
LTYPE
  5
46
330
5
100
AcDbSymbolTableRecord
100
AcDbLinetypeTableRecord
  2
CENTER
 70
    0
  3
Center ____ _ ____ _ ____ _ ____ _ ____ _ ____
 72
   65
 73
    4
 40
50.8
 49
31.75
 74
    0
 49
-6.35
 74
    0
 49
6.35
 74
    0
 49
-6.35
 74
    0
  0
LTYPE
  5
47
330
5
100
AcDbSymbolTableRecord
100
AcDbLinetypeTableRecord
  2
CENTERTINY
 70
    0
  3
Center (.15x) ___ _ ___ _ ___ _ ___ _ ___ _ ___
 72
   65
 73
    4
 40
7.619999999999999
 49
4.7625
 74
    0
 49
-0.9525
 74
    0
 49
0.9525
 74
    0
 49
-0.9525
 74
    0
  0
LTYPE
  5
48
330
5
100
AcDbSymbolTableRecord
100
AcDbLinetypeTableRecord
  2
CENTER2
 70
    0
  3
Center (.5x) ___ _ ___ _ ___ _ ___ _ ___ _ ___
 72
   65
 73
    4
 40
28.575
 49
19.05
 74
    0
 49
-3.175
 74
    0
 49
3.175
 74
    0
 49
-3.175
 74
    0
  0
LTYPE
  5
49
330
5
100
AcDbSymbolTableRecord
100
AcDbLinetypeTableRecord
  2
CENTERX2
 70
    0
  3
Center (2x) ________  __  ________  __  _____
 72
   65
 73
    4
 40
101.6
 49
63.5
 74
    0
 49
-12.7
 74
    0
 49
12.7
 74
    0
 49
-12.7
 74
    0
  0
ENDTAB
  0
TABLE
  2
LAYER
  5
2
330
0
100
AcDbSymbolTable
 70
    1
  0
LAYER
  5
10
330
2
100
AcDbSymbolTableRecord
100
AcDbLayerTableRecord
  2
0
 70
    1
 62
    7
  6
CONTINUOUS
370
    0
390
F
  0
LAYER
  5
4A
330
2
100
AcDbSymbolTableRecord
100
AcDbLayerTableRecord
  2
axe
 70
    1
 62
    7
  6
DASHDOT2
370
   25
390
F
  0
LAYER
  5
4B
330
2
100
AcDbSymbolTableRecord
100
AcDbLayerTableRecord
  2
cadre
 70
    1
 62
    7
  6
CONTINUOUS
370
   13
390
F
  0
LAYER
  5
4C
330
2
100
AcDbSymbolTableRecord
100
AcDbLayerTableRecord
  2
construction
 70
    1
 62
    7
  6
CONTINUOUS
370
    0
390
F
  0
LAYER
  5
4D
330
2
100
AcDbSymbolTableRecord
100
AcDbLayerTableRecord
  2
contour
 70
    1
 62
    1
  6
CONTINUOUS
370
   50
390
F
  0
LAYER
  5
4E
330
2
100
AcDbSymbolTableRecord
100
AcDbLayerTableRecord
  2
contour_ext
 70
    0
 62
    2
  6
CONTINUOUS
370
  100
390
F
  0
LAYER
  5
4F
330
2
100
AcDbSymbolTableRecord
100
AcDbLayerTableRecord
  2
cotation
 70
    1
 62
    7
  6
CONTINUOUS
370
   35
390
F
  0
LAYER
  5
50
330
2
100
AcDbSymbolTableRecord
100
AcDbLayerTableRecord
  2
logo
 70
    1
 62
    7
  6
CONTINUOUS
370
    0
390
F
  0
LAYER
  5
51
330
2
100
AcDbSymbolTableRecord
100
AcDbLayerTableRecord
  2
marquage_1
 70
    1
 62
    5
  6
CONTINUOUS
370
  140
390
F
  0
LAYER
  5
52
330
2
100
AcDbSymbolTableRecord
100
AcDbLayerTableRecord
  2
marquage_2
 70
    1
 62
    5
  6
CONTINUOUS
370
  100
390
F
  0
LAYER
  5
53
330
2
100
AcDbSymbolTableRecord
100
AcDbLayerTableRecord
  2
marquage_3
 70
    1
 62
    5
  6
CONTINUOUS
370
   50
390
F
  0
ENDTAB
  0
TABLE
  2
STYLE
  5
3
330
0
100
AcDbSymbolTable
 70
    3
  0
STYLE
  5
54
330
2
100
AcDbSymbolTableRecord
100
AcDbTextStyleTableRecord
  2
standard
 70
    0
 40
0
 41
1
 50
0
 71
    0
 42
1
  3
standard
  4

  0
ENDTAB
  0
TABLE
  2
VIEW
  5
6
330
0
100
AcDbSymbolTable
 70
    0
  0
ENDTAB
  0
TABLE
  2
UCS
  5
7
330
0
100
AcDbSymbolTable
 70
    0
  0
ENDTAB
  0
TABLE
  2
APPID
  5
9
330
0
100
AcDbSymbolTable
 70
    1
  0
APPID
  5
12
330
9
100
AcDbSymbolTableRecord
100
AcDbRegAppTableRecord
  2
ACAD
 70
    0
  0
APPID
  5
55
330
9
100
AcDbSymbolTableRecord
100
AcDbRegAppTableRecord
  2
LibreCad
 70
    0
  0
ENDTAB
  0
TABLE
  2
DIMSTYLE
  5
A
330
0
100
AcDbSymbolTable
 70
    1
100
AcDbDimStyleTable
 71
    1
  0
DIMSTYLE
105
56
330
A
100
AcDbSymbolTableRecord
100
AcDbDimStyleTableRecord
  2
Standard
 70
    0
 40
1
 41
4
 42
0.625
 43
0.38
 44
1.25
 45
0
 46
0
 47
0
 48
0
 49
1
140
5
141
0.09
142
0
143
25.4
144
1
145
0
146
1
147
3
148
0
 71
    0
 72
    0
 73
    0
 74
    1
 75
    0
 76
    0
 77
    0
 78
    8
 79
    0
170
    0
171
    2
172
    0
173
    0
174
    0
175
    0
176
    0
177
    0
178
    0
179
    0
271
    2
272
    4
273
    2
274
    2
275
    0
276
    0
277
    2
278
   44
279
    0
280
    0
281
    0
282
    0
283
    1
284
    0
285
    0
286
    0
288
    0
289
    3
340
standard
341

371
   -2
372
   -2
  0
ENDTAB
  0
TABLE
  2
BLOCK_RECORD
  5
1
330
0
100
AcDbSymbolTable
 70
    2
  0
BLOCK_RECORD
  5
1F
330
1
100
AcDbSymbolTableRecord
100
AcDbBlockTableRecord
  2
*Model_Space
 70
    0
280
    1
281
    0
  0
BLOCK_RECORD
  5
1E
330
1
100
AcDbSymbolTableRecord
100
AcDbBlockTableRecord
  2
*Paper_Space
 70
    0
280
    1
281
    0
  0
BLOCK_RECORD
  5
57
330
1
100
AcDbSymbolTableRecord
100
AcDbBlockTableRecord
  2
*D16
 70
    0
280
    1
281
    0
  0
BLOCK_RECORD
  5
5A
330
1
100
AcDbSymbolTableRecord
100
AcDbBlockTableRecord
  2
*D7
 70
    0
280
    1
281
    0
  0
BLOCK_RECORD
  5
5D
330
1
100
AcDbSymbolTableRecord
100
AcDbBlockTableRecord
  2
*D2
 70
    0
280
    1
281
    0
  0
BLOCK_RECORD
  5
60
330
1
100
AcDbSymbolTableRecord
100
AcDbBlockTableRecord
  2
*D10
 70
    0
280
    1
281
    0
  0
BLOCK_RECORD
  5
63
330
1
100
AcDbSymbolTableRecord
100
AcDbBlockTableRecord
  2
*D15
 70
    0
280
    1
281
    0
  0
BLOCK_RECORD
  5
66
330
1
100
AcDbSymbolTableRecord
100
AcDbBlockTableRecord
  2
*D18
 70
    0
280
    1
281
    0
  0
BLOCK_RECORD
  5
69
330
1
100
AcDbSymbolTableRecord
100
AcDbBlockTableRecord
  2
*D23
 70
    0
280
    1
281
    0
  0
BLOCK_RECORD
  5
6C
330
1
100
AcDbSymbolTableRecord
100
AcDbBlockTableRecord
  2
*D4
 70
    0
280
    1
281
    0
  0
BLOCK_RECORD
  5
6F
330
1
100
AcDbSymbolTableRecord
100
AcDbBlockTableRecord
  2
*D3
 70
    0
280
    1
281
    0
  0
BLOCK_RECORD
  5
72
330
1
100
AcDbSymbolTableRecord
100
AcDbBlockTableRecord
  2
*D25
 70
    0
280
    1
281
    0
  0
BLOCK_RECORD
  5
75
330
1
100
AcDbSymbolTableRecord
100
AcDbBlockTableRecord
  2
*D28
 70
    0
280
    1
281
    0
  0
BLOCK_RECORD
  5
78
330
1
100
AcDbSymbolTableRecord
100
AcDbBlockTableRecord
  2
*D14
 70
    0
280
    1
281
    0
  0
BLOCK_RECORD
  5
7B
330
1
100
AcDbSymbolTableRecord
100
AcDbBlockTableRecord
  2
*D19
 70
    0
280
    1
281
    0
  0
BLOCK_RECORD
  5
7E
330
1
100
AcDbSymbolTableRecord
100
AcDbBlockTableRecord
  2
*D24
 70
    0
280
    1
281
    0
  0
BLOCK_RECORD
  5
81
330
1
100
AcDbSymbolTableRecord
100
AcDbBlockTableRecord
  2
*D1
 70
    0
280
    1
281
    0
  0
BLOCK_RECORD
  5
84
330
1
100
AcDbSymbolTableRecord
100
AcDbBlockTableRecord
  2
*D8
 70
    0
280
    1
281
    0
  0
BLOCK_RECORD
  5
87
330
1
100
AcDbSymbolTableRecord
100
AcDbBlockTableRecord
  2
*D21
 70
    0
280
    1
281
    0
  0
BLOCK_RECORD
  5
8A
330
1
100
AcDbSymbolTableRecord
100
AcDbBlockTableRecord
  2
*D12
 70
    0
280
    1
281
    0
  0
BLOCK_RECORD
  5
8D
330
1
100
AcDbSymbolTableRecord
100
AcDbBlockTableRecord
  2
*D26
 70
    0
280
    1
281
    0
  0
BLOCK_RECORD
  5
90
330
1
100
AcDbSymbolTableRecord
100
AcDbBlockTableRecord
  2
*D17
 70
    0
280
    1
281
    0
  0
BLOCK_RECORD
  5
93
330
1
100
AcDbSymbolTableRecord
100
AcDbBlockTableRecord
  2
*D22
 70
    0
280
    1
281
    0
  0
BLOCK_RECORD
  5
96
330
1
100
AcDbSymbolTableRecord
100
AcDbBlockTableRecord
  2
*D11
 70
    0
280
    1
281
    0
  0
BLOCK_RECORD
  5
99
330
1
100
AcDbSymbolTableRecord
100
AcDbBlockTableRecord
  2
*D13
 70
    0
280
    1
281
    0
  0
BLOCK_RECORD
  5
9C
330
1
100
AcDbSymbolTableRecord
100
AcDbBlockTableRecord
  2
*D6
 70
    0
280
    1
281
    0
  0
BLOCK_RECORD
  5
9F
330
1
100
AcDbSymbolTableRecord
100
AcDbBlockTableRecord
  2
*D9
 70
    0
280
    1
281
    0
  0
BLOCK_RECORD
  5
A2
330
1
100
AcDbSymbolTableRecord
100
AcDbBlockTableRecord
  2
*D20
 70
    0
280
    1
281
    0
  0
BLOCK_RECORD
  5
A5
330
1
100
AcDbSymbolTableRecord
100
AcDbBlockTableRecord
  2
*D5
 70
    0
280
    1
281
    0
  0
BLOCK_RECORD
  5
A8
330
1
100
AcDbSymbolTableRecord
100
AcDbBlockTableRecord
  2
*D27
 70
    0
280
    1
281
    0
  0
ENDTAB
  0
ENDSEC
  0
SECTION
  2
BLOCKS
  0
BLOCK
  5
20
330
1F
100
AcDbEntity
  8
0
100
AcDbBlockBegin
  2
*Model_Space
 70
    0
 10
0
 20
0
 30
0
  3
*Model_Space
  1

  0
ENDBLK
  5
21
330
1F
100
AcDbEntity
  8
0
100
AcDbBlockEnd
  0
BLOCK
  5
1C
330
1B
100
AcDbEntity
  8
0
100
AcDbBlockBegin
  2
*Paper_Space
 70
    0
 10
0
 20
0
 30
0
  3
*Paper_Space
  1

  0
ENDBLK
  5
1D
330
1F
100
AcDbEntity
  8
0
100
AcDbBlockEnd
  0
BLOCK
  5
58
330
57
100
AcDbEntity
  8
0
100
AcDbBlockBegin
  2
*D16
 70
    1
 10
0
 20
0
  3
*D16
  1

  0
LINE
  5
AB
100
AcDbEntity
  8
cotation
  6
ByBlock
 62
    0
370
   -2
100
AcDbLine
 10
103.368291939579
 20
9.721805483687756
 11
119.2781945162765
 21
25.63170806038525
  0
SOLID
  5
AC
100
AcDbEntity
  8
cotation
  6
ByBlock
 62
    0
370
   -2
100
AcDbTrace
 10
103.368291939579
 20
9.721805483687756
 30
0
 11
105.7257467372611
 21
13.0212049354981
 31
0
 12
106.6676913913894
 22
12.07926028136979
 32
0
 13
106.6676913913894
 23
12.07926028136979
 33
0
  0
SOLID
  5
AD
100
AcDbEntity
  8
cotation
  6
ByBlock
 62
    0
370
   -2
100
AcDbTrace
 10
119.2781945162765
 20
25.63170806038525
 30
0
 11
116.9207397185945
 21
22.33230860857491
 31
0
 12
115.9787950644662
 22
23.27425326270322
 32
0
 13
115.9787950644662
 23
23.27425326270322
 33
0
  0
MTEXT
  5
AE
100
AcDbEntity
  8
cotation
  6
CONTINUOUS
 62
    0
370
   -2
100
AcDbMText
 10
107.4341559314018
 20
21.56584406856252
 30
0
 40
5
 41
11.94444444444476
 71
    5
 72
    1
  1
22,5
  7
standard
210
0
220
0
230
1
 50
45
 73
    2
 44
1
  0
LINE
  5
AF
100
AcDbEntity
  8
cotation
  6
ByBlock
 62
    0
370
   -2
100
AcDbLine
 10
120.6031069733739
 20
-7.513009550107107
 11
102.4844084630958
 21
10.60568896017094
  0
LINE
  5
B0
100
AcDbEntity
  8
cotation
  6
ByBlock
 62
    0
370
   -2
100
AcDbLine
 10
136.5130095500714
 20
8.396893026590373
 11
118.3943110397934
 21
26.51559153686844
  0
ENDBLK
  5
59
330
57
100
AcDbEntity
  8
0
100
AcDbBlockEnd
  0
BLOCK
  5
5B
330
5A
100
AcDbEntity
  8
0
100
AcDbBlockBegin
  2
*D7
 70
    1
 10
0
 20
0
  3
*D7
  1

  0
LINE
  5
B1
100
AcDbEntity
  8
cotation
  6
ByBlock
 62
    0
370
   -2
100
AcDbLine
 10
-149.0000000000125
 20
12.00000132935569
 11
-149.0000000000125
 21
-11.99999849572912
  0
SOLID
  5
B2
100
AcDbEntity
  8
cotation
  6
ByBlock
 62
    0
370
   -2
100
AcDbTrace
 10
-149.0000000000125
 20
12.00000132935569
 30
0
 11
-148.333944547576
 21
8.000001329355689
 31
0
 12
-149.6660554524491
 22
8.000001329355689
 32
0
 13
-149.6660554524491
 23
8.000001329355689
 33
0
  0
SOLID
  5
B3
100
AcDbEntity
  8
cotation
  6
ByBlock
 62
    0
370
   -2
100
AcDbTrace
 10
-149.0000000000125
 20
-11.99999849572912
 30
0
 11
-149.6660554524491
 21
-7.99999849572912
 31
0
 12
-148.333944547576
 22
-7.99999849572912
 32
0
 13
-148.333944547576
 23
-7.99999849572912
 33
0
  0
MTEXT
  5
B4
100
AcDbEntity
  8
cotation
  6
CONTINUOUS
 62
    0
370
   -2
100
AcDbMText
 10
-154.5000000000125
 20
1.416813285145185e-06
 30
0
 40
5
 41
6.666666666666666
 71
    5
 72
    1
  1
24
  7
standard
210
0
220
0
230
1
 50
90
 73
    2
 44
1
  0
LINE
  5
B5
100
AcDbEntity
  8
cotation
  6
ByBlock
 62
    0
370
   -2
100
AcDbLine
 10
-120.1250000000131
 20
12.00000132935569
 11
-150.2500000000125
 21
12.00000132935569
  0
LINE
  5
B6
100
AcDbEntity
  8
cotation
  6
ByBlock
 62
    0
370
   -2
100
AcDbLine
 10
-139.1250000000121
 20
-11.99999849572912
 11
-150.2500000000125
 21
-11.99999849572912
  0
ENDBLK
  5
5C
330
5A
100
AcDbEntity
  8
0
100
AcDbBlockEnd
  0
BLOCK
  5
5E
330
5D
100
AcDbEntity
  8
0
100
AcDbBlockBegin
  2
*D2
 70
    1
 10
0
 20
0
  3
*D2
  1

  0
LINE
  5
B7
100
AcDbEntity
  8
construction
  6
ByBlock
 62
    0
370
   -2
100
AcDbLine
 10
190
 20
50.84885482000277
 11
190
 21
1.4210854715202e-14
  0
SOLID
  5
B8
100
AcDbEntity
  8
construction
  6
ByBlock
 62
    0
370
   -2
100
AcDbTrace
 10
190
 20
50.84885482000277
 30
0
 11
190.6660554524366
 21
46.84885482000277
 31
0
 12
189.3339445475634
 22
46.84885482000277
 32
0
 13
189.3339445475634
 23
46.84885482000277
 33
0
  0
SOLID
  5
B9
100
AcDbEntity
  8
construction
  6
ByBlock
 62
    0
370
   -2
100
AcDbTrace
 10
190
 20
1.4210854715202e-14
 30
0
 11
189.3339445475634
 21
4.000000000000014
 31
0
 12
190.6660554524366
 22
4.000000000000014
 32
0
 13
190.6660554524366
 23
4.000000000000014
 33
0
  0
MTEXT
  5
BA
100
AcDbEntity
  8
construction
  6
CONTINUOUS
 62
    0
370
   -2
100
AcDbMText
 10
184.5
 20
25.42442741000139
 30
0
 40
5
 41
15.83333333333395
 71
    5
 72
    1
  1
50,85
  7
standard
210
0
220
0
230
1
 50
90
 73
    2
 44
1
  0
LINE
  5
BB
100
AcDbEntity
  8
construction
  6
ByBlock
 62
    0
370
   -2
100
AcDbLine
 10
171.5031802336913
 20
50.84885482000277
 11
191.25
 21
50.84885482000277
  0
LINE
  5
BC
100
AcDbEntity
  8
construction
  6
ByBlock
 62
    0
370
   -2
100
AcDbLine
 10
171.1619127516778
 20
1.4210854715202e-14
 11
191.25
 21
1.4210854715202e-14
  0
ENDBLK
  5
5F
330
5D
100
AcDbEntity
  8
0
100
AcDbBlockEnd
  0
BLOCK
  5
61
330
60
100
AcDbEntity
  8
0
100
AcDbBlockBegin
  2
*D10
 70
    1
 10
0
 20
0
  3
*D10
  1

  0
LINE
  5
BD
100
AcDbEntity
  8
cotation
  6
ByBlock
 62
    0
370
   -2
100
AcDbLine
 10
-138.5132741343165
 20
24.99146926953263
 11
-119.5132741343176
 21
24.99146926953263
  0
SOLID
  5
BE
100
AcDbEntity
  8
cotation
  6
ByBlock
 62
    0
370
   -2
100
AcDbTrace
 10
-138.5132741343165
 20
24.99146926953263
 30
0
 11
-134.5132741343165
 21
25.65752472196917
 31
0
 12
-134.5132741343165
 22
24.32541381709608
 32
0
 13
-134.5132741343165
 23
24.32541381709608
 33
0
  0
SOLID
  5
BF
100
AcDbEntity
  8
cotation
  6
ByBlock
 62
    0
370
   -2
100
AcDbTrace
 10
-119.5132741343176
 20
24.99146926953263
 30
0
 11
-123.5132741343176
 21
24.32541381709608
 31
0
 12
-123.5132741343176
 22
25.65752472196917
 32
0
 13
-123.5132741343176
 23
25.65752472196917
 33
0
  0
MTEXT
  5
C0
100
AcDbEntity
  8
cotation
  6
CONTINUOUS
 62
    0
370
   -2
100
AcDbMText
 10
-129.013274134317
 20
30.49146926953263
 30
0
 40
5
 41
5
 71
    5
 72
    1
  1
19
  7
standard
210
0
220
0
230
1
 50
0
 73
    2
 44
1
  0
LINE
  5
C1
100
AcDbEntity
  8
cotation
  6
ByBlock
 62
    0
370
   -2
100
AcDbLine
 10
-138.5132741343165
 20
-16.38352922619649
 11
-138.5132741343165
 21
26.24146926953263
  0
LINE
  5
C2
100
AcDbEntity
  8
cotation
  6
ByBlock
 62
    0
370
   -2
100
AcDbLine
 10
-119.5132741343176
 20
-16.38352922619649
 11
-119.5132741343176
 21
26.24146926953263
  0
ENDBLK
  5
62
330
60
100
AcDbEntity
  8
0
100
AcDbBlockEnd
  0
BLOCK
  5
64
330
63
100
AcDbEntity
  8
0
100
AcDbBlockBegin
  2
*D15
 70
    1
 10
0
 20
0
  3
*D15
  1

  0
LINE
  5
C3
100
AcDbEntity
  8
cotation
  6
ByBlock
 62
    0
370
   -2
100
AcDbLine
 10
60.36914516954683
 20
9.720952253731999
 11
76.27904774624417
 21
25.63085483042935
  0
SOLID
  5
C4
100
AcDbEntity
  8
cotation
  6
ByBlock
 62
    0
370
   -2
100
AcDbTrace
 10
60.36914516954683
 20
9.720952253731999
 30
0
 11
62.72659996722886
 21
13.02035170554234
 31
0
 12
63.66854462135717
 22
12.07840705141403
 32
0
 13
63.66854462135717
 23
12.07840705141403
 33
0
  0
SOLID
  5
C5
100
AcDbEntity
  8
cotation
  6
ByBlock
 62
    0
370
   -2
100
AcDbTrace
 10
76.27904774624417
 20
25.63085483042935
 30
0
 11
73.92159294856214
 21
22.331455378619
 31
0
 12
72.97964829443383
 22
23.27340003274731
 32
0
 13
72.97964829443383
 23
23.27340003274731
 33
0
  0
MTEXT
  5
C6
100
AcDbEntity
  8
cotation
  6
CONTINUOUS
 62
    0
370
   -2
100
AcDbMText
 10
64.43500916136949
 20
21.56499083860668
 30
0
 40
5
 41
11.94444444444476
 71
    5
 72
    1
  1
22,5
  7
standard
210
0
220
0
230
1
 50
45
 73
    2
 44
1
  0
LINE
  5
C7
100
AcDbEntity
  8
cotation
  6
ByBlock
 62
    0
370
   -2
100
AcDbLine
 10
77.60310697338589
 20
-7.513009550107067
 11
59.48526169306364
 21
10.60483573021518
  0
LINE
  5
C8
100
AcDbEntity
  8
cotation
  6
ByBlock
 62
    0
370
   -2
100
AcDbLine
 10
93.51300955008323
 20
8.396893026590288
 11
75.395164269761
 21
26.51473830691253
  0
ENDBLK
  5
65
330
63
100
AcDbEntity
  8
0
100
AcDbBlockEnd
  0
BLOCK
  5
67
330
66
100
AcDbEntity
  8
0
100
AcDbBlockBegin
  2
*D18
 70
    1
 10
0
 20
0
  3
*D18
  1

  0
LINE
  5
C9
100
AcDbEntity
  8
cotation
  6
ByBlock
 62
    0
370
   -2
100
AcDbLine
 10
85.99999999997614
 20
-24.99999999999986
 11
128.9999999999642
 21
-24.99999999999986
  0
SOLID
  5
CA
100
AcDbEntity
  8
cotation
  6
ByBlock
 62
    0
370
   -2
100
AcDbTrace
 10
85.99999999997614
 20
-24.99999999999986
 30
0
 11
89.99999999997614
 21
-24.33394454756332
 31
0
 12
89.99999999997614
 22
-25.66605545243641
 32
0
 13
89.99999999997614
 23
-25.66605545243641
 33
0
  0
SOLID
  5
CB
100
AcDbEntity
  8
cotation
  6
ByBlock
 62
    0
370
   -2
100
AcDbTrace
 10
128.9999999999642
 20
-24.99999999999986
 30
0
 11
124.9999999999642
 21
-25.66605545243641
 31
0
 12
124.9999999999642
 22
-24.33394454756332
 32
0
 13
124.9999999999642
 23
-24.33394454756332
 33
0
  0
MTEXT
  5
CC
100
AcDbEntity
  8
cotation
  6
CONTINUOUS
 62
    0
370
   -2
100
AcDbMText
 10
107.4999999999702
 20
-19.49999999999986
 30
0
 40
5
 41
6.666666666666977
 71
    5
 72
    1
  1
43
  7
standard
210
0
220
0
230
1
 50
0
 73
    2
 44
1
  0
LINE
  5
CD
100
AcDbEntity
  8
cotation
  6
ByBlock
 62
    0
370
   -2
100
AcDbLine
 10
85.99999999997614
 20
25.22388908842843
 11
85.99999999997614
 21
-26.24999999999986
  0
LINE
  5
CE
100
AcDbEntity
  8
cotation
  6
ByBlock
 62
    0
370
   -2
100
AcDbLine
 10
128.9999999999642
 20
25.22385711824062
 11
128.9999999999642
 21
-26.24999999999986
  0
ENDBLK
  5
68
330
66
100
AcDbEntity
  8
0
100
AcDbBlockEnd
  0
BLOCK
  5
6A
330
69
100
AcDbEntity
  8
0
100
AcDbBlockBegin
  2
*D23
 70
    1
 10
0
 20
0
  3
*D23
  1

  0
LINE
  5
CF
100
AcDbEntity
  8
cotation
  6
ByBlock
 62
    0
370
   -2
100
AcDbLine
 10
-104.1255030840771
 20
18.39429225432598
 11
-92.86717283487963
 21
24.89429225432585
  0
SOLID
  5
D0
100
AcDbEntity
  8
cotation
  6
ByBlock
 62
    0
370
   -2
100
AcDbTrace
 10
-104.1255030840771
 20
18.39429225432598
 30
0
 11
-100.9944291951576
 21
20.97111319646516
 31
0
 12
-100.3283737427211
 22
19.81747131218679
 32
0
 13
-100.3283737427211
 23
19.81747131218679
 33
0
  0
SOLID
  5
D1
100
AcDbEntity
  8
cotation
  6
ByBlock
 62
    0
370
   -2
100
AcDbTrace
 10
-92.86717283487963
 20
24.89429225432585
 30
0
 11
-95.9982467237991
 21
22.31747131218666
 31
0
 12
-96.66430217623565
 22
23.47111319646503
 32
0
 13
-96.66430217623565
 23
23.47111319646503
 33
0
  0
MTEXT
  5
D2
100
AcDbEntity
  8
cotation
  6
CONTINUOUS
 62
    0
370
   -2
100
AcDbMText
 10
-101.2463379594784
 20
26.40743197514032
 30
0
 40
5
 41
5.000000000000311
 71
    5
 72
    1
  1
13
  7
standard
210
0
220
0
230
1
 50
30.00000000000007
 73
    2
 44
1
  0
LINE
  5
D3
100
AcDbEntity
  8
cotation
  6
ByBlock
 62
    0
370
   -2
100
AcDbLine
 10
-91.94166512462311
 20
-2.708734122634605
 11
-104.7505030840771
 21
19.47682400905653
  0
LINE
  5
D4
100
AcDbEntity
  8
cotation
  6
ByBlock
 62
    0
370
   -2
100
AcDbLine
 10
-80.68333562756119
 20
3.791267180102254
 11
-93.49217283487963
 21
25.97682400905639
  0
ENDBLK
  5
6B
330
69
100
AcDbEntity
  8
0
100
AcDbBlockEnd
  0
BLOCK
  5
6D
330
6C
100
AcDbEntity
  8
0
100
AcDbBlockBegin
  2
*D4
 70
    1
 10
0
 20
0
  3
*D4
  1

  0
LINE
  5
D5
100
AcDbEntity
  8
cotation
  6
ByBlock
 62
    0
370
   -2
100
AcDbLine
 10
183
 20
-80
 11
161.9200000000009
 21
-80
  0
SOLID
  5
D6
100
AcDbEntity
  8
cotation
  6
ByBlock
 62
    0
370
   -2
100
AcDbTrace
 10
175
 20
-80
 30
0
 11
179
 21
-79.33394454756346
 31
0
 12
179
 22
-80.66605545243655
 32
0
 13
179
 23
-80.66605545243655
 33
0
  0
SOLID
  5
D7
100
AcDbEntity
  8
cotation
  6
ByBlock
 62
    0
370
   -2
100
AcDbTrace
 10
169.9200000000009
 20
-80
 30
0
 11
165.9200000000009
 21
-80.66605545243654
 31
0
 12
165.9200000000009
 22
-79.33394454756346
 32
0
 13
165.9200000000009
 23
-79.33394454756346
 33
0
  0
MTEXT
  5
D8
100
AcDbEntity
  8
cotation
  6
CONTINUOUS
 62
    0
370
   -2
100
AcDbMText
 10
183.9722222222223
 20
-74.5
 30
0
 40
5
 41
11.94444444444476
 71
    5
 72
    1
  1
5,08
  7
standard
210
0
220
0
230
1
 50
360
 73
    2
 44
1
  0
LINE
  5
D9
100
AcDbEntity
  8
cotation
  6
ByBlock
 62
    0
370
   -2
100
AcDbLine
 10
175
 20
-66.72499999999998
 11
175
 21
-81.25
  0
LINE
  5
DA
100
AcDbEntity
  8
cotation
  6
ByBlock
 62
    0
370
   -2
100
AcDbLine
 10
169.9200000000009
 20
-66.72499999999998
 11
169.9200000000009
 21
-81.25
  0
ENDBLK
  5
6E
330
6C
100
AcDbEntity
  8
0
100
AcDbBlockEnd
  0
BLOCK
  5
70
330
6F
100
AcDbEntity
  8
0
100
AcDbBlockBegin
  2
*D3
 70
    1
 10
0
 20
0
  3
*D3
  1

  0
LINE
  5
DB
100
AcDbEntity
  8
construction
  6
ByBlock
 62
    0
370
   -2
100
AcDbLine
 10
190
 20
0
 11
190
 21
-50.84885482000276
  0
SOLID
  5
DC
100
AcDbEntity
  8
construction
  6
ByBlock
 62
    0
370
   -2
100
AcDbTrace
 10
190
 20
0
 30
0
 11
190.6660554524366
 21
-4
 31
0
 12
189.3339445475634
 22
-4
 32
0
 13
189.3339445475634
 23
-4
 33
0
  0
SOLID
  5
DD
100
AcDbEntity
  8
construction
  6
ByBlock
 62
    0
370
   -2
100
AcDbTrace
 10
190
 20
-50.84885482000276
 30
0
 11
189.3339445475634
 21
-46.84885482000276
 31
0
 12
190.6660554524366
 22
-46.84885482000276
 32
0
 13
190.6660554524366
 23
-46.84885482000276
 33
0
  0
MTEXT
  5
DE
100
AcDbEntity
  8
construction
  6
CONTINUOUS
 62
    0
370
   -2
100
AcDbMText
 10
184.5
 20
-25.42442741000138
 30
0
 40
5
 41
15.83333333333395
 71
    5
 72
    1
  1
50,85
  7
standard
210
0
220
0
230
1
 50
90
 73
    2
 44
1
  0
LINE
  5
DF
100
AcDbEntity
  8
construction
  6
ByBlock
 62
    0
370
   -2
100
AcDbLine
 10
171.1619127516778
 20
0
 11
191.25
 21
0
  0
LINE
  5
E0
100
AcDbEntity
  8
construction
  6
ByBlock
 62
    0
370
   -2
100
AcDbLine
 10
170.8206452696644
 20
-50.84885482000276
 11
191.25
 21
-50.84885482000276
  0
ENDBLK
  5
71
330
6F
100
AcDbEntity
  8
0
100
AcDbBlockEnd
  0
BLOCK
  5
73
330
72
100
AcDbEntity
  8
0
100
AcDbBlockBegin
  2
*D25
 70
    1
 10
0
 20
0
  3
*D25
  1

  0
LINE
  5
E1
100
AcDbEntity
  8
cotation
  6
ByBlock
 62
    0
370
   -2
100
AcDbLine
 10
-178.829480378259
 20
46.30806465734206
 11
-161.0105196217403
 21
55.39017000564335
  0
SOLID
  5
E2
100
AcDbEntity
  8
cotation
  6
ByBlock
 62
    0
370
   -2
100
AcDbTrace
 10
-171.7018960756515
 20
49.94090679666259
 30
0
 11
-174.9632289376133
 21
47.53106492857071
 31
0
 12
-175.5681475162972
 22
48.71790652543393
 32
0
 13
-175.5681475162972
 23
48.71790652543393
 33
0
  0
SOLID
  5
E3
100
AcDbEntity
  8
cotation
  6
ByBlock
 62
    0
370
   -2
100
AcDbTrace
 10
-168.1381039243478
 20
51.75732786632282
 30
0
 11
-164.876771062386
 21
54.16716973441469
 31
0
 12
-164.2718524837021
 22
52.98032813755147
 32
0
 13
-164.2718524837021
 23
52.98032813755147
 33
0
  0
MTEXT
  5
E4
100
AcDbEntity
  8
cotation
  6
CONTINUOUS
 62
    0
370
   -2
100
AcDbMText
 10
-172.4175789707825
 20
55.74933153953538
 30
0
 40
5
 41
2.777777777777778
 71
    5
 72
    1
  1
4
  7
standard
210
0
220
0
230
1
 50
27.00738032670739
 73
    2
 44
1
  0
ENDBLK
  5
74
330
72
100
AcDbEntity
  8
0
100
AcDbBlockEnd
  0
BLOCK
  5
76
330
75
100
AcDbEntity
  8
0
100
AcDbBlockBegin
  2
*D28
 70
    1
 10
0
 20
0
  3
*D28
  1

  0
LINE
  5
E5
100
AcDbEntity
  8
cotation
  6
ByBlock
 62
    0
370
   -2
100
AcDbLine
 10
-180
 20
-53.02000000000015
 11
-180
 21
-74.09999999999829
  0
SOLID
  5
E6
100
AcDbEntity
  8
cotation
  6
ByBlock
 62
    0
370
   -2
100
AcDbTrace
 10
-180
 20
-61.02000000000015
 30
0
 11
-180.6660554524366
 21
-57.02000000000015
 31
0
 12
-179.3339445475634
 22
-57.02000000000015
 32
0
 13
-179.3339445475634
 23
-57.02000000000015
 33
0
  0
SOLID
  5
E7
100
AcDbEntity
  8
cotation
  6
ByBlock
 62
    0
370
   -2
100
AcDbTrace
 10
-180
 20
-66.09999999999829
 30
0
 11
-179.3339445475634
 21
-70.09999999999829
 31
0
 12
-180.6660554524366
 22
-70.09999999999829
 32
0
 13
-180.6660554524366
 23
-70.09999999999829
 33
0
  0
MTEXT
  5
E8
100
AcDbEntity
  8
cotation
  6
CONTINUOUS
 62
    0
370
   -2
100
AcDbMText
 10
-185.5
 20
-52.04777777777777
 30
0
 40
5
 41
11.94444444444476
 71
    5
 72
    1
  1
5,08
  7
standard
210
0
220
0
230
1
 50
90
 73
    2
 44
1
  0
LINE
  5
E9
100
AcDbEntity
  8
cotation
  6
ByBlock
 62
    0
370
   -2
100
AcDbLine
 10
-175.625
 20
-61.02000000000015
 11
-181.25
 21
-61.02000000000015
  0
LINE
  5
EA
100
AcDbEntity
  8
cotation
  6
ByBlock
 62
    0
370
   -2
100
AcDbLine
 10
-170.5450000000014
 20
-66.09999999999829
 11
-181.25
 21
-66.09999999999829
  0
ENDBLK
  5
77
330
75
100
AcDbEntity
  8
0
100
AcDbBlockEnd
  0
BLOCK
  5
79
330
78
100
AcDbEntity
  8
0
100
AcDbBlockBegin
  2
*D14
 70
    1
 10
0
 20
0
  3
*D14
  1

  0
LINE
  5
EB
100
AcDbEntity
  8
cotation
  6
ByBlock
 62
    0
370
   -2
100
AcDbLine
 10
-22.27039332225144
 20
13.0780023016336
 11
-13.07800516682632
 21
22.27039045705872
  0
SOLID
  5
EC
100
AcDbEntity
  8
cotation
  6
ByBlock
 62
    0
370
   -2
100
AcDbTrace
 10
-22.27039332225144
 20
13.0780023016336
 30
0
 11
-19.9129385245694
 21
16.37740175344395
 31
0
 12
-18.97099387044109
 22
15.43545709931564
 32
0
 13
-18.97099387044109
 23
15.43545709931564
 33
0
  0
SOLID
  5
ED
100
AcDbEntity
  8
cotation
  6
ByBlock
 62
    0
370
   -2
100
AcDbTrace
 10
-13.07800516682632
 20
22.27039045705872
 30
0
 11
-15.43545996450835
 21
18.97099100524838
 31
0
 12
-16.37740461863666
 22
19.91293565937669
 32
0
 13
-16.37740461863666
 23
19.91293565937669
 33
0
  0
MTEXT
  5
EE
100
AcDbEntity
  8
cotation
  6
CONTINUOUS
 62
    0
370
   -2
100
AcDbMText
 10
-21.56328654106489
 20
21.56328367587217
 30
0
 40
5
 41
5.000000000000311
 71
    5
 72
    1
  1
13
  7
standard
210
0
220
0
230
1
 50
45
 73
    2
 44
1
  0
LINE
  5
EF
100
AcDbEntity
  8
cotation
  6
ByBlock
 62
    0
370
   -2
100
AcDbLine
 10
-5.038137978323927
 20
-4.15425304229391
 11
-23.15427679873462
 21
13.96188577811679
  0
LINE
  5
F0
100
AcDbEntity
  8
cotation
  6
ByBlock
 62
    0
370
   -2
100
AcDbLine
 10
4.154250177101182
 20
5.038135113131217
 11
-13.9618886433095
 21
23.1542739335419
  0
ENDBLK
  5
7A
330
78
100
AcDbEntity
  8
0
100
AcDbBlockEnd
  0
BLOCK
  5
7C
330
7B
100
AcDbEntity
  8
0
100
AcDbBlockBegin
  2
*D19
 70
    1
 10
0
 20
0
  3
*D19
  1

  0
LINE
  5
F1
100
AcDbEntity
  8
cotation
  6
ByBlock
 62
    0
370
   -2
100
AcDbLine
 10
-129.0000000000126
 20
-25.00016016764097
 11
-86.0000000000245
 21
-25.00016016764097
  0
SOLID
  5
F2
100
AcDbEntity
  8
cotation
  6
ByBlock
 62
    0
370
   -2
100
AcDbTrace
 10
-129.0000000000126
 20
-25.00016016764097
 30
0
 11
-125.0000000000126
 21
-24.33410471520443
 31
0
 12
-125.0000000000126
 22
-25.66621562007752
 32
0
 13
-125.0000000000126
 23
-25.66621562007752
 33
0
  0
SOLID
  5
F3
100
AcDbEntity
  8
cotation
  6
ByBlock
 62
    0
370
   -2
100
AcDbTrace
 10
-86.0000000000245
 20
-25.00016016764097
 30
0
 11
-90.0000000000245
 21
-25.66621562007752
 31
0
 12
-90.0000000000245
 22
-24.33410471520443
 32
0
 13
-90.0000000000245
 23
-24.33410471520443
 33
0
  0
MTEXT
  5
F4
100
AcDbEntity
  8
cotation
  6
CONTINUOUS
 62
    0
370
   -2
100
AcDbMText
 10
-107.5000000000185
 20
-19.50016016764097
 30
0
 40
5
 41
6.666666666666977
 71
    5
 72
    1
  1
43
  7
standard
210
0
220
0
230
1
 50
0
 73
    2
 44
1
  0
LINE
  5
F5
100
AcDbEntity
  8
cotation
  6
ByBlock
 62
    0
370
   -2
100
AcDbLine
 10
-129.0000000000126
 20
25.22389428770673
 11
-129.0000000000126
 21
-26.25016016764097
  0
LINE
  5
F6
100
AcDbEntity
  8
cotation
  6
ByBlock
 62
    0
370
   -2
100
AcDbLine
 10
-86.0000000000245
 20
25.22386227838876
 11
-86.0000000000245
 21
-26.25016016764097
  0
ENDBLK
  5
7D
330
7B
100
AcDbEntity
  8
0
100
AcDbBlockEnd
  0
BLOCK
  5
7F
330
7E
100
AcDbEntity
  8
0
100
AcDbBlockBegin
  2
*D24
 70
    1
 10
0
 20
0
  3
*D24
  1

  0
LINE
  5
F7
100
AcDbEntity
  8
cotation
  6
ByBlock
 62
    0
370
   -2
100
AcDbLine
 10
-174.999999999999
 20
81.70647820897622
 11
175
 21
81.70647820897622
  0
SOLID
  5
F8
100
AcDbEntity
  8
cotation
  6
ByBlock
 62
    0
370
   -2
100
AcDbTrace
 10
-174.999999999999
 20
81.70647820897622
 30
0
 11
-170.999999999999
 21
82.37253366141276
 31
0
 12
-170.999999999999
 22
81.04042275653967
 32
0
 13
-170.999999999999
 23
81.04042275653967
 33
0
  0
SOLID
  5
F9
100
AcDbEntity
  8
cotation
  6
ByBlock
 62
    0
370
   -2
100
AcDbTrace
 10
175
 20
81.70647820897622
 30
0
 11
171
 21
81.04042275653968
 31
0
 12
171
 22
82.37253366141276
 32
0
 13
171
 23
82.37253366141276
 33
0
  0
MTEXT
  5
FA
100
AcDbEntity
  8
cotation
  6
CONTINUOUS
 62
    0
370
   -2
100
AcDbMText
 10
5.119275476170377e-13
 20
87.20647820897622
 30
0
 40
5
 41
10.00000000000062
 71
    5
 72
    1
  1
350
  7
standard
210
0
220
0
230
1
 50
0
 73
    2
 44
1
  0
LINE
  5
FB
100
AcDbEntity
  8
cotation
  6
ByBlock
 62
    0
370
   -2
100
AcDbLine
 10
-174.999999999999
 20
0.625
 11
-174.999999999999
 21
82.95647820897622
  0
LINE
  5
FC
100
AcDbEntity
  8
cotation
  6
ByBlock
 62
    0
370
   -2
100
AcDbLine
 10
175
 20
0.625
 11
175
 21
82.95647820897622
  0
ENDBLK
  5
80
330
7E
100
AcDbEntity
  8
0
100
AcDbBlockEnd
  0
BLOCK
  5
82
330
81
100
AcDbEntity
  8
0
100
AcDbBlockBegin
  2
*D1
 70
    1
 10
0
 20
0
  3
*D1
  1

  0
LINE
  5
FD
100
AcDbEntity
  8
cotation
  6
ByBlock
 62
    0
370
   -2
100
AcDbLine
 10
221.3741681595091
 20
66.10000000000001
 11
221.3741681595091
 21
-66.09999999999998
  0
SOLID
  5
FE
100
AcDbEntity
  8
cotation
  6
ByBlock
 62
    0
370
   -2
100
AcDbTrace
 10
221.3741681595091
 20
66.10000000000001
 30
0
 11
222.0402236119457
 21
62.10000000000001
 31
0
 12
220.7081127070726
 22
62.10000000000001
 32
0
 13
220.7081127070726
 23
62.10000000000001
 33
0
  0
SOLID
  5
FF
100
AcDbEntity
  8
cotation
  6
ByBlock
 62
    0
370
   -2
100
AcDbTrace
 10
221.3741681595091
 20
-66.09999999999998
 30
0
 11
220.7081127070726
 21
-62.09999999999998
 31
0
 12
222.0402236119457
 22
-62.09999999999998
 32
0
 13
222.0402236119457
 23
-62.09999999999998
 33
0
  0
MTEXT
  5
100
100
AcDbEntity
  8
cotation
  6
CONTINUOUS
 62
    0
370
   -2
100
AcDbMText
 10
215.8741681595091
 20
1.488441045473305e-14
 30
0
 40
5
 41
14.72222222222253
 71
    5
 72
    1
  1
132,2
  7
standard
210
0
220
0
230
1
 50
90
 73
    2
 44
1
  0
LINE
  5
101
100
AcDbEntity
  8
cotation
  6
ByBlock
 62
    0
370
   -2
100
AcDbLine
 10
175.625
 20
66.09999999999999
 11
222.6241681595091
 21
66.10000000000001
  0
LINE
  5
102
100
AcDbEntity
  8
cotation
  6
ByBlock
 62
    0
370
   -2
100
AcDbLine
 10
175.625
 20
-66.09999999999998
 11
222.6241681595091
 21
-66.09999999999998
  0
ENDBLK
  5
83
330
81
100
AcDbEntity
  8
0
100
AcDbBlockEnd
  0
BLOCK
  5
85
330
84
100
AcDbEntity
  8
0
100
AcDbBlockBegin
  2
*D8
 70
    1
 10
0
 20
0
  3
*D8
  1

  0
LINE
  5
103
100
AcDbEntity
  8
cotation
  6
ByBlock
 62
    0
370
   -2
100
AcDbLine
 10
-127.8351341644086
 20
7.237066191775614
 11
-111.1648658356175
 21
16.76293380822439
  0
SOLID
  5
104
100
AcDbEntity
  8
cotation
  6
ByBlock
 62
    0
370
   -2
100
AcDbTrace
 10
-120.8891890274123
 20
11.20617769862927
 30
0
 11
-124.0317055508519
 21
8.64332386634976
 31
0
 12
-124.692617640969
 22
9.799920024055124
 32
0
 13
-124.692617640969
 23
9.799920024055124
 33
0
  0
SOLID
  5
105
100
AcDbEntity
  8
cotation
  6
ByBlock
 62
    0
370
   -2
100
AcDbTrace
 10
-118.1108109726138
 20
12.79382230137073
 30
0
 11
-114.9682944491742
 21
15.35667613365024
 31
0
 12
-114.3073823590571
 22
14.20007997594488
 32
0
 13
-114.3073823590571
 23
14.20007997594488
 33
0
  0
MTEXT
  5
106
100
AcDbEntity
  8
cotation
  6
CONTINUOUS
 62
    0
370
   -2
100
AcDbMText
 10
-114.7377552736448
 20
21.05591378872926
 30
0
 40
5
 41
8.055555555555866
 71
    5
 72
    1
  1
3,2
  7
standard
210
0
220
0
230
1
 50
29.74488129693385
 73
    2
 44
1
  0
ENDBLK
  5
86
330
84
100
AcDbEntity
  8
0
100
AcDbBlockEnd
  0
BLOCK
  5
88
330
87
100
AcDbEntity
  8
0
100
AcDbBlockBegin
  2
*D21
 70
    1
 10
0
 20
0
  3
*D21
  1

  0
LINE
  5
107
100
AcDbEntity
  8
cotation
  6
ByBlock
 62
    0
370
   -2
100
AcDbLine
 10
-43.00000000003643
 20
-25.00009610058562
 11
0
 21
-25.00009610058562
  0
SOLID
  5
108
100
AcDbEntity
  8
cotation
  6
ByBlock
 62
    0
370
   -2
100
AcDbTrace
 10
-43.00000000003643
 20
-25.00009610058562
 30
0
 11
-39.00000000003643
 21
-24.33404064814907
 31
0
 12
-39.00000000003643
 22
-25.66615155302216
 32
0
 13
-39.00000000003643
 23
-25.66615155302216
 33
0
  0
SOLID
  5
109
100
AcDbEntity
  8
cotation
  6
ByBlock
 62
    0
370
   -2
100
AcDbTrace
 10
0
 20
-25.00009610058562
 30
0
 11
-4
 21
-25.66615155302216
 31
0
 12
-4
 22
-24.33404064814907
 32
0
 13
-4
 23
-24.33404064814907
 33
0
  0
MTEXT
  5
10A
100
AcDbEntity
  8
cotation
  6
CONTINUOUS
 62
    0
370
   -2
100
AcDbMText
 10
-21.50000000001821
 20
-19.50009610058562
 30
0
 40
5
 41
6.666666666666977
 71
    5
 72
    1
  1
43
  7
standard
210
0
220
0
230
1
 50
0
 73
    2
 44
1
  0
LINE
  5
10B
100
AcDbEntity
  8
cotation
  6
ByBlock
 62
    0
370
   -2
100
AcDbLine
 10
-43.00000000003644
 20
25.22388908842843
 11
-43.00000000003643
 21
-26.25009610058562
  0
LINE
  5
10C
100
AcDbEntity
  8
cotation
  6
ByBlock
 62
    0
370
   -2
100
AcDbLine
 10
-1.148106374200643e-16
 20
25.22388908842843
 11
-2.296212748401287e-16
 21
-26.25009610058562
  0
ENDBLK
  5
89
330
87
100
AcDbEntity
  8
0
100
AcDbBlockEnd
  0
BLOCK
  5
8B
330
8A
100
AcDbEntity
  8
0
100
AcDbBlockBegin
  2
*D12
 70
    1
 10
0
 20
0
  3
*D12
  1

  0
LINE
  5
10D
100
AcDbEntity
  8
cotation
  6
ByBlock
 62
    0
370
   -2
100
AcDbLine
 10
-140.471357735237
 20
-4.965677366735112
 11
-117.528642264788
 21
4.965677366735114
  0
SOLID
  5
10E
100
AcDbEntity
  8
cotation
  6
ByBlock
 62
    0
370
   -2
100
AcDbTrace
 10
-140.471357735237
 20
-4.965677366735112
 30
0
 11
-137.0651165787775
 21
-2.765415780068168
 31
0
 12
-136.5359299411528
 22
-3.987905438691593
 32
0
 13
-136.5359299411528
 23
-3.987905438691593
 33
0
  0
SOLID
  5
10F
100
AcDbEntity
  8
cotation
  6
ByBlock
 62
    0
370
   -2
100
AcDbTrace
 10
-117.528642264788
 20
4.965677366735114
 30
0
 11
-120.9348834212475
 21
2.765415780068167
 31
0
 12
-121.4640700588722
 22
3.987905438691591
 32
0
 13
-121.4640700588722
 23
3.987905438691591
 33
0
  0
MTEXT
  5
110
100
AcDbEntity
  8
cotation
  6
CONTINUOUS
 62
    0
370
   -2
100
AcDbMText
 10
-131.184898041376
 20
5.047397403498775
 30
0
 40
5
 41
6.111111111111422
 71
    5
 72
    1
  1
25
  7
standard
210
0
220
0
230
1
 50
23.40663643591878
 73
    2
 44
1
  0
ENDBLK
  5
8C
330
8A
100
AcDbEntity
  8
0
100
AcDbBlockEnd
  0
BLOCK
  5
8E
330
8D
100
AcDbEntity
  8
0
100
AcDbBlockBegin
  2
*D26
 70
    1
 10
0
 20
0
  3
*D26
  1

  0
LINE
  5
111
100
AcDbEntity
  8
cotation
  6
ByBlock
 62
    0
370
   -2
100
AcDbLine
 10
-161.9332741343039
 20
24.99034530924479
 11
-183.0132741343024
 21
24.99034530924479
  0
SOLID
  5
112
100
AcDbEntity
  8
cotation
  6
ByBlock
 62
    0
370
   -2
100
AcDbTrace
 10
-169.9332741343039
 20
24.99034530924479
 30
0
 11
-165.9332741343039
 21
25.65640076168134
 31
0
 12
-165.9332741343039
 22
24.32428985680825
 32
0
 13
-165.9332741343039
 23
24.32428985680825
 33
0
  0
SOLID
  5
113
100
AcDbEntity
  8
cotation
  6
ByBlock
 62
    0
370
   -2
100
AcDbTrace
 10
-175.0132741343024
 20
24.99034530924479
 30
0
 11
-179.0132741343024
 21
24.32428985680825
 31
0
 12
-179.0132741343024
 22
25.65640076168134
 32
0
 13
-179.0132741343024
 23
25.65640076168134
 33
0
  0
MTEXT
  5
114
100
AcDbEntity
  8
cotation
  6
CONTINUOUS
 62
    0
370
   -2
100
AcDbMText
 10
-160.9610519120816
 20
30.49034530924479
 30
0
 40
5
 41
11.94444444444476
 71
    5
 72
    1
  1
5,08
  7
standard
210
0
220
0
230
1
 50
360
 73
    2
 44
1
  0
LINE
  5
115
100
AcDbEntity
  8
cotation
  6
ByBlock
 62
    0
370
   -2
100
AcDbLine
 10
-169.9332741343039
 20
25.61533791923037
 11
-169.9332741343039
 21
26.24034530924479
  0
LINE
  5
116
100
AcDbEntity
  8
cotation
  6
ByBlock
 62
    0
370
   -2
100
AcDbLine
 10
-175.0132741343024
 20
25.61534010996649
 11
-175.0132741343024
 21
26.24034530924479
  0
ENDBLK
  5
8F
330
8D
100
AcDbEntity
  8
0
100
AcDbBlockEnd
  0
BLOCK
  5
91
330
90
100
AcDbEntity
  8
0
100
AcDbBlockBegin
  2
*D17
 70
    1
 10
0
 20
0
  3
*D17
  1

  0
LINE
  5
117
100
AcDbEntity
  8
cotation
  6
ByBlock
 62
    0
370
   -2
100
AcDbLine
 10
-1.459546851378946e-06
 20
-25.0000640670563
 11
42.99999999998807
 21
-25.0000640670563
  0
SOLID
  5
118
100
AcDbEntity
  8
cotation
  6
ByBlock
 62
    0
370
   -2
100
AcDbTrace
 10
-1.459546851378946e-06
 20
-25.0000640670563
 30
0
 11
3.999998540453149
 21
-24.33400861461975
 31
0
 12
3.999998540453149
 22
-25.66611951949285
 32
0
 13
3.999998540453149
 23
-25.66611951949285
 33
0
  0
SOLID
  5
119
100
AcDbEntity
  8
cotation
  6
ByBlock
 62
    0
370
   -2
100
AcDbTrace
 10
42.99999999998807
 20
-25.0000640670563
 30
0
 11
38.99999999998807
 21
-25.66611951949285
 31
0
 12
38.99999999998807
 22
-24.33400861461975
 32
0
 13
38.99999999998807
 23
-24.33400861461975
 33
0
  0
MTEXT
  5
11A
100
AcDbEntity
  8
cotation
  6
CONTINUOUS
 62
    0
370
   -2
100
AcDbMText
 10
21.49999927022061
 20
-19.5000640670563
 30
0
 40
5
 41
6.666666666666977
 71
    5
 72
    1
  1
43
  7
standard
210
0
220
0
230
1
 50
0
 73
    2
 44
1
  0
LINE
  5
11B
100
AcDbEntity
  8
cotation
  6
ByBlock
 62
    0
370
   -2
100
AcDbLine
 10
-1.459546851493757e-06
 20
25.22388908842841
 11
-1.459546851608567e-06
 21
-26.2500640670563
  0
LINE
  5
11C
100
AcDbEntity
  8
cotation
  6
ByBlock
 62
    0
370
   -2
100
AcDbLine
 10
42.99999999998807
 20
25.22388908842843
 11
42.99999999998807
 21
-26.2500640670563
  0
ENDBLK
  5
92
330
90
100
AcDbEntity
  8
0
100
AcDbBlockEnd
  0
BLOCK
  5
94
330
93
100
AcDbEntity
  8
0
100
AcDbBlockBegin
  2
*D22
 70
    1
 10
0
 20
0
  3
*D22
  1

  0
LINE
  5
11D
100
AcDbEntity
  8
cotation
  6
ByBlock
 62
    0
370
   -2
100
AcDbLine
 10
128.9999999999642
 20
-24.99999999999985
 11
175
 21
-24.99999999999985
  0
SOLID
  5
11E
100
AcDbEntity
  8
cotation
  6
ByBlock
 62
    0
370
   -2
100
AcDbTrace
 10
128.9999999999642
 20
-24.99999999999985
 30
0
 11
132.9999999999642
 21
-24.33394454756331
 31
0
 12
132.9999999999642
 22
-25.6660554524364
 32
0
 13
132.9999999999642
 23
-25.6660554524364
 33
0
  0
SOLID
  5
11F
100
AcDbEntity
  8
cotation
  6
ByBlock
 62
    0
370
   -2
100
AcDbTrace
 10
175
 20
-24.99999999999985
 30
0
 11
171
 21
-25.6660554524364
 31
0
 12
171
 22
-24.33394454756331
 32
0
 13
171
 23
-24.33394454756331
 33
0
  0
MTEXT
  5
120
100
AcDbEntity
  8
cotation
  6
CONTINUOUS
 62
    0
370
   -2
100
AcDbMText
 10
151.9999999999821
 20
-19.49999999999985
 30
0
 40
5
 41
6.666666666666977
 71
    5
 72
    1
  1
46
  7
standard
210
0
220
0
230
1
 50
0
 73
    2
 44
1
  0
LINE
  5
121
100
AcDbEntity
  8
cotation
  6
ByBlock
 62
    0
370
   -2
100
AcDbLine
 10
128.9999999999642
 20
-24.37499999999986
 11
128.9999999999642
 21
-23.74999999999985
  0
LINE
  5
122
100
AcDbEntity
  8
cotation
  6
ByBlock
 62
    0
370
   -2
100
AcDbLine
 10
175
 20
-24.37499999999986
 11
175
 21
-23.74999999999985
  0
ENDBLK
  5
95
330
93
100
AcDbEntity
  8
0
100
AcDbBlockEnd
  0
BLOCK
  5
97
330
96
100
AcDbEntity
  8
0
100
AcDbBlockBegin
  2
*D11
 70
    1
 10
0
 20
0
  3
*D11
  1

  0
LINE
  5
123
100
AcDbEntity
  8
cotation
  6
ByBlock
 62
    0
370
   -2
100
AcDbLine
 10
34.00000059583535
 20
24.99629586703381
 11
50.99999999998815
 21
24.99629586703381
  0
SOLID
  5
124
100
AcDbEntity
  8
cotation
  6
ByBlock
 62
    0
370
   -2
100
AcDbTrace
 10
34.00000059583535
 20
24.99629586703381
 30
0
 11
38.00000059583535
 21
25.66235131947035
 31
0
 12
38.00000059583535
 22
24.33024041459726
 32
0
 13
38.00000059583535
 23
24.33024041459726
 33
0
  0
SOLID
  5
125
100
AcDbEntity
  8
cotation
  6
ByBlock
 62
    0
370
   -2
100
AcDbTrace
 10
50.99999999998815
 20
24.99629586703381
 30
0
 11
46.99999999998815
 21
24.33024041459726
 31
0
 12
46.99999999998815
 22
25.66235131947035
 32
0
 13
46.99999999998815
 23
25.66235131947035
 33
0
  0
MTEXT
  5
126
100
AcDbEntity
  8
cotation
  6
CONTINUOUS
 62
    0
370
   -2
100
AcDbMText
 10
42.50000029791175
 20
30.49629586703381
 30
0
 40
5
 41
5
 71
    5
 72
    1
  1
17
  7
standard
210
0
220
0
230
1
 50
0
 73
    2
 44
1
  0
LINE
  5
127
100
AcDbEntity
  8
cotation
  6
ByBlock
 62
    0
370
   -2
100
AcDbLine
 10
34.00000059583535
 20
13.62129586703381
 11
34.00000059583535
 21
26.24629586703381
  0
LINE
  5
128
100
AcDbEntity
  8
cotation
  6
ByBlock
 62
    0
370
   -2
100
AcDbLine
 10
50.99999999998815
 20
13.62129586703381
 11
50.99999999998815
 21
26.24629586703381
  0
ENDBLK
  5
98
330
96
100
AcDbEntity
  8
0
100
AcDbBlockEnd
  0
BLOCK
  5
9A
330
99
100
AcDbEntity
  8
0
100
AcDbBlockBegin
  2
*D13
 70
    1
 10
0
 20
0
  3
*D13
  1

  0
LINE
  5
129
100
AcDbEntity
  8
cotation
  6
ByBlock
 62
    0
370
   -2
100
AcDbLine
 10
-65.26953792996214
 20
13.07714977450093
 11
-56.07714977453734
 21
22.26953792992572
  0
SOLID
  5
12A
100
AcDbEntity
  8
cotation
  6
ByBlock
 62
    0
370
   -2
100
AcDbTrace
 10
-65.26953792996214
 20
13.07714977450093
 30
0
 11
-62.9120831322801
 21
16.37654922631127
 31
0
 12
-61.9701384781518
 22
15.43460457218296
 32
0
 13
-61.9701384781518
 23
15.43460457218296
 33
0
  0
SOLID
  5
12B
100
AcDbEntity
  8
cotation
  6
ByBlock
 62
    0
370
   -2
100
AcDbTrace
 10
-56.07714977453734
 20
22.26953792992572
 30
0
 11
-58.43460457221938
 21
18.97013847811537
 31
0
 12
-59.37654922634768
 22
19.91208313224368
 32
0
 13
-59.37654922634768
 23
19.91208313224368
 33
0
  0
MTEXT
  5
12C
100
AcDbEntity
  8
cotation
  6
CONTINUOUS
 62
    0
370
   -2
100
AcDbMText
 10
-64.56243114877576
 20
21.56243114873934
 30
0
 40
5
 41
5.000000000000311
 71
    5
 72
    1
  1
13
  7
standard
210
0
220
0
230
1
 50
44.99999999999997
 73
    2
 44
1
  0
LINE
  5
12D
100
AcDbEntity
  8
cotation
  6
ByBlock
 62
    0
370
   -2
100
AcDbLine
 10
-48.03813581599042
 20
-4.154252339470796
 11
-66.15342140644532
 21
13.96103325098411
  0
LINE
  5
12E
100
AcDbEntity
  8
cotation
  6
ByBlock
 62
    0
370
   -2
100
AcDbLine
 10
-38.84574766056562
 20
5.038135815953996
 11
-56.96103325102052
 21
23.1534214064089
  0
ENDBLK
  5
9B
330
99
100
AcDbEntity
  8
0
100
AcDbBlockEnd
  0
BLOCK
  5
9D
330
9C
100
AcDbEntity
  8
0
100
AcDbBlockBegin
  2
*D6
 70
    1
 10
0
 20
0
  3
*D6
  1

  0
LINE
  5
12F
100
AcDbEntity
  8
cotation
  6
ByBlock
 62
    0
370
   -2
100
AcDbLine
 10
22.99999754649954
 20
9.000000000000171
 11
22.99999754649954
 21
-9.000000000000199
  0
SOLID
  5
130
100
AcDbEntity
  8
cotation
  6
ByBlock
 62
    0
370
   -2
100
AcDbTrace
 10
22.99999754649954
 20
9.000000000000171
 30
0
 11
23.66605299893608
 21
5.000000000000171
 31
0
 12
22.33394209406299
 22
5.000000000000171
 32
0
 13
22.33394209406299
 23
5.000000000000171
 33
0
  0
SOLID
  5
131
100
AcDbEntity
  8
cotation
  6
ByBlock
 62
    0
370
   -2
100
AcDbTrace
 10
22.99999754649954
 20
-9.000000000000199
 30
0
 11
22.33394209406299
 21
-5.000000000000199
 31
0
 12
23.66605299893608
 22
-5.000000000000199
 32
0
 13
23.66605299893608
 23
-5.000000000000199
 33
0
  0
MTEXT
  5
132
100
AcDbEntity
  8
cotation
  6
CONTINUOUS
 62
    0
370
   -2
100
AcDbMText
 10
17.49999754649954
 20
-1.353729897567096e-14
 30
0
 40
5
 41
5
 71
    5
 72
    1
  1
18
  7
standard
210
0
220
0
230
1
 50
90
 73
    2
 44
1
  0
LINE
  5
133
100
AcDbEntity
  8
cotation
  6
ByBlock
 62
    0
370
   -2
100
AcDbLine
 10
42.37500031543664
 20
9.000000000000172
 11
21.74999754649954
 21
9.000000000000171
  0
LINE
  5
134
100
AcDbEntity
  8
cotation
  6
ByBlock
 62
    0
370
   -2
100
AcDbLine
 10
42.37499968453955
 20
-9.000000000000201
 11
21.74999754649954
 21
-9.000000000000199
  0
ENDBLK
  5
9E
330
9C
100
AcDbEntity
  8
0
100
AcDbBlockEnd
  0
BLOCK
  5
A0
330
9F
100
AcDbEntity
  8
0
100
AcDbBlockBegin
  2
*D9
 70
    1
 10
0
 20
0
  3
*D9
  1

  0
LINE
  5
135
100
AcDbEntity
  8
cotation
  6
ByBlock
 62
    0
370
   -2
100
AcDbLine
 10
42.99999999998806
 20
-25.00003203352809
 11
85.99999999997614
 21
-25.00003203352809
  0
SOLID
  5
136
100
AcDbEntity
  8
cotation
  6
ByBlock
 62
    0
370
   -2
100
AcDbTrace
 10
42.99999999998806
 20
-25.00003203352809
 30
0
 11
46.99999999998806
 21
-24.33397658109154
 31
0
 12
46.99999999998806
 22
-25.66608748596463
 32
0
 13
46.99999999998806
 23
-25.66608748596463
 33
0
  0
SOLID
  5
137
100
AcDbEntity
  8
cotation
  6
ByBlock
 62
    0
370
   -2
100
AcDbTrace
 10
85.99999999997614
 20
-25.00003203352809
 30
0
 11
81.99999999997614
 21
-25.66608748596463
 31
0
 12
81.99999999997614
 22
-24.33397658109154
 32
0
 13
81.99999999997614
 23
-24.33397658109154
 33
0
  0
MTEXT
  5
138
100
AcDbEntity
  8
cotation
  6
CONTINUOUS
 62
    0
370
   -2
100
AcDbMText
 10
64.49999999998209
 20
-19.50003203352809
 30
0
 40
5
 41
6.666666666666977
 71
    5
 72
    1
  1
43
  7
standard
210
0
220
0
230
1
 50
0
 73
    2
 44
1
  0
LINE
  5
139
100
AcDbEntity
  8
cotation
  6
ByBlock
 62
    0
370
   -2
100
AcDbLine
 10
42.99999999998807
 20
25.22388908842844
 11
42.99999999998806
 21
-26.25003203352809
  0
LINE
  5
13A
100
AcDbEntity
  8
cotation
  6
ByBlock
 62
    0
370
   -2
100
AcDbLine
 10
85.99999999997614
 20
25.22388908842844
 11
85.99999999997614
 21
-26.25003203352809
  0
ENDBLK
  5
A1
330
9F
100
AcDbEntity
  8
0
100
AcDbBlockEnd
  0
BLOCK
  5
A3
330
A2
100
AcDbEntity
  8
0
100
AcDbBlockBegin
  2
*D20
 70
    1
 10
0
 20
0
  3
*D20
  1

  0
LINE
  5
13B
100
AcDbEntity
  8
cotation
  6
ByBlock
 62
    0
370
   -2
100
AcDbLine
 10
-86.0000000000245
 20
-25.00012813411275
 11
-43.00000000003644
 21
-25.00012813411275
  0
SOLID
  5
13C
100
AcDbEntity
  8
cotation
  6
ByBlock
 62
    0
370
   -2
100
AcDbTrace
 10
-86.0000000000245
 20
-25.00012813411275
 30
0
 11
-82.0000000000245
 21
-24.3340726816762
 31
0
 12
-82.0000000000245
 22
-25.66618358654929
 32
0
 13
-82.0000000000245
 23
-25.66618358654929
 33
0
  0
SOLID
  5
13D
100
AcDbEntity
  8
cotation
  6
ByBlock
 62
    0
370
   -2
100
AcDbTrace
 10
-43.00000000003644
 20
-25.00012813411275
 30
0
 11
-47.00000000003644
 21
-25.66618358654929
 31
0
 12
-47.00000000003644
 22
-24.3340726816762
 32
0
 13
-47.00000000003644
 23
-24.3340726816762
 33
0
  0
MTEXT
  5
13E
100
AcDbEntity
  8
cotation
  6
CONTINUOUS
 62
    0
370
   -2
100
AcDbMText
 10
-64.50000000003047
 20
-19.50012813411275
 30
0
 40
5
 41
6.666666666666977
 71
    5
 72
    1
  1
43
  7
standard
210
0
220
0
230
1
 50
0
 73
    2
 44
1
  0
LINE
  5
13F
100
AcDbEntity
  8
cotation
  6
ByBlock
 62
    0
370
   -2
100
AcDbLine
 10
-86.0000000000245
 20
25.22388908842843
 11
-86.0000000000245
 21
-26.25012813411275
  0
LINE
  5
140
100
AcDbEntity
  8
cotation
  6
ByBlock
 62
    0
370
   -2
100
AcDbLine
 10
-43.00000000003644
 20
25.22388908842843
 11
-43.00000000003644
 21
-26.25012813411275
  0
ENDBLK
  5
A4
330
A2
100
AcDbEntity
  8
0
100
AcDbBlockEnd
  0
BLOCK
  5
A6
330
A5
100
AcDbEntity
  8
0
100
AcDbBlockBegin
  2
*D5
 70
    1
 10
0
 20
0
  3
*D5
  1

  0
LINE
  5
141
100
AcDbEntity
  8
cotation
  6
ByBlock
 62
    0
370
   -2
100
AcDbLine
 10
200
 20
50.84887030133758
 11
200
 21
-50.84885931691205
  0
SOLID
  5
142
100
AcDbEntity
  8
cotation
  6
ByBlock
 62
    0
370
   -2
100
AcDbTrace
 10
200
 20
50.84887030133758
 30
0
 11
200.6660554524366
 21
46.84887030133758
 31
0
 12
199.3339445475634
 22
46.84887030133758
 32
0
 13
199.3339445475634
 23
46.84887030133758
 33
0
  0
SOLID
  5
143
100
AcDbEntity
  8
cotation
  6
ByBlock
 62
    0
370
   -2
100
AcDbTrace
 10
200
 20
-50.84885931691205
 30
0
 11
199.3339445475634
 21
-46.84885931691205
 31
0
 12
200.6660554524366
 22
-46.84885931691205
 32
0
 13
200.6660554524366
 23
-46.84885931691205
 33
0
  0
MTEXT
  5
144
100
AcDbEntity
  8
cotation
  6
CONTINUOUS
 62
    0
370
   -2
100
AcDbMText
 10
194.5
 20
5.492212765253118e-06
 30
0
 40
5
 41
13.61111111111111
 71
    5
 72
    1
  1
101,7
  7
standard
210
0
220
0
230
1
 50
90
 73
    2
 44
1
  0
LINE
  5
145
100
AcDbEntity
  8
cotation
  6
ByBlock
 62
    0
370
   -2
100
AcDbLine
 10
170.5449999999982
 20
50.84887030133756
 11
201.25
 21
50.84887030133758
  0
LINE
  5
146
100
AcDbEntity
  8
cotation
  6
ByBlock
 62
    0
370
   -2
100
AcDbLine
 10
170.5450000000006
 20
-50.84885931691205
 11
201.25
 21
-50.84885931691205
  0
ENDBLK
  5
A7
330
A5
100
AcDbEntity
  8
0
100
AcDbBlockEnd
  0
BLOCK
  5
A9
330
A8
100
AcDbEntity
  8
0
100
AcDbBlockBegin
  2
*D27
 70
    1
 10
0
 20
0
  3
*D27
  1

  0
LINE
  5
147
100
AcDbEntity
  8
cotation
  6
ByBlock
 62
    0
370
   -2
100
AcDbLine
 10
-175
 20
-25.00000000000011
 11
-129.0000000000126
 21
-25.00000000000011
  0
SOLID
  5
148
100
AcDbEntity
  8
cotation
  6
ByBlock
 62
    0
370
   -2
100
AcDbTrace
 10
-175
 20
-25.00000000000011
 30
0
 11
-171
 21
-24.33394454756356
 31
0
 12
-171
 22
-25.66605545243666
 32
0
 13
-171
 23
-25.66605545243666
 33
0
  0
SOLID
  5
149
100
AcDbEntity
  8
cotation
  6
ByBlock
 62
    0
370
   -2
100
AcDbTrace
 10
-129.0000000000126
 20
-25.00000000000011
 30
0
 11
-133.0000000000126
 21
-25.66605545243666
 31
0
 12
-133.0000000000126
 22
-24.33394454756356
 32
0
 13
-133.0000000000126
 23
-24.33394454756356
 33
0
  0
MTEXT
  5
14A
100
AcDbEntity
  8
cotation
  6
CONTINUOUS
 62
    0
370
   -2
100
AcDbMText
 10
-152.0000000000063
 20
-19.50000000000011
 30
0
 40
5
 41
6.666666666666977
 71
    5
 72
    1
  1
46
  7
standard
210
0
220
0
230
1
 50
0
 73
    2
 44
1
  0
LINE
  5
14B
100
AcDbEntity
  8
cotation
  6
ByBlock
 62
    0
370
   -2
100
AcDbLine
 10
-175
 20
-0.625
 11
-175
 21
-26.25000000000011
  0
LINE
  5
14C
100
AcDbEntity
  8
cotation
  6
ByBlock
 62
    0
370
   -2
100
AcDbLine
 10
-129.0000000000126
 20
-25.62500000000011
 11
-129.0000000000126
 21
-26.25000000000011
  0
ENDBLK
  5
AA
330
A8
100
AcDbEntity
  8
0
100
AcDbBlockEnd
  0
ENDSEC
  0
SECTION
  2
ENTITIES
  0
HATCH
  5
14D
100
AcDbEntity
  8
contour_ext
  6
ByLayer
 62
  256
370
   -1
100
AcDbHatch
 10
0
 20
0
 30
0
210
0
220
0
230
1
  2
SOLID
 70
    1
 71
    0
 91
    1
 92
    0
 93
    8
 72
    1
 10
-169.9199999999994
 20
66.00000000000105
 11
-175.0000000000005
 21
60.91999999999943
 72
    1
 10
-175.0000000000005
 20
60.91999999999943
 11
-175
 21
-61.02000000000015
 72
    1
 10
-175
 20
-61.02000000000015
 11
-169.9199999999997
 21
-66.09999999999998
 72
    1
 10
-169.9199999999997
 20
-66.09999999999998
 11
169.9199999999998
 21
-66.09999999999998
 72
    1
 10
169.9199999999998
 20
-66.09999999999998
 11
175
 21
-61.02000000000024
 72
    1
 10
175
 20
-61.02000000000024
 11
175
 21
61.01999999999901
 72
    1
 10
175
 20
61.01999999999901
 11
169.920984347334
 21
65.99999999999999
 72
    1
 10
169.920984347334
 20
65.99999999999999
 11
-169.9200000000005
 21
66
 97
    0
 75
    0
 76
    1
 98
    0
  0
LWPOLYLINE
  5
14E
100
AcDbEntity
  8
construction
  6
ByLayer
 62
  256
370
   -1
100
AcDbPolyline
 90
    4
 70
    1
 43
0
 10
-7.105427357601002e-15
 20
-66.09999999999998
 10
-175
 20
-66.09999999999998
 10
-175
 20
1.504271082808373e-06
 10
-7.105427357601002e-15
 20
1.504271082808373e-06
  0
LWPOLYLINE
  5
14F
100
AcDbEntity
  8
construction
  6
ByLayer
 62
  256
370
   -1
100
AcDbPolyline
 90
    4
 70
    1
 43
0
 10
-1.459546851378946e-06
 20
-66.09999999999998
 10
175
 20
-66.09999999999998
 10
175
 20
0
 10
-1.459546851378946e-06
 20
0
  0
DIMENSION
  5
150
100
AcDbEntity
  8
cotation
  6
ByLayer
 62
  256
370
   -1
100
AcDbDimension
  2
*D1
 10
221.3741681595091
 20
-66.09999999999998
 30
0
 11
215.8741681595091
 21
1.488441045473305e-14
 31
0
 70
   32
 71
    5
  3
Standard
 53
0
210
0
220
0
230
1
100
AcDbAlignedDimension
 13
175
 23
66.09999999999999
 33
0
 14
175
 24
-66.09999999999998
 34
0
 50
90
100
AcDbRotatedDimension
  0
DIMENSION
  5
151
100
AcDbEntity
  8
construction
  6
ByLayer
 62
  256
370
   -1
100
AcDbDimension
  2
*D2
 10
190
 20
1.182731396518366e-14
 30
0
 11
184.5
 21
25.42442741000139
 31
0
 70
   32
 71
    5
  3
Standard
 53
0
210
0
220
0
230
1
100
AcDbAlignedDimension
 13
170.8781802336913
 23
50.84885482000277
 33
0
 14
170.5369127516778
 24
1.4210854715202e-14
 34
0
 50
90
100
AcDbRotatedDimension
  0
DIMENSION
  5
152
100
AcDbEntity
  8
construction
  6
ByLayer
 62
  256
370
   -1
100
AcDbDimension
  2
*D3
 10
190
 20
-50.84885482000276
 30
0
 11
184.5
 21
-25.42442741000138
 31
0
 70
   32
 71
    5
  3
Standard
 53
0
210
0
220
0
230
1
100
AcDbAlignedDimension
 13
170.5369127516778
 23
0
 33
0
 14
170.1956452696644
 24
-50.84885482000276
 34
0
 50
90
100
AcDbRotatedDimension
  0
CIRCLE
  5
153
100
AcDbEntity
  8
construction
  6
ByLayer
 62
  256
370
   -1
100
AcDbCircle
 10
175
 20
-66.09999999999998
 40
5.08
  0
CIRCLE
  5
154
100
AcDbEntity
  8
construction
  6
ByLayer
 62
  256
370
   -1
100
AcDbCircle
 10
175
 20
66.09999999999999
 40
5.08
  0
LINE
  5
155
100
AcDbEntity
  8
axe
  6
ByLayer
 62
  256
370
   -1
100
AcDbLine
 10
169.9199999999979
 20
66.09999999999998
 11
169.9200000000009
 21
-66.09999999999997
  0
CIRCLE
  5
156
100
AcDbEntity
  8
contour
  6
ByLayer
 62
  256
370
   -1
100
AcDbCircle
 10
169.9199999999982
 20
50.84887030133756
 40
2
  0
CIRCLE
  5
157
100
AcDbEntity
  8
contour
  6
ByLayer
 62
  256
370
   -1
100
AcDbCircle
 10
169.9200000000006
 20
-50.84885931691205
 40
2
  0
DIMENSION
  5
158
100
AcDbEntity
  8
cotation
  6
ByLayer
 62
  256
370
   -1
100
AcDbDimension
  2
*D4
 10
169.9200000000009
 20
-80
 30
0
 11
172.4600000000004
 21
-74.5
 31
0
 70
   32
 71
    5
  3
Standard
 53
0
210
0
220
0
230
1
100
AcDbAlignedDimension
 13
175
 23
-66.09999999999998
 33
0
 14
169.9200000000009
 24
-66.09999999999998
 34
0
100
AcDbRotatedDimension
  0
DIMENSION
  5
159
100
AcDbEntity
  8
cotation
  6
ByLayer
 62
  256
370
   -1
100
AcDbDimension
  2
*D5
 10
200
 20
-50.84885931691206
 30
0
 11
194.5
 21
5.492212765253118e-06
 31
0
 70
   32
 71
    5
  3
Standard
 53
0
210
0
220
0
230
1
100
AcDbAlignedDimension
 13
169.9199999999982
 23
50.84887030133756
 33
0
 14
169.9200000000006
 24
-50.84885931691205
 34
0
 50
90
100
AcDbRotatedDimension
  0
LWPOLYLINE
  5
15A
100
AcDbEntity
  8
cadre
  6
ByLayer
 62
  256
370
   -1
100
AcDbPolyline
 90
    4
 70
    1
 43
0
 10
-260
 20
110
 10
250
 20
110
 10
250
 20
-100
 10
-260
 20
-100
  0
LINE
  5
15B
100
AcDbEntity
  8
axe
  6
ByLayer
 62
  256
370
   -1
100
AcDbLine
 10
-174.3
 20
50.84911503654708
 11
175
 21
50.84885482000277
  0
LINE
  5
15C
100
AcDbEntity
  8
axe
  6
ByLayer
 62
  256
370
   -1
100
AcDbLine
 10
-174.3
 20
-50.84911503654712
 11
175
 21
-50.84885482000276
  0
LWPOLYLINE
  5
15D
100
AcDbEntity
  8
construction
  6
ByLayer
 62
  256
370
   -1
100
AcDbPolyline
 90
    4
 70
    1
 43
0
 10
-174.3
 20
-1.4210854715202e-14
 10
-174.3
 20
-1.4210854715202e-14
 10
-174.3
 20
45.76911503654554
 10
-174.3
 20
45.76911503654554
  0
LWPOLYLINE
  5
15E
100
AcDbEntity
  8
construction
  6
ByLayer
 62
  256
370
   -1
100
AcDbPolyline
 90
    4
 70
    1
 43
0
 10
-174.3
 20
1.504271082808373e-06
 10
-128.0000000000004
 20
1.504271082808373e-06
 10
-128.0000000000004
 20
5.199278298562149e-06
 10
-174.3
 20
5.199278298562149e-06
  0
LWPOLYLINE
  5
15F
100
AcDbEntity
  8
construction
  6
ByLayer
 62
  256
370
   -1
100
AcDbPolyline
 90
    4
 70
    1
 43
0
 10
-42.00000000000062
 20
1.504271082808373e-06
 10
0.999999999999402
 20
1.504271082808373e-06
 10
0.999999999999402
 20
1.415534356397075e-14
 10
-42.00000000000062
 20
1.415534356397075e-14
  0
LWPOLYLINE
  5
160
100
AcDbEntity
  8
construction
  6
ByLayer
 62
  256
370
   -1
100
AcDbPolyline
 90
    4
 70
    1
 43
0
 10
-42.00000000000062
 20
-1.4210854715202e-14
 10
0.999999999999402
 20
-1.4210854715202e-14
 10
0.999999999999402
 20
1.4210854715202e-14
 10
-42.00000000000062
 20
1.4210854715202e-14
  0
LWPOLYLINE
  5
161
100
AcDbEntity
  8
construction
  6
ByLayer
 62
  256
370
   -1
100
AcDbPolyline
 90
    4
 70
    1
 43
0
 10
-42.00000000000062
 20
1.504271082808373e-06
 10
0.9999999999994017
 20
1.504271082808373e-06
 10
0.9999999999994017
 20
-1.4210854715202e-14
 10
-42.00000000000062
 20
-1.4210854715202e-14
  0
CIRCLE
  5
162
100
AcDbEntity
  8
contour
  6
ByLayer
 62
  256
370
   -1
100
AcDbCircle
 10
-2.453488576747986e-06
 20
2.131628207280301e-14
 40
6.5
  0
LINE
  5
163
100
AcDbEntity
  8
axe
  6
ByLayer
 62
  256
370
   -1
100
AcDbLine
 10
0
 20
32.50000000000004
 11
0
 21
-32.5
  0
LINE
  5
164
100
AcDbEntity
  8
axe
  6
ByLayer
 62
  256
370
   -1
100
AcDbLine
 10
42.99999999998807
 20
50.84895315548474
 11
42.99999999998807
 21
-50.84895315548474
  0
DIMENSION
  5
165
100
AcDbEntity
  8
cotation
  6
ByLayer
 62
  256
370
   -1
100
AcDbDimension
  2
*D6
 10
22.99999754649954
 20
-9.000000000000199
 30
0
 11
17.49999754649954
 21
-1.353729897567096e-14
 31
0
 70
   32
 71
    5
 72
    0
  3
Standard
 53
0
210
0
220
0
230
1
100
AcDbAlignedDimension
 13
43.00000031543664
 23
9.000000000000172
 33
0
 14
42.99999968453955
 24
-9.000000000000201
 34
0
 50
90
100
AcDbRotatedDimension
  0
LINE
  5
166
100
AcDbEntity
  8
contour
  6
ByLayer
 62
  256
370
   -1
100
AcDbLine
 10
50.99999999998815
 20
4.123105625617875
 11
50.99999999998815
 21
-4.123105625617889
  0
ARC
  5
167
100
AcDbEntity
  8
contour
  6
ByLayer
 62
  256
370
   -1
100
AcDbCircle
 10
43.00000031543664
 20
-1.577721810442024e-30
 40
8.999999719601224
100
AcDbArc
 50
27.26604537073629
 51
332.7339546292603
  0
LINE
  5
168
100
AcDbEntity
  8
axe
  6
ByLayer
 62
  256
370
   -1
100
AcDbLine
 10
85.99999999997614
 20
50.84892112195651
 11
85.99999999997614
 21
-50.84892112195651
  0
CIRCLE
  5
169
100
AcDbEntity
  8
contour
  6
ByLayer
 62
  256
370
   -1
100
AcDbCircle
 10
85.99999999997615
 20
-1.385558334732195e-13
 40
11.25
  0
LINE
  5
16A
100
AcDbEntity
  8
axe
  6
ByLayer
 62
  256
370
   -1
100
AcDbLine
 10
128.9999999999642
 20
50.8488890884283
 11
128.9999999999642
 21
-50.84888908842829
  0
CIRCLE
  5
16B
100
AcDbEntity
  8
contour
  6
ByLayer
 62
  256
370
   -1
100
AcDbCircle
 10
128.9999999999642
 20
-1.385558334732195e-13
 40
11.25
  0
LINE
  5
16C
100
AcDbEntity
  8
axe
  6
ByLayer
 62
  256
370
   -1
100
AcDbLine
 10
-129.0000000000126
 20
50.84908128959759
 11
-129.0000000000126
 21
-50.84908128959763
  0
CIRCLE
  5
16D
100
AcDbEntity
  8
contour
  6
ByLayer
 62
  256
370
   -1
100
AcDbCircle
 10
-129.0000000000125
 20
0
 40
12.5
  0
CIRCLE
  5
16E
100
AcDbEntity
  8
contour
  6
ByLayer
 62
  256
370
   -1
100
AcDbCircle
 10
-138.5000000000121
 20
-11.99999849572912
 40
1.6
  0
CIRCLE
  5
16F
100
AcDbEntity
  8
contour
  6
ByLayer
 62
  256
370
   -1
100
AcDbCircle
 10
-119.5000000000131
 20
12
 40
1.6
  0
LINE
  5
170
100
AcDbEntity
  8
axe
  6
ByLayer
 62
  256
370
   -1
100
AcDbLine
 10
-138.5000000000121
 20
12
 11
-117.0000000000129
 21
12.00000150427092
  0
LINE
  5
171
100
AcDbEntity
  8
axe
  6
ByLayer
 62
  256
370
   -1
100
AcDbLine
 10
-119.5000000000131
 20
-11.99999849572912
 11
-138.5000000000121
 21
-11.99999849572912
  0
LINE
  5
172
100
AcDbEntity
  8
axe
  6
ByLayer
 62
  256
370
   -1
100
AcDbLine
 10
-119.5000000000131
 20
12
 11
-119.5000000000131
 21
-11.99999849572912
  0
DIMENSION
  5
173
100
AcDbEntity
  8
cotation
  6
ByLayer
 62
  256
370
   -1
100
AcDbDimension
  2
*D7
 10
-149.0000000000125
 20
-11.99999849572911
 30
0
 11
-154.5000000000125
 21
1.416813285145185e-06
 31
0
 70
   32
 71
    5
  3
Standard
 53
0
210
0
220
0
230
1
100
AcDbAlignedDimension
 13
-119.5000000000131
 23
12.00000132935569
 33
0
 14
-138.5000000000121
 24
-11.99999849572912
 34
0
 50
90
100
AcDbRotatedDimension
  0
DIMENSION
  5
174
100
AcDbEntity
  8
cotation
  6
ByLayer
 62
  256
370
   -1
100
AcDbDimension
  2
*D8
 10
-120.8891890274123
 20
11.20617769862927
 30
0
 11
-122.2287641609749
 21
16.77533728168493
 31
0
 70
   35
 71
    5
  3
Standard
 53
0
210
0
220
0
230
1
100
AcDbDiametricDimension
 15
-118.1108109726138
 25
12.79382230137073
 35
0
 40
0
  0
LINE
  5
175
100
AcDbEntity
  8
axe
  6
ByLayer
 62
  256
370
   -1
100
AcDbLine
 10
-138.5000000000121
 20
-11.99999849572912
 11
-138.5000000000121
 21
12
  0
LINE
  5
176
100
AcDbEntity
  8
axe
  6
ByLayer
 62
  256
370
   -1
100
AcDbLine
 10
-83.70000000002509
 20
-50.84904754264812
 11
-83.53575238504595
 21
-51.06097334049264
  0
LINE
  5
177
100
AcDbEntity
  8
axe
  6
ByLayer
 62
  256
370
   -1
100
AcDbLine
 10
-86.00000000002458
 20
50.84904925606939
 11
-86.00000000002444
 21
-50.84904925606941
  0
CIRCLE
  5
178
100
AcDbEntity
  8
contour
  6
ByLayer
 62
  256
370
   -1
100
AcDbCircle
 10
-86.00000000002433
 20
-7.105427357601002e-15
 40
6.5
  0
CIRCLE
  5
179
100
AcDbEntity
  8
construction
  6
ByLayer
 62
  256
370
   -1
100
AcDbCircle
 10
-86.0000000000244
 20
-1.4210854715202e-14
 40
8.5
  0
LINE
  5
17A
100
AcDbEntity
  8
axe
  6
ByLayer
 62
  256
370
   -1
100
AcDbLine
 10
-43.00000000003652
 20
50.84901722254116
 11
-43.00000000003635
 21
-50.84901722254118
  0
CIRCLE
  5
17B
100
AcDbEntity
  8
construction
  6
ByLayer
 62
  256
370
   -1
100
AcDbCircle
 10
-43.00000000003644
 20
1.504271097019228e-06
 40
6.5
  0
CIRCLE
  5
17C
100
AcDbEntity
  8
construction
  6
ByLayer
 62
  256
370
   -1
100
AcDbCircle
 10
-42.85000000003675
 20
3.552713678800501e-14
 40
8.5
  0
CIRCLE
  5
17D
100
AcDbEntity
  8
contour
  6
ByLayer
 62
  256
370
   -1
100
AcDbCircle
 10
-43.00000000003654
 20
2.8421709430404e-14
 40
6.5
  0
LINE
  5
17E
100
AcDbEntity
  8
construction
  6
ByLayer
 62
  256
370
   -1
100
AcDbLine
 10
-174.3
 20
-25.00000000000016
 11
175
 21
-24.99999999999982
  0
DIMENSION
  5
17F
100
AcDbEntity
  8
cotation
  6
ByLayer
 62
  256
370
   -1
100
AcDbDimension
  2
*D9
 10
85.99999999997614
 20
-25.00003203352809
 30
0
 11
64.49999999998209
 21
-19.50003203352809
 31
0
 70
   32
 71
    5
 72
    0
  3
Standard
 53
0
210
0
220
0
230
1
100
AcDbAlignedDimension
 13
42.99999999998807
 23
25.84888908842844
 33
0
 14
85.99999999997614
 24
25.84888908842844
 34
0
100
AcDbRotatedDimension
  0
LINE
  5
180
100
AcDbEntity
  8
construction
  6
ByLayer
 62
  256
370
   -1
100
AcDbLine
 10
-174.3
 20
24.99019807844657
 11
175
 21
24.99999999999983
  0
DIMENSION
  5
181
100
AcDbEntity
  8
cotation
  6
ByLayer
 62
  256
370
   -1
100
AcDbDimension
  2
*D10
 10
-119.5132741343176
 20
24.99146926953263
 30
0
 11
-129.013274134317
 21
30.49146926953263
 31
0
 70
   32
 71
    5
  3
Standard
 53
0
210
0
220
0
230
1
100
AcDbAlignedDimension
 13
-138.5132741343165
 23
-17.00852922619649
 33
0
 14
-119.5132741343176
 24
-17.00852922619649
 34
0
100
AcDbRotatedDimension
  0
DIMENSION
  5
182
100
AcDbEntity
  8
cotation
  6
ByLayer
 62
  256
370
   -1
100
AcDbDimension
  2
*D11
 10
50.99999999998815
 20
24.99629586703381
 30
0
 11
42.50000029791175
 21
30.49629586703381
 31
0
 70
   32
 71
    5
 72
    0
  3
Standard
 53
0
210
0
220
0
230
1
100
AcDbAlignedDimension
 13
34.00000059583535
 23
12.99629586703381
 33
0
 14
50.99999999998815
 24
12.99629586703381
 34
0
100
AcDbRotatedDimension
  0
DIMENSION
  5
183
100
AcDbEntity
  8
cotation
  6
ByLayer
 62
  256
370
   -1
100
AcDbDimension
  2
*D12
 10
-140.471357735237
 20
-4.965677366735112
 30
0
 11
-131.184898041376
 21
5.047397403498775
 31
0
 70
   35
 71
    5
 72
    0
  3
Standard
 53
0
210
0
220
0
230
1
100
AcDbDiametricDimension
 15
-117.528642264788
 25
4.965677366735114
 35
0
 40
0
  0
DIMENSION
  5
184
100
AcDbEntity
  8
cotation
  6
ByLayer
 62
  256
370
   -1
100
AcDbDimension
  2
*D13
 10
-56.07714977453735
 20
22.26953792992571
 30
0
 11
-64.56243114877576
 21
21.56243114873934
 31
0
 70
   32
 71
    5
 72
    0
  3
Standard
 53
0
210
0
220
0
230
1
100
AcDbAlignedDimension
 13
-47.59619407774883
 23
-4.596194077712388
 33
0
 14
-38.40380592232403
 24
4.596194077712403
 34
0
 50
45
100
AcDbRotatedDimension
  0
DIMENSION
  5
185
100
AcDbEntity
  8
cotation
  6
ByLayer
 62
  256
370
   -1
100
AcDbDimension
  2
*D14
 10
-13.07800516682632
 20
22.27039045705872
 30
0
 11
-21.56328654106489
 21
21.56328367587217
 31
0
 70
   32
 71
    5
 72
    0
  3
Standard
 53
0
210
0
220
0
230
1
100
AcDbAlignedDimension
 13
-4.596196240082334
 23
-4.596194780535503
 33
0
 14
4.596191915342774
 24
4.596193374889625
 34
0
 50
45
100
AcDbRotatedDimension
  0
DIMENSION
  5
186
100
AcDbEntity
  8
cotation
  6
ByLayer
 62
  256
370
   -1
100
AcDbDimension
  2
*D15
 10
76.27904774624417
 20
25.63085483042935
 30
0
 11
64.43500916136949
 21
21.56499083860668
 31
0
 70
   32
 71
    5
 72
    0
  3
Standard
 53
0
210
0
220
0
230
1
100
AcDbAlignedDimension
 13
78.04504871162749
 23
-7.954951288348659
 33
0
 14
93.95495128832482
 24
7.954951288348695
 34
0
 50
45
100
AcDbRotatedDimension
  0
DIMENSION
  5
187
100
AcDbEntity
  8
cotation
  6
ByLayer
 62
  256
370
   -1
100
AcDbDimension
  2
*D16
 10
119.2781945162765
 20
25.63170806038523
 30
0
 11
107.4341559314018
 21
21.56584406856252
 31
0
 70
   32
 71
    5
 72
    0
  3
Standard
 53
0
210
0
220
0
230
1
100
AcDbAlignedDimension
 13
121.0450487116155
 23
-7.954951288348699
 33
0
 14
136.954951288313
 24
7.95495128834878
 34
0
 50
45
100
AcDbRotatedDimension
  0
DIMENSION
  5
188
100
AcDbEntity
  8
cotation
  6
ByLayer
 62
  256
370
   -1
100
AcDbDimension
  2
*D17
 10
42.99999999998806
 20
-25.0000640670563
 30
0
 11
21.49999927022061
 21
-19.5000640670563
 31
0
 70
   32
 71
    5
 72
    0
  3
Standard
 53
0
210
0
220
0
230
1
100
AcDbAlignedDimension
 13
-1.459546851378946e-06
 23
25.84888908842841
 33
0
 14
42.99999999998807
 24
25.84888908842843
 34
0
100
AcDbRotatedDimension
  0
DIMENSION
  5
189
100
AcDbEntity
  8
cotation
  6
ByLayer
 62
  256
370
   -1
100
AcDbDimension
  2
*D18
 10
128.9999999999642
 20
-24.99999999999986
 30
0
 11
107.4999999999702
 21
-19.49999999999986
 31
0
 70
   32
 71
    5
 72
    0
  3
Standard
 53
0
210
0
220
0
230
1
100
AcDbAlignedDimension
 13
85.99999999997614
 23
25.84888908842843
 33
0
 14
128.9999999999642
 24
25.84885711824062
 34
0
100
AcDbRotatedDimension
  0
DIMENSION
  5
18A
100
AcDbEntity
  8
cotation
  6
ByLayer
 62
  256
370
   -1
100
AcDbDimension
  2
*D19
 10
-86.0000000000245
 20
-25.00016016764097
 30
0
 11
-107.5000000000185
 21
-19.50016016764097
 31
0
 70
   32
 71
    5
 72
    0
  3
Standard
 53
0
210
0
220
0
230
1
100
AcDbAlignedDimension
 13
-129.0000000000126
 23
25.84889428770673
 33
0
 14
-86.0000000000245
 24
25.84886227838876
 34
0
100
AcDbRotatedDimension
  0
DIMENSION
  5
18B
100
AcDbEntity
  8
cotation
  6
ByLayer
 62
  256
370
   -1
100
AcDbDimension
  2
*D20
 10
-43.00000000003644
 20
-25.00012813411275
 30
0
 11
-64.50000000003047
 21
-19.50012813411275
 31
0
 70
   32
 71
    5
 72
    0
  3
Standard
 53
0
210
0
220
0
230
1
100
AcDbAlignedDimension
 13
-86.0000000000245
 23
25.84888908842843
 33
0
 14
-43.00000000003644
 24
25.84888908842843
 34
0
100
AcDbRotatedDimension
  0
DIMENSION
  5
18C
100
AcDbEntity
  8
cotation
  6
ByLayer
 62
  256
370
   -1
100
AcDbDimension
  2
*D21
 10
-3.113602347580861e-15
 20
-25.00009610058562
 30
0
 11
-21.50000000001821
 21
-19.50009610058562
 31
0
 70
   32
 71
    5
 72
    0
  3
Standard
 53
0
210
0
220
0
230
1
100
AcDbAlignedDimension
 13
-43.00000000003644
 23
25.84888908842843
 33
0
 14
0
 24
25.84888908842843
 34
0
100
AcDbRotatedDimension
  0
DIMENSION
  5
18D
100
AcDbEntity
  8
cotation
  6
ByLayer
 62
  256
370
   -1
100
AcDbDimension
  2
*D22
 10
175
 20
-24.99999999999985
 30
0
 11
151.9999999999821
 21
-19.49999999999985
 31
0
 70
   32
 71
    5
 72
    0
  3
Standard
 53
0
210
0
220
0
230
1
100
AcDbAlignedDimension
 13
128.9999999999642
 23
-24.99999999999986
 33
0
 14
175
 24
-24.99999999999986
 34
0
100
AcDbRotatedDimension
  0
DIMENSION
  5
18E
100
AcDbEntity
  8
cotation
  6
ByLayer
 62
  256
370
   -1
100
AcDbDimension
  2
*D23
 10
-92.86717283487961
 20
24.89429225432585
 30
0
 11
-101.2463379594784
 21
26.40743197514032
 31
0
 70
   32
 71
    5
 72
    0
  3
Standard
 53
0
210
0
220
0
230
1
100
AcDbAlignedDimension
 13
-91.62916512462311
 23
-3.249999999999879
 33
0
 14
-80.37083562756119
 24
3.25000130273698
 34
0
 50
30.00000000000002
100
AcDbRotatedDimension
  0
LINE
  5
18F
100
AcDbEntity
  8
axe
  6
ByLayer
 62
  256
370
   -1
100
AcDbLine
 10
7.105427357601002e-15
 20
100
 11
-7.105427357601002e-15
 21
-100
  0
LINE
  5
190
100
AcDbEntity
  8
axe
  6
ByLayer
 62
  256
370
   -1
100
AcDbLine
 10
-230.0000014595469
 20
0
 11
229.9999985404532
 21
0
  0
LINE
  5
191
100
AcDbEntity
  8
construction
  6
ByLayer
 62
  256
370
   -1
100
AcDbLine
 10
85.99999999997614
 20
-24.9999999999999
 11
128.9999999999642
 21
0
  0
LINE
  5
192
100
AcDbEntity
  8
construction
  6
ByLayer
 62
  256
370
   -1
100
AcDbLine
 10
128.9999999999642
 20
0
 11
85.99999999997614
 21
-0
  0
LINE
  5
193
100
AcDbEntity
  8
construction
  6
ByLayer
 62
  256
370
   -1
100
AcDbLine
 10
85.99999999997614
 20
-0
 11
128.9999999999642
 21
-24.99999999999986
  0
LINE
  5
194
100
AcDbEntity
  8
construction
  6
ByLayer
 62
  256
370
   -1
100
AcDbLine
 10
-86.00000000002457
 20
50.84904925606939
 11
-43.00000000003652
 21
50.84901722254116
  0
LINE
  5
195
100
AcDbEntity
  8
construction
  6
ByLayer
 62
  256
370
   -1
100
AcDbLine
 10
-43.00000000003652
 20
50.84901722254116
 11
-86.00000000002453
 21
24.99267591890792
  0
LINE
  5
196
100
AcDbEntity
  8
construction
  6
ByLayer
 62
  256
370
   -1
100
AcDbLine
 10
-86.00000000002453
 20
24.99267591890792
 11
-43.00000000003648
 21
24.99388256828322
  0
LINE
  5
197
100
AcDbEntity
  8
construction
  6
ByLayer
 62
  256
370
   -1
100
AcDbLine
 10
-43.00000000003648
 20
24.99388256828322
 11
-86.00000000002457
 21
50.84904925606939
  0
LINE
  5
198
100
AcDbEntity
  8
construction
  6
ByLayer
 62
  256
370
   -1
100
AcDbLine
 10
-86.00000000002447
 20
-25.00000000000006
 11
-43.00000000003635
 21
-50.84901722254118
  0
LINE
  5
199
100
AcDbEntity
  8
construction
  6
ByLayer
 62
  256
370
   -1
100
AcDbLine
 10
-43.00000000003635
 20
-50.84901722254118
 11
-86.00000000002443
 21
-50.84904925606941
  0
LINE
  5
19A
100
AcDbEntity
  8
construction
  6
ByLayer
 62
  256
370
   -1
100
AcDbLine
 10
-86.00000000002443
 20
-50.84904925606941
 11
-43.00000000003639
 21
-25.00000000000003
  0
LINE
  5
19B
100
AcDbEntity
  8
construction
  6
ByLayer
 62
  256
370
   -1
100
AcDbLine
 10
-64.49948499508366
 20
37.92115624848454
 11
-64.4999866780456
 21
-37.9245166196477
  0
LINE
  5
19C
100
AcDbEntity
  8
construction
  6
ByLayer
 62
  256
370
   -1
100
AcDbLine
 10
85.99999999997614
 20
24.9975025164091
 11
128.9999999999642
 21
50.8488890884283
  0
LINE
  5
19D
100
AcDbEntity
  8
construction
  6
ByLayer
 62
  256
370
   -1
100
AcDbLine
 10
128.9999999999642
 20
24.9987091657844
 11
85.99999999997614
 21
50.84892112195651
  0
LINE
  5
19E
100
AcDbEntity
  8
construction
  6
ByLayer
 62
  256
370
   -1
100
AcDbLine
 10
85.99999999997614
 20
-50.84892112195651
 11
128.9999999999642
 21
-24.99999999999986
  0
LINE
  5
19F
100
AcDbEntity
  8
construction
  6
ByLayer
 62
  256
370
   -1
100
AcDbLine
 10
128.9999999999642
 20
-50.84888908842829
 11
85.99999999997614
 21
-24.99999999999991
  0
LINE
  5
1A0
100
AcDbEntity
  8
construction
  6
ByLayer
 62
  256
370
   -1
100
AcDbLine
 10
107.5005151036262
 20
37.92350548018003
 11
107.500013322021
 21
-37.92445255259118
  0
MTEXT
  5
1A1
100
AcDbEntity
  8
marquage_1
  6
ByLayer
 62
  256
370
   -1
100
AcDbMText
 10
3.613037704682608e-15
 20
50.84898518901295
 30
0
 40
12
 41
260.3333493036495
 71
    5
 72
    1
  1
Systme de Cuisson Intelligente
  7
standard
210
0
220
0
230
1
 50
0
 73
    2
 44
1
  0
LWPOLYLINE
  5
1A2
100
AcDbEntity
  8
construction
  6
ByLayer
 62
  256
370
   -1
100
AcDbPolyline
 90
    4
 70
    1
 43
0
 10
175
 20
66
 10
-175
 20
66
 10
-175
 20
-66.09999999999998
 10
175
 20
-66.09999999999998
  0
CIRCLE
  5
1A3
100
AcDbEntity
  8
construction
  6
ByLayer
 62
  256
370
   -1
100
AcDbCircle
 10
-175
 20
-66.09999999999998
 40
5.08
  0
CIRCLE
  5
1A4
100
AcDbEntity
  8
construction
  6
ByLayer
 62
  256
370
   -1
100
AcDbCircle
 10
-175
 20
66
 40
5.08
  0
LINE
  5
1A5
100
AcDbEntity
  8
contour_ext
  6
ByLayer
 62
  256
370
   -1
100
AcDbLine
 10
-169.9199999999994
 20
66.00000000000105
 11
-175.0000000000005
 21
60.91999999999943
  0
LINE
  5
1A6
100
AcDbEntity
  8
contour_ext
  6
ByLayer
 62
  256
370
   -1
100
AcDbLine
 10
-175.0000000000005
 20
60.91999999999943
 11
-175
 21
-61.02000000000015
  0
LINE
  5
1A7
100
AcDbEntity
  8
contour_ext
  6
ByLayer
 62
  256
370
   -1
100
AcDbLine
 10
-175
 20
-61.02000000000015
 11
-169.9199999999997
 21
-66.09999999999998
  0
LINE
  5
1A8
100
AcDbEntity
  8
contour_ext
  6
ByLayer
 62
  256
370
   -1
100
AcDbLine
 10
-169.9199999999997
 20
-66.09999999999998
 11
169.9199999999998
 21
-66.09999999999998
  0
LINE
  5
1A9
100
AcDbEntity
  8
contour_ext
  6
ByLayer
 62
  256
370
   -1
100
AcDbLine
 10
169.9199999999998
 20
-66.09999999999998
 11
175
 21
-61.02000000000024
  0
LINE
  5
1AA
100
AcDbEntity
  8
contour_ext
  6
ByLayer
 62
  256
370
   -1
100
AcDbLine
 10
175
 20
-61.02000000000024
 11
175
 21
61.01999999999901
  0
LINE
  5
1AB
100
AcDbEntity
  8
contour_ext
  6
ByLayer
 62
  256
370
   -1
100
AcDbLine
 10
175
 20
61.01999999999901
 11
169.920984347334
 21
65.99999999999999
  0
LINE
  5
1AC
100
AcDbEntity
  8
contour_ext
  6
ByLayer
 62
  256
370
   -1
100
AcDbLine
 10
169.920984347334
 20
65.99999999999999
 11
-169.9200000000005
 21
66
  0
LINE
  5
1AD
100
AcDbEntity
  8
contour_ext
  6
ByLayer
 62
  256
370
   -1
100
AcDbLine
 10
-169.9199999999994
 20
66.00000000000105
 11
-175.0000000000005
 21
60.91999999999943
  0
LINE
  5
1AE
100
AcDbEntity
  8
contour_ext
  6
ByLayer
 62
  256
370
   -1
100
AcDbLine
 10
-175.0000000000005
 20
60.91999999999943
 11
-175
 21
-61.02000000000015
  0
LINE
  5
1AF
100
AcDbEntity
  8
contour_ext
  6
ByLayer
 62
  256
370
   -1
100
AcDbLine
 10
-175
 20
-61.02000000000015
 11
-169.9199999999997
 21
-66.09999999999998
  0
LINE
  5
1B0
100
AcDbEntity
  8
contour_ext
  6
ByLayer
 62
  256
370
   -1
100
AcDbLine
 10
-169.9199999999997
 20
-66.09999999999998
 11
169.9199999999998
 21
-66.09999999999998
  0
LINE
  5
1B1
100
AcDbEntity
  8
contour_ext
  6
ByLayer
 62
  256
370
   -1
100
AcDbLine
 10
169.9199999999998
 20
-66.09999999999998
 11
175
 21
-61.02000000000024
  0
LINE
  5
1B2
100
AcDbEntity
  8
contour_ext
  6
ByLayer
 62
  256
370
   -1
100
AcDbLine
 10
175
 20
-61.02000000000024
 11
175
 21
61.01999999999901
  0
LINE
  5
1B3
100
AcDbEntity
  8
contour_ext
  6
ByLayer
 62
  256
370
   -1
100
AcDbLine
 10
175
 20
61.01999999999901
 11
169.920984347334
 21
65.99999999999999
  0
LINE
  5
1B4
100
AcDbEntity
  8
contour_ext
  6
ByLayer
 62
  256
370
   -1
100
AcDbLine
 10
169.920984347334
 20
65.99999999999999
 11
-169.9200000000005
 21
66
  0
LINE
  5
1B5
100
AcDbEntity
  8
contour
  6
ByLayer
 62
  256
370
   -1
100
AcDbLine
 10
169.920984347334
 20
65.99999999999999
 11
175
 21
61.01999999999901
  0
LINE
  5
1B6
100
AcDbEntity
  8
contour
  6
ByLayer
 62
  256
370
   -1
100
AcDbLine
 10
175
 20
61.01999999999901
 11
175
 21
-61.02000000000024
  0
LINE
  5
1B7
100
AcDbEntity
  8
contour
  6
ByLayer
 62
  256
370
   -1
100
AcDbLine
 10
175
 20
-61.02000000000024
 11
169.9200000000009
 21
-66.09999999999997
  0
LINE
  5
1B8
100
AcDbEntity
  8
contour
  6
ByLayer
 62
  256
370
   -1
100
AcDbLine
 10
169.9200000000009
 20
-66.09999999999997
 11
-169.9199999999997
 21
-66.09999999999998
  0
LINE
  5
1B9
100
AcDbEntity
  8
contour
  6
ByLayer
 62
  256
370
   -1
100
AcDbLine
 10
-169.9199999999997
 20
-66.09999999999998
 11
-175
 21
-61.02000000000015
  0
LINE
  5
1BA
100
AcDbEntity
  8
contour
  6
ByLayer
 62
  256
370
   -1
100
AcDbLine
 10
-174.999999999998
 20
-61.02000000000216
 11
-175
 21
60.91999999999987
  0
LINE
  5
1BB
100
AcDbEntity
  8
contour
  6
ByLayer
 62
  256
370
   -1
100
AcDbLine
 10
-175
 20
60.91999999999987
 11
-169.9200000000005
 21
66
  0
LINE
  5
1BC
100
AcDbEntity
  8
contour
  6
ByLayer
 62
  256
370
   -1
100
AcDbLine
 10
-169.9200000000005
 20
66
 11
169.920984347336
 21
65.99999999999801
  0
DIMENSION
  5
1BD
100
AcDbEntity
  8
cotation
  6
ByLayer
 62
  256
370
   -1
100
AcDbDimension
  2
*D24
 10
175
 20
81.70647820897622
 30
0
 11
5.119275476170377e-13
 21
87.20647820897622
 31
0
 70
   32
 71
    5
  3
Standard
 53
0
210
0
220
0
230
1
100
AcDbAlignedDimension
 13
-174.999999999999
 23
0
 33
0
 14
175
 24
0
 34
0
100
AcDbRotatedDimension
  0
LINE
  5
1BE
100
AcDbEntity
  8
axe
  6
ByLayer
 62
  256
370
   -1
100
AcDbLine
 10
-169.9200000000005
 20
66
 11
-169.919999999999
 21
-66.09999999999997
  0
CIRCLE
  5
1BF
100
AcDbEntity
  8
contour
  6
ByLayer
 62
  256
370
   -1
100
AcDbCircle
 10
-169.9199999999997
 20
50.84911733149271
 40
2
  0
CIRCLE
  5
1C0
100
AcDbEntity
  8
contour
  6
ByLayer
 62
  256
370
   -1
100
AcDbCircle
 10
-169.9199999999992
 20
-50.84911177359704
 40
2
  0
DIMENSION
  5
1C1
100
AcDbEntity
  8
cotation
  6
ByLayer
 62
  256
370
   -1
100
AcDbDimension
  2
*D25
 10
-171.7018960756515
 20
49.94090679666259
 30
0
 11
-172.4175789707825
 21
55.74933153953538
 31
0
 70
   35
 71
    5
 72
    0
  3
Standard
 53
0
210
0
220
0
230
1
100
AcDbDiametricDimension
 15
-168.1381039243478
 25
51.75732786632282
 35
0
 40
0
  0
DIMENSION
  5
1C2
100
AcDbEntity
  8
cotation
  6
ByLayer
 62
  256
370
   -1
100
AcDbDimension
  2
*D26
 10
-175.0132741343024
 20
24.99034530924479
 30
0
 11
-172.4732741343032
 21
30.49034530924479
 31
0
 70
   32
 71
    5
  3
Standard
 53
0
210
0
220
0
230
1
100
AcDbAlignedDimension
 13
-169.9332741343039
 23
24.99033791923037
 33
0
 14
-175.0132741343024
 24
24.99034010996649
 34
0
100
AcDbRotatedDimension
  0
DIMENSION
  5
1C3
100
AcDbEntity
  8
cotation
  6
ByLayer
 62
  256
370
   -1
100
AcDbDimension
  2
*D27
 10
-129.0000000000126
 20
-25.00000000000011
 30
0
 11
-152.0000000000063
 21
-19.50000000000011
 31
0
 70
   32
 71
    5
  3
Standard
 53
0
210
0
220
0
230
1
100
AcDbAlignedDimension
 13
-175
 23
0
 33
0
 14
-129.0000000000126
 24
-25.00000000000011
 34
0
100
AcDbRotatedDimension
  0
DIMENSION
  5
1C4
100
AcDbEntity
  8
cotation
  6
ByLayer
 62
  256
370
   -1
100
AcDbDimension
  2
*D28
 10
-180
 20
-66.09999999999829
 30
0
 11
-185.5
 21
-63.55999999999922
 31
0
 70
   32
 71
    5
  3
Standard
 53
0
210
0
220
0
230
1
100
AcDbAlignedDimension
 13
-175
 23
-61.02000000000015
 33
0
 14
-169.9200000000014
 24
-66.09999999999829
 34
0
 50
90
100
AcDbRotatedDimension
  0
MTEXT
  5
1C5
100
AcDbEntity
  8
marquage_1
  6
ByLayer
 62
  256
370
   -1
100
AcDbMText
 10
3.492389686362944e-15
 20
-40.84898518901296
 30
0
 40
12
 41
114.3333333333341
 71
    5
 72
    1
  1
Prototype N%%D3
  7
standard
210
0
220
0
230
1
 50
0
 73
    2
 44
1
  0
MTEXT
  5
1C6
100
AcDbEntity
  8
marquage_2
  6
ByLayer
 62
  256
370
   -1
100
AcDbMText
 10
-129.0000000000126
 20
24.99146926953263
 30
0
 40
8
 41
18.66666497064947
 71
    5
 72
    1
  1
USB
  7
standard
210
0
220
0
230
1
 50
0
 73
    2
 44
1
  0
MTEXT
  5
1C7
100
AcDbEntity
  8
marquage_2
  6
ByLayer
 62
  256
370
   -1
100
AcDbMText
 10
-86.00000000002453
 20
24.99267591890792
 30
0
 40
8
 41
29.33333333333383
 71
    5
 72
    1
  1
Direct
  7
standard
210
0
220
0
230
1
 50
0
 73
    2
 44
1
  0
MTEXT
  5
1C8
100
AcDbEntity
  8
marquage_2
  6
ByLayer
 62
  256
370
   -1
100
AcDbMText
 10
-43.00000000003648
 20
24.99388256828322
 30
0
 40
8
 41
39.99999830398281
 71
    5
 72
    1
  1
Secouru
  7
standard
210
0
220
0
230
1
 50
0
 73
    2
 44
1
  0
MTEXT
  5
1C9
100
AcDbEntity
  8
marquage_2
  6
ByLayer
 62
  256
370
   -1
100
AcDbMText
 10
0
 20
24.99508921765852
 30
0
 40
8
 41
18.66666666666753
 71
    5
 72
    1
  1
Dich
  7
standard
210
0
220
0
230
1
 50
0
 73
    2
 44
1
  0
MTEXT
  5
1CA
100
AcDbEntity
  8
marquage_2
  6
ByLayer
 62
  256
370
   -1
100
AcDbMText
 10
42.99999999998807
 20
24.99629586703381
 30
0
 40
8
 41
33.77778019605853
 71
    5
 72
    1
  1
Status
  7
standard
210
0
220
0
230
1
 50
0
 73
    2
 44
1
  0
MTEXT
  5
1CB
100
AcDbEntity
  8
marquage_2
  6
ByLayer
 62
  256
370
   -1
100
AcDbMText
 10
108.1971001188948
 20
-24.59476668979654
 30
0
 40
8
 41
28.44444855874202
 71
    5
 72
    1
  1
Reset
  7
standard
210
0
220
0
230
1
 50
0
 73
    2
 44
1
  0
MTEXT
  5
1CC
100
AcDbEntity
  8
marquage_2
  6
ByLayer
 62
  256
370
   -1
100
AcDbMText
 10
-64.50008548954531
 20
-25.42451661964768
 30
0
 40
8
 41
24.0000000000005
 71
    5
 72
    1
  1
230V
  7
standard
210
0
220
0
230
1
 50
0
 73
    2
 44
1
  0
MTEXT
  5
1CD
100
AcDbEntity
  8
marquage_3
  6
ByLayer
 62
  256
370
   -1
100
AcDbMText
 10
85.99999999997614
 20
24.9975025164091
 30
0
 40
6
 41
37.33333333333417
 71
    5
 72
    1
  1
e-poigne
  7
standard
210
0
220
0
230
1
 50
0
 73
    2
 44
1
  0
MTEXT
  5
1CE
100
AcDbEntity
  8
marquage_3
  6
ByLayer
 62
  256
370
   -1
100
AcDbMText
 10
128.9999999999642
 20
24.99870916578438
 30
0
 40
6
 41
38.00000000000028
 71
    5
 72
    1
  1
e-rupteur
  7
standard
210
0
220
0
230
1
 50
0
 73
    2
 44
1
  0
ENDSEC
  0
SECTION
  2
OBJECTS
  0
DICTIONARY
  5
C
330
0
100
AcDbDictionary
281
    1
  3
ACAD_GROUP
350
D
  0
DICTIONARY
  5
D
330
C
100
AcDbDictionary
281
    1
  0
ENDSEC
  0
EOF
