999
dxfrw 0.5.10
0
SECTION
2
HEADER
9
$ACADVER
1
AC1021
9
$HANDSEED
5
20000
9
$DWGCODEPAGE
3
ANSI_932
9
$INSBASE
10
0
20
0
30
0
9
$EXTMIN
10
16.8416383332
20
0.137418835038
30
0
9
$EXTMAX
10
193.381514582
20
296.901055286
30
0
9
$LIMMIN
10
0
20
0
9
$LIMMAX
10
12
20
9
9
$ORTHOMODE
70
0
9
$LTSCALE
40
1
9
$TEXTSTYLE
7
Standard
9
$CLAYER
8
Layer 2
9
$DIMASZ
40
0.18
9
$DIMLFAC
40
1
9
$DIMSCALE
40
1
9
$DIMEXO
40
0.0625
9
$DIMEXE
40
0.18
9
$DIMTXT
40
0.18
9
$DIMTSZ
40
0
9
$DIMAUNIT
70
0
9
$DIMADEC
70
0
9
$DIMLUNIT
70
2
9
$DIMSTYLE
2
Standard
9
$DIMGAP
40
0.09
9
$DIMTIH
70
1
9
$LUNITS
70
2
9
$LUPREC
70
4
9
$AUNITS
70
0
9
$AUPREC
70
0
9
$SPLINESEGS
70
8
9
$GRIDMODE
70
0
9
$SNAPSTYLE
70
0
9
$GRIDUNIT
10
0
20
0
9
$PINSBASE
10
0
20
0
30
0
9
$PLIMMIN
10
0
20
0
9
$PLIMMAX
10
12.0000014
20
9.0000074
9
$INSUNITS
70
1
9
$PSVPSCALE
40
0
0
ENDSEC
0
SECTION
2
CLASSES
0
ENDSEC
0
SECTION
2
TABLES
0
TABLE
2
VPORT
5
8
330
0
100
AcDbSymbolTable
70
1
0
VPORT
5
31
330
2
100
AcDbSymbolTableRecord
100
AcDbViewportTableRecord
2
*ACTIVE
70
0
10
0
20
0
11
1
21
1
12
154.976565702
22
150.580067384
13
0
23
0
14
10
24
10
15
10
25
10
16
0
26
0
36
1
17
0
27
0
37
0
40
305.556633086
41
1.33956834532
42
50
43
0
44
0
50
0
51
0
71
0
72
100
73
1
74
3
75
0
76
0
77
0
78
0
281
0
65
1
110
0
120
0
130
0
111
1
121
0
131
0
112
0
122
1
132
0
79
0
146
0
348
10020
60
7
61
5
292
1
282
1
141
0
142
0
63
250
421
3358443
0
ENDTAB
0
TABLE
2
LTYPE
5
5
330
0
100
AcDbSymbolTable
70
4
0
LTYPE
5
14
330
5
100
AcDbSymbolTableRecord
100
AcDbLinetypeTableRecord
2
ByBlock
70
0
3

72
65
73
0
40
0
0
LTYPE
5
15
330
5
100
AcDbSymbolTableRecord
100
AcDbLinetypeTableRecord
2
ByLayer
70
0
3

72
65
73
0
40
0
0
LTYPE
5
16
330
5
100
AcDbSymbolTableRecord
100
AcDbLinetypeTableRecord
2
Continuous
70
0
3
Solid line
72
65
73
0
40
0
0
LTYPE
5
32
330
5
100
AcDbSymbolTableRecord
100
AcDbLinetypeTableRecord
2
DOT
70
0
3
Dot . . . . . . . . . . . . . . . . . . . . . .
72
65
73
2
40
6.35
49
0
74
0
49
-6.35
74
0
0
LTYPE
5
33
330
5
100
AcDbSymbolTableRecord
100
AcDbLinetypeTableRecord
2
DOT2
70
0
3
Dot (.5x) .....................................
72
65
73
2
40
3.175
49
0
74
0
49
-3.175
74
0
0
LTYPE
5
34
330
5
100
AcDbSymbolTableRecord
100
AcDbLinetypeTableRecord
2
DOTX2
70
0
3
Dot (2x) .  .  .  .  .  .  .  .  .  .  .  .  .
72
65
73
2
40
12.7
49
0
74
0
49
-12.7
74
0
0
LTYPE
5
35
330
5
100
AcDbSymbolTableRecord
100
AcDbLinetypeTableRecord
2
DASHED
70
0
3
Dot . . . . . . . . . . . . . . . . . . . . . .
72
65
73
2
40
19.05
49
12.7
74
0
49
-6.35
74
0
0
LTYPE
5
36
330
5
100
AcDbSymbolTableRecord
100
AcDbLinetypeTableRecord
2
DASHED2
70
0
3
Dashed (.5x) _ _ _ _ _ _ _ _ _ _ _ _ _ _ _ _ _
72
65
73
2
40
9.525
49
6.35
74
0
49
-3.175
74
0
0
LTYPE
5
37
330
5
100
AcDbSymbolTableRecord
100
AcDbLinetypeTableRecord
2
DASHEDX2
70
0
3
Dashed (2x) ____  ____  ____  ____  ____  ___
72
65
73
2
40
38.1
49
25.4
74
0
49
-12.7
74
0
0
LTYPE
5
38
330
5
100
AcDbSymbolTableRecord
100
AcDbLinetypeTableRecord
2
DASHDOT
70
0
3
Dash dot __ . __ . __ . __ . __ . __ . __ . __
72
65
73
4
40
25.4
49
12.7
74
0
49
-6.35
74
0
49
0
74
0
49
-6.35
74
0
0
LTYPE
5
39
330
5
100
AcDbSymbolTableRecord
100
AcDbLinetypeTableRecord
2
DASHDOT2
70
0
3
Dash dot (.5x) _._._._._._._._._._._._._._._.
72
65
73
4
40
12.7
49
6.35
74
0
49
-3.175
74
0
49
0
74
0
49
-3.175
74
0
0
LTYPE
5
3A
330
5
100
AcDbSymbolTableRecord
100
AcDbLinetypeTableRecord
2
DASHDOTX2
70
0
3
Dash dot (2x) ____  .  ____  .  ____  .  ___
72
65
73
4
40
50.8
49
25.4
74
0
49
-12.7
74
0
49
0
74
0
49
-12.7
74
0
0
LTYPE
5
3B
330
5
100
AcDbSymbolTableRecord
100
AcDbLinetypeTableRecord
2
DIVIDE
70
0
3
Divide ____ . . ____ . . ____ . . ____ . . ____
72
65
73
6
40
31.75
49
12.7
74
0
49
-6.35
74
0
49
0
74
0
49
-6.35
74
0
49
0
74
0
49
-6.35
74
0
0
LTYPE
5
3C
330
5
100
AcDbSymbolTableRecord
100
AcDbLinetypeTableRecord
2
DIVIDE2
70
0
3
Divide (.5x) __..__..__..__..__..__..__..__.._
72
65
73
6
40
15.875
49
6.35
74
0
49
-3.175
74
0
49
0
74
0
49
-3.175
74
0
49
0
74
0
49
-3.175
74
0
0
LTYPE
5
3D
330
5
100
AcDbSymbolTableRecord
100
AcDbLinetypeTableRecord
2
DIVIDEX2
70
0
3
Divide (2x) ________  .  .  ________  .  .  _
72
65
73
6
40
63.5
49
25.4
74
0
49
-12.7
74
0
49
0
74
0
49
-12.7
74
0
49
0
74
0
49
-12.7
74
0
0
LTYPE
5
3E
330
5
100
AcDbSymbolTableRecord
100
AcDbLinetypeTableRecord
2
BORDER
70
0
3
Border __ __ . __ __ . __ __ . __ __ . __ __ .
72
65
73
6
40
44.45
49
12.7
74
0
49
-6.35
74
0
49
12.7
74
0
49
-6.35
74
0
49
0
74
0
49
-6.35
74
0
0
LTYPE
5
3F
330
5
100
AcDbSymbolTableRecord
100
AcDbLinetypeTableRecord
2
BORDER2
70
0
3
Border (.5x) __.__.__.__.__.__.__.__.__.__.__.
72
65
73
6
40
22.225
49
6.35
74
0
49
-3.175
74
0
49
6.35
74
0
49
-3.175
74
0
49
0
74
0
49
-3.175
74
0
0
LTYPE
5
40
330
5
100
AcDbSymbolTableRecord
100
AcDbLinetypeTableRecord
2
BORDERX2
70
0
3
Border (2x) ____  ____  .  ____  ____  .  ___
72
65
73
6
40
88.9
49
25.4
74
0
49
-12.7
74
0
49
25.4
74
0
49
-12.7
74
0
49
0
74
0
49
-12.7
74
0
0
LTYPE
5
41
330
5
100
AcDbSymbolTableRecord
100
AcDbLinetypeTableRecord
2
CENTER
70
0
3
Center ____ _ ____ _ ____ _ ____ _ ____ _ ____
72
65
73
4
40
50.8
49
31.75
74
0
49
-6.35
74
0
49
6.35
74
0
49
-6.35
74
0
0
LTYPE
5
42
330
5
100
AcDbSymbolTableRecord
100
AcDbLinetypeTableRecord
2
CENTER2
70
0
3
Center (.5x) ___ _ ___ _ ___ _ ___ _ ___ _ ___
72
65
73
4
40
28.575
49
19.05
74
0
49
-3.175
74
0
49
3.175
74
0
49
-3.175
74
0
0
LTYPE
5
43
330
5
100
AcDbSymbolTableRecord
100
AcDbLinetypeTableRecord
2
CENTERX2
70
0
3
Center (2x) ________  __  ________  __  _____
72
65
73
4
40
101.6
49
63.5
74
0
49
-12.7
74
0
49
12.7
74
0
49
-12.7
74
0
0
ENDTAB
0
TABLE
2
LAYER
5
2
330
0
100
AcDbSymbolTable
70
1
0
LAYER
5
10
330
2
100
AcDbSymbolTableRecord
100
AcDbLayerTableRecord
2
0
70
0
62
7
6
CONTINUOUS
370
50
390
F
0
LAYER
5
44
330
2
100
AcDbSymbolTableRecord
100
AcDbLayerTableRecord
2
Layer 1
70
0
62
7
6
CONTINUOUS
370
25
390
F
0
LAYER
5
45
330
2
100
AcDbSymbolTableRecord
100
AcDbLayerTableRecord
2
Layer 2
70
0
62
7
6
CONTINUOUS
370
70
390
F
0
ENDTAB
0
TABLE
2
STYLE
5
3
330
0
100
AcDbSymbolTable
70
3
0
STYLE
5
46
330
2
100
AcDbSymbolTableRecord
100
AcDbTextStyleTableRecord
2
Standard
70
0
40
0
41
1
50
0
71
0
42
1
3
txt
4

0
ENDTAB
0
TABLE
2
VIEW
5
6
330
0
100
AcDbSymbolTable
70
0
0
ENDTAB
0
TABLE
2
UCS
5
7
330
0
100
AcDbSymbolTable
70
0
0
ENDTAB
0
TABLE
2
APPID
5
9
330
0
100
AcDbSymbolTable
70
1
0
APPID
5
12
330
9
100
AcDbSymbolTableRecord
100
AcDbRegAppTableRecord
2
ACAD
70
0
0
ENDTAB
0
TABLE
2
DIMSTYLE
5
A
330
0
100
AcDbSymbolTable
70
1
100
AcDbDimStyleTable
71
1
0
DIMSTYLE
105
47
330
A
100
AcDbSymbolTableRecord
100
AcDbDimStyleTableRecord
2
Standard
70
0
40
1
41
0.18
42
0.0625
43
0.38
44
0.18
45
0
46
0
47
0
48
0
140
0.18
141
0.09
142
0
143
25.4
144
1
145
0
146
1
147
0.09
148
0
71
0
72
0
73
0
74
1
75
0
76
0
77
0
78
0
79
0
170
0
171
2
172
0
173
0
174
0
175
0
176
0
177
0
178
0
179
0
271
4
272
4
273
2
274
2
275
0
276
0
277
2
278
46
279
0
280
0
281
0
282
0
283
1
284
0
285
0
286
0
288
0
289
3
340
Standard
341

371
-2
372
-2
0
ENDTAB
0
TABLE
2
BLOCK_RECORD
5
1
330
0
100
AcDbSymbolTable
70
2
0
BLOCK_RECORD
5
1F
330
1
100
AcDbSymbolTableRecord
100
AcDbBlockTableRecord
2
*Model_Space
70
0
280
1
281
0
0
BLOCK_RECORD
5
1E
330
1
100
AcDbSymbolTableRecord
100
AcDbBlockTableRecord
2
*Paper_Space
70
0
280
1
281
0
0
BLOCK_RECORD
5
48
330
1
100
AcDbSymbolTableRecord
100
AcDbBlockTableRecord
2
block 2
70
0
280
1
281
0
0
BLOCK_RECORD
5
4B
330
1
100
AcDbSymbolTableRecord
100
AcDbBlockTableRecord
2
block 3
70
0
280
1
281
0
0
BLOCK_RECORD
5
4E
330
1
100
AcDbSymbolTableRecord
100
AcDbBlockTableRecord
2
block 4
70
0
280
1
281
0
0
BLOCK_RECORD
5
51
330
1
100
AcDbSymbolTableRecord
100
AcDbBlockTableRecord
2
block 5
70
0
280
1
281
0
0
BLOCK_RECORD
5
54
330
1
100
AcDbSymbolTableRecord
100
AcDbBlockTableRecord
2
block 6
70
0
280
1
281
0
0
BLOCK_RECORD
5
57
330
1
100
AcDbSymbolTableRecord
100
AcDbBlockTableRecord
2
block 7
70
0
280
1
281
0
0
BLOCK_RECORD
5
5A
330
1
100
AcDbSymbolTableRecord
100
AcDbBlockTableRecord
2
block 8
70
0
280
1
281
0
0
ENDTAB
0
ENDSEC
0
SECTION
2
BLOCKS
0
BLOCK
5
20
330
1F
100
AcDbEntity
8
0
100
AcDbBlockBegin
2
*Model_Space
70
0
10
0
20
0
30
0
3
*Model_Space
1

0
ENDBLK
5
21
330
1F
100
AcDbEntity
8
0
100
AcDbBlockEnd
0
BLOCK
5
1C
330
1B
100
AcDbEntity
8
0
100
AcDbBlockBegin
2
*Paper_Space
70
0
10
0
20
0
30
0
3
*Paper_Space
1

0
ENDBLK
5
1D
330
1F
100
AcDbEntity
8
0
100
AcDbBlockEnd
0
BLOCK
5
49
330
48
100
AcDbEntity
8
0
100
AcDbBlockBegin
2
block 2
70
0
10
0
20
0
3
block 2
1

0
INSERT
5
5D
100
AcDbEntity
8
Layer 1
6
ByLayer
62
256
370
-1
100
AcDbBlockReference
2
block 3
10
0
20
0
30
0
41
1
42
1
43
0
50
0
70
1
71
1
44
0
45
0
0
INSERT
5
5E
100
AcDbEntity
8
Layer 1
6
ByLayer
62
256
370
-1
100
AcDbBlockReference
2
block 8
10
0
20
0
30
0
41
1
42
1
43
0
50
0
70
1
71
1
44
0
45
0
0
ENDBLK
5
4A
330
48
100
AcDbEntity
8
0
100
AcDbBlockEnd
0
BLOCK
5
4C
330
4B
100
AcDbEntity
8
0
100
AcDbBlockBegin
2
block 3
70
0
10
0
20
0
3
block 3
1

0
INSERT
5
5F
100
AcDbEntity
8
Layer 1
6
ByLayer
62
256
370
-1
100
AcDbBlockReference
2
block 4
10
0
20
0
30
0
41
1
42
1
43
0
50
0
70
1
71
1
44
0
45
0
0
INSERT
5
60
100
AcDbEntity
8
Layer 1
6
ByLayer
62
256
370
-1
100
AcDbBlockReference
2
block 5
10
0
20
0
30
0
41
1
42
1
43
0
50
0
70
1
71
1
44
0
45
0
0
INSERT
5
61
100
AcDbEntity
8
Layer 1
6
ByLayer
62
256
370
-1
100
AcDbBlockReference
2
block 6
10
0
20
0
30
0
41
1
42
1
43
0
50
0
70
1
71
1
44
0
45
0
0
INSERT
5
62
100
AcDbEntity
8
Layer 1
6
ByLayer
62
256
370
-1
100
AcDbBlockReference
2
block 7
10
0
20
0
30
0
41
1
42
1
43
0
50
0
70
1
71
1
44
0
45
0
0
ENDBLK
5
4D
330
4B
100
AcDbEntity
8
0
100
AcDbBlockEnd
0
BLOCK
5
4F
330
4E
100
AcDbEntity
8
0
100
AcDbBlockBegin
2
block 4
70
0
10
0
20
0
3
block 4
1

0
SPLINE
5
63
100
AcDbEntity
8
Layer 1
6
ByLayer
62
7
420
1709851
370
9
100
AcDbSpline
210
0
220
0
230
1
70
11
71
3
72
92
73
88
74
0
42
1e-007
43
1e-007
40
0
40
0
40
0
40
0
40
0.0117647058824
40
0.0235294117647
40
0.0352941176471
40
0.0470588235294
40
0.0588235294118
40
0.0705882352941
40
0.0823529411765
40
0.0941176470588
40
0.105882352941
40
0.117647058824
40
0.129411764706
40
0.141176470588
40
0.152941176471
40
0.164705882353
40
0.176470588235
40
0.188235294118
40
0.2
40
0.211764705882
40
0.223529411765
40
0.235294117647
40
0.247058823529
40
0.258823529412
40
0.270588235294
40
0.282352941176
40
0.294117647059
40
0.305882352941
40
0.317647058824
40
0.329411764706
40
0.341176470588
40
0.352941176471
40
0.364705882353
40
0.376470588235
40
0.388235294118
40
0.4
40
0.411764705882
40
0.423529411765
40
0.435294117647
40
0.447058823529
40
0.458823529412
40
0.470588235294
40
0.482352941176
40
0.494117647059
40
0.505882352941
40
0.517647058824
40
0.529411764706
40
0.541176470588
40
0.552941176471
40
0.564705882353
40
0.576470588235
40
0.588235294118
40
0.6
40
0.611764705882
40
0.623529411765
40
0.635294117647
40
0.647058823529
40
0.658823529412
40
0.670588235294
40
0.682352941176
40
0.694117647059
40
0.705882352941
40
0.717647058824
40
0.729411764706
40
0.741176470588
40
0.752941176471
40
0.764705882353
40
0.776470588235
40
0.788235294118
40
0.8
40
0.811764705882
40
0.823529411765
40
0.835294117647
40
0.847058823529
40
0.858823529412
40
0.870588235294
40
0.882352941176
40
0.894117647059
40
0.905882352941
40
0.917647058824
40
0.929411764706
40
0.941176470588
40
0.952941176471
40
0.964705882353
40
0.976470588235
40
0.988235294118
40
1
40
1
40
1
40
1
10
185.80445738
20
130.824486771
30
0
10
185.80445738
20
130.824486771
30
0
10
155.588882984
20
149.491748972
30
0
10
155.588882984
20
149.491748972
30
0
10
155.588882984
20
149.491748972
30
0
10
146.543089801
20
192.593711532
30
0
10
146.543089801
20
192.593711532
30
0
10
144.964890518
20
200.057171315
30
0
10
137.645435822
20
204.839483767
30
0
10
130.177841921
20
203.278682228
30
0
10
130.16475055
20
203.270069484
30
0
10
130.155793296
20
203.270069484
30
0
10
130.143046434
20
203.270069484
30
0
10
130.143046434
20
203.270069484
30
0
10
79.2679098032
20
203.017199308
30
0
10
79.2679098032
20
203.017199308
30
0
10
79.263603431
20
203.025812053
30
0
10
79.2548184317
20
203.025812053
30
0
10
79.2417270602
20
203.025812053
30
0
10
71.7610417886
20
204.525463107
30
0
10
64.4894739508
20
199.673387424
30
0
10
62.9896506419
20
192.183917153
30
0
10
62.9896506419
20
192.183917153
30
0
10
54.3579582093
20
148.994793621
30
0
10
54.3579582093
20
148.994793621
30
0
10
54.3579582093
20
148.994793621
30
0
10
24.3168780148
20
130.035559384
30
0
10
24.3168780148
20
130.035559384
30
0
10
17.8648989337
20
125.963798344
30
0
10
15.9380557577
20
117.436492373
30
0
10
20.0055104256
20
110.975900548
30
0
10
22.6516900135
20
106.799408536
30
0
10
27.1680409193
20
104.515308722
30
0
10
31.7760314254
20
104.532534211
30
0
10
33.4674021697
20
104.541146956
30
0
10
35.1632515411
20
104.890135358
30
0
10
36.793644055
20
105.544014913
30
0
10
36.6585962229
20
99.4014056105
30
0
10
40.6518090342
20
93.7080370557
30
0
10
46.8423051955
20
91.9641285706
30
0
10
46.8423051955
20
91.9641285706
30
0
10
54.2751036083
20
89.862963448
30
0
10
54.2751036083
20
89.862963448
30
0
10
54.2751036083
20
89.862963448
30
0
10
50.7614484049
20
88.8821441163
30
0
10
50.7614484049
20
88.8821441163
30
0
10
43.4201173376
20
86.8157744811
30
0
10
39.1390666087
20
79.1866054961
30
0
10
41.1968234995
20
71.8364894295
30
0
10
42.923161986
20
65.7204073798
30
0
10
48.4988804524
20
61.7313286858
30
0
10
54.5629415259
20
61.7575114288
30
0
10
55.7747546623
20
61.7661241732
30
0
10
57.0086164243
20
61.9318333753
30
0
10
58.2423059314
20
62.2808217782
30
0
10
58.2423059314
20
62.2808217782
30
0
10
105.328696303
20
75.5117197177
30
0
10
105.328696303
20
75.5117197177
30
0
10
105.328696303
20
75.5117197177
30
0
10
152.554785389
20
62.7341966432
30
0
10
152.554785389
20
62.7341966432
30
0
10
153.779862151
20
62.3982996118
30
0
10
155.022164403
20
62.2501604082
30
0
10
156.234149794
20
62.2501604082
30
0
10
162.298210868
20
62.2849558955
30
0
10
167.839306102
20
66.3350128198
30
0
10
169.495709104
20
72.4645307507
30
0
10
171.488009137
20
79.8318723061
30
0
10
167.137195179
20
87.4128099225
30
0
10
159.769853623
20
89.4140672101
30
0
10
159.769853623
20
89.4140672101
30
0
10
156.243107048
20
90.3642251718
30
0
10
156.243107048
20
90.3642251718
30
0
10
156.243107048
20
90.3642251718
30
0
10
163.66281409
20
92.5353257789
30
0
10
163.66281409
20
92.5353257789
30
0
10
169.831261625
20
94.3357338672
30
0
10
173.763496206
20
100.059763792
30
0
10
173.576082888
20
106.206507212
30
0
10
175.211126284
20
105.570197656
30
0
10
176.906803401
20
105.243257879
30
0
10
178.5983464
20
105.247391996
30
0
10
183.206164651
20
105.269440622
30
0
10
187.700983696
20
107.601771804
30
0
10
190.298931915
20
111.808580676
30
0
10
194.305580608
20
118.299833872
30
0
10
192.295710576
20
126.813703961
30
0
10
185.80445738
20
130.824486771
30
0
0
ENDBLK
5
50
330
4E
100
AcDbEntity
8
0
100
AcDbBlockEnd
0
BLOCK
5
52
330
51
100
AcDbEntity
8
0
100
AcDbBlockBegin
2
block 5
70
0
10
0
20
0
3
block 5
1

0
SPLINE
5
64
100
AcDbEntity
8
Layer 1
6
ByLayer
62
7
420
1709851
370
9
100
AcDbSpline
210
0
220
0
230
1
70
11
71
3
72
17
73
13
74
0
42
1e-007
43
1e-007
40
0
40
0
40
0
40
0
40
0.1
40
0.2
40
0.3
40
0.4
40
0.5
40
0.6
40
0.7
40
0.8
40
0.9
40
1
40
1
40
1
40
1
10
76.2164144641
20
112.388390629
30
0
10
76.2164144641
20
112.388390629
30
0
10
56.8036331077
20
117.863684495
30
0
10
56.8036331077
20
117.863684495
30
0
10
56.8036331077
20
117.863684495
30
0
10
74.1150770866
20
128.792912623
30
0
10
74.1150770866
20
128.792912623
30
0
10
74.8430262428
20
129.250766115
30
0
10
75.5101694237
20
129.773731954
30
0
10
76.133559863
20
130.353541907
30
0
10
76.133559863
20
130.353541907
30
0
10
76.2164144641
20
112.388390629
30
0
10
76.2164144641
20
112.388390629
30
0
0
ENDBLK
5
53
330
51
100
AcDbEntity
8
0
100
AcDbBlockEnd
0
BLOCK
5
55
330
54
100
AcDbEntity
8
0
100
AcDbBlockBegin
2
block 6
70
0
10
0
20
0
3
block 6
1

0
SPLINE
5
65
100
AcDbEntity
8
Layer 1
6
ByLayer
62
7
420
1709851
370
9
100
AcDbSpline
210
0
220
0
230
1
70
11
71
3
72
17
73
13
74
0
42
1e-007
43
1e-007
40
0
40
0
40
0
40
0
40
0.1
40
0.2
40
0.3
40
0.4
40
0.5
40
0.6
40
0.7
40
0.8
40
0.9
40
1
40
1
40
1
40
1
10
134.079415132
20
112.667443547
30
0
10
134.079415132
20
112.667443547
30
0
10
133.987775532
20
130.64155208
30
0
10
133.987775532
20
130.64155208
30
0
10
134.615816853
20
130.070354871
30
0
10
135.291400524
20
129.542910405
30
0
10
136.028306934
20
129.093669657
30
0
10
136.028306934
20
129.093669657
30
0
10
153.448443747
20
118.334629359
30
0
10
153.448443747
20
118.334629359
30
0
10
153.448443747
20
118.334629359
30
0
10
134.079415132
20
112.667443547
30
0
10
134.079415132
20
112.667443547
30
0
0
ENDBLK
5
56
330
54
100
AcDbEntity
8
0
100
AcDbBlockEnd
0
BLOCK
5
58
330
57
100
AcDbEntity
8
0
100
AcDbBlockBegin
2
block 7
70
0
10
0
20
0
3
block 7
1

0
SPLINE
5
66
100
AcDbEntity
8
Layer 1
6
ByLayer
62
7
420
1709851
370
9
100
AcDbSpline
210
0
220
0
230
1
70
11
71
3
72
59
73
55
74
0
42
1e-007
43
1e-007
40
0
40
0
40
0
40
0
40
0.0192307692308
40
0.0384615384615
40
0.0576923076923
40
0.0769230769231
40
0.0961538461538
40
0.115384615385
40
0.134615384615
40
0.153846153846
40
0.173076923077
40
0.192307692308
40
0.211538461538
40
0.230769230769
40
0.25
40
0.269230769231
40
0.288461538462
40
0.307692307692
40
0.326923076923
40
0.346153846154
40
0.365384615385
40
0.384615384615
40
0.403846153846
40
0.423076923077
40
0.442307692308
40
0.461538461538
40
0.480769230769
40
0.5
40
0.519230769231
40
0.538461538462
40
0.557692307692
40
0.576923076923
40
0.596153846154
40
0.615384615385
40
0.634615384615
40
0.653846153846
40
0.673076923077
40
0.692307692308
40
0.711538461538
40
0.730769230769
40
0.75
40
0.769230769231
40
0.788461538462
40
0.807692307692
40
0.826923076923
40
0.846153846154
40
0.865384615385
40
0.884615384615
40
0.903846153846
40
0.923076923077
40
0.942307692308
40
0.961538461538
40
0.980769230769
40
1
40
1
40
1
40
1
10
79.1850552021
20
265.941565348
30
0
10
81.4694995254
20
265.231013935
30
0
10
83.3615472141
20
262.693871691
30
0
10
83.3746385855
20
260.296083652
30
0
10
83.3746385855
20
260.296083652
30
0
10
83.4487081873
20
250.491679942
30
0
10
83.4487081873
20
250.491679942
30
0
10
83.4530145595
20
249.42800601
30
0
10
83.8628089378
20
248.464584422
30
0
10
84.5123821201
20
247.710452522
30
0
10
82.1452554506
20
244.000426747
30
0
10
80.7675608572
20
239.597419557
30
0
10
80.7982222273
20
234.871778963
30
0
10
80.8592004576
20
221.749746112
30
0
10
91.5398647817
20
211.165027761
30
0
10
104.666204004
20
211.23479099
30
0
10
117.796849599
20
211.295769221
30
0
10
128.377433833
20
221.976433545
30
0
10
128.311976976
20
235.102772767
30
0
10
128.29027286
20
239.81532199
30
0
10
126.886395523
20
244.183533693
30
0
10
124.497220228
20
247.867376725
30
0
10
125.21655664
20
248.65199774
30
0
10
125.656840134
20
249.680876185
30
0
10
125.652706016
20
250.81861972
30
0
10
125.652706016
20
250.81861972
30
0
10
125.56967916
20
260.623023429
30
0
10
125.56967916
20
260.623023429
30
0
10
125.547975045
20
263.020811468
30
0
10
127.396269992
20
265.588442827
30
0
10
129.667622943
20
266.32965561
30
0
10
129.667622943
20
266.32965561
30
0
10
147.223152099
20
272.075389651
30
0
10
138.700669265
20
284.587123433
30
0
10
130.173363294
20
297.085593589
30
0
10
123.028230544
20
292.011309102
30
0
10
123.028230544
20
292.011309102
30
0
10
121.075204625
20
290.620523137
30
0
10
118.581642868
20
291.226515832
30
0
10
117.478522566
20
293.349557326
30
0
10
117.478522566
20
293.349557326
30
0
10
115.595432132
20
296.967943501
30
0
10
104.195431396
20
296.893873899
30
0
10
92.8302261469
20
296.797927927
30
0
10
90.9905439442
20
293.135961265
30
0
10
90.9905439442
20
293.135961265
30
0
10
89.9180850121
20
290.995522028
30
0
10
87.4288296271
20
290.363346589
30
0
10
85.4584059644
20
291.719164812
30
0
10
85.4584059644
20
291.719164812
30
0
10
78.2609077285
20
296.688890583
30
0
10
69.8994832151
20
284.04641534
30
0
10
61.5511500731
20
271.412725097
30
0
10
79.1850552021
20
265.941565348
30
0
10
79.1850552021
20
265.941565348
30
0
0
ENDBLK
5
59
330
57
100
AcDbEntity
8
0
100
AcDbBlockEnd
0
BLOCK
5
5B
330
5A
100
AcDbEntity
8
0
100
AcDbBlockBegin
2
block 8
70
0
10
0
20
0
3
block 8
1

0
SPLINE
5
67
100
AcDbEntity
8
Layer 1
6
ByLayer
62
7
420
1709851
370
9
100
AcDbSpline
210
0
220
0
230
1
70
11
71
3
72
17
73
13
74
0
42
1e-007
43
1e-007
40
0
40
0
40
0
40
0
40
0.1
40
0.2
40
0.3
40
0.4
40
0.5
40
0.6
40
0.7
40
0.8
40
0.9
40
1
40
1
40
1
40
1
10
184.038844779
20
5.80809031015
30
0
10
184.038844779
20
2.73471860027
30
0
10
149.167565273
20
0.197404101531
30
0
10
106.165855058
20
0.145383125386
30
0
10
63.1858489592
20
0.0885390123796
30
0
10
28.3319671968
20
2.54282665515
30
0
10
28.3407521961
20
5.60758562063
30
0
10
28.3538435676
20
8.6768232132
30
0
10
63.20772533
20
11.2227504563
30
0
10
106.200650546
20
11.2751159423
30
0
10
149.193748016
20
11.3360941726
30
0
10
184.038844779
20
8.88146202003
30
0
10
184.038844779
20
5.80809031015
30
0
0
ENDBLK
5
5C
330
5A
100
AcDbEntity
8
0
100
AcDbBlockEnd
0
ENDSEC
0
SECTION
2
ENTITIES
0
INSERT
5
68
100
AcDbEntity
8
Layer 1
6
ByLayer
62
256
370
-1
100
AcDbBlockReference
2
block 2
10
0
20
0
30
0
41
1
42
1
43
0
50
0
70
1
71
1
44
0
45
0
0
INSERT
5
69
100
AcDbEntity
8
Layer 1
6
ByLayer
62
256
370
-1
100
AcDbBlockReference
2
block 7
10
-68.1457239257
20
182.89433002
30
0
41
1
42
1
43
0
50
0
70
1
71
1
44
1
45
1
0
ENDSEC
0
SECTION
2
OBJECTS
0
DICTIONARY
5
C
330
0
100
AcDbDictionary
281
1
3
ACAD_GROUP
350
D
0
DICTIONARY
5
D
330
C
100
AcDbDictionary
281
1
0
ENDSEC
0
EOF
