999
dxfrw 0.6.3
  0
SECTION
  2
HEADER
  9
$ACADVER
  1
AC1021
  9
$DWGCODEPAGE
  3
ANSI_1252
  9
$INSBASE
 10
0
 20
0
 30
0
  9
$EXTMIN
 10
-119.68
 20
-86.66666666666691
 30
0
  9
$EXTMAX
 10
120.32
 20
101.5
 30
0
  9
$LIMMIN
 10
0
 20
0
  9
$LIMMAX
 10
420
 20
297
  9
$ORTHOMODE
 70
    0
  9
$REGENMODE
 70
    1
  9
$FILLMODE
 70
    1
  9
$QTEXTMODE
 70
    0
  9
$MIRRTEXT
 70
    0
  9
$LTSCALE
 40
1
  9
$ATTMODE
 70
    0
  9
$TEXTSIZE
 40
2.5
  9
$TRACEWID
 40
15.68
  9
$TEXTSTYLE
  7
STANDARD
  9
$CLAYER
  8
gris
  9
$CELTYPE
  6
BYLAYER
  9
$CECOLOR
 62
  256
  9
$CELTSCALE
 40
1
  9
$DISPSILH
 70
    0
  9
$DIMSCALE
 40
2.5
  9
$DIMASZ
 40
2.5
  9
$DIMEXO
 40
0.625
  9
$DIMDLI
 40
3.75
  9
$DIMRND
 40
0
  9
$DIMDLE
 40
0
  9
$DIMEXE
 40
1.25
  9
$DIMTP
 40
0
  9
$DIMTM
 40
0
  9
$DIMTXT
 40
2.5
  9
$DIMCEN
 40
2.5
  9
$DIMTSZ
 40
0
  9
$DIMTOL
 70
    0
  9
$DIMLIM
 70
    0
  9
$DIMTIH
 70
    0
  9
$DIMTOH
 70
    0
  9
$DIMSE1
 70
    0
  9
$DIMSE2
 70
    0
  9
$DIMTAD
 70
    1
  9
$DIMZIN
 70
    1
  9
$DIMBLK
  1

  9
$DIMASO
 70
    1
  9
$DIMSHO
 70
    1
  9
$DIMPOST
  1

  9
$DIMAPOST
  1

  9
$DIMALT
 70
    0
  9
$DIMALTD
 70
    3
  9
$DIMALTF
 40
0.03937
  9
$DIMLFAC
 40
1
  9
$DIMTOFL
 70
    1
  9
$DIMTVP
 40
0
  9
$DIMTIX
 70
    0
  9
$DIMSOXD
 70
    0
  9
$DIMSAH
 70
    0
  9
$DIMBLK1
  1

  9
$DIMBLK2
  1

  9
$DIMSTYLE
  2
STANDARD
  9
$DIMCLRD
 70
    0
  9
$DIMCLRE
 70
    0
  9
$DIMCLRT
 70
    0
  9
$DIMTFAC
 40
1
  9
$DIMGAP
 40
0.625
  9
$DIMJUST
 70
    0
  9
$DIMSD1
 70
    0
  9
$DIMSD2
 70
    0
  9
$DIMTOLJ
 70
    0
  9
$DIMTZIN
 70
    8
  9
$DIMALTZ
 70
    0
  9
$DIMALTTZ
 70
    0
  9
$DIMUPT
 70
    0
  9
$DIMDEC
 70
    4
  9
$DIMTDEC
 70
    2
  9
$DIMALTU
 70
    2
  9
$DIMALTTD
 70
    3
  9
$DIMTXSTY
  7
standard
  9
$DIMAUNIT
 70
    0
  9
$DIMADEC
 70
    2
  9
$DIMALTRND
 40
0
  9
$DIMAZIN
 70
    0
  9
$DIMDSEP
 70
    0
  9
$DIMATFIT
 70
    3
  9
$DIMFRAC
 70
    0
  9
$DIMLDRBLK
  1
STANDARD
  9
$DIMLUNIT
 70
    2
  9
$DIMLWD
 70
   -2
  9
$DIMLWE
 70
   -2
  9
$DIMTMOVE
 70
    0
  9
$DIMFXL
 40
1
  9
$DIMFXLON
 70
    0
  9
$DIMJOGANG
 40
0.7854
  9
$DIMTFILL
 70
    0
  9
$DIMTFILLCLR
 70
    0
  9
$DIMARCSYM
 70
    0
  9
$DIMLTYPE
  6

  9
$DIMLTEX1
  6

  9
$DIMLTEX2
  6

  9
$LUNITS
 70
    2
  9
$LUPREC
 70
    4
  9
$SKETCHINC
 40
1
  9
$FILLETRAD
 40
0
  9
$AUNITS
 70
    0
  9
$AUPREC
 70
    2
  9
$MENU
  1
.
  9
$ELEVATION
 40
0
  9
$PELEVATION
 40
0
  9
$THICKNESS
 40
0
  9
$LIMCHECK
 70
    0
  9
$CHAMFERA
 40
0
  9
$CHAMFERB
 40
0
  9
$CHAMFERC
 40
0
  9
$CHAMFERD
 40
0
  9
$SKPOLY
 70
    0
  9
$USRTIMER
 70
    1
  9
$ANGBASE
 50
0
  9
$ANGDIR
 70
    0
  9
$PDMODE
 70
   34
  9
$PDSIZE
 40
0
  9
$PLINEWID
 40
0
  9
$SPLFRAME
 70
    0
  9
$SPLINETYPE
 70
    2
  9
$SPLINESEGS
 70
    8
  9
$HANDSEED
  5
20000
  9
$SURFTAB1
 70
    6
  9
$SURFTAB2
 70
    6
  9
$SURFTYPE
 70
    6
  9
$SURFU
 70
    6
  9
$SURFV
 70
    6
  9
$UCSBASE
  2

  9
$UCSNAME
  2

  9
$UCSORG
 10
0
 20
0
 30
0
  9
$UCSXDIR
 10
1
 20
0
 30
0
  9
$UCSYDIR
 10
0
 20
1
 30
0
  9
$UCSORTHOREF
  2

  9
$UCSORTHOVIEW
 70
    0
  9
$UCSORGTOP
 10
0
 20
0
 30
0
  9
$UCSORGBOTTOM
 10
0
 20
0
 30
0
  9
$UCSORGLEFT
 10
0
 20
0
 30
0
  9
$UCSORGRIGHT
 10
0
 20
0
 30
0
  9
$UCSORGFRONT
 10
0
 20
0
 30
0
  9
$UCSORGBACK
 10
0
 20
0
 30
0
  9
$PUCSBASE
  2

  9
$PUCSNAME
  2

  9
$PUCSORG
 10
0
 20
0
 30
0
  9
$PUCSXDIR
 10
1
 20
0
 30
0
  9
$PUCSYDIR
 10
0
 20
1
 30
0
  9
$PUCSORTHOREF
  2

  9
$PUCSORTHOVIEW
 70
    0
  9
$PUCSORGTOP
 10
0
 20
0
 30
0
  9
$PUCSORGBOTTOM
 10
0
 20
0
 30
0
  9
$PUCSORGLEFT
 10
0
 20
0
 30
0
  9
$PUCSORGRIGHT
 10
0
 20
0
 30
0
  9
$PUCSORGFRONT
 10
0
 20
0
 30
0
  9
$PUCSORGBACK
 10
0
 20
0
 30
0
  9
$USERI1
 70
    0
  9
$USERI2
 70
    0
  9
$USERI3
 70
    0
  9
$USERI4
 70
    0
  9
$USERI5
 70
    0
  9
$USERR1
 40
0
  9
$USERR2
 40
0
  9
$USERR3
 40
0
  9
$USERR4
 40
0
  9
$USERR5
 40
0
  9
$WORLDVIEW
 70
    1
  9
$SHADEDGE
 70
    3
  9
$SHADEDIF
 70
   70
  9
$TILEMODE
 70
    1
  9
$MAXACTVP
 70
   64
  9
$PINSBASE
 10
148.1853852967228
 20
97.70814880425168
 30
0
  9
$PLIMCHECK
 70
    0
  9
$PEXTMIN
 10
0
 20
0
 30
0
  9
$PEXTMAX
 10
0
 20
0
 30
0
  9
$GRIDMODE
 70
    1
  9
$SNAPSTYLE
 70
    0
  9
$PLIMMIN
 10
0
 20
0
  9
$PLIMMAX
 10
297
 20
210
  9
$UNITMODE
 70
    0
  9
$VISRETAIN
 70
    1
  9
$PLINEGEN
 70
    0
  9
$PSLTSCALE
 70
    1
  9
$TREEDEPTH
 70
 3020
  9
$CMLSTYLE
  2
Standard
  9
$CMLJUST
 70
    0
  9
$CMLSCALE
 40
20
  9
$PROXYGRAPHICS
 70
    1
  9
$MEASUREMENT
 70
    1
  9
$CELWEIGHT
370
   -1
  9
$ENDCAPS
280
    0
  9
$JOINSTYLE
280
    0
  9
$LWDISPLAY
290
    0
  9
$INSUNITS
 70
    4
  9
$HYPERLINKBASE
  1

  9
$STYLESHEET
  1

  9
$XEDIT
290
    1
  9
$CEPSNTYPE
380
    0
  9
$PSTYLEMODE
290
    1
  9
$EXTNAMES
290
    1
  9
$PSVPSCALE
 40
0.9831681610822715
  9
$OLESTARTUP
290
    0
  9
$SORTENTS
280
  127
  9
$INDEXCTL
280
    0
  9
$HIDETEXT
280
    1
  9
$XCLIPFRAME
290
    0
  9
$HALOGAP
280
    0
  9
$OBSCOLOR
 70
  257
  9
$OBSLTYPE
280
    0
  9
$INTERSECTIONDISPLAY
280
    0
  9
$INTERSECTIONCOLOR
 70
  257
  9
$DIMASSOC
280
    1
  9
$PROJECTNAME
  1

  9
$CAMERADISPLAY
290
    0
  9
$LENSLENGTH
 40
50
  9
$CAMERAHEIGHT
 40
0
  9
$STEPSPERSEC
 40
2
  9
$STEPSIZE
 40
50
  9
$3DDWFPREC
 40
2
  9
$PSOLWIDTH
 40
5
  9
$PSOLHEIGHT
 40
80
  9
$LOFTANG1
 40
1.570796326794897
  9
$LOFTANG2
 40
1.570796326794897
  9
$LOFTMAG1
 40
0
  9
$LOFTMAG2
 40
0
  9
$LOFTPARAM
 70
    7
  9
$LOFTNORMALS
280
    1
  9
$LATITUDE
 40
1
  9
$LONGITUDE
 40
1
  9
$NORTHDIRECTION
 40
0
  9
$TIMEZONE
 70
-8000
  9
$LIGHTGLYPHDISPLAY
280
    1
  9
$TILEMODELIGHTSYNCH
280
    1
  9
$SOLIDHIST
280
    1
  9
$SHOWHIST
280
    1
  9
$DWFFRAME
280
    2
  9
$DGNFRAME
280
    0
  9
$REALWORLDSCALE
290
    1
  9
$INTERFERECOLOR
 62
    1
  9
$CSHADOW
280
    0
  9
$SHADOWPLANELOCATION
 40
0
  0
ENDSEC
  0
SECTION
  2
CLASSES
  0
ENDSEC
  0
SECTION
  2
TABLES
  0
TABLE
  2
VPORT
  5
8
330
0
100
AcDbSymbolTable
 70
    1
  0
VPORT
  5
31
330
2
100
AcDbSymbolTableRecord
100
AcDbViewportTableRecord
  2
*ACTIVE
 70
    0
 10
0
 20
0
 11
1
 21
1
 12
279.7521708939988
 22
170.1506354478568
 13
0
 23
0
 14
10
 24
10
 15
10
 25
10
 16
0
 26
0
 36
1
 17
0
 27
0
 37
0
 40
629.2507734355424
 41
1.713763702801462
 42
50
 43
0
 44
0
 50
0
 51
0
 71
    0
 72
  100
 73
    1
 74
    3
 75
    0
 76
    1
 77
    0
 78
    0
281
    0
 65
    1
110
0
120
0
130
0
111
1
121
0
131
0
112
0
122
1
132
0
 79
    0
146
0
348
10020
 60
    7
 61
    5
292
1
282
    1
141
0
142
0
 63
  250
421
3358443
  0
ENDTAB
  0
TABLE
  2
LTYPE
  5
5
330
0
100
AcDbSymbolTable
 70
    4
  0
LTYPE
  5
14
330
5
100
AcDbSymbolTableRecord
100
AcDbLinetypeTableRecord
  2
ByBlock
 70
    0
  3

 72
   65
 73
    0
 40
0
  0
LTYPE
  5
15
330
5
100
AcDbSymbolTableRecord
100
AcDbLinetypeTableRecord
  2
ByLayer
 70
    0
  3

 72
   65
 73
    0
 40
0
  0
LTYPE
  5
16
330
5
100
AcDbSymbolTableRecord
100
AcDbLinetypeTableRecord
  2
Continuous
 70
    0
  3
Solid line
 72
   65
 73
    0
 40
0
  0
LTYPE
  5
32
330
5
100
AcDbSymbolTableRecord
100
AcDbLinetypeTableRecord
  2
DOT
 70
    0
  3
Dot . . . . . . . . . . . . . . . . . . . . . .
 72
   65
 73
    2
 40
6.35
 49
0
 74
    0
 49
-6.35
 74
    0
  0
LTYPE
  5
33
330
5
100
AcDbSymbolTableRecord
100
AcDbLinetypeTableRecord
  2
DOTTINY
 70
    0
  3
Dot (.15x) .....................................
 72
   65
 73
    2
 40
0.9525
 49
0
 74
    0
 49
-0.9525
 74
    0
  0
LTYPE
  5
34
330
5
100
AcDbSymbolTableRecord
100
AcDbLinetypeTableRecord
  2
DOT2
 70
    0
  3
Dot (.5x) .....................................
 72
   65
 73
    2
 40
3.175
 49
0
 74
    0
 49
-3.175
 74
    0
  0
LTYPE
  5
35
330
5
100
AcDbSymbolTableRecord
100
AcDbLinetypeTableRecord
  2
DOTX2
 70
    0
  3
Dot (2x) .  .  .  .  .  .  .  .  .  .  .  .  .
 72
   65
 73
    2
 40
12.7
 49
0
 74
    0
 49
-12.7
 74
    0
  0
LTYPE
  5
36
330
5
100
AcDbSymbolTableRecord
100
AcDbLinetypeTableRecord
  2
DASHED
 70
    0
  3
Dashed _ _ _ _ _ _ _ _ _ _ _ _ _ _ _ _ _
 72
   65
 73
    2
 40
19.05
 49
12.7
 74
    0
 49
-6.35
 74
    0
  0
LTYPE
  5
37
330
5
100
AcDbSymbolTableRecord
100
AcDbLinetypeTableRecord
  2
DASHEDTINY
 70
    0
  3
Dashed (.15x) _ _ _ _ _ _ _ _ _ _ _ _ _ _ _ _ _
 72
   65
 73
    2
 40
2.8575
 49
1.905
 74
    0
 49
-0.9525
 74
    0
  0
LTYPE
  5
38
330
5
100
AcDbSymbolTableRecord
100
AcDbLinetypeTableRecord
  2
DASHED2
 70
    0
  3
Dashed (.5x) _ _ _ _ _ _ _ _ _ _ _ _ _ _ _ _ _
 72
   65
 73
    2
 40
9.524999999999999
 49
6.35
 74
    0
 49
-3.175
 74
    0
  0
LTYPE
  5
39
330
5
100
AcDbSymbolTableRecord
100
AcDbLinetypeTableRecord
  2
DASHEDX2
 70
    0
  3
Dashed (2x) ____  ____  ____  ____  ____  ___
 72
   65
 73
    2
 40
38.09999999999999
 49
25.4
 74
    0
 49
-12.7
 74
    0
  0
LTYPE
  5
3A
330
5
100
AcDbSymbolTableRecord
100
AcDbLinetypeTableRecord
  2
DASHDOT
 70
    0
  3
Dash dot __ . __ . __ . __ . __ . __ . __ . __
 72
   65
 73
    4
 40
25.4
 49
12.7
 74
    0
 49
-6.35
 74
    0
 49
0
 74
    0
 49
-6.35
 74
    0
  0
LTYPE
  5
3B
330
5
100
AcDbSymbolTableRecord
100
AcDbLinetypeTableRecord
  2
DASHDOTTINY
 70
    0
  3
Dash dot (.15x) _._._._._._._._._._._._._._._.
 72
   65
 73
    4
 40
3.81
 49
1.905
 74
    0
 49
-0.9525
 74
    0
 49
0
 74
    0
 49
-0.9525
 74
    0
  0
LTYPE
  5
3C
330
5
100
AcDbSymbolTableRecord
100
AcDbLinetypeTableRecord
  2
DASHDOT2
 70
    0
  3
Dash dot (.5x) _._._._._._._._._._._._._._._.
 72
   65
 73
    4
 40
12.7
 49
6.35
 74
    0
 49
-3.175
 74
    0
 49
0
 74
    0
 49
-3.175
 74
    0
  0
LTYPE
  5
3D
330
5
100
AcDbSymbolTableRecord
100
AcDbLinetypeTableRecord
  2
DASHDOTX2
 70
    0
  3
Dash dot (2x) ____  .  ____  .  ____  .  ___
 72
   65
 73
    4
 40
50.8
 49
25.4
 74
    0
 49
-12.7
 74
    0
 49
0
 74
    0
 49
-12.7
 74
    0
  0
LTYPE
  5
3E
330
5
100
AcDbSymbolTableRecord
100
AcDbLinetypeTableRecord
  2
DIVIDE
 70
    0
  3
Divide ____ . . ____ . . ____ . . ____ . . ____
 72
   65
 73
    6
 40
31.75
 49
12.7
 74
    0
 49
-6.35
 74
    0
 49
0
 74
    0
 49
-6.35
 74
    0
 49
0
 74
    0
 49
-6.35
 74
    0
  0
LTYPE
  5
3F
330
5
100
AcDbSymbolTableRecord
100
AcDbLinetypeTableRecord
  2
DIVIDETINY
 70
    0
  3
Divide (.15x) __..__..__..__..__..__..__..__.._
 72
   65
 73
    6
 40
4.7625
 49
1.905
 74
    0
 49
-0.9525
 74
    0
 49
0
 74
    0
 49
-0.9525
 74
    0
 49
0
 74
    0
 49
-0.9525
 74
    0
  0
LTYPE
  5
40
330
5
100
AcDbSymbolTableRecord
100
AcDbLinetypeTableRecord
  2
DIVIDE2
 70
    0
  3
Divide (.5x) __..__..__..__..__..__..__..__.._
 72
   65
 73
    6
 40
15.875
 49
6.35
 74
    0
 49
-3.175
 74
    0
 49
0
 74
    0
 49
-3.175
 74
    0
 49
0
 74
    0
 49
-3.175
 74
    0
  0
LTYPE
  5
41
330
5
100
AcDbSymbolTableRecord
100
AcDbLinetypeTableRecord
  2
DIVIDEX2
 70
    0
  3
Divide (2x) ________  .  .  ________  .  .  _
 72
   65
 73
    6
 40
63.5
 49
25.4
 74
    0
 49
-12.7
 74
    0
 49
0
 74
    0
 49
-12.7
 74
    0
 49
0
 74
    0
 49
-12.7
 74
    0
  0
LTYPE
  5
42
330
5
100
AcDbSymbolTableRecord
100
AcDbLinetypeTableRecord
  2
BORDER
 70
    0
  3
Border __ __ . __ __ . __ __ . __ __ . __ __ .
 72
   65
 73
    6
 40
44.45
 49
12.7
 74
    0
 49
-6.35
 74
    0
 49
12.7
 74
    0
 49
-6.35
 74
    0
 49
0
 74
    0
 49
-6.35
 74
    0
  0
LTYPE
  5
43
330
5
100
AcDbSymbolTableRecord
100
AcDbLinetypeTableRecord
  2
BORDERTINY
 70
    0
  3
Border (.15x) __.__.__.__.__.__.__.__.__.__.__.
 72
   65
 73
    6
 40
6.6675
 49
1.905
 74
    0
 49
-0.9525
 74
    0
 49
1.905
 74
    0
 49
-0.9525
 74
    0
 49
0
 74
    0
 49
-0.9525
 74
    0
  0
LTYPE
  5
44
330
5
100
AcDbSymbolTableRecord
100
AcDbLinetypeTableRecord
  2
BORDER2
 70
    0
  3
Border (.5x) __.__.__.__.__.__.__.__.__.__.__.
 72
   65
 73
    6
 40
22.225
 49
6.35
 74
    0
 49
-3.175
 74
    0
 49
6.35
 74
    0
 49
-3.175
 74
    0
 49
0
 74
    0
 49
-3.175
 74
    0
  0
LTYPE
  5
45
330
5
100
AcDbSymbolTableRecord
100
AcDbLinetypeTableRecord
  2
BORDERX2
 70
    0
  3
Border (2x) ____  ____  .  ____  ____  .  ___
 72
   65
 73
    6
 40
88.89999999999999
 49
25.4
 74
    0
 49
-12.7
 74
    0
 49
25.4
 74
    0
 49
-12.7
 74
    0
 49
0
 74
    0
 49
-12.7
 74
    0
  0
LTYPE
  5
46
330
5
100
AcDbSymbolTableRecord
100
AcDbLinetypeTableRecord
  2
CENTER
 70
    0
  3
Center ____ _ ____ _ ____ _ ____ _ ____ _ ____
 72
   65
 73
    4
 40
50.8
 49
31.75
 74
    0
 49
-6.35
 74
    0
 49
6.35
 74
    0
 49
-6.35
 74
    0
  0
LTYPE
  5
47
330
5
100
AcDbSymbolTableRecord
100
AcDbLinetypeTableRecord
  2
CENTERTINY
 70
    0
  3
Center (.15x) ___ _ ___ _ ___ _ ___ _ ___ _ ___
 72
   65
 73
    4
 40
7.619999999999999
 49
4.7625
 74
    0
 49
-0.9525
 74
    0
 49
0.9525
 74
    0
 49
-0.9525
 74
    0
  0
LTYPE
  5
48
330
5
100
AcDbSymbolTableRecord
100
AcDbLinetypeTableRecord
  2
CENTER2
 70
    0
  3
Center (.5x) ___ _ ___ _ ___ _ ___ _ ___ _ ___
 72
   65
 73
    4
 40
28.575
 49
19.05
 74
    0
 49
-3.175
 74
    0
 49
3.175
 74
    0
 49
-3.175
 74
    0
  0
LTYPE
  5
49
330
5
100
AcDbSymbolTableRecord
100
AcDbLinetypeTableRecord
  2
CENTERX2
 70
    0
  3
Center (2x) ________  __  ________  __  _____
 72
   65
 73
    4
 40
101.6
 49
63.5
 74
    0
 49
-12.7
 74
    0
 49
12.7
 74
    0
 49
-12.7
 74
    0
  0
ENDTAB
  0
TABLE
  2
LAYER
  5
2
330
0
100
AcDbSymbolTable
 70
    1
  0
LAYER
  5
10
330
2
100
AcDbSymbolTableRecord
100
AcDbLayerTableRecord
  2
0
 70
    0
 62
    7
  6
CONTINUOUS
370
   70
390
F
  0
LAYER
  5
4A
330
2
100
AcDbSymbolTableRecord
100
AcDbLayerTableRecord
  2
axe
 70
    1
 62
    7
  6
DASHDOTX2
370
   13
390
F
  0
LAYER
  5
4B
330
2
100
AcDbSymbolTableRecord
100
AcDbLayerTableRecord
  2
construction
 70
    1
 62
    7
  6
CONTINUOUS
370
    0
390
F
  0
LAYER
  5
4C
330
2
100
AcDbSymbolTableRecord
100
AcDbLayerTableRecord
  2
cotation
 70
    1
 62
    7
  6
CONTINUOUS
370
   35
390
F
  0
LAYER
  5
4D
330
2
100
AcDbSymbolTableRecord
100
AcDbLayerTableRecord
  2
elec_bleu
 70
    0
 62
    7
  6
CONTINUOUS
370
  100
390
F
  0
LAYER
  5
4E
330
2
100
AcDbSymbolTableRecord
100
AcDbLayerTableRecord
  2
elec_brun
 70
    0
 62
   16
420
8388608
  6
CONTINUOUS
370
  100
390
F
  0
LAYER
  5
4F
330
2
100
AcDbSymbolTableRecord
100
AcDbLayerTableRecord
  2
elec_jaune
 70
    0
 62
    2
  6
CONTINUOUS
370
  100
390
F
  0
LAYER
  5
50
330
2
100
AcDbSymbolTableRecord
100
AcDbLayerTableRecord
  2
eliipse
 70
    0
 62
    1
  6
CONTINUOUS
370
  211
390
F
  0
LAYER
  5
51
330
2
100
AcDbSymbolTableRecord
100
AcDbLayerTableRecord
  2
gris
 70
    0
 62
  253
420
10526884
  6
CONTINUOUS
370
    0
390
F
  0
LAYER
  5
52
330
2
100
AcDbSymbolTableRecord
100
AcDbLayerTableRecord
  2
smartphone
 70
    0
 62
    4
  6
CONTINUOUS
370
   70
390
F
  0
LAYER
  5
53
330
2
100
AcDbSymbolTableRecord
100
AcDbLayerTableRecord
  2
texte
 70
    0
 62
    7
  6
CONTINUOUS
370
   70
390
F
  0
ENDTAB
  0
TABLE
  2
STYLE
  5
3
330
0
100
AcDbSymbolTable
 70
    3
  0
STYLE
  5
54
330
2
100
AcDbSymbolTableRecord
100
AcDbTextStyleTableRecord
  2
standard
 70
    0
 40
0
 41
1
 50
0
 71
    0
 42
1
  3
standard
  4

  0
ENDTAB
  0
TABLE
  2
VIEW
  5
6
330
0
100
AcDbSymbolTable
 70
    0
  0
ENDTAB
  0
TABLE
  2
UCS
  5
7
330
0
100
AcDbSymbolTable
 70
    0
  0
ENDTAB
  0
TABLE
  2
APPID
  5
9
330
0
100
AcDbSymbolTable
 70
    1
  0
APPID
  5
12
330
9
100
AcDbSymbolTableRecord
100
AcDbRegAppTableRecord
  2
ACAD
 70
    0
  0
APPID
  5
55
330
9
100
AcDbSymbolTableRecord
100
AcDbRegAppTableRecord
  2
LibreCad
 70
    0
  0
ENDTAB
  0
TABLE
  2
DIMSTYLE
  5
A
330
0
100
AcDbSymbolTable
 70
    1
100
AcDbDimStyleTable
 71
    1
  0
DIMSTYLE
105
56
330
A
100
AcDbSymbolTableRecord
100
AcDbDimStyleTableRecord
  2
Standard
 70
    0
 40
2.5
 41
2.5
 42
0.625
 43
0.38
 44
1.25
 45
0
 46
0
 47
0
 48
0
 49
1
140
2.5
141
0.09
142
0
143
25.4
144
1
145
0
146
1
147
0.625
148
0
 71
    0
 72
    0
 73
    0
 74
    1
 75
    0
 76
    0
 77
    0
 78
    1
 79
    0
170
    0
171
    2
172
    0
173
    0
174
    0
175
    0
176
    0
177
    0
178
    0
179
    2
271
    4
272
    4
273
    2
274
    2
275
    0
276
    0
277
    2
278
    0
279
    0
280
    0
281
    0
282
    0
283
    1
284
    0
285
    0
286
    0
288
    0
289
    3
340
standard
341

371
   -2
372
   -2
  0
ENDTAB
  0
TABLE
  2
BLOCK_RECORD
  5
1
330
0
100
AcDbSymbolTable
 70
    2
  0
BLOCK_RECORD
  5
1F
330
1
100
AcDbSymbolTableRecord
100
AcDbBlockTableRecord
  2
*Model_Space
 70
    0
280
    1
281
    0
  0
BLOCK_RECORD
  5
1E
330
1
100
AcDbSymbolTableRecord
100
AcDbBlockTableRecord
  2
*Paper_Space
 70
    0
280
    1
281
    0
  0
ENDTAB
  0
ENDSEC
  0
SECTION
  2
BLOCKS
  0
BLOCK
  5
20
330
1F
100
AcDbEntity
  8
0
100
AcDbBlockBegin
  2
*Model_Space
 70
    0
 10
0
 20
0
 30
0
  3
*Model_Space
  1

  0
ENDBLK
  5
21
330
1F
100
AcDbEntity
  8
0
100
AcDbBlockEnd
  0
BLOCK
  5
1C
330
1B
100
AcDbEntity
  8
0
100
AcDbBlockBegin
  2
*Paper_Space
 70
    0
 10
0
 20
0
 30
0
  3
*Paper_Space
  1

  0
ENDBLK
  5
1D
330
1F
100
AcDbEntity
  8
0
100
AcDbBlockEnd
  0
ENDSEC
  0
SECTION
  2
ENTITIES
  0
HATCH
  5
57
100
AcDbEntity
  8
gris
  6
ByLayer
 62
  256
370
   -1
100
AcDbHatch
 10
0
 20
0
 30
0
210
0
220
0
230
1
  2
SOLID
 70
    1
 71
    0
 91
    1
 92
    0
 93
    4
 72
    1
 10
-119.68
 20
0
 11
120.32
 21
0
 72
    1
 10
120.32
 20
0
 11
120.32
 21
20
 72
    1
 10
120.32
 20
20
 11
-119.68
 21
20
 72
    1
 10
-119.68
 20
20
 11
-119.68
 21
0
 97
    0
 75
    0
 76
    1
 98
    0
  0
HATCH
  5
58
100
AcDbEntity
  8
gris
  6
ByLayer
 62
  256
370
   -1
100
AcDbHatch
 10
0
 20
0
 30
0
210
0
220
0
230
1
  2
SOLID
 70
    1
 71
    0
 91
    1
 92
    0
 93
    4
 72
    1
 10
-109.68
 20
20
 11
110.32
 21
20
 72
    1
 10
110.32
 20
20
 11
110.32
 21
40
 72
    1
 10
110.32
 20
40
 11
-109.68
 21
40
 72
    1
 10
-109.68
 20
40
 11
-109.68
 21
20
 97
    0
 75
    0
 76
    1
 98
    0
  0
HATCH
  5
59
100
AcDbEntity
  8
gris
  6
ByLayer
 62
  256
370
   -1
100
AcDbHatch
 10
0
 20
0
 30
0
210
0
220
0
230
1
  2
SOLID
 70
    1
 71
    0
 91
    1
 92
    0
 93
    4
 72
    1
 10
-45
 20
94
 11
45
 21
94
 72
    1
 10
45
 20
94
 11
45
 21
101.5
 72
    1
 10
45
 20
101.5
 11
-45
 21
101.5
 72
    1
 10
-45
 20
101.5
 11
-45
 21
94
 97
    0
 75
    0
 76
    1
 98
    0
  0
HATCH
  5
5A
100
AcDbEntity
  8
gris
  6
ByLayer
 62
  256
370
   -1
100
AcDbHatch
 10
0
 20
0
 30
0
210
0
220
0
230
1
  2
SOLID
 70
    1
 71
    0
 91
    1
 92
    0
 93
    4
 72
    1
 10
-26.25
 20
72.25
 11
26.24999999999999
 21
72.25
 72
    1
 10
26.24999999999999
 20
72.25
 11
26.24999999999999
 21
45.99999934570343
 72
    1
 10
26.24999999999999
 20
45.99999934570343
 11
-26.25
 21
45.99999934570343
 72
    1
 10
-26.25
 20
45.99999934570343
 11
-26.25
 21
72.25
 97
    0
 75
    0
 76
    1
 98
    0
  0
HATCH
  5
5B
100
AcDbEntity
  8
gris
  6
ByLayer
 62
  256
370
   -1
100
AcDbHatch
 10
0
 20
0
 30
0
210
0
220
0
230
1
  2
SOLID
 70
    1
 71
    0
 91
    1
 92
    0
 93
    4
 72
    1
 10
-104.68
 20
40
 11
105.32
 21
40
 72
    1
 10
105.32
 20
40
 11
105.32
 21
46
 72
    1
 10
105.32
 20
46
 11
-104.68
 21
46
 72
    1
 10
-104.68
 20
46
 11
-104.68
 21
40
 97
    0
 75
    0
 76
    1
 98
    0
  0
LINE
  5
5C
100
AcDbEntity
  8
axe
  6
ByLayer
 62
  256
370
   -1
100
AcDbLine
 10
-149.68
 20
0
 11
150.32
 21
0
  0
LINE
  5
5D
100
AcDbEntity
  8
axe
  6
ByLayer
 62
  256
370
   -1
100
AcDbLine
 10
-149.68
 20
100
 11
150.32
 21
100
  0
LINE
  5
5E
100
AcDbEntity
  8
axe
  6
ByLayer
 62
  256
370
   -1
100
AcDbLine
 10
0
 20
388.6668522645211
 11
0
 21
-211.3331477354788
  0
LINE
  5
5F
100
AcDbEntity
  8
axe
  6
ByLayer
 62
  256
370
   -1
100
AcDbLine
 10
-48
 20
-61.33314773547883
 11
46
 21
-61.33314773547883
  0
LINE
  5
60
100
AcDbEntity
  8
axe
  6
ByLayer
 62
  256
370
   -1
100
AcDbLine
 10
-20
 20
-25.33314773547883
 11
-20
 21
-95.33314773547883
  0
LINE
  5
61
100
AcDbEntity
  8
axe
  6
ByLayer
 62
  256
370
   -1
100
AcDbLine
 10
20
 20
-97.33314773547883
 11
20
 21
-27.33314773547883
  0
LINE
  5
62
100
AcDbEntity
  8
axe
  6
ByLayer
 62
  256
370
   -1
100
AcDbLine
 10
-38
 20
-41.33314773547883
 11
36
 21
-41.33314773547883
  0
LINE
  5
63
100
AcDbEntity
  8
axe
  6
ByLayer
 62
  256
370
   -1
100
AcDbLine
 10
-36
 20
-81.33314773547883
 11
36
 21
-81.33314773547883
  0
LINE
  5
64
100
AcDbEntity
  8
axe
  6
ByLayer
 62
  256
370
   -1
100
AcDbLine
 10
10
 20
-95.33314773547883
 11
10
 21
-19.33314773547883
  0
LINE
  5
65
100
AcDbEntity
  8
axe
  6
ByLayer
 62
  256
370
   -1
100
AcDbLine
 10
10
 20
-19.33314773547883
 11
-10
 21
-19.33314773547883
  0
LINE
  5
66
100
AcDbEntity
  8
axe
  6
ByLayer
 62
  256
370
   -1
100
AcDbLine
 10
-10
 20
-19.33314773547883
 11
-10
 21
-99.33314773547883
  0
LINE
  5
67
100
AcDbEntity
  8
axe
  6
ByLayer
 62
  256
370
   -1
100
AcDbLine
 10
5
 20
-33.5
 11
18
 21
-33.5
  0
LINE
  5
68
100
AcDbEntity
  8
axe
  6
ByLayer
 62
  256
370
   -1
100
AcDbLine
 10
15
 20
-30.5
 11
15
 21
-53.5
  0
LINE
  5
69
100
AcDbEntity
  8
axe
  6
ByLayer
 62
  256
370
   -1
100
AcDbLine
 10
6
 20
-53.5
 11
18
 21
-53.5
  0
LINE
  5
6A
100
AcDbEntity
  8
axe
  6
ByLayer
 62
  256
370
   -1
100
AcDbLine
 10
-35
 20
26
 11
35
 21
26
  0
ARC
  5
6B
100
AcDbEntity
  8
0
  6
ByLayer
 62
  256
370
   -1
100
AcDbCircle
 10
0.3199999999999999
 20
20
 40
0
100
AcDbArc
 50
0
 51
0
  0
LINE
  5
6C
100
AcDbEntity
  8
0
  6
ByLayer
 62
  256
370
   -1
100
AcDbLine
 10
-20
 20
-8.83314773547886
 11
20
 21
-8.83314773547886
  0
LINE
  5
6D
100
AcDbEntity
  8
0
  6
ByLayer
 62
  256
370
   -1
100
AcDbLine
 10
32.49999796116914
 20
-21.33314773547883
 11
32.49999796116913
 21
-61.33314773547883
  0
LINE
  5
6E
100
AcDbEntity
  8
0
  6
ByLayer
 62
  256
370
   -1
100
AcDbLine
 10
20
 20
-73.83314773547883
 11
-20
 21
-73.83314773547883
  0
LINE
  5
6F
100
AcDbEntity
  8
0
  6
ByLayer
 62
  256
370
   -1
100
AcDbLine
 10
-32.50000203883074
 20
-21.33314773547883
 11
-32.50000203883074
 21
-61.33314773547883
  0
ARC
  5
70
100
AcDbEntity
  8
0
  6
ByLayer
 62
  256
370
   -1
100
AcDbCircle
 10
-20
 20
-21.33314773547883
 40
12.49999999999997
100
AcDbArc
 50
90
 51
180
  0
ARC
  5
71
100
AcDbEntity
  8
0
  6
ByLayer
 62
  256
370
   -1
100
AcDbCircle
 10
20
 20
-21.33314773547883
 40
12.49999796116914
100
AcDbArc
 50
0
 51
90
  0
ARC
  5
72
100
AcDbEntity
  8
0
  6
ByLayer
 62
  256
370
   -1
100
AcDbCircle
 10
20
 20
-61.33314773547886
 40
12.49999999999997
100
AcDbArc
 50
270
 51
1.272221872585407e-13
  0
ARC
  5
73
100
AcDbEntity
  8
0
  6
ByLayer
 62
  256
370
   -1
100
AcDbCircle
 10
-20
 20
-61.33314773547886
 40
12.50000203883074
100
AcDbArc
 50
179.9999999999999
 51
270
  0
CIRCLE
  5
74
100
AcDbEntity
  8
0
  6
ByLayer
 62
  256
370
   -1
100
AcDbCircle
 10
0
 20
-41.33314773547883
 40
20
  0
CIRCLE
  5
75
100
AcDbEntity
  8
elec_brun
  6
ByLayer
 62
  256
370
   -1
100
AcDbCircle
 10
10.00000000000007
 20
-41.33314870927109
 40
2
  0
CIRCLE
  5
76
100
AcDbEntity
  8
elec_brun
  6
ByLayer
 62
  256
370
   -1
100
AcDbCircle
 10
10
 20
-33.5
 40
1.5
  0
CIRCLE
  5
77
100
AcDbEntity
  8
elec_brun
  6
ByLayer
 62
  256
370
   -1
100
AcDbCircle
 10
10
 20
-13.5
 40
1.5
  0
LWPOLYLINE
  5
78
100
AcDbEntity
  8
0
  6
ByLayer
 62
  256
370
   -1
100
AcDbPolyline
 90
    4
 70
    1
 43
0
 10
-119.68
 20
0
 10
120.32
 20
0
 10
120.32
 20
20
 10
-119.68
 20
20
  0
LWPOLYLINE
  5
79
100
AcDbEntity
  8
0
  6
ByLayer
 62
  256
370
   -1
100
AcDbPolyline
 90
    4
 70
    1
 43
0
 10
-109.68
 20
20
 10
110.32
 20
20
 10
110.32
 20
40
 10
-109.68
 20
40
  0
LWPOLYLINE
  5
7A
100
AcDbEntity
  8
0
  6
ByLayer
 62
  256
370
   -1
100
AcDbPolyline
 90
    4
 70
    1
 43
0
 10
-104.68
 20
40
 10
105.32
 20
40
 10
105.32
 20
46
 10
-104.68
 20
46
  0
LWPOLYLINE
  5
7B
100
AcDbEntity
  8
0
  6
ByLayer
 62
  256
370
   -1
100
AcDbPolyline
 90
    4
 70
    1
 43
0
 10
-26.25
 20
72.25
 10
26.24999999999999
 20
72.25
 10
26.24999999999999
 20
45.99999934570343
 10
-26.25
 20
45.99999934570343
  0
LWPOLYLINE
  5
7C
100
AcDbEntity
  8
0
  6
ByLayer
 62
  256
370
   -1
100
AcDbPolyline
 90
    4
 70
    1
 43
0
 10
-30
 20
79
 10
30
 20
79
 10
30
 20
79.75
 10
-30
 20
79.75
  0
LWPOLYLINE
  5
7D
100
AcDbEntity
  8
0
  6
ByLayer
 62
  256
370
   -1
100
AcDbPolyline
 90
    4
 70
    1
 43
0
 10
-30
 20
86.5
 10
30
 20
86.5
 10
30
 20
87.25
 10
-30
 20
87.25
  0
LWPOLYLINE
  5
7E
100
AcDbEntity
  8
0
  6
ByLayer
 62
  256
370
   -1
100
AcDbPolyline
 90
    4
 70
    1
 43
0
 10
-45
 20
94
 10
45
 20
94
 10
45
 20
101.5
 10
-45
 20
101.5
  0
LWPOLYLINE
  5
7F
100
AcDbEntity
  8
0
  6
ByLayer
 62
  256
370
   -1
100
AcDbPolyline
 90
    4
 70
    1
 43
0
 10
-22.5
 20
71.5
 10
-21.75
 20
71.5
 10
-21.75
 20
94
 10
-22.5
 20
94
  0
LWPOLYLINE
  5
80
100
AcDbEntity
  8
0
  6
ByLayer
 62
  256
370
   -1
100
AcDbPolyline
 90
    4
 70
    1
 43
0
 10
22.5
 20
71.5
 10
23.25
 20
71.5
 10
23.25
 20
94
 10
22.5
 20
94
  0
ELLIPSE
  5
81
100
AcDbEntity
  8
eliipse
  6
ByLayer
 62
  256
370
   -1
100
AcDbEllipse
 10
0
 20
20
 30
0
 11
93.49023401972566
 21
66.34818704216994
 31
0
 40
0.3861984191039164
 41
0
 42
6.283185307179586
  0
MTEXT
  5
82
100
AcDbEntity
  8
eliipse
  6
ByLayer
 62
  256
370
   -1
100
AcDbMText
 10
9.996839226040182
 20
-9.893143914815543
 30
0
 40
20
 41
8.888888888888889
 71
    1
 72
    1
  1
<
  7
standard
210
0
220
0
230
1
 50
30.00000000000001
 73
    2
 44
1
  0
MTEXT
  5
83
100
AcDbEntity
  8
eliipse
  6
ByLayer
 62
  256
370
   -1
100
AcDbMText
 10
39.73286307543974
 20
103.3713541878961
 30
0
 40
20
 41
8.888888888888889
 71
    1
 72
    1
  1
>
  7
standard
210
0
220
0
230
1
 50
14.99999999999998
 73
    2
 44
1
  0
LINE
  5
84
100
AcDbEntity
  8
elec_brun
  6
ByLayer
 62
  256
370
   -1
100
AcDbLine
 10
10
 20
0
 11
10
 21
-11.99999999999998
  0
LINE
  5
85
100
AcDbEntity
  8
elec_brun
  6
ByLayer
 62
  256
370
   -1
100
AcDbLine
 10
9.999999999999996
 20
-34.99999999999991
 11
10
 21
-39.33314870927114
  0
CIRCLE
  5
86
100
AcDbEntity
  8
elec_brun
  6
ByLayer
 62
  256
370
   -1
100
AcDbCircle
 10
10
 20
0
 40
1
  0
CIRCLE
  5
87
100
AcDbEntity
  8
elec_bleu
  6
ByLayer
 62
    5
370
   -1
100
AcDbCircle
 10
-9.999999999999901
 20
-41.33315006400264
 40
2
  0
LINE
  5
88
100
AcDbEntity
  8
elec_bleu
  6
ByLayer
 62
    5
370
   -1
100
AcDbLine
 10
-10
 20
0
 11
-10
 21
-39.33315006400265
  0
CIRCLE
  5
89
100
AcDbEntity
  8
elec_bleu
  6
ByLayer
 62
    5
370
   -1
100
AcDbCircle
 10
-10
 20
0
 40
1
  0
LWPOLYLINE
  5
8A
100
AcDbEntity
  8
elec_jaune
  6
ByLayer
 62
  256
370
   -1
100
AcDbPolyline
 90
    4
 70
    1
 43
0
 10
-0.3199999999999999
 20
-23.33314773547883
 10
0.3200000000000002
 20
-23.33314773547883
 10
0.3200000000000002
 20
-25.89314773547878
 10
-0.3199999999999999
 20
-25.89314773547878
  0
LWPOLYLINE
  5
8B
100
AcDbEntity
  8
elec_jaune
  6
ByLayer
 62
  256
370
   -1
100
AcDbPolyline
 90
    4
 70
    1
 43
0
 10
-0.3199999999999999
 20
-57.33314773547883
 10
0.3200000000000002
 20
-57.33314773547883
 10
0.3200000000000002
 20
-59.89314773547878
 10
-0.3199999999999999
 20
-59.89314773547878
  0
LINE
  5
8C
100
AcDbEntity
  8
elec_jaune
  6
ByLayer
 62
  256
370
   -1
100
AcDbLine
 10
0
 20
0
 11
0
 21
-23
  0
CIRCLE
  5
8D
100
AcDbEntity
  8
elec_jaune
  6
ByLayer
 62
  256
370
   -1
100
AcDbCircle
 10
0
 20
0
 40
1
  0
MTEXT
  5
8E
100
AcDbEntity
  8
texte
  6
ByLayer
 62
  256
370
   -1
100
AcDbMText
 10
-12
 20
9
 30
0
 40
7
 41
3.888888888888889
 71
    1
 72
    1
  1
N
  7
standard
210
0
220
0
230
1
 50
0
 73
    2
 44
1
  0
MTEXT
  5
8F
100
AcDbEntity
  8
texte
  6
ByLayer
 62
  256
370
   -1
100
AcDbMText
 10
-2
 20
9
 30
0
 40
7
 41
3.888888888888889
 71
    1
 72
    1
  1
T
  7
standard
210
0
220
0
230
1
 50
0
 73
    2
 44
1
  0
MTEXT
  5
90
100
AcDbEntity
  8
texte
  6
ByLayer
 62
  256
370
   -1
100
AcDbMText
 10
7
 20
9
 30
0
 40
7
 41
9.333333333333659
 71
    1
 72
    1
  1
Ph
  7
standard
210
0
220
0
230
1
 50
0
 73
    2
 44
1
  0
CIRCLE
  5
91
100
AcDbEntity
  8
elec_brun
  6
ByLayer
 62
  256
370
   -1
100
AcDbCircle
 10
16
 20
-33.5
 40
1.5
  0
CIRCLE
  5
92
100
AcDbEntity
  8
elec_brun
  6
ByLayer
 62
  256
370
   -1
100
AcDbCircle
 10
16
 20
-13.5
 40
1.5
  0
LINE
  5
93
100
AcDbEntity
  8
elec_brun
  6
ByLayer
 62
  256
370
   -1
100
AcDbLine
 10
17.49999999999972
 20
-13.5
 11
17.50000000000036
 21
-33.5
  0
MTEXT
  5
94
100
AcDbEntity
  8
0
  6
ByLayer
 62
  256
370
   -1
100
AcDbMText
 10
-70
 20
-80
 30
0
 40
5
 41
157.0833348447612
 71
    1
 72
    1
  1
Schéma simplifié de la régulation automatique
  7
standard
210
0
220
0
230
1
 50
0
 73
    2
 44
1
  0
MTEXT
  5
95
100
AcDbEntity
  8
eliipse
  6
ByLayer
 62
  256
370
   -1
100
AcDbMText
 10
52.2222222222216
 20
80
 30
0
 40
10
 41
20.0000051428726
 71
    1
 72
    1
  1
30s
  7
standard
210
0
220
0
230
1
 50
0
 73
    2
 44
1
  0
LINE
  5
96
100
AcDbEntity
  8
axe
  6
ByLayer
 62
  256
370
   -1
100
AcDbLine
 10
0
 20
-170.0000000000001
 11
0
 21
-290
  0
LWPOLYLINE
  5
97
100
AcDbEntity
  8
construction
  6
ByLayer
 62
  256
370
   -1
100
AcDbPolyline
 90
    4
 70
    1
 43
0
 10
0
 20
-230
 10
0
 20
-230
 10
0
 20
-230
 10
0
 20
-230
  0
MTEXT
  5
98
100
AcDbEntity
  8
texte
  6
ByLayer
 62
  256
370
   -1
100
AcDbMText
 10
-10
 20
100
 30
0
 40
4
 41
24.88888888888944
 71
    1
 72
    1
  1
e-poignée
  7
standard
210
0
220
0
230
1
 50
0
 73
    2
 44
1
  0
MTEXT
  5
99
100
AcDbEntity
  8
texte
  6
ByLayer
 62
  256
370
   -1
100
AcDbMText
 10
-12
 20
45
 30
0
 40
4
 41
24.44444444444469
 71
    1
 72
    1
  1
Couvercle
  7
standard
210
0
220
0
230
1
 50
0
 73
    2
 44
1
  0
MTEXT
  5
9A
100
AcDbEntity
  8
texte
  6
ByLayer
 62
  256
370
   -1
100
AcDbMText
 10
-13
 20
35
 30
0
 40
4
 41
24.8888930031869
 71
    1
 72
    1
  1
Casserole
  7
standard
210
0
220
0
230
1
 50
0
 73
    2
 44
1
  0
MTEXT
  5
9B
100
AcDbEntity
  8
texte
  6
ByLayer
 62
  256
370
   -1
100
AcDbMText
 10
-21
 20
16
 30
0
 40
4
 41
45.11111522540926
 71
    1
 72
    1
  1
Table de cuisson
  7
standard
210
0
220
0
230
1
 50
0
 73
    2
 44
1
  0
ARC
  5
9C
100
AcDbEntity
  8
smartphone
  6
ByLayer
 62
  256
370
   -1
100
AcDbCircle
 10
-97.5
 20
97.40000000000001
 40
1.499999999999949
100
AcDbArc
 50
90
 51
180
  0
ARC
  5
9D
100
AcDbEntity
  8
smartphone
  6
ByLayer
 62
  256
370
   -1
100
AcDbCircle
 10
-82.50000083038493
 20
97.40000000000003
 40
1.500000830384928
100
AcDbArc
 50
0
 51
90
  0
ARC
  5
9E
100
AcDbEntity
  8
smartphone
  6
ByLayer
 62
  256
370
   -1
100
AcDbCircle
 10
-82.50000083038493
 20
62.59999999999994
 40
1.499999999999949
100
AcDbArc
 50
270
 51
0
  0
ARC
  5
9F
100
AcDbEntity
  8
smartphone
  6
ByLayer
 62
  256
370
   -1
100
AcDbCircle
 10
-97.5
 20
62.59999999999994
 40
1.500000830384928
100
AcDbArc
 50
180
 51
270
  0
LINE
  5
A0
100
AcDbEntity
  8
smartphone
  6
ByLayer
 62
  256
370
   -1
100
AcDbLine
 10
-97.50000059296175
 20
98.89999999999995
 11
-82.49842249100674
 21
98.89999999999998
  0
LINE
  5
A1
100
AcDbEntity
  8
smartphone
  6
ByLayer
 62
  256
370
   -1
100
AcDbLine
 10
-81
 20
97.40000000000003
 11
-81.00000083038583
 21
62.59999999999994
  0
LINE
  5
A2
100
AcDbEntity
  8
smartphone
  6
ByLayer
 62
  256
370
   -1
100
AcDbLine
 10
-82.50000083038493
 20
61.09999999999999
 11
-97.5
 21
61.09999999999999
  0
LINE
  5
A3
100
AcDbEntity
  8
smartphone
  6
ByLayer
 62
  256
370
   -1
100
AcDbLine
 10
-99.00000083038451
 20
62.59999999999994
 11
-98.99999999999991
 21
97.40000000000001
  0
MTEXT
  5
A4
100
AcDbEntity
  8
smartphone
  6
ByLayer
 62
  256
370
   -1
100
AcDbMText
 10
-92
 20
66
 30
0
 40
4
 41
30.22222137421436
 71
    1
 72
    1
  1
Smartphone
  7
standard
210
0
220
0
230
1
 50
90
 73
    2
 44
1
  0
ENDSEC
  0
SECTION
  2
OBJECTS
  0
DICTIONARY
  5
C
330
0
100
AcDbDictionary
281
    1
  3
ACAD_GROUP
350
D
  0
DICTIONARY
  5
D
330
C
100
AcDbDictionary
281
    1
  0
ENDSEC
  0
EOF
